<?xml version="1.0" encoding="utf-8"?>
<!-- Generator: Adobe Illustrator 23.0.4, SVG Export Plug-In . SVG Version: 6.00 Build 0)  -->
<svg version="1.1" id="圖層_1" xmlns="http://www.w3.org/2000/svg" xmlns:xlink="http://www.w3.org/1999/xlink" x="0px" y="0px"
	 viewBox="0 0 120 120" style="enable-background:new 0 0 120 120;" xml:space="preserve">
<style type="text/css">
	.st0{fill:url(#SVGID_1_);}
	.st1{fill:url(#SVGID_2_);}
	.st2{fill:url(#SVGID_3_);}
	.st3{fill:url(#SVGID_4_);}
	.st4{fill:url(#SVGID_5_);}
	.st5{fill:url(#SVGID_6_);}
	.st6{fill:url(#SVGID_7_);}
	.st7{fill:url(#SVGID_8_);}
	.st8{fill:url(#SVGID_9_);}
	.st9{fill:url(#SVGID_10_);}
	.st10{fill:url(#SVGID_11_);}
	.st11{fill:url(#SVGID_12_);}
	.st12{fill:url(#SVGID_13_);}
	.st13{fill:url(#SVGID_14_);}
	.st14{fill:url(#SVGID_15_);}
</style>
<linearGradient id="SVGID_1_" gradientUnits="userSpaceOnUse" x1="38.0162" y1="83.4548" x2="89.9224" y2="37.8786">
	<stop  offset="0" style="stop-color:#A2DED7"/>
	<stop  offset="1" style="stop-color:#F1A3A7"/>
</linearGradient>
<polygon class="st0" points="80.1,46.6 37.1,83.2 37.6,83.7 80.1,47.6 "/>
<linearGradient id="SVGID_2_" gradientUnits="userSpaceOnUse" x1="38.4186" y1="83.913" x2="90.3248" y2="38.3369">
	<stop  offset="0" style="stop-color:#A2DED7"/>
	<stop  offset="1" style="stop-color:#F1A3A7"/>
</linearGradient>
<polygon class="st1" points="84.7,42.7 84.7,43.7 91.8,37.6 91.8,36.7 "/>
<linearGradient id="SVGID_3_" gradientUnits="userSpaceOnUse" x1="47.32" y1="96.4353" x2="47.32" y2="30.9007">
	<stop  offset="0" style="stop-color:#A2DED7"/>
	<stop  offset="1" style="stop-color:#F1A3A7"/>
</linearGradient>
<rect x="33" y="38.7" class="st2" width="28.6" height="1.8"/>
<linearGradient id="SVGID_4_" gradientUnits="userSpaceOnUse" x1="83.215" y1="96.4353" x2="83.215" y2="30.9007">
	<stop  offset="0" style="stop-color:#A2DED7"/>
	<stop  offset="1" style="stop-color:#F1A3A7"/>
</linearGradient>
<rect x="70.1" y="69" class="st3" width="26.2" height="1.8"/>
<linearGradient id="SVGID_5_" gradientUnits="userSpaceOnUse" x1="82.135" y1="96.4353" x2="82.135" y2="30.9007">
	<stop  offset="0" style="stop-color:#A2DED7"/>
	<stop  offset="1" style="stop-color:#F1A3A7"/>
</linearGradient>
<rect x="69" y="27.5" class="st4" width="26.2" height="1.8"/>
<linearGradient id="SVGID_6_" gradientUnits="userSpaceOnUse" x1="71.69" y1="96.4353" x2="71.69" y2="30.9007">
	<stop  offset="0" style="stop-color:#A2DED7"/>
	<stop  offset="1" style="stop-color:#F1A3A7"/>
</linearGradient>
<rect x="70.1" y="35" class="st5" width="3.2" height="35.8"/>
<linearGradient id="SVGID_7_" gradientUnits="userSpaceOnUse" x1="60.055" y1="96.4353" x2="60.055" y2="30.9007">
	<stop  offset="0" style="stop-color:#A2DED7"/>
	<stop  offset="1" style="stop-color:#F1A3A7"/>
</linearGradient>
<polygon class="st6" points="58.5,63.1 58.5,77.9 61.6,77.9 61.6,60.5 "/>
<linearGradient id="SVGID_8_" gradientUnits="userSpaceOnUse" x1="60.055" y1="96.4353" x2="60.055" y2="30.9007">
	<stop  offset="0" style="stop-color:#A2DED7"/>
	<stop  offset="1" style="stop-color:#F1A3A7"/>
</linearGradient>
<polygon class="st7" points="61.6,51.8 61.6,38.7 58.5,38.7 58.5,54.5 "/>
<linearGradient id="SVGID_9_" gradientUnits="userSpaceOnUse" x1="23.7" y1="67.555" x2="61.63" y2="67.555">
	<stop  offset="0" style="stop-color:#A2DED7"/>
	<stop  offset="1" style="stop-color:#F1A3A7"/>
</linearGradient>
<polygon class="st8" points="61.6,51 23.7,83.3 23.7,84.1 61.6,51.8 "/>
<linearGradient id="SVGID_10_" gradientUnits="userSpaceOnUse" x1="36.42" y1="96.4353" x2="36.42" y2="30.9007">
	<stop  offset="0" style="stop-color:#A2DED7"/>
	<stop  offset="1" style="stop-color:#F1A3A7"/>
</linearGradient>
<polyline class="st9" points="34.8,95.9 34.8,46.2 38,46.2 38,95.9 "/>
<linearGradient id="SVGID_11_" gradientUnits="userSpaceOnUse" x1="23.7" y1="65.78" x2="61.63" y2="65.78">
	<stop  offset="0" style="stop-color:#A2DED7"/>
	<stop  offset="1" style="stop-color:#F1A3A7"/>
</linearGradient>
<polygon class="st10" points="61.6,49.2 23.7,81.4 23.7,82.3 61.6,50.1 "/>
<linearGradient id="SVGID_12_" gradientUnits="userSpaceOnUse" x1="37.4351" y1="82.7929" x2="89.3412" y2="37.2167">
	<stop  offset="0" style="stop-color:#A2DED7"/>
	<stop  offset="1" style="stop-color:#F1A3A7"/>
</linearGradient>
<polygon class="st11" points="84.7,40.8 84.7,41.7 91.8,35.6 91.8,34.7 "/>
<linearGradient id="SVGID_13_" gradientUnits="userSpaceOnUse" x1="37.0136" y1="82.3129" x2="88.9198" y2="36.7367">
	<stop  offset="0" style="stop-color:#A2DED7"/>
	<stop  offset="1" style="stop-color:#F1A3A7"/>
</linearGradient>
<polygon class="st12" points="34.8,83.1 34.8,84.5 34.8,84 80.1,45.6 80.1,44.7 "/>
<linearGradient id="SVGID_14_" gradientUnits="userSpaceOnUse" x1="60.015" y1="112.934" x2="60.015" y2="7.6249">
	<stop  offset="0" style="stop-color:#A2DED7"/>
	<stop  offset="1" style="stop-color:#F1A3A7"/>
</linearGradient>
<path class="st13" d="M113.4,113.7H6.7V7h106.7V113.7z M7.9,112.4h104.2V8.2H7.9V112.4z"/>
</svg>
