<?xml version="1.0" encoding="utf-8"?>
<!-- Generator: Adobe Illustrator 23.0.4, SVG Export Plug-In . SVG Version: 6.00 Build 0)  -->
<svg version="1.1" id="圖層_1" xmlns="http://www.w3.org/2000/svg" xmlns:xlink="http://www.w3.org/1999/xlink" x="0px" y="0px"
	 viewBox="0 0 120 120" style="enable-background:new 0 0 120 120;" xml:space="preserve">
<style type="text/css">
	.st0{fill:url(#SVGID_1_);}
	.st1{fill:url(#SVGID_2_);}
	.st2{fill:url(#SVGID_3_);}
	.st3{fill:url(#SVGID_4_);}
	.st4{fill:url(#SVGID_5_);}
	.st5{fill:url(#SVGID_6_);}
	.st6{fill:url(#SVGID_7_);}
	.st7{fill:url(#SVGID_8_);}
	.st8{fill:url(#SVGID_9_);}
	.st9{fill:url(#SVGID_10_);}
	.st10{fill:url(#SVGID_11_);}
</style>
<linearGradient id="SVGID_1_" gradientUnits="userSpaceOnUse" x1="60" y1="111.6158" x2="60" y2="13.7307">
	<stop  offset="0" style="stop-color:#A2DED7"/>
	<stop  offset="1" style="stop-color:#F1A3A7"/>
</linearGradient>
<path class="st0" d="M60,113.4C30.5,113.4,6.6,89.5,6.6,60S30.5,6.6,60,6.6s53.4,23.9,53.4,53.4C113.4,89.5,89.5,113.4,60,113.4z
	 M60,8.9C31.8,8.9,8.9,31.8,8.9,60s22.9,51.1,51.1,51.1s51.1-22.9,51.1-51.1C111,31.8,88.2,9,60,8.9z"/>
<linearGradient id="SVGID_2_" gradientUnits="userSpaceOnUse" x1="86.165" y1="111.6158" x2="86.165" y2="13.7307">
	<stop  offset="0" style="stop-color:#A2DED7"/>
	<stop  offset="1" style="stop-color:#F1A3A7"/>
</linearGradient>
<rect x="60.1" y="58.8" class="st1" width="52.2" height="2.4"/>
<linearGradient id="SVGID_3_" gradientUnits="userSpaceOnUse" x1="60.005" y1="111.6158" x2="60.005" y2="13.7307">
	<stop  offset="0" style="stop-color:#A2DED7"/>
	<stop  offset="1" style="stop-color:#F1A3A7"/>
</linearGradient>
<rect x="58.8" y="7.8" class="st2" width="2.4" height="104.5"/>
<linearGradient id="SVGID_4_" gradientUnits="userSpaceOnUse" x1="33.875" y1="111.6158" x2="33.875" y2="13.7307">
	<stop  offset="0" style="stop-color:#A2DED7"/>
	<stop  offset="1" style="stop-color:#F1A3A7"/>
</linearGradient>
<rect x="7.8" y="50.2" class="st3" width="52.2" height="2.4"/>
<linearGradient id="SVGID_5_" gradientUnits="userSpaceOnUse" x1="38.305" y1="111.6158" x2="38.305" y2="13.7307">
	<stop  offset="0" style="stop-color:#A2DED7"/>
	<stop  offset="1" style="stop-color:#F1A3A7"/>
</linearGradient>
<rect x="37.1" y="12.4" class="st4" width="2.4" height="26.4"/>
<linearGradient id="SVGID_6_" gradientUnits="userSpaceOnUse" x1="23.0183" y1="111.6158" x2="23.0183" y2="13.7307">
	<stop  offset="0" style="stop-color:#A2DED7"/>
	<stop  offset="1" style="stop-color:#F1A3A7"/>
</linearGradient>
<polygon class="st5" points="10.6,79.1 33.4,38.3 35.5,39.5 12.6,80.3 "/>
<linearGradient id="SVGID_7_" gradientUnits="userSpaceOnUse" x1="50.8887" y1="111.6158" x2="50.8887" y2="13.7307">
	<stop  offset="0" style="stop-color:#A2DED7"/>
	<stop  offset="1" style="stop-color:#F1A3A7"/>
</linearGradient>
<polygon class="st6" points="40.6,39.3 42.7,38.1 61.1,71 59.1,72.2 "/>
<linearGradient id="SVGID_8_" gradientUnits="userSpaceOnUse" x1="36.5222" y1="111.6158" x2="36.5222" y2="13.7307">
	<stop  offset="0" style="stop-color:#A2DED7"/>
	<stop  offset="1" style="stop-color:#F1A3A7"/>
</linearGradient>
<polygon class="st7" points="35.2,107 35.5,85.8 37.9,85.8 37.5,107.1 "/>
<linearGradient id="SVGID_9_" gradientUnits="userSpaceOnUse" x1="37.04" y1="111.6158" x2="37.04" y2="13.7307">
	<stop  offset="0" style="stop-color:#A2DED7"/>
	<stop  offset="1" style="stop-color:#F1A3A7"/>
</linearGradient>
<rect x="14.8" y="72.8" class="st8" width="44.6" height="2.4"/>
<linearGradient id="SVGID_10_" gradientUnits="userSpaceOnUse" x1="36.645" y1="111.6158" x2="36.645" y2="13.7307">
	<stop  offset="0" style="stop-color:#A2DED7"/>
	<stop  offset="1" style="stop-color:#F1A3A7"/>
</linearGradient>
<rect x="35.5" y="74" class="st9" width="2.4" height="11.8"/>
<linearGradient id="SVGID_11_" gradientUnits="userSpaceOnUse" x1="36.09" y1="111.6158" x2="36.09" y2="13.7307">
	<stop  offset="0" style="stop-color:#A2DED7"/>
	<stop  offset="1" style="stop-color:#F1A3A7"/>
</linearGradient>
<rect x="12.2" y="37.7" class="st10" width="47.8" height="2.4"/>
</svg>
