<?xml version="1.0" encoding="utf-8"?>
<!-- Generator: Adobe Illustrator 23.0.4, SVG Export Plug-In . SVG Version: 6.00 Build 0)  -->
<svg version="1.1" id="圖層_1" xmlns="http://www.w3.org/2000/svg" xmlns:xlink="http://www.w3.org/1999/xlink" x="0px" y="0px"
	 viewBox="0 0 120 120" style="enable-background:new 0 0 120 120;" xml:space="preserve">
<style type="text/css">
	.st0{fill:url(#SVGID_1_);}
	.st1{opacity:0.3;fill:url(#SVGID_2_);}
	.st2{fill:url(#SVGID_3_);}
	.st3{fill:url(#SVGID_4_);}
	.st4{fill:url(#SVGID_5_);}
	.st5{opacity:0.3;fill:url(#SVGID_6_);}
	.st6{opacity:0.3;fill:url(#SVGID_7_);}
	.st7{opacity:0.3;fill:url(#SVGID_8_);}
	.st8{fill:url(#SVGID_9_);}
	.st9{opacity:0.3;fill:url(#SVGID_10_);}
	.st10{fill:url(#SVGID_11_);}
	.st11{fill:url(#SVGID_12_);}
	.st12{opacity:0.3;fill:url(#SVGID_13_);}
	.st13{opacity:0.3;fill:url(#SVGID_14_);}
	.st14{fill:url(#SVGID_15_);}
	.st15{opacity:0.3;fill:url(#SVGID_16_);}
	.st16{opacity:0.3;fill:url(#SVGID_17_);}
	.st17{opacity:0.3;fill:url(#SVGID_18_);}
	.st18{fill:url(#SVGID_19_);}
	.st19{opacity:0.3;fill:url(#SVGID_20_);}
	.st20{opacity:0.3;fill:url(#SVGID_21_);}
	.st21{fill:url(#SVGID_22_);}
	.st22{fill:url(#SVGID_23_);}
	.st23{fill:url(#SVGID_24_);}
	.st24{fill:url(#SVGID_25_);}
	.st25{fill:#DBB4AD;}
	.st26{fill:url(#SVGID_26_);}
	.st27{fill:url(#SVGID_27_);}
	.st28{fill:url(#SVGID_28_);}
	.st29{fill:url(#SVGID_29_);}
	.st30{fill:url(#SVGID_30_);}
	.st31{fill:url(#SVGID_31_);}
	.st32{fill:url(#SVGID_32_);}
	.st33{opacity:0.3;fill:url(#SVGID_33_);}
	.st34{fill:url(#SVGID_34_);}
	.st35{fill:url(#SVGID_35_);}
	.st36{opacity:0.3;fill:url(#SVGID_36_);}
	.st37{fill:url(#SVGID_37_);}
	.st38{fill:url(#SVGID_38_);}
	.st39{fill:url(#SVGID_39_);}
	.st40{fill:url(#SVGID_40_);}
</style>
<linearGradient id="SVGID_1_" gradientUnits="userSpaceOnUse" x1="101.6463" y1="75.4871" x2="101.6463" y2="35.0051">
	<stop  offset="0" style="stop-color:#A2DED7"/>
	<stop  offset="1" style="stop-color:#F1A3A7"/>
</linearGradient>
<path class="st0" d="M104.7,75.6c-0.8-0.5-1.5-1.1-2.1-1.8c-1.2-1.4-1.3-2.6-0.3-4.1c0.5-0.8,0.8-1.7,0.6-2.7
	c-0.1-0.7-0.1-1.4-0.2-2.1c0-0.5-0.2-0.8-0.7-0.7c-0.2,0-0.5,0-0.7,0c-1.5,0-2,0.5-2,2c0.1,2.1,0.1,4.2,0.2,6.2
	c0,0.5-0.1,0.7-0.6,0.7c-0.9,0-1.8-0.5-2.2-1.4c-0.7-1.3-1.2-2.7-1.4-4.2c-0.1-1.8-1.7-3.2-3.4-3.1c-0.8-0.1-0.9-0.4-0.7-1
	c0.3-1,0.5-2,0.8-3c0.1-0.4,0-0.5-0.4-0.5c-1.1,0-2.2,0-3.3,0.2c-1.1,0-2.1-0.5-2.8-1.3c-0.2-0.4,0-0.6,0.2-0.8
	c0.6-0.4,1.4-0.8,2.1-1c3.3-1.2,6.7-2.1,10.2-2.8c0.6-0.1,1.1-0.4,1.5-0.8c1.3-1.2,2.4-2.6,3.2-4.1c0.1-0.2,0.3-0.5,0.1-0.7
	s-0.4,0.1-0.6,0.2c-3.8,1.6-7.5,3.2-11.2,4.8c-0.4,0.2-0.9,0.2-1.2-0.1c-1.2-0.9-2.3-1.9-2.2-3.6c0-0.3,0.1-0.5,0.3-0.7
	c2-2,3.2-4.7,3.4-7.6c0.1-0.7,0.2-1.4,0.2-2.1c0-0.2,0-0.5,0.3-0.5c1-0.2,2,0.1,2.7,0.8c0.3,0.3,0.6,0.7,0.9,1
	c0.2,0.4,0.3,0.8,0.2,1.2c-0.2,1.8-0.4,3.5-0.9,5.2c-0.1,0.5,0,0.7,0.5,0.5c0.7-0.1,1.4-0.4,2-0.7c0.4-0.2,0.7-0.6,0.7-1.1
	c0.1-1.7,0.2-3.3,0.2-4.9c0.1-1.1,0.2-2.3,0.2-3.4c0.1-0.6,0.1-1.2-0.1-1.8c-0.1-1.2-0.2-2.4-0.3-3.5c0-0.4,0-0.6,0.5-0.6
	c0.9,0,1.8,0.1,2.7,0.2c0.7,0.2,1.2,0.6,1.5,1.2c0,0.7,0,1.4,0.1,2c0,2.4-0.3,4.7-0.8,7.1c-0.3,1-0.5,2-0.8,3
	c-0.1,0.4,0,0.5,0.4,0.5c1.4-0.1,2.7-0.6,3.8-1.5c0.1,0,0.2,0,0.2-0.1l0.1-0.1c0.2,0,0.3-0.1,0.3-0.2c0.9-1.1,1.4-2.5,1.3-3.9
	c-0.1-0.8,0.3-1.1,1-1c0.2,0,0.5,0,0.7,0c1.2-0.1,2.4,0.8,2.5,2.1c0,0.1,0,0.3,0,0.4c0,0.6-0.1,1.2-0.1,1.8
	c-0.1,0.1-0.2,0.2-0.1,0.3v0.3c-0.7,1.3-1.4,2.6-2.1,3.9l-3.6,4.7l6.1-0.3c0.5,0.3,1,0.6,1.4,0.9c1,0.8,1,1.5,0,2.3
	c-1.1,0.2-2.2,0.2-3.2,0.1c-0.7-0.1-1.4-0.1-2.1,0c-2.9,0.7-5.8,1.5-8.7,2.2c-0.3,0.1-0.5,0.2-0.4,0.6c0.3,1.1,0.3,2.3,0,3.5
	c1.7-0.7,3.5-1.3,5.2-1.7c3.2-0.8,6.4-1.9,9.7-0.2c1.3,0.6,2.6,1.3,3.7,2.2c0.9,1,1.2,2.5,0.8,3.8c-0.6,2.6-1.4,5.1-2.4,7.6
	c-0.3,0.9-0.8,1.8-1.4,2.5c-0.4,0.7-1.3,1-2,0.6c-0.7-0.2-1.4-0.5-2.1-0.8c-0.8-0.5-1.7-0.9-2.6-1.2c-0.5-0.4-0.8-0.5-0.8,0.3
	l-0.2,0.6C105.9,76,105.6,76.1,104.7,75.6z M112.9,63.7c0.1-0.5,0-1-0.4-1.4c-1.9-1.4-4.3-1.5-6.3-0.3c-0.3,0.2-0.5,0.5-0.3,0.9
	c0.3,0.6,0.5,1.2,0.5,1.9c0.1,1.9,0.2,3.7,0.1,5.6c-0.1,0.7,0.4,1.4,1.1,1.5c0.5,0.3,1,0.1,1.5,0.1c1.7,0.3,2.3-0.7,2.8-2
	C112.6,68.1,112.9,65.9,112.9,63.7z"/>
<linearGradient id="SVGID_2_" gradientUnits="userSpaceOnUse" x1="-1.7873" y1="74.319" x2="109.863" y2="74.319">
	<stop  offset="0" style="stop-color:#A2DED7"/>
	<stop  offset="1" style="stop-color:#F1A3A7"/>
</linearGradient>
<path class="st1" d="M36.1,74.9c-0.8,0.1-1.5,0.4-2.1,0.9c-0.5,0.4-1,0.6-1.5,1c-1.2,0.9-2.6,1.5-3.8,2.4c-0.8,0.5-1.8,0.6-2.8,0.3
	c-0.5-0.2-1.1,0.1-1.4,0.5c-0.6,0.9-1.4,1.8-2.3,2.4c-1.9,1.7-4.1,2.9-6.6,3.6c-2.5,0.7-5.1,0.6-7.5-0.3c-1.8-0.7-3.4-1.9-4.4-3.6
	c-0.2-0.3-0.3-0.7-0.7-0.7c-0.1,0-0.2-0.1-0.2-0.1c-0.1-1.8-1.1-3.6-0.5-5.4c0.3-0.8,0.4-1.7,1.3-2.2c0.6-0.3,0.8-1,1.4-1.4
	c1.1-0.8,2.5-1.4,3.9-1.6c0.2,0,0.5,0,0.6-0.3c0.7-0.9,1.4-1.7,2.3-2.5c1.4-1.6,3-3,4.8-4.2c1.1-0.9,2.4-1.5,3.9-1.5
	c0.9,0,1.2,0.4,1,1.3c-0.1,0.4-0.5,0.8-0.1,1.2c-1.1,0.4-2.3,0.6-3.4,0.5c-0.3-0.1-0.4,0-0.4,0.3c-0.1,0.5,0.3,1,0.9,1.1
	c0.1,0,0.1,0,0.2,0c0.2,0,0.5-0.2,0.7-0.1c0,0.3-0.3,0.5-0.5,0.7c-1.2,1.2-2.5,2.4-3.6,3.8c-0.1,0.2-0.5,0.4-0.1,0.6
	c0.6,0.3,1.3,0.4,2,0.5c0.2,0,0.2-0.2,0.3-0.4c0.7-1.3,1.4-2.6,2.1-3.9c0.2-0.5,0.8-0.8,0.6-1.5c1.9-0.5,3.8-1,5.6-1.6
	c0.5-0.2,0.6-0.1,0.6,0.5c0,2.3,0,4.6,0,6.8c-0.1,1.2,0,2.4,0.1,3.6c0.1,0.3,0,0.7,0.4,0.7s0.4-0.5,0.5-0.7c0.3-1.9,0.5-3.8,0.6-5.8
	c0-1.8,0.5-3.6,0.4-5.4c0-0.4,0.1-0.4,0.5-0.4c0.2,1.2,0.3,2.4,0.3,3.6c-0.1,0.8-0.2,1.6-0.2,2.4c0,0.5-0.4,1,0.2,1.5
	c0.2,0.2-0.3,0.4-0.4,0.6s-0.4,0.3-0.2,0.6s0.4-0.1,0.5-0.2c2-1.1,4.2-1.9,6.2-3c0.8-0.5,1.6-0.9,2.5-1.1c0,0.8-0.1,1.7-0.2,2.5
	C37.4,72.4,36.9,73.7,36.1,74.9z M12.2,76.5c0,0.3,0.2,0.6,0.2,0.8c0,0.6,0.3,0.7,0.8,0.4c0.6-0.4,1.2-0.9,1.6-1.5
	c0.3-0.4,0.2-0.5-0.2-0.7c-0.5-0.2-1-0.3-1.6-0.4c-0.3-0.1-0.4,0.1-0.5,0.3S12.3,76.1,12.2,76.5z M23.2,72.2c0-0.2,0-0.4-0.2-0.4
	c-0.2,0-0.3,0.1-0.3,0.2c-0.1,0.4-0.2,0.8-0.3,1.1c0,0.2-0.3,0.3,0,0.4c0.2,0.1,0.4,0,0.4-0.1c0,0,0,0,0,0
	C22.9,73.1,23,72.6,23.2,72.2L23.2,72.2z"/>
<linearGradient id="SVGID_3_" gradientUnits="userSpaceOnUse" x1="26.1038" y1="75.4871" x2="26.1038" y2="35.0051">
	<stop  offset="0" style="stop-color:#A2DED7"/>
	<stop  offset="1" style="stop-color:#F1A3A7"/>
</linearGradient>
<path class="st2" d="M19.4,66.5c-0.2-0.1-0.5,0.1-0.7,0.1c-0.5,0.1-1-0.3-1.1-0.9c0-0.1,0-0.1,0-0.2c0-0.3,0.1-0.4,0.4-0.3
	c1.2,0.1,2.4-0.1,3.4-0.5l0.3-0.1c0.1,0,0.2,0,0.3-0.1l0,0c1.4-0.2,2.9-0.6,4.2-1c0.6-0.2,0.3-0.8,0.3-1.3s-0.3-0.5-0.7-0.4
	c-0.6,0.1-1.2,0.2-1.8,0.2c-0.5-0.5-0.9-1.1-1-1.8c-0.5-1.6-1-3.2-1.2-4.8c0-0.2-0.3-0.6,0.1-0.7c0.3-0.2,0.7,0,0.9,0.3
	c0.3,0.6,0.5,1.3,0.7,1.9c0.1,0.4,0.1,0.8,0.7,0.8s1.5,0.2,1.9-0.7s0-1.5-1.1-1.5h-0.5c-0.2,0-0.4,0-0.4-0.3s0.1-0.3,0.3-0.3
	c1.3-0.4,1.5-1,0.8-2.1c-0.3-0.4-0.5-0.4-0.9-0.3c-2.2,0.6-4.5,1.2-6.7,1.8c-0.4,0.1-0.9,0.1-1.3-0.1c-0.2-0.1-0.3-0.3-0.2-0.5
	c0-0.2,0.2-0.2,0.4-0.2c1.7-0.1,3.4-0.4,5.1-1c0.5-0.1,0.6-0.3,0.5-0.8c-0.2-0.8-0.3-1.6-0.3-2.4c0-0.5-0.2-0.6-0.6-0.5
	c-0.2,0-0.4,0-0.5,0c-1.5,0-1.5,0-2.2-1.7c0.7,0.2,1.5,0.3,2.3,0.3c0.9,0.1,1.9-0.1,2.7-0.6c0.4-0.3,0.8-0.6,1.1-1.1
	c0.4-0.4,0.4-1.1,0-1.6c-0.1-0.1-0.3-0.2-0.4-0.3c-0.4-0.2-0.8-0.5-1.1-0.8c-0.2-0.3-0.2-0.5,0.2-0.5c1.5-0.1,3,0.4,4.3,1.3
	c0.3,0.2,0.1,0.4,0.1,0.7c0,0.5-0.6,1.1-0.2,1.5s1,0,1.5-0.1c1.1-0.1,2.1,0,3.1,0.3c0.2,0,0.3,0.2,0.3,0.4c0,0,0,0,0,0
	c0,0.2,0,0.4-0.3,0.4c-0.5,0-0.9,0.2-1.3,0.4c-0.4,0.2-0.8,0.5-1,0.9c-0.2,0.4-0.4,0.9-0.2,1.2s0.7,0,1,0c1-0.1,2.1-0.2,3.1-0.3
	c0.9,0,1.8,0.3,2.6,0.8c0.2,0.1,0.3,0.3,0.3,0.5s-0.3,0.1-0.5,0.1c-1,0-2,0.3-2.9,0.6c-0.4,0.2-0.7,0.2-0.8-0.3s-0.3-0.3-0.5-0.3
	c-1.2,0.1-2.5,0.3-3.6,0.7c-0.4,0.1-1,0.2-0.8,0.9c0.2,0.6,0.8,1,1.4,0.9c0.6-0.1,1.1-0.5,1.3-1.1c0.2-0.7,0.5-0.8,1-0.3
	c0.6,0.6,1.1,1.2,1.6,1.9c0.3,0.4,0.4,0.8,0.3,1.3c-0.4,2.1-1.2,4.1-2.1,6c-0.1,0.3-0.3,0.4-0.6,0.3c0,0,0,0,0,0
	c-0.2,0-0.5-0.1-0.8-0.1c-0.8,0-1,0.2-1,1s0.2,0.9,1,0.8c0.8,0,1.7-0.2,2.5-0.3c1.3-0.3,2.4,0.3,3.5,0.8c0.3,0.1,0.4,0.5,0.3,0.8
	c-0.1,0.4-0.4,0.2-0.6,0.2c-0.3,0-0.7-0.1-1-0.2c-1.4-0.5-2.8-0.6-4.2-0.4c-0.2,0-0.4,0.1-0.6,0.1c-0.3-0.1-0.5,0-0.5,0.4
	c0.1,1.8-0.4,3.6-0.4,5.4c-0.1,1.9-0.3,3.9-0.6,5.8c0,0.3,0.1,0.8-0.5,0.7s-0.4-0.4-0.4-0.7c-0.2-1.2-0.2-2.4-0.1-3.6
	c0-2.3,0-4.6,0-6.8c0-0.5-0.1-0.6-0.6-0.5c-1.9,0.6-3.7,1.1-5.6,1.6L19.4,66.5z M25.7,47.8c-0.8,0-1.5,0-2.2,0.2
	c-0.8,0.2-1,0.5-0.8,1.3c0.1,0.4,0.2,0.8,0.3,1.2c0.1,0.7,0.4,0.8,1,0.5c0.2-0.1,0.4-0.1,0.6,0c1.5,0.3,2.9-0.7,3.2-2.2c0,0,0,0,0,0
	c0.1-0.3-0.1-0.6-0.3-0.7C27,47.6,26.2,47.9,25.7,47.8z M30.3,53.7c-0.7,0.3-1.4,0.5-2.1,0.6c-0.1,0-0.3,0-0.3,0.2
	c-0.1,0.6-0.1,1.3,0.1,1.9c0.2,0.5,0.7,0.2,1.1,0.2s0.7,0.2,0.8-0.2C30.2,55.4,30.3,54.6,30.3,53.7z M26,59.8c0-1-0.2-1.2-1.2-1.1
	s-0.4,0.7-0.4,1.1c0,0.3,0,0.6,0.1,0.8c0,0.1,0.1,0.2,0.2,0.2c0.5,0.1,1.1-0.2,1.2-0.7C26,60,26,59.9,26,59.8z M27.9,59
	c0,0.2,0,0.4,0,0.5c0.1,0.3,0.1,0.6,0.4,0.7s0.5-0.2,0.7-0.5c0.2-0.3,0.3-0.7,0.4-1.1c0.1-0.3,0.3-0.7-0.2-0.8s-0.9-0.2-1.2,0.3
	C27.9,58.4,27.9,58.7,27.9,59z"/>
<linearGradient id="SVGID_4_" gradientUnits="userSpaceOnUse" x1="45.3542" y1="75.4871" x2="45.3542" y2="35.0051">
	<stop  offset="0" style="stop-color:#A2DED7"/>
	<stop  offset="1" style="stop-color:#F1A3A7"/>
</linearGradient>
<path class="st3" d="M36.1,74.9c0.8-1.1,1.3-2.5,1.4-3.9c0.2-0.8,0.3-1.7,0.3-2.5c0.2-2.4,0.2-4.8,0.2-7.2c0-0.4-0.1-0.5-0.5-0.4
	C37.3,61,37.1,61,36.9,61c-0.4,0.1-0.9,0.4-1.2,0.1C35.2,60.6,35,60,35,59.3c0-0.2,0-0.3,0.3-0.3c1.6,0,3-0.6,4.5-1
	c2.4-0.6,4.8-1.4,7.2-2.2c0.8-0.2,1.7,0.1,2.2,0.8c0.2,0.3,0.3,0.6-0.1,0.9s-0.4,1-1.1,0.6c-0.3-0.1-0.6-0.1-0.8,0
	c-2.3,0.7-4.7,1.4-7.1,2.1c-0.5,0.1-0.6,0.2-0.3,0.7c0.4,1,0.7,2,0.8,3.1c0.1,0.6,0.3,0.7,0.8,0.5c1-0.4,2.1-0.9,3-1.4
	c1-0.6,2.2-0.5,3.1,0.1l0,0.3v0.9c-0.1,1.9-0.3,3.8-0.4,5.7l-0.2,2.1c-0.2,0.8-0.2,1.6,0,2.3l0.1,0.3c0,0.1,0,0.1,0,0.2c0,0,0,0,0,0
	c0.2,0.8,0.8,1.4,1.6,1.7c1.2,0.5,2.5,0.6,3.7,0.4c0.4,0,0.8-0.3,1-0.7c0.1,0,0.1-0.1,0.1-0.2c0,0,0,0,0,0v-0.4c0-0.4,0-0.8,0-1.2
	c0-0.2-0.1-0.5,0.1-0.6c0.3-0.1,0.6,0,0.8,0.2c0.6,0.6,1.2,1.2,1.7,1.9c0.3,1.3,0.2,1.7-1,2.1c-2.8,1-5.9,0.7-8.4-0.8
	c-1.2-0.8-2-2.1-2.1-3.5c-0.1-0.3-0.1-0.6-0.2-0.9c0-1.1,0-2.2,0-3.2c0-0.4-0.1-0.4-0.5-0.3c-0.9,0.3-1.7,0.7-2.6,1.1
	c-0.8,0.4-1.4,1.3-1.4,2.3c-0.1,0.4-0.4,1-0.1,1.3s0.8-0.2,1.2-0.3s0.5-0.3,0.8-0.2c0.1,0.2,0,0.2-0.1,0.3c-1.2,1.4-2.5,2.7-3.9,3.9
	c-0.2,0.2-0.4,0.3-0.7,0.5c-0.6,0.5-1.4,0.4-1.9-0.1c-0.2-0.2-0.3-0.5-0.3-0.8c-0.1-0.3,0-0.7,0.2-0.9C35.4,76,35.8,75.5,36.1,74.9z
	 M44.5,66c0.1-0.2,0.2-0.5,0.1-0.8v-0.4c0-0.1,0-0.2-0.2-0.2c-0.8,0.1-1.5,0.5-2.1,1.1C42,66,41.5,66.2,41,66.1
	c-0.8-0.2-1,0.2-0.8,0.9c-0.1,0.4,0,0.9,0.1,1.3c0.1,0.3,0.3,0.4,0.6,0.3c1-0.5,2-0.8,3.1-1c0.3,0,0.4-0.1,0.4-0.4
	S44.4,66.4,44.5,66L44.5,66z"/>
<linearGradient id="SVGID_5_" gradientUnits="userSpaceOnUse" x1="77.6353" y1="75.4871" x2="77.6353" y2="35.0051">
	<stop  offset="0" style="stop-color:#A2DED7"/>
	<stop  offset="1" style="stop-color:#F1A3A7"/>
</linearGradient>
<path class="st4" d="M73.5,47.3c0-0.2,0.1-0.4,0.3-0.6c0.1,0,0.2,0,0.4,0c2.3-0.7,4.7-1.3,7-1.9c0.4-0.2,0.9-0.2,1.4-0.2
	c0.2,0.1,0.4,0.2,0.5,0.3c0.2,0.2,0.7,0,0.7,0.5s0.1,1.1-0.6,1.3c-1.3,0.5-2.1,1.9-1.9,3.2c0,0.9,0,1.9-0.2,2.8c0,0.4,0,0.6,0.4,0.7
	c0.3,0.1,0.7,0.3,0.9,0.6c0.3,0.3,0.8,0.7,0.9,1s-0.6,0.5-0.9,0.8c-0.9,0.7-1.5,1.8-1.5,3c-0.1,1,0,2,0,3c0,0.5,0.2,0.5,0.5,0.3
	s0.9-0.7,1.4-1.1c0.2-0.1,0.4-0.4,0.6-0.2s0,0.4-0.1,0.6c-1.1,1.8-2.1,3.7-3.2,5.5c-1.2,2.1-2.5,4.1-3.8,6.2
	c-0.7,1.1-1.1,1.3-1.8,0.9c-0.8-0.5-1.2-1.5-0.9-2.4c0.8-2.2,1.5-4.5,2.4-6.7c0.7-1.8,0.9-3.7,0.7-5.7c-0.7-0.2-1.5-0.3-2.3-0.1
	c-1.6,0.2-2.3-0.8-2.9-1.9c-0.3-0.6-0.2-1,0.5-1.1c1-0.1,1.9-0.3,2.9-0.6c1-0.2,2.1-0.6,3-1.1c0.4-0.2,0.7-0.6,0.6-1.1c0-1,0-2,0-3
	c0-1.5-0.1-1.6-1.6-1.1c0,0-0.1,0-0.1,0.1c-1,0.4-1.7-0.2-2.5-0.6C73.8,48.5,73.4,47.9,73.5,47.3z M78.6,59.8c0-0.3,0.1-0.5-0.2-0.6
	c-0.4-0.2-0.9,0.1-1.1,0.5c0,0.1,0,0.1,0,0.2c0,0.5,0,1.1,0,1.7c0,0.2,0,0.5,0.4,0.5s0.5-0.1,0.6-0.4C78.4,61,78.5,60.4,78.6,59.8z
	 M79.2,65.6c-1.1-0.1-1.6,0.3-1.8,1.4c0,0.3-0.3,0.7,0.2,0.8s0.7-0.1,0.9-0.5C78.8,66.8,79,66.2,79.2,65.6z"/>
<linearGradient id="SVGID_6_" gradientUnits="userSpaceOnUse" x1="-1.7873" y1="41.19" x2="109.863" y2="41.19">
	<stop  offset="0" style="stop-color:#A2DED7"/>
	<stop  offset="1" style="stop-color:#F1A3A7"/>
</linearGradient>
<path class="st5" d="M82.6,44.6c-0.5-0.1-1,0-1.4,0.2c-2.3,0.6-4.7,1.2-7,1.9c-0.1,0-0.2,0-0.4,0c0.7-1.4,1.8-2.7,3-3.7
	c2.8-2.5,6-4.4,9.5-5.6c3.5-1.2,7.2-1.6,10.9-1.2c0.4,0,1,0.3,1-0.4c0.2,0.6,0.2,1.2,0.1,1.8c0,1.1-0.2,2.3-0.2,3.4
	c-0.9-0.3-1.9-0.4-2.8-0.3c-0.3-0.3-0.6-0.7-0.9-1c-0.7-0.7-1.7-1-2.7-0.8c-0.4,0-0.3,0.3-0.3,0.5c0,0.7,0,1.4-0.2,2.1
	c-0.1-0.4-0.3-0.3-0.6-0.2c-1.5,0.4-3,0.9-4.5,1.6c-1,0.4-1.9,0.9-2.9,1.4C83,44.2,82.7,44.3,82.6,44.6z"/>
<linearGradient id="SVGID_7_" gradientUnits="userSpaceOnUse" x1="-1.7873" y1="69.7399" x2="109.863" y2="69.7399">
	<stop  offset="0" style="stop-color:#A2DED7"/>
	<stop  offset="1" style="stop-color:#F1A3A7"/>
</linearGradient>
<path class="st6" d="M55.9,75.9c-0.5-0.7-1-1.4-1.7-1.9c-0.2-0.2-0.5-0.3-0.8-0.2c-0.3,0.1-0.1,0.4-0.1,0.6c0,0.4,0,0.8,0,1.2
	c-1.4-0.1-2.8-0.4-4.1-0.7c-0.8-0.3-1.6-0.5-2.4-0.5c-0.2-0.8-0.2-1.6,0-2.3c-0.1,0.6,0.3,0.9,0.8,0.9c1.5,0,3,0.4,4.5,0.3
	c1,0,2.1-0.1,3.1-0.2c1.7,0,3.4-0.3,5-0.8c0.5-0.2,1-0.4,1.5-0.6c0.7-0.2,1.3-0.8,1.6-1.4c0.1-0.1,0.3-0.2,0.3-0.3
	c0.2-0.7,0.6-1.4,1.1-2c0.1-0.1,0-0.2,0-0.3c0-1.4,0.1-2.8,0.2-4.2c1.7-0.2,2.6,1.1,3.6,2c0.6,0.4,1.1,1,1.4,1.7
	c0.5,1.4,0.3,2.9-0.4,4.1c-1.6,2.8-4.2,3.8-7.2,4.2C60.2,75.9,58.1,76,55.9,75.9z"/>
<linearGradient id="SVGID_8_" gradientUnits="userSpaceOnUse" x1="-1.7873" y1="66.17" x2="109.863" y2="66.17">
	<stop  offset="0" style="stop-color:#A2DED7"/>
	<stop  offset="1" style="stop-color:#F1A3A7"/>
</linearGradient>
<path class="st7" d="M47,70c0.1-1.9,0.3-3.8,0.4-5.7c0.8,0.2,1.5-0.3,2.3-0.3c0.2,0,0.5-0.1,0.7-0.1c0,0.2-0.4,0.5,0,0.7
	s0.5-0.1,0.7-0.3l0.9-0.9c0.6-0.1,1.3,0.3,1.8-0.5c0.2,0.6,0.3,1.2,0.5,1.8c0.1,0.3,0.3,0.3,0.6,0.3s0.3-0.2,0.3-0.4
	c0-0.7-0.1-1.3-0.1-2c1.7-0.2,3.4-0.1,5-0.2c0.8,0,1.6,0,2.3,0.2c0.6,0.2,0.7-0.1,0.7-0.5c0.1,0.1,0.1,0.2,0.1,0.3
	c0,2.5,0,5.1,0,7.6c-0.2-0.4-0.1-0.8-0.1-1.3s-0.1-0.7-0.4-0.6c-0.5,0.1-0.6-0.2-1-0.3c-1.3-0.5-2.8-0.6-4.2-0.4
	c-1.5,0.2-3.1,0.4-4.6,0.8c-0.8,0.1-1.5,0.2-2.3,0.5c-0.2,0.1-0.5,0.2-0.8,0.3C49,69.2,48,69.6,47,70z"/>
<linearGradient id="SVGID_9_" gradientUnits="userSpaceOnUse" x1="63.4775" y1="75.4871" x2="63.4775" y2="35.0051">
	<stop  offset="0" style="stop-color:#A2DED7"/>
	<stop  offset="1" style="stop-color:#F1A3A7"/>
</linearGradient>
<path class="st8" d="M63.2,70.2c0-2.5,0-5.1,0-7.6c0-0.1-0.1-0.2-0.1-0.3c-0.1-0.7-0.4-0.8-1.1-0.6c-0.4,0.2-0.9,0.3-1.4,0.4
	c-0.4,0.1-0.9,0.3-1.1-0.3c-0.2-0.6,0.1-1.2,0.7-1.4c0,0,0,0,0,0c0.4-0.1,0.7-0.3,1.1-0.5l0.1,0.2c-0.2,0.4-0.6,0.5-0.8,1
	c0.9-0.1,1.7-0.5,2.2-1.1c0.3-0.5,0.3-0.9-0.4-0.9l-0.2-0.2l0.5-0.7l-2.1,0.2c-0.4,0-0.6-0.1-0.7-0.5s0-0.3,0.3-0.2
	c0.9,0.1,1.9-0.3,2.5-1c0.1-0.2,0.2-0.3,0.1-0.5c-0.1-0.2-0.4-0.2-0.5,0c0,0,0,0,0,0c-0.5,0.6-0.9-0.2-1.3-0.1
	c-0.5,0.1-1.1,0.1-1.6-0.1c-0.6-0.3-0.7-0.8-0.5-1.4c0.4,0.3,0.8,0.4,1.3,0.4c0.5,0,0.7-0.2,0.6-0.7c-0.4-1.3-0.5-2.7-0.2-4
	c0.1-0.6,0-1.2-0.2-1.7c0.7,0.4,0.8,1.2,1,1.9s0.2,0.8,0.8,0.3l0.1,0.1c0,0.9-0.5,1.8-0.6,2.7c0,0.3-0.2,0.7,0,0.8s0.6-0.1,0.8-0.4
	c0.3-0.4,0.5-0.8,0.6-1.2c0.4-1.2,0.5-2.4,0.2-3.6c-0.2-0.4,0-0.6,0.5-0.6c1.1,0,1.1,0.2,1.2,1.3c0,1-0.3,2-0.9,2.8
	c-0.2,0.3-0.4,0.7-0.2,0.9c0.2,0.3,0.5-0.1,0.8-0.2s0.7-0.1,1-0.2s0.5,0.1,0.6,0.4c0.1,0.2,0,0.5-0.2,0.7c-0.4,0.3-0.9,0.6-1.4,0.8
	c-0.2,0.1-0.6,0.1-0.6,0.4c0.1,0.3,0.4,0.5,0.8,0.4c0.5,0,1-0.1,1.2,0.4s-0.4,0.7-0.7,1s-1,0.4-0.8,1c0.4,0.6,1,1,1.7,1.1
	c0.3,0,0.5-0.1,0.8-0.1c0.4,0,0.7,0.3,0.7,0.7c0,0,0,0,0,0c0,0.4-0.3,0.4-0.6,0.4c-0.7,0.1-1.4,0.3-2,0.5c-0.4,0.1-0.7,0.5-0.6,0.9
	c0,0.6,0,1.3,0,1.9c-0.2,1.4-0.2,2.8-0.2,4.2c0,0.1,0.1,0.2,0,0.3c-0.5,0.6-0.8,1.3-1.1,2c0,0.1-0.2,0.2-0.3,0.3L63.2,70.2z"/>
<linearGradient id="SVGID_10_" gradientUnits="userSpaceOnUse" x1="-1.7873" y1="52.615" x2="109.863" y2="52.615">
	<stop  offset="0" style="stop-color:#A2DED7"/>
	<stop  offset="1" style="stop-color:#F1A3A7"/>
</linearGradient>
<path class="st9" d="M112.8,55.1c1-0.8,1-1.4,0-2.3c-0.4-0.3-0.9-0.6-1.4-0.9c0.1-0.2,0-0.5-0.1-0.7c-0.7-1.3-1.5-2.6-2.5-3.7
	c0.7-1.3,1.4-2.6,2.1-3.9c0.7,0.2,1,0.9,1.3,1.4c2.4,3.1,4,6.9,4.5,10.8c0.3,1.9,0.3,3.9,0.1,5.8c-1.1-0.9-2.3-1.7-3.7-2.2
	C113.2,57.9,113.1,56.5,112.8,55.1z"/>
<linearGradient id="SVGID_11_" gradientUnits="userSpaceOnUse" x1="89.865" y1="75.4871" x2="89.865" y2="35.0051">
	<stop  offset="0" style="stop-color:#A2DED7"/>
	<stop  offset="1" style="stop-color:#F1A3A7"/>
</linearGradient>
<path class="st10" d="M86.9,66.3c0-1,0-2.1,0-3.1c0-0.5,0.2-0.5,0.6-0.6c0.7-0.1,1.4,0.2,1.9,0.8c2.1,2.1,3.3,5,3.4,7.9
	c0.1,1.5,0,3,0.1,4.5c0,0.3-0.1,0.5-0.4,0.5c-2.4-0.1-5-2.3-5.2-4.6C87,69.9,87,68.1,86.9,66.3z"/>
<linearGradient id="SVGID_12_" gradientUnits="userSpaceOnUse" x1="11.9768" y1="75.4871" x2="11.9768" y2="35.0051">
	<stop  offset="0" style="stop-color:#A2DED7"/>
	<stop  offset="1" style="stop-color:#F1A3A7"/>
</linearGradient>
<path class="st11" d="M15.4,58l-0.8,1.4c-1.1,2-2.2,3.9-3.4,5.9c-0.3,0.5-0.5,0.9-1.2,0.7c-0.5-0.4-0.7-1-0.6-1.6
	c0.5-1.5,1-2.9,1.6-4.3c0.3-0.9,0.4-1.8,0.3-2.8c0-0.3-0.1-0.4-0.4-0.4c-0.4,0-0.8,0-1.1,0c-0.5,0.1-1.1-0.2-1.3-0.7
	C8,55.4,8.1,55.2,9,55s2-0.6,3-0.8c0.3-0.1,0.6-0.4,0.5-0.7c0,0,0,0,0,0c0-0.7,0-1.4,0-2.1c0-0.5-0.1-0.7-0.6-0.5
	c-0.7,0.3-1.5,0.2-2.1-0.4c-0.6-0.5-0.5-0.8,0.2-1.1c1.3-0.4,2.6-0.8,3.9-1.1c0.5-0.1,1-0.1,1.4,0.1c0.2,0.1,0.4,0.1,0.5,0.4
	c0.1,0.3-0.1,0.6-0.4,0.7h-0.1c-1.2,0.1-1.2,1-1.2,1.9c0,0.2,0,0.5,0,0.7c-0.1,0.8-0.1,1.4,0.8,1.8c0.7,0.3,0.6,0.6,0,1.1
	c-0.6,0.3-1,1-0.9,1.7c0,0.5,0,1,0,1.4c0,0.2-0.1,0.4,0.1,0.5s0.3-0.1,0.4-0.2l0.7-0.5L15.4,58z M11.6,57.9c0.1,0.2-0.2,0.7,0.2,0.7
	s0.5-0.4,0.6-0.7c0-0.2,0.1-0.3,0.1-0.5c0-0.2,0.1-0.5-0.2-0.5c-0.2,0-0.5,0.1-0.5,0.3C11.6,57.4,11.6,57.6,11.6,57.9L11.6,57.9z
	 M12.7,61.1c0.1-0.3,0-0.4-0.2-0.4c-0.5,0.1-0.8,0.5-0.9,1c0,0.2,0,0.5,0.3,0.5C12.5,62,12.6,61.4,12.7,61.1L12.7,61.1z"/>
<linearGradient id="SVGID_13_" gradientUnits="userSpaceOnUse" x1="-1.7873" y1="54.4906" x2="109.863" y2="54.4906">
	<stop  offset="0" style="stop-color:#A2DED7"/>
	<stop  offset="1" style="stop-color:#F1A3A7"/>
</linearGradient>
<path class="st12" d="M75,55.5c-0.9,0.3-1.9,0.5-2.9,0.7c-0.7,0.1-0.9,0.5-0.5,1.1c0.6,1.1,1.3,2.1,2.9,1.9c0.8-0.2,1.5-0.1,2.3,0.1
	c-0.8,0-1.6,0-2.3,0c-0.4-0.1-0.8,0.2-0.9,0.6c-0.1,0.3-0.3,0.7-0.4,1c-0.2,0.5-0.7,0.8-1.2,0.8c-0.6,0-0.8-0.5-1-0.9
	c-0.5-1.1-0.7-2.3-0.5-3.5c0.1-1.9,0.5-3.9,1.1-5.7c0.4-1.5,1.1-3,2-4.3c0,0.6,0.4,1.2,1,1.4c0.8,0.4,1.5,1,2.5,0.6
	c-0.6,1.3-0.8,2.8-1.5,4.1c-0.2,0.5-0.4,1-0.6,1.6C74.8,55.2,74.7,55.4,75,55.5z"/>
<linearGradient id="SVGID_14_" gradientUnits="userSpaceOnUse" x1="-1.7873" y1="77.5151" x2="109.863" y2="77.5151">
	<stop  offset="0" style="stop-color:#A2DED7"/>
	<stop  offset="1" style="stop-color:#F1A3A7"/>
</linearGradient>
<path class="st13" d="M104.7,75.6c0.9,0.5,1.2,0.4,1.5-0.6l0.2-0.6c0.4,0.4,0.5-0.2,0.8-0.3c0.9,0.3,1.8,0.7,2.6,1.2
	c-0.7,0.7-1.6,1.3-2.5,1.6c-0.3,0-0.6,0.3-0.6,0.6c0,0,0,0,0,0c0,0.2-0.3,0.3-0.5,0.4c-1.7,1-3.6,1.7-5.5,2.2
	c-1.9,0.5-3.8,0.8-5.8,0.8c-2.8,0-5.6-0.6-8.2-1.7l0,0c0.1,0,0.3,0,0.4-0.2c0-0.1-0.1-0.3-0.2-0.3c0,0-0.1,0-0.1,0
	c-0.7,0-1.1-0.6-1.6-0.9c1.1,0.3,2.3,0.6,3.5,0.8c1.4,0.2,2.8,0.5,4.2,0.8c0.8,0.1,1.7,0,2.5-0.3c0.5-0.2,1-0.5,1.7-0.1
	c0.3,0.1,0.7-0.1,1.1-0.2c0.9-0.4,1.9-0.7,2.9-0.8c0.9-0.1,1.8-0.6,2.3-1.3c0.3-0.4,0.6-0.6,1-0.8C104.5,76,104.7,75.8,104.7,75.6z"
	/>
<linearGradient id="SVGID_15_" gradientUnits="userSpaceOnUse" x1="54.4043" y1="75.4871" x2="54.4043" y2="35.0051">
	<stop  offset="0" style="stop-color:#A2DED7"/>
	<stop  offset="1" style="stop-color:#F1A3A7"/>
</linearGradient>
<path class="st14" d="M55,62.7c0,0.7,0.1,1.3,0.1,2c0,0.2,0,0.4-0.3,0.4s-0.5,0-0.6-0.3c-0.2-0.6-0.3-1.2-0.5-1.8l-0.3-1.7L52,63.4
	l-0.9,0.9c-0.2,0.2-0.4,0.5-0.7,0.3s0.1-0.5,0-0.7c1.6-2.1,2.5-4.6,3.8-6.9c-0.3,0.2-0.6,0.3-0.8,0.5c-1,0.5-2.1,0.5-3,0
	c-0.2-0.1-0.4-0.2-0.4-0.5s0.2-0.2,0.3-0.3c1.5-0.4,2.9-1.1,4.1-2.2c0.9-0.6,1.7-1.3,2.5-2c0.3-0.3,0.8-0.5,1.2-0.5
	c0.3,0,0.5-0.2,0.7,0.2s0,0.5-0.2,0.7c-1.2,1.7-2.3,3.4-3.4,5.1c-0.3,0.4-0.5,1-0.5,1.5c0.1,0.4,0.2,0.6,0.7,0.5c0.5,0,1-0.1,1.6,0
	c0.8,0,1.4,0.6,1.4,1.4c0,0.4-0.3,0.3-0.5,0.3c-0.8-0.2-1.5-0.4-2.3-0.7C55.1,61,55,61,55,61.5S55,62.3,55,62.7z"/>
<linearGradient id="SVGID_16_" gradientUnits="userSpaceOnUse" x1="-1.7873" y1="38.3919" x2="109.863" y2="38.3919">
	<stop  offset="0" style="stop-color:#A2DED7"/>
	<stop  offset="1" style="stop-color:#F1A3A7"/>
</linearGradient>
<path class="st15" d="M101.8,42.1c0.5-2.3,0.8-4.7,0.8-7.1c0-0.7,0-1.4-0.1-2c0.3,0.2,0.2,0.6,0.2,0.9c0,1,0,1.9,0,2.9
	c-0.1,0.4,0.1,0.9,0.6,1c1.1,0.5,2.2,1.1,3.2,1.8c0.2,0.1,0.4,0.2,0.6,0.2c0.1,1.4-0.3,2.8-1.2,3.9c-0.1,0.1-0.2,0.3-0.3,0.2
	c-0.4,0-0.7-0.1-1-0.3C103.7,42.8,102.8,42.4,101.8,42.1z"/>
<linearGradient id="SVGID_17_" gradientUnits="userSpaceOnUse" x1="-1.7873" y1="71.09" x2="109.863" y2="71.09">
	<stop  offset="0" style="stop-color:#A2DED7"/>
	<stop  offset="1" style="stop-color:#F1A3A7"/>
</linearGradient>
<path class="st16" d="M39.8,72.7c0-1,0.5-1.8,1.4-2.3c0.8-0.4,1.7-0.8,2.6-1.1c0.3-0.1,0.5,0,0.5,0.3c0,1.1,0,2.2,0,3.2l-1.4-0.2
	c-0.2,0-0.3-0.1-0.3-0.3s0.2-0.2,0.4-0.2c0.3,0,0.5,0,0.8,0c0.4,0.1,0.5,0,0.5-0.4c0-0.8,0-0.9-0.8-0.5
	C42.1,71.9,40.9,72.3,39.8,72.7z"/>
<linearGradient id="SVGID_18_" gradientUnits="userSpaceOnUse" x1="-1.7873" y1="63.091" x2="109.863" y2="63.091">
	<stop  offset="0" style="stop-color:#A2DED7"/>
	<stop  offset="1" style="stop-color:#F1A3A7"/>
</linearGradient>
<path class="st17" d="M23.9,61.9c0.6,0,1.2-0.1,1.8-0.2c0.4-0.1,0.7,0.1,0.7,0.4s0.4,1.1-0.3,1.3c-1.4,0.5-2.8,0.8-4.2,1.1
	c0.3-0.9,1-1.6,1.8-2C24,62.4,24.4,62.2,23.9,61.9z"/>
<linearGradient id="SVGID_19_" gradientUnits="userSpaceOnUse" x1="56.2659" y1="75.4871" x2="56.2659" y2="35.0051">
	<stop  offset="0" style="stop-color:#A2DED7"/>
	<stop  offset="1" style="stop-color:#F1A3A7"/>
</linearGradient>
<path class="st18" d="M57.5,51.3c0,0.6-0.4,0.6-0.7,0.4c-0.7-0.5-1.3-1.1-1.8-1.8c-0.2-0.3,0-0.6,0.4-0.6
	C56.5,49.4,57.4,50.2,57.5,51.3z"/>
<linearGradient id="SVGID_20_" gradientUnits="userSpaceOnUse" x1="-1.7873" y1="76.702" x2="109.863" y2="76.702">
	<stop  offset="0" style="stop-color:#A2DED7"/>
	<stop  offset="1" style="stop-color:#F1A3A7"/>
</linearGradient>
<path class="st19" d="M83.4,75.9l3.3,1.6C85.4,77.6,84.1,77,83.4,75.9z"/>
<linearGradient id="SVGID_21_" gradientUnits="userSpaceOnUse" x1="-1.7873" y1="74.5" x2="109.863" y2="74.5">
	<stop  offset="0" style="stop-color:#A2DED7"/>
	<stop  offset="1" style="stop-color:#F1A3A7"/>
</linearGradient>
<path class="st20" d="M81.9,75c-0.6-0.1-1.1-0.5-1.3-1C81.1,74.2,81.5,74.5,81.9,75z"/>
<linearGradient id="SVGID_22_" gradientUnits="userSpaceOnUse" x1="47.464" y1="75.4871" x2="47.464" y2="35.0051">
	<stop  offset="0" style="stop-color:#A2DED7"/>
	<stop  offset="1" style="stop-color:#F1A3A7"/>
</linearGradient>
<path class="st21" d="M47.5,63.4l0-0.3C47.5,63.2,47.6,63.3,47.5,63.4z"/>
<linearGradient id="SVGID_23_" gradientUnits="userSpaceOnUse" x1="21.79" y1="75.4871" x2="21.79" y2="35.0051">
	<stop  offset="0" style="stop-color:#A2DED7"/>
	<stop  offset="1" style="stop-color:#F1A3A7"/>
</linearGradient>
<path class="st22" d="M21.9,64.5c-0.1,0.2-0.2,0.2-0.3,0.1C21.7,64.5,21.8,64.4,21.9,64.5C21.9,64.5,21.9,64.5,21.9,64.5z"/>
<linearGradient id="SVGID_24_" gradientUnits="userSpaceOnUse" x1="62.5145" y1="75.4871" x2="62.5145" y2="35.0051">
	<stop  offset="0" style="stop-color:#A2DED7"/>
	<stop  offset="1" style="stop-color:#F1A3A7"/>
</linearGradient>
<path class="st23" d="M62.4,50.5c0-0.1,0.1-0.2,0.2-0.1s0.1,0.2-0.1,0.3L62.4,50.5z"/>
<linearGradient id="SVGID_25_" gradientUnits="userSpaceOnUse" x1="111.0487" y1="75.4871" x2="111.0487" y2="35.0051">
	<stop  offset="0" style="stop-color:#A2DED7"/>
	<stop  offset="1" style="stop-color:#F1A3A7"/>
</linearGradient>
<path class="st24" d="M111,43.3c-0.1-0.1,0-0.3,0.1-0.3C111.2,43.1,111.1,43.3,111,43.3z"/>
<path class="st25" d="M86.7,79.3h-0.2v-0.1L86.7,79.3L86.7,79.3z"/>
<linearGradient id="SVGID_26_" gradientUnits="userSpaceOnUse" x1="62.38" y1="75.4871" x2="62.38" y2="35.0051">
	<stop  offset="0" style="stop-color:#A2DED7"/>
	<stop  offset="1" style="stop-color:#F1A3A7"/>
</linearGradient>
<path class="st26" d="M62.2,58.9l0.2-0.2l0.2,0.2l-0.2,0.1L62.2,58.9z"/>
<linearGradient id="SVGID_27_" gradientUnits="userSpaceOnUse" x1="61.48" y1="75.4871" x2="61.48" y2="35.0051">
	<stop  offset="0" style="stop-color:#A2DED7"/>
	<stop  offset="1" style="stop-color:#F1A3A7"/>
</linearGradient>
<path class="st27" d="M61.3,59.8l0.2-0.2l0.1,0.2L61.5,60L61.3,59.8z"/>
<linearGradient id="SVGID_28_" gradientUnits="userSpaceOnUse" x1="61.635" y1="75.4871" x2="61.635" y2="35.0051">
	<stop  offset="0" style="stop-color:#A2DED7"/>
	<stop  offset="1" style="stop-color:#F1A3A7"/>
</linearGradient>
<path class="st28" d="M61.5,59.6l0.2-0.2l0.1,0.2l-0.2,0.2L61.5,59.6z"/>
<linearGradient id="SVGID_29_" gradientUnits="userSpaceOnUse" x1="61.79" y1="75.4871" x2="61.79" y2="35.0051">
	<stop  offset="0" style="stop-color:#A2DED7"/>
	<stop  offset="1" style="stop-color:#F1A3A7"/>
</linearGradient>
<path class="st29" d="M61.7,59.5l0.2-0.2l0.1,0.2l-0.2,0.1L61.7,59.5z"/>
<linearGradient id="SVGID_30_" gradientUnits="userSpaceOnUse" x1="61.94" y1="75.4871" x2="61.94" y2="35.0051">
	<stop  offset="0" style="stop-color:#A2DED7"/>
	<stop  offset="1" style="stop-color:#F1A3A7"/>
</linearGradient>
<path class="st30" d="M61.8,59.3l0.2-0.1l0.1,0.2l-0.2,0.2L61.8,59.3z"/>
<linearGradient id="SVGID_31_" gradientUnits="userSpaceOnUse" x1="62.14" y1="75.4871" x2="62.14" y2="35.0051">
	<stop  offset="0" style="stop-color:#A2DED7"/>
	<stop  offset="1" style="stop-color:#F1A3A7"/>
</linearGradient>
<path class="st31" d="M62,59.2l0.2-0.1l0.1,0.2l-0.2,0.2L62,59.2z"/>
<linearGradient id="SVGID_32_" gradientUnits="userSpaceOnUse" x1="62.245" y1="75.4871" x2="62.245" y2="35.0051">
	<stop  offset="0" style="stop-color:#A2DED7"/>
	<stop  offset="1" style="stop-color:#F1A3A7"/>
</linearGradient>
<path class="st32" d="M62.1,59l0.1-0.1l0.2,0.1l-0.2,0.2L62.1,59z"/>
<linearGradient id="SVGID_33_" gradientUnits="userSpaceOnUse" x1="-1.7873" y1="67.9596" x2="109.863" y2="67.9596">
	<stop  offset="0" style="stop-color:#A2DED7"/>
	<stop  offset="1" style="stop-color:#F1A3A7"/>
</linearGradient>
<path class="st33" d="M107.6,72c1.2,0.3,1.7-0.4,2.2-1.4c1.3-2.2,2.3-4.5,3.1-6.9c0,2.2-0.3,4.3-1,6.3c-0.5,1.3-1.2,2.3-2.8,2
	C108.6,72,108.1,72.2,107.6,72z"/>
<linearGradient id="SVGID_34_" gradientUnits="userSpaceOnUse" x1="106.85" y1="75.4871" x2="106.85" y2="35.0051">
	<stop  offset="0" style="stop-color:#A2DED7"/>
	<stop  offset="1" style="stop-color:#F1A3A7"/>
</linearGradient>
<path class="st34" d="M107.3,74.1c-0.3,0.1-0.4,0.7-0.8,0.3C106.4,73.6,106.8,73.7,107.3,74.1z"/>
<linearGradient id="SVGID_35_" gradientUnits="userSpaceOnUse" x1="105.205" y1="75.4871" x2="105.205" y2="35.0051">
	<stop  offset="0" style="stop-color:#A2DED7"/>
	<stop  offset="1" style="stop-color:#F1A3A7"/>
</linearGradient>
<path class="st35" d="M105.1,44l0.2-0.1C105.3,44,105.2,44.1,105.1,44z"/>
<linearGradient id="SVGID_36_" gradientUnits="userSpaceOnUse" x1="-1.7873" y1="67.3677" x2="109.863" y2="67.3677">
	<stop  offset="0" style="stop-color:#A2DED7"/>
	<stop  offset="1" style="stop-color:#F1A3A7"/>
</linearGradient>
<path class="st36" d="M44.5,66c0,0.4,0,0.8,0,1.3s-0.1,0.4-0.4,0.4c-1.1,0.2-2.1,0.5-3.1,1c-0.3,0.2-0.5,0.1-0.6-0.3
	c-0.1-0.4-0.2-0.9-0.1-1.3c0.6,0,1.3-0.2,1.9-0.5C42.8,66.1,43.7,65.9,44.5,66z"/>
<linearGradient id="SVGID_37_" gradientUnits="userSpaceOnUse" x1="44.5551" y1="75.4871" x2="44.5551" y2="35.0051">
	<stop  offset="0" style="stop-color:#A2DED7"/>
	<stop  offset="1" style="stop-color:#F1A3A7"/>
</linearGradient>
<path class="st37" d="M44.5,66c-0.1-0.3-0.1-0.6,0.1-0.8C44.7,65.5,44.6,65.8,44.5,66z"/>
<linearGradient id="SVGID_38_" gradientUnits="userSpaceOnUse" x1="44.5807" y1="75.4871" x2="44.5807" y2="35.0051">
	<stop  offset="0" style="stop-color:#A2DED7"/>
	<stop  offset="1" style="stop-color:#F1A3A7"/>
</linearGradient>
<path class="st38" d="M44.7,64.8l-0.2-0.2C44.6,64.6,44.7,64.7,44.7,64.8z"/>
<linearGradient id="SVGID_39_" gradientUnits="userSpaceOnUse" x1="46.8815" y1="75.4871" x2="46.8815" y2="35.0051">
	<stop  offset="0" style="stop-color:#A2DED7"/>
	<stop  offset="1" style="stop-color:#F1A3A7"/>
</linearGradient>
<path class="st39" d="M46.8,74.7l0.1,0.2C46.9,74.9,46.8,74.8,46.8,74.7C46.8,74.7,46.8,74.7,46.8,74.7z"/>
<linearGradient id="SVGID_40_" gradientUnits="userSpaceOnUse" x1="53.275" y1="75.4871" x2="53.275" y2="35.0051">
	<stop  offset="0" style="stop-color:#A2DED7"/>
	<stop  offset="1" style="stop-color:#F1A3A7"/>
</linearGradient>
<path class="st40" d="M53.2,76.3c0-0.1,0-0.2,0.1-0.2c0,0,0,0,0,0C53.4,76.1,53.3,76.2,53.2,76.3C53.2,76.3,53.2,76.3,53.2,76.3z"/>
</svg>
