<?xml version="1.0" encoding="utf-8"?>
<!-- Generator: Adobe Illustrator 23.0.4, SVG Export Plug-In . SVG Version: 6.00 Build 0)  -->
<svg version="1.1" id="圖層_1" xmlns="http://www.w3.org/2000/svg" xmlns:xlink="http://www.w3.org/1999/xlink" x="0px" y="0px"
	 viewBox="0 0 120 120" style="enable-background:new 0 0 120 120;" xml:space="preserve">
<style type="text/css">
	.st0{fill:url(#SVGID_1_);}
	.st1{fill:url(#SVGID_2_);}
	.st2{fill:url(#SVGID_3_);}
	.st3{fill:url(#SVGID_4_);}
	.st4{fill:url(#SVGID_5_);}
	.st5{fill:url(#SVGID_6_);}
	.st6{fill:url(#SVGID_7_);}
	.st7{fill:url(#SVGID_8_);}
	.st8{fill:url(#SVGID_9_);}
	.st9{fill:url(#SVGID_10_);}
	.st10{fill:url(#SVGID_11_);}
	.st11{fill:url(#SVGID_12_);}
	.st12{fill:#FFFFFF;}
	.st13{fill:url(#SVGID_13_);}
</style>
<g>
	<linearGradient id="SVGID_1_" gradientUnits="userSpaceOnUse" x1="57.7792" y1="115.9177" x2="62.2461" y2="4.2437">
		<stop  offset="0" style="stop-color:#A2DED7"/>
		<stop  offset="1" style="stop-color:#F1A3A7"/>
	</linearGradient>
	<path class="st0" d="M114.2,115.7H5.8V4.1h108.4V115.7z M6.8,114.7h106.4V5.1H6.8V114.7z"/>
</g>
<g>
	<linearGradient id="SVGID_2_" gradientUnits="userSpaceOnUse" x1="73.5186" y1="46.8439" x2="73.5186" y2="116.506">
		<stop  offset="0" style="stop-color:#A2DED7"/>
		<stop  offset="1" style="stop-color:#F1A3A7"/>
	</linearGradient>
	<path class="st1" d="M87,79.2H69.2l-9.2-17L71.5,48l7.4,9.8L87,79.2z M69.8,78.2h15.8L78,58.3l-6.5-8.6L61.2,62.3L69.8,78.2z"/>
</g>
<g>
	<linearGradient id="SVGID_3_" gradientUnits="userSpaceOnUse" x1="47.2425" y1="115.4962" x2="51.7094" y2="3.8223">
		<stop  offset="0" style="stop-color:#A2DED7"/>
		<stop  offset="1" style="stop-color:#F1A3A7"/>
	</linearGradient>
	<path class="st2" d="M90.2,115.1H6.1V72.2l41.4-35.4L90.2,115.1z M7.1,114.1h81.4L47.2,38.4L7.1,72.7V114.1z"/>
</g>
<g>
	<linearGradient id="SVGID_4_" gradientUnits="userSpaceOnUse" x1="90.7919" y1="117.2382" x2="95.2588" y2="5.5643">
		<stop  offset="0" style="stop-color:#A2DED7"/>
		<stop  offset="1" style="stop-color:#F1A3A7"/>
	</linearGradient>
	<polygon class="st3" points="113.7,78.7 69.5,78.7 89.3,115.2 113.7,115.2 	"/>
</g>
<g>
	<linearGradient id="SVGID_5_" gradientUnits="userSpaceOnUse" x1="93.6273" y1="117.3516" x2="98.0942" y2="5.6777">
		<stop  offset="0" style="stop-color:#A2DED7"/>
		<stop  offset="1" style="stop-color:#F1A3A7"/>
	</linearGradient>
	<path class="st4" d="M113.8,79.2H85.6l-0.1-0.3l-8.1-21.3h36.5V79.2z M86.3,78.2h26.6V58.6H78.8L86.3,78.2z"/>
</g>
<g>
	<linearGradient id="SVGID_6_" gradientUnits="userSpaceOnUse" x1="95.7308" y1="117.4357" x2="100.1977" y2="5.7618">
		<stop  offset="0" style="stop-color:#A2DED7"/>
		<stop  offset="1" style="stop-color:#F1A3A7"/>
	</linearGradient>
	<polygon class="st5" points="113.7,37.6 83.3,37.6 91.6,58.1 113.7,58.1 	"/>
</g>
<g>
	<linearGradient id="SVGID_7_" gradientUnits="userSpaceOnUse" x1="99.9644" y1="117.6051" x2="104.4314" y2="5.9312">
		<stop  offset="0" style="stop-color:#A2DED7"/>
		<stop  offset="1" style="stop-color:#F1A3A7"/>
	</linearGradient>
	<path class="st6" d="M113.8,38.1H98l-4.9-16.4h20.7V38.1z M98.8,37.1h14V22.7H94.5L98.8,37.1z"/>
</g>
<g>
	<linearGradient id="SVGID_8_" gradientUnits="userSpaceOnUse" x1="102.8666" y1="117.7212" x2="107.3335" y2="6.0472">
		<stop  offset="0" style="stop-color:#A2DED7"/>
		<stop  offset="1" style="stop-color:#F1A3A7"/>
	</linearGradient>
	<rect x="105.8" y="4.6" class="st7" width="2.6" height="17.5"/>
</g>
<g>
	<linearGradient id="SVGID_9_" gradientUnits="userSpaceOnUse" x1="103.0341" y1="117.7279" x2="107.501" y2="6.0539">
		<stop  offset="0" style="stop-color:#A2DED7"/>
		<stop  offset="1" style="stop-color:#F1A3A7"/>
	</linearGradient>
	<rect x="104.3" y="12.8" class="st8" width="5.6" height="9.4"/>
</g>
<g>
	<linearGradient id="SVGID_10_" gradientUnits="userSpaceOnUse" x1="41.1387" y1="115.2521" x2="45.6057" y2="3.5781">
		<stop  offset="0" style="stop-color:#A2DED7"/>
		<stop  offset="1" style="stop-color:#F1A3A7"/>
	</linearGradient>
	<rect x="6.5" y="4.6" class="st9" width="76.8" height="33"/>
</g>
<g>
	<linearGradient id="SVGID_11_" gradientUnits="userSpaceOnUse" x1="67.46" y1="46.8439" x2="67.46" y2="116.506">
		<stop  offset="0" style="stop-color:#A2DED7"/>
		<stop  offset="1" style="stop-color:#F1A3A7"/>
	</linearGradient>
	<polygon class="st10" points="52.7,106.2 84.4,106.2 89.3,115.2 45.6,115.3 	"/>
</g>
<g>
	<linearGradient id="SVGID_12_" gradientUnits="userSpaceOnUse" x1="20.0709" y1="46.8439" x2="20.0709" y2="116.506">
		<stop  offset="0" style="stop-color:#A2DED7"/>
		<stop  offset="1" style="stop-color:#F1A3A7"/>
	</linearGradient>
	<path class="st11" d="M15.4,64.9c0,0,12.9,21.5,18.5,24.9c0,0-6.7,9.2-12.9,11.5c0,0-15.6-20.1-14.7-28.6L15.4,64.9z"/>
</g>
<g>
	<path class="st12" d="M10.6,20.9c0.1-1-0.1-2-0.4-3c2.3-0.5,3.8-2.3,4.3-5.4l1.4,0.1c-0.2,2.1-0.7,4-1.7,5.9v11.1h-1.3v-9.7
		C12.2,20.4,11.4,20.7,10.6,20.9z M26.9,15.7v1.8H15.5v-1.8L26.9,15.7z M17.3,29.1c-0.4,0-0.8-0.3-0.8-0.7c0,0,0,0,0,0v-4.1
		c0.1-0.4,0.4-0.6,1-0.7H25c0.7,0.1,1,0.3,1,0.8v4c0,0.5-0.3,0.7-0.9,0.8L17.3,29.1z M25.7,18.3V20h-8.9v-1.6L25.7,18.3z M25.7,20.8
		v1.6h-8.9v-1.6L25.7,20.8z M25.7,13.1v1.7h-8.6v-1.7L25.7,13.1z M17.7,25.6V27c0.1,0.2,0.3,0.3,0.5,0.2h6.2c0.3,0,0.4-0.1,0.5-0.3
		v-1.3c0-0.1-0.1-0.2-0.4-0.3h-6.3C17.9,25.3,17.8,25.5,17.7,25.6L17.7,25.6z"/>
</g>
<g>
	<path class="st12" d="M33.1,13.6c-0.2-0.3-0.5-0.6-0.7-0.9c0.4-0.1,0.9-0.2,1.3-0.4c0.3,0.4,0.6,0.9,1,1.3h4.7
		c0.3-0.4,0.7-0.8,1-1.2c0.4,0.2,0.9,0.3,1.4,0.4c-0.3,0.3-0.5,0.6-0.8,0.9h3.5v1.7h-7V16H44v1.5h-6.5v0.6h7.5v1.5h-5.6
		c0,0.5,0,1.1,0.1,1.9c0,0.3,0,0.6,0,0.9h5.6V24h-5.4c0.1,0.4,0.3,0.8,0.6,1.2c0.2,0.2,0.4,0.5,0.6,0.7c0.7-0.4,1.3-0.9,1.7-1.6
		l0.9,0.3c-0.3,0.8-0.8,1.5-1.3,2.1c0.5,0.2,1,0.3,1.6,0.3c0.2,0,1.4,0.3,1.5,0.1c0.1-0.2,0.1-0.3,0.2-0.5c0.1-0.3,0.1-0.7,0.1-1
		l1.1,0.5c0,0.6-0.1,1.3-0.2,1.9c-0.1,0.5-0.2,0.9-0.5,1.3c-0.2,0.3-1.4,0.1-1.7,0.1c-0.7,0-1.5-0.2-2.2-0.5
		c-0.6-0.2-1.2-0.6-1.7-1.1c-1.2,0.5-2.5,0.9-3.8,1L36.1,27c1.1,0,2.3-0.2,3.4-0.5c-0.1-0.1-0.2-0.3-0.2-0.4
		c-0.3-0.7-0.5-1.4-0.6-2.1h-4.2v0.9c1.2,0,2.3-0.2,3.5-0.4c0,0.4,0.1,0.8,0.1,1.2c-1.2,0.3-2.3,0.5-3.5,0.7h-0.1v1.9
		c0,0.7-0.3,1.1-0.9,1.1c-0.8,0.1-1.5,0.1-2.3,0.1c0-0.7-0.1-1.3-0.2-2c0.6,0,1.2,0,2,0c0.2,0,0.3-0.1,0.3-0.3v-0.7
		c-1.4,0.2-2.6,0.3-3.8,0.3c0-0.6-0.1-1.2-0.3-1.8c1.3,0,2.7,0,4.1-0.1V24h-4v-1.6h4v-0.6c-1.4,0.1-2.4,0.1-2.9,0.1
		c0-0.5-0.1-1.1-0.4-1.5c1.8,0,3.4,0,4.8,0c0.4,0,0.7-0.1,1.1-0.1c0.3-0.1,0.5-0.2,0.8-0.3c0.2,0.1,0.4,0.3,0.6,0.5
		c-0.2,0.3-0.4,0.5-0.6,0.7c-0.2,0.2-0.5,0.3-0.8,0.5c-0.4,0.1-0.9,0.2-1.3,0.2v0.7h3.9c0-0.4-0.1-0.8-0.1-1.2s0-1,0-1.5h-9v-1.6
		h7.1v-0.6h-6.2V16h6.1v-0.7h-6.8v-1.7H33.1z"/>
</g>
<g>
	<path class="st12" d="M43.2,19.7c-0.2,0.7-0.3,1.4-0.2,2.1c-0.8-0.2-1.7-0.2-2.6,0.1l-0.1-0.7C41.2,20.5,42.2,20,43.2,19.7z"/>
</g>
<g>
	<path class="st12" d="M55.4,12.6c0.4,1.3,1.3,2.3,2.5,2.9c1.5,0.8,3.1,1.4,4.8,1.7c-0.5,0.8-0.9,1.6-1.2,2.5
		c-0.9-0.4-1.8-0.8-2.7-1.3V20h-8.2v-1.6c-0.8,0.5-1.6,0.8-2.4,1.1c-0.3-0.9-0.7-1.7-1.2-2.5c1.6-0.3,3.2-0.8,4.6-1.6
		c1.1-0.6,1.9-1.6,2.3-2.8L55.4,12.6z M59.8,21.7c0.4,0,0.7,0.3,0.7,0.6c0,0,0,0.1,0,0.1c0.1,1.7-0.4,3.3-1.4,4.6
		c-1.2,1.9-3.5,2.8-6.7,2.8c0-0.9-0.2-1.8-0.5-2.6c4.3,0,6.7-1,7.1-3.1c0-0.1-0.1-0.1-0.2-0.2H48.4v-2.2H59.8z M58.1,18
		c-0.5-0.3-0.9-0.6-1.3-1c-0.9-0.8-1.6-1.8-2-2.8c-0.5,0.9-1.1,1.7-1.9,2.4c-0.5,0.5-1.1,1-1.8,1.4H58.1z"/>
</g>
<g>
	<path class="st12" d="M67.4,14.9v-1.8h1.2v1.8h4.6v-1.8h1.2v1.8H78v2h-3.6v1.6h4.1v2H63.9v-2h3.6v-1.7h-3.1v-2L67.4,14.9z
		 M66.3,29.7c-0.5,0-0.8-0.3-0.8-0.9v-6.3c-0.1-0.5,0.3-0.9,0.7-0.9c0,0,0,0,0,0h10c0.5,0,0.8,0.4,0.8,0.9c0,0,0,0,0,0.1v6.4
		c0,0.4-0.2,0.7-0.6,0.8c-0.1,0-0.1,0-0.2,0H66.3z M66.6,23.8v1h9.3v-1.1c0-0.2-0.1-0.3-0.3-0.3H67C66.8,23.3,66.6,23.5,66.6,23.8
		C66.6,23.7,66.6,23.7,66.6,23.8z M66.6,26.4v0.9c0,0.3,0.1,0.4,0.3,0.4h8.6c0.2,0,0.3-0.1,0.3-0.4v-1L66.6,26.4z M73.2,16.9h-4.6
		v1.6h4.6V16.9z"/>
</g>
<g>
	<polygon class="st12" points="17.9,29.1 17.6,28.9 23.7,20.2 23.9,20.4 	"/>
</g>
<g>
	<polygon class="st12" points="51,28.8 52.4,27.8 52.6,29.4 	"/>
</g>
<g>
	<polygon class="st12" points="68.4,24.4 67.7,24.8 68.8,24.8 	"/>
</g>
<g>
	<polygon class="st12" points="70.5,24.1 69.6,24.9 71.2,24.9 	"/>
</g>
<g>
	<polygon class="st12" points="72.7,23.9 71.2,25.1 73.8,25.1 	"/>
</g>
<g>
	<linearGradient id="SVGID_13_" gradientUnits="userSpaceOnUse" x1="37.9317" y1="46.8439" x2="37.9317" y2="116.506">
		<stop  offset="0" style="stop-color:#A2DED7"/>
		<stop  offset="1" style="stop-color:#F1A3A7"/>
	</linearGradient>
	<path class="st13" d="M60.6,62.2c0,0-39.1,43.4-54.3,48.6v4.6l39.3-0.1c0,0,25.9-32.1,23.9-36.7L60.6,62.2z"/>
</g>
</svg>
