<?xml version="1.0" encoding="utf-8"?>
<!-- Generator: Adobe Illustrator 23.0.4, SVG Export Plug-In . SVG Version: 6.00 Build 0)  -->
<svg version="1.1" id="圖層_1" xmlns="http://www.w3.org/2000/svg" xmlns:xlink="http://www.w3.org/1999/xlink" x="0px" y="0px"
	 viewBox="0 0 120 120" style="enable-background:new 0 0 120 120;" xml:space="preserve">
<style type="text/css">
	.st0{fill:url(#SVGID_1_);}
	.st1{fill:url(#SVGID_2_);}
	.st2{fill:url(#SVGID_3_);}
	.st3{fill:url(#SVGID_4_);}
	.st4{fill:url(#SVGID_5_);}
	.st5{fill:url(#SVGID_6_);}
	.st6{fill:url(#SVGID_7_);}
	.st7{fill:url(#SVGID_8_);}
	.st8{fill:url(#SVGID_9_);}
	.st9{fill:url(#SVGID_10_);}
	.st10{fill:url(#SVGID_11_);}
	.st11{fill:url(#SVGID_12_);}
	.st12{fill:url(#SVGID_13_);}
	.st13{fill:url(#SVGID_14_);}
	.st14{fill:url(#SVGID_15_);}
	.st15{fill:url(#SVGID_16_);}
	.st16{fill:url(#SVGID_17_);}
	.st17{fill:url(#SVGID_18_);}
	.st18{fill:url(#SVGID_19_);}
	.st19{fill:url(#SVGID_20_);}
	.st20{fill:url(#SVGID_21_);}
	.st21{fill:url(#SVGID_22_);}
	.st22{fill:url(#SVGID_23_);}
	.st23{fill:url(#SVGID_24_);}
	.st24{fill:url(#SVGID_25_);}
	.st25{fill:url(#SVGID_26_);}
	.st26{fill:url(#SVGID_27_);}
	.st27{fill:url(#SVGID_28_);}
	.st28{fill:url(#SVGID_29_);}
	.st29{fill:url(#SVGID_30_);}
	.st30{fill:url(#SVGID_31_);}
	.st31{fill:url(#SVGID_32_);}
	.st32{fill:url(#SVGID_33_);}
	.st33{fill:url(#SVGID_34_);}
	.st34{fill:url(#SVGID_35_);}
	.st35{fill:url(#SVGID_36_);}
	.st36{fill:url(#SVGID_37_);}
	.st37{fill:url(#SVGID_38_);}
	.st38{fill:url(#SVGID_39_);}
	.st39{fill:url(#SVGID_40_);}
	.st40{fill:url(#SVGID_41_);}
	.st41{fill:url(#SVGID_42_);}
	.st42{fill:url(#SVGID_43_);}
	.st43{fill:url(#SVGID_44_);}
	.st44{fill:url(#SVGID_45_);}
	.st45{fill:url(#SVGID_46_);}
	.st46{fill:url(#SVGID_47_);}
	.st47{fill:url(#SVGID_48_);}
	.st48{fill:url(#SVGID_49_);}
	.st49{fill:url(#SVGID_50_);}
	.st50{fill:url(#SVGID_51_);}
	.st51{fill:url(#SVGID_52_);}
	.st52{fill:url(#SVGID_53_);}
	.st53{fill:url(#SVGID_54_);}
	.st54{fill:url(#SVGID_55_);}
	.st55{fill:url(#SVGID_56_);}
	.st56{fill:url(#SVGID_57_);}
	.st57{fill:url(#SVGID_58_);}
	.st58{fill:url(#SVGID_59_);}
	.st59{fill:url(#SVGID_60_);}
	.st60{fill:url(#SVGID_61_);}
	.st61{fill:url(#SVGID_62_);}
	.st62{fill:url(#SVGID_63_);}
	.st63{fill:url(#SVGID_64_);}
	.st64{fill:url(#SVGID_65_);}
	.st65{fill:url(#SVGID_66_);}
	.st66{fill:url(#SVGID_67_);}
</style>
<linearGradient id="SVGID_1_" gradientUnits="userSpaceOnUse" x1="16.315" y1="89.0698" x2="16.315" y2="34.8649">
	<stop  offset="0" style="stop-color:#A2DED7"/>
	<stop  offset="1" style="stop-color:#F1A3A7"/>
</linearGradient>
<path class="st0" d="M5.7,54c-0.5-0.2-0.8-0.4-0.8-0.6s0.3-0.2,1-0.2h1.4c1.6,0,3.8,0,6.6-0.1l3.9-0.1c0-0.6-0.3-1.1-0.8-1.4
	c-0.5-0.4-0.7-0.7-0.7-0.8s0.3-0.3,0.9-0.3c0.6,0,1.2,0,1.8,0.1c0.8,0.2,1.2,0.4,1.2,0.8c0,0.2,0,0.4-0.1,0.7c0,0.3-0.1,0.5-0.1,0.8
	c0.7,0,1.5-0.1,2.2-0.2c1.9-0.3,3-0.5,3.3-0.5c0.5,0,1.1,0.1,1.5,0.4c0.5,0.2,0.8,0.5,0.8,0.9c0,0.2-0.1,0.5-0.4,0.6
	c-0.3,0.2-0.7,0.3-1,0.2c-0.5,0-1,0-1.7-0.1c-1.5-0.1-2.5-0.2-2.9-0.2c-1.7,0-3.7,0.1-6.2,0.2c-1.7,0.1-3.4,0.3-5,0.6
	c-0.3,0.1-0.5,0.1-0.8,0.2c-0.2,0.1-0.4,0.1-0.6,0.1c-0.4,0-0.8-0.1-1.2-0.3C7.5,54.8,6.8,54.5,5.7,54z M11.9,43.7
	c-0.7-0.3-1.1-0.5-1.4-0.6c-0.7-0.3-1.1-0.6-1.1-0.7s0.3-0.2,0.8-0.2c5.7,0,9.3-0.2,10.8-0.7l0.6-0.2c0.3-0.1,0.5-0.1,0.8-0.1
	c0.5,0,0.9,0.1,1.3,0.4c0.5,0.2,0.7,0.5,0.7,0.8c0,0.2-0.1,0.4-0.3,0.5C23.9,43,23.7,43,23.4,43c-2.1,0-4,0-5.8,0.1
	c-1.3,0-2.5,0.2-3.8,0.5c-0.3,0.1-0.5,0.2-0.7,0.2c-0.1,0.1-0.3,0.1-0.5,0.1C12.4,43.9,12.2,43.8,11.9,43.7z M18.2,43.9
	c1,0,2.1,0.2,3,0.7c0.9,0.4,1.6,1.4,1.6,2.4c0,1-0.6,1.8-1.5,2.2c-0.8,0.5-1.8,0.8-2.8,0.8c-1.3,0-2.5-0.3-3.6-1
	c-1-0.7-1.6-1.4-1.6-2.2c0-0.9,0.6-1.7,1.4-2.1C15.8,44.1,17,43.8,18.2,43.9z M14.7,38.7c0.8,0.1,1.5,0.2,2.3,0.2c1,0,2,0.1,2.9,0.1
	c0.6,0,0.9,0.1,0.9,0.4c0,0.4-0.4,0.8-1.2,1.1c-0.6,0.2-1.3,0.4-2,0.4h-0.4c-0.3,0-0.6,0-0.9-0.1c-0.3-0.1-0.6-0.2-0.8-0.4
	c-0.4-0.2-0.7-0.5-1.1-0.8c-0.6-0.4-0.8-0.7-0.8-0.9s0.1-0.2,0.4-0.2L14.7,38.7z M18.2,45.3c-0.7,0-1.5,0.1-2.1,0.5
	c-0.6,0.3-0.9,0.7-0.9,1.2s0.3,0.8,1,1.2c0.7,0.4,1.5,0.5,2.3,0.5c0.6,0,1.1-0.1,1.6-0.3c0.6-0.2,0.9-0.7,0.9-1.3
	c0-0.5-0.4-1-0.9-1.2C19.6,45.4,18.9,45.2,18.2,45.3z"/>
<linearGradient id="SVGID_2_" gradientUnits="userSpaceOnUse" x1="14.825" y1="89.0698" x2="14.825" y2="34.8649">
	<stop  offset="0" style="stop-color:#A2DED7"/>
	<stop  offset="1" style="stop-color:#F1A3A7"/>
</linearGradient>
<path class="st1" d="M11.3,68c0.6,0.2,1.1,0.5,1.6,0.9c0.6,0.5,0.9,0.9,0.9,1.2c0,0.1,0,0.3-0.1,0.3c-0.1,0.1-0.3,0.2-0.4,0.3
	L12,71.7l0.8,0.4c0.3,0.1,0.6,0.2,0.8,0.3c0.4,0.1,0.8,0.2,1.2,0.4c0.3,0.2,0.5,0.5,0.4,0.9c0,0.3-0.1,0.5-0.2,0.7
	c-0.1,0.2-0.4,0.3-0.6,0.3c-0.3,0-0.8-0.4-1.6-1.3c-0.4-0.4-0.8-0.8-1.4-1.1l-1.9,1.1c-1,0.5-2,0.8-3.1,1l-0.9,0.1H5.3l0.2-0.1
	c0.1-0.1,0.3-0.2,0.5-0.2c1.1-0.5,2.1-1.1,3-1.8c1.4-1,2.1-1.8,2.1-2.3c0-0.3-0.2-0.6-0.4-0.9c-0.2-0.3-0.5-0.7-0.7-1
	c0-0.1,0.1-0.2,0.4-0.2C10.8,68,11.1,68,11.3,68z M18.4,77.4c1.2,0,2.3,0.3,3.3,0.9c0.9,0.4,1.6,1.4,1.6,2.4c0,0.9-0.5,1.8-1.4,2.2
	c-0.8,0.6-1.8,0.9-2.8,0.9c-1.2,0-2.4-0.3-3.4-1c-0.8-0.4-1.3-1.2-1.4-2.1c0-0.9,0.4-1.8,1.1-2.3C16.3,77.7,17.4,77.4,18.4,77.4
	L18.4,77.4z M18.4,75.7c-0.3,0.4-0.5,0.5-0.6,0.5s-0.1-0.2-0.1-0.5c0-0.7,0-1.8-0.1-3.2s-0.1-2.8-0.2-3.8c-0.2-0.5-0.6-0.9-1-1.3
	c-0.6-0.5-0.9-0.9-0.9-1s0.1-0.2,0.5-0.2c0.8,0.1,1.5,0.2,2.2,0.5c0.9,0.4,1.4,0.7,1.4,1c-0.1,0.3-0.1,0.5-0.1,0.8V71H22v-3.4
	c0-0.3-0.4-0.8-1.1-1.4s-1.1-1-1.1-1.1s0.2-0.2,0.5-0.2c0.8,0.1,1.7,0.2,2.4,0.6c1,0.4,1.5,0.7,1.5,1.1c0,0.2,0,0.4-0.1,0.6
	c0,0.2-0.1,0.4-0.1,0.5v4.1c0,2.7-0.4,4.6-1.2,5.8c-0.2,0.2-0.3,0.4-0.4,0.6l-0.2,0.2c-0.1,0-0.1-0.2-0.1-0.6v-0.5
	c0-0.5,0-1.2-0.1-2.1c0-0.8-0.1-1.7-0.1-2.4h-2.6v0.1c0,0.6-0.1,1.1-0.2,1.7C19,74.9,18.7,75.3,18.4,75.7L18.4,75.7z M19,78.7
	c-0.7,0-1.4,0.1-2,0.4c-0.6,0.1-1,0.6-1,1.2c0,0.6,0.4,1.1,1.3,1.5c0.7,0.3,1.4,0.4,2.1,0.4c0.6,0,1.1-0.1,1.7-0.4
	c0.4-0.2,0.7-0.6,0.7-1.1c0-0.5-0.2-1-0.6-1.3C20.5,78.9,19.8,78.7,19,78.7L19,78.7z"/>
<linearGradient id="SVGID_3_" gradientUnits="userSpaceOnUse" x1="103.69" y1="89.0698" x2="103.69" y2="34.8649">
	<stop  offset="0" style="stop-color:#A2DED7"/>
	<stop  offset="1" style="stop-color:#F1A3A7"/>
</linearGradient>
<path class="st2" d="M93.1,54c-0.6-0.2-0.8-0.4-0.8-0.6s0.3-0.2,1-0.2h1.4c1.6,0,3.8,0,6.6-0.1c1,0,2.3-0.1,3.9-0.2
	c0-0.6-0.3-1.1-0.7-1.4c-0.5-0.4-0.7-0.7-0.7-0.8s0.3-0.3,0.9-0.3c0.6,0,1.2,0,1.8,0.1c0.8,0.2,1.2,0.4,1.2,0.8c0,0.2,0,0.4-0.1,0.7
	c0,0.3-0.1,0.5-0.1,0.8c0.7,0,1.5-0.1,2.2-0.2c1.9-0.3,3-0.5,3.3-0.5c0.5,0,1,0.1,1.5,0.4c0.5,0.2,0.8,0.5,0.8,0.9
	c0,0.2-0.1,0.5-0.4,0.6c-0.3,0.2-0.7,0.2-1,0.2c-0.5,0-1,0-1.7-0.1c-1.5-0.1-2.5-0.2-2.9-0.2c-1.7,0-3.7,0.1-6.2,0.2
	c-1.7,0.1-3.4,0.3-5,0.6c-0.3,0.1-0.5,0.1-0.8,0.2c-0.2,0.1-0.4,0.1-0.6,0.1c-0.4,0-0.8-0.1-1.2-0.3C94.9,54.8,94.2,54.5,93.1,54z
	 M99.2,43.7c-0.7-0.3-1.1-0.5-1.4-0.6c-0.7-0.3-1.1-0.6-1.1-0.7s0.3-0.2,0.8-0.2c5.7,0,9.3-0.2,10.8-0.7l0.6-0.2
	c0.3-0.1,0.5-0.1,0.8-0.1c0.5,0,0.9,0.1,1.3,0.4c0.5,0.2,0.7,0.5,0.7,0.8c0,0.2-0.1,0.4-0.3,0.5c-0.2,0.1-0.5,0.2-0.7,0.2
	c-2.1,0-4,0-5.8,0.1c-1.3,0-2.5,0.2-3.7,0.5c-0.2,0.1-0.5,0.1-0.7,0.2c-0.1,0.1-0.3,0.1-0.5,0.1C99.8,43.9,99.5,43.8,99.2,43.7z
	 M105.5,43.9c1,0,2.1,0.2,3,0.7c1,0.4,1.6,1.4,1.6,2.4c0,1-0.6,1.8-1.4,2.3c-0.8,0.5-1.8,0.8-2.8,0.8c-1.3,0-2.5-0.3-3.6-1
	c-1-0.7-1.6-1.4-1.6-2.2c0-0.9,0.6-1.7,1.4-2.1C103.1,44.1,104.3,43.8,105.5,43.9z M102.1,38.7c0.8,0.1,1.5,0.2,2.3,0.2
	c1,0,2,0.1,2.9,0.1c0.6,0,0.9,0.1,0.9,0.4c0,0.4-0.4,0.8-1.2,1.1c-0.6,0.2-1.3,0.4-2,0.4h-0.4c-0.3,0-0.6,0-0.9,0
	c-0.3-0.1-0.6-0.2-0.8-0.4c-0.4-0.2-0.7-0.5-1.1-0.8c-0.5-0.4-0.8-0.7-0.8-0.9s0.2-0.2,0.4-0.2L102.1,38.7z M105.6,45.3
	c-0.7,0-1.5,0.1-2.1,0.5c-0.5,0.2-0.8,0.7-0.9,1.2c0,0.4,0.3,0.8,1,1.2c0.7,0.4,1.5,0.5,2.3,0.5c0.6,0,1.1-0.1,1.6-0.3
	c0.6-0.2,0.9-0.7,0.9-1.3c0-0.5-0.4-1-0.8-1.2C106.9,45.4,106.3,45.3,105.6,45.3z"/>
<linearGradient id="SVGID_4_" gradientUnits="userSpaceOnUse" x1="103.835" y1="89.0698" x2="103.835" y2="34.8649">
	<stop  offset="0" style="stop-color:#A2DED7"/>
	<stop  offset="1" style="stop-color:#F1A3A7"/>
</linearGradient>
<path class="st3" d="M94.4,73.2h3.1c3.9,0,6.9,0,9-0.2c1.5,0,3.1-0.2,4.6-0.5c0.4-0.1,0.7-0.1,1.1-0.1c0.5,0,0.9,0.1,1.4,0.3
	c0.5,0.2,0.8,0.5,0.8,0.8c0,0.2-0.1,0.4-0.3,0.5c-0.2,0.2-0.5,0.2-0.8,0.2c-0.4,0-0.9,0-1.7-0.1s-1.3-0.1-1.6-0.1
	c0.1,0.2,0.1,0.4,0.2,0.6c0.1,0.1,0.1,0.3,0.1,0.4c-0.1,0.6-0.3,1.1-0.6,1.5c-0.4,0.8-0.9,1.1-1.3,1.1c-0.2,0-0.2-0.2-0.2-0.5v-1
	c0-0.5,0-0.9-0.1-1.4c0-0.3-0.2-0.6-0.4-0.8c-2,0-3.9,0-5.6,0.1c-1.2,0-2.5,0.2-3.7,0.4L97.6,75c-0.2,0.1-0.3,0.1-0.5,0.1
	c-0.7-0.1-1.4-0.4-2-0.7c-1.1-0.5-1.6-0.8-1.6-1S93.7,73.2,94.4,73.2L94.4,73.2z M102.4,70.4c0-0.5-0.2-0.9-0.4-1.3l-0.9-1.6
	c0-0.1,0.1-0.2,0.3-0.2c0.6,0,1.1,0.2,1.7,0.4c0.6,0.3,0.9,0.6,0.9,0.9c0,0.3-0.1,0.6-0.2,0.8c-0.1,0.3-0.1,0.6-0.2,0.9h1.6
	c0.6,0,1.4-0.1,2.7-0.2c0-1-0.2-2-0.6-2.9l-0.1-0.4c0-0.2,0.1-0.3,0.3-0.3c0.5,0.1,1,0.2,1.5,0.5c0.6,0.4,1,0.7,1,0.9
	c0,0-0.1,0.3-0.3,1c-0.1,0.3-0.2,0.7-0.2,1c0.6-0.1,1-0.1,1.2-0.1c0.2,0,0.4,0.1,0.5,0.3c0.1,0.1,0.2,0.3,0.2,0.5
	c0,0.4-0.4,0.5-1.3,0.5c-1.5,0-3,0-4.4,0.1c-0.9,0-1.9,0.1-2.8,0.2c-0.2,0-0.5,0.1-0.7,0.2c-0.2,0.1-0.4,0.1-0.5,0.1
	c-0.6-0.1-1.2-0.3-1.8-0.5c-0.9-0.4-1.3-0.6-1.3-0.8s0.2-0.2,0.8-0.2L102.4,70.4z M101.3,66.8c-0.5-0.1-1-0.3-1.4-0.5
	c-0.8-0.3-1.2-0.6-1.2-0.7s0.3-0.2,0.9-0.2h1.8c1.4,0,2.7,0,3.8-0.1c0.9,0,1.8-0.2,2.7-0.4l0.6-0.2c0.2-0.1,0.4-0.1,0.7-0.1
	c0.5,0,0.9,0.1,1.3,0.3c0.5,0.2,0.7,0.5,0.7,0.7c0,0.2-0.1,0.3-0.2,0.4c-0.2,0.1-0.4,0.2-0.7,0.2c-2.1,0-3.7,0-4.8,0
	c-0.8,0-1.6,0.1-2.4,0.3c-0.2,0.1-0.5,0.1-0.7,0.2c-0.2,0.1-0.4,0.1-0.6,0.2L101.3,66.8z M105.8,77.5c1.2-0.1,2.3,0.3,3.2,1
	c0.7,0.6,1.1,1.4,1.1,2.3c0,0.8-0.4,1.5-1,1.9c-0.9,0.6-2,1-3.1,0.9c-1.2,0-2.3-0.3-3.3-1c-0.8-0.5-1.3-1.3-1.3-2.2
	c0-1,0.6-1.9,1.5-2.3C103.8,77.6,104.8,77.4,105.8,77.5L105.8,77.5z M105.9,78.8c-0.7,0-1.4,0.2-2,0.5c-0.4,0.2-0.7,0.7-0.8,1.2
	c0,0.4,0.3,0.8,0.8,1.1c0.6,0.4,1.4,0.5,2.1,0.5c0.6,0,1.1-0.1,1.6-0.3c0.5-0.2,0.9-0.7,0.9-1.2c0-0.5-0.3-1-0.8-1.3
	C107.2,78.9,106.5,78.7,105.9,78.8L105.9,78.8z"/>
<linearGradient id="SVGID_5_" gradientUnits="userSpaceOnUse" x1="42.4544" y1="89.0698" x2="42.4544" y2="34.8649">
	<stop  offset="0" style="stop-color:#A2DED7"/>
	<stop  offset="1" style="stop-color:#F1A3A7"/>
</linearGradient>
<path class="st4" d="M49.4,37.8c0,0-6.9-8.8-12.6-2.5c0,0-3.6,4.7,1.2,8.5c0,0,0.9,0.6,0,2.1c0,0,2.3-2.3,2.4-0.8
	c0,0-1.1,2.9,0.9,0.3c0,0-0.2,0.3,1.8-0.8c0,0-0.3-1.4,0.9-1.5c-1.2-0.4-2.4-0.6-3.6-0.7c0,0,2-1.3,3.6-0.6c0,0-0.3-1-2.5-1.6
	c0,0,1.3-1.2,3.2,0.8c0,0-1.3-3.5-3.3-3c0,0,1.4-0.8,3.7,1.2c0,0-2.1-3.3-3.6-2.9c0,0,1.9-0.5,4.8,2.9c0,0-2.3-5.4-4.6-4.4
	C41.8,35,42.8,33.4,49.4,37.8z"/>
<linearGradient id="SVGID_6_" gradientUnits="userSpaceOnUse" x1="78.0241" y1="89.0698" x2="78.0241" y2="34.8649">
	<stop  offset="0" style="stop-color:#A2DED7"/>
	<stop  offset="1" style="stop-color:#F1A3A7"/>
</linearGradient>
<path class="st5" d="M71.5,37.2c0,0,3.2-3.4,4.3-3.4c0,0-2.6,2.5-3.2,3.4c0,0,4.4-3.3,5.3-2.4c0,0-4.1,2-4.7,3.9
	c0,0,3.5-2.7,5.5-2.4c0,0-1.7,0.5-4.8,3.1c1.3-0.7,2.7-1.1,4.1-1.2c-1.4,0.4-2.7,1.1-3.7,2.2c0,0,3.2-0.2,3.4,2.2
	c0,0-0.8,0.1,1.5,1.8c0,0,1.1,1.4,2.1-0.8c0,0,0.4-2.7,1.7,0c0,0,1,2.2,0.8-1c0,0-0.3-2.3,0.5-3.2c0,0,1.8-5.2-2.9-6.7
	C81.2,32.6,76.6,29.1,71.5,37.2z"/>
<linearGradient id="SVGID_7_" gradientUnits="userSpaceOnUse" x1="60.795" y1="89.0698" x2="60.795" y2="34.8649">
	<stop  offset="0" style="stop-color:#A2DED7"/>
	<stop  offset="1" style="stop-color:#F1A3A7"/>
</linearGradient>
<path class="st6" d="M54.4,39c0,0,1-1.2,7.4-0.7c1.8,0.4,3.6,0.4,5.4-0.1c0,0-0.9,1.2-6.1,0.4C61.1,38.6,56.7,38.1,54.4,39z"/>
<linearGradient id="SVGID_8_" gradientUnits="userSpaceOnUse" x1="59.37" y1="89.0698" x2="59.37" y2="34.8649">
	<stop  offset="0" style="stop-color:#A2DED7"/>
	<stop  offset="1" style="stop-color:#F1A3A7"/>
</linearGradient>
<path class="st7" d="M50.3,43.1c1-0.5,2.1-0.9,3.2-1.2c0,0,3-2.7,4.5-2.1c0,0,1.5-0.3,1.3,1.9c0,0,0.1,4.3-0.8,4.4
	c-0.3,0.4-0.8,0.6-1.3,0.5c0,0,0.2-0.1,0,0.7S57,47.6,57,47.6s1.3-0.1,0.1,0.9c0,0-3.3,3.6,0.3,1c0,0,1.2-2.4,1-0.2
	c0,0,0.6,1.3,0.7-0.8c0,0-0.1-2.1,1.5,1.1c0,0,1.8,3,0.9-0.4c0,0-2.3-1.8-0.3-1.2c0,0,1.5,0.7-0.3-0.8c0,0-2.4-0.8-0.3-1.8
	c0,0,1,0.1,2.2,2.4c0,0,0.8-0.5,1.7,2.1c0,0-0.3,3,0.5,1.4c0,0-0.6-2.1,0.3-3c-0.5-0.8-1-1.6-1.4-2.5c0,0-5.4-1.5-1.3-2.1
	c1.5,0.5,3.1,0.7,4.7,0.6c0,0,2.6,0.3-2-1.1c-1.3-0.1-2.5-0.2-3.8-0.2c0,0-2-0.9-0.3-2.1c0,0,0.8-0.7,2.3,0.6c0,0-0.3,0.7,2.8,0.6
	c0.8,0.1,1.6,0.3,2.3,0.6c0,0-2.8-1-3.2-1.8c0,0-0.1-0.3-2.2-0.8c0,0-1.3-0.2-1.9-0.3c0,0-3.1-0.5-4.5,0
	C56.6,39.4,55.7,39.3,50.3,43.1z"/>
<linearGradient id="SVGID_9_" gradientUnits="userSpaceOnUse" x1="45.475" y1="89.0698" x2="45.475" y2="34.8649">
	<stop  offset="0" style="stop-color:#A2DED7"/>
	<stop  offset="1" style="stop-color:#F1A3A7"/>
</linearGradient>
<path class="st8" d="M47.4,42.7c0,0-0.5,0.6-1.8,2.7c-0.8,0.7-1.4,1.5-2,2.4c0.7-0.6,1.4-1.2,2.2-1.7C45.8,46,46.2,46.1,47.4,42.7z"
	/>
<linearGradient id="SVGID_10_" gradientUnits="userSpaceOnUse" x1="47.7419" y1="89.0698" x2="47.7419" y2="34.8649">
	<stop  offset="0" style="stop-color:#A2DED7"/>
	<stop  offset="1" style="stop-color:#F1A3A7"/>
</linearGradient>
<path class="st9" d="M48.3,43.2c-0.2,0.7-0.6,1.3-1.1,1.8c0,0-0.5,0.7-0.4,1.1c0,0,0.8-1,1.5-1.8C48.3,44.3,49,43.5,48.3,43.2z"/>
<linearGradient id="SVGID_11_" gradientUnits="userSpaceOnUse" x1="55.0163" y1="89.0698" x2="55.0163" y2="34.8649">
	<stop  offset="0" style="stop-color:#A2DED7"/>
	<stop  offset="1" style="stop-color:#F1A3A7"/>
</linearGradient>
<path class="st10" d="M57.5,41.6c0,0,0.2,2-1.8,1.6c-1.3-0.1-2.5,0.1-3.7,0.7c0,0-1.1,0.6,1.1,0.5c0,0,0.1-0.7,2.7-0.4
	c0,0,3-0.2,2.1-0.9C58,42.9,58.7,40.4,57.5,41.6z"/>
<linearGradient id="SVGID_12_" gradientUnits="userSpaceOnUse" x1="52.3142" y1="89.0698" x2="52.3142" y2="34.8649">
	<stop  offset="0" style="stop-color:#A2DED7"/>
	<stop  offset="1" style="stop-color:#F1A3A7"/>
</linearGradient>
<path class="st11" d="M58,44.6c0,0,0.3,1.6-3.3,0.8c-0.9-0.1-1.8,0.1-2.5,0.7c0,0,0.5,0.2-1.1,0.5c0,0-0.5-0.2-1.4,1.2
	c0,0,0,0.8-1.1,0.2c0,0-0.5-0.5-1.3,0.8c0,0,0.2,0.4-1.2,0.9c0,0,0.1,0.8,0.7,0.8c0,0,0.5-0.3,1.2,0.3c0,0,2.7,0.7,1.6,0
	c0,0-3.4-1-1.2-1.5c0.9-0.2,1.8,0.1,2.5,0.7c0,0-1.2-1.9-0.1-2.2c0,0,2.1-2,3.7-1.7c0,0,2.6-0.2,2,0.5c-0.4,0.7-1.2,1-2,1
	c-1.1,0.4-1.8,1.4-1.9,2.5c0,0-0.4,2.1,1.4-1.6c0,0,0.9-1,1.6-0.5c0,0,1.8-1.1,1.7-0.7c0,0-0.1,0.7,0.2-0.4
	C57.4,46.8,59.3,44.2,58,44.6z"/>
<linearGradient id="SVGID_13_" gradientUnits="userSpaceOnUse" x1="54.1945" y1="89.0698" x2="54.1945" y2="34.8649">
	<stop  offset="0" style="stop-color:#A2DED7"/>
	<stop  offset="1" style="stop-color:#F1A3A7"/>
</linearGradient>
<path class="st12" d="M55,49.4c0,0-2.5,1.5-1.5,3.2c0,0,0.7,0.1,0.3,2c0.2-0.9-0.1-1.8-0.9-2.3c0,0-0.6-1.5,1.5-2.8
	C54.4,49.4,56.5,47.9,55,49.4z"/>
<linearGradient id="SVGID_14_" gradientUnits="userSpaceOnUse" x1="47.1576" y1="89.0698" x2="47.1576" y2="34.8649">
	<stop  offset="0" style="stop-color:#A2DED7"/>
	<stop  offset="1" style="stop-color:#F1A3A7"/>
</linearGradient>
<path class="st13" d="M45.5,53.8c0,0,1.8-0.2,1.9,0.8c0,0,1.3,1.2,2,1.1c0,0-0.1,1-2-0.5C47.4,55.2,43.6,54.5,45.5,53.8z"/>
<linearGradient id="SVGID_15_" gradientUnits="userSpaceOnUse" x1="45.578" y1="89.0698" x2="45.578" y2="34.8649">
	<stop  offset="0" style="stop-color:#A2DED7"/>
	<stop  offset="1" style="stop-color:#F1A3A7"/>
</linearGradient>
<path class="st14" d="M44.1,54.6c0,0-1,1.7,0.4,1.9c0,0-0.2,0.8,1.7,0.9c0,0-0.1,2,1.2,0.9c0,0,1,0.3-0.8,1c0,0-1.8,0.4-1.1-0.8
	c-0.2-0.4-0.6-0.6-1.1-0.7C44.4,57.9,42.6,57.2,44.1,54.6z"/>
<linearGradient id="SVGID_16_" gradientUnits="userSpaceOnUse" x1="44.4723" y1="89.0698" x2="44.4723" y2="34.8649">
	<stop  offset="0" style="stop-color:#A2DED7"/>
	<stop  offset="1" style="stop-color:#F1A3A7"/>
</linearGradient>
<path class="st15" d="M43.2,52.2c0,0-2.6,10,0,10.1c0.6-0.3,1.4-0.3,2,0c0,0,0.7,0.2,0.7-1.2c0,0-0.5-0.2-1,0.4c0,0-0.4-1,2.9-1.9
	c-1,0.6-1.7,1.6-1.7,2.8c0,0-0.4,1.5-1.7,0.4c0,0-2.4-0.6-1,2.9c0,0,0.8,1.7,2,3.7c0,0-1.4-1.9-2-1.9c0,0-2.5-1.5-1-4.7
	c0,0-2.6-3.6-0.5-10.6C42,52.2,43.8,49.7,43.2,52.2z"/>
<linearGradient id="SVGID_17_" gradientUnits="userSpaceOnUse" x1="40.1907" y1="89.0698" x2="40.1907" y2="34.8649">
	<stop  offset="0" style="stop-color:#A2DED7"/>
	<stop  offset="1" style="stop-color:#F1A3A7"/>
</linearGradient>
<path class="st16" d="M40.6,52.2c-0.6,2.2-0.7,4.4-0.2,6.7c0,0-1.1,6.3,1.5,10.2c0,0,2.4,0.7,1.2,4.3c0,0-2.1,0.4-1.9-3.3
	c0,0-0.8-2.2-4.1-3.8c0,0,2-1.2,2-2.7c-0.4,0.5-1,0.8-1.6,0.7c0.8-0.8,1.3-1.8,1.6-2.8c-0.5,0.5-1.1,1-1.7,1.3c0,0,1.9-2.5,1.6-3.2
	c-0.2,0.7-0.8,1.2-1.5,1.3c1.3-1.8,2-4.1,1.9-6.3c0.3-1.2,0.7-2.3,1.2-3.5"/>
<linearGradient id="SVGID_18_" gradientUnits="userSpaceOnUse" x1="47.709" y1="89.0698" x2="47.709" y2="34.8649">
	<stop  offset="0" style="stop-color:#A2DED7"/>
	<stop  offset="1" style="stop-color:#F1A3A7"/>
</linearGradient>
<path class="st17" d="M50,60c0,0,0.4,1.2-0.6,1.5c0,0-0.5,0-0.7,0.9c0,0-1.4,0.3-1.5,1.5c-0.7,0.4-1.1,1.2-1,2c0,0-1.4,0.4-0.7-1.6
	c0.6,0,1.2-0.4,1.4-1c0.3-0.5,0.6-0.9,1-1.3c0,0,1-0.5,1.1-1.2C49,60.8,49.6,61.1,50,60z"/>
<linearGradient id="SVGID_19_" gradientUnits="userSpaceOnUse" x1="47.534" y1="89.0698" x2="47.534" y2="34.8649">
	<stop  offset="0" style="stop-color:#A2DED7"/>
	<stop  offset="1" style="stop-color:#F1A3A7"/>
</linearGradient>
<path class="st18" d="M47.8,65.7c0,0-2.2,2.2-0.2,1C47.7,66.7,48.8,65.5,47.8,65.7z"/>
<linearGradient id="SVGID_20_" gradientUnits="userSpaceOnUse" x1="49.17" y1="89.0698" x2="49.17" y2="34.8649">
	<stop  offset="0" style="stop-color:#A2DED7"/>
	<stop  offset="1" style="stop-color:#F1A3A7"/>
</linearGradient>
<path class="st19" d="M46.2,67.8c0.9,0.4,1.9,0.4,2.8,0c0,0,2.8,1.1,3.2,0.6C52.2,68.4,47.1,68.9,46.2,67.8z"/>
<linearGradient id="SVGID_21_" gradientUnits="userSpaceOnUse" x1="50.855" y1="89.0698" x2="50.855" y2="34.8649">
	<stop  offset="0" style="stop-color:#A2DED7"/>
	<stop  offset="1" style="stop-color:#F1A3A7"/>
</linearGradient>
<path class="st20" d="M46.8,70.3c1.6,0,3.3,0.2,4.9,0.7c1.1,0.1,2.1,0,3.2-0.3c0,0-1,1.5-3.7,1.1C49.7,71.5,48.2,71,46.8,70.3z"/>
<linearGradient id="SVGID_22_" gradientUnits="userSpaceOnUse" x1="50.4296" y1="89.0698" x2="50.4296" y2="34.8649">
	<stop  offset="0" style="stop-color:#A2DED7"/>
	<stop  offset="1" style="stop-color:#F1A3A7"/>
</linearGradient>
<path class="st21" d="M46.8,71.8c0,0,5.5,1.3,6.5,0.8c0,0,4.4-1.2,0.9,0.5c0,0-2,0.5-7,0C47.2,73.1,43.2,70.4,46.8,71.8z"/>
<linearGradient id="SVGID_23_" gradientUnits="userSpaceOnUse" x1="49.5811" y1="89.0698" x2="49.5811" y2="34.8649">
	<stop  offset="0" style="stop-color:#A2DED7"/>
	<stop  offset="1" style="stop-color:#F1A3A7"/>
</linearGradient>
<path class="st22" d="M46.8,73.9c1.8,0.4,3.6,0.5,5.4,0.3c0,0,4.6-0.7,0,0.7c-1,0.5-1.9,1.1-2.6,2c-0.4-1.2-1.5-2.1-2.7-2.3
	C46.8,74.6,42.6,72.9,46.8,73.9z"/>
<linearGradient id="SVGID_24_" gradientUnits="userSpaceOnUse" x1="38.1205" y1="89.0698" x2="38.1205" y2="34.8649">
	<stop  offset="0" style="stop-color:#A2DED7"/>
	<stop  offset="1" style="stop-color:#F1A3A7"/>
</linearGradient>
<path class="st23" d="M35.2,67.4c0,0,0.2,2.1,0.7,2.6c0,0,1,0.7-0.4,3.3c0,0,1.8-2,0.7,0.8c0,0-1,2.8-0.1,1.4c0,0,1-1.7,0.4,0.6
	c0,0-0.5,1.7,0.2,0.8c0,0,0.9-1.2,0.6,0.8c0,0-0.4,2.5,0,0.8c0,0,0.2-1.5,0.5,0.6c0,0,0.5,3.7,0.5,1.3c0,0-0.5-3.6,2.2,3.2
	c0,0,3.5,4.2,0.5,1.1c-0.8-0.6-1.4-1.4-1.9-2.2c0,0-0.8-1.8-0.8,0.1c0,0,0.3,1.5-0.7-1.2c0,0-0.3-2.7-0.8,0c0,0-0.1,2.9-0.5-1.4
	c0,0,0.3-2.8-0.6-0.7c0,0-1.1,3.3-0.2-1.8c0,0,0.5-1.3-0.5-0.6c0,0-1.1,3-0.3-1c0,0,1-1.9-0.3-0.8c0,0-1.4,1.3,0.3-1.6
	c0,0,1.2-2,0.5-2.5c0,0-1-3.7-0.5-4.8C34.7,66.5,34.8,67,35.2,67.4z"/>
<linearGradient id="SVGID_25_" gradientUnits="userSpaceOnUse" x1="75.0246" y1="89.0698" x2="75.0246" y2="34.8649">
	<stop  offset="0" style="stop-color:#A2DED7"/>
	<stop  offset="1" style="stop-color:#F1A3A7"/>
</linearGradient>
<path class="st24" d="M69.3,41.6c1.5-0.2,3-0.1,4.4,0.5c0,0-2.8,0.4,0.6,0.7c0.8,0.2,1.6,0.6,2.3,1c0,0-1.8-0.5-1.8-0.3
	c0.9,0.3,1.9,0.6,2.8,1c0,0,4.3,2.7,0.8,0.8c0,0-2.7-0.9,0.9,0.9c0,0,1.4,0.9,1.8,1.7c-1.2-0.9-2.6-1.7-4-2.4L75.7,45
	c0.4-0.1,0.8-0.1,1.2,0c0,0,1-0.2-1.7-1c-0.7-0.1-1.4-0.3-2.1-0.6c0,0,0-0.2,1.2-0.3c-0.6-0.2-1.2-0.3-1.8-0.2
	c-0.9-0.6-1.9-0.9-2.9-1C69.7,42,68.4,41.8,69.3,41.6z"/>
<linearGradient id="SVGID_26_" gradientUnits="userSpaceOnUse" x1="69.4641" y1="89.0698" x2="69.4641" y2="34.8649">
	<stop  offset="0" style="stop-color:#A2DED7"/>
	<stop  offset="1" style="stop-color:#F1A3A7"/>
</linearGradient>
<path class="st25" d="M67.2,49.9c0,0,0.3-1.6-0.3-1.9c0,0,0.4-1.5,0.9,0.2c0,0-0.4,2.3,0.8,1.7c0,0,0.6-0.7,3-0.2c0,0,1.9,0.1,0.8-1
	c0,0-0.6-0.9-2.5,0.1c0,0-1.6,0.7-0.8-0.5c0,0,0.2-1-0.6-1.3c0,0-0.9-0.3-0.9-0.9c0,0-1.5-1-1.1,0.7c0,0-0.4,1.5-0.1,1.7
	c0,0,1,0.2,0.5,1.8L67.2,49.9z"/>
<linearGradient id="SVGID_27_" gradientUnits="userSpaceOnUse" x1="63.71" y1="89.0698" x2="63.71" y2="34.8649">
	<stop  offset="0" style="stop-color:#A2DED7"/>
	<stop  offset="1" style="stop-color:#F1A3A7"/>
</linearGradient>
<path class="st26" d="M62,52.2c0.1,0.3,0.4,0.5,0.7,0.6c0,0,0.4-0.3,0.4,0.7c0,0-0.2,2.1,0.6,1c0,0,0.3-1.6,0.5-1.4
	c0,0,1.2-0.5,1.2-0.9c0,0-0.4-1-1.4,0.2c0,0-0.4,0.9-1-0.2C63,52.2,62.5,50.9,62,52.2z"/>
<linearGradient id="SVGID_28_" gradientUnits="userSpaceOnUse" x1="68.5748" y1="89.0698" x2="68.5748" y2="34.8649">
	<stop  offset="0" style="stop-color:#A2DED7"/>
	<stop  offset="1" style="stop-color:#F1A3A7"/>
</linearGradient>
<path class="st27" d="M65.1,55.3c0,0.4,0.1,0.8,0.3,1.1l0.1,0.5c0,0,0.2-0.7,0.4-0.6c0,0,0.2-0.2,0.2,0.6c0,0,1.2-2.7,1.7-2.3
	c0.5-0.2,1-0.2,1.5-0.2c0,0,1.8-2,2.6-2v-0.5c-0.7,0.1-1.3,0-1.9-0.2l-0.5,0.4c0,0,0.4,0.3-0.2,1c0,0-1.1,0.9-2,0.4l-0.8-0.7
	C65.8,53.3,65.2,54.3,65.1,55.3z"/>
<linearGradient id="SVGID_29_" gradientUnits="userSpaceOnUse" x1="68.32" y1="89.0698" x2="68.32" y2="34.8649">
	<stop  offset="0" style="stop-color:#A2DED7"/>
	<stop  offset="1" style="stop-color:#F1A3A7"/>
</linearGradient>
<path class="st28" d="M67.4,53.3c0,0,0.2-0.8,0.6-0.8c0,0-0.2,1,0.6,0.8c0,0,1.1-0.1,0.3-1c0,0,0.3-0.2,0.5-0.2l0.4-0.4
	c-1.1-0.2-2.3,0.2-3,1.1"/>
<linearGradient id="SVGID_30_" gradientUnits="userSpaceOnUse" x1="48.0038" y1="89.0698" x2="48.0038" y2="34.8649">
	<stop  offset="0" style="stop-color:#A2DED7"/>
	<stop  offset="1" style="stop-color:#F1A3A7"/>
</linearGradient>
<path class="st29" d="M45.9,48c0,0,0.6,0.3-1.4,1.5c-0.1,0.7,0,1.5,0.2,2.2c0,0-0.3,1.5-0.9,1.8c0,0,1.5-1.4,1.6-1
	c0,0,0.6,0.2,0.1,0.6c0,0,1.4-0.9,1.8-0.1c0.4,0.3,0.7,0.7,0.9,1.1c0.4,0.4,0.8,0.7,1.3,0.8c0,0,1.3-0.2,1.4,0.8
	c0.2,0.6,0.3,1.2,0.3,1.8c0,0,1.5,0,0.5-3.7l-0.7-0.8l-0.6,0.3c0,0,0,0.5-0.8,0.5L49,53.6c-0.3-0.2-0.6-0.5-0.8-0.8
	c0,0-0.1-0.6,0.5-0.5v-0.4c0,0-1.1,0.2-1.3-0.2c0,0-1.5-0.7-0.5-1.2"/>
<linearGradient id="SVGID_31_" gradientUnits="userSpaceOnUse" x1="49.925" y1="89.0698" x2="49.925" y2="34.8649">
	<stop  offset="0" style="stop-color:#A2DED7"/>
	<stop  offset="1" style="stop-color:#F1A3A7"/>
</linearGradient>
<path class="st30" d="M48.8,51.9v0.3c0.1,0,0.3,0,0.4,0c0,0-0.9,0.6,0,1.1c0,0,0.9,0.3,0.9-0.5c0-0.1,0-0.3,0-0.4
	c0,0,0.5,0.3,0.4,0.7l0.5-0.3C51,52.9,50.6,51.8,48.8,51.9z"/>
<linearGradient id="SVGID_32_" gradientUnits="userSpaceOnUse" x1="72.0161" y1="89.0698" x2="72.0161" y2="34.8649">
	<stop  offset="0" style="stop-color:#A2DED7"/>
	<stop  offset="1" style="stop-color:#F1A3A7"/>
</linearGradient>
<path class="st31" d="M72,52.4c0.3,0.3,0.4,0.7,0.2,1.1c0,0-0.6,1-1.3,1.1c0,0-1.9,0.9-2.1,1.5c0,0,1.5-1.3,2-1.2c0,0,1.7,0.2,2-0.2
	c0,0,0.5,0,0.6-1.1c0-0.4,0.2-0.7,0.6-0.9c0,0,0.5-0.3,0-1.1c0,0-0.5-1.8,0.6-2.1c0,0,1.2,0,0-1.4c0,0-3.4-3.7-1.2,1.3
	c0,0,0.3,1.5-0.1,1.7c0,0-0.1-1.1-1.3,0.8"/>
<linearGradient id="SVGID_33_" gradientUnits="userSpaceOnUse" x1="78.17" y1="89.0698" x2="78.17" y2="34.8649">
	<stop  offset="0" style="stop-color:#A2DED7"/>
	<stop  offset="1" style="stop-color:#F1A3A7"/>
</linearGradient>
<path class="st32" d="M73,45.4c0,0,2.5,1.8,3,1.7c1.9,0.8,3.2,2.5,3.5,4.5c0,0,1.4,4.6,1.5,4.7l-0.2-0.2c0,0,0.6,1.5,0.2,6.1
	c0,0,0.6,0.5-1.2,4.1c0,0-0.8,1.9,0.4,3.1c0,0,1.2,0.7,1.1-0.7s0-0.3,0-0.3c-0.5-1.2-0.3-2.6,0.6-3.6c0.3-0.7,0.5-1.6,0.4-2.4
	c0.3,0.1,0.6,0.4,0.6,0.7c-0.1-0.7-0.3-1.3-0.6-1.9c0,0,0.2,0,0.6,0.4c0-0.6-0.2-1.2-0.5-1.7c0,0,0.3-0.2,0.8,0.4
	c-0.1-0.6-0.5-1-1-1.3c0,0-0.1-0.3,1,0.1c-0.2-0.6-0.7-1-1.2-1.3c0,0,0-0.3,0.8,0.1c-0.2-0.6-0.6-1.1-1.2-1.4c0,0-0.5-0.9,0.7,0
	c0,0-1.3-2.4-0.8-2.5c-0.1-1-0.3-2-0.6-3c0,0-1.7-2.6-2.4-2.8c-0.4-0.7-1.1-1.2-1.8-1.5c-0.8-0.1-1.6-0.4-2.3-0.9
	C74.1,45.7,73.6,45.5,73,45.4z"/>
<linearGradient id="SVGID_34_" gradientUnits="userSpaceOnUse" x1="76.6457" y1="89.0698" x2="76.6457" y2="34.8649">
	<stop  offset="0" style="stop-color:#A2DED7"/>
	<stop  offset="1" style="stop-color:#F1A3A7"/>
</linearGradient>
<path class="st33" d="M76,52.2c0,0,1.9,3.6,2,6.1c-0.2,1.9-0.7,3.8-1.5,5.7c-0.4,0.8-0.3,1.7,0.3,2.3c-1.3,0.5-2.3,1.6-2.5,2.9
	c0,0,1.2-2.1,2.9-2.2c0.6-0.1,1.2,0.2,1.4,0.7c0.1,0.1,0.1,0.3,0.1,0.5c0.2,1.4,0.6-2.7-0.6-3.6c0,0-0.4-4,0.8-4.9
	c0,0,0.1-6.5-1-6.7C78,52.9,75.5,47.3,76,52.2z"/>
<linearGradient id="SVGID_35_" gradientUnits="userSpaceOnUse" x1="72.2758" y1="89.0698" x2="72.2758" y2="34.8649">
	<stop  offset="0" style="stop-color:#A2DED7"/>
	<stop  offset="1" style="stop-color:#F1A3A7"/>
</linearGradient>
<path class="st34" d="M75,53.3c0,0,0.7,4.5,0.2,5.1c0,0-1.2,4.1-2.4,4.5c0,0-0.6,0.2-0.6,0c0,0-0.5-0.9-1.4-0.7
	c-0.9-0.8-1.7-1.7-2.4-2.7c0.4,1,1,1.8,1.7,2.6c0.4,0.2,0.8,0.5,1.2,0.8c0,0,2,1.5,1.5,2.5c0,0,0.8,0.2,0.8-0.3c0,0-0.5-1.3-0.1-1.6
	c0,0,1.2-2.1,1.4-2.6c0.6-1,0.9-2.1,1.2-3.3c0.2-0.9,0.2-1.9,0.1-2.8C76.1,54.7,75.7,53.2,75,53.3z"/>
<linearGradient id="SVGID_36_" gradientUnits="userSpaceOnUse" x1="72.7685" y1="89.0698" x2="72.7685" y2="34.8649">
	<stop  offset="0" style="stop-color:#A2DED7"/>
	<stop  offset="1" style="stop-color:#F1A3A7"/>
</linearGradient>
<path class="st35" d="M73.4,57.1c0,0-0.6-0.2-1.2,0.8c0,0-0.3,0.9-0.7,0.9l-0.8-0.2c0,0,1.7,1.4,2.9,1c0,0,1.7-0.7-0.1-0.5
	c0,0-1.7-0.1-0.4-0.8c0,0,0.1-0.3,0.8-0.2c0,0-0.4-0.8,0.9-0.8c0,0,0.8-1.3-0.6-0.6L73.4,57.1z"/>
<linearGradient id="SVGID_37_" gradientUnits="userSpaceOnUse" x1="71.3368" y1="89.0698" x2="71.3368" y2="34.8649">
	<stop  offset="0" style="stop-color:#A2DED7"/>
	<stop  offset="1" style="stop-color:#F1A3A7"/>
</linearGradient>
<path class="st36" d="M70.4,60.3c0.3,0.6,0.8,1,1.4,1.2c0,0,1.2,0.3,0-0.9C71.8,60.7,70,58.9,70.4,60.3z"/>
<linearGradient id="SVGID_38_" gradientUnits="userSpaceOnUse" x1="70.8434" y1="89.0698" x2="70.8434" y2="34.8649">
	<stop  offset="0" style="stop-color:#A2DED7"/>
	<stop  offset="1" style="stop-color:#F1A3A7"/>
</linearGradient>
<path class="st37" d="M68.8,62.5c0,0,1.9,1.4,2.2,2.2c0,0,0.5,0.3,0.8,1.7c0,0,0.1,0.8,0.4,0.1c0,0,0.2-0.3,0.5-0.2
	c0,0,0.5,0.1,0.2-0.5c0,0-0.5-0.8-0.9-0.5c0,0-1-0.6-0.8-1.1c0,0-1.7-2.3-2-2.2C69.4,62.1,68.1,61.1,68.8,62.5z"/>
<linearGradient id="SVGID_39_" gradientUnits="userSpaceOnUse" x1="67.47" y1="89.0698" x2="67.47" y2="34.8649">
	<stop  offset="0" style="stop-color:#A2DED7"/>
	<stop  offset="1" style="stop-color:#F1A3A7"/>
</linearGradient>
<path class="st38" d="M64.6,68.8c1.8-0.9,3.7-1.3,5.7-1.2L64.6,68.8z"/>
<linearGradient id="SVGID_40_" gradientUnits="userSpaceOnUse" x1="66.67" y1="89.0698" x2="66.67" y2="34.8649">
	<stop  offset="0" style="stop-color:#A2DED7"/>
	<stop  offset="1" style="stop-color:#F1A3A7"/>
</linearGradient>
<path class="st39" d="M62,70.8c0,0,6.2,1.1,9.3-2.6C71.3,68.2,71.1,73.4,62,70.8z"/>
<linearGradient id="SVGID_41_" gradientUnits="userSpaceOnUse" x1="66.71" y1="89.0698" x2="66.71" y2="34.8649">
	<stop  offset="0" style="stop-color:#A2DED7"/>
	<stop  offset="1" style="stop-color:#F1A3A7"/>
</linearGradient>
<path class="st40" d="M61.1,72.3c3.8,1,7.8,0.5,11.2-1.4C72.3,70.9,66.5,76,61.1,72.3z"/>
<linearGradient id="SVGID_42_" gradientUnits="userSpaceOnUse" x1="71.1389" y1="89.0698" x2="71.1389" y2="34.8649">
	<stop  offset="0" style="stop-color:#A2DED7"/>
	<stop  offset="1" style="stop-color:#F1A3A7"/>
</linearGradient>
<path class="st41" d="M64,74.6c0,0,1.4,2,2.7,2.1c0.7,0.3,1.2,0.9,1.3,1.6c0,0,1.9-3.8,4-4.3c0,0,4.9-3,5.4-3.1c0,0,3.3-2.2-2.8,0.6
	c0,0-4.6,2.5-5.9,2.7C68.6,74.2,68.4,74.8,64,74.6z"/>
<linearGradient id="SVGID_43_" gradientUnits="userSpaceOnUse" x1="58.8005" y1="89.0698" x2="58.8005" y2="34.8649">
	<stop  offset="0" style="stop-color:#A2DED7"/>
	<stop  offset="1" style="stop-color:#F1A3A7"/>
</linearGradient>
<path class="st42" d="M51.8,65.4c0.2,1.4,1.3,2.6,2.8,2.8c0,0,1.4,0.3,1.4,1.4c0,0-0.6,0.3,1.5,1.9c0.3,0.7-0.1,1.5-0.8,1.7
	c0,0-0.1,0-0.1,0c0,0-0.7,0.2-1.9,1.7c-1.4,0.5-2.7,1.1-3.9,2c1.6-0.5,3.3-0.7,5-0.7l6.8,0.1c0.9,0.1,1.6,0.6,2.2,1.2
	c0,0,1.9,0.4,1.9-0.3c0,0-0.6,0.7-3-1.5c0,0-4-1.3-3.6-1.8c0,0-2.6-1.5-1.3-2.5c0,0,1.2-3.2,3.2-3.9c0,0,1.1,0.4,1.7-1.7
	c0.2-0.3,0.3-0.7,0.3-1.1c-0.4,0.4-0.9,0.6-1.5,0.6c-1-0.3-2-0.1-2.8,0.5c0,0-2.4,0.5-3.3,0c-0.8-0.4-1.7-0.5-2.5-0.3
	C53.2,65.8,52.5,65.7,51.8,65.4z"/>
<linearGradient id="SVGID_44_" gradientUnits="userSpaceOnUse" x1="87.02" y1="89.0698" x2="87.02" y2="34.8649">
	<stop  offset="0" style="stop-color:#A2DED7"/>
	<stop  offset="1" style="stop-color:#F1A3A7"/>
</linearGradient>
<path class="st43" d="M83.8,53.6c0.6,0.6,1.2,1.3,1.7,2c-0.4-0.2-0.8-0.3-1.2-0.4c0.8,0.8,1.5,1.6,2.1,2.5c0,0-1.1-0.4-1.3-0.2
	c0,0,1.7,1.5,1.9,2.2c0,0-0.9-0.4-1.3-0.2c0.8,0.7,1.4,1.5,2,2.3c0,0-1.2-0.4-1.2-0.2c0,0,2.8,2.7,3.1,4c-0.2-0.8-0.5-1.6-0.8-2.3
	c0.5,0.5,1,0.9,1.6,1.2c0,0-2-3.7-2.8-3.8c0,0,0.6-0.3,2,0.7c-0.7-1.1-1.5-2.1-2.5-3c0.6,0.1,1.2,0.4,1.8,0.7c0,0-2.1-2.8-2.8-2.9
	c0,0,0.4-0.5,2.2,0.7C88.2,56.9,84.6,53.3,83.8,53.6z"/>
<linearGradient id="SVGID_45_" gradientUnits="userSpaceOnUse" x1="86.841" y1="89.0698" x2="86.841" y2="34.8649">
	<stop  offset="0" style="stop-color:#A2DED7"/>
	<stop  offset="1" style="stop-color:#F1A3A7"/>
</linearGradient>
<path class="st44" d="M85.1,64c0,0,1.9,2.6,1.9,3.4c0,0-1.2-1.2-1.6-1.2c0,0,2.5,2.7,2.5,4.7c0,0-1.4-2.4-1.8-2.1
	c0.7,1,1.1,2.3,1.2,3.5c0,0-0.7-0.9-1-1c0.5,1,0.9,2.2,1,3.3c0,0-0.6-1-1.1-1.1c0.5,0.8,0.8,1.8,0.8,2.8c0,0-0.1,2.4-0.2,2.9
	c0.4-1,0.6-2.1,0.7-3.2c0.2,0.4,0.3,0.9,0.3,1.3c0.2-1.7,0.3-3.5,0.2-5.2c0.3,0,0.6,0.2,0.7,0.5C88.6,69.4,87.4,66.3,85.1,64z"/>
<linearGradient id="SVGID_46_" gradientUnits="userSpaceOnUse" x1="76.8182" y1="89.0698" x2="76.8182" y2="34.8649">
	<stop  offset="0" style="stop-color:#A2DED7"/>
	<stop  offset="1" style="stop-color:#F1A3A7"/>
</linearGradient>
<path class="st45" d="M85.4,77.3c0,0-0.2,5.2-3,6.3c0,0,0.6,0.9-10.1,3.3c0,0-3.8,1.4-4.9,1.2c3.3-0.2,6.5-0.8,9.6-1.8
	c0,0,6.6-1.3,7.4-3.2C84.4,83.1,87.6,78.1,85.4,77.3z"/>
<linearGradient id="SVGID_47_" gradientUnits="userSpaceOnUse" x1="49.488" y1="89.0698" x2="49.488" y2="34.8649">
	<stop  offset="0" style="stop-color:#A2DED7"/>
	<stop  offset="1" style="stop-color:#F1A3A7"/>
</linearGradient>
<path class="st46" d="M50.1,78.6c-0.5,0-1,0.1-1.4,0.4c0,0-0.6,0.4,0.7,0.2C49.4,79.2,51,78.4,50.1,78.6z"/>
<linearGradient id="SVGID_48_" gradientUnits="userSpaceOnUse" x1="49.455" y1="89.0698" x2="49.455" y2="34.8649">
	<stop  offset="0" style="stop-color:#A2DED7"/>
	<stop  offset="1" style="stop-color:#F1A3A7"/>
</linearGradient>
<path class="st47" d="M48,80.4c0,0,1.8-1.6,2.8-1.1c0,0-0.6,0.7-1.1,0.7C49.2,80.1,48.6,80.3,48,80.4z"/>
<linearGradient id="SVGID_49_" gradientUnits="userSpaceOnUse" x1="49.8117" y1="89.0698" x2="49.8117" y2="34.8649">
	<stop  offset="0" style="stop-color:#A2DED7"/>
	<stop  offset="1" style="stop-color:#F1A3A7"/>
</linearGradient>
<path class="st48" d="M48.7,81.3c0,0,1.5-1.4,2.2-1.5C50.9,79.8,51.5,80.6,48.7,81.3z"/>
<linearGradient id="SVGID_50_" gradientUnits="userSpaceOnUse" x1="50.4463" y1="89.0698" x2="50.4463" y2="34.8649">
	<stop  offset="0" style="stop-color:#A2DED7"/>
	<stop  offset="1" style="stop-color:#F1A3A7"/>
</linearGradient>
<path class="st49" d="M49.3,82.3c0.6-0.7,1.4-1.4,2.2-1.9C51.5,80.4,52.1,81,49.3,82.3z"/>
<linearGradient id="SVGID_51_" gradientUnits="userSpaceOnUse" x1="51.0346" y1="89.0698" x2="51.0346" y2="34.8649">
	<stop  offset="0" style="stop-color:#A2DED7"/>
	<stop  offset="1" style="stop-color:#F1A3A7"/>
</linearGradient>
<path class="st50" d="M49.8,83c0,0,1.7-1.8,2.2-1.8C52,81.2,53.4,80.7,49.8,83z"/>
<linearGradient id="SVGID_52_" gradientUnits="userSpaceOnUse" x1="52.4682" y1="89.0698" x2="52.4682" y2="34.8649">
	<stop  offset="0" style="stop-color:#A2DED7"/>
	<stop  offset="1" style="stop-color:#F1A3A7"/>
</linearGradient>
<path class="st51" d="M51.6,83.3c0,0,1.2-2,1.7-2C53.2,81.3,54.1,81.1,51.6,83.3z"/>
<linearGradient id="SVGID_53_" gradientUnits="userSpaceOnUse" x1="53.1157" y1="89.0698" x2="53.1157" y2="34.8649">
	<stop  offset="0" style="stop-color:#A2DED7"/>
	<stop  offset="1" style="stop-color:#F1A3A7"/>
</linearGradient>
<path class="st52" d="M52.5,84.4c0,0,0.5-2.2,1-2.4C53.5,82,54.5,81.1,52.5,84.4z"/>
<linearGradient id="SVGID_54_" gradientUnits="userSpaceOnUse" x1="53.9015" y1="89.0698" x2="53.9015" y2="34.8649">
	<stop  offset="0" style="stop-color:#A2DED7"/>
	<stop  offset="1" style="stop-color:#F1A3A7"/>
</linearGradient>
<path class="st53" d="M53.6,85.3c0,0,0-2.6,0.5-3C54.1,82.3,54.7,81.8,53.6,85.3z"/>
<linearGradient id="SVGID_55_" gradientUnits="userSpaceOnUse" x1="54.6425" y1="89.0698" x2="54.6425" y2="34.8649">
	<stop  offset="0" style="stop-color:#A2DED7"/>
	<stop  offset="1" style="stop-color:#F1A3A7"/>
</linearGradient>
<path class="st54" d="M54.5,85.8c0,0-0.2-2.4,0.2-2.8C54.7,83,55.2,82.1,54.5,85.8z"/>
<linearGradient id="SVGID_56_" gradientUnits="userSpaceOnUse" x1="55.7099" y1="89.0698" x2="55.7099" y2="34.8649">
	<stop  offset="0" style="stop-color:#A2DED7"/>
	<stop  offset="1" style="stop-color:#F1A3A7"/>
</linearGradient>
<path class="st55" d="M55.6,86c0,0-0.2-2.7,0.1-2.8C55.7,83.2,56.2,82.7,55.6,86z"/>
<linearGradient id="SVGID_57_" gradientUnits="userSpaceOnUse" x1="57.0139" y1="89.0698" x2="57.0139" y2="34.8649">
	<stop  offset="0" style="stop-color:#A2DED7"/>
	<stop  offset="1" style="stop-color:#F1A3A7"/>
</linearGradient>
<path class="st56" d="M57.2,86.4c0,0-0.7-2.3-0.3-2.9C56.9,83.6,57.1,82.4,57.2,86.4z"/>
<linearGradient id="SVGID_58_" gradientUnits="userSpaceOnUse" x1="58.1052" y1="89.0698" x2="58.1052" y2="34.8649">
	<stop  offset="0" style="stop-color:#A2DED7"/>
	<stop  offset="1" style="stop-color:#F1A3A7"/>
</linearGradient>
<path class="st57" d="M58.5,86.2c0,0-1-2.4-0.7-2.7C57.8,83.6,58.1,83,58.5,86.2z"/>
<linearGradient id="SVGID_59_" gradientUnits="userSpaceOnUse" x1="59.35" y1="89.0698" x2="59.35" y2="34.8649">
	<stop  offset="0" style="stop-color:#A2DED7"/>
	<stop  offset="1" style="stop-color:#F1A3A7"/>
</linearGradient>
<path class="st58" d="M59.6,86c-0.3-0.8-0.5-1.6-0.6-2.4C59.1,83.6,59.4,83.3,59.6,86z"/>
<linearGradient id="SVGID_60_" gradientUnits="userSpaceOnUse" x1="60.3621" y1="89.0698" x2="60.3621" y2="34.8649">
	<stop  offset="0" style="stop-color:#A2DED7"/>
	<stop  offset="1" style="stop-color:#F1A3A7"/>
</linearGradient>
<path class="st59" d="M60.6,85.7c0,0-0.8-1.5-0.4-2.1C60.2,83.6,60.6,83.3,60.6,85.7z"/>
<linearGradient id="SVGID_61_" gradientUnits="userSpaceOnUse" x1="61.645" y1="89.0698" x2="61.645" y2="34.8649">
	<stop  offset="0" style="stop-color:#A2DED7"/>
	<stop  offset="1" style="stop-color:#F1A3A7"/>
</linearGradient>
<path class="st60" d="M62,85.5c-0.4-0.6-0.7-1.4-0.7-2.1C61.3,83.4,61.7,83.5,62,85.5z"/>
<linearGradient id="SVGID_62_" gradientUnits="userSpaceOnUse" x1="63.0218" y1="89.0698" x2="63.0218" y2="34.8649">
	<stop  offset="0" style="stop-color:#A2DED7"/>
	<stop  offset="1" style="stop-color:#F1A3A7"/>
</linearGradient>
<path class="st61" d="M63.4,85.3c0,0-0.9-1.4-0.8-1.9C62.6,83.4,62.6,82.3,63.4,85.3z"/>
<linearGradient id="SVGID_63_" gradientUnits="userSpaceOnUse" x1="64.06" y1="89.0698" x2="64.06" y2="34.8649">
	<stop  offset="0" style="stop-color:#A2DED7"/>
	<stop  offset="1" style="stop-color:#F1A3A7"/>
</linearGradient>
<path class="st62" d="M64.4,84.6c-0.4-0.6-0.7-1.2-0.8-1.9C63.7,82.7,63.8,81.6,64.4,84.6z"/>
<linearGradient id="SVGID_64_" gradientUnits="userSpaceOnUse" x1="64.915" y1="89.0698" x2="64.915" y2="34.8649">
	<stop  offset="0" style="stop-color:#A2DED7"/>
	<stop  offset="1" style="stop-color:#F1A3A7"/>
</linearGradient>
<path class="st63" d="M65.3,84c-0.4-0.5-0.7-1.1-0.7-1.8C64.6,82.2,64.8,81.6,65.3,84z"/>
<linearGradient id="SVGID_65_" gradientUnits="userSpaceOnUse" x1="65.6382" y1="89.0698" x2="65.6382" y2="34.8649">
	<stop  offset="0" style="stop-color:#A2DED7"/>
	<stop  offset="1" style="stop-color:#F1A3A7"/>
</linearGradient>
<path class="st64" d="M66.3,83.3c0,0-1.3-1.5-1.3-2C65,81.3,64.8,79.8,66.3,83.3z"/>
<linearGradient id="SVGID_66_" gradientUnits="userSpaceOnUse" x1="66.4067" y1="89.0698" x2="66.4067" y2="34.8649">
	<stop  offset="0" style="stop-color:#A2DED7"/>
	<stop  offset="1" style="stop-color:#F1A3A7"/>
</linearGradient>
<path class="st65" d="M67.2,82.2c0,0-1.7-1.4-1.6-1.8C65.6,80.4,65.3,79.5,67.2,82.2z"/>
<linearGradient id="SVGID_67_" gradientUnits="userSpaceOnUse" x1="66.3476" y1="89.0698" x2="66.3476" y2="34.8649">
	<stop  offset="0" style="stop-color:#A2DED7"/>
	<stop  offset="1" style="stop-color:#F1A3A7"/>
</linearGradient>
<path class="st66" d="M67.5,80.7c0,0-2.1-0.8-2.2-1.2C65.3,79.5,64.8,78.7,67.5,80.7z"/>
</svg>
