<?xml version="1.0" encoding="utf-8"?>
<!-- Generator: Adobe Illustrator 23.0.4, SVG Export Plug-In . SVG Version: 6.00 Build 0)  -->
<svg version="1.1" xmlns="http://www.w3.org/2000/svg" xmlns:xlink="http://www.w3.org/1999/xlink" x="0px" y="0px"
	 viewBox="0 0 120 120" style="enable-background:new 0 0 120 120;" xml:space="preserve">
<style type="text/css">
	.st0{fill:url(#SVGID_1_);}
	.st1{fill:url(#SVGID_2_);}
	.st2{fill:url(#SVGID_3_);}
	.st3{fill:url(#SVGID_4_);}
	.st4{fill:url(#SVGID_5_);}
	.st5{fill:url(#SVGID_6_);}
</style>
<g id="圖層_1">
	<linearGradient id="SVGID_1_" gradientUnits="userSpaceOnUse" x1="53.205" y1="94.1778" x2="53.205" y2="30.0837">
		<stop  offset="0" style="stop-color:#A2DED7"/>
		<stop  offset="1" style="stop-color:#F1A3A7"/>
	</linearGradient>
	<rect x="48.2" y="25.9" class="st0" width="9.9" height="34.7"/>
	<linearGradient id="SVGID_2_" gradientUnits="userSpaceOnUse" x1="70.155" y1="94.1778" x2="70.155" y2="30.0837">
		<stop  offset="0" style="stop-color:#A2DED7"/>
		<stop  offset="1" style="stop-color:#F1A3A7"/>
	</linearGradient>
	<path class="st1" d="M60.2,28.9v31.7h19.9V28.9H60.2z M62.4,36.8h12.2v1.8H62.4L62.4,36.8z M76.8,44.5h-9.3v-1.9h9.3L76.8,44.5z
		 M78.6,33.3H69v-1.9h9.6L78.6,33.3z"/>
	<linearGradient id="SVGID_3_" gradientUnits="userSpaceOnUse" x1="104.735" y1="94.1778" x2="104.735" y2="30.0837">
		<stop  offset="0" style="stop-color:#A2DED7"/>
		<stop  offset="1" style="stop-color:#F1A3A7"/>
	</linearGradient>
	<rect x="103.8" y="82.1" class="st2" width="1.8" height="10.5"/>
	<linearGradient id="SVGID_4_" gradientUnits="userSpaceOnUse" x1="17.6" y1="94.1778" x2="17.6" y2="30.0837">
		<stop  offset="0" style="stop-color:#A2DED7"/>
		<stop  offset="1" style="stop-color:#F1A3A7"/>
	</linearGradient>
	<polygon class="st3" points="24.1,31.1 22.9,32.6 22.9,32.5 12.8,43.4 11.1,45.2 11.1,45.2 11.1,45.2 11.1,45.2 11.1,78.8 
		11.1,94.1 12.8,94.1 12.8,78.8 12.8,45.9 24.1,33.7 	"/>
	<linearGradient id="SVGID_5_" gradientUnits="userSpaceOnUse" x1="36.265" y1="94.1778" x2="36.265" y2="30.0837">
		<stop  offset="0" style="stop-color:#A2DED7"/>
		<stop  offset="1" style="stop-color:#F1A3A7"/>
	</linearGradient>
	<path class="st4" d="M26.3,28.9v51.6l19.9-19.9V28.9H26.3z M35.4,43.2h7.9v1.8h-7.9V43.2z M30,48.2h9.3v1.8H30L30,48.2z M37.7,61.2
		h-9.5v-1.9h9.6L37.7,61.2z M44.3,55.9H32.2V54h12.2L44.3,55.9z"/>
	<linearGradient id="SVGID_6_" gradientUnits="userSpaceOnUse" x1="78.175" y1="94.1778" x2="78.175" y2="30.0837">
		<stop  offset="0" style="stop-color:#A2DED7"/>
		<stop  offset="1" style="stop-color:#F1A3A7"/>
	</linearGradient>
	<path class="st5" d="M90.6,62.2H47.3l18.4,18.4H109L90.6,62.2z M61.3,68.1v-1.9h19.9V68L61.3,68.1z M84.3,76.5H70.8v-1.8h13.5
		L84.3,76.5z M79.1,72.3v-1.8h16.7v1.8H79.1z"/>
</g>
<g id="圖層_2">
</g>
</svg>
