<?xml version="1.0" encoding="utf-8"?>
<!-- Generator: Adobe Illustrator 23.0.4, SVG Export Plug-In . SVG Version: 6.00 Build 0)  -->
<svg version="1.1" id="圖層_1" xmlns="http://www.w3.org/2000/svg" xmlns:xlink="http://www.w3.org/1999/xlink" x="0px" y="0px"
	 viewBox="0 0 120 120" style="enable-background:new 0 0 120 120;" xml:space="preserve">
<style type="text/css">
	.st0{fill:url(#SVGID_1_);}
	.st1{fill:url(#SVGID_2_);}
	.st2{fill:url(#SVGID_3_);}
	.st3{fill:url(#SVGID_4_);}
	.st4{fill:url(#SVGID_5_);}
	.st5{fill:url(#SVGID_6_);}
	.st6{fill:url(#SVGID_7_);}
	.st7{fill:url(#SVGID_8_);}
	.st8{fill:url(#SVGID_9_);}
	.st9{fill:url(#SVGID_10_);}
	.st10{fill:url(#SVGID_11_);}
	.st11{fill:url(#SVGID_12_);}
	.st12{fill:url(#SVGID_13_);}
	.st13{fill:url(#SVGID_14_);}
	.st14{fill:url(#SVGID_15_);}
	.st15{fill:url(#SVGID_16_);}
	.st16{fill:url(#SVGID_17_);}
	.st17{fill:url(#SVGID_18_);}
	.st18{fill:url(#SVGID_19_);}
	.st19{fill:url(#SVGID_20_);}
	.st20{fill:url(#SVGID_21_);}
	.st21{fill:url(#SVGID_22_);}
	.st22{fill:url(#SVGID_23_);}
	.st23{fill:url(#SVGID_24_);}
	.st24{fill:url(#SVGID_25_);}
	.st25{fill:url(#SVGID_26_);}
	.st26{fill:url(#SVGID_27_);}
	.st27{fill:url(#SVGID_28_);}
	.st28{fill:url(#SVGID_29_);}
	.st29{fill:url(#SVGID_30_);}
	.st30{fill:url(#SVGID_31_);}
	.st31{fill:url(#SVGID_32_);}
	.st32{fill:url(#SVGID_33_);}
	.st33{fill:url(#SVGID_34_);}
	.st34{fill:url(#SVGID_35_);}
	.st35{fill:url(#SVGID_36_);}
	.st36{fill:url(#SVGID_37_);}
	.st37{fill:url(#SVGID_38_);}
	.st38{fill:url(#SVGID_39_);}
	.st39{fill:url(#SVGID_40_);}
	.st40{fill:url(#SVGID_41_);}
	.st41{fill:url(#SVGID_42_);}
	.st42{fill:url(#SVGID_43_);}
	.st43{fill:url(#SVGID_44_);}
	.st44{fill:url(#SVGID_45_);}
</style>
<g>
	<linearGradient id="SVGID_1_" gradientUnits="userSpaceOnUse" x1="9.1117" y1="61.555" x2="117.2442" y2="61.555">
		<stop  offset="0" style="stop-color:#A2DED7"/>
		<stop  offset="1" style="stop-color:#F1A3A7"/>
	</linearGradient>
	<path class="st0" d="M94.4,65.4c-0.7-3,0.6-6.1,3.2-7.8C97.6,57.7,93,60.3,94.4,65.4"/>
	<linearGradient id="SVGID_2_" gradientUnits="userSpaceOnUse" x1="9.1117" y1="58.3418" x2="117.2442" y2="58.3418">
		<stop  offset="0" style="stop-color:#A2DED7"/>
		<stop  offset="1" style="stop-color:#F1A3A7"/>
	</linearGradient>
	<path class="st1" d="M97.4,58.5c-0.2,0.1-0.4,0.1-0.5,0s0.1-0.2,0.3-0.3s0.4-0.1,0.5,0S97.6,58.4,97.4,58.5"/>
	<linearGradient id="SVGID_3_" gradientUnits="userSpaceOnUse" x1="9.1117" y1="58.7819" x2="117.2442" y2="58.7819">
		<stop  offset="0" style="stop-color:#A2DED7"/>
		<stop  offset="1" style="stop-color:#F1A3A7"/>
	</linearGradient>
	<path class="st2" d="M96.8,58.9c-0.2,0-0.4,0-0.4-0.1s0.1-0.2,0.3-0.2s0.4,0,0.4,0.1S97,58.9,96.8,58.9"/>
	<linearGradient id="SVGID_4_" gradientUnits="userSpaceOnUse" x1="9.1117" y1="57.855" x2="117.2442" y2="57.855">
		<stop  offset="0" style="stop-color:#A2DED7"/>
		<stop  offset="1" style="stop-color:#F1A3A7"/>
	</linearGradient>
	<path class="st3" d="M97.8,58c-0.2,0.1-0.4,0.1-0.4,0s0.1-0.2,0.3-0.3s0.4-0.1,0.4,0S98.1,57.9,97.8,58"/>
	<linearGradient id="SVGID_5_" gradientUnits="userSpaceOnUse" x1="9.1117" y1="57.39" x2="117.2442" y2="57.39">
		<stop  offset="0" style="stop-color:#A2DED7"/>
		<stop  offset="1" style="stop-color:#F1A3A7"/>
	</linearGradient>
	<path class="st4" d="M98.3,57.5c-0.2,0.1-0.4,0.1-0.5,0s0.1-0.2,0.3-0.3s0.4-0.1,0.5,0S98.5,57.5,98.3,57.5"/>
	<linearGradient id="SVGID_6_" gradientUnits="userSpaceOnUse" x1="9.1117" y1="56.895" x2="117.2442" y2="56.895">
		<stop  offset="0" style="stop-color:#A2DED7"/>
		<stop  offset="1" style="stop-color:#F1A3A7"/>
	</linearGradient>
	<path class="st5" d="M98.3,57c-0.2,0.2-0.3,0.2-0.4,0.2s0-0.2,0.1-0.4s0.4-0.2,0.4-0.2S98.4,56.8,98.3,57"/>
	<linearGradient id="SVGID_7_" gradientUnits="userSpaceOnUse" x1="9.1117" y1="57.14" x2="117.2442" y2="57.14">
		<stop  offset="0" style="stop-color:#A2DED7"/>
		<stop  offset="1" style="stop-color:#F1A3A7"/>
	</linearGradient>
	<path class="st6" d="M97.3,57.2c0-0.2,0.1-0.3,0.2-0.3s0.2,0.1,0.2,0.3s0,0.3-0.2,0.3S97.3,57.3,97.3,57.2"/>
	<linearGradient id="SVGID_8_" gradientUnits="userSpaceOnUse" x1="9.1117" y1="57.4648" x2="117.2442" y2="57.4648">
		<stop  offset="0" style="stop-color:#A2DED7"/>
		<stop  offset="1" style="stop-color:#F1A3A7"/>
	</linearGradient>
	<path class="st7" d="M97,57.5c0-0.2,0-0.3,0.2-0.4s0.2,0.1,0.2,0.3s0,0.4-0.2,0.4S97,57.7,97,57.5"/>
	<linearGradient id="SVGID_9_" gradientUnits="userSpaceOnUse" x1="9.1117" y1="57.78" x2="117.2442" y2="57.78">
		<stop  offset="0" style="stop-color:#A2DED7"/>
		<stop  offset="1" style="stop-color:#F1A3A7"/>
	</linearGradient>
	<path class="st8" d="M96.6,57.8c0-0.2,0-0.4,0.2-0.4s0.2,0.2,0.2,0.3s0,0.4-0.2,0.4S96.6,58,96.6,57.8"/>
	<linearGradient id="SVGID_10_" gradientUnits="userSpaceOnUse" x1="9.1117" y1="58.1348" x2="117.2442" y2="58.1348">
		<stop  offset="0" style="stop-color:#A2DED7"/>
		<stop  offset="1" style="stop-color:#F1A3A7"/>
	</linearGradient>
	<path class="st9" d="M96.2,58.2c0-0.2,0-0.4,0.2-0.4s0.2,0.1,0.2,0.3s0,0.4-0.2,0.4S96.3,58.4,96.2,58.2"/>
	<linearGradient id="SVGID_11_" gradientUnits="userSpaceOnUse" x1="9.1117" y1="58.395" x2="117.2442" y2="58.395">
		<stop  offset="0" style="stop-color:#A2DED7"/>
		<stop  offset="1" style="stop-color:#F1A3A7"/>
	</linearGradient>
	<path class="st10" d="M95.8,58.5c-0.1-0.2-0.1-0.4,0-0.4s0.2,0.1,0.3,0.3s0.1,0.4,0,0.4S95.9,58.6,95.8,58.5"/>
	<linearGradient id="SVGID_12_" gradientUnits="userSpaceOnUse" x1="9.1117" y1="62.605" x2="117.2442" y2="62.605">
		<stop  offset="0" style="stop-color:#A2DED7"/>
		<stop  offset="1" style="stop-color:#F1A3A7"/>
	</linearGradient>
	<path class="st11" d="M94.3,65.5c0-2.5,1.5-4.8,3.8-5.8C98.1,59.7,94,61.2,94.3,65.5"/>
	<linearGradient id="SVGID_13_" gradientUnits="userSpaceOnUse" x1="9.1117" y1="60.1791" x2="117.2442" y2="60.1791">
		<stop  offset="0" style="stop-color:#A2DED7"/>
		<stop  offset="1" style="stop-color:#F1A3A7"/>
	</linearGradient>
	<path class="st12" d="M97.8,60.3c-0.2,0-0.4,0-0.4-0.1s0.1-0.2,0.3-0.2s0.4,0,0.4,0.1S97.9,60.3,97.8,60.3"/>
	<linearGradient id="SVGID_14_" gradientUnits="userSpaceOnUse" x1="9.1117" y1="60.4884" x2="117.2442" y2="60.4884">
		<stop  offset="0" style="stop-color:#A2DED7"/>
		<stop  offset="1" style="stop-color:#F1A3A7"/>
	</linearGradient>
	<path class="st13" d="M97.2,60.6c-0.2,0-0.3,0-0.3-0.1s0.1-0.1,0.3-0.1s0.3,0,0.3,0.1S97.4,60.6,97.2,60.6"/>
	<linearGradient id="SVGID_15_" gradientUnits="userSpaceOnUse" x1="9.1117" y1="59.9" x2="117.2442" y2="59.9">
		<stop  offset="0" style="stop-color:#A2DED7"/>
		<stop  offset="1" style="stop-color:#F1A3A7"/>
	</linearGradient>
	<path class="st14" d="M98.2,60c-0.2,0-0.3,0-0.4,0s0.1-0.2,0.3-0.2s0.3,0,0.4,0S98.4,60,98.2,60"/>
	<linearGradient id="SVGID_16_" gradientUnits="userSpaceOnUse" x1="9.1117" y1="59.5572" x2="117.2442" y2="59.5572">
		<stop  offset="0" style="stop-color:#A2DED7"/>
		<stop  offset="1" style="stop-color:#F1A3A7"/>
	</linearGradient>
	<path class="st15" d="M98.7,59.7c-0.2,0.1-0.3,0-0.4,0s0.1-0.2,0.3-0.2s0.3,0,0.4,0S98.9,59.6,98.7,59.7"/>
	<linearGradient id="SVGID_17_" gradientUnits="userSpaceOnUse" x1="9.1117" y1="59.1515" x2="117.2442" y2="59.1515">
		<stop  offset="0" style="stop-color:#A2DED7"/>
		<stop  offset="1" style="stop-color:#F1A3A7"/>
	</linearGradient>
	<path class="st16" d="M98.7,59.2c-0.2,0.1-0.3,0.1-0.4,0.1s0-0.2,0.2-0.3s0.3-0.1,0.4-0.1S98.9,59.1,98.7,59.2"/>
	<linearGradient id="SVGID_18_" gradientUnits="userSpaceOnUse" x1="9.1117" y1="59.255" x2="117.2442" y2="59.255">
		<stop  offset="0" style="stop-color:#A2DED7"/>
		<stop  offset="1" style="stop-color:#F1A3A7"/>
	</linearGradient>
	<path class="st17" d="M97.9,59.2c0-0.1,0.1-0.3,0.2-0.2s0.1,0.1,0.1,0.3s-0.1,0.3-0.2,0.3S97.9,59.4,97.9,59.2"/>
	<linearGradient id="SVGID_19_" gradientUnits="userSpaceOnUse" x1="9.1117" y1="59.475" x2="117.2442" y2="59.475">
		<stop  offset="0" style="stop-color:#A2DED7"/>
		<stop  offset="1" style="stop-color:#F1A3A7"/>
	</linearGradient>
	<path class="st18" d="M97.6,59.5c0-0.2,0.1-0.3,0.2-0.3s0.1,0.1,0.1,0.3s-0.1,0.3-0.2,0.3S97.6,59.6,97.6,59.5"/>
	<linearGradient id="SVGID_20_" gradientUnits="userSpaceOnUse" x1="9.1117" y1="59.685" x2="117.2442" y2="59.685">
		<stop  offset="0" style="stop-color:#A2DED7"/>
		<stop  offset="1" style="stop-color:#F1A3A7"/>
	</linearGradient>
	<path class="st19" d="M97.2,59.7c0-0.2,0.1-0.3,0.2-0.3s0.1,0.1,0.1,0.3S97.5,60,97.4,60S97.2,59.8,97.2,59.7"/>
	<linearGradient id="SVGID_21_" gradientUnits="userSpaceOnUse" x1="9.1117" y1="59.93" x2="117.2442" y2="59.93">
		<stop  offset="0" style="stop-color:#A2DED7"/>
		<stop  offset="1" style="stop-color:#F1A3A7"/>
	</linearGradient>
	<path class="st20" d="M96.9,59.9c0-0.2,0.1-0.3,0.2-0.3s0.1,0.1,0.1,0.3s-0.1,0.3-0.2,0.3S96.9,60.1,96.9,59.9"/>
	<linearGradient id="SVGID_22_" gradientUnits="userSpaceOnUse" x1="9.1117" y1="60.09" x2="117.2442" y2="60.09">
		<stop  offset="0" style="stop-color:#A2DED7"/>
		<stop  offset="1" style="stop-color:#F1A3A7"/>
	</linearGradient>
	<path class="st21" d="M96.5,60.1c0-0.2,0-0.3,0.1-0.3s0.2,0.1,0.2,0.3s0,0.3-0.1,0.3S96.6,60.3,96.5,60.1"/>
	<linearGradient id="SVGID_23_" gradientUnits="userSpaceOnUse" x1="9.1117" y1="54.545" x2="117.2442" y2="54.545">
		<stop  offset="0" style="stop-color:#A2DED7"/>
		<stop  offset="1" style="stop-color:#F1A3A7"/>
	</linearGradient>
	<line class="st22" x1="38.8" y1="52.2" x2="44.4" y2="56.8"/>
	<linearGradient id="SVGID_24_" gradientUnits="userSpaceOnUse" x1="9.1117" y1="54.53" x2="117.2442" y2="54.53">
		<stop  offset="0" style="stop-color:#A2DED7"/>
		<stop  offset="1" style="stop-color:#F1A3A7"/>
	</linearGradient>
	<path class="st23" d="M38.8,52.2c0.4,0.1,0.8,0.2,1.1,0.4c0.3,0.2,0.7,0.4,1,0.6c0.2,0.1,0.4,0.2,0.5,0.4L42,54
		c0.3,0.3,0.7,0.6,1,0.9c0.3,0.3,0.5,0.6,0.8,0.9c0.2,0.3,0.4,0.6,0.6,1l-0.1,0.1l-2.8-2.3L38.8,52.2L38.8,52.2z"/>
	<linearGradient id="SVGID_25_" gradientUnits="userSpaceOnUse" x1="9.1117" y1="52.6" x2="117.2442" y2="52.6">
		<stop  offset="0" style="stop-color:#A2DED7"/>
		<stop  offset="1" style="stop-color:#F1A3A7"/>
	</linearGradient>
	<line class="st24" x1="17.1" y1="48.5" x2="25.8" y2="56.7"/>
	<linearGradient id="SVGID_26_" gradientUnits="userSpaceOnUse" x1="9.1117" y1="52.61" x2="117.2442" y2="52.61">
		<stop  offset="0" style="stop-color:#A2DED7"/>
		<stop  offset="1" style="stop-color:#F1A3A7"/>
	</linearGradient>
	<path class="st25" d="M17.1,48.5c0.6,0.3,1.1,0.6,1.7,1c0.5,0.3,1,0.7,1.5,1.2c0.3,0.2,0.6,0.4,0.8,0.7l0.8,0.8
		c0.5,0.5,1.1,1,1.5,1.6s0.9,1,1.2,1.5c0.4,0.5,0.8,1,1.1,1.6l-0.1,0.1l-4.4-4.1L17.1,48.5L17.1,48.5z"/>
	<linearGradient id="SVGID_27_" gradientUnits="userSpaceOnUse" x1="9.1117" y1="52.715" x2="117.2442" y2="52.715">
		<stop  offset="0" style="stop-color:#A2DED7"/>
		<stop  offset="1" style="stop-color:#F1A3A7"/>
	</linearGradient>
	<line class="st26" x1="21.2" y1="48.6" x2="29.9" y2="56.8"/>
	<linearGradient id="SVGID_28_" gradientUnits="userSpaceOnUse" x1="9.1117" y1="52.72" x2="117.2442" y2="52.72">
		<stop  offset="0" style="stop-color:#A2DED7"/>
		<stop  offset="1" style="stop-color:#F1A3A7"/>
	</linearGradient>
	<path class="st27" d="M21.2,48.6c0.6,0.3,1.1,0.6,1.6,1c0.5,0.3,1,0.7,1.5,1.2c0.3,0.2,0.6,0.5,0.8,0.7l0.8,0.8
		c0.5,0.5,1.1,1,1.5,1.6s0.9,1,1.2,1.5c0.4,0.5,0.8,1,1.1,1.6l-0.1,0.1l-4.4-4.1L21.2,48.6L21.2,48.6z"/>
	<linearGradient id="SVGID_29_" gradientUnits="userSpaceOnUse" x1="9.1117" y1="60.385" x2="117.2442" y2="60.385">
		<stop  offset="0" style="stop-color:#A2DED7"/>
		<stop  offset="1" style="stop-color:#F1A3A7"/>
	</linearGradient>
	<path class="st28" d="M58.9,51h-2.2v-0.1c0-0.2-0.1-0.4-0.4-0.5h-0.7c-0.2,0-0.3,0.2-0.3,0.5V51H48c-0.3,0-0.5,0.2-0.5,0.5
		c0,0,0,0,0,0v0.3c0,0.3,0.2,0.5,0.5,0.5c0,0,0,0,0,0h7.4c0,2.4,0.1,7.6,0,10c-0.1,0.6-0.2,1.2-0.5,1.8c-1.1,1.4-4.7,4.8-4.7,4.8
		c-0.2,0.3-0.2,0.6,0,0.9l0.2,0.3c0.2,0.3,0.5,0.5,0.6,0.3l5.3-5.4c0.3-0.5,0.4-1.1,0.4-1.7v-11h2.2c0.3,0,0.5-0.2,0.5-0.5
		c0,0,0,0,0,0v-0.3C59.4,51.2,59.2,51,58.9,51C58.9,51,58.9,51,58.9,51"/>
	<linearGradient id="SVGID_30_" gradientUnits="userSpaceOnUse" x1="9.1117" y1="57.655" x2="117.2442" y2="57.655">
		<stop  offset="0" style="stop-color:#A2DED7"/>
		<stop  offset="1" style="stop-color:#F1A3A7"/>
	</linearGradient>
	<line class="st29" x1="49.8" y1="55.7" x2="54" y2="59.6"/>
	<linearGradient id="SVGID_31_" gradientUnits="userSpaceOnUse" x1="9.1117" y1="57.655" x2="117.2442" y2="57.655">
		<stop  offset="0" style="stop-color:#A2DED7"/>
		<stop  offset="1" style="stop-color:#F1A3A7"/>
	</linearGradient>
	<path class="st30" d="M49.9,55.6c0.3,0.1,0.6,0.2,0.9,0.3c0.3,0.1,0.6,0.3,0.8,0.5c0.1,0.1,0.3,0.2,0.4,0.3l0.4,0.4
		c0.3,0.2,0.5,0.5,0.7,0.8c0.2,0.2,0.4,0.5,0.5,0.8c0.2,0.3,0.3,0.6,0.4,0.9l0,0.1l-2.1-2L49.9,55.6L49.9,55.6z"/>
	<linearGradient id="SVGID_32_" gradientUnits="userSpaceOnUse" x1="9.1117" y1="55.795" x2="117.2442" y2="55.795">
		<stop  offset="0" style="stop-color:#A2DED7"/>
		<stop  offset="1" style="stop-color:#F1A3A7"/>
	</linearGradient>
	<line class="st31" x1="65.3" y1="50.4" x2="73" y2="61.2"/>
	<linearGradient id="SVGID_33_" gradientUnits="userSpaceOnUse" x1="9.1117" y1="55.735" x2="117.2442" y2="55.735">
		<stop  offset="0" style="stop-color:#A2DED7"/>
		<stop  offset="1" style="stop-color:#F1A3A7"/>
	</linearGradient>
	<path class="st32" d="M65.3,50.4l0.4,0.4c0.3,0.3,0.7,0.6,1.1,1.1s0.9,1,1.4,1.6c0.2,0.3,0.5,0.6,0.8,0.9l0.7,1
		c0.5,0.7,0.9,1.4,1.3,2s0.7,1.3,1.1,1.9s0.5,1,0.7,1.4s0.2,0.5,0.2,0.5h-0.1l-3.9-5.4L65.3,50.4L65.3,50.4z"/>
	<linearGradient id="SVGID_34_" gradientUnits="userSpaceOnUse" x1="9.1117" y1="55.865" x2="117.2442" y2="55.865">
		<stop  offset="0" style="stop-color:#A2DED7"/>
		<stop  offset="1" style="stop-color:#F1A3A7"/>
	</linearGradient>
	<line class="st33" x1="68.7" y1="50.5" x2="76.4" y2="61.3"/>
	<linearGradient id="SVGID_35_" gradientUnits="userSpaceOnUse" x1="9.1117" y1="55.805" x2="117.2442" y2="55.805">
		<stop  offset="0" style="stop-color:#A2DED7"/>
		<stop  offset="1" style="stop-color:#F1A3A7"/>
	</linearGradient>
	<path class="st34" d="M68.7,50.4c0,0,0.2,0.1,0.4,0.4s0.7,0.6,1.1,1.1s0.9,1,1.4,1.6c0.2,0.3,0.5,0.6,0.8,0.9l0.7,1
		c0.5,0.7,1,1.4,1.3,2s0.7,1.3,1,1.9s0.5,1,0.7,1.4s0.2,0.5,0.2,0.5h-0.1l-3.9-5.4l-3.8-5.4L68.7,50.4z"/>
	<linearGradient id="SVGID_36_" gradientUnits="userSpaceOnUse" x1="9.1117" y1="44.4948" x2="117.2442" y2="44.4948">
		<stop  offset="0" style="stop-color:#A2DED7"/>
		<stop  offset="1" style="stop-color:#F1A3A7"/>
	</linearGradient>
	<path class="st35" d="M59.2,43.8H54v-3.1c0-0.3-0.2-0.5-0.5-0.5c0,0,0,0,0,0h-0.8c-0.3,0-0.5,0.2-0.5,0.5c0,0,0,0,0,0v3.2h-5.6
		c-0.3,0-0.5,0.2-0.5,0.5c0,0,0,0,0,0v0.5c0,0.3,0.2,0.5,0.5,0.5c0,0,0,0,0,0h5.5h0.1l0,0v2.3c0,0-0.1,0-0.1,0h-3.7
		c-0.2,0-0.3,0.2-0.3,0.3v0.4c0,0.2,0.2,0.3,0.3,0.3h9c0.2,0,0.3-0.2,0.3-0.3V48c0-0.2-0.2-0.3-0.3-0.3H54v-2.3l0,0h0.1h5.2
		c0.3,0,0.5-0.2,0.5-0.5c0,0,0,0,0,0v-0.5C59.7,44.1,59.5,43.9,59.2,43.8C59.2,43.9,59.2,43.9,59.2,43.8"/>
	<linearGradient id="SVGID_37_" gradientUnits="userSpaceOnUse" x1="9.1117" y1="54.9887" x2="117.2442" y2="54.9887">
		<stop  offset="0" style="stop-color:#A2DED7"/>
		<stop  offset="1" style="stop-color:#F1A3A7"/>
	</linearGradient>
	<path class="st36" d="M45.7,61.1c0-3,0-12.3,0-13.2v-0.2c0-0.2-0.1-0.3-0.3-0.3h-6.3c-0.1-0.3-0.8-0.3-1-0.3h-0.7
		c-0.2,0-0.4,0.1-0.5,0.2l0,0c0,0.1-0.1,0.1-0.1,0.2v1.2l0,0c0,2.3,0.2,13.5,0.2,13.5c0,0.4,0.2,0.4,0.2,0.4h1.9
		c0.2,0,0.1-0.5,0.4-0.6c0,0,4.4,0.1,4.4,0.1c0,0.1,0,0.1,0.1,0.2l0,0c0,0.3,0.2,0.5,0.5,0.5c0,0,0,0,0,0h0.7c0.3,0,0.5-0.2,0.5-0.5
		c0,0,0,0,0,0L45.7,61.1C45.7,61.2,45.7,61.2,45.7,61.1 M43.6,61.2h-4c-0.2,0-0.4-0.2-0.4-0.5V49.6c0-0.2,0.2-0.5,0.4-0.5h4
		c0.3,0,0.4,0.2,0.4,0.5v11.1C44,61,43.8,61.2,43.6,61.2C43.6,61.2,43.6,61.2,43.6,61.2"/>
	<linearGradient id="SVGID_38_" gradientUnits="userSpaceOnUse" x1="9.1117" y1="60.1744" x2="117.2442" y2="60.1744">
		<stop  offset="0" style="stop-color:#A2DED7"/>
		<stop  offset="1" style="stop-color:#F1A3A7"/>
	</linearGradient>
	<path class="st37" d="M102.2,64.8c0-2.6,0.1-8.3,0-10v-0.1c0-0.1-0.2-0.2-0.4-0.2h-8.4c-0.1-0.2-1.1-0.2-1.3-0.2h-1
		c-0.2,0-0.5,0.1-0.7,0.2l0,0c0,0-0.1,0.1-0.1,0.2v0.9l0,0c0,1.7,0.3,10.2,0.3,10.2c0,0.3,0.3,0.3,0.3,0.3s2.5,0,2.5,0
		c0.3,0,0.2-0.4,0.5-0.5c0,0,5.9,0.1,5.9,0l0.1,0.1l0,0c0,0.2,0.3,0.4,0.7,0.4h1c0.4,0,0.7-0.2,0.7-0.4L102.2,64.8L102.2,64.8
		 M99.3,64.8h-5.2c-0.3,0-0.6-0.2-0.6-0.4v-8.3c0-0.2,0.3-0.4,0.6-0.4h5.3c0.3,0,0.6,0.2,0.6,0.4v8.4C99.9,64.7,99.7,64.9,99.3,64.8
		"/>
	<linearGradient id="SVGID_39_" gradientUnits="userSpaceOnUse" x1="9.1117" y1="55.04" x2="117.2442" y2="55.04">
		<stop  offset="0" style="stop-color:#A2DED7"/>
		<stop  offset="1" style="stop-color:#F1A3A7"/>
	</linearGradient>
	<path class="st38" d="M33.6,47.8c-0.1,0-0.2-0.1-0.2-0.1H15.5c-0.1,0-0.2,0-0.3-0.1h-2.5c-0.3,0-0.5,0.2-0.5,0.5c0,0,0,0,0,0v7
		c0,3,0,5.9,0,7c0.1,0.2,0.3,0.3,0.4,0.3h20.6c0.3,0,0.5-0.2,0.5-0.5c0,0,0,0,0,0V48.1C33.7,48,33.7,47.9,33.6,47.8L33.6,47.8
		 M30.8,60.7c0,0.5-0.3,0.8-0.8,0.9H16.4c-0.5,0-0.8-0.4-0.8-0.9c0,0,0,0,0,0V49.9c0-0.5,0.3-0.8,0.8-0.9c0,0,0,0,0,0h13.7
		c0.5,0,0.8,0.4,0.8,0.9V60.7z"/>
	<linearGradient id="SVGID_40_" gradientUnits="userSpaceOnUse" x1="9.1117" y1="54.18" x2="117.2442" y2="54.18">
		<stop  offset="0" style="stop-color:#A2DED7"/>
		<stop  offset="1" style="stop-color:#F1A3A7"/>
	</linearGradient>
	<path class="st39" d="M79.7,49.7h-2.2c-0.2,0-0.5,0.2-0.5,0.4h-9.1l2.2-4h6.4c0.3,0,0.5-0.2,0.5-0.5c0,0,0,0,0,0v-1.3
		c0-0.3-0.2-0.5-0.5-0.5c0,0,0,0,0,0H63.4c-0.3,0-0.5,0.2-0.5,0.5c0,0,0,0,0,0v1.3c0,0.3,0.2,0.5,0.5,0.5c0,0,0,0,0,0h5.8L67.1,50
		c0,0.1,0,0.1,0,0.2h-3.6c0-0.2-0.2-0.4-0.5-0.4h-2.2c-0.3,0-0.5,0.2-0.5,0.5c0,0,0,0,0,0V64c0,0.3,0.2,0.5,0.5,0.5c0,0,0,0,0,0H63
		c0.3,0,0.5-0.2,0.5-0.5c0,0,0,0,0,0V50.8H77V64c0,0.3,0.2,0.5,0.5,0.5c0,0,0,0,0,0h2.2c0.3,0,0.5-0.2,0.5-0.5c0,0,0,0,0,0V50.2
		C80.2,49.9,80,49.7,79.7,49.7C79.7,49.7,79.7,49.7,79.7,49.7"/>
	<linearGradient id="SVGID_41_" gradientUnits="userSpaceOnUse" x1="9.1117" y1="54.892" x2="117.2442" y2="54.892">
		<stop  offset="0" style="stop-color:#A2DED7"/>
		<stop  offset="1" style="stop-color:#F1A3A7"/>
	</linearGradient>
	<path class="st40" d="M104.1,42.3H84.6c-0.3,0-0.6,0.2-0.6,0.4l0,0l0,0c1.1,13.5-2.7,23.9-3.4,23.9c0.7,0.9,3.6,0.9,3.7,0.8
		c3.8-6.3,3.9-24.4,4-24.3h15.8c0.3,0,0.6-0.2,0.6-0.4S104.4,42.3,104.1,42.3"/>
	<linearGradient id="SVGID_42_" gradientUnits="userSpaceOnUse" x1="9.1117" y1="48.69" x2="117.2442" y2="48.69">
		<stop  offset="0" style="stop-color:#A2DED7"/>
		<stop  offset="1" style="stop-color:#F1A3A7"/>
	</linearGradient>
	<path class="st41" d="M104.6,50.9l-3.6-3.1l0,0v-0.6h1.6c0.2,0,0.3-0.1,0.3-0.2c0-0.2-0.1-0.3-0.2-0.3c0,0-0.1,0-0.1,0H101v-1.5
		h1.6c0.2,0,0.3-0.1,0.3-0.3s-0.1-0.3-0.3-0.3h-5.2c-0.2,0-0.3,0.1-0.3,0.3s0.1,0.3,0.3,0.3l0,0h2.2v1.5h-2.2
		c-0.2,0-0.3,0.1-0.3,0.2c0,0.2,0.1,0.3,0.2,0.3c0,0,0.1,0,0.1,0h2.2v0.6l-3.2,2.8l0,0l-3.4-2.7v-0.6h1.6c0.2,0,0.3-0.1,0.4-0.2
		s-0.1-0.3-0.2-0.4c-0.1,0-0.1,0-0.2,0h-1.6v-1.4l0,0h1.6c0.2,0,0.3-0.1,0.4-0.2s-0.1-0.3-0.2-0.4c-0.1,0-0.1,0-0.2,0h-5.1
		c-0.2,0-0.3,0.1-0.3,0.3s0.1,0.3,0.3,0.3l0,0h2.2v1.5h-2.2c-0.2,0-0.3,0.1-0.3,0.3s0.1,0.3,0.3,0.3l0,0h2.2V48l-3.4,3
		c-0.1,0.1-0.1,0.2-0.1,0.3c0,0,0,0,0.1,0.1c0.1,0.1,0.3,0.1,0.5,0l2.9-2.5v3.6c0,0.2,0.3,0.3,0.7,0.3s0.7-0.2,0.7-0.3v-3.8L96,51
		c0.1,0.1,0.2,0.1,0.2,0.1c0,0,0,0.1,0.1,0.1c0.1,0.1,0.3,0.1,0.5,0l2.9-2.5v3.7c0,0.2,0.3,0.4,0.7,0.4s0.7-0.2,0.7-0.4v-3.7l3,2.7
		c0.1,0.1,0.3,0.1,0.5,0C104.6,51.2,104.6,51.1,104.6,50.9C104.5,50.9,104.5,50.9,104.6,50.9"/>
	<linearGradient id="SVGID_43_" gradientUnits="userSpaceOnUse" x1="9.1117" y1="67.665" x2="117.2442" y2="67.665">
		<stop  offset="0" style="stop-color:#A2DED7"/>
		<stop  offset="1" style="stop-color:#F1A3A7"/>
	</linearGradient>
	<path class="st42" d="M97.2,67.7c0,0.1-0.2,0.2-0.3,0.2H17.7c-0.2,0-0.4-0.1-0.4-0.2s0.1-0.3,0.4-0.3h79.2
		C97.1,67.4,97.2,67.5,97.2,67.7"/>
	<linearGradient id="SVGID_44_" gradientUnits="userSpaceOnUse" x1="9.1117" y1="68.685" x2="117.2442" y2="68.685">
		<stop  offset="0" style="stop-color:#A2DED7"/>
		<stop  offset="1" style="stop-color:#F1A3A7"/>
	</linearGradient>
	<path class="st43" d="M85.1,68.7c0,0.1-0.2,0.2-0.3,0.2H5.6c-0.2,0-0.3-0.1-0.3-0.2s0.2-0.3,0.3-0.3h79.2
		C85,68.4,85.1,68.6,85.1,68.7"/>
	<g>
		<linearGradient id="SVGID_45_" gradientUnits="userSpaceOnUse" x1="9.1117" y1="56.5681" x2="117.2442" y2="56.5681">
			<stop  offset="0" style="stop-color:#A2DED7"/>
			<stop  offset="1" style="stop-color:#F1A3A7"/>
		</linearGradient>
		<path class="st44" d="M84.3,89.7c-12.6,0-23.9-7-29.5-18.2l0.8-0.4C61,82,72,88.9,84.3,88.9c0,0,0,0,0,0c8.6,0,16.6-3.3,22.7-9.4
			s9.4-14.1,9.4-22.7c0-18.2-13.5-32.4-30.8-32.4c-11.1,0-22.5,6-28.3,15l-0.7-0.5c6-9.2,17.6-15.4,29-15.4
			c17.8,0,31.7,14.6,31.7,33.3c0,8.8-3.4,17.1-9.7,23.3C101.4,86.3,93.1,89.7,84.3,89.7C84.3,89.7,84.3,89.7,84.3,89.7z"/>
	</g>
</g>
</svg>
