<?xml version="1.0" encoding="utf-8"?>
<!-- Generator: Adobe Illustrator 23.0.4, SVG Export Plug-In . SVG Version: 6.00 Build 0)  -->
<svg version="1.1" id="圖層_1" xmlns="http://www.w3.org/2000/svg" xmlns:xlink="http://www.w3.org/1999/xlink" x="0px" y="0px"
	 viewBox="0 0 120 120" style="enable-background:new 0 0 120 120;" xml:space="preserve">
<style type="text/css">
	.st0{fill:url(#SVGID_1_);}
	.st1{fill:url(#SVGID_2_);}
	.st2{fill:url(#SVGID_3_);}
	.st3{fill:url(#SVGID_4_);}
	.st4{fill:url(#SVGID_5_);}
	.st5{fill:url(#SVGID_6_);}
	.st6{fill:url(#SVGID_7_);}
	.st7{fill:url(#SVGID_8_);}
	.st8{fill:url(#SVGID_9_);}
	.st9{fill:url(#SVGID_10_);}
	.st10{fill:url(#SVGID_11_);}
	.st11{fill:url(#SVGID_12_);}
	.st12{fill:url(#SVGID_13_);}
</style>
<linearGradient id="SVGID_1_" gradientUnits="userSpaceOnUse" x1="59.96" y1="95.8805" x2="59.96" y2="29.8662">
	<stop  offset="0" style="stop-color:#A2DED7"/>
	<stop  offset="1" style="stop-color:#F1A3A7"/>
</linearGradient>
<path class="st0" d="M68.7,44.9c-0.8,0.6-1.9,0.6-2.7-0.1c-0.5-0.7-1.2-1.3-1.9-1.8c-1.3-0.5-0.9-2.2-0.9-2.2c1.3-1,2.5-2,3.7-3.1
	c3.5-2,4-3.5,4-3.5c-0.2,0.8-2.4,1.4-3.8,1.4c-1.9-0.2-1.1-1.6-0.9-2c2-2.3,2.2-2.6,2.3-4c-0.5,1.8-1.5,2-2.5,2.5
	c-1.3,0.1-1.3-1.2-1.4-2.2c-0.3-1.5,0.1-3.1,1.1-4.3c-1.1,0.4-1.8,1.4-2,2.5c0.1,1.9-1,1.8-1.8,1.6c-1.2-0.1-2.1-1.3-2-2.5
	c0-0.1,0-0.2,0-0.2c0.7-2.9-0.2-3.9-0.2-3.9s-0.1,1.6-0.2,2.3c-0.6,0.4-0.6,1-0.5,2.2c-0.1,2.2-0.1,1.4-0.4,1.8
	c-0.8,1.1-2.4,0.3-2.7-0.1c-0.2-3.2-0.7-2.7-1.7-3.5c1.2,1.8,0.5,3.3,0.5,4.4c0.1,0.7-0.2,1.5-0.7,2c-0.8,0.6-2.2-1-2.7-1.7
	c0.2,1.7,0.9,2,1.6,2.7c0.9,1.6-0.2,2.2-0.7,2.5c-1.2,0.8-2.9-1.1-3.4-1.4c0.4,1.2,1.3,2.1,2.5,2.5c1.1,0,2.5,2.2,3.5,3.7
	c1,0.3,1.5,1.3,1.2,2.2c0,0,0,0,0,0.1c0.1,1.7-2.8,2.7-3.6,2.5c-3.7-1.4-5.4,2.5-5.4,2.5s25.6-1.3,25.7-1.3
	C70.4,44.5,69.7,44.8,68.7,44.9 M55,35.3c0-2.7,2.2-4.9,4.9-4.9c2.7,0,4.9,2.2,4.9,4.9c0,2.7-2.2,4.9-4.9,4.9c0,0,0,0,0,0
	C57.2,40.2,55,38,55,35.3"/>
<linearGradient id="SVGID_2_" gradientUnits="userSpaceOnUse" x1="60" y1="95.8805" x2="60" y2="29.8662">
	<stop  offset="0" style="stop-color:#A2DED7"/>
	<stop  offset="1" style="stop-color:#F1A3A7"/>
</linearGradient>
<path class="st1" d="M85.2,46.1c-4.6,0.3-14.9,0.2-21.8,0.1v-0.1L60,46.2l-3.4-0.1v0.1c-6.9,0.1-17.2,0.2-21.8-0.1
	c-23.4,0.4-27.9-9.7-27.9-9.7c2.8,19,28.3,17.8,28.3,17.8h49.7c0,0,25.4,1.2,28.3-17.8C113.1,36.4,108.7,46.5,85.2,46.1"/>
<linearGradient id="SVGID_3_" gradientUnits="userSpaceOnUse" x1="72.2395" y1="95.8805" x2="72.2395" y2="29.8662">
	<stop  offset="0" style="stop-color:#A2DED7"/>
	<stop  offset="1" style="stop-color:#F1A3A7"/>
</linearGradient>
<path class="st2" d="M69.9,71l0.6,3.7c0,0-8.3,5.3,1.2,1.8c0.2-1.2,0.7-2.4,1.2-3.5c0.3-0.4,0.7-0.8,0-2c-0.1-0.1,0.1-0.2,0.2-0.3
	c0.7-0.5,2.2-0.9,3.8,2.2c0.7,0,5.9,0.2,0,3.3c0.2,0.3-1.1,4.6-1.1,4.6s2.1,1.4-0.7,5.2c-0.1,0.4-0.1,0.8-0.1,1.1
	c0,0,7.2,0.2,0.4,2.9c-2,0.5-4.1,1.1-4.1,1.1s-2.3,1.1-1.8-2.4c1-0.7,1.9-1.6,2.6-2.6c0.2-0.3-0.6-0.7-1.6-0.3
	c-0.7,0.2-2.4,0.5-1.7-2.6c0.5-0.9,1.4-1.5,2.4-1.6c0.3,0,0.5-2.9,0.5-2.9s-3.9,1.8-5.7,0.3c-0.6-0.5-2.1-2-0.7-3.7
	C66.8,73.7,69.3,72.1,69.9,71"/>
<linearGradient id="SVGID_4_" gradientUnits="userSpaceOnUse" x1="31.125" y1="95.8805" x2="31.125" y2="29.8662">
	<stop  offset="0" style="stop-color:#A2DED7"/>
	<stop  offset="1" style="stop-color:#F1A3A7"/>
</linearGradient>
<polyline class="st3" points="31.2,87.3 30.7,87.6 30.7,88.1 31.6,88.1 31.6,87.6 31.4,87.3 "/>
<linearGradient id="SVGID_5_" gradientUnits="userSpaceOnUse" x1="28.915" y1="95.8805" x2="28.915" y2="29.8662">
	<stop  offset="0" style="stop-color:#A2DED7"/>
	<stop  offset="1" style="stop-color:#F1A3A7"/>
</linearGradient>
<path class="st4" d="M33.6,80.9l-1.7-1.7l-1.8,0.9c-0.7,0.4-1.4,0.6-2.1,0.8c0.5-0.9,1-1.8,1.5-2.7l1.4-0.8c0,0,2.1-1.3,2.2-1.3
	c-0.1-1.2-1.3-0.9-1.7-0.9c0-0.6-0.5-0.8-1.2-1.3c-0.8-0.7-1,0-1,0s-0.1,1.5-0.3,2.2c-1,0.1-1,0.4-1,0.4v1l-3.7,1.2
	c0.6,0.5,1.3,0.9,2,1.2c1.2,0,0.4,0.9,0.4,0.9s-1,6-0.7,6.5c1.1,1,0.9,1.3,0.8,1.7c0.2,0.4,0.2,0.9,0.2,1.4l-3.2,2.9
	c0.2,0.4,0.4,0.8,0.5,1.3c1.8-1,3.5-2.2,5.1-3.5l2.3,2.4c0,0-0.2-0.7-0.2-1.2s0.7-3.1,0.7-3.1h0.5l0.2-0.6c-0.3,0-0.5,0.1-0.7,0.1
	c-0.4-0.5,0.3-1.1,0.3-1.1l1-5.3l0.9,0.4v-1.1L33.6,80.9z M28.6,87l-0.4-0.6l1-0.8l0.6,0.5L28.6,87z M31.1,82.5
	c0,1.1-0.5,1.2-0.5,1.2l-1.3-0.4c-0.5,0.2-0.9,0.5-1.2,0.8c-0.8-0.4,0-0.8,0-0.8l0.7-0.5c0.4-0.3,0.9-0.4,1.4-0.3
	C30.7,81.8,31.2,82.1,31.1,82.5"/>
<linearGradient id="SVGID_6_" gradientUnits="userSpaceOnUse" x1="37.9903" y1="95.8805" x2="37.9903" y2="29.8662">
	<stop  offset="0" style="stop-color:#A2DED7"/>
	<stop  offset="1" style="stop-color:#F1A3A7"/>
</linearGradient>
<path class="st5" d="M42,77.8c0.1-0.9-0.5-2.6-2.3-4.5c-1,0.2-4.7,3.3-5.7,5.5v11.6c0,0.6,0.2,1.1,0.6,1.5c0.4,0.5,1.6,1.8,1.3-0.9
	c-0.1-1.2-0.2-3-0.2-3c0.4,1.4,1.2,2.8,2.2,3.9c1,1,2.3,1.7,3.6,2.1c0.3-0.1,1.2,0.1,0-1.6l-0.2-13.8C41.2,78.8,40.9,77.2,42,77.8
	 M34.6,87.6v-7.8c0.6-2,0.9,0,0.9,0L34.6,87.6z M35.5,78.4c1.1-0.8,2.4-1.4,3.7-1.6c0.1,1.1,0,2.3-0.1,3.4c-0.8-0.4-1.7-0.1-2.1,0.7
	c-0.1,0.1-0.1,0.3-0.1,0.4c0,0-0.5-0.5-0.6-0.5C36.3,80,36,79.1,35.5,78.4 M38,89.7c-0.2,0.1-1,0.4-1.6-2.3
	c-0.2-0.9-0.6-2.3,0.6-5.7c0,0,1.8-0.5,0.6,0.4c-0.4,1.1-0.6,4.2,0,4.8c0.4,0.4,0.7,0.8,1.2,1.2c0-0.2,0-0.4,0-0.7
	c0.1-0.4,0-1.8,0.5,0.7c0.2,0.5,0.2,1,0.5,2.8C39.7,91.1,38.3,89.5,38,89.7"/>
<linearGradient id="SVGID_7_" gradientUnits="userSpaceOnUse" x1="29.9874" y1="95.8805" x2="29.9874" y2="29.8662">
	<stop  offset="0" style="stop-color:#A2DED7"/>
	<stop  offset="1" style="stop-color:#F1A3A7"/>
</linearGradient>
<path class="st6" d="M25.9,58.8c0.9,0.7,1.7,1.5,2.3,2.4c0.4,0.4,4.3,2.2,5.8-0.2c0.1-0.8,0.3-1.7-3.4-3c-1.1-0.5-2.3-0.5-3.4,0
	C25.5,58.8,25.9,58.8,25.9,58.8"/>
<linearGradient id="SVGID_8_" gradientUnits="userSpaceOnUse" x1="26.0971" y1="95.8805" x2="26.0971" y2="29.8662">
	<stop  offset="0" style="stop-color:#A2DED7"/>
	<stop  offset="1" style="stop-color:#F1A3A7"/>
</linearGradient>
<path class="st7" d="M17.6,69.9c0,0,0.1,1.7,2.1,1.2c2-1,12-7.4,12-7.4s0.7-1.1,1.9,0c0.9,0.5,1.5,1,2.1,1.1s2.2,0.1,2.2,0.1
	s1.2,0.4-3.8,3.1c-0.8,0.7-3.2,3.2-3.2,3.2L19.1,87.9c0,0-1.9,2.4-1.3,4.3c-0.6,0.9-1.5,3.4-2.7,2c-0.5-0.4-1.9-1.3,0-3.3
	c1.3-1.5,11-18.8,11-18.8s1.8-2.2-1.4-0.6c-1.4,1.2-3.1,2.1-4,1.9C19.7,73.6,16.4,73.9,17.6,69.9"/>
<linearGradient id="SVGID_9_" gradientUnits="userSpaceOnUse" x1="90.7974" y1="95.8805" x2="90.7974" y2="29.8662">
	<stop  offset="0" style="stop-color:#A2DED7"/>
	<stop  offset="1" style="stop-color:#F1A3A7"/>
</linearGradient>
<path class="st8" d="M87.8,76v2.2c0,0-0.9,2.3,1.2,2.4c0,0-0.4,6.3,2,2.8c0.2-0.2,0.7,2.3-1.2,3.9c0,0,6.6-4,3.2-5.2
	c0-0.1-1.6-1.3-1.6-1.3s1-2.6-1.3-1.8c-0.3-0.4-0.7-0.7-1.2-1L87.8,76z"/>
<linearGradient id="SVGID_10_" gradientUnits="userSpaceOnUse" x1="93.7601" y1="95.8805" x2="93.7601" y2="29.8662">
	<stop  offset="0" style="stop-color:#A2DED7"/>
	<stop  offset="1" style="stop-color:#F1A3A7"/>
</linearGradient>
<path class="st9" d="M101.9,86.2c-0.3-0.5-1.3-3.1-3.9-3.1c0-0.7-1.3-9.7,0.6-14.7c0.4-1.2-1.1-8.4-9.1,0.3
	c-0.8,0.3-1.6,0.4-2.4,0.5c0,0-1.5,0.3,2.2-5.9c-5.9,7.1-8.6,16.2-7.5,25.3c0.2,1.2,0.5,2.4,0.9,3.5c0.9,0.9,2.7,1.5,2.9,0.2
	c0,0,0.3-11.9,2.1-15c0.3-1.6,0.3-1.3,2.4-6.5c1-1,2.1-1.9,3.2-2.8c0,0,2-1.3,2.2,0.4c0.3,2.9-0.6,17,0,17.5c0,0.7,0.3,5.1,3.7,6
	c1.2,0,2.5-0.2,5.5-2.6c0,0.1,0.2-0.7,0.9-0.6C104.5,87.9,103.1,87.1,101.9,86.2 M86.2,76.8c-1.4,2.9-1.9,10.3-2.5,12.7
	c-1.5-11.9,2.3-18.8,2.3-18.8h1.4l0.3,0.1c0.4,0.3,0.5,0.7,0.3,1.1C87.4,73.8,86.2,76.8,86.2,76.8 M99.6,89.9c-2,0-1.8-5.7-1.8-5.7
	c1.4,0.9,2.5,2.2,3.1,3.7C102.1,89.5,100.3,89.8,99.6,89.9"/>
<linearGradient id="SVGID_11_" gradientUnits="userSpaceOnUse" x1="48.3891" y1="95.8805" x2="48.3891" y2="29.8662">
	<stop  offset="0" style="stop-color:#A2DED7"/>
	<stop  offset="1" style="stop-color:#F1A3A7"/>
</linearGradient>
<path class="st10" d="M47.3,64.9c0,0-3,6.2,0,6.5c0.1,0.1,0.7-0.3,0.5-1.7c0.2-0.2,1.3-0.1,1.3-0.1s-0.7,2.5,0.4,2.8
	c-0.1,0.1,0.6,0,0.4-0.9c-0.2-0.3-0.3-1.5,0.3-1.6c0,0,0.9,0,0.5-0.6c-0.8-0.2-3.1-0.4-3.1-0.4L47.3,64.9z"/>
<linearGradient id="SVGID_12_" gradientUnits="userSpaceOnUse" x1="53.7445" y1="95.8805" x2="53.7445" y2="29.8662">
	<stop  offset="0" style="stop-color:#A2DED7"/>
	<stop  offset="1" style="stop-color:#F1A3A7"/>
</linearGradient>
<path class="st11" d="M52,65.5c0,0,1.9-3.6,4.3-4.3c0.1,0,3.1,1.2,1.1,2.1c0.1,0-0.3,2.1-0.3,2.1l2.2,0.6c0,0-0.6,2.1-1.8,2
	c-0.1,0-0.5-2.1-0.8-0.4c0.1,0.2,1,1.6-1,1.6c0,0-2.6,2.3,0.3,2.6c0.5,0.3,0.8,0.9,0.8,1.6c0.2-0.1,0.4-0.3,0.5-0.4
	c0,0,2.9-3.1,4.9-2.2c0,0,2.5,0.8,1.2,4c-0.3-0.3-1.8-1.7-3-1.2c-0.1,0-3.7,1.2-3.7,1.2s-1.1,1.7,0.8,2.2c0,0,1.7,0.5,0.5,1.2
	l-2.2,1.8c0,0-0.7,1.2,0.9,1c0.7-0.2,5.6-0.7,2.1,0.8c-0.9,0.8-4.3,3.5-1.5,3.9c0.9,0.1,1.7,0.4,2.4,0.8c0,0,0.5,1-0.3,1.4
	s-2.5,0.4-2.8,1c-0.1,0-0.4,7.7-0.4,7.7s-0.3,0.7-0.7-0.8c0,0.1-0.8-6-0.8-6s-6,3.6-2.6-2c0,0.1,3.2-3,0.3-1.7
	c-0.1,0-2.2,1.4-1.4-1.9c0.1-0.1,4.6-3.4,1.1-2.4c-0.1,0.1-3,3-1.2-0.7c0,0.1,4.2-4.2,2.4-3.5c0,0-0.7-1.8-2.7,0.4
	c-1,0.9-2,1.8-3.1,2.6c0,0-1.9,1.3-2.8,1.1c-0.1-0.1-1.7-0.6-0.3-3c0.2,0.2,0,1,1.2,0.7c0.2,0,1.7,0.8,7.4-4.5c0,0,1.4-1.7,0.1-1.8
	c-0.8-0.6-1-1.6-0.5-2.4c0.1-0.1,2.8-2.8,2.8-2.8s-0.5-3.1,0.8-3.2c0,0,1.7-2-0.1-2c0.1-0.2-2.1-0.2-4,3"/>
</svg>
