<?xml version="1.0" encoding="utf-8"?>
<!-- Generator: Adobe Illustrator 23.0.4, SVG Export Plug-In . SVG Version: 6.00 Build 0)  -->
<svg version="1.1" id="圖層_1" xmlns="http://www.w3.org/2000/svg" xmlns:xlink="http://www.w3.org/1999/xlink" x="0px" y="0px"
	 viewBox="0 0 120 120" style="enable-background:new 0 0 120 120;" xml:space="preserve">
<style type="text/css">
	.st0{fill-rule:evenodd;clip-rule:evenodd;fill:url(#SVGID_1_);}
	.st1{fill-rule:evenodd;clip-rule:evenodd;fill:#FFFFFF;}
	.st2{fill-rule:evenodd;clip-rule:evenodd;fill:#72BEDF;}
	.st3{fill-rule:evenodd;clip-rule:evenodd;fill:url(#SVGID_2_);}
	.st4{fill-rule:evenodd;clip-rule:evenodd;fill:url(#SVGID_3_);}
	.st5{fill-rule:evenodd;clip-rule:evenodd;fill:url(#SVGID_4_);}
	.st6{fill-rule:evenodd;clip-rule:evenodd;fill:url(#SVGID_5_);}
	.st7{fill-rule:evenodd;clip-rule:evenodd;fill:url(#SVGID_6_);}
	.st8{fill-rule:evenodd;clip-rule:evenodd;fill:url(#SVGID_7_);}
	.st9{fill-rule:evenodd;clip-rule:evenodd;fill:url(#SVGID_8_);}
	.st10{fill-rule:evenodd;clip-rule:evenodd;fill:url(#SVGID_9_);}
	.st11{fill-rule:evenodd;clip-rule:evenodd;fill:url(#SVGID_10_);}
	.st12{fill-rule:evenodd;clip-rule:evenodd;fill:url(#SVGID_11_);}
	.st13{fill-rule:evenodd;clip-rule:evenodd;fill:url(#SVGID_12_);}
	.st14{fill-rule:evenodd;clip-rule:evenodd;fill:url(#SVGID_13_);}
	.st15{fill-rule:evenodd;clip-rule:evenodd;fill:url(#SVGID_14_);}
</style>
<linearGradient id="SVGID_1_" gradientUnits="userSpaceOnUse" x1="63.475" y1="105.7579" x2="63.475" y2="23.1455">
	<stop  offset="0" style="stop-color:#A2DED7"/>
	<stop  offset="1" style="stop-color:#F1A3A7"/>
</linearGradient>
<path class="st0" d="M69.8,22.2c9,0.8,17.5,4.2,24.5,9.9c8,6.3,13.4,14.5,15.3,24.7c0.9,5,0.8,10.2-0.3,15.2
	c-4.1,18.4-16.4,28.8-33.7,33c-18.7,4.6-35.4-0.1-48.7-14.5c-6.4-6.8-10-15.7-10.1-25.1c-0.1-3,0.9-6,0.8-9
	c2.6-12.6,9.9-21.8,20.9-28.2c4.6-2.8,9.8-4.7,15.2-5.4c1.1-0.3,2.3-0.5,3.5-0.6C61.3,21.9,65.5,21.9,69.8,22.2z"/>
<path class="st1" d="M53.7,86.2h22.9c0.6,0,0.8,0.1,1,0.8c0.5,1.9,1.4,2.8,2.9,2.8s2.4-0.8,3-2.7c0.2-0.6,0.4-0.9,1-0.9
	c4,0,8.1,0,12.1,0c0.8,0,0.9,0.3,0.8,1c-0.2,1.6-0.6,3.1-1.1,4.6c-0.4,1-1.1,1.7-2,2.2c-1.6,0.6-2.3,2.4-1.7,4
	c0.1,0.2,0.2,0.4,0.3,0.6c0.4,0.5,0.4,1.3-0.1,1.8c-1.4,2-3.2,3.6-5.3,4.7c-0.6,0.3-0.9,0.4-1.2-0.3c-0.9-2.3-2.4-3.7-4.9-3.5
	c-0.5,0-0.6-0.3-0.8-0.6c-1.6-2-3.5-2-5.1-0.1c-0.4,0.5-0.9,0.8-1.6,0.8c-2,0.2-3.4,2.1-3.2,4.1c0,0.2,0.1,0.4,0.1,0.5
	c0.2,0.8,0,1-0.8,1c-7.9,0-15.8,0-23.7-0.1c-2.8-0.1-5.5-1.1-7.8-2.7c-0.6-0.4-0.6-0.8-0.2-1.3c0.9-1.3,1-3.1,0.2-4.5
	c-0.9-1.7-3-2.4-4.7-1.6c-0.8,0.3-1.1,0.1-1.4-0.7c-1.1-3-1.9-6-2.3-9.2c-0.2-1,0.5-0.7,0.9-0.7C38.4,86.2,46,86.2,53.7,86.2
	L53.7,86.2z"/>
<path class="st1" d="M63.6,78.6h35.1c1,0,2.1-0.3,2.5,1.1c0.5,1.5,0.1,3.1-1.1,4.2c-1,0.8-2.2,1.2-3.5,1.2c-4.1,0-8.2,0-12.3,0.1
	c-0.6,0-1.2-0.3-1.6-0.8c-1-1.2-2.7-1.5-4-0.5c-0.2,0.2-0.4,0.3-0.5,0.5c-0.5,0.6-1.2,0.9-1.9,0.8h-45c-0.7,0-1.3-0.1-2-0.2
	c-2.9-0.8-3.7-2.1-3.3-5.2c0.1-0.7,0.4-1.1,1.1-1.1c0.5,0,1,0,1.5,0L63.6,78.6z"/>
<path class="st2" d="M35.2,103.7c-2.1,0.1-3.9-1.5-4.1-3.6s1.5-3.9,3.6-4.1s3.9,1.5,4.1,3.6c0,0.1,0,0.2,0,0.3
	C38.8,101.9,37.2,103.6,35.2,103.7z"/>
<linearGradient id="SVGID_2_" gradientUnits="userSpaceOnUse" x1="31.2003" y1="99.8263" x2="38.9004" y2="99.8263">
	<stop  offset="0" style="stop-color:#A2DED7"/>
	<stop  offset="1" style="stop-color:#F1A3A7"/>
</linearGradient>
<path class="st3" d="M35.3,103.7c-2.1,0.1-3.9-1.5-4.1-3.6s1.5-3.9,3.6-4.1s3.9,1.5,4.1,3.6c0,0.1,0,0.2,0,0.3
	C38.9,101.9,37.3,103.6,35.3,103.7z"/>
<linearGradient id="SVGID_3_" gradientUnits="userSpaceOnUse" x1="78.4198" y1="86.52" x2="82.5707" y2="86.52">
	<stop  offset="0" style="stop-color:#A2DED7"/>
	<stop  offset="1" style="stop-color:#F1A3A7"/>
</linearGradient>
<path class="st4" d="M78.4,86.5c-0.1-1.1,0.7-2.1,1.8-2.2c0.1,0,0.1,0,0.2,0c1.2,0,2.1,0.9,2.1,2.1c0,0,0,0,0,0
	c0,1.2-0.9,2.2-2.1,2.3C79.3,88.7,78.4,87.7,78.4,86.5z"/>
<g>
	<path class="st1" d="M91.2,67.6c-1.2-1.2-2.4-2.3-2.2-4.4c0.1-2.1-0.8-4.1-2.4-5.5c-3.7-3.8-9-5.5-14.2-4.5c-2,0.4-4,0-5.7-1.2
		c-0.5-0.3-1-0.5-1.5-0.7c1.2-0.5,2.5-0.8,3.8-0.8c6.9-0.6,13.7,1.4,19.1,5.7C92.1,59.2,93.2,63.2,91.2,67.6z"/>
	<path class="st1" d="M68.8,56.1c-2.4,0.1-4.6,1-7-0.2c-3.5-1.8-7.3-1.4-11.1-1c-2.6,0.3-5.1,1-7.4,2.2c-2.1,1-3.8,2.5-5,4.4
		c-0.1,0.2-0.2,0.4-0.4,0.5c-0.5,0.4-1.1,0.7-1.5,0.5s0-1,0.2-1.4c1.7-3.4,4.8-5.9,8.4-7c6.3-2.1,13.2-2.2,19.6-0.3
		C66.1,54.2,67.6,55,68.8,56.1z"/>
	<path class="st1" d="M84.1,75.3c-0.2-4.1-1-8-4-11.2c-2.5-2.7-5.7-3.6-9-4.1c-3-0.4-6-0.2-8.9,0.6c-4,1.2-6.5,4.3-8.2,8.1
		c-1.1,2.4-1.9,4.9-2.4,7.5c-0.1,0.4,0,1.1-0.7,1.1c-0.4,0-0.7,0.1-0.6-0.6c1.1-8,5.7-17.3,16.6-18.2c3.8-0.4,7.6,0.2,11,1.8
		c4,2,6,5.5,6.9,10c0.3,1.9,0.5,3.9,0.5,5.9c0,0.5,0.3,1.3-0.7,1.2s-0.5-0.8-0.6-1.2C84.1,75.9,84.1,75.6,84.1,75.3z"/>
	<path class="st1" d="M68.2,62.2c2.2-0.1,4.4,0.3,6.4,1.1c4.3,1.6,6.9,5.3,7.1,10.2c0,0.4,0,0.7,0,1.1c-0.1,0.4,0.6,1.2-0.1,1.3
		s-1.2-0.4-1.4-1.2c-0.1-0.4-0.1-0.8-0.1-1.2c-0.5-3.9-3.1-7.2-6.8-8.6c-2.8-1.3-6-1.6-9-0.8c-4.6,1.3-6.6,5-7.8,9.5
		c-0.2,0.9-0.4,1.8-0.5,2.7c0,0.8-0.7,1.4-1.5,1.4c-0.2,0-0.3,0-0.5-0.1c-0.4-0.1-0.3-0.4-0.3-0.6c1-4.2,2.1-8.4,5.3-11.5
		C61.6,62.6,64.9,62.2,68.2,62.2z"/>
	<path class="st1" d="M39.6,64.6c-0.4,0.9-0.8,1.8-1.1,2.6c-0.2,0.5-0.7,0.8-1.2,0.8c-1.4,0.2-2.8,0.5-4.2,0.8
		c-3.3,0.9-4.4,3.4-3.3,6.8c0.2,0.6,0.9,1.2,0,1.7c-1.1,0.5-2.3,0.1-3-0.9c-1.3-3.7-0.3-6.9,2.8-9.1C32.6,65.4,36.1,64.5,39.6,64.6z
		"/>
	<path class="st1" d="M51.4,65.8C50.9,68,50,69.2,48,69.7c-4,1-7.8,2.6-10.6,5.9c-1.1,1.5-3,2.2-4.8,1.7
		C37.1,70.1,43.9,67.5,51.4,65.8z"/>
	<path class="st1" d="M67.5,66c2.4-0.1,4.8,0.6,6.8,1.9c1.8,1.2,3,3.1,3.5,5.2c0.1,0.2,0.2,0.6,0.1,0.8c-0.2,0.3-0.5,0-0.8,0
		c-0.6-0.2-1-0.6-1.2-1.1c-1.2-3.2-3.8-4.4-6.7-4.7c-5.5-0.6-8.3,1.7-9.6,7.5c-0.1,0.3-0.2,0.6-0.3,0.9c-0.1,0.3-0.5,0.4-0.8,0.3
		c-0.4-0.1-0.2-0.4-0.2-0.7C58.2,70.5,62.3,65.9,67.5,66z"/>
	<path class="st1" d="M86.8,63.7c-4.8-3.1-9-7.3-15-7.5C76.2,53.6,87.1,57.6,86.8,63.7z"/>
	<path class="st1" d="M55.3,61c-0.9,1.5-2.5,2.5-4.3,2.6c-2.8,0.4-5.4,1.2-8,2.3c-0.5,0.2-0.9,0.5-1.4,0.4
		C42.1,62.9,50.6,59.2,55.3,61z"/>
	<path class="st1" d="M78.1,77.2c-3.1,0.4-6.3,0.2-9.4-0.4c-1.9-0.3-3.9-0.4-5.8-0.2c-0.5,0-1,0.2-1-0.7c0-0.7,0.2-1.1,0.9-1.1
		c5.1-0.1,10.1,0.1,15,2.2L78.1,77.2z"/>
	<path class="st1" d="M60.3,57.7c-1.6,1.5-3.2,1.1-4.8,0.9c-4.5-0.6-8.7-0.1-12.5,2.7c-1.2,0.8-1.4,0.9-2.4,0.8
		c0.5-1,1.3-1.8,2.3-2.3c2.1-1.3,4.5-2.1,7-2.4C53.4,56.7,56.9,56.8,60.3,57.7z"/>
	<path class="st1" d="M99.6,74.9c0,0.7-0.1,1.4-0.3,2c-0.3,0.8-1,0.5-1.6,0.5s-0.3-0.5-0.2-0.7c0.9-3.4-0.6-5.8-3.2-7.4
		c-0.9-0.6-0.9-1.2-0.5-2.1c0.2-0.4,0.4-0.5,0.7-0.3C97.3,68.8,99.4,71.2,99.6,74.9z"/>
	<path class="st1" d="M38.7,77.4c1.7-1.9,3.7-3.3,6.1-4.2c1.1-0.5,2.2-0.9,3.4-1.3c0.7-0.3,1,0,0.8,0.8c-0.1,1-0.8,1.8-1.8,2.2
		c-1.8,0.6-3.6,1.4-5.2,2.4C41.2,77.7,40,77.3,38.7,77.4z"/>
	<path class="st1" d="M87.5,72.2c1.7,1.5,3.3,3.1,4.7,4.9C88.7,78.2,87.2,76.7,87.5,72.2z"/>
	<path class="st1" d="M85.9,65.8c2.5,1.5,4.4,3.8,5.4,6.6C89.2,70.5,86.4,69.3,85.9,65.8z"/>
	<path class="st1" d="M65.7,72.3c-0.4,0-0.9,0-1.3,0s-0.8,0.2-0.9-0.3s0.4-0.5,0.6-0.8c0.5-0.5,1.1-0.8,1.8-1c0.9-0.2,1.7,0.3,2,1.2
		c0,0.1,0,0.2,0,0.4c0,0.5-0.3,0.5-0.6,0.5C66.8,72.3,66.2,72.3,65.7,72.3z"/>
	<path class="st1" d="M94.8,76.9l-1.1-5.1C95.5,73,95.9,74.6,94.8,76.9z"/>
	<path class="st1" d="M73.6,72.5c-2,0.7-2.7,0.3-3.4-1.3c-0.1-0.2-0.4-0.4-0.1-0.7s0.4,0,0.6,0.1L73.6,72.5z"/>
	<path class="st1" d="M35.2,70.8L31.9,74C31.1,72.3,32.2,71.1,35.2,70.8z"/>
</g>
<linearGradient id="SVGID_4_" gradientUnits="userSpaceOnUse" x1="9.927" y1="33.4965" x2="19.99" y2="33.4965">
	<stop  offset="0" style="stop-color:#A2DED7"/>
	<stop  offset="1" style="stop-color:#F1A3A7"/>
</linearGradient>
<path class="st5" d="M15.3,38.3h-0.5c-2.6-0.4-4.3-1.8-4.8-4c-0.4-2,0.5-4,2.3-5c1.8-1.1,4.1-0.9,5.7,0.5c0.4,0.4,0.9,0.8,1.4,1.2
	c0,0.3,0,0.7,0.5,0.8c0,0.4-0.4,0.5-0.7,0.7c-1.9,1-3.2,2.8-3.6,4.9C15.7,37.7,15.6,38.1,15.3,38.3z"/>
<path class="st1" d="M11.9,34.5c-0.5-1.4,0.2-2.9,1.5-3.6c0.5-0.4,1.2-0.6,1.8-0.6c0.2,0,0.5,0.1,0.6,0.3S15.6,31,15.4,31
	c-0.9,0.2-1.7,0.6-2.3,1.2C12.5,32.9,12.5,33.8,11.9,34.5z"/>
<linearGradient id="SVGID_5_" gradientUnits="userSpaceOnUse" x1="16.3017" y1="38.7794" x2="29.0018" y2="38.7794">
	<stop  offset="0" style="stop-color:#A2DED7"/>
	<stop  offset="1" style="stop-color:#F1A3A7"/>
</linearGradient>
<path class="st6" d="M22.7,32.4c3.4,0,6.2,2.8,6.3,6.2c0.1,3.5-2.7,6.4-6.2,6.5s-6.4-2.7-6.5-6.2c-0.1-3.5,2.7-6.4,6.2-6.5
	C22.6,32.4,22.7,32.4,22.7,32.4z"/>
<linearGradient id="SVGID_6_" gradientUnits="userSpaceOnUse" x1="16.4358" y1="24.0276" x2="19.1519" y2="24.0276">
	<stop  offset="0" style="stop-color:#A2DED7"/>
	<stop  offset="1" style="stop-color:#F1A3A7"/>
</linearGradient>
<path class="st7" d="M17.9,25.4c-0.9-0.1-1.4-0.5-1.4-1.4c-0.1-0.7,0.4-1.3,1.1-1.3c0,0,0.1,0,0.1,0c0.7-0.1,1.3,0.4,1.4,1.1
	c0,0.1,0,0.2,0,0.2C19.2,24.7,18.6,25.3,17.9,25.4C17.9,25.4,17.9,25.4,17.9,25.4z"/>
<linearGradient id="SVGID_7_" gradientUnits="userSpaceOnUse" x1="16.4479" y1="47.9842" x2="19.1473" y2="47.9842">
	<stop  offset="0" style="stop-color:#A2DED7"/>
	<stop  offset="1" style="stop-color:#F1A3A7"/>
</linearGradient>
<path class="st8" d="M19.1,47.5c0.1,1.3-0.5,1.7-1.3,1.8c-0.7,0.1-1.3-0.4-1.4-1.1c0-0.1,0-0.1,0-0.2c0-0.7,0.5-1.3,1.2-1.3
	c0,0,0.1,0,0.1,0C18.6,46.6,19.1,47,19.1,47.5z"/>
<path class="st1" d="M17.8,38.8c-0.3-2.1,1.9-5.1,4-5.4c0.3,0,0.7,0,0.8,0.3s-0.2,0.4-0.5,0.5c-2.1,0.5-3.5,2.5-3.5,4.6
	c0,0.3,0,0.6-0.4,0.7C18.1,39.6,17.9,39.2,17.8,38.8z"/>
<linearGradient id="SVGID_8_" gradientUnits="userSpaceOnUse" x1="4.9769" y1="27.3022" x2="9.9285" y2="27.3022">
	<stop  offset="0" style="stop-color:#A2DED7"/>
	<stop  offset="1" style="stop-color:#F1A3A7"/>
</linearGradient>
<path class="st9" d="M7.4,29.9C6.2,30,5.1,29,5,27.8c0-0.1,0-0.3,0-0.4c-0.2-1.2,0.7-2.4,1.9-2.6c0.1,0,0.2,0,0.3,0
	c1.3-0.2,2.5,0.7,2.7,2c0,0.1,0,0.3,0,0.4c0.2,1.3-0.8,2.5-2.1,2.6C7.7,29.9,7.6,29.9,7.4,29.9z"/>
<linearGradient id="SVGID_9_" gradientUnits="userSpaceOnUse" x1="82.3525" y1="103.3107" x2="87.6131" y2="103.3107">
	<stop  offset="0" style="stop-color:#A2DED7"/>
	<stop  offset="1" style="stop-color:#F1A3A7"/>
</linearGradient>
<path class="st10" d="M84.9,106c-1.5-0.1-2.6-1.4-2.5-2.9c0.1-1.3,1.1-2.3,2.3-2.5c1.5-0.1,2.8,1,2.9,2.5c0.1,1.5-1,2.8-2.5,2.9
	C85.1,106,85,106,84.9,106z"/>
<g>
	<path class="st1" d="M61.4,44.1c-0.6,0.3-0.7,0.2-0.7-0.5c0.1-1.3,1.1-2.4,2.3-2.6c1.6-0.3,3,0.8,3.3,2.4c0.1,0.8-0.1,1.6-0.6,2.2
		c-0.2,0.3-0.7,0.6-0.1,0.9s0.6-0.2,0.8-0.5c0.5-0.8,1-1.7,1.5-2.6c0.3-0.5,0.6-0.8,1,0c0.8,1.7,1.1,3.5,0.9,5.4
		c-0.1,0.8-0.7,1.5-1.4,1.8c-2.2,1.3-4.8,1.3-7,0c-0.7-0.4-1.1-1.1-1.2-1.8c-0.1-1,0.3-1.4,1.2-1.4c0.5,0,1,0,1.5,0
		c0.7,0,1.2-0.5,1.4-1.1c0.2-0.6-0.4-0.9-0.7-1.2C63.1,44.5,62.5,43.9,61.4,44.1c0-0.3,0.4-0.5,0.3-0.9
		C61.2,43.4,61.4,43.7,61.4,44.1z"/>
	<path class="st1" d="M64.1,46c-0.8,0.5-1.8,0.7-2.8,0.6c-0.7,0-1.4-0.3-1.9-0.8c-0.2-0.2,0.2-0.4,0.4-0.6c0.6-0.6,1.5-0.9,2.3-0.6
		C62.9,44.9,63.6,45.4,64.1,46z"/>
	<linearGradient id="SVGID_10_" gradientUnits="userSpaceOnUse" x1="64.3777" y1="42.7038" x2="64.3777" y2="44.0357">
		<stop  offset="0" style="stop-color:#A2DED7"/>
		<stop  offset="1" style="stop-color:#F1A3A7"/>
	</linearGradient>
	<path class="st11" d="M64.9,43.7c-0.2,0.3-0.4,0.6-0.8,0.6s-0.4-0.3-0.3-0.6s0.3-0.6,0.6-0.5S64.9,43.4,64.9,43.7z"/>
	<linearGradient id="SVGID_11_" gradientUnits="userSpaceOnUse" x1="61.7077" y1="42.7038" x2="61.7077" y2="44.0357">
		<stop  offset="0" style="stop-color:#A2DED7"/>
		<stop  offset="1" style="stop-color:#F1A3A7"/>
	</linearGradient>
	<path class="st12" d="M62.3,43.3c-0.2,0.3-0.4,0.6-0.8,0.6s-0.4-0.4-0.3-0.6s0.3-0.6,0.6-0.5S62.2,43,62.3,43.3z"/>
</g>
<linearGradient id="SVGID_12_" gradientUnits="userSpaceOnUse" x1="88.9249" y1="95.1163" x2="98.457" y2="95.1163">
	<stop  offset="0" style="stop-color:#A2DED7"/>
	<stop  offset="1" style="stop-color:#F1A3A7"/>
</linearGradient>
<path class="st13" d="M89.7,97.8c-1.4-2.2-0.9-5.1,1.3-6.5c2.2-1.5,5.2-1,6.7,1.2c0,0,0,0,0,0c1.4,2.2,0.7,5-1.4,6.5
	C94.2,100.4,91.2,99.9,89.7,97.8z"/>
<path class="st1" d="M90.6,96.5c-0.8-1.3,0.2-3.9,1.7-4.8c0.2-0.1,0.5-0.2,0.7-0.1s-0.1,0.4-0.2,0.5c-1.4,0.9-2,2.6-1.5,4.1
	c0.1,0.2,0.2,0.4-0.1,0.6S90.8,96.7,90.6,96.5z"/>
<linearGradient id="SVGID_13_" gradientUnits="userSpaceOnUse" x1="66.5251" y1="100.1618" x2="83.4988" y2="100.1618">
	<stop  offset="0" style="stop-color:#A2DED7"/>
	<stop  offset="1" style="stop-color:#F1A3A7"/>
</linearGradient>
<path class="st14" d="M67.4,103.6c-2-3.8-0.5-8.5,3.3-10.5c0.1-0.1,0.3-0.1,0.4-0.2c4.3-1.9,9.4-0.2,11.6,4
	c1.9,3.9,0.3,8.5-3.6,10.4c-0.1,0.1-0.3,0.1-0.4,0.2C74.5,109.3,69.6,107.6,67.4,103.6z"/>
<path class="st1" d="M68.3,102.3c-1.2-2.6,1-7.1,4-8.2c0.4-0.2,1-0.2,1.2,0.1S73.3,94.9,73,95c-3.1,1.6-4,4-3.5,7
	c0.1,0.4,0.2,0.8-0.3,1C68.9,103.2,68.5,102.8,68.3,102.3z"/>
<linearGradient id="SVGID_14_" gradientUnits="userSpaceOnUse" x1="65.2157" y1="51.4985" x2="67.9425" y2="51.4985">
	<stop  offset="0" style="stop-color:#A2DED7"/>
	<stop  offset="1" style="stop-color:#F1A3A7"/>
</linearGradient>
<path class="st15" d="M66.6,52.8c-0.9-0.1-1.4-0.5-1.4-1.3c-0.1-0.7,0.4-1.3,1.1-1.3c0.1,0,0.1,0,0.2,0c0.7-0.1,1.3,0.4,1.4,1.1
	c0,0.1,0,0.1,0,0.2C68,52.2,67.4,52.8,66.6,52.8C66.7,52.8,66.7,52.8,66.6,52.8z"/>
</svg>
