<?xml version="1.0" encoding="utf-8"?>
<!-- Generator: Adobe Illustrator 23.0.4, SVG Export Plug-In . SVG Version: 6.00 Build 0)  -->
<svg version="1.1" id="圖層_1" xmlns="http://www.w3.org/2000/svg" xmlns:xlink="http://www.w3.org/1999/xlink" x="0px" y="0px"
	 viewBox="0 0 120 120" style="enable-background:new 0 0 120 120;" xml:space="preserve">
<style type="text/css">
	.st0{opacity:0.3;fill:url(#SVGID_1_);}
	.st1{opacity:0.3;fill:url(#SVGID_2_);}
	.st2{opacity:0.3;fill:url(#SVGID_3_);}
	.st3{fill:url(#SVGID_4_);}
	.st4{fill:url(#SVGID_5_);}
	.st5{fill:url(#SVGID_6_);}
	.st6{fill:url(#SVGID_7_);}
	.st7{fill:url(#SVGID_8_);}
	.st8{fill:url(#SVGID_9_);}
	.st9{fill:url(#SVGID_10_);}
</style>
<linearGradient id="SVGID_1_" gradientUnits="userSpaceOnUse" x1="17.4" y1="87.625" x2="102.68" y2="87.625">
	<stop  offset="0" style="stop-color:#A2DED7"/>
	<stop  offset="1" style="stop-color:#F1A3A7"/>
</linearGradient>
<path class="st0" d="M87.4,74.3H32.7c-2.4,0-4.8-0.8-6.7-2.2l-8.6-6.5v36.6c0,4.2,3.4,7.6,7.6,7.6h70.1c4.2,0,7.6-3.4,7.6-7.6l0,0
	V65.5L94.1,72C92.1,73.5,89.8,74.3,87.4,74.3"/>
<linearGradient id="SVGID_2_" gradientUnits="userSpaceOnUse" x1="91.6525" y1="36.705" x2="23.2644" y2="36.705">
	<stop  offset="0" style="stop-color:#A2DED7"/>
	<stop  offset="1" style="stop-color:#F1A3A7"/>
</linearGradient>
<path class="st1" d="M58.6,11L58.6,11L21.7,29.1c-2.6,1.3-4.3,3.9-4.3,6.9v26.4C41.4,55.8,57,35.5,58.6,11"/>
<linearGradient id="SVGID_3_" gradientUnits="userSpaceOnUse" x1="91.6525" y1="36.705" x2="23.2644" y2="36.705">
	<stop  offset="0" style="stop-color:#A2DED7"/>
	<stop  offset="1" style="stop-color:#F1A3A7"/>
</linearGradient>
<path class="st2" d="M61.5,11L61.5,11l36.9,18.1c2.6,1.3,4.3,3.9,4.3,6.9v26.4C78.7,55.8,63.1,35.5,61.5,11"/>
<linearGradient id="SVGID_4_" gradientUnits="userSpaceOnUse" x1="59.985" y1="113.0079" x2="59.985" y2="14.5931">
	<stop  offset="0" style="stop-color:#A2DED7"/>
	<stop  offset="1" style="stop-color:#F1A3A7"/>
</linearGradient>
<path class="st3" d="M99.6,26.9L62.7,8.8C61,8,59,8,57.4,8.8L20.4,26.9c-3.5,1.7-5.8,5.3-5.7,9.2v65.4c0,5.7,4.6,10.3,10.3,10.3h70
	c5.7,0,10.3-4.6,10.3-10.3V36.1C105.3,32.2,103.1,28.6,99.6,26.9 M98.4,29.3c2.6,1.3,4.3,3.9,4.2,6.8v19l-7.7-22.5
	c-0.2-0.7-0.9-1.1-1.6-0.9c-0.7,0.2-1.1,0.9-0.9,1.6c0,0,0,0.1,0,0.1l9.5,27.6C79,54.4,63,34.7,61.5,11.2l0,0L98.4,29.3z M101,63.6
	l-8.6,6.5c-1.4,1.1-3.2,1.7-5,1.7H32.6c-1.8,0-3.6-0.6-5-1.7L19,63.6C40.7,57.3,55.7,41.1,60,20c2,9.1,6.2,17.6,12.2,24.7
	C79.7,53.7,89.7,60.3,101,63.6 M21.6,29.3l36.9-18.1l0,0C57,35.4,41.7,54.3,18.1,61.1l9.5-27.6c0.2-0.7-0.2-1.4-0.9-1.6
	c-0.7-0.2-1.3,0.1-1.6,0.8l-7.7,22.4v-19C17.3,33.2,19,30.5,21.6,29.3 M95,109.2H25c-4.2,0-7.6-3.4-7.6-7.6l0,0v-2.9h7.2
	c0.7,0,1.3-0.6,1.3-1.3S25.4,96,24.6,96h-7.3v-2.7h7.2c0.7,0,1.3-0.6,1.3-1.3s-0.6-1.3-1.3-1.3h-7.2V65.7l8.6,6.5
	c1.9,1.4,4.2,2.2,6.6,2.2h54.7c2.4,0,4.7-0.8,6.6-2.2l8.6-6.5v24.9h-7.1c-0.7,0-1.3,0.6-1.3,1.3s0.6,1.3,1.3,1.3h7.1V96h-7.1
	c-0.7,0-1.3,0.6-1.3,1.3s0.6,1.3,1.3,1.3h7.1v2.9C102.6,105.8,99.2,109.2,95,109.2C95,109.2,95,109.2,95,109.2"/>
<linearGradient id="SVGID_5_" gradientUnits="userSpaceOnUse" x1="40.2" y1="113.0079" x2="40.2" y2="14.5931">
	<stop  offset="0" style="stop-color:#A2DED7"/>
	<stop  offset="1" style="stop-color:#F1A3A7"/>
</linearGradient>
<path class="st4" d="M40.2,38.8c1.6,0,2.9-1.3,2.9-2.9S41.8,33,40.2,33s-2.9,1.3-2.9,2.9S38.6,38.8,40.2,38.8L40.2,38.8"/>
<linearGradient id="SVGID_6_" gradientUnits="userSpaceOnUse" x1="79.1597" y1="113.0079" x2="79.1597" y2="14.5931">
	<stop  offset="0" style="stop-color:#A2DED7"/>
	<stop  offset="1" style="stop-color:#F1A3A7"/>
</linearGradient>
<path class="st5" d="M79.2,37.9c1.6,0,2.9-1.3,2.9-2.9S80.8,32,79.2,32c-1.6,0-2.9,1.3-2.9,2.9c0,0,0,0,0,0
	C76.2,36.6,77.5,37.9,79.2,37.9L79.2,37.9"/>
<linearGradient id="SVGID_7_" gradientUnits="userSpaceOnUse" x1="40.2" y1="113.0079" x2="40.2" y2="14.5931">
	<stop  offset="0" style="stop-color:#A2DED7"/>
	<stop  offset="1" style="stop-color:#F1A3A7"/>
</linearGradient>
<path class="st6" d="M40.2,85.1c-1.9,0-3.4,1.5-3.4,3.4c0,1.9,1.5,3.4,3.4,3.4c1.9,0,3.4-1.5,3.4-3.4l0,0
	C43.6,86.6,42.1,85.1,40.2,85.1"/>
<linearGradient id="SVGID_8_" gradientUnits="userSpaceOnUse" x1="79.16" y1="113.0079" x2="79.16" y2="14.5931">
	<stop  offset="0" style="stop-color:#A2DED7"/>
	<stop  offset="1" style="stop-color:#F1A3A7"/>
</linearGradient>
<path class="st7" d="M79.2,85.1c-1.9,0-3.4,1.5-3.4,3.4c0,1.9,1.5,3.4,3.4,3.4c1.9,0,3.4-1.5,3.4-3.4c0,0,0,0,0,0
	C82.6,86.6,81,85.1,79.2,85.1"/>
<linearGradient id="SVGID_9_" gradientUnits="userSpaceOnUse" x1="60.0003" y1="113.0079" x2="60.0003" y2="14.5931">
	<stop  offset="0" style="stop-color:#A2DED7"/>
	<stop  offset="1" style="stop-color:#F1A3A7"/>
</linearGradient>
<path class="st8" d="M67.6,97.1c-1.7,0-3.4-0.6-4.8-1.7c-0.9-0.9-1.4-2-1.4-3.3l2.3-2.9c0.5-0.6,0.4-1.4-0.2-1.8
	c-0.2-0.2-0.5-0.3-0.8-0.3h-5.4c-0.7,0-1.3,0.6-1.3,1.3c0,0.3,0.1,0.6,0.3,0.8l2.3,2.8c-0.1,1.3-0.6,2.5-1.5,3.4
	c-1.3,1.1-3,1.7-4.8,1.7l0,0c-0.7,0-1.3,0.6-1.4,1.3c0,0.7,0.6,1.3,1.3,1.4h0.2c2.4,0,4.7-0.9,6.5-2.4c0.4-0.4,0.7-0.7,1-1.2
	c0.3,0.4,0.6,0.8,1,1.2c1.8,1.6,4.2,2.4,6.6,2.4h0.1c0.7,0,1.3-0.6,1.3-1.4S68.4,97,67.6,97.1"/>
<linearGradient id="SVGID_10_" gradientUnits="userSpaceOnUse" x1="59.9404" y1="113.0079" x2="59.9404" y2="14.5931">
	<stop  offset="0" style="stop-color:#A2DED7"/>
	<stop  offset="1" style="stop-color:#F1A3A7"/>
</linearGradient>
<path class="st9" d="M67.9,46.2c-0.7-0.3-1.5,0-1.7,0.7c-0.9,2-2.7,3.5-4.9,4v-9.6l3-3.7c0.5-0.6,0.4-1.4-0.2-1.8
	c-0.2-0.2-0.5-0.3-0.8-0.3h-6.7c-0.7,0-1.3,0.6-1.3,1.3c0,0.3,0.1,0.6,0.3,0.8l3,3.7V51c-2.2-0.4-4-1.8-5-3.8
	c-0.3-0.6-1.2-0.9-1.8-0.5c-0.6,0.3-0.9,1.1-0.6,1.7c1.6,3.3,4.9,5.4,8.6,5.5H60c3.8,0,7.2-2.3,8.7-5.8
	C68.9,47.3,68.6,46.5,67.9,46.2"/>
</svg>
