<?xml version="1.0" encoding="utf-8"?>
<!-- Generator: Adobe Illustrator 23.0.4, SVG Export Plug-In . SVG Version: 6.00 Build 0)  -->
<svg version="1.1" id="圖層_1" xmlns="http://www.w3.org/2000/svg" xmlns:xlink="http://www.w3.org/1999/xlink" x="0px" y="0px"
	 viewBox="0 0 120 120" style="enable-background:new 0 0 120 120;" xml:space="preserve">
<style type="text/css">
	.st0{fill:#FFFFFF;}
	.st1{fill:url(#SVGID_1_);}
	.st2{fill:url(#SVGID_2_);}
	.st3{fill:url(#SVGID_3_);}
	.st4{fill:url(#SVGID_4_);}
	.st5{fill:url(#SVGID_5_);}
	.st6{fill:url(#SVGID_6_);}
	.st7{fill:url(#SVGID_7_);}
	.st8{fill:url(#SVGID_8_);}
	.st9{fill:url(#SVGID_9_);}
	.st10{fill:url(#SVGID_10_);}
	.st11{fill:url(#SVGID_11_);}
	.st12{fill:url(#SVGID_12_);}
	.st13{fill:url(#SVGID_13_);}
	.st14{fill:url(#SVGID_14_);}
	.st15{fill:url(#SVGID_15_);}
	.st16{fill:url(#SVGID_16_);}
	.st17{fill:url(#SVGID_17_);}
	.st18{fill:url(#SVGID_18_);}
	.st19{fill:url(#SVGID_19_);}
	.st20{fill:url(#SVGID_20_);}
	.st21{fill:url(#SVGID_21_);}
</style>
<path class="st0" d="M65.8,54.7c-3.7,7.6-5.6,7.4-6.9,12.2c-1.6,5.6-0.9,12.9,2.4,16.3c3.1,3.3,5.8-0.1,11.8,3.1
	c4.7,2.5,4.5,5.3,8,5.5c5.3,0.3,10.6-6.2,11-6.8c4.2-5.4,3.6-9.8,7.5-12.6c3-2.2,4.3-0.4,6.4-2.2c4.6-3.9,6.2-19.6,1.2-29
	C100.5,28.8,85.2,33,83,33.7c-3.1,0.9-8.1,2.4-11.7,7.7C68.6,45.3,69.3,47.5,65.8,54.7z"/>
<linearGradient id="SVGID_1_" gradientUnits="userSpaceOnUse" x1="84.1591" y1="21.1671" x2="84.1591" y2="90.2892">
	<stop  offset="0" style="stop-color:#A2DED7"/>
	<stop  offset="1" style="stop-color:#F1A3A7"/>
</linearGradient>
<path class="st1" d="M81.4,93.4c-0.2,0-0.3,0-0.5,0c-2.5-0.1-3.6-1.4-4.8-2.6c-0.9-1-1.9-2-3.8-3.1c-2.7-1.4-4.5-1.4-6.2-1.4
	c-1.9,0-3.9,0.1-5.9-2c-3.9-4-4.3-12.2-2.7-17.8c0.8-2.7,1.7-4.1,2.9-5.7c1.1-1.4,2.4-3.2,4.1-6.8l0,0c1.7-3.4,2.3-5.6,2.9-7.5
	c0.6-2,1.2-3.8,2.7-6c3.9-5.7,9.3-7.3,12.5-8.3c3.1-0.9,18.8-4.9,25.9,8.4c5.4,10.1,3.7,26.5-1.6,30.9c-1.4,1.2-2.6,1.2-3.6,1.3
	c-0.9,0-1.7,0.1-2.9,1c-1.8,1.3-2.4,3-3.4,5.2c-0.9,2.1-1.8,4.5-3.9,7.1l-0.1,0.1C91.3,88.4,86.5,93.4,81.4,93.4z M66.8,83.3
	c1.8,0,4,0.2,6.9,1.7c2.4,1.3,3.7,2.7,4.6,3.7c1,1.1,1.5,1.6,2.8,1.7c4.1,0.2,8.4-4.6,9.7-6.1l0.1-0.1c1.8-2.3,2.6-4.3,3.4-6.3
	c1-2.4,1.9-4.7,4.4-6.5c1.9-1.4,3.4-1.5,4.5-1.6c0.8,0,1.2-0.1,1.8-0.6c1.9-1.6,3.4-6.1,3.7-11.4c0.4-5.9-0.7-11.7-2.8-15.8
	c-6-11.2-19.7-7.7-22.4-6.9c-3,0.9-7.6,2.3-10.9,7.1c-1.2,1.8-1.7,3.2-2.3,5.2c-0.6,1.9-1.3,4.3-3.1,7.9l0,0
	c-1.8,3.8-3.2,5.7-4.4,7.2c-1.2,1.6-1.9,2.5-2.5,4.7c-1.6,5.6-0.7,12.1,2,14.9c1.1,1.2,2,1.2,3.7,1.1C66.3,83.3,66.5,83.3,66.8,83.3
	z"/>
<path class="st0" d="M37.2,41.8c-7.4-1.3-7.8-3.1-12.1-3c-5.1,0.2-11.1,3-13.1,7.2c-1.9,4,1.6,5.5,0.5,12.2
	c-0.9,5.2-3.3,5.9-2.5,9.3c1.2,5.2,8,8.2,8.6,8.4c5.6,2.4,9.2,0.5,12.6,3.4c2.6,2.2,1.5,4,3.5,5.5c4.5,3.2,18.1,0.1,24.7-7.6
	c8.8-10.1,1.2-23.3,0-25.3c-1.6-2.7-4.2-7-9.6-8.9C45.8,41.7,44.2,43,37.2,41.8z"/>
<linearGradient id="SVGID_2_" gradientUnits="userSpaceOnUse" x1="36.6645" y1="21.1671" x2="36.6645" y2="90.2892">
	<stop  offset="0" style="stop-color:#A2DED7"/>
	<stop  offset="1" style="stop-color:#F1A3A7"/>
</linearGradient>
<path class="st2" d="M39.9,87.5c-2.5,0-4.6-0.5-6.1-1.5c-1.4-1-1.7-2.1-2-3.1c-0.3-0.9-0.5-1.6-1.6-2.4c-1.5-1.2-3-1.4-5.2-1.6
	c-1.9-0.2-4.3-0.4-7.1-1.6c0,0-8.1-3.2-9.5-9.5c-0.5-2.3,0.2-3.7,0.9-5.2c0.6-1.1,1.2-2.4,1.6-4.6c0.5-3,0-4.8-0.5-6.4
	c-0.5-1.8-1.1-3.7,0.1-6.2c2.4-4.9,9.2-7.8,14.4-8c2.6-0.1,4,0.4,5.7,1.1c1.5,0.6,3.3,1.3,6.7,1.9c3.2,0.5,5.2,0.5,6.9,0.5
	c1.9,0,3.6,0,5.9,0.8c5.9,2,8.7,6.7,10.4,9.5c1.6,2.7,9.1,16.4-0.1,27.1C55.4,84.2,46.4,87.5,39.9,87.5z M25.6,40.4
	c-0.2,0-0.3,0-0.5,0c-5,0.2-10.2,3-11.8,6.3c-0.7,1.5-0.4,2.4,0,4c0.5,1.8,1.2,4.1,0.6,7.8c-0.4,2.6-1.3,4.3-1.9,5.5
	c-0.6,1.3-1,1.9-0.7,3.2c1,4.6,7.6,7.3,7.7,7.4c2.4,1,4.3,1.2,6.2,1.4c2.4,0.2,4.6,0.4,6.8,2.2c1.7,1.4,2.2,2.8,2.5,3.8
	c0.3,0.8,0.4,1.2,0.9,1.6c3.6,2.6,16.5-0.1,22.7-7.3c7.9-9.1,1.3-21.2-0.2-23.5c-1.6-2.6-3.9-6.5-8.8-8.2c-1.8-0.6-3.1-0.6-4.9-0.6
	c-1.8,0-4,0-7.5-0.6l0,0c-3.7-0.6-5.7-1.4-7.3-2C28.2,40.7,27.3,40.4,25.6,40.4z"/>
<linearGradient id="SVGID_3_" gradientUnits="userSpaceOnUse" x1="26.5941" y1="65.3127" x2="96.056" y2="65.3127">
	<stop  offset="0" style="stop-color:#A2DED7"/>
	<stop  offset="1" style="stop-color:#F1A3A7"/>
</linearGradient>
<path class="st3" d="M84.9,55c2.5,2.3,3.4,7.6,1.8,10.4s-4.4,1.4-8.2,5c-2.2,2.2-1.8,3.2-3.8,4.8c-3.8,3-8.5,1.6-8.8,1.4
	c-2.7-0.8-7-3.5-7.2-7.2s3.6-6.3,7.6-9.1S80.1,50.6,84.9,55z"/>
<path class="st0" d="M69.1,77.6c-1.7,0-3-0.4-3.3-0.5c-2.9-0.9-7.3-3.7-7.5-7.7c-0.2-4,3.6-6.6,7.6-9.4l0.2-0.2
	c4.2-3,14-9.9,19.2-5.2l0,0c2.7,2.5,3.7,8,1.9,11c-0.9,1.5-2.1,1.9-3.5,2.4c-1.4,0.5-2.9,1-4.7,2.7c-1,1-1.4,1.7-1.8,2.5
	c-0.4,0.8-0.9,1.5-2,2.4C73.1,77.2,70.8,77.6,69.1,77.6z M80.9,54.1c-4.9,0-11.4,4.6-14.2,6.6l-0.2,0.2c-3.8,2.6-7.3,5.1-7.1,8.6
	c0.1,3.4,4.2,5.9,6.8,6.8c0.5,0.2,4.8,1.4,8.4-1.4c1-0.8,1.3-1.3,1.7-2.1c0.4-0.7,0.9-1.6,2-2.7c2-1.9,3.7-2.5,5.1-3
	c1.3-0.4,2.2-0.7,2.9-1.9c1.5-2.6,0.6-7.6-1.7-9.8l0,0C83.5,54.4,82.3,54.1,80.9,54.1z"/>
<linearGradient id="SVGID_4_" gradientUnits="userSpaceOnUse" x1="26.5941" y1="45.4235" x2="96.056" y2="45.4235">
	<stop  offset="0" style="stop-color:#A2DED7"/>
	<stop  offset="1" style="stop-color:#F1A3A7"/>
</linearGradient>
<path class="st4" d="M69,29.5c4.2-3.6,13.6-2.3,17.7,2c2.6,2.7,4,7.5,4.4,8.8c0.8,2.7,0.7,3.6,1.7,5.5c2.1,3.6,4.5,3.4,5.1,5.7
	c1,3.7-4.4,7.8-5.9,8.9c-1.9,1.4-4.3,3.2-7.5,3c-0.6,0-2.6-0.3-5.8-2.7c-3.2-2.5-5.7-5.7-7.3-9.4C68.4,44.3,63.9,34,69,29.5z"/>
<path class="st0" d="M85.1,63.9c-0.2,0-0.4,0-0.5,0c0,0,0,0,0,0c-0.4,0-2.6-0.1-6.1-2.8c-3.2-2.5-5.8-5.9-7.4-9.6
	c-3.1-7.1-7.8-17.7-2.4-22.4l0,0c4.6-4,14.3-2.3,18.4,2c2.4,2.5,3.8,6.8,4.4,8.6l0.1,0.4c0.3,1,0.5,1.8,0.6,2.4
	c0.2,1.1,0.4,1.8,1.1,3c1,1.8,2.1,2.6,3.1,3.3c1,0.7,1.8,1.3,2.1,2.6c0.7,2.7-1.3,5.8-6,9.4C90.7,62.1,88.3,63.9,85.1,63.9z
	 M69.3,29.9C64.5,34.1,69,44.3,72,51.1c1.6,3.7,4,6.9,7.1,9.3c3.3,2.5,5.3,2.6,5.5,2.6c3.1,0.2,5.4-1.5,7.2-2.9
	c4.4-3.3,6.3-6.1,5.7-8.4c-0.3-1-0.9-1.4-1.7-2.1c-1-0.7-2.2-1.6-3.3-3.6c-0.7-1.3-0.9-2.1-1.2-3.2c-0.1-0.6-0.3-1.4-0.6-2.3
	l-0.1-0.4c-0.5-1.6-1.9-5.9-4.2-8.3C82.2,27.6,73.2,26.5,69.3,29.9L69.3,29.9z"/>
<path class="st0" d="M26,42.2c-0.8-4.4,2.2-10.5,5.9-11.8c2.7-1,4.2,1.2,7.4-0.2c2.6-1.2,2.4-3,5.8-5.1c1.7-1.2,3.7-1.8,5.8-1.9
	c3.1,0.1,3.6,2,7,2.3c1.7,0.1,3-0.2,5.4-0.9c3.9-1.1,4-2.1,6.2-2.3c0.3,0,5.4-0.5,7.9,3.2c1.8,2.7,1.1,6.1,0.8,7.8
	c-0.4,2.2-1.5,5.8-5.8,10.2c-6.1,6-14.2,9.6-22.8,10.2C41,53.9,27.4,50.3,26,42.2z"/>
<linearGradient id="SVGID_5_" gradientUnits="userSpaceOnUse" x1="52.2221" y1="21.1671" x2="52.2221" y2="90.2892">
	<stop  offset="0" style="stop-color:#A2DED7"/>
	<stop  offset="1" style="stop-color:#F1A3A7"/>
</linearGradient>
<path class="st5" d="M49.4,55.3c-9.6,0-23.4-3.9-24.9-12.8C23.6,37.3,27,30.6,31.3,29c1.7-0.6,3.1-0.3,4.2-0.1
	c1.1,0.3,1.9,0.4,3.1-0.1c1-0.4,1.4-1,2-1.8c0.7-0.9,1.7-2.1,3.6-3.2c1.9-1.3,4.2-2,6.6-2.1c2,0.1,3.1,0.7,4.1,1.3
	c0.9,0.5,1.6,0.9,3,1c1.4,0.1,2.6-0.2,4.8-0.8c1.9-0.5,2.8-1,3.5-1.4c0.8-0.4,1.6-0.8,3-1l0.2,0c4-0.2,7.4,1.2,9.1,3.9
	c2.1,3.2,1.4,7.1,1.1,8.9c-0.7,3.9-2.8,7.5-6.2,11C67.1,51,58.7,54.7,49.7,55.3C49.6,55.3,49.5,55.3,49.4,55.3z M33.4,31.7
	c-0.3,0-0.6,0.1-1,0.2c-3,1.1-5.5,6.4-4.9,10.1v0c1.2,6.8,13.6,10.4,22.1,10.3c8.1-0.5,15.9-4,21.7-9.7c3-3.1,4.8-6.1,5.4-9.4
	c0.3-1.6,0.8-4.5-0.6-6.8c-1.7-2.5-5-2.6-6.4-2.6c0,0,0,0-0.1,0c-0.8,0.1-1.2,0.3-1.9,0.7c-0.8,0.4-1.9,1-4,1.6
	c-2.5,0.7-3.9,1.1-5.9,1c-2.1-0.2-3.3-0.9-4.2-1.4c-0.9-0.5-1.5-0.9-2.7-0.9c-1.7,0-3.4,0.6-4.9,1.6c-1.6,1-2.2,1.8-2.9,2.6
	c-0.7,0.9-1.5,1.9-3.2,2.6c-2.1,1-3.7,0.6-5,0.3C34.3,31.8,33.8,31.7,33.4,31.7z"/>
<linearGradient id="SVGID_6_" gradientUnits="userSpaceOnUse" x1="26.5941" y1="62.7605" x2="96.056" y2="62.7605">
	<stop  offset="0" style="stop-color:#A2DED7"/>
	<stop  offset="1" style="stop-color:#F1A3A7"/>
</linearGradient>
<path class="st6" d="M45.6,47.3c-7.6-1.4-17.9,2.2-19.6,7.9c-1,3.1,1,6.2,1.7,7.4c1.2,1.9,2.2,2.3,6.9,5.6c7.2,5.1,7.5,6.1,10.1,6.5
	c3.8,0.6,4.5-1.2,7.9-0.3c4.2,1.1,4.4,4.1,7.8,4.3c3,0,5.8-1.5,7.4-4c2.3-4-1.1-8.9-4.2-13.6c-2.2-3.2-4.9-6.1-8-8.4
	C52.1,50,49.5,48,45.6,47.3z"/>
<path class="st0" d="M60.5,79C60.4,79,60.4,79,60.5,79c-2-0.1-3-1-4-2c-1-0.9-2-1.8-4-2.3c-1.7-0.4-2.6-0.2-3.7,0.1
	c-1.1,0.3-2.2,0.6-4.2,0.3c-1.9-0.3-2.7-0.9-5.2-2.8c-1.2-0.9-2.8-2.1-5.2-3.8c-1.1-0.8-2-1.4-2.7-1.9c-2.5-1.7-3.3-2.3-4.3-3.9
	c-0.8-1.2-2.7-4.4-1.7-7.8c1.8-6.1,12.7-9.6,20.2-8.2c3.8,0.7,6.4,2.6,9.7,5l0.5,0.3c3.2,2.4,5.9,5.2,8.1,8.5
	c3.3,4.9,6.7,9.9,4.3,14.1C66.5,77.5,63.6,79,60.5,79z M50.8,73.5c0.6,0,1.2,0.1,1.9,0.3c2.2,0.6,3.4,1.6,4.4,2.5
	c1,0.9,1.8,1.6,3.3,1.7c0,0,0,0,0,0c2.8,0,5.4-1.4,6.9-3.8c2.1-3.7-1.1-8.4-4.2-13c-2.2-3.2-4.8-6-7.9-8.3l-0.5-0.3
	c-3.2-2.3-5.7-4.2-9.3-4.8l0,0c-7.7-1.4-17.5,2.4-19.1,7.5c-0.9,2.9,0.9,5.8,1.6,7c0.9,1.4,1.6,1.9,4,3.6c0.7,0.5,1.6,1.1,2.7,1.9
	c2.4,1.7,4,2.9,5.2,3.8c2.4,1.8,3.1,2.3,4.7,2.6c1.7,0.3,2.8,0,3.8-0.2C49.2,73.7,49.9,73.5,50.8,73.5z"/>
<linearGradient id="SVGID_7_" gradientUnits="userSpaceOnUse" x1="74.8555" y1="57.0875" x2="44.5507" y2="57.0875">
	<stop  offset="0" style="stop-color:#A2DED7"/>
	<stop  offset="1" style="stop-color:#F1A3A7"/>
</linearGradient>
<path class="st7" d="M60.6,52.2c-4.8,0.6-7.1-2.4-10-0.7c-1.7,1-2.7,2.9-2.6,4.9c0.2,2,1.9,3.2,3.8,4.6c1.9,1.4,4.1,2.4,6.3,3
	c2.6,0.9,5.3,1.3,8,1.3c3.3-0.1,5.7-0.2,7.2-1.7c3.4-3.7-0.3-13.9-4.7-14.8C66,48.3,65.2,51.6,60.6,52.2z"/>
<path class="st0" d="M65.7,65.9c-2.7,0-5.3-0.4-7.8-1.3c-2.3-0.6-4.5-1.7-6.5-3.1c-1.9-1.4-3.8-2.8-4-5c-0.1-2.2,1-4.3,2.8-5.4
	c1.7-1,3.3-0.5,5,0c1.4,0.4,3.1,0.9,5.2,0.7c2.3-0.3,3.5-1.3,4.6-2.1c1.1-0.8,2.1-1.6,3.5-1.3c2.2,0.4,4.5,3.1,5.6,6.8
	c0.9,2.9,1.2,6.7-0.7,8.9c-1.6,1.7-4.1,1.7-7.5,1.8C66,65.9,65.9,65.9,65.7,65.9z M52.5,51.5c-0.6,0-1.1,0.1-1.7,0.4
	c-1.5,0.9-2.5,2.6-2.4,4.5c0.2,1.8,1.7,2.9,3.6,4.3c1.9,1.3,3.9,2.3,6.2,2.9c2.6,0.9,5.2,1.3,7.9,1.2c3.2-0.1,5.5-0.1,6.8-1.5
	c1.4-1.5,1.6-4.6,0.5-7.9c-1.1-3.3-3-5.7-4.9-6.1c-1-0.2-1.7,0.3-2.7,1.1c-1.1,0.9-2.6,2-5.1,2.3l0,0c-2.4,0.3-4.1-0.2-5.7-0.7
	C54.1,51.8,53.3,51.5,52.5,51.5z"/>
<linearGradient id="SVGID_8_" gradientUnits="userSpaceOnUse" x1="74.8555" y1="46.8821" x2="44.5507" y2="46.8821">
	<stop  offset="0" style="stop-color:#A2DED7"/>
	<stop  offset="1" style="stop-color:#F1A3A7"/>
</linearGradient>
<path class="st8" d="M57.2,41.3c-0.4-0.2-7.9-3.3-12.2,0.8c-1.6,1.6-3.6,4.9-2.1,8s5.3,3.6,5.6,3.7c0.4-1,1.2-1.7,2.1-2.2
	c1.7-0.8,3.4,0,5.6,0.3c2.9,0.5,7.6,0.5,8.5-1.3C65.8,48.5,62.1,43.4,57.2,41.3z"/>
<path class="st0" d="M48.8,54.3l-0.4,0c0,0-4.4-0.5-6-3.9c-1.4-3,0.1-6.6,2.2-8.6c4.5-4.3,11.9-1.3,12.8-0.9l0,0
	c3.9,1.7,6.9,5.2,7.7,7.6c0.3,1,0.3,1.8,0,2.4c-1.1,2.1-6.2,2.1-9.1,1.5c-0.6-0.1-1.2-0.2-1.7-0.3c-1.4-0.3-2.5-0.6-3.6,0
	c-0.8,0.4-1.5,1.2-1.9,2L48.8,54.3z M51,40.5c-2,0-4,0.5-5.6,2c-1.3,1.3-3.4,4.4-2,7.4c1.1,2.4,3.9,3.1,4.9,3.3
	c0.5-0.9,1.2-1.6,2.1-2.1c1.4-0.7,2.8-0.4,4.2-0.1c0.5,0.1,1.1,0.2,1.6,0.3c3.2,0.6,7.3,0.3,8-1c0.2-0.4,0.2-0.9-0.1-1.6
	c-0.7-2.2-3.6-5.4-7.2-7C56.6,41.5,53.9,40.5,51,40.5z"/>
<linearGradient id="SVGID_9_" gradientUnits="userSpaceOnUse" x1="74.8555" y1="42.9788" x2="44.5507" y2="42.9788">
	<stop  offset="0" style="stop-color:#A2DED7"/>
	<stop  offset="1" style="stop-color:#F1A3A7"/>
</linearGradient>
<path class="st9" d="M74.1,49.3c-3.2,2.1-9.3-0.6-9.3-0.6l0,0c-0.7-1.2-1.4-2.4-2.2-3.6c-2.3-3-5.1-2.5-5.3-3.9
	c-0.3-2,4.8-5.5,10.1-5.4c2.5-0.1,5,0.8,6.8,2.5c1.3,1.4,2.1,3.2,2.2,5.1C76.3,43.8,76.5,47.7,74.1,49.3z"/>
<path class="st0" d="M70.9,50.6c-3,0-6.1-1.3-6.3-1.4l-0.2-0.1L64.3,49c-0.7-1.2-1.4-2.4-2.2-3.5c-1.2-1.5-2.5-2.1-3.5-2.5
	c-0.9-0.4-1.7-0.7-1.8-1.6c-0.1-0.6,0.2-1.4,0.8-2.1c1.6-1.9,5.6-4,9.8-3.9c2.6-0.1,5.2,0.8,7.1,2.6c1.4,1.5,2.3,3.4,2.4,5.4
	c0,0.8,0.1,4.6-2.5,6.3v0C73.4,50.4,72.1,50.6,70.9,50.6z M65.1,48.3c1,0.4,6.1,2.3,8.7,0.5c2.1-1.4,2-5,2-5.4
	c-0.1-1.8-0.9-3.5-2.1-4.8c-1.7-1.6-4-2.4-6.4-2.3c-3.7-0.1-7.5,1.8-9,3.6c-0.4,0.5-0.6,1-0.6,1.3c0.1,0.3,0.4,0.5,1.2,0.8
	c1.1,0.4,2.6,1.1,4,2.8C63.7,46,64.5,47.1,65.1,48.3z"/>
<linearGradient id="SVGID_10_" gradientUnits="userSpaceOnUse" x1="56.722" y1="44.0089" x2="58.3754" y2="32.6891">
	<stop  offset="0" style="stop-color:#A2DED7"/>
	<stop  offset="1" style="stop-color:#F1A3A7"/>
</linearGradient>
<polygon class="st10" points="57.2,41.6 56.2,41.3 58.3,32.9 59.2,33.2 "/>
<linearGradient id="SVGID_11_" gradientUnits="userSpaceOnUse" x1="42.7905" y1="24.6275" x2="71.2807" y2="36.5832">
	<stop  offset="0" style="stop-color:#A2DED7"/>
	<stop  offset="1" style="stop-color:#F1A3A7"/>
</linearGradient>
<path class="st11" d="M57.7,31.1c0.3-1.1,1.4-1.7,2.4-1.3c1,0.3,1.5,1.4,1.1,2.5s-1.4,1.7-2.4,1.3C57.9,33.2,57.4,32.1,57.7,31.1z"
	/>
<linearGradient id="SVGID_12_" gradientUnits="userSpaceOnUse" x1="57.648" y1="44.1441" x2="59.3014" y2="32.8244">
	<stop  offset="0" style="stop-color:#A2DED7"/>
	<stop  offset="1" style="stop-color:#F1A3A7"/>
</linearGradient>
<path class="st12" d="M59.4,34.1c-0.2,0-0.5,0-0.7-0.1c-0.6-0.2-1.1-0.6-1.4-1.2c-0.3-0.6-0.3-1.2-0.1-1.9c0.2-0.6,0.6-1.1,1.2-1.5
	c0.6-0.3,1.2-0.4,1.8-0.2s1.1,0.6,1.4,1.2c0.3,0.6,0.3,1.2,0.1,1.9s-0.6,1.1-1.2,1.5C60.2,34,59.8,34.1,59.4,34.1z M59.6,30.1
	c-0.2,0-0.4,0.1-0.6,0.2c-0.3,0.2-0.6,0.5-0.7,0.9c-0.1,0.4-0.1,0.8,0.1,1.2c0.2,0.3,0.4,0.6,0.8,0.7c0.3,0.1,0.7,0.1,1-0.1
	c0.3-0.2,0.6-0.5,0.7-0.9c0.1-0.4,0.1-0.8-0.1-1.2c-0.2-0.3-0.4-0.6-0.8-0.7C59.8,30.2,59.7,30.1,59.6,30.1z"/>
<g>
	<linearGradient id="SVGID_13_" gradientUnits="userSpaceOnUse" x1="68.6317" y1="36.7749" x2="69.547" y2="38.3875">
		<stop  offset="0" style="stop-color:#A2DED7"/>
		<stop  offset="1" style="stop-color:#F1A3A7"/>
	</linearGradient>
	<path class="st13" d="M69.3,37.6c1-0.5,2.2-0.1,2.6,0.8s0,2-1.1,2.5c-1,0.5-2.2,0.1-2.6-0.8S68.3,38,69.3,37.6z"/>
</g>
<linearGradient id="SVGID_14_" gradientUnits="userSpaceOnUse" x1="60.6108" y1="40.6921" x2="72.5087" y2="40.6921">
	<stop  offset="0" style="stop-color:#A2DED7"/>
	<stop  offset="1" style="stop-color:#F1A3A7"/>
</linearGradient>
<path class="st14" d="M72.3,38.2c-0.5-1.2-2-1.7-3.3-1.1v0c-1.1,0.5-1.7,1.7-1.5,2.7l-7,3.8l0.5,0.9l7-3.8c0.4,0.6,1.1,0.9,1.9,0.9
	c0.4,0,0.7-0.1,1.1-0.2C72.3,40.8,72.8,39.4,72.3,38.2z M70.6,40.5c-0.8,0.3-1.6,0.1-1.9-0.6c-0.3-0.7,0.1-1.5,0.8-1.8
	c0.8-0.3,1.6-0.1,1.9,0.6C71.7,39.3,71.3,40.1,70.6,40.5z"/>
<linearGradient id="SVGID_15_" gradientUnits="userSpaceOnUse" x1="45.1876" y1="42.3241" x2="46.841" y2="31.0043">
	<stop  offset="0" style="stop-color:#A2DED7"/>
	<stop  offset="1" style="stop-color:#F1A3A7"/>
</linearGradient>
<polygon class="st15" points="47.8,40.6 43.4,33.2 44.3,32.7 48.6,40.1 "/>
<linearGradient id="SVGID_16_" gradientUnits="userSpaceOnUse" x1="40.4411" y1="30.2261" x2="68.9313" y2="42.1818">
	<stop  offset="0" style="stop-color:#A2DED7"/>
	<stop  offset="1" style="stop-color:#F1A3A7"/>
</linearGradient>
<path class="st16" d="M42.2,29.5c0.9-0.5,2,0,2.5,1s0.2,2.2-0.7,2.6c-0.9,0.5-2,0-2.5-1C40.9,31.2,41.3,30,42.2,29.5z"/>
<linearGradient id="SVGID_17_" gradientUnits="userSpaceOnUse" x1="41.5428" y1="41.7917" x2="43.1962" y2="30.4719">
	<stop  offset="0" style="stop-color:#A2DED7"/>
	<stop  offset="1" style="stop-color:#F1A3A7"/>
</linearGradient>
<path class="st17" d="M43.2,33.8c-0.9,0-1.8-0.5-2.2-1.4c-0.6-1.2-0.2-2.7,1-3.3c1.2-0.6,2.6,0,3.2,1.2c0.6,1.2,0.2,2.7-1,3.3
	C43.9,33.7,43.5,33.8,43.2,33.8z M42.9,29.9c-0.2,0-0.4,0-0.5,0.1l0,0c-0.7,0.3-0.9,1.2-0.5,2c0.4,0.7,1.2,1.1,1.9,0.7
	c0.7-0.3,0.9-1.2,0.5-2C44,30.2,43.5,29.9,42.9,29.9z"/>
<linearGradient id="SVGID_18_" gradientUnits="userSpaceOnUse" x1="38.2767" y1="93.3195" x2="73.8192" y2="93.3195">
	<stop  offset="0" style="stop-color:#A2DED7"/>
	<stop  offset="1" style="stop-color:#F1A3A7"/>
</linearGradient>
<path class="st18" d="M39.9,93.9c0-0.1,0.1-0.2,0.1-0.1s0,0.1,0,0.1c-0.1,0.3-0.2,0.6-0.3,0.8s-0.1,0.4-0.2,0.6s-0.1,0.3-0.2,0.5
	s-0.1,0.3-0.1,0.5s-0.1,0.4-0.2,0.4s-0.2-0.1-0.3-0.3c0,0-0.1-0.1-0.1-0.1c0-0.1-0.1-0.2-0.1-0.2c0-0.1-0.1-0.2-0.1-0.3
	c0-0.1,0-0.2,0-0.3c0-0.1,0-0.2,0-0.3c0-0.1,0-0.3,0.1-0.4c0-0.2,0.1-0.3,0.1-0.4c0-0.1,0.1-0.3,0.1-0.4c0-0.1,0.1-0.2,0-0.3
	c0-0.1,0-0.3-0.1-0.4c0-0.1-0.1-0.3-0.1-0.5s-0.1-0.4-0.1-0.7s0-0.4,0-0.4s0.1,0.1,0.2,0.4c0.1,0.1,0.1,0.3,0.2,0.5
	c0.1,0.2,0.1,0.3,0.1,0.5c0,0.2,0,0.3,0,0.5c0,0.1,0,0.3-0.1,0.4c-0.2,0.4-0.3,0.7-0.3,1.1c0,0.2,0,0.4,0,0.7
	c0.1,0.2,0.2,0.4,0.3,0.5c0,0,0.1-0.1,0.2-0.3c0.2-0.4,0.3-0.8,0.5-1.1S39.8,94.1,39.9,93.9z M39.9,90.4c-0.1-0.1-0.2-0.2-0.3-0.3
	l-0.3-0.4c-0.1-0.1-0.1-0.1-0.1-0.2c0,0,0.1,0,0.2,0c0.1,0.1,0.3,0.2,0.4,0.2c0.2,0.1,0.3,0.2,0.5,0.3c0.1,0.1,0.3,0.2,0.4,0.4
	c0,0.1,0,0.2-0.1,0.2c-0.1,0.1-0.3,0.2-0.5,0.3c-0.1,0.1-0.2,0.1-0.4,0.2c-0.1,0-0.2,0-0.2,0s0-0.1,0.1-0.2c0.2-0.1,0.3-0.3,0.4-0.4
	C40,90.6,40,90.5,39.9,90.4L39.9,90.4z M45.1,92.2l0.2,0.2c0,0,0,0.1,0,0.1c0,0-0.1,0-0.2,0.1h-0.4c-0.2,0-0.4,0-0.6,0
	c-0.1,0,0-0.1,0.1-0.1l0.2-0.1h0.1l0,0h-0.2l-0.7,0.1c-0.2,0-0.5,0.1-0.7,0.2s-0.5,0.1-0.7,0.2c-0.2,0.1-0.4,0.2-0.6,0.2l-0.5,0.3
	c-0.1,0.1-0.2,0.1-0.4,0.1c-0.1,0-0.2,0-0.3,0c-0.1,0-0.2,0-0.3-0.1c-0.1,0-0.1-0.1-0.1-0.1s0.1,0,0.2,0c0.1,0,0.2,0,0.2,0
	c0.1,0,0.2-0.1,0.2-0.1c0.1-0.1,0.2-0.1,0.3-0.2l0.4-0.2l0.5-0.2l0.7-0.2c0,0,0-0.1,0-0.2s0-0.2,0.1-0.3c0,0,0-0.1,0-0.2
	c0,0,0-0.1,0-0.1c-0.3,0.1-0.7,0.1-1,0.2c-0.1,0-0.2,0-0.1,0c0.1,0,0.1-0.1,0.2-0.1l1-0.3c0-0.3,0.1-0.5,0.1-0.8
	c-0.1,0-0.3,0.1-0.4,0.1H42h-0.2c0,0-0.1,0,0,0s0,0,0.1-0.1l0.3-0.1l0.3-0.1l0.4-0.1c0-0.1,0-0.2,0-0.4s0-0.2,0-0.4
	c0-0.1,0-0.2-0.1-0.3c-0.1-0.1-0.2-0.2-0.4-0.3c-0.1,0-0.1-0.1,0-0.1s0.2,0,0.3,0c0.2,0,0.3,0.2,0.4,0.3c0.1,0.1,0.1,0.3,0.1,0.4
	c0,0.1,0,0.2,0,0.3v0.3c0.1,0,0.3-0.1,0.4-0.2c0.1-0.1,0.3-0.1,0.4,0c0,0,0.1,0.1,0.1,0.1c0,0,0,0.1-0.2,0.1
	c-0.2,0.1-0.5,0.2-0.8,0.3c0,0.1,0,0.3,0,0.4v0.4l0.3-0.1h0.2c0.1,0,0.2,0,0.2,0.1s-0.1,0.1-0.2,0.2l-0.2,0.1l-0.2,0.1
	c0,0.1,0,0.1,0,0.2V92c0,0.1,0,0.2-0.1,0.3c0,0.1,0,0.1,0,0.2l0.4-0.1l0.6-0.1l0.5-0.1c0.1,0,0.2,0,0.2,0
	C44.9,92.2,45,92.2,45.1,92.2L45.1,92.2z M44.1,93.6c0,0.1,0,0.3,0,0.4c0,0.2,0,0.5,0.1,0.7l0.1,1c0,0.3,0,0.6,0,0.9s0,0.3,0,0.4
	c0,0.2,0,0.3-0.1,0.4c-0.1,0.1-0.2,0.2-0.2,0.2s-0.2,0-0.3-0.1l-0.2-0.2l-0.3-0.2L43,96.9c-0.1-0.1-0.1-0.1-0.2-0.2
	c0,0-0.1-0.1-0.1-0.1c0,0,0,0,0-0.1h0.1l0.1,0.1c0.1,0.1,0.2,0.1,0.2,0.2c0.1,0.1,0.2,0.2,0.4,0.3c0.1,0,0.2,0.1,0.2,0.1
	c0.1,0,0.1,0,0.1,0c0,0,0.1-0.1,0.1-0.2c0-0.1,0-0.2,0-0.3c0-0.5,0-1,0-1.4c0-0.5-0.1-1-0.2-1.6c0-0.1,0-0.1-0.1-0.2
	c-0.1,0-0.1-0.1-0.2-0.1h-0.3h-0.4h-0.2c-0.2,0.3-0.4,0.6-0.5,0.9h0.1l0.3-0.1c0.1,0,0.2-0.1,0.2-0.1c0,0,0.1-0.1,0.2-0.1h0.3
	c0.1,0,0.2,0.1,0.2,0.1c0,0.1,0,0.1,0,0.2c-0.1,0.1-0.2,0.2-0.2,0.3c0,0.1-0.1,0.2-0.2,0.4s-0.1,0.3,0,0.3c0,0,0.1,0,0.2,0
	c0,0,0,0,0,0c0.2-0.2,0.4-0.2,0.6,0c0,0,0,0,0,0c0.1,0,0.1,0.1,0.1,0.2c0,0.1,0,0.1,0,0.2c-0.1,0-0.1,0.1-0.2,0.1h-0.2
	c-0.1,0-0.1,0-0.2,0.1c-0.1,0-0.2,0.1-0.3,0.1c-0.1,0.1-0.2,0.1-0.2,0.1s0-0.1,0.1-0.1l0.2-0.1l0.3-0.2c0.1-0.1,0.1-0.1,0.1-0.1
	s-0.1,0-0.2,0c-0.1,0-0.2,0-0.3,0c0,0-0.1-0.1-0.1-0.1c0-0.1,0-0.2,0-0.3c0-0.2,0.1-0.3,0.2-0.4c0.1-0.1,0.1-0.2,0.1-0.2
	c0,0,0-0.1-0.1-0.1c-0.1,0-0.1,0-0.2,0l-0.4,0.1h-0.1h-0.1c0,0.2-0.1,0.4-0.1,0.6c0,0.4,0,0.8,0,1.2c0,0.3,0.1,0.5,0.1,0.7
	c0,0.1,0,0.1,0,0.2c0,0,0,0.1-0.1,0.1c0,0-0.1,0-0.1,0c-0.1-0.1-0.1-0.1-0.1-0.2c-0.2-0.6-0.2-1.2-0.1-1.9c0-0.4,0.1-0.8,0.2-1.2
	c0.1-0.3,0.3-0.6,0.5-0.8c0.1-0.1,0.1-0.1,0.2-0.2c0.1,0,0.1,0,0.1,0.1c0.3-0.1,0.5-0.1,0.8-0.1c0.2,0,0.4,0.1,0.5,0.2
	C44.3,93.2,44.3,93.4,44.1,93.6L44.1,93.6z"/>
<linearGradient id="SVGID_19_" gradientUnits="userSpaceOnUse" x1="38.2767" y1="93.3165" x2="73.8192" y2="93.3165">
	<stop  offset="0" style="stop-color:#A2DED7"/>
	<stop  offset="1" style="stop-color:#F1A3A7"/>
</linearGradient>
<path class="st19" d="M50,93.9c0-0.1,0.1-0.2,0.1-0.1s0,0.1,0,0.1c-0.1,0.3-0.2,0.6-0.3,0.8s-0.1,0.4-0.2,0.6s-0.1,0.3-0.1,0.5
	s-0.1,0.3-0.1,0.5s-0.1,0.4-0.2,0.4s-0.2-0.1-0.3-0.3c0,0-0.1-0.1-0.1-0.1c0-0.1-0.1-0.2-0.1-0.2c0-0.1-0.1-0.2-0.1-0.3
	c0-0.1,0-0.2,0-0.3c0-0.1,0-0.2,0-0.3s0-0.3,0.1-0.4s0.1-0.3,0.1-0.4s0.1-0.3,0.1-0.4c0-0.1,0-0.2,0-0.3c0-0.1,0-0.3,0-0.4
	c0-0.2-0.1-0.3-0.1-0.5c0-0.2-0.1-0.4-0.1-0.7s0-0.4,0-0.4s0.1,0.1,0.2,0.4c0.1,0.1,0.1,0.3,0.2,0.5c0,0.2,0.1,0.3,0.1,0.5
	c0,0.2,0,0.3,0,0.5c0,0.1,0,0.3-0.1,0.4c-0.2,0.4-0.3,0.7-0.3,1.1c-0.1,0.2-0.1,0.4,0,0.7c0,0.2,0.1,0.4,0.2,0.5
	c0.1,0,0.1-0.1,0.2-0.3c0.2-0.4,0.3-0.8,0.4-1.1S49.9,94.1,50,93.9z M50,90.4c-0.1-0.1-0.2-0.2-0.3-0.3s-0.2-0.2-0.3-0.4
	s-0.1-0.1-0.1-0.2s0.1,0,0.1,0s0.3,0.2,0.4,0.2c0.2,0.1,0.3,0.2,0.5,0.3c0.1,0.1,0.3,0.2,0.4,0.4c0,0.1,0,0.2-0.1,0.2
	c-0.1,0.1-0.3,0.2-0.5,0.3c-0.1,0.1-0.2,0.1-0.4,0.2c-0.1,0-0.2,0-0.2,0s0-0.1,0.1-0.2c0.2-0.1,0.3-0.3,0.4-0.4
	C50.1,90.6,50.1,90.5,50,90.4z M55.1,92.2l0.2,0.2c0,0,0,0.1,0,0.1c0,0-0.1,0-0.2,0.1h-0.4c-0.2,0-0.4,0-0.6,0c0,0,0-0.1,0.1-0.1
	l0.2-0.1h0.1l0,0h-0.2l-0.7,0.1L53,92.6c-0.2,0.1-0.5,0.1-0.7,0.2c-0.2,0.1-0.4,0.2-0.6,0.2l-0.5,0.3c-0.1,0.1-0.2,0.1-0.3,0.1
	c-0.1,0-0.2,0-0.3,0c-0.1,0-0.2,0-0.3-0.1c-0.1,0-0.1-0.1-0.1-0.1s0.1,0,0.2,0c0.1,0,0.2,0,0.2,0c0.1,0,0.2,0,0.2-0.1
	c0.1-0.1,0.2-0.1,0.3-0.2l0.4-0.2l0.5-0.2l0.7-0.2c0,0,0-0.1,0-0.2s0-0.2,0.1-0.3c0,0,0-0.1,0-0.2v-0.1c-0.3,0.1-0.7,0.1-1,0.2
	c-0.1,0-0.2,0-0.1,0c0.1,0,0.1-0.1,0.2-0.1l1-0.3c0-0.3,0.1-0.5,0.1-0.8c-0.1,0-0.3,0.1-0.4,0.1H52h-0.2c0,0-0.1,0,0,0s0,0,0.1-0.1
	l0.4-0.1l0.3-0.1l0.4-0.1c0-0.1,0-0.2,0-0.4v-0.4c0-0.1,0-0.2-0.1-0.3c-0.1-0.1-0.2-0.2-0.4-0.3c-0.1,0-0.1-0.1,0-0.1s0.2,0,0.3,0
	c0.2,0,0.3,0.1,0.4,0.3c0.1,0.1,0.1,0.3,0.1,0.4V90c0,0.1,0,0.2,0,0.3c0.2,0,0.3-0.1,0.4-0.2c0.1-0.1,0.3-0.1,0.4,0
	c0,0,0.1,0.1,0.1,0.1c0,0-0.1,0.1-0.2,0.1c-0.2,0.1-0.5,0.2-0.8,0.3c0,0.1,0,0.3,0,0.4c0,0.1,0,0.2,0,0.4l0.3-0.1h0.2
	c0.1,0,0.2,0,0.2,0.1s-0.1,0.1-0.2,0.2l-0.2,0.1l-0.2,0.1c0,0.1,0,0.1,0,0.2c0,0.1,0,0.1,0,0.2c0,0.1,0,0.2,0,0.3
	c0,0.1,0,0.1-0.1,0.2l0.4-0.1l0.6-0.1c0.2,0,0.3-0.1,0.5-0.1c0.1,0,0.2,0,0.3,0C55,92.2,55.1,92.2,55.1,92.2L55.1,92.2z M54.2,93.6
	c0,0.1,0,0.3,0,0.4c0,0.2,0,0.4,0.1,0.7s0.1,0.6,0.1,1c0,0.3,0,0.6,0,0.9c0,0.1,0,0.3,0,0.4c0,0.2-0.1,0.3-0.1,0.4
	c0,0.1-0.1,0.2-0.2,0.2c-0.1,0-0.2,0-0.3-0.1l-0.2-0.2l-0.2-0.2c-0.1-0.1-0.2-0.1-0.2-0.2c-0.1-0.1-0.1-0.1-0.2-0.2
	c0,0-0.1-0.1-0.1-0.1c0,0,0,0,0-0.1h0.1l0.1,0.1c0.1,0.1,0.2,0.1,0.2,0.2c0.1,0.1,0.2,0.2,0.4,0.3c0.1,0,0.2,0.1,0.2,0.1
	c0.1,0,0.1,0,0.1,0C54,97.2,54,97.1,54,97c0-0.1,0-0.2,0-0.3c0-0.5,0-1,0-1.4c0-0.5-0.1-1-0.2-1.6c0-0.1,0-0.1-0.1-0.2
	c-0.1,0-0.1-0.1-0.2-0.1h-0.3h-0.4h-0.2c-0.2,0.3-0.4,0.6-0.5,0.9h0.1l0.3-0.1c0.1,0,0.2-0.1,0.2-0.1c0,0,0.1-0.1,0.2-0.1
	c0.1,0,0.2,0,0.3,0c0.1,0,0.2,0.1,0.2,0.1c0,0.1,0,0.1,0,0.2c-0.1,0.1-0.2,0.2-0.2,0.3c-0.1,0.1-0.1,0.2-0.2,0.4
	c-0.1,0.2-0.1,0.3,0,0.3c0,0,0.1,0.1,0.1,0c0,0,0,0,0,0c0.1-0.1,0.2-0.1,0.3-0.1c0.1,0,0.2,0.1,0.3,0.1c0.1,0,0.1,0.1,0.1,0.2
	c0,0.1,0,0.1,0,0.2c-0.1,0-0.1,0.1-0.2,0.1h-0.2l-0.2,0.1c-0.1,0-0.2,0.1-0.3,0.1c-0.1,0.1-0.2,0.1-0.2,0.1c-0.1,0,0-0.1,0.1-0.1
	l0.1,0l0.3-0.2c0.1-0.1,0.1-0.1,0.1-0.1s-0.1,0-0.2,0c-0.1,0-0.2,0-0.3,0c0,0-0.1-0.1-0.1-0.1c0-0.1,0-0.2,0-0.3
	c0-0.2,0.1-0.3,0.2-0.4c0.1-0.1,0.1-0.2,0.1-0.2c0-0.1-0.1-0.1-0.1-0.1c-0.1,0-0.1,0-0.2,0l-0.4,0.1h-0.1H52c0,0.2-0.1,0.4-0.1,0.6
	c0,0.4,0,0.8,0,1.2c0,0.2,0.1,0.5,0.1,0.7c0,0.1,0,0.1,0,0.2c0,0,0,0.1-0.1,0.1s-0.1,0-0.1,0c-0.1-0.1-0.1-0.1-0.1-0.2
	c-0.2-0.6-0.2-1.2-0.1-1.9c0-0.4,0.1-0.8,0.2-1.2c0.1-0.3,0.3-0.6,0.5-0.8c0.1-0.1,0.1-0.1,0.2-0.2c0.1,0,0.1,0,0.1,0.1
	C53,93,53.2,93,53.5,93c0.2,0,0.4,0.1,0.5,0.2C54.1,93.3,54.2,93.4,54.2,93.6L54.2,93.6z"/>
<linearGradient id="SVGID_20_" gradientUnits="userSpaceOnUse" x1="38.2767" y1="93.2608" x2="73.8192" y2="93.2608">
	<stop  offset="0" style="stop-color:#A2DED7"/>
	<stop  offset="1" style="stop-color:#F1A3A7"/>
</linearGradient>
<path class="st20" d="M64.6,93.1c0.2,0.1,0.4,0.2,0.4,0.3s0,0.1-0.2,0.1l-0.7-0.1l-0.7-0.1c0,0.5,0.1,0.9,0.1,1.3c0,0.4,0,0.7,0,1.1
	c0,0.3-0.1,0.6-0.2,0.9c-0.1,0.3-0.2,0.5-0.3,0.7c-0.1,0.1-0.3,0.2-0.5,0.3c-0.3,0-0.5,0-0.8-0.1c-0.4-0.2-0.8-0.4-1.1-0.6
	c-0.3-0.2-0.7-0.5-0.9-0.8c-0.1-0.2-0.2-0.2-0.2-0.3s0.1,0,0.2,0.1c0.3,0.3,0.6,0.5,1,0.7c0.4,0.2,0.7,0.4,1.1,0.5
	c0.2,0.1,0.5,0.1,0.8,0c0.2-0.2,0.4-0.5,0.4-0.8c0.1-0.5,0.2-0.9,0.2-1.4c0-0.5,0-1.1-0.1-1.6l-0.3,0.1l-0.4,0.1l-0.5,0.1l-0.4,0.1
	c-0.3,0.1-0.7,0.2-1,0.4c-0.3,0.1-0.6,0.3-0.8,0.5c-0.1,0.1-0.3,0.2-0.5,0.3c-0.1,0-0.2,0-0.2,0c-0.1,0-0.1-0.1,0-0.2c0,0,0,0,0,0
	c0.1-0.1,0.3-0.2,0.4-0.3c0.2-0.2,0.5-0.3,0.7-0.4c0.3-0.1,0.6-0.3,0.9-0.4s0.7-0.2,1-0.3s0.7-0.2,1-0.2c0,0,0-0.1,0-0.1s0,0,0-0.1
	c0-0.1-0.1-0.2-0.1-0.3c-0.1-0.1-0.1-0.2-0.2-0.2c-0.1-0.1-0.2-0.1-0.4-0.1c-0.2,0-0.4,0-0.6,0c-0.1,0-0.3,0-0.4,0
	c0,0-0.1-0.1-0.1-0.1c0,0,0,0,0,0c0-0.1,0-0.2,0.1-0.2c0.1,0,0.1-0.1,0.2-0.1c0.1,0,0.3,0,0.4-0.1c0.1-0.1,0.3-0.2,0.4-0.3
	c0.1-0.1,0.2-0.2,0.3-0.3s0.3-0.2,0.4-0.4s0.2-0.2,0.3-0.4c0.1-0.1,0.2-0.2,0.2-0.3c0.1-0.1,0.1-0.3,0-0.5c-0.2-0.1-0.4-0.2-0.6-0.1
	l-0.3,0.1l-0.5,0.2c-0.2,0.1-0.3,0.2-0.5,0.3c-0.2,0.1-0.3,0.2-0.4,0.4c-0.1,0.1-0.2,0.2-0.3,0.3L60.7,91l-0.4,0.3L60,91.6
	c-0.2,0.2-0.3,0.2-0.3,0.2s0-0.2,0.1-0.4c0-0.1,0.1-0.2,0.1-0.3c0.1-0.1,0.2-0.2,0.3-0.2c0.2-0.1,0.3-0.3,0.4-0.6
	c0-0.2,0-0.5-0.1-0.7c-0.1-0.2-0.1-0.2,0-0.3c0.1,0,0.2,0.1,0.4,0.3c0.2,0.2,0.2,0.5,0,0.7c0.3-0.3,0.6-0.5,0.9-0.7
	c0.3-0.2,0.7-0.4,1-0.6c0.1-0.1,0.3-0.1,0.4-0.1c0.2,0,0.3,0,0.4,0.1c0.2,0.1,0.4,0.3,0.5,0.5c0.1,0.2,0,0.4-0.2,0.5
	c-0.1,0.2-0.2,0.3-0.3,0.4l-0.3,0.4c-0.1,0.1-0.3,0.3-0.4,0.4l-0.6,0.4c0.3,0,0.6,0.2,0.8,0.4c0.2,0.2,0.3,0.4,0.3,0.7
	c0,0,0,0,0,0.1c0.2,0,0.4,0,0.6,0C64.3,92.9,64.5,93,64.6,93.1z"/>
<linearGradient id="SVGID_21_" gradientUnits="userSpaceOnUse" x1="38.2767" y1="93.3609" x2="73.8192" y2="93.3609">
	<stop  offset="0" style="stop-color:#A2DED7"/>
	<stop  offset="1" style="stop-color:#F1A3A7"/>
</linearGradient>
<path class="st21" d="M69.9,94.1c0,0.3-0.1,0.6-0.1,0.8s0,0.4,0,0.5s0,0.2,0,0.3v1.4c0,0.2,0,0.3-0.1,0.2s-0.1-0.1-0.2-0.2
	c-0.1-0.2-0.1-0.4-0.1-0.6c0-0.3,0-0.6,0-0.8c0-0.2,0-0.4,0-0.6s0-0.4,0.1-0.6c-0.2,0.2-0.4,0.4-0.7,0.6s-0.4,0.4-0.6,0.5
	s-0.2,0.1-0.2,0c-0.1-0.1-0.1-0.2-0.1-0.2c0-0.1,0-0.1,0.1-0.2c0.1-0.1,0.1-0.1,0.2-0.2c0.2-0.1,0.4-0.3,0.5-0.5
	c0.1-0.2,0.2-0.3,0.3-0.4s0.2-0.2,0.2-0.3c0.1-0.1,0.1-0.2,0.2-0.3c0.1-0.1,0.1-0.2,0.2-0.4c0,0,0,0,0-0.1l0.1-0.4
	c0-0.1,0-0.3,0.1-0.4s0-0.3-0.1-0.3s-0.2,0-0.3,0.1l-0.5,0.4l-0.5,0.3C68.2,92.9,68,93,67.8,93c-0.1,0-0.2-0.1-0.3-0.3
	c0-0.1-0.1-0.3-0.1-0.4c0-0.1,0-0.3,0-0.4c0-0.1,0-0.2,0.1-0.2s0.1,0.1,0.1,0.3c0,0.1,0.1,0.3,0.1,0.4c0,0.1,0.1,0.2,0.1,0.2
	c0.1,0,0.1,0,0.2,0c0.1,0,0.2-0.1,0.3-0.1c0.2-0.1,0.5-0.3,0.7-0.4c0.2-0.1,0.3-0.2,0.5-0.4c0.1-0.1,0.1-0.1,0.2-0.1
	c0.1,0,0.2,0,0.3,0.1c0.1,0.1,0.2,0.1,0.2,0.2c0,0.1,0,0.3-0.1,0.4c0,0,0,0.1,0,0.2s0,0.2-0.1,0.3s0,0.3-0.1,0.4s0,0.3-0.1,0.5
	c0.2-0.2,0.4-0.5,0.6-0.7c0.2-0.2,0.3-0.4,0.4-0.5c0.1-0.1,0.1-0.2,0.2-0.2c0,0,0,0.1-0.1,0.2c-0.2,0.3-0.4,0.6-0.6,0.9
	S70.1,93.9,69.9,94.1z M69,90.9c-0.2,0.1-0.2,0.1-0.2,0s0.1-0.1,0.2-0.2l0.7-0.4c0.2-0.1,0.4-0.2,0.6-0.2c0.1,0,0.1,0,0.1-0.1
	c0-0.1-0.1-0.1-0.1-0.1l-0.4-0.2l-0.4-0.2c-0.1,0-0.1-0.1-0.1-0.1s0.1,0,0.2,0c0.3,0,0.5,0.1,0.8,0.2c0.2,0.1,0.4,0.2,0.6,0.3
	c0.1,0.1,0.1,0.2,0.1,0.2c0,0.1-0.1,0.2-0.2,0.2c-0.2,0-0.5,0.1-0.7,0.1C69.7,90.5,69.3,90.7,69,90.9z M69.3,94.3l0.2-0.2
	c0.1,0,0.1-0.1,0.2-0.2v-0.2c0-0.1,0-0.1,0-0.2L69.4,94L69.3,94.3z M76.5,93.8c0.2,0.1,0.3,0.2,0.3,0.2s-0.1,0-0.2,0
	c-0.1,0-0.1,0-0.2,0L76.1,94l-0.2-0.1l-0.3-0.1c-0.1,0-0.2-0.1-0.3-0.2l-0.4-0.4c-0.3-0.4-0.6-0.7-0.8-0.9s-0.4-0.4-0.6-0.6
	c-0.1-0.1-0.3-0.2-0.4-0.3c-0.1-0.1-0.2-0.1-0.3-0.2c-0.2,0.4-0.4,0.7-0.6,1s-0.3,0.5-0.5,0.8s-0.3,0.4-0.5,0.6s-0.3,0.4-0.5,0.5
	s-0.2,0.1-0.2,0.1s0-0.1,0.1-0.2c0.4-0.4,0.7-0.9,1-1.3c0.3-0.5,0.6-1,0.9-1.5h-0.6c-0.1,0-0.2,0-0.2,0s0-0.1,0.2-0.1
	c0.1,0,0.2-0.1,0.3-0.1c0.1,0,0.3,0,0.4,0l0,0l0.1-0.2l0.1-0.2c0.1-0.1,0.1-0.2,0.1-0.3C73,90.2,73,90.1,73,90c0-0.1,0-0.1-0.1-0.2
	c-0.1,0-0.1-0.1-0.2-0.1c-0.1,0-0.1-0.1-0.1-0.1s0.1,0,0.3,0c0.2,0.1,0.3,0.1,0.4,0.3c0.1,0.1,0.1,0.2,0,0.3l-0.3,0.5l-0.2,0.4
	c0.2,0.1,0.5,0.2,0.7,0.4c0.3,0.2,0.5,0.5,0.8,0.7c0.2,0.2,0.4,0.4,0.6,0.6c0.2,0.2,0.4,0.3,0.6,0.4l0.5,0.3
	C76.1,93.6,76.3,93.7,76.5,93.8z M74.5,94.3c0.2,0.2,0.1,0.2-0.2,0.2c-0.2,0-0.4,0-0.5,0.1c-0.2,0-0.5,0.1-0.7,0.2l-0.3,0.1L72.4,95
	c0.2,0.1,0.4,0.3,0.6,0.5c0.2,0.1,0.3,0.3,0.4,0.5c0.1,0.2,0.2,0.4,0.1,0.6c0,0.2-0.1,0.4-0.2,0.5c0,0.1-0.1,0.1-0.2,0.2
	c-0.1,0-0.2,0-0.3-0.1c-0.1-0.1-0.2-0.2-0.3-0.3c-0.1-0.1-0.1-0.2-0.2-0.3s-0.1-0.2,0-0.2s0.1,0,0.1,0c0.1,0.1,0.3,0.2,0.5,0.3
	c0.1,0,0.2,0,0.2-0.2c0-0.3-0.1-0.5-0.2-0.8c-0.2-0.3-0.4-0.5-0.6-0.7L72.3,95l-0.2,0.1h-0.2c-0.1,0.1-0.2,0.1-0.3,0.1
	c-0.1,0-0.2,0-0.3-0.1c-0.1,0-0.1-0.1-0.1-0.1s0.1-0.1,0.2-0.1c0.1,0,0.2,0,0.4,0l0.4-0.1l0.5-0.2l0.5-0.2l0.5-0.2l0.4-0.1
	c0.1,0,0.3,0,0.4,0C74.3,94.2,74.4,94.3,74.5,94.3L74.5,94.3z M72.9,93.7c0.1-0.1,0.2-0.2,0.3-0.2c0,0,0-0.1,0-0.1
	c0,0-0.1-0.1-0.1-0.1c-0.1,0-0.1,0-0.2,0c-0.1,0.1-0.2,0.1-0.4,0.1c-0.1,0-0.2,0-0.2-0.1c-0.1-0.1-0.2-0.1-0.2-0.2s0.1-0.1,0.2-0.1
	c0.1,0,0.3,0,0.4-0.1c0.1-0.1,0.2-0.1,0.3,0c0.1,0,0.2,0,0.3,0l0.2,0.2l0.2,0.2c0.1,0.1,0.1,0.1,0.1,0.2c0,0.1-0.1,0.2-0.2,0.2
	l-0.2,0.1c-0.1,0-0.2,0.1-0.3,0.1c-0.2,0.1-0.3,0.2-0.5,0.2l-0.4,0.2c-0.1,0.1-0.2,0.1-0.2,0.1s0-0.1,0.2-0.2l0.5-0.3
	C72.7,93.9,72.8,93.8,72.9,93.7L72.9,93.7z"/>
</svg>
