<?xml version="1.0" encoding="utf-8"?>
<!-- Generator: Adobe Illustrator 23.0.4, SVG Export Plug-In . SVG Version: 6.00 Build 0)  -->
<svg version="1.1" id="圖層_1" xmlns="http://www.w3.org/2000/svg" xmlns:xlink="http://www.w3.org/1999/xlink" x="0px" y="0px"
	 viewBox="0 0 120 120" style="enable-background:new 0 0 120 120;" xml:space="preserve">
<style type="text/css">
	.st0{fill:url(#SVGID_1_);}
	.st1{fill:#FFFFFF;}
	.st2{fill:url(#SVGID_2_);}
	.st3{fill:url(#SVGID_3_);}
	.st4{fill:url(#SVGID_4_);}
	.st5{fill:url(#SVGID_5_);}
	.st6{fill:url(#SVGID_6_);}
	.st7{fill:url(#SVGID_7_);}
	.st8{fill:url(#SVGID_8_);}
	.st9{fill:url(#SVGID_9_);}
	.st10{fill:url(#SVGID_10_);}
	.st11{fill:url(#SVGID_11_);}
	.st12{fill:url(#SVGID_12_);}
	.st13{fill:url(#SVGID_13_);}
	.st14{fill:url(#SVGID_14_);}
	.st15{fill:url(#SVGID_15_);}
	.st16{fill:url(#SVGID_16_);}
	.st17{fill:url(#SVGID_17_);}
	.st18{fill:url(#SVGID_18_);}
	.st19{fill:url(#SVGID_19_);}
	.st20{fill:url(#SVGID_20_);}
	.st21{fill:url(#SVGID_21_);}
</style>
<g>
	<linearGradient id="SVGID_1_" gradientUnits="userSpaceOnUse" x1="10.8218" y1="57.4916" x2="109.0062" y2="57.4916">
		<stop  offset="0" style="stop-color:#A2DED7"/>
		<stop  offset="1" style="stop-color:#F1A3A7"/>
	</linearGradient>
	<path class="st0" d="M83.2,103.7l-0.2-0.3c23.7-12.7,32.6-42.3,19.9-66s-42.3-32.6-66-19.9c-3.4,1.9-6.7,4.1-9.6,6.7
		c-20,18-21.6,48.8-3.6,68.8c2.6,2.9,5.6,5.5,8.8,7.7l-0.2,0.3C18.1,91.4,10,75,10.9,57.9C12.3,30.8,35.4,10,62.4,11.4
		s47.9,24.5,46.5,51.5c-0.4,8.6-3.1,16.9-7.8,24.1C96.7,94,90.5,99.7,83.2,103.7z"/>
</g>
<g>
	<polygon class="st1" points="20.2,26.1 23,34.4 14.3,70.8 11,75.8 13.6,81.3 18.2,80.2 28.2,95.2 28.2,100 33.7,103.8 63.2,85.2 
		94.9,96 102.1,87.9 102.1,82.8 104.4,44.6 107.7,42.3 102.4,32 97.4,32 80.4,18.4 82,14.3 70.1,10.5 64.8,13.1 35,20.6 29.9,18.9 	
		"/>
</g>
<g>
	<linearGradient id="SVGID_2_" gradientUnits="userSpaceOnUse" x1="64.7055" y1="111.2653" x2="63.9646" y2="99.8738">
		<stop  offset="0" style="stop-color:#A2DED7"/>
		<stop  offset="1" style="stop-color:#F1A3A7"/>
	</linearGradient>
	<path class="st2" d="M64.7,109.1V100c0-0.4,0.6-0.4,0.6-0.4h-2c0,0,0.6,0,0.6,0.4v9.1c0,0.4-0.6,0.4-0.6,0.4h2
		C65.3,109.5,64.7,109.5,64.7,109.1z"/>
</g>
<g>
	<linearGradient id="SVGID_3_" gradientUnits="userSpaceOnUse" x1="59.851" y1="111.5811" x2="59.1101" y2="100.1896">
		<stop  offset="0" style="stop-color:#A2DED7"/>
		<stop  offset="1" style="stop-color:#F1A3A7"/>
	</linearGradient>
	<path class="st3" d="M62.1,109.2h-3.9V100c0-0.4,0.6-0.4,0.6-0.4h-2c0,0,0.6,0,0.6,0.4v9.1c0,0.4-0.6,0.4-0.6,0.4h5.7v-0.9
		C62.6,108.7,62.5,109.2,62.1,109.2z"/>
</g>
<g>
	<linearGradient id="SVGID_4_" gradientUnits="userSpaceOnUse" x1="69.087" y1="110.9804" x2="68.3461" y2="99.5889">
		<stop  offset="0" style="stop-color:#A2DED7"/>
		<stop  offset="1" style="stop-color:#F1A3A7"/>
	</linearGradient>
	<path class="st4" d="M71.4,109.2h-3.9V100c0-0.4,0.6-0.4,0.6-0.4h-2c0,0,0.6,0,0.6,0.4v9.1c0,0.4-0.6,0.4-0.6,0.4h5.7v-0.9
		C71.8,108.7,71.8,109.2,71.4,109.2z"/>
</g>
<g>
	<linearGradient id="SVGID_5_" gradientUnits="userSpaceOnUse" x1="76.1307" y1="110.5222" x2="75.3898" y2="99.1307">
		<stop  offset="0" style="stop-color:#A2DED7"/>
		<stop  offset="1" style="stop-color:#F1A3A7"/>
	</linearGradient>
	<path class="st5" d="M75.9,104.5l2.8-4.5c0.2-0.2,0.5-0.4,0.9-0.4H78c0,0,0.6,0,0.4,0.4l-2.7,4.3l-2.6-4.3
		c-0.3-0.4,0.4-0.4,0.4-0.4h-2.2c0.3,0,0.7,0.2,0.9,0.4l0,0l2.9,4.7v4.4c0,0.4-0.6,0.4-0.6,0.4h2c0,0-0.6,0-0.6-0.4L75.9,104.5
		L75.9,104.5z"/>
</g>
<linearGradient id="SVGID_6_" gradientUnits="userSpaceOnUse" x1="51.98" y1="113.0684" x2="51.98" y2="99.7259">
	<stop  offset="0" style="stop-color:#A2DED7"/>
	<stop  offset="1" style="stop-color:#F1A3A7"/>
</linearGradient>
<path class="st6" d="M55.6,98.9c0-0.3-0.2-0.5-0.5-0.5h-2.6c-0.2,0-0.4,0.2-0.5,0.4c-0.1-0.2-0.2-0.4-0.5-0.4h-2.6
	c-0.3,0-0.5,0.2-0.5,0.5c0,0.2,0.1,0.4,0.3,0.5c-0.1,0.2-0.2,0.4-0.2,0.6v1c0,0.3,0.2,0.5,0.5,0.5c0,0,0,0,0,0l0,0.6
	c0.1,0.4,0.4,0.7,0.8,0.7h0.5l-1.1,0c-0.3,0-0.5,0.2-0.5,0.5c0,0.3,0.2,0.5,0.5,0.5h1.1l-1.1,0c-0.4,0-0.8,0.4-0.8,0.8v5.1
	c0,0.3,0.2,0.5,0.5,0.5c0.3,0,0.5-0.2,0.5-0.5v-4.9h0.4c-0.2,0.2-0.3,0.4-0.3,0.6c0,0.3,0,0.5,0.2,0.8c0.2,0.2,0.4,0.4,0.7,0.4
	c0.1,0,0.1,0,0.2,0l0.6,0h-0.8c0,0,0,0,0,0c-0.4,0-0.8,0.3-0.8,0.8v2.3c0,0.3,0.2,0.5,0.5,0.5c0.3,0,0.5-0.2,0.5-0.5v-2.1h0.1v1.8
	c0,0.3,0.2,0.5,0.5,0.5c0.3,0,0.5-0.2,0.5-0.5v-1.9c0.3-0.2,0.5-0.5,0.5-0.9c0,0,0,0,0,0h0.1c0.1,0,0.3,0,0.3-0.1
	c-0.1,0.1-0.1,0.3-0.1,0.5v2.8c0,0.3,0.2,0.5,0.5,0.5c0,0,0,0,0,0c0.1,0,0.2,0,0.3-0.1c0.1-0.1,0.2-0.2,0.2-0.4v0c0,0,0,0,0.1,0.1
	c0.1,0.1,0.2,0.2,0.3,0.2l0.1,0c0.3,0,0.5-0.2,0.5-0.5v-3.1c0.3-0.2,0.4-0.6,0.4-0.9c0-0.3-0.2-0.6-0.5-0.7c0.4-0.2,0.6-0.5,0.6-0.9
	c0-0.6-0.5-1-1-1h-0.5l0.5,0c0.4,0,0.7-0.3,0.8-0.7v-0.6c0,0,0,0,0.1,0H55l0.1,0c0.2-0.1,0.4-0.3,0.4-0.5l0-0.9c0-0.2,0-0.5-0.2-0.6
	C55.4,99.4,55.6,99.2,55.6,98.9z M53.8,101.4l0,0.4h-1.3l0-0.3c0,0,0.1,0,0.1,0c0.3,0,0.5-0.2,0.5-0.5v-0.1h1.1
	C54,100.9,53.8,101.2,53.8,101.4z M51,105.6l-0.4,0L51,105.6C51,105.6,51,105.6,51,105.6z M50.8,100.9L50.8,100.9
	c0,0.4,0.2,0.6,0.5,0.6c0,0,0,0,0,0c0,0,0.1,0,0.1,0v0.3h-1.3v-0.4c0-0.2-0.1-0.4-0.3-0.5H50.8z M52.3,104.9
	c-0.1,0.1-0.2,0.1-0.3,0.1l-0.1,0c-0.1,0-0.1,0-0.2-0.1H52.3z M54,105.6c-0.1,0-0.2,0-0.3,0l-0.1,0H54z M54.4,100.9L54.4,100.9
	L54.4,100.9C54.4,100.9,54.4,100.9,54.4,100.9z M52,99.1c0,0.2,0.2,0.3,0.4,0.4c-0.1,0.1-0.2,0.3-0.2,0.5v0.9c0,0-0.1,0-0.1,0
	c0,0-0.1,0-0.1,0l0-0.9c0-0.2-0.1-0.4-0.2-0.6C51.8,99.4,51.9,99.3,52,99.1z M52.8,105.8c0,0,0.1,0,0.1-0.1l0.6,0
	c-0.2,0.1-0.4,0.3-0.6,0.5c0,0,0,0,0,0C52.9,106,52.8,105.9,52.8,105.8z"/>
<linearGradient id="SVGID_7_" gradientUnits="userSpaceOnUse" x1="43.7832" y1="113.0684" x2="43.7832" y2="99.7259">
	<stop  offset="0" style="stop-color:#A2DED7"/>
	<stop  offset="1" style="stop-color:#F1A3A7"/>
</linearGradient>
<path class="st7" d="M47,101.8l-1.9-1l-0.8-0.5v-1.2c0-0.3-0.2-0.5-0.5-0.5c0,0,0,0,0,0c-0.1,0-0.3,0-0.4,0.1
	c-0.1,0.1-0.2,0.2-0.2,0.4v1.2l-2.7,1.5c-0.1,0.1-0.2,0.2-0.3,0.3s0,0.3,0,0.4c0.1,0.1,0.2,0.2,0.3,0.3c0.1,0,0.3,0,0.4,0l1.1-0.6v7
	h-1.3c-0.1,0-0.3,0.1-0.4,0.1c-0.1,0.1-0.2,0.2-0.1,0.4c0,0.3,0.2,0.5,0.5,0.5h5.8c0.3,0,0.5-0.2,0.5-0.5s-0.2-0.5-0.5-0.5h-1.2V102
	l1.2,0.7c0.3,0.1,0.6-0.1,0.6-0.3C47.3,102.1,47.2,101.9,47,101.8z M43.1,109.1v-7.6l0.6-0.4l0.6,0.3v7.6H43.1z"/>
<g>
	<linearGradient id="SVGID_8_" gradientUnits="userSpaceOnUse" x1="55.7196" y1="108.3817" x2="56.2824" y2="16.0754">
		<stop  offset="0" style="stop-color:#A2DED7"/>
		<stop  offset="1" style="stop-color:#F1A3A7"/>
	</linearGradient>
	<path class="st8" d="M101.1,94.5c0.1-4-0.2-8-1-11.9c-0.8-3.9-2.2-7.7-4.1-11.2c-1-1.7-2.1-3.4-3.4-4.9c-1.3-1.5-2.7-2.9-4.2-4.2
		c-1.5-1.3-3.1-2.4-4.8-3.4c-1.7-1-3.5-1.8-5.3-2.6c1.8,0.8,3.5,1.7,5.2,2.8c1.7,1,3.2,2.2,4.7,3.5c2.9,2.6,5.3,5.7,7.2,9.2
		c1.8,3.5,3.1,7.2,3.7,11c0.6,3.6,0.9,7.3,0.8,10.9l-0.6-0.1c-0.4-0.1-0.8-0.1-1.3-0.2c-0.8-0.2-1.7-0.4-2.5-0.6
		c-1.7-0.5-3.3-1-4.9-1.7c-1.6-0.7-3.2-1.4-4.7-2.1c-1.6-0.8-3.1-1.6-4.5-2.6c-3-1.8-5.8-3.9-8.4-6.1c-2.7-2.2-5.2-4.6-7.6-7.1l-1-1
		l-0.7,1.2c-0.9,1.7-1.9,3.4-3,5s-2.2,3.2-3.3,4.8c-1.2,1.5-2.4,3-3.8,4.3c-0.7,0.6-1.4,1.2-2.2,1.8l-0.6,0.4l-0.3,0.2L50,90.1
		l-1.3,0.7c-1.7,0.9-3.5,1.9-5.2,2.9s-3.4,2-5,3.2c-1.7,1.1-3.2,2.4-4.7,3.8c-0.7,0.7-1.4,1.5-2,2.3c-0.2,0.3-0.4,0.6-0.6,0.9
		l-0.1-0.4c-0.1-0.8-0.2-1.6-0.3-2.4c-0.2-1.6-0.3-3.3-0.3-4.9c0-3.3,0.3-6.5,1.1-9.7c1.1-4.8,3.1-9.4,6-13.5c0.9-1.4,1.9-2.7,3-3.9
		c-1.2,1.2-2.2,2.5-3.2,3.8c-1,1.3-1.9,2.7-2.7,4.2c-0.2,0.4-0.5,0.8-0.7,1.3c-1.6-0.9-3.4-1.4-5.2-1.6c-1.9-0.3-3.8-0.3-5.7-0.2
		c-1.9,0.1-3.8,0.3-5.6,0.6c-0.9,0.1-1.9,0.3-2.8,0.5l-0.8,0.2l0.6-1.1c0.5-0.9,1.1-1.8,1.7-2.8c0.3-0.4,0.6-0.9,0.9-1.3l1-1.3
		l1-1.3c0.3-0.4,0.6-0.9,1-1.3c0.7-0.8,1.4-1.6,2.1-2.4l0.5-0.6c0.2-0.2,0.4-0.4,0.5-0.6l1.2-1.1c0.4-0.4,0.8-0.7,1.2-1l0.6-0.5
		c0.1-0.1,0.2-0.2,0.3-0.2l0.3-0.2l1.2-0.9l1.4-0.8l0.3-0.2c0.1-0.1,0.2-0.1,0.4-0.2l0.7-0.4c0.2-0.1,0.5-0.2,0.7-0.4l0.7-0.3
		l0.7-0.3c0.1-0.1,0.2-0.1,0.4-0.2l0.4-0.1l0.7-0.3l0.4-0.1l0.4-0.1l0.8-0.2l0.4-0.1l0.4-0.1l0.8-0.2c0.3-0.1,0.5-0.1,0.8-0.2
		c1-0.2,2.1-0.3,3.2-0.4c4.3-0.2,8.6,0.5,12.6,2.1c-0.5-0.3-0.9-0.5-1.4-0.8c-0.5-0.2-1-0.5-1.5-0.7c-1-0.4-2.1-0.7-3.1-1
		c-1.1-0.3-2.2-0.5-3.3-0.6l-0.8-0.1L43,55.5c-0.6-0.1-1.1-0.1-1.7-0.1h-0.7c-2.1-2.2-4-4.5-5.7-7c-1-1.3-1.8-2.7-2.7-4.2
		s-1.6-2.8-2.4-4.3c-1.5-2.9-2.8-5.9-3.9-9c-0.5-1.5-1.1-3.1-1.5-4.7c-0.2-0.8-0.5-1.6-0.6-2.4c-0.1-0.4-0.2-0.8-0.3-1.2v-0.1h1.1
		c0.8,0,1.5,0,2.3,0c1.5,0,3,0.1,4.6,0.2s3,0.3,4.6,0.5s3,0.5,4.5,0.9s3,0.8,4.4,1.2c1.4,0.5,2.9,1.1,4.2,1.7c0.7,0.3,1.4,0.7,2,1
		s1.3,0.8,2,1.2s1.3,0.9,1.9,1.4s1.2,1,1.8,1.5c-2-2.4-4.5-4.4-7.2-5.9c-1.4-0.8-2.8-1.4-4.2-2c-0.7-0.3-1.5-0.6-2.2-0.8
		s-1.5-0.5-2.2-0.7c-3-0.9-6.1-1.5-9.2-1.9c-1.6-0.2-3.1-0.3-4.7-0.4c-0.8,0-1.6,0-2.4,0s-1.6,0-2.4,0.1l-1.1,0.1l0.2,1.1
		c0.1,0.4,0.2,0.9,0.3,1.3s0.2,0.8,0.3,1.2c0.2,0.8,0.4,1.6,0.7,2.4c0.5,1.6,1,3.2,1.6,4.8c1.2,3.2,2.6,6.2,4.2,9.2
		c0.8,1.5,1.7,2.9,2.6,4.3c0.5,0.7,1,1.4,1.5,2s1,1.3,1.5,2c1.9,2.3,4.1,4.5,6.4,6.4c-1.9,0.1-3.8,0.3-5.7,0.8l-0.4,0.1l-0.4,0.1
		l-0.8,0.2l-0.4,0.1c-0.1,0-0.3,0.1-0.4,0.1l-0.8,0.3l-0.8,0.3c-0.3,0.1-0.5,0.2-0.8,0.4l-0.8,0.4l-0.4,0.2l-0.4,0.2L27,59.6
		l-1.4,0.9l-0.3,0.2L24.9,61l-0.7,0.5c-0.4,0.3-0.9,0.7-1.3,1.1l-1.2,1.1c-0.2,0.2-0.4,0.4-0.6,0.6l-0.6,0.6
		c-0.8,0.8-1.5,1.7-2.2,2.5c-2.8,3.5-5.1,7.2-6.9,11.3l-0.9,1.8l1.9-0.6c0.9-0.3,1.8-0.5,2.7-0.8s1.8-0.4,2.7-0.6
		c1.8-0.4,3.6-0.7,5.5-0.9c1.8-0.2,3.7-0.3,5.5-0.2c0.9,0,1.8,0.1,2.8,0.3c0.9,0.2,1.7,0.4,2.5,0.7c-1.3,2.5-2.3,5.2-3,8
		c-0.4,1.6-0.8,3.3-1,4.9c-0.2,1.7-0.4,3.3-0.4,5c0,1.7,0,3.3,0.1,5c0.1,0.8,0.2,1.7,0.3,2.5c0.1,0.4,0.1,0.8,0.2,1.2
		s0.2,0.8,0.3,1.3l0.5,2.1l0.7-2.1c0.3-0.9,0.8-1.7,1.3-2.4c0.6-0.8,1.2-1.5,1.9-2.1c1.4-1.3,2.9-2.5,4.5-3.6
		c3.3-2.1,6.7-4,10.2-5.8l1.3-0.7l0.3-0.2l0.3-0.2c0.2-0.1,0.5-0.3,0.7-0.4c0.9-0.6,1.7-1.2,2.5-1.9c1.5-1.4,2.8-2.9,4.1-4.5
		c1.2-1.6,2.4-3.2,3.5-4.9c0.8-1.3,1.6-2.6,2.4-4c2.2,2.2,4.5,4.3,6.8,6.3l1,0.8l1.1,0.8c0.7,0.6,1.4,1.1,2.2,1.6c1.5,1,3,2,4.5,2.9
		c3.1,1.8,6.3,3.4,9.7,4.6c1.7,0.6,3.4,1.1,5.1,1.6c0.9,0.2,1.8,0.4,2.6,0.5c0.4,0.1,0.9,0.1,1.3,0.2l0.7,0.1c0.2,0,0.4,0,0.7,0h0.7
		L101.1,94.5z"/>
</g>
<g>
	<linearGradient id="SVGID_9_" gradientUnits="userSpaceOnUse" x1="87.7907" y1="107.5872" x2="80.7551" y2="10.2153">
		<stop  offset="0" style="stop-color:#A2DED7"/>
		<stop  offset="1" style="stop-color:#F1A3A7"/>
	</linearGradient>
	<path class="st9" d="M82.6,55.8c1.4-0.4,2.8-0.9,4.1-1.6c1.3-0.6,2.7-1.3,3.9-2s2.6-1.5,3.8-2.3c2.5-1.6,4.9-3.2,7.3-5
		c2.4-1.8,4.7-3.6,6.9-5.5l0.8-0.6l-0.8-0.6c-1.1-0.9-2.4-1.7-3.6-2.3c-1.3-0.7-2.6-1.2-4-1.7c-1.3-0.5-2.7-0.9-4.1-1.2
		s-2.8-0.6-4.2-0.9c-2.8-0.5-5.6-0.8-8.4-1C83,31,81.5,31,80.1,30.9c-1.1,0-2.2,0-3.2,0c0-1.4,0.1-2.9,0.2-4.3
		c0.1-0.9,0.2-1.8,0.4-2.6s0.3-1.7,0.5-2.6c0.4-1.7,0.9-3.4,1.5-5.1c0.3-0.8,0.6-1.7,0.9-2.5c0.2-0.4,0.3-0.8,0.5-1.2
		s0.4-0.8,0.6-1.2l0.6-1.3l-1.4,0.1c-2.9,0.1-5.8,0.6-8.5,1.5c-2.8,0.9-5.4,2.2-7.7,3.9c-2.3,1.7-4.3,3.8-5.9,6.3
		c-0.8,1.2-1.4,2.5-1.9,3.8c-0.3,0.7-0.5,1.3-0.7,2c-0.2,0.7-0.3,1.4-0.4,2.1c0.3-1.4,0.7-2.7,1.3-4c0.6-1.3,1.3-2.5,2.2-3.6
		c1.6-2.3,3.7-4.2,6-5.8c2.3-1.5,4.9-2.6,7.5-3.4c2.2-0.6,4.5-1,6.8-1.1c-0.2,0.4-0.4,0.8-0.6,1.2c-0.4,0.9-0.7,1.7-1,2.6
		c-0.6,1.7-1.2,3.5-1.6,5.3c-0.2,0.9-0.4,1.8-0.6,2.7s-0.3,1.8-0.4,2.7C75,28.3,74.9,30.1,75,32v1h1c1.3,0,2.7,0,4.1,0
		s2.8,0.1,4.1,0.2c2.8,0.2,5.5,0.5,8.2,0.9c1.3,0.2,2.7,0.5,4,0.8s2.6,0.7,3.9,1.1c2.2,0.7,4.4,1.7,6.4,3c-1.9,1.7-3.9,3.3-5.9,4.9
		c-2.3,1.8-4.6,3.6-7,5.2c-2.4,1.7-4.8,3.2-7.4,4.6c-1.3,0.7-2.6,1.3-4,1.8c-1.4,0.5-2.8,0.9-4.2,0.9c0.7,0,1.5,0,2.2-0.1
		C81.2,56.2,81.9,56.1,82.6,55.8z"/>
</g>
<g>
	<linearGradient id="SVGID_10_" gradientUnits="userSpaceOnUse" x1="26.28" y1="53.355" x2="98.94" y2="53.355">
		<stop  offset="0" style="stop-color:#A2DED7"/>
		<stop  offset="1" style="stop-color:#F1A3A7"/>
	</linearGradient>
	<path class="st10" d="M56.5,35.6c-0.3-1.5-1.1-2.7-1.8-2.6s-1,1.5-0.8,3c0.3,1.4,0.9,2.4,1.5,2.6c0.1,1.2,0.3,2.3,0.5,3.5
		s0.3,2.1,0.5,3.1l0.3,1.6l0.2,1.6c0.4,2.1,0.8,4.2,1.2,6.2l0.2,1.2c0-0.1,0-0.1-0.1-0.2c-0.6-1.7-1.3-3.3-2-4.9
		c-0.4-0.8-0.7-1.6-1.1-2.4l-0.6-1.2L54,45.9c-0.4-0.7-0.8-1.5-1.2-2.2h0.1c0.6-0.4,0.3-1.8-0.6-3.1s-2.1-2-2.7-1.6
		s-0.3,1.8,0.6,3.1c0.5,0.9,1.4,1.5,2.4,1.7c0.4,0.8,0.8,1.5,1.1,2.3l0.5,1.2l0.5,1.2c0.4,0.8,0.7,1.6,1,2.4c0.6,1.5,1.2,3,1.8,4.5
		c-0.4-0.7-0.8-1.3-1.3-2s-1-1.5-1.5-2.2c-2-3-4.2-5.8-6.6-8.6c-2.3-2.7-4.8-5.4-7.4-7.9c-1.3-1.2-2.7-2.4-4-3.6
		c-1.4-1.2-2.8-2.3-4.3-3.3c0.7,0.5,1.4,1.1,2.1,1.7s1.3,1.2,2,1.8c1.3,1.2,2.6,2.5,3.8,3.8c2.5,2.6,4.9,5.2,7.1,8
		c1.1,1.4,2.2,2.8,3.3,4.2s2.1,2.9,3.1,4.4c1.2,1.8,2.4,3.7,3.6,5.7L57,57.2c-1.1-1-2.2-2-3.4-2.9c-1.2-0.9-2.4-1.8-3.7-2.6
		c-0.5-0.3-1-0.6-1.5-0.9c-0.2-0.9-0.8-1.8-1.6-2.3c-1.3-1-2.6-1.2-3.1-0.7s0.2,1.8,1.5,2.8s2.6,1.2,3.1,0.7
		c0.1-0.1,0.1-0.1,0.1-0.2c0.5,0.3,0.9,0.6,1.4,0.9c0.6,0.4,1.2,0.9,1.8,1.3s1.2,0.9,1.7,1.4c1.1,1,2.2,2,3.3,3
		c0.8,0.8,1.5,1.5,2.2,2.4L57.6,60l-1.2-0.1h-0.6h-0.6c-1.5,0-3.1,0-4.6,0.1l-1.2,0c-0.4,0-0.8,0-1.2,0.1l-2.3,0.3
		c-0.4,0-0.8,0.1-1.1,0.2l-1.2,0.2l-0.6,0.1h-0.3l-0.3,0.1l-1.1,0.3l-1.1,0.3c-0.4,0.1-0.7,0.2-1.1,0.4l-1.1,0.4
		c-0.4,0.1-0.7,0.3-1.1,0.4l-1.1,0.5l-1,0.5l-0.5,0.3C34.4,64,34.2,64,34,64.1l-1,0.6L32.5,65l-0.5,0.3L31.1,66
		c-0.6,0.5-1.2,1-1.8,1.5c-0.6,0.5-1.1,1.1-1.6,1.6L27,70.1l-0.7,0.9c1-1.1,2.1-2.2,3.3-3.2c0.6-0.5,1.2-0.9,1.8-1.4
		c0.3-0.2,0.6-0.4,1-0.6l0.5-0.3c0.2-0.1,0.3-0.2,0.5-0.3c2.7-1.4,5.5-2.5,8.5-3.1l1.1-0.1c0.1,0,0.2,0,0.3-0.1h0.3l0.6-0.1l1.1-0.2
		c0.4,0,0.8-0.1,1.1-0.2l2.3-0.2c0.4,0,0.8,0,1.1-0.1h1.1c1.5-0.1,3,0,4.5,0h0.6h0.6l1.1,0.1h0.8c-0.8,0.7-1.6,1.4-2.4,2.2
		c-1.1,1.1-2.2,2.2-3.3,3.3s-2.2,2.2-3.2,3.4c-0.5,0.6-1,1.2-1.6,1.8s-1,1.2-1.5,1.8c-2,2.4-3.8,4.9-5.5,7.5
		c-1.7,2.6-3.1,5.4-4.1,8.3c1.3-2.8,2.8-5.5,4.6-8c0.9-1.3,1.8-2.5,2.8-3.7s2-2.4,3-3.6c2-2.3,4.2-4.6,6.3-6.7s4.3-4.2,6.6-6.1h0.1
		l0.3,0.1l0.7,0.2c0.5,0.1,0.9,0.3,1.4,0.4c0.9,0.3,1.8,0.7,2.7,1.1c1.8,0.8,3.5,1.7,5.2,2.7c1.7,1,3.3,2.1,4.9,3.2l1.2,0.9l1.2,0.9
		l1.2,0.9c0.4,0.3,0.8,0.6,1.1,0.9c0.8,0.6,1.5,1.2,2.2,1.9c0.4,0.3,0.8,0.6,1.1,1l1.1,1l1.1,1l1.1,1l2.1,2.1
		c2.8,2.8,5.5,5.7,8.1,8.7c-2.4-3.1-5-6.2-7.7-9.1c-0.7-0.7-1.4-1.4-2.1-2.2l-1-1.1c-0.3-0.3-0.7-0.7-1-1c-0.7-0.7-1.4-1.4-2.2-2
		s-1.5-1.3-2.2-2c-3.1-2.7-6.3-5.1-9.8-7.3c-1.7-1.1-3.5-2-5.3-2.8c-0.9-0.4-1.8-0.8-2.8-1.1c-0.5-0.2-1-0.3-1.5-0.5l-0.7-0.2
		c0.3-0.6,0.7-1.1,1.1-1.7c0.6-0.8,1.2-1.5,1.8-2.2c1.3-1.4,2.7-2.7,4.2-3.9c3-2.4,6.2-4.6,9.5-6.5c3.3-2,6.8-3.7,10.4-5.1
		c1.8-0.7,3.6-1.3,5.5-1.8c0.9-0.2,1.9-0.5,2.8-0.6c1-0.2,1.9-0.3,2.9-0.3c-1.9,0-3.9,0.2-5.8,0.6c-1.9,0.4-3.8,0.9-5.6,1.6
		c-7.4,2.6-14.2,6.5-20.4,11.3c-1.5,1.2-3,2.6-4.3,4c-0.7,0.7-1.3,1.5-1.9,2.3l-0.2,0.3c0.2-0.9,0.3-1.8,0.5-2.7
		c0.1-0.4,0.2-0.9,0.3-1.3l0.3-1.3c0.1-0.4,0.2-0.9,0.3-1.3s0.2-0.9,0.3-1.3c0.5-1.7,1-3.4,1.6-5.1c0.3-0.8,0.6-1.6,0.9-2.4l0,0
		c0.7,0.3,1.7-0.7,2.3-2.2s0.5-2.9-0.1-3.1s-1.7,0.7-2.3,2.2c-0.5,1.3-0.5,2.5-0.1,3c-0.4,0.8-0.7,1.6-1.1,2.4
		c-0.7,1.7-1.3,3.4-1.9,5.1s-1,3.5-1.4,5.2c-0.2,0.8-0.4,1.7-0.5,2.6v-0.2c-0.2-1-0.3-2-0.4-2.9c-0.2-2-0.3-3.9-0.3-5.9
		c-0.1-3.9,0.3-7.9,1.1-11.7c0.2-1,0.4-1.9,0.7-2.9c0.1-0.5,0.3-0.9,0.4-1.4s0.3-0.9,0.5-1.4c0.3-0.9,0.7-1.8,1.1-2.7
		s0.9-1.8,1.3-2.7c2-3.4,4.5-6.5,7.6-9c-0.8,0.6-1.6,1.2-2.3,1.9s-1.5,1.4-2.2,2.1c-0.7,0.7-1.3,1.5-1.9,2.3
		c-0.6,0.8-1.2,1.6-1.7,2.5s-1,1.7-1.5,2.6s-0.9,1.8-1.2,2.7c-0.4,0.9-0.7,1.9-1,2.8s-0.6,2-0.8,3s-0.4,2-0.6,3s-0.3,2-0.4,3
		c-0.2,2-0.3,4-0.3,6c0,0.6,0,1.2,0,1.9l-0.5-2.5c-0.4-2.1-0.9-4.1-1.3-6.2c-0.2-1.1-0.5-2.3-0.7-3.4h0.1
		C56.5,38.5,56.8,37.2,56.5,35.6z"/>
</g>
<g>
	<linearGradient id="SVGID_11_" gradientUnits="userSpaceOnUse" x1="47" y1="66.845" x2="51.71" y2="66.845">
		<stop  offset="0" style="stop-color:#A2DED7"/>
		<stop  offset="1" style="stop-color:#F1A3A7"/>
	</linearGradient>
	<path class="st11" d="M48.7,66.3c-0.4,0.5-0.7,1-1,1.5c-0.3,0.5-0.5,1.1-0.7,1.7c0.3-0.5,0.6-1,0.9-1.5c0.3-0.5,0.7-1,1.1-1.5
		c0.4-0.5,0.8-0.9,1.3-1.3c0.5-0.4,0.9-0.8,1.5-1.1c-0.6,0.2-1.1,0.5-1.6,0.8C49.6,65.4,49.1,65.8,48.7,66.3z"/>
</g>
<g>
	<linearGradient id="SVGID_12_" gradientUnits="userSpaceOnUse" x1="68" y1="63.5661" x2="77.34" y2="63.5661">
		<stop  offset="0" style="stop-color:#A2DED7"/>
		<stop  offset="1" style="stop-color:#F1A3A7"/>
	</linearGradient>
	<path class="st12" d="M70.6,61.9c0.8,0.2,1.6,0.6,2.4,0.9c0.8,0.4,1.5,0.8,2.3,1.3c0.7,0.5,1.4,1,2.1,1.6c-0.5-0.7-1.2-1.3-1.9-1.9
		c-0.7-0.6-1.5-1-2.3-1.4c-0.8-0.4-1.7-0.7-2.5-0.9c-0.9-0.2-1.8-0.3-2.7-0.3C68.9,61.5,69.7,61.7,70.6,61.9z"/>
</g>
<g>
	<linearGradient id="SVGID_13_" gradientUnits="userSpaceOnUse" x1="64.24" y1="67.575" x2="70.61" y2="67.575">
		<stop  offset="0" style="stop-color:#A2DED7"/>
		<stop  offset="1" style="stop-color:#F1A3A7"/>
	</linearGradient>
	<path class="st13" d="M68.2,66.8c-0.6-0.6-1.2-1-1.8-1.5c-0.7-0.4-1.4-0.8-2.1-1c0.7,0.4,1.3,0.8,1.9,1.2c0.6,0.5,1.2,1,1.7,1.5
		c0.5,0.5,1,1.1,1.5,1.7c0.4,0.6,0.9,1.3,1.2,2c-0.2-0.7-0.6-1.5-1-2.1C69.2,68,68.7,67.4,68.2,66.8z"/>
</g>
<g>
	<linearGradient id="SVGID_14_" gradientUnits="userSpaceOnUse" x1="66" y1="60.2099" x2="75.81" y2="60.2099">
		<stop  offset="0" style="stop-color:#A2DED7"/>
		<stop  offset="1" style="stop-color:#F1A3A7"/>
	</linearGradient>
	<path class="st14" d="M68.6,59.2c0.9,0.1,1.7,0.2,2.5,0.3c0.8,0.2,1.7,0.4,2.4,0.8c0.8,0.3,1.6,0.7,2.2,1.2
		c-0.6-0.6-1.3-1.2-2.1-1.5c-0.8-0.4-1.6-0.7-2.5-0.9c-0.9-0.2-1.7-0.3-2.6-0.3c-0.9,0-1.8,0.1-2.6,0.4
		C66.9,59.2,67.7,59.1,68.6,59.2z"/>
</g>
<g>
	<linearGradient id="SVGID_15_" gradientUnits="userSpaceOnUse" x1="67.06" y1="55.4081" x2="73.18" y2="55.4081">
		<stop  offset="0" style="stop-color:#A2DED7"/>
		<stop  offset="1" style="stop-color:#F1A3A7"/>
	</linearGradient>
	<path class="st15" d="M69.8,54.8c0.5-0.2,1.1-0.3,1.6-0.4c0.6-0.1,1.1-0.1,1.7-0.1c-0.6-0.1-1.2-0.2-1.8-0.2
		c-1.2,0-2.4,0.5-3.2,1.3c-0.4,0.4-0.8,0.9-1.1,1.3c0.4-0.4,0.9-0.8,1.3-1.1C68.8,55.3,69.3,55,69.8,54.8z"/>
</g>
<g>
	<linearGradient id="SVGID_16_" gradientUnits="userSpaceOnUse" x1="63.15" y1="50.925" x2="69.43" y2="50.925">
		<stop  offset="0" style="stop-color:#A2DED7"/>
		<stop  offset="1" style="stop-color:#F1A3A7"/>
	</linearGradient>
	<path class="st16" d="M63.2,53.7c0.3-0.7,0.7-1.3,1.1-1.9c0.4-0.6,0.9-1.1,1.4-1.6c0.6-0.5,1.2-0.8,1.8-1.2c0.6-0.3,1.3-0.6,2-0.9
		c-0.7,0.1-1.5,0.3-2.2,0.6c-0.7,0.3-1.4,0.7-1.9,1.2c-0.5,0.5-1,1.1-1.3,1.7C63.6,52.3,63.3,53,63.2,53.7z"/>
</g>
<g>
	<linearGradient id="SVGID_17_" gradientUnits="userSpaceOnUse" x1="45.85" y1="64.265" x2="51.5" y2="64.265">
		<stop  offset="0" style="stop-color:#A2DED7"/>
		<stop  offset="1" style="stop-color:#F1A3A7"/>
	</linearGradient>
	<path class="st17" d="M48.4,63.6c-0.5,0.2-0.9,0.4-1.4,0.8c-0.4,0.3-0.8,0.7-1.1,1.1c0.4-0.3,0.9-0.6,1.3-0.8
		c0.4-0.2,0.9-0.4,1.4-0.6c0.5-0.2,1-0.4,1.5-0.5c0.5-0.1,1-0.2,1.5-0.3c-0.5-0.1-1-0.1-1.6,0C49.4,63.3,48.9,63.4,48.4,63.6z"/>
</g>
<g>
	<linearGradient id="SVGID_18_" gradientUnits="userSpaceOnUse" x1="44.55" y1="58.5942" x2="50.55" y2="58.5942">
		<stop  offset="0" style="stop-color:#A2DED7"/>
		<stop  offset="1" style="stop-color:#F1A3A7"/>
	</linearGradient>
	<path class="st18" d="M47.5,58.5c0.5,0,1,0,1.5,0c0.5,0,1,0.1,1.5,0.2c-0.5-0.2-1-0.4-1.5-0.5c-0.5-0.1-1-0.1-1.6-0.1
		c-0.5,0-1,0.1-1.5,0.3c-0.5,0.1-1,0.4-1.4,0.7c0.5-0.1,1-0.2,1.5-0.3C46.5,58.6,47,58.6,47.5,58.5z"/>
</g>
<g>
	<linearGradient id="SVGID_19_" gradientUnits="userSpaceOnUse" x1="54.78" y1="68.535" x2="57.6209" y2="68.535">
		<stop  offset="0" style="stop-color:#A2DED7"/>
		<stop  offset="1" style="stop-color:#F1A3A7"/>
	</linearGradient>
	<path class="st19" d="M57,67.3c-0.2,0.4-0.5,0.8-0.7,1.3s-0.5,0.8-0.7,1.2l-0.4,0.6c-0.1,0.2-0.3,0.4-0.4,0.6
		c0.2-0.1,0.4-0.3,0.6-0.5c0.2-0.2,0.3-0.4,0.5-0.6c0.3-0.4,0.6-0.8,0.8-1.2c0.2-0.4,0.5-0.9,0.6-1.3c0.1-0.2,0.2-0.5,0.2-0.7
		c0.1-0.2,0.1-0.5,0.1-0.7c-0.1,0.2-0.2,0.5-0.3,0.7C57.2,66.9,57.1,67.1,57,67.3z"/>
</g>
<g>
	<linearGradient id="SVGID_20_" gradientUnits="userSpaceOnUse" x1="55.33" y1="71.665" x2="59.3165" y2="71.665">
		<stop  offset="0" style="stop-color:#A2DED7"/>
		<stop  offset="1" style="stop-color:#F1A3A7"/>
	</linearGradient>
	<path class="st20" d="M57.6,72.6l-0.3,0.7c-0.1,0.2-0.2,0.5-0.3,0.7s-0.2,0.5-0.3,0.7c-0.4,1-0.9,1.9-1.5,2.8
		c0.7-0.8,1.3-1.7,1.8-2.6c0.5-1,0.9-2,1.2-3c0.3-1,0.6-2,0.7-3c0.1-0.5,0.2-1,0.2-1.6c0.1-0.5,0.1-1.1,0.1-1.6c0,0.5-0.1,1-0.2,1.6
		c-0.1,0.5-0.2,1-0.3,1.5c-0.3,1-0.5,2-0.9,3L57.6,72.6z"/>
</g>
<g>
	<linearGradient id="SVGID_21_" gradientUnits="userSpaceOnUse" x1="61.09" y1="68.925" x2="62.0337" y2="68.925">
		<stop  offset="0" style="stop-color:#A2DED7"/>
		<stop  offset="1" style="stop-color:#F1A3A7"/>
	</linearGradient>
	<path class="st21" d="M61.7,67.4c-0.1-0.2-0.1-0.5-0.2-0.7c-0.1-0.2-0.2-0.5-0.3-0.7c0.1,0.5,0.2,1,0.2,1.5c0.1,0.5,0.1,1,0.2,1.5
		s0.1,1,0.1,1.5c0,0.5,0,1,0,1.5c0.2-0.5,0.3-1,0.3-1.5c0-0.5,0-1,0-1.5C61.9,68.4,61.8,67.9,61.7,67.4z"/>
</g>
</svg>
