<?xml version="1.0" encoding="utf-8"?>
<!-- Generator: Adobe Illustrator 23.0.4, SVG Export Plug-In . SVG Version: 6.00 Build 0)  -->
<svg version="1.1" id="圖層_1" xmlns="http://www.w3.org/2000/svg" xmlns:xlink="http://www.w3.org/1999/xlink" x="0px" y="0px"
	 viewBox="0 0 120 120" style="enable-background:new 0 0 120 120;" xml:space="preserve">
<style type="text/css">
	.st0{fill:url(#SVGID_1_);}
	.st1{fill:url(#SVGID_2_);}
	.st2{opacity:0.4;}
	.st3{fill:url(#SVGID_3_);}
	.st4{fill:url(#SVGID_4_);}
	.st5{fill:url(#SVGID_5_);}
	.st6{fill:url(#SVGID_6_);}
	.st7{fill:url(#SVGID_7_);}
	.st8{fill:url(#SVGID_8_);}
	.st9{fill:url(#SVGID_9_);}
	.st10{fill:url(#SVGID_10_);}
	.st11{fill:url(#SVGID_11_);}
	.st12{fill:url(#SVGID_12_);}
	.st13{fill:url(#SVGID_13_);}
	.st14{fill:url(#SVGID_14_);}
	.st15{fill:url(#SVGID_15_);}
	.st16{fill:url(#SVGID_16_);}
	.st17{fill:url(#SVGID_17_);}
	.st18{fill:url(#SVGID_18_);}
	.st19{fill:url(#SVGID_19_);}
	.st20{fill:url(#SVGID_20_);}
</style>
<linearGradient id="SVGID_1_" gradientUnits="userSpaceOnUse" x1="60" y1="114.4026" x2="60" y2="9.8152">
	<stop  offset="0" style="stop-color:#A2DED7"/>
	<stop  offset="1" style="stop-color:#F1A3A7"/>
</linearGradient>
<path class="st0" d="M60,114.7C29.4,114.7,4.5,90.2,4.5,60S29.4,5.3,60,5.3s55.5,24.5,55.5,54.7S90.6,114.7,60,114.7z M60,7.7
	C30.7,7.7,6.9,31.2,6.9,60s23.8,52.3,53.1,52.3s53.1-23.4,53.1-52.3S89.3,7.7,60,7.7L60,7.7z"/>
<linearGradient id="SVGID_2_" gradientUnits="userSpaceOnUse" x1="60" y1="114.4026" x2="60" y2="9.8152">
	<stop  offset="0" style="stop-color:#A2DED7"/>
	<stop  offset="1" style="stop-color:#F1A3A7"/>
</linearGradient>
<path class="st1" d="M60,111.5C31.2,111.5,7.7,88.4,7.7,60S31.2,8.5,60,8.5s52.3,23.1,52.3,51.5S88.8,111.5,60,111.5z M60,10.3
	C32.1,10.3,9.5,32.6,9.5,60s22.7,49.7,50.5,49.7s50.5-22.3,50.5-49.7S87.9,10.3,60,10.3z"/>
<g class="st2">
	<linearGradient id="SVGID_3_" gradientUnits="userSpaceOnUse" x1="60" y1="20.654" x2="60" y2="99.6264">
		<stop  offset="0" style="stop-color:#A2DED7"/>
		<stop  offset="1" style="stop-color:#F1A3A7"/>
	</linearGradient>
	<path class="st3" d="M88.2,93.4c-0.8-4.1-3.6-7.6-6.3-10.7l0.2,5.6c1.8,0.8,2.9,2.7,2.7,4.7c0.1,1.3-0.4,2.6-1.2,3.6
		c-3.5,3.8-14.2,3.4-19,3.4H53c-7.1,0-12.5-0.6-12.5-9.2V73.7c-0.1-1.1,0.5-2.1,1.4-2.7L39,71.4c-0.4,0.4-0.8,0.7-1.3,1
		c2.3,1.4,2,4.4,2,6.8c0,6.1-2.4,12.6-7.4,16.3c-4.3,3.3-13.1,2.4-13.1-4.4c0-1.5,0.5-2.9,1.4-4.1c1.7-2,3.9-3,6-4.7
		c5.2-3.9,3.9-7.4,6.3-9.8c-0.5-0.4-0.9-0.9-1-1.6l0,0c-1.1-2.7-2-5.4-3-8.2l-0.1-0.3c-0.1-0.1-0.2-0.3-0.1-0.4c0-2,1-3.6,3.2-3.6
		h6.7c2.2,0,4.4,0,6.6-0.1c1-2.4,1.8-4.9,2.5-7.4c-2.8,2-5.9,3.5-9.2,4.7c-3.2,1.1-11.1,3.7-14.4,3.7c-1.2,0-2.4-0.6-3-1.6
		c-0.9-1.3-1-3-0.4-4.4c0.4-0.7,1.1-1.2,1.9-1.4c8.7-2.9,16.5-5.6,21-14.2h-5.4c-3,14.8-17.8,13.3-17.8,4.9
		c-0.1-1.9,0.7-3.6,2.1-4.8l-0.1,0.2c0.7-0.8,1.6-1.6,2.5-2.1c1.2-0.8,2.3-1.8,3.1-3c1.7-2.4,0.3-5.3,2-7c0.7-0.7,1.7-1.1,2.7-1.2
		c2.2,0,3.3,0.5,4.2,2.7c0.2,0.5,0.3,0.9,0.3,1.4h15.8v-5.6c0-0.9,0.4-1.8,1.1-2.4c0.7-0.6,1.7-0.9,2.6-0.8c3,0.2,6.2,0.6,9.2,0.9
		c0.9,0,1.8,0.4,2.4,1.1c0.4,0.7,0.6,1.4,0.6,2.2c0,2.1-1,3.3-2.8,4.3v0.3h17.7c1.3-1.3,3.6-4,5.4-4c1.3,0,10.5,9.3,10.3,10.6
		c-0.3,2.1-2.6,3-4.3,3.4c0.2,0.3,0.2,1.4,0.4,1.6c0,0.6,0,1.2,0.1,1.9c1.6,0.9,2.5,2.7,2.4,4.6c0,4.6-5.7,6.3-9.4,6.5
		c-3,0.2-5.8,0.1-8.7,0.1c5.5,2.6,12.6,7,12.6,13.9c0,1.5-0.4,2.9-1.3,4.1c-0.9,1.2-2.2,2-3.7,2.2c6,2.9,12.8,8.2,12.8,15.4
		c0,1.8-0.6,3.6-1.6,5.1c-2.5,3.2-7.2,3-10.1,0.4c-0.4-0.4-0.6-0.8-0.8-1.4L88.2,93.4z M34,73c-0.6,0.3-1.1,0.8-1.3,1.4
		c-0.6,2.3-1.6,4.5-3,6.4c-2.8,3.6-9.5,4.9-9.5,10.3c0,0.9,0.2,1.7,0.6,2.5c0.7,1.3,1.9,2.3,3.4,2.6c0.7,0.2,1.5,0.4,2.2,0.3
		c8.6,0,12.7-10,12.7-17.3c0.1-1.8-0.1-3.5-0.7-5.2c-0.3-0.8-1.1-1.3-2-1.3C35.6,72.7,34.8,72.8,34,73z M37.7,74.6
		c0.5,1.5,0.7,3,0.6,4.6c0,6.9-3.8,16.5-11.9,16.5c-1.3,0-2.6-0.4-3.6-1.1c-1.2-0.8-1.9-2.1-1.8-3.6c0.2-2.3,1.6-4.3,3.6-5.3
		c2.2-1.1,4.2-2.6,5.9-4.5c1.4-2,2.4-4.2,3-6.6c0.1-0.4,0.4-0.7,0.7-0.8c0.5-0.3,1.1-0.4,1.7-0.3C36.7,73.9,37.1,73.4,37.7,74.6
		L37.7,74.6z M94.4,38.1c0.4,0,0.8-0.1,1.2-0.2c0.9-0.1,1.7-0.4,2.4-0.9c0.5-0.5,0.9-1.1,1-1.8c0.2-1.2-8.3-9.6-9.5-9.6
		s-2.6,1.4-3.4,2.3v-0.1c-0.6,0.6-1.1,1.2-1.7,1.8H65.6v-1.4c1.7-0.6,2.8-2.2,2.8-4c0-0.6-0.1-1.2-0.4-1.7c-0.5-0.5-1.1-0.8-1.8-0.9
		c-3.1-0.2-6.2-0.8-9.3-0.9c-0.7-0.2-1.5,0.1-2,0.7c-0.5,0.5-0.7,1.1-0.8,1.8v6.5H37c-0.1-0.1-0.1-0.2-0.1-0.3
		c-0.2-1.6-0.5-1.4-0.9-2.5v0.1l-0.6-0.8c-0.2-0.1-0.4-0.3-0.7-0.4c-0.5-0.2-1.1-0.2-1.7-0.2c-0.3,0.2-1-0.3-2.1,0.9
		s-0.3,4.5-1.9,6.8c-2.3,3.3-5.5,4-7.1,7.1c-0.4,0.7-0.6,1.5-0.6,2.4c0,8.1,14.4,8.1,16.3-5.8h7.5c-1.2,3.4-3.3,6.3-6.1,8.6
		c-4.7,3.5-10.5,5.6-16,7.3v-0.1c-0.6,0.2-1.2,0.6-1.4,1.2c-0.5,1.2-0.3,2.5,0.4,3.5c1.1,2,4.9,1.3,6.7,0.7h-0.1
		c7.4-1.7,14.8-4.2,20.7-9.1c-0.8,3.5-2,6.9-3.4,10.2c-4.7,0.2-9.2,0.2-13.9,0.2c-1.3,0-3,1.4-2.4,2.9l0.1,0.2l0.1,0.2v-0.1l0.3,1
		l-0.1-0.1c0.2,0.4,0.3,0.7,0.4,1.1l-0.1-0.1c0.8,2.1,1.6,4.2,2.5,6.3l-0.1-0.1c0.1,0.6,0.4,1.1,0.9,1.4c2,1,3.7-0.2,5-1.5
		c3.4-0.3,6.7-0.8,10.1-1.4c-0.4,0.9-0.3,1.9,0.3,2.6l-5.1-0.6c-1.4-0.1-2.6,1-2.7,2.4c0,0,0,0,0,0v17.2c0,2.8,0.9,6.3,3.8,7.5
		c2.4,0.9,5.3,0.8,7.9,0.8h11.6c3.9,0,14.6,0.2,17.7-2.5c1.6-1.4,2.3-4.7,0.9-6.4c-0.5-0.6-1.1-1.2-1.9-1.6l-0.3-7
		c0.1-0.8-0.2-1.5-0.8-2c-1-0.7-3.2-0.8-4.2,0.1c-1.9,1.8-1.7,6.2-3.1,8.6c-1.8,0.6-5.4,0.2-7.3,0.2H52.7V78.3
		c1-0.7,1.9-1.6,2.3-2.8c1.6,1.1,3.1,2.2,4.6,3.5c1.3,1.3,2.5,2.8,3.4,4.4c0.1,0.2,0.2,0.3,0.4,0.3l0.5,0.4l-0.1-0.1
		c0.9,0.4,1.9,0.6,2.9,0.5c5.4,0,6.9-5.8,4.3-9.8s-7.6-6-12.1-7L77.8,65c0.9,0.9,1.9,2,2.7,3c0.6,0.8,1.2,1.6,1.7,2.4
		c0.2,0.3,0.3,0.8,0.5,1c0.3,0.3,0.6,0.5,0.9,0.8c1,0.5,2.2,0.8,3.3,0.8c5.8,0,6-6.5,3.7-10.3c-3-4.8-9-7.9-14.1-9.8h5.3
		c4.2,0,15.9,0.7,15.9-5.8c0-1.7-0.9-3.4-2.5-4.2c-0.1-0.7-0.1-1.5-0.1-2.2c-0.3-0.3-0.3-1.6-0.8-2.3L94.4,38.1z M34.6,74.4
		c-0.2,0.1-0.2,0.3-0.3,0.5c-0.3,1.5-0.8,2.9-1.5,4.2c-0.7,1.2-1.5,2.4-2.5,3.4c-0.9,0.9-1.8,1.7-2.9,2.4c-0.8,0.6-1.7,1-2.5,1.4
		c-1.8,0.9-3,2.6-3.1,4.6c0,1.1,0.4,2.1,1.3,2.8c1,0.7,2.1,1.1,3.3,1c9,0,12-12.8,10.7-19.8c-0.2-0.8-1.2-0.6-1.9-0.7
		C35,74.3,34.8,74.3,34.6,74.4z M94.4,43.2c3.6,1.6,3.2,5.5-0.2,7.2c-4.2,2-9.2,1.5-13.7,1.5h-9.1c6,1.5,13.7,5,17.8,9.8
		c2.7,3.2,3.6,10.4-2.2,10.4c-1.1,0-2.2-0.3-3.1-0.8c-0.6-0.4-2-3-2.8-3.9c-0.9-1.1-2-2.1-3-3.2c-8.3,1.2-16.6,2.6-24.9,3.7
		c6.4,0.3,18.3,3.1,18.3,11.3c0,4-3.9,5.8-7.3,4.2L63.7,83c-0.3-0.3-0.5-0.8-0.8-1.3c-0.9-1.4-2-2.7-3.3-3.8
		c-1.7-1.4-3.5-2.7-5.4-3.9c0.6,1.7-0.8,3.1-2.3,3.7v11.8c0.3,0.2,11.7,0.1,12.7,0.1c2.9,0,6.1,0.4,8.9-0.3l0.2-0.1
		c1.4-2.4,1.6-5.4,2.6-8c0-0.3,0.3-0.6,0.6-0.8c1.4-0.5,3.5-0.5,3.6,1.4l0.3,7.5c0.7,0.3,1.3,0.8,1.9,1.4c1.4,1.5,0.8,4.2-0.6,5.5
		c-3,2.6-14.5,2.3-18.3,2.3H53c-1.3,0-2.7,0-4.1-0.1c-1.2-0.1-2.4-0.3-3.5-0.8c-2.6-1.3-3.3-4-3.3-6.7V73.7c0-0.9,0.8-1.6,1.7-1.6
		c0.1,0,0.1,0,0.2,0l8.5,0.8c-1.5-0.9-4-1.6-2.7-3.8c0.2-0.4,0.5-0.7,0.9-0.9c-4.2,0.5-8.2,1.1-12.4,1.6c-0.8,1.1-2.6,2.4-4.1,1.6
		c-0.3-0.2-0.6-0.5-0.7-0.9c-0.5-1.4-1.2-2.9-1.7-4.3c-0.5-1.1-0.8-2.2-1.1-3.4l-0.2-0.3v-0.2L30.5,62c-0.2-0.6,0-1.1,0.4-1.5
		c0.3-0.2,0.7-0.4,1.1-0.3c4.8,0,9.6-0.1,14.4-0.2c0.6-1.5,1.2-3,1.8-4.5c1.1-3,1.8-6.1,2.8-9.1c-3,3-6.5,5.3-10.4,6.9
		c-3.5,1.5-12.6,4.6-16.3,4.6c-1.7,0-2.4-2.1-2-3.6c0.2-0.4,0.5-0.7,0.9-0.8c2-0.8,4.1-1.3,6-2c7.8-3.1,14.1-7.1,17.1-15.4h-9.3
		c-0.9,12.8-14.8,14-14.8,6.5c0-3.2,2.5-4.2,4.7-6.1c1.1-0.9,2.1-1.9,2.9-3c1-1.6,1.4-3.5,1.3-5.4c0-0.8,0.6-1.8,1.5-1.8h1.4
		c0.9,0,1,0.2,1.4,0.9c0.5,1,0.9,2.1,1.2,3.2H55v-7.2c0-0.4,0.2-0.9,0.5-1.2c0.3-0.3,0.8-0.5,1.3-0.4l9.3,0.8
		c1.1,0.1,1.4,0.7,1.4,1.8c0,1.8-1.2,2.6-2.7,3.3v2.9h19.9c1.2-0.8,3.4-4,4.8-4c1.1,0,8.7,7.4,8.7,8.5c-0.3,0.5-0.1,1-0.8,1.5
		c-1.2,0.8-2.2,0.6-3.4,0.9c-0.3,0.3-0.6,0.5-0.9,0.7C94.4,38.8,94.4,41.8,94.4,43.2z M22.6,91.6c0.2-0.3,0.4-1.5,0.2-1.9
		c1-2.1,3.8-3,5.6-4.2c1.1-0.8,2.1-1.8,3-2.9c1.4,1,3.6,0.7,5-0.2c-0.2,2-0.8,3.9-1.7,5.7c-0.7-1.1-1.9-1.7-3.2-1.6
		c-2.2,0.1-4,1.9-3.9,4.1c0,1.2,0.6,2.3,1.5,3C26.9,94.5,23.1,94.4,22.6,91.6z M63.8,35.2v9.6c0,1.7,0.1,3.7,1.5,4.8
		c0.8,0.5,1.6,0.9,2.5,1c2.7,0.5,21,0.8,25.3-0.6c0.9-0.2,1.7-0.6,2.3-1.3c0.4-0.6,0.6-1.3,0.6-2c0-1.7-0.9-2.5-2.5-3l-0.3-4.3
		c-0.1-0.6-0.3-0.8-0.8-0.8h-0.8c-0.5,0-0.6,0.2-0.8,0.6c-0.5,1.6-1.1,3.2-2,4.7c-0.3,0.3-0.7,0.4-1.1,0.4h-14c-0.4,0-1.8,0.1-2-0.3
		v-8.7h12.1c-0.6,1-1.2,2.1-1.8,3.1s-1.3,1.8-2,2.7s0.3,1.4,1.1,1.8c1.3,0.8,11-5.3,12.6-6.4c1.3-0.2,2.5-0.1,3.5-1.1
		c0.4-0.4,0.3-0.7-0.1-1.1L90,27.5c-0.4-0.4-0.7-0.4-1.1,0l-3.8,3.7H64v-4.3c1.4-0.3,2.7-1.2,2.8-2.7c0.1-0.7-0.1-0.9-0.8-0.9
		l-9.3-0.9c-0.4-0.1-0.8,0.2-0.9,0.6c0,0.1,0,0.1,0,0.2v8.1h-20c-0.3-1.2-0.6-2.4-1-3.6c-0.3-0.9-1.3-0.6-2-0.5
		c-0.6,0.1-0.9,0.3-0.9,0.9c0.1,2.1-0.4,4.2-1.5,6c-2.1,3.6-4.9,3.7-6.7,6.2c-0.7,1-0.9,2.4-0.5,3.6c1,3,5.3,3,7.6,1.7
		c3.6-2,5.3-6.4,5.3-10.3h11.3c-1.4,4.6-4.2,8.6-8,11.5c-4.7,3.7-10.4,5.8-16,7.5c-0.5,0.2-0.8,0.4-0.6,0.9c0.3,0.8,0.3,2,1.4,1.8
		c4-0.6,7.9-1.5,11.8-2.8c9.8-3.2,17.3-8.8,20.5-18.9L63.8,35.2z M23.4,91.7c0.6,1.4,2.8,1.9,4.1,1.5c-2.9-4.8,2.4-9.9,6.9-6.6
		c0.4-0.9,0.7-1.8,0.8-2.8c-1.2,0.4-2.6,0.3-3.7-0.2c-2,2.4-7,4.7-7.8,6.2C23.7,90.4,23.5,91,23.4,91.7z M70.7,50.2
		c0.9-2.1-2-4.6-4.1-2.8c-0.5,0.3-0.8,0.8-0.9,1.4c-1-1-1-2.7-1-4.1c0.9-0.2,1.6-0.7,2.2-1.4c1.6,0,2.6-2.3,1.1-3.1
		c0-2-1.4-3.7-3.3-4.2v-1.5h-4c-0.5-0.4-1.3-0.4-1.9,0h-2.9c-4.3,14.9-18,19.3-31.8,21.8L23.8,55c11.4-3.4,21.5-8.4,24.9-20.6H35.2
		v1.3c-0.3-0.6-1-0.9-1.6-0.7c-0.5,0.2-0.8,0.7-0.8,1.3c0,0.7,0.6,1.3,1.3,1.3c0.4,0,0.7-0.2,0.9-0.4c-0.5,4.1-3.6,8.8-8.3,8.5
		c-1.1,0-2.2-0.6-2.6-1.7c0.5-0.7,0.7-1.5,0.6-2.3l-0.1-0.3c0.8-0.5,1.4-1.4,1.5-2.4c0.2-0.1,0.4-0.3,0.6-0.3
		c4-1.8,6.1-6.4,5.9-10.6l1.3-0.1c0.5,1.3,0.8,2.7,1,4.2h21.6v-7.8c0.5-0.3,0.9-0.6,1.3-0.9l3.9,0.3c1,0.8,2.3,1.1,3.6,1
		c0.1,0,0.3,0,0.4-0.1c-0.4,1-1.4,1.7-2.5,1.7v5.8h4.3c0.5,1.6,1.7,2.8,3.3,3.4V44c0,1.2,1.4,1.1,2.3,1.1c-1.8,1.8-1.1,4.9,1.5,5.2
		L70.7,50.2z M23.9,42.3c-0.1,0.1-0.1,0.2-0.1,0.3c0-0.2,0-0.4,0.1-0.6V42.3z M26.2,92.5c-0.8,0.1-1.5-0.3-2-0.9
		c0.2-0.5,0.3-1,0.3-1.6c0.4-0.6,0.9-1,1.5-1.4C25.7,89.9,25.7,91.3,26.2,92.5z M48.2,42.7c-0.7,0-1.4-0.3-1.9-0.9
		c-4.2,6.7-11.6,10.4-18.9,12.9C36.3,53,45.2,49.8,51,42.5c1.9-2.5,3.3-5.3,4.2-8.3c0-0.4,0.4-0.6,0.7-0.6c0,0,0,0,0,0h2.5
		c0.7-0.6,1.8-0.6,2.5,0h3.7c1,0,0.8,1,0.8,1.7c1.8,0.8,3.1,2.4,3.3,4.4c1.2,1.7,0.7,4.1-1.5,4.4c-0.5,0.5-1.1,0.9-1.8,1.2v1.4
		c0.1,0.2,0.1,0.3,0.2,0.4c1.2-2,5.9-1.4,5.9,2.2h0.3c-0.3-1.5-0.8-2-0.3-3.6l-0.2-0.1C70.6,45.6,70,44.8,70,44v-7.9
		c-1.4-0.6-2.5-1.8-3-3.2h-3.8c-0.4,0-0.8-0.3-0.8-0.8v-5.8c0-0.9,0.9-0.8,1.1-0.9c-0.7-0.2-1.4-0.5-2-0.9l-3.3-0.2l-0.8,0.5v7.4
		c0,0.4-0.3,0.8-0.8,0.8H35c-0.4,0-0.7-0.3-0.8-0.7c-0.3-1-0.4-2-0.8-3c-0.3,4.2-2.4,8.4-6.4,10.3l-0.2,0.2
		c-0.2,0.9-0.6,1.7-1.4,2.2c0,0.8-0.2,1.5-0.5,2.2c0.6,0.6,1.4,0.9,2.2,0.8c3.6,0,5.8-3.3,6.8-6.4c-2.6,0-3-4.2,0.4-4.2
		c0.1-0.3,0.4-0.6,0.8-0.6h13.4c0.3,0,0.5,0.1,0.7,0.3c0.5,0.6-0.7,3.4-1,4.2C51.3,38,51.3,42.7,48.2,42.7L48.2,42.7z M26.1,43.6
		c0.2-0.5,0.3-1,0.3-1.5c0.5-0.6,0.9-1.3,1.2-2.1c1.5-0.7,2.7-1.7,3.7-3c0.2,0.9,0.8,1.6,1.7,1.9C32.2,41.5,29,45.4,26.1,43.6
		L26.1,43.6z M31,38.5c-0.7,0.9-1.7,1.5-2.7,2c-0.2,0.7-0.6,1.4-1.2,1.9v0.4L27,43.2c2.4,0,4-2,5-3.8C31.6,39.1,31.3,38.8,31,38.5z
		 M29.9,93c-3.9-3.3,0.3-7.1,2.9-5.4c0.5,0.3,0.9,0.7,1.4,1.2C33.1,90.5,31.6,91.9,29.9,93z M29,62.9c0.1,0,0.2,0,0.2,0.1
		S29,63,29,62.9z M33,88.9c-0.4-0.5-1-0.8-1.6-0.9c-2,0-3.2,2.2-1.5,4C31.1,91.2,32.1,90.1,33,88.9L33,88.9z M52.6,60.5
		c2-2.3,3.8-4.8,5.6-7.2c0.5-0.7,0.8-1.4,1.4-2.1c0.8,0,1.7-0.3,2.4-0.8c0.7-0.5,2-2.4,0.4-2.6l-9.6-1.7c-0.5-0.1-0.8,0-1,0.5
		c-0.3,0.7-0.3,1.4-0.6,2.2c-0.4,1.6-0.9,3.1-1.4,4.8c-0.8,2.4-1.6,4.7-2.6,7c-5,0.2-10,0.3-15,0.2c-0.3,0-0.5,0.1-0.7,0.3
		c-0.2,0.2-0.2,0.5-0.1,0.8l3.1,8.2l0.4,0.3c0.4,0.8,2.7-1.1,3-1.6c13.6-1.8,27.1-3.8,40.6-5.8c2,2.4,4.2,4.5,5.8,7.3
		c5.5,2.8,7.6-2.1,5.3-6.7c-3.3-6.3-13.7-10-20.1-11.5c-0.4-0.3-2.4,1.3-1.4,2.2s2.4,1.6,3.5,2.5s2.4,1.9,3.5,2.9
		C67.4,60.1,60,60.3,52.6,60.5L52.6,60.5z M31.8,84.5c0.8,0.2,1.6,0.3,2.5,0.3L34,85.4c-0.8-0.3-1.6-0.5-2.4-0.7L31.8,84.5z
		 M36.6,80.1c0,0.3-0.1,0.6-0.1,0.9c-1.7,1.2-2.7,1.8-4.8,0.9c1.7-1.9,2.9-4.3,3.3-6.9c0.4,0,0.8,0.1,1.2,0.1
		C36.5,76.8,36.6,78.5,36.6,80.1z M50.8,61.4l26.1-0.9c-2.7-2.4-5.5-4.6-8.5-6.7l0.8-0.8c4,0.8,7.9,2.2,11.5,4
		c3.4,1.9,8.4,5.3,9,9.4c0.2,1.1-0.1,2.3-0.8,3.2c0-1.4-1.6-1.3-1.6-0.2c-0.1,0.4,0.2,0.8,0.6,0.8c-1.1,0.2-2.2,0.1-3.1-0.4
		c-1.3-2.9-3.8-5.3-6.1-7.6c-5.6,0.9-11.4,1.8-17.1,2.6c-1.1-1.1-2.8-1.2-4-0.2c-0.3,0.3-0.5,0.6-0.7,0.9l-12.6,1.8
		c-0.5-0.2-1-0.2-1.5-0.1c-0.8,0-1.5,0.2-2.2,0.6l-3.4,0.4C36.8,69.2,36,69.8,35,70l-3-8.2c5.2,0,10.3-0.1,15.4-0.2l1.8-4.4
		c5,0,6.9-5.8,2.9-8.7l0.4-1.5l3.1,0.6c0.1,1.8,1.3,3.3,3,3.7L57.4,53c-2.2,0.2-3.8,1.9-3.9,4.1c0,0.3,0,0.6,0.1,0.9
		C52.7,59.2,51.7,60.3,50.8,61.4z M77.5,60c0.6,0.7,0.2,1.4-0.6,1.4l-26.1,0.9c-0.4,0-0.7-0.1-0.8-0.5s0-0.6,0.3-0.9
		c0.9-0.9,1.7-2,2.5-3.1V57c-0.9,0.6-1.9,0.9-3,1l-1.5,3.9c-0.2,0.3-0.4,0.5-0.8,0.5c-2.3,0.2-4.8,0-7.1,0.1s-4.8,0.1-7.2,0.1
		l2.4,6.4c0.6-0.3,1.3-1.4,1.7-1.4c1.4-0.1,2.8-0.3,4.2-0.6c0.6-0.3,1.3-0.5,2-0.5c0.2,0,1.1,0.2,1.2,0.2l12-1.7
		c1.2-1.7,3.7-2.5,5.3-0.8l8.4-1.3c2.7-0.4,5.5-1,8.2-1.3c1.4-0.1,6.2,6.5,6.9,7.8c0.3,0.2,0.7,0.3,1.1,0.3c0-1.5,1.1-1.9,2.4-1.5
		l0.1-0.3c0-1.9-0.7-3.7-2-5c-3.8-4.2-11.3-7.1-16.7-8.6C72.8,55.9,75.3,57.8,77.5,60z M33.5,32.8l0.5,0.6h-0.3
		c-0.1,0.1-0.3,0.1-0.4,0.1L33.5,32.8z M33.3,81.6c0.9,0,1.7-0.4,2.4-1c0.2-1.3,0.1-2.6-0.1-3.9C35.1,78.4,34.3,80,33.3,81.6z
		 M34.6,36.4l-0.2,0.2c-0.2,0-0.2,0.2-0.3,0.2c-0.3,0-0.5-0.1-0.5-0.4c0-0.3,0.1-0.5,0.4-0.5c0,0,0.1,0,0.1,0
		C34.1,36,34.5,36.3,34.6,36.4z M44.6,65.7c-1.4-0.5-2-0.2-3.4,0.5c-1.2,0.5-4.8-0.2-5.3,1.4c-0.5-1.4-1.1-2.7-1.6-4.2
		c4.4,0,8.8-0.2,13.2-0.2c0.6-0.1,1.2-0.5,1.6-0.9v-0.1c0.4,0.6,1.1,1,1.8,0.9l6.6-0.2c-0.6,0.3-1.1,0.7-1.4,1.3L44.6,65.7z
		 M48.8,63.4c-0.4,0.4-0.9,0.6-1.4,0.6c-4,0-8,0.3-12,0.3l0.8,2l0.8-0.4c1.2-0.3,2.4-0.4,3.6-0.4l0.4-0.2l-0.2,0.2
		c0.7-0.3,1.4-0.6,2.2-0.6c0.5,0,1,0,1.4,0.1c0.9,0,2.9-0.4,4.1-0.5s2.6-0.3,3.9-0.4C51.3,63.9,49.7,64.1,48.8,63.4z M46.4,43
		c0.5,0.3,2.3,0.9,2.8,0.4c-3.1,3.5-7.1,6.1-11.5,7.6C41,48.9,44,46.2,46.4,43z M51.1,77.2c1.3-0.2,2.3-1.3,2.4-2.6
		c0-0.5-0.2-0.8-0.7-0.8l-8.9-0.9c-0.6-0.1-0.8,0.3-0.8,0.8v17.2c0,1.8,0.2,4.4,1.9,5.4c2.1,1.4,5.7,1.3,8.1,1.3h10.6
		c3.1,0,16,0.4,18.2-2.4c0.4-0.7,0.7-1.4,0.7-2.2c0-0.7-0.2-1.3-0.6-1.9c-0.6-0.6-1.3-1-2-1.4l-0.2-8c0-0.6-0.3-0.8-0.8-0.8h-1
		c-0.5,0-0.6,0.2-0.8,0.6c-0.4,1.4-2.1,8.1-3.1,8.6c-1.3,0.6-9.5,0.3-9.8,0.3h-10c-0.4,0-3,0.1-3-0.7L51.1,77.2z M43.8,73.7L46,74
		c-0.4,1.1-1.2,2-2.2,2.5V73.7z M72.3,91.2c0.1,0.5,0.4,1,0.8,1.3c2.5,2,5.9-2,2.6-4c0.8-2.2,1.4-4.4,2-6.7h1l0.3,8.6
		c1.3,0.4,2.6,0.9,2.6,2.6c0,0.6-0.2,1.2-0.6,1.7c-2.1,2.1-11.5,2-14.3,2c0.1-0.9-0.5-1.6-1.4-1.7c-0.9-0.1-1.6,0.5-1.7,1.4
		c0,0.1,0,0.2,0,0.4H57l-0.3-0.2c-0.3-3-4-4.1-5.6-1.5c-1.3-1.3-3.9-0.6-4.7,1c-2.3-0.9-2.6-2.6-2.6-4.9c1.5-1.5,1.5-3.9,0-5.4v-7.5
		c0.3-0.3,0.5-0.7,0.6-1.2c1.2-0.6,2.1-1.6,2.5-2.8c0-0.1,0-0.1,0.1-0.2l4.2,0.4c0.3,0.4,0.7,0.7,1.1,0.9c-0.5,0.7-1.3,1.1-2.1,1.1
		v13.3c0,1.8,2.6,1.4,3.8,1.4h9.6c-1.3,3.7,4.2,4.3,4.2,1c0-0.3-0.1-0.7-0.3-1H72.3z M43.8,87.3c0.3,0.7,0.3,1.6,0,2.3V87.3z
		 M62.6,92.1H53c-0.8,0-1.6-0.2-2.4-0.4c-0.8-0.3-1.3-1.1-1.2-1.9V76.5c0-0.8,1.1-0.8,1.7-1l-0.2-0.2l-3.5-0.3
		c-0.2,0.5-0.4,0.9-0.6,1.4c-0.6,0.6-0.8,1-1.6,1.3c-0.2,0.3-0.3,0.6-0.5,0.9v6.9c1.4,1.8,1.4,4.3,0,6.1c0,1.2,0.2,3,1.5,3.5
		c1.2-1.3,3.2-1.7,4.8-1c1.4-1.5,3.8-1.6,5.3-0.1c0.6,0.6,1,1.3,1.1,2.1h5.5c0.2-0.6,0.5-1.1,0.9-1.4C63,94,62.6,93,62.6,92.1z
		 M47.7,70.3l-2.3,0.2l2.3,0.3V70.3z M50.7,93c-1.6-0.6-3.4-0.2-4.8,0.9c-0.5-0.6-0.7-1.4-0.6-2.2c1.4-2.8,1.6-3.8,0-6.6v-6.3
		c0.2-0.2,0.2-0.4,0.2-0.6c1-0.5,1.8-1.3,2.1-2.4l0.1-0.2c0.3,0.1,0.6,0.1,0.9,0.1c0,0.1-0.2,0.6-0.2,0.7v13.3
		c-0.1,1.5,1,2.7,2.5,2.9l-0.2,0.1L50.7,93z M47.1,44.3l-0.2-0.2c-0.5,0.5-0.8,1-1.4,1.5L47.1,44.3z M45.8,78.1c0-0.1,0-0.3,0.1-0.4
		C45.9,77.8,45.8,77.9,45.8,78.1z M48.4,92c-0.5-0.6-0.7-1.4-0.6-2.2V77.6c-0.5,0.4-1,0.9-1.4,1.4l-0.1,0.1v5.8c1.4,2.2,1.4,5,0,7.2
		c0,0.2,0,0.4,0.1,0.6C47,92.4,47.7,92.1,48.4,92z M46.7,78.2c-0.1,0.1-0.1,0.2-0.1,0.2C46.6,78.3,46.6,78.3,46.7,78.2L46.7,78.2z
		 M49.7,40.3c0.2-0.8-0.4-1.6-1.2-1.8c-0.8-0.2-1.6,0.4-1.8,1.2c0,0.2,0,0.4,0,0.6C46.7,42.7,49.7,42.3,49.7,40.3L49.7,40.3z
		 M51.2,96.3c1.4-2.5,3.7-2.5,4.6,0.4c-2,0-4.1,0.1-6.1-0.1c-0.8-0.1-1.7-0.2-2.5-0.3C48.5,94.6,49.8,95.1,51.2,96.3L51.2,96.3z
		 M49,40.3c0,0.4-0.4,0.7-0.9,0.7c-0.4,0-0.6-0.3-0.7-0.7c0-0.4,0.4-0.7,0.9-0.7C48.7,39.7,49,40,49,40.3z M54.4,33.7
		c-0.1,0.1-0.1,0.2-0.1,0.2c-0.3,1.2-0.8,2.4-1.3,3.5c-0.5,1.1-1,2.1-1.7,3.1c0.1-1.3-0.7-2.6-2-3.1c0.4-1.2,1.3-2.5,0.8-3.7H54.4z
		 M49.6,56.3c0.9-2.3,1.7-4.6,2.3-7C54.7,52,53.1,56.3,49.6,56.3z M50.3,58.7c0.1,0,0.2,0,0.3-0.1H51l-1.3,1.5L50.3,58.7z
		 M69.6,75.8c-3.1-5.3-12.3-7.5-18-7.3c-0.2,0-0.5,0.1-0.6,0.3c-0.6,0.7-1.5,1.4-0.3,2c4.8,2.7,11,6.7,13.7,11.7
		C69.5,84.4,72.1,80.1,69.6,75.8z M51.5,38.4c0.8-1.2,1.4-2.5,1.8-3.9h-2.2v0.3c-0.1,0.1-0.6,2.2-0.7,2.4
		C50.9,37.4,51.2,37.9,51.5,38.4z M50.8,55.2c1.4-0.5,2.2-2,1.7-3.5c-0.1-0.2-0.2-0.5-0.4-0.7C51.6,52.5,51.3,53.9,50.8,55.2z
		 M51.6,69.3c0.5,0,1,0.1,1.5,0.1c-0.7,0.1-1.3,0.5-1.7,1L51,70.2L51.6,69.3z M63,44.8v-8.7h-5.8c-1.1,3.5-3,6.7-5.5,9.4
		c0.4-0.2,0.8-0.2,1.2-0.2l9.6,1.7c0.3,0.1,0.6,0.2,0.8,0.4C63.1,46.6,63.1,45.7,63,44.8z M54.5,70.3c1.1,0.3,1.7,1.4,1.7,2.5
		c-0.1,0.1-0.1,0.2-0.2,0.4c-1.2-0.8-2.5-1.6-3.7-2.4c0.3-0.3,0.7-0.5,1.1-0.6l-0.1-0.7c0.5-0.1,0.9,0,1.3,0.1L54.5,70.3z
		 M52.7,74.5L52.7,74.5L52.7,74.5L52.7,74.5z M54.5,96c-0.6-1-1.2-0.7-1.9,0H54.5z M55.8,50.4c-0.6-0.6-0.9-1.4-0.9-2.2L53.1,48
		L53,48.3c1,0.8,1.6,1.8,1.9,3C55.1,50.8,55.4,50.5,55.8,50.4L55.8,50.4z M62.2,36.9v9.3l-8.7-1.6c1.9-2.3,3.4-4.9,4.3-7.7H62.2z
		 M81.8,71.2c-1.3-1.9-2.7-3.7-4.2-5.4c-5,0.7-9.9,1.5-14.8,2.4c3.7,1.3,7.5,3.6,9.5,7.1c2.5,4.5-0.1,10.2-5.5,10.2
		c-1.1,0-2.2-0.2-3.2-0.7l0.3,0.1c-0.6-0.2-1.1-0.6-1.5-0.9c-0.2-0.3-0.4-0.8-0.7-1.1c-0.6-1-1.4-2-2.3-2.9c-1.2-1.2-2.6-2.3-4-3.2
		c-0.3,0.9-1,1.6-1.9,2V88h17.1c0.6,0,1.2-0.1,1.9-0.2c0.6-1.1,1-2.3,1.2-3.6c-0.1-1,0.7-2.6,1-3.7v0.1c0.4-1.3,1.6-2.2,3-2.2
		c-1.3-1.4-1.3-0.8-2.5-2.6c-1.6-2.6,2.6-5.8,4.2-5.3L81.8,71.2z M53.9,70.8H54l0.1-0.4h-0.2L53.9,70.8z M63.7,48.8
		c-0.2,1.8-2,3.1-3.7,3.3c-1.8,2.6-3.8,5.1-5.7,7.6c6.1-0.2,12.2-0.6,18.3-0.8l-2.5-2c-1.4-1.1-4.2-2-2.9-4.2c0.2-0.4,0.6-0.8,1-1
		C66.4,51.3,64.6,50.7,63.7,48.8L63.7,48.8z M54.3,57c0.1-1.3,0.9-2.3,2.1-2.7L54.3,57z M58.3,37.7c-0.9,2.2-2,4.3-3.3,6.3l6.5,1.1
		v-7.5L58.3,37.7z M56.8,73.7c0.7-1.6-0.1-3.4-1.7-4.1c0,0,0,0,0,0c4.8,0.5,11.4,2.2,14,6.8c1.2,2.2,1.2,5.5-1.9,5.9
		c0.3-0.3-0.1-1.6-0.2-2c0.3-0.6,0.5-1.3,0.5-2c0-4.2-5.3-5.7-7.8-2.5C58.8,75.1,57.8,74.4,56.8,73.7L56.8,73.7z M57.4,52.3
		c0.1-0.5-0.2-1.1-0.8-1.2c-0.5-0.1-1.1,0.2-1.2,0.8c0,0.1,0,0.3,0,0.4c0.2,0.5,0.7,0.8,1.3,0.7C57,52.8,57.3,52.5,57.4,52.3
		L57.4,52.3z M57.1,52c-0.4-1.6-2.5,0.8-0.7,0.8L57.1,52z M56,58.9c1.5-2,3.1-4,4.5-6.1c1.4-0.3,2.6-1.1,3.4-2.2
		c0.8,0.8,1.7,1.3,2.7,1.6c-0.3,0.2-0.4,0.5-0.5,0.8c-0.5,1.8,0.5,2.6,1.9,3.4c0.8,0.6,1.6,1.2,2.4,1.9C65.6,58.4,60.8,58.6,56,58.9
		z M56.3,52.2l0.2-0.2l0.2,0.2l-0.2,0.2L56.3,52.2z M62.3,95.1H58c-0.3-0.9-0.9-1.8-1.7-2.3h5.5c0.1,0.6,0.3,1.2,0.8,1.7
		c-0.1,0.1-0.1,0.2-0.2,0.3L62.3,95.1z M62.1,48.6c-0.4,2.3-4.6,2.5-5.6-0.9L62.1,48.6z M56.6,23.2h0.2l-0.2,0.2V23.2z M68,81.1
		c0.7-0.4,1.1-1.2,1-2c0-5.3-7.5-7.3-11.6-8.3c0.2,0.7,0.7,1.9,0.3,2.5c0.7,0.4,1.3,0.9,1.9,1.4c4.3-3.6,10.2,0.4,8.2,5.6
		C67.9,80.6,68,80.9,68,81.1z M64.1,51.9c-0.8,0.9-1.9,1.4-3,1.7c-1,1.6-2.1,3.1-3.3,4.5L68,57.5c-1.4-1.3-2.9-1.4-2.9-3.7
		c0-0.4,0.1-0.8,0.3-1.2C65,52.4,64.5,52.2,64.1,51.9z M58.2,25.2l0.2-0.2c0.9,0.2,1.9,0.2,2.8,0.3l0.4,0.3
		c-0.1,0.2-0.2,0.4-0.2,0.7c0,2-0.3,4.7,0.2,6.5h-0.4c-0.9-0.6-2.1-0.6-3,0H58c0.2-0.2,0.3-0.4,0.3-0.7L58.2,25.2z M58.1,65.4
		c0.6-0.7,1.6-0.9,2.4-0.3C59.7,65.3,58.8,65.3,58.1,65.4z M58.1,93.7c0.1,0.1,0.2,0.3,0.3,0.3c0,0.1,0.1,0.2,0.2,0.3h2.9l-0.2-0.7
		L58.1,93.7z M58.6,72.8l0.1-0.2l-0.1-0.2V72c1,0.2,1.9,0.5,2.8,0.8c-0.7,0.1-1.3,0.4-1.8,0.8L58.6,72.8z M60.6,49.2l-1.9-0.3
		c0.3,0.3,0.6,0.5,0.9,0.7C60.1,49.5,60.4,49.4,60.6,49.2L60.6,49.2z M60.7,26.1L59.1,26v5.7c0.2-0.2,1.3,0,1.7,0.1L60.7,26.1z
		 M60.3,76.5c1-1.6,3.1-2.1,4.7-1c1,0.7,1.6,1.8,1.6,3c-0.1,0.6-0.3,1.3-0.5,1.9c0.3,0.6,0.4,1.3,0.2,2c-0.4,0-0.9,0-1.3-0.2
		c-1.4-2.1-3-4-4.8-5.6L60.3,76.5z M61.2,62.7l5-0.3c-1.3,0.2-2.8,0.5-4.2,0.7L61.2,62.7z M61.3,48.6c0.1-0.1,0.1-0.1,0.1-0.2
		C61.4,48.5,61.4,48.5,61.3,48.6L61.3,48.6z M65.5,81.2l-0.2-0.9c0.3-0.6,0.4-1.2,0.5-1.9c0-1.4-1.1-2.6-2.5-2.7
		c-0.7,0-1.3,0.2-1.8,0.7C63,77.8,64.4,79.4,65.5,81.2L65.5,81.2z M66.7,91.2c0.2,0.3,0.3,0.7,0.3,1c0,2.2-4,1.4-2.5-1H66.7z
		 M64.5,96.7c0.2-1.2,0.9-1.1,1.3,0H64.5z M66.5,42.4c-0.5,0.6-1.1,1.1-1.8,1.4v-7c1.4,0.7,2.4,2.1,2.5,3.7
		C68.2,41.5,68,42.4,66.5,42.4L66.5,42.4z M66.1,92.1h-1c0,1,1.1,0.8,1.1,0.2L66.1,92.1z M65.5,38.7v3.7l0.5-0.7c0.3,0,0.7,0,1-0.2
		c-0.2-0.2-0.4-0.4-0.7-0.6C66.2,40.1,66,39.4,65.5,38.7L65.5,38.7z M66.5,33.7c0.5,1.3,1.5,2.3,2.8,2.8v1.6c-0.7-1.4-1.7-2.5-3-3.3
		c0-0.4,0-0.8-0.3-1.1L66.5,33.7z M69.9,50.2c-1.1,0-2.3-0.3-3.3-0.8C67.7,46.3,70.6,47.9,69.9,50.2L69.9,50.2z M66.9,45.5
		c0.8-0.7,1.6-0.8,2.5-1.4c0,0.5,0.1,0.9,0.3,1.4C68.7,45.1,67.7,45.1,66.9,45.5L66.9,45.5z M76.8,88.2c1.4,1,1.7,3,0.7,4.4
		c-1,1.4-3,1.7-4.4,0.7c-0.6-0.2-1-0.7-1.3-1.3h-3.1c0.1,1.3-0.6,2.4-1.8,2.9c0.3,0.3,0.5,0.6,0.6,1h3.3c2,0,10-0.2,10-3
		c0-1.1-1.2-1.6-2-2c-0.1-0.1-0.2-0.2-0.3-0.3C77.9,90.4,78,85,78,84.1C77.7,85.5,77.2,86.9,76.8,88.2L76.8,88.2z M69.2,49.2
		c0-0.4-0.4-0.8-0.9-0.8c-0.3,0-0.5,0.2-0.7,0.4C68.2,49,68.7,49.2,69.2,49.2L69.2,49.2z M69.5,92.9h1.9c1.2,1.8,3.7,2.3,5.5,1.1
		c0.7-0.5,1.3-1.2,1.6-2.1C78.9,92,80,92.4,80,93c0,2.3-10.3,2.1-12,2.1C68.7,94.6,69.3,93.8,69.5,92.9L69.5,92.9z M70.9,34.5
		c-1-0.5-1.9-1.3-2.5-2.4h15.1c-0.1,0.5-0.2,1-0.3,1.4l1.2,0.8l0.2-0.1c0.2,0,0.3,0.1,0.4,0.2L70.9,34.5L70.9,34.5z M71.4,94.4
		l-0.6-0.7H70l-0.3,0.7H71.4z M82.4,33.4l0.2-0.5H70.1c0.3,0.3,0.6,0.6,1,0.8h11.6L82.4,33.4z M72.5,43.5h8.2
		c-0.9-0.6-1.4-0.8-1.4-2c0.8-1.9,1.9-3.7,3.2-5.3h-10L72.5,43.5z M78,45.1c-0.4,0.3-0.8,0.4-1.3,0.5c0.8,1.6,0.8,3.5-1.4,3.8v-0.8
		h-0.4l-0.1,0.8c-0.5-0.1-1-0.3-1.3-0.7c-1.1-1.4-0.1-2.5,0.8-3.7L78,45.1z M73.2,91.1c1-0.1,1.8-0.8,2.1-1.8c0.7,0.4,1.1,1.3,0.7,2
		s-1.3,1.1-2,0.7C73.6,91.9,73.4,91.5,73.2,91.1z M73.3,36.8H81l-0.7,1.1v-0.1L79.6,39l0.1-0.1l-1,1.6v-0.1
		c-0.2,0.2-0.3,0.5-0.3,0.8c-0.1,0.1-0.1,0.2,0,0.3c0,0.3,0.1,0.7,0.2,1h-5.1L73.3,36.8z M74.8,49.4h0.5v-0.8c1.7-0.2,1-1.7,0.6-2.6
		h-1.2c-0.4,0.4-0.7,0.9-0.9,1.3c-0.1,0.6,0.3,1.2,0.9,1.3c0.1,0,0.1,0,0.2,0L74.8,49.4z M74.2,41.8h3.4c0-0.4,0.1-0.8,0.3-1.1
		c0-0.2,0.1-0.4,0.2-0.6l-0.1,0.1l1-1.7v0.1l0.6-0.9h-5.4L74.2,41.8z M85.9,68.4c-1.3-1.9-5.1-7-7.1-7.7c-0.1-0.5-0.3-1-0.8-1.4v0.1
		c-1.2-1-2.3-2.1-3.6-3.1C78.8,57.8,87.7,61.7,88,67C87.1,67,86.2,67.6,85.9,68.4z M74.9,91.4c0.3-0.1,0.3-0.2,0.4-0.5
		C75.2,91.1,75.1,91.2,74.9,91.4L74.9,91.4z M75.4,50.2c1.6-0.2,2.7-1.6,2.6-3.1c0-0.3-0.1-0.6-0.3-0.9c0.7-0.2,1.4-0.6,1.9-1.1h3.3
		c-1.7,1.1-2.4,3.3-1.7,5.2H75.4z M75.7,74.5c0.1,0.7,0.4,1.4,0.8,1.9c0.8,0.8,3,2.6,4,3.6c2.6,2.5,4.9,5.4,6.7,8.5
		c0.8,1.5,1.5,3.1,1.9,4.8l0.3,0.5c0.1,0.2,0.2,0.3,0.3,0.4c1.8,1.4,4.8,2.2,7,1c1.5-0.7,2.6-2.1,3-3.7c0.2-0.8,0.3-1.6,0.3-2.4
		c0-7.6-7.8-13-14.2-15.6c-1.1-0.4-5.3-2.1-6.4-2.1C77.8,71.4,75.7,72.8,75.7,74.5L75.7,74.5z M77.6,72.9c0.5-0.4,1.2-0.7,1.9-0.7
		c2,0.5,4,1.1,5.9,2c5.9,2.5,13.7,7.8,13.7,14.9c0,1.4-0.4,2.8-1.2,4c-1.6,2.6-5.6,2.3-7.7,0.5c-0.1-0.1-0.2-0.3-0.3-0.5
		c-0.4-1.7-1-3.4-1.9-4.9c-2.6-4.8-6.7-8.8-10.9-12.3C76.4,74.6,76.2,73.8,77.6,72.9L77.6,72.9z M88.3,76.4c-2.8-1.5-5.9-2.7-9-3.4
		c-0.7-0.1-1.2,0.6-1.6,1s-0.4,0.8,0.1,1.2c1.4,1.3,2.9,2.3,4.2,3.6c3.6,3.6,7.8,9.2,8.8,14.2C98.4,98.5,103.7,84.7,88.3,76.4
		L88.3,76.4z M79.9,45.9c-0.3,0.3-0.7,0.5-1.1,0.7c0.3,0.8-0.2,2.1-0.6,2.8h2c-0.1-1.2,0.2-2.4,0.8-3.5L79.9,45.9z M79,73.8
		c5.6,1.5,12.1,4.2,15.9,8.8c1.2,1.4,2,3.1,2.4,4.8c0.4,2.3,0.2,5-2.4,5.8c-1.2,0.3-2.4,0-3.4-0.8c-0.8-3.2-2.3-6.2-4.4-8.7
		c3.1-2.4-0.8-6.9-3.4-4.2c-1.8-1.8-3.6-3.5-5.5-5.1L79,73.8z M78.9,92.8l-0.4,0.6c0.2,0,0.7-0.2,0.7-0.4
		C79.1,92.9,79,92.9,78.9,92.8L78.9,92.8z M78.7,58.9c0.4,0.4,0.7,0.9,0.9,1.4c2.6,1.8,4.3,4.4,6.3,6.8c0.4-0.3,0.8-0.7,1.3-0.7
		C86.4,62.9,81.7,60.3,78.7,58.9z M83.8,78.5c4.2-1.8,6.8,2.9,4.3,5.3c2.1,2.9,3.3,4.6,4.1,8.2c0.6,0.3,1.2,0.5,1.8,0.5
		c3.8,0,2.7-6,1-8.4c-3.4-4.6-9.8-7.6-15.1-9.2C81.2,76.1,82.5,77.2,83.8,78.5z M80.7,41.6L80.7,41.6c1.4-1.7,2.6-3.6,3.7-5.6
		c0.3,0.2-0.2,0.8-0.2,1.1c0.8,0.9,1.3,2.1,1.4,3.3c-1.3,0.6-2.6,1.3-3.8,1.9L80.7,41.6z M81.5,41.5h-0.2
		C81.4,41.5,81.4,41.5,81.5,41.5L81.5,41.5z M86.3,45.1c1,0.8,2.5,2.3,2.5,3.7c-0.1,0.5-0.2,0.9-0.3,1.3c-2.1,0.2-4.2,0.2-6.4,0.2
		c-0.7-2.5,0.3-3.6,2.3-5.2H86.3z M84.5,40.1c-0.2-0.6-0.4-1.1-0.7-1.7l-1.8,2.8L84.5,40.1z M87.9,49.2c0-1.5-0.9-2.4-2-3.3h-1
		c-0.9,0.8-2.7,2.1-2.2,3.5C84.3,49.4,86.2,49.4,87.9,49.2L87.9,49.2z M89.4,40.7l0.1-0.3c-2.1,1.2-4.3,2.2-6.5,3.1
		C89.5,43.5,87.5,44.4,89.4,40.7L89.4,40.7z M83.8,77.3l-0.2-0.2l0.5,0.2H84c-0.1,0.1-0.1,0.1-0.2,0.1S83.8,77.4,83.8,77.3z
		 M86.4,40.1c0-1.2-0.5-2.3-1.3-3.1c0.3-0.8,0.2-0.6,0-1.3c1.9-0.9-0.1-3-1.1-2c0.2-0.5,0.3-1,0.4-1.5h1l4.1-4l7,6.7
		c-0.6,0.8-2.1,0.8-3.1,0.9C91.3,37.4,88.9,38.8,86.4,40.1z M85.5,79.7c1,0,1.8,0.7,1.9,1.7c0,0.1,0,0.1,0,0.2
		c-0.1,0.6-0.5,1.2-1,1.6c-0.8-0.9-1.4-2-2.3-2.8C84.5,80,85,79.8,85.5,79.7z M86.5,81.9c0.5-0.5-0.4-1.4-1.1-1.4L86.5,81.9z
		 M86,35.9c0.1,0.2,0.1,0.5,0,0.8c0.5,0.6,0.9,1.3,1.1,2.1c1-0.6,2.1-1.2,3.1-1.8c1-0.8,2.1-1.5,3.2-2.1c0.2,0,1.6,0,1.9-0.3
		l-5.8-5.4c-0.4,0.3-3.6,3.6-3.8,3.6C86.6,33.6,87.1,35,86,35.9z M86.8,42.6l1.2-0.3l-0.2,0.2l0.1-0.1l-0.2,0.3L86.8,42.6z
		 M89.6,30.3l4,3.8c-0.4,0-0.7,0.1-1,0.3c-0.1,0-2,1.4-2.3,1.7c-0.8,0.6-1.9,1-2.7,1.6L87,36.4l0.1-0.3c0.7-1,0.7-2.3-0.1-3.2
		L89.6,30.3z M87.6,45.1c2.4,0.2,3.3-3.8,4-5.6h0.8l0.3,4.9c1.3,0.3,2.5,0.9,2.5,2.5c0,2.5-3.9,3-5.8,3.1
		C89.8,47.7,89.5,46.5,87.6,45.1z M87.9,33.1c0.3,0.7,0.4,1.6,0.3,2.4c-0.1,0.2-0.5,0.8-0.3,1.1c1.4-0.8,2.8-1.7,4.1-2.7l-2.5-2.4
		L87.9,33.1z M91.8,41.5c-0.5,1.6-1.4,3-2.6,4.1c0.8,1,1.3,2.3,1.2,3.6c0.2-0.1,0.4-0.1,0.7-0.1c0.7-0.1,1.4-0.3,2.1-0.6
		c1.9-0.7,1.6-2.5-0.7-3.1c-0.3-0.1-0.5-0.4-0.5-0.8L91.8,41.5z M89.2,83.8c0.7-1,0.9-2.4,0.4-3.6c1.7,1,3.2,2.4,4.5,3.9
		c1.3,1.5,2.5,4.9,1.4,6.8c-0.4,0.6-1.3,0.9-2,0.7c-0.2-0.1-0.4-0.2-0.6-0.3C92.1,88.7,90.9,86.1,89.2,83.8z M90,83.8
		c1.6,2.1,2.8,4.5,3.6,7c1.4,0,1.4-0.5,1.4-1.7c0-3.1-2-5.3-4.4-7.1C90.5,82.6,90.3,83.2,90,83.8L90,83.8z M92.5,47.8
		c-0.4,0.2-0.9,0.4-1.4,0.4c-0.1-0.9-0.4-1.7-0.8-2.5c0.3-0.3,0.6-0.7,0.8-1.1c0.2,0.5,0.6,1.3,1.1,1.5C93.7,46.5,94.4,47,92.5,47.8
		L92.5,47.8z M91.8,46.7c0,0.1,0,0.2,0.1,0.2v0.3l0.4-0.2h-0.2c0.1,0,0.2,0,0.3-0.1h0.2c-0.3-0.1-0.4-0.1-0.7-0.2
		C91.9,46.8,91.9,46.7,91.8,46.7L91.8,46.7z M94.9,34C94.9,34.1,94.9,34.1,94.9,34C94.9,34,94.9,34,94.9,34L94.9,34z"/>
</g>
<linearGradient id="SVGID_4_" gradientUnits="userSpaceOnUse" x1="60" y1="114.4026" x2="60" y2="9.8152">
	<stop  offset="0" style="stop-color:#A2DED7"/>
	<stop  offset="1" style="stop-color:#F1A3A7"/>
</linearGradient>
<path class="st4" d="M60,111.6C31.1,111.6,7.6,88.5,7.6,60S31.1,8.4,60,8.4s52.4,23.2,52.4,51.6S88.9,111.6,60,111.6z M60,10.4
	C32.2,10.4,9.6,32.7,9.6,60s22.6,49.6,50.4,49.6s50.4-22.2,50.4-49.6S87.8,10.4,60,10.4z"/>
<linearGradient id="SVGID_5_" gradientUnits="userSpaceOnUse" x1="25.455" y1="114.4026" x2="25.455" y2="9.8152">
	<stop  offset="0" style="stop-color:#A2DED7"/>
	<stop  offset="1" style="stop-color:#F1A3A7"/>
</linearGradient>
<path class="st5" d="M37,55.9c-1.3,0.3-2.7,0.4-4.1,0.4c-2.7,0-4.3-0.2-4.7-0.5c-0.5-0.4-0.7-1.1-0.6-1.8v-3.8H13.2V54h-2.5v-6h13.4
	v-3.5h2.6V48h13.6v5.6h-1.9C38.3,54.6,37.8,55.4,37,55.9z M20.7,50.5l2.2,0.9c-1.7,3.1-5.1,5.1-9.9,6.1l-1.3-1.9
	C16,55,19,53.3,20.7,50.5z M22.7,55l2.6,0.3c-0.3,1-0.7,1.9-1.2,2.7l-0.1,0.2H38v17.5h-2.4v-1.4H15.5v1.4H13V58.3h8.4
	C21.9,57.2,22.3,56.1,22.7,55L22.7,55z M15.5,72.2h20.1V60.4H15.5V72.2z M29.6,67.6c1.1,0.6,2.1,1.1,3.1,1.7L31.2,71
	c-0.8-0.6-2.1-1.4-4-2.5c-2.7,1.5-5.5,2.6-8.5,3.3L17.5,70c2.6-0.5,5.2-1.4,7.6-2.6C24,66.8,23,66.3,22,65.9c-1,0.6-2,1.1-3,1.5
	L17.5,66c1.1-0.5,2-0.9,2.5-1.1l-0.6-0.3c-0.1,0-0.4-0.2-1-0.4l-0.8-0.3l1.4-1.3l0.6,0.3c0.8,0.3,1.5,0.6,2.3,0.9
	c1.4-0.9,2.7-2,3.9-3.2l2.2,0.7l-1,1h5.3l1.3,1.1c-1.3,1.5-2.8,2.9-4.4,4L29.6,67.6z M30.2,64h-5.5c-0.1,0.1-0.2,0.2-0.4,0.3
	s-0.4,0.3-0.5,0.4c1.1,0.5,2.3,1,3.4,1.6C28.3,65.6,29.3,64.9,30.2,64z M37.7,50.1H30v2.9c0,0.6,0.1,0.8,0.5,0.9
	c0.7,0.2,1.4,0.2,2.1,0.2c1.1,0.1,2.2,0,3.2-0.4c0.3-0.2,0.5-0.8,0.5-1.8c0-0.1,0-0.3,0-0.4l1.4,0.4L37.7,50.1z"/>
<linearGradient id="SVGID_6_" gradientUnits="userSpaceOnUse" x1="60.47" y1="114.4026" x2="60.47" y2="9.8152">
	<stop  offset="0" style="stop-color:#A2DED7"/>
	<stop  offset="1" style="stop-color:#F1A3A7"/>
</linearGradient>
<path class="st6" d="M47.3,75.8l-2-1.8c2.8-3.6,4.8-7.8,5.8-12.2h2.3C52.5,66.8,50.4,71.6,47.3,75.8z M56.5,54.1h-9.3v-2.2h9.3V54.1
	z M53.9,67.1c0.8,1.3,1.8,2.4,3,3.4c1.8,1.4,5.2,2.1,10.4,2.1c2.3,0,5.1-0.1,8.3-0.4c-0.4,0.9-0.8,1.8-1,2.7C72,74.9,70,75,68.6,75
	c-5.2,0-9.1-0.5-11.6-1.5c-1.7-0.6-3.2-1.9-4-3.5L53.9,67.1z M58.8,45.6h2.5v6.3h9.6l1.1,1.3c-4.1,3.9-8.6,7.3-13.3,10.4L57,61.8
	c3.8-2.1,7.3-4.7,10.4-7.7h-8.6V45.6z"/>
<linearGradient id="SVGID_7_" gradientUnits="userSpaceOnUse" x1="95.295" y1="114.4026" x2="95.295" y2="9.8152">
	<stop  offset="0" style="stop-color:#A2DED7"/>
	<stop  offset="1" style="stop-color:#F1A3A7"/>
</linearGradient>
<path class="st7" d="M80.4,73.4V46.8h10v2.2h-7.7v5.1h3.6v2.1h-3.7v5.1h3.6v2.1h-3.6v10L80.4,73.4z M84.4,69h3.8V51.4h2.2v19.8h-6
	L84.4,69z M100.4,71.9v2.5h-9.3v-2.5L100.4,71.9z M95.3,48.6v4h7.4v2h-7.4v15.7h-2.4V46.5h14.3v2.1L95.3,48.6z M104.9,58.9v-8.5
	l2.3-0.1V61H97v-2.1H104.9z M99.9,63c2,4.3,5,8,8.7,10.9l-1.9,1.6c-3.9-3.5-7.4-7-8.8-11.8L99.9,63z M110.1,64.1l-4.8,3.8l-1.5-1.9
	l4.8-3.9L110.1,64.1z"/>
<linearGradient id="SVGID_8_" gradientUnits="userSpaceOnUse" x1="11.91" y1="114.4026" x2="11.91" y2="9.8152">
	<stop  offset="0" style="stop-color:#A2DED7"/>
	<stop  offset="1" style="stop-color:#F1A3A7"/>
</linearGradient>
<polygon class="st8" points="13.2,54 13.2,41.3 11.1,42.8 10.6,48.1 10.6,54 "/>
<linearGradient id="SVGID_9_" gradientUnits="userSpaceOnUse" x1="14.25" y1="114.4026" x2="14.25" y2="9.8152">
	<stop  offset="0" style="stop-color:#A2DED7"/>
	<stop  offset="1" style="stop-color:#F1A3A7"/>
</linearGradient>
<polygon class="st9" points="15.5,84.9 15.5,75.8 13,75.8 13,82.5 "/>
<linearGradient id="SVGID_10_" gradientUnits="userSpaceOnUse" x1="25.355" y1="114.4026" x2="25.355" y2="9.8152">
	<stop  offset="0" style="stop-color:#A2DED7"/>
	<stop  offset="1" style="stop-color:#F1A3A7"/>
</linearGradient>
<polygon class="st10" points="24.1,23.8 24.1,44.6 26.6,44.6 26.6,21.5 "/>
<linearGradient id="SVGID_11_" gradientUnits="userSpaceOnUse" x1="36.835" y1="114.4026" x2="36.835" y2="9.8152">
	<stop  offset="0" style="stop-color:#A2DED7"/>
	<stop  offset="1" style="stop-color:#F1A3A7"/>
</linearGradient>
<polygon class="st11" points="35.6,104.8 35.6,78.2 38,78.2 38,106.7 "/>
<linearGradient id="SVGID_12_" gradientUnits="userSpaceOnUse" x1="39.005" y1="114.4026" x2="39.005" y2="9.8152">
	<stop  offset="0" style="stop-color:#A2DED7"/>
	<stop  offset="1" style="stop-color:#F1A3A7"/>
</linearGradient>
<polygon class="st12" points="40.3,13.3 40.3,48.1 40.3,49.7 37.7,50.2 37.7,14.4 "/>
<linearGradient id="SVGID_13_" gradientUnits="userSpaceOnUse" x1="25.355" y1="114.4026" x2="25.355" y2="9.8152">
	<stop  offset="0" style="stop-color:#A2DED7"/>
	<stop  offset="1" style="stop-color:#F1A3A7"/>
</linearGradient>
<polygon class="st13" points="24.1,96.5 24.1,73.4 26.6,73.4 26.6,98.7 "/>
<linearGradient id="SVGID_14_" gradientUnits="userSpaceOnUse" x1="81.56" y1="114.4026" x2="81.56" y2="9.8152">
	<stop  offset="0" style="stop-color:#A2DED7"/>
	<stop  offset="1" style="stop-color:#F1A3A7"/>
</linearGradient>
<polygon class="st14" points="80.4,13.8 80.4,44.8 82.7,44.8 82.7,14.7 "/>
<linearGradient id="SVGID_15_" gradientUnits="userSpaceOnUse" x1="81.56" y1="114.4026" x2="81.56" y2="9.8152">
	<stop  offset="0" style="stop-color:#A2DED7"/>
	<stop  offset="1" style="stop-color:#F1A3A7"/>
</linearGradient>
<polygon class="st15" points="80.4,106.5 80.4,73.4 82.7,73.4 82.7,105.5 "/>
<linearGradient id="SVGID_16_" gradientUnits="userSpaceOnUse" x1="94.06" y1="114.4026" x2="94.06" y2="9.8152">
	<stop  offset="0" style="stop-color:#A2DED7"/>
	<stop  offset="1" style="stop-color:#F1A3A7"/>
</linearGradient>
<polygon class="st16" points="92.9,21 92.9,47.3 92.9,49.4 95.3,49.5 95.3,23.1 "/>
<linearGradient id="SVGID_17_" gradientUnits="userSpaceOnUse" x1="94.085" y1="114.4026" x2="94.085" y2="9.8152">
	<stop  offset="0" style="stop-color:#A2DED7"/>
	<stop  offset="1" style="stop-color:#F1A3A7"/>
</linearGradient>
<polygon class="st17" points="92.9,98.9 92.9,72.8 95.3,72.8 95.3,96.8 "/>
<linearGradient id="SVGID_18_" gradientUnits="userSpaceOnUse" x1="106.035" y1="114.4026" x2="106.035" y2="9.8152">
	<stop  offset="0" style="stop-color:#A2DED7"/>
	<stop  offset="1" style="stop-color:#F1A3A7"/>
</linearGradient>
<polygon class="st18" points="104.9,36.7 104.9,47.7 107.2,47.6 107.2,41.3 "/>
<linearGradient id="SVGID_19_" gradientUnits="userSpaceOnUse" x1="11.955" y1="114.4026" x2="11.955" y2="9.8152">
	<stop  offset="0" style="stop-color:#A2DED7"/>
	<stop  offset="1" style="stop-color:#F1A3A7"/>
</linearGradient>
<polygon class="st19" points="8.4,58.3 13,58.3 15.5,58.3 15.5,60.4 8.5,60.4 "/>
<linearGradient id="SVGID_20_" gradientUnits="userSpaceOnUse" x1="108.21" y1="114.4026" x2="108.21" y2="9.8152">
	<stop  offset="0" style="stop-color:#A2DED7"/>
	<stop  offset="1" style="stop-color:#F1A3A7"/>
</linearGradient>
<polygon class="st20" points="111.6,58.9 104.9,58.9 104.9,61 111.3,61 "/>
</svg>
