<?xml version="1.0" encoding="utf-8"?>
<!-- Generator: Adobe Illustrator 23.0.4, SVG Export Plug-In . SVG Version: 6.00 Build 0)  -->
<svg version="1.1" id="圖層_1" xmlns="http://www.w3.org/2000/svg" xmlns:xlink="http://www.w3.org/1999/xlink" x="0px" y="0px"
	 viewBox="0 0 120 120" style="enable-background:new 0 0 120 120;" xml:space="preserve">
<style type="text/css">
	.st0{fill:url(#SVGID_1_);}
	.st1{fill:url(#SVGID_2_);}
	.st2{fill:url(#SVGID_3_);}
	.st3{fill:url(#SVGID_4_);}
	.st4{fill:url(#SVGID_5_);}
	.st5{fill:url(#SVGID_6_);}
</style>
<linearGradient id="SVGID_1_" gradientUnits="userSpaceOnUse" x1="17.1795" y1="74.6905" x2="17.1795" y2="49.2664">
	<stop  offset="0" style="stop-color:#A2DED7"/>
	<stop  offset="1" style="stop-color:#F1A3A7"/>
</linearGradient>
<path class="st0" d="M21.4,60.1h0.9c0.2,0,0.2-0.1,0.2-0.3c0-0.2-0.1-0.4-0.2-0.6c-0.1-0.1-0.1-0.2-0.2-0.3v-0.1
	c0.1,0,0.2,0.2,0.5,0.4c0.2,0.2,0.4,0.4,0.6,0.6c0.1,0.1,0.3,0.1,0.5,0.1c0.1,0,0.3,0,0.5,0c0.6,0,1.3,0.2,1.8,0.5
	c0.4,0.3,0.7,0.8,0.7,1.3c0,0.2-0.1,0.4-0.3,0.5c-0.2,0.1-0.4,0.2-0.6,0.2c-0.2,0-0.4,0-0.5-0.1c-1.3-0.4-2.7-0.6-4.1-0.8l0,4.3
	c0,1.2,0,2.3-0.1,3.5c-0.1,0.8-0.3,1.5-0.5,2.3c-0.1,0.5-0.2,1-0.4,1.4c-0.1,0.1-0.1,0.2-0.2,0.2c-0.3,0-0.6-1.2-0.8-3.6
	s-0.3-4.9-0.3-7.7c-1.4,0.4-2.7,0.9-4,1.5c-0.1,0.9-0.3,1.3-0.6,1.3s-0.4-0.2-0.7-0.7c-1.2,0.5-2.3,1.1-3.3,1.9
	c-0.4,0.3-0.9,0.5-1.4,0.5c-0.4,0-0.8-0.1-1.1-0.3c-0.3-0.1-0.4-0.4-0.4-0.7c0-0.5,0.1-0.9,0.4-1.3c0.3-0.4,0.8-0.7,1.3-0.8
	c1.4-0.5,2.7-1.1,4-1.9c0.3-1.1,0.5-2.2,0.6-3.4c0-0.3-0.1-0.6-0.3-0.9c-0.2-0.4-0.3-0.9-0.3-1.3c0-1.1,0.3-2.2,0.9-3.1
	c-0.7-0.3-1.3-0.7-1.8-1.2c-0.3-0.3-0.5-0.8-0.5-1.2l0.1-0.3c0.1-0.1,0.2-0.1,0.4-0.1H13c1.4,0,2.8-0.2,4.1-0.5
	c1.4-0.2,2.8-0.6,4.2-1.2c0.3-0.2,0.6-0.3,1-0.3c0.5,0.1,0.9,0.3,1.2,0.6c0.5,0.4,0.8,0.8,0.8,1c0,0.3-0.1,0.6-0.4,0.8
	c-0.3,0.3-0.6,0.4-1,0.4c-0.4,0-0.7,0-1.1,0.1c0.1,0.6,0.2,1.1,0.2,1.7c0,0.7-0.1,1.4-0.2,2.1c-0.1,0.9-0.2,1.8-0.2,2.8L21.4,60.1z
	 M19.4,53.3l-0.2-1.7c-0.7,0.3-1.4,0.6-2,1c-0.5,0.3-1.1,0.4-1.6,0.3c-0.1,0.4-0.2,0.8-0.1,1.3c0.9-0.1,1.7-0.3,2.5-0.7
	c0.3-0.1,0.6-0.2,0.9-0.2C19,53.2,19.2,53.3,19.4,53.3 M19.2,59.2c-1.2,0.4-2.4,0.9-3.6,1.4c-0.1,0.3-0.1,0.6-0.1,0.9
	c1.2-0.4,2.4-0.7,3.7-1L19.2,59.2z M19.5,55.4c-0.6,0.4-1.3,0.7-2,0.9l-0.3-0.1c-0.4-0.3-1-0.5-1.5-0.5c0.1,0.4,0.1,0.8,0.1,1.2
	c0,0.2,0,0.5,0,0.7c0.5,0,0.9-0.1,1.4-0.3c0.7-0.3,1.5-0.4,2.3-0.4L19.5,55.4z"/>
<linearGradient id="SVGID_2_" gradientUnits="userSpaceOnUse" x1="44.893" y1="74.6905" x2="44.893" y2="49.2664">
	<stop  offset="0" style="stop-color:#A2DED7"/>
	<stop  offset="1" style="stop-color:#F1A3A7"/>
</linearGradient>
<path class="st1" d="M40.8,53.4c0.2-0.1,0.4-0.1,0.7-0.1c0.3,0,0.6,0.1,0.9,0.3c0.3,0.1,0.4,0.4,0.4,0.7c-0.1,0.4-0.3,0.7-0.5,1
	c-0.5,0.5-1,0.9-1.6,1.2c-0.4,1.1-0.7,2.2-0.9,3.4c0.4-0.2,0.7-0.6,1-0.9c0.3-0.4,0.5-0.6,0.5-0.6l0.1,0.2c-0.1,0.4-0.2,0.8-0.5,1.2
	c-0.4,0.7-0.9,1.4-1.4,2c-0.1,0.5-0.2,2.6-0.3,6.1c0,0.7-0.1,1.5-0.2,2.2c-0.1,0.4-0.1,0.8-0.2,1.2l-0.2,0.1c-0.2,0-0.3-0.2-0.5-0.5
	c-1-2-2.1-3.9-3.5-5.7c-0.2,0.2-0.5,0.3-0.8,0.3c-0.2,0-0.4-0.2-0.5-0.4c-0.2-0.4-0.2-0.8-0.2-1.2c0-0.3,0-0.7,0.1-1
	c0-0.2,0.1-0.3,0.3-0.3c0.4,0,0.8,0,1.2-0.2c1-0.5,2.1-1.1,3.3-1.6c0-0.3,0.1-1.1,0.2-2.3c-0.6,0.6-1,1-1.3,1
	c-0.4,0-0.7-0.1-1.1-0.3c-0.6-0.4-1.1-0.9-1.5-1.5c-0.4-0.4-0.6-0.9-0.8-1.4c0-0.1,0.1-0.2,0.2-0.3c0,0,0,0,0.1,0
	c0.2,0,0.4,0,0.5,0.1c0.2,0.1,0.3,0.1,0.5,0.1c0.5-0.1,0.9-0.2,1.3-0.5c0.6-0.3,1.4-0.8,2.4-1.4c0.1-0.7,0.1-1.3,0.1-1.9
	c0.1-1.1-0.2-2.3-0.8-3.2c-0.1-0.1-0.1-0.3-0.2-0.4c0-0.1,0.1-0.2,0.2-0.2c0.2,0,0.4,0.2,0.6,0.3c0.2,0.2,0.5,0.4,0.7,0.5
	c0.4,0.1,0.8,0.3,1.2,0.6c0.2,0.3,0.4,0.6,0.4,1C40.8,52,40.9,52.7,40.8,53.4 M38,63.1c-0.9,0.7-1.9,1.3-2.8,1.9
	c0.6,1.1,1.5,1.9,2.7,2.4C38.1,66,38.1,64.5,38,63.1 M47.6,65c0.7,0.5,1.5,1,2.3,1.3c1.1,0.4,2.3,0.6,3.4,0.8
	c2.2,0.4,3.2,0.9,3.2,1.4c0,0.3-0.4,0.6-1.1,0.9c-0.7,0.3-1.4,0.4-2.1,0.4c-0.9-0.1-1.8-0.4-2.6-0.9c-1.3-0.7-2.5-1.6-3.5-2.5
	c-0.1,0.3-0.2,0.4-0.3,0.4s-0.3-0.3-0.4-0.9c-0.7-0.6-1.5-1-2.4-1.3c-0.2,0.6-0.5,1.1-0.8,1.6c-0.3,0.4-0.6,0.8-0.9,1.1
	c-0.3,0.2-0.6,0.4-0.9,0.6c-0.3,0.1-0.7,0.1-1,0.1c-0.5,0-0.7-0.1-0.7-0.2s0.1-0.2,0.2-0.3c0.6-0.4,1.2-0.9,1.7-1.5
	c0.4-0.5,0.7-1.1,1-1.7l-0.1-0.3c0-0.1,0.1-0.2,0.3-0.3c0.1-0.3,0.3-0.7,0.4-1c-0.6,0.4-1.4,0.6-2.1,0.6c-0.2,0-0.3-0.1-0.4-0.3
	c-0.1-0.2-0.2-0.4-0.2-0.7c0-0.3,0.1-0.5,0.2-0.7c0.1-0.2,0.4-0.4,0.6-0.4c0.6-0.2,1.2-0.5,1.7-0.8c0.9-0.5,1.4-0.8,1.6-0.9
	c0.2-0.1,0.3-0.3,0.3-0.5c-0.1-0.3-0.2-0.5-0.4-0.7c-0.3-0.3-0.4-0.6-0.4-1c0-0.4,0.1-0.8,0.1-1.2c0.1-0.3,0.1-0.6,0.1-0.9
	c0-0.5-0.1-0.9-0.5-1.2c-0.2-0.1-0.3-0.3-0.3-0.5c0-0.2,0.1-0.4,0.2-0.5C44,53,44.3,53,44.5,53c0.2,0,0.3,0,0.5,0
	c0.2,0.2,0.3,0.5,0.4,0.7c0.1,0.3,0.2,0.4,0.4,0.4c0.5-0.1,1-0.2,1.5-0.4c0.2-0.1,0.4-0.1,0.6-0.1c0.3,0,0.6,0.1,0.8,0.2
	c0-0.5,0-1,0-1.5c0-0.3-0.1-0.4-0.2-0.4h-0.2c-0.4,0.2-0.9,0.3-1.3,0.4c-0.4,0.1-0.8,0.2-1.2,0.2c-0.3,0-0.5-0.1-0.5-0.3
	s0.2-0.4,0.6-0.8c0.3-0.3,0.7-0.5,1.2-0.7c0.3-0.1,0.6-0.3,0.8-0.5c0.1-0.2,0.4-0.3,0.6-0.3c0.3,0,0.6,0.1,0.8,0.3
	c0.4,0.2,0.8,0.4,1.2,0.6c0.4,0.2,0.6,0.5,0.6,1.2c0,0.9-0.1,1.8-0.3,2.7c-0.2,1.4-0.6,2.8-1,4.2c0.5-0.2,1-0.3,1.6-0.4
	c0.3,0,0.6,0.2,0.7,0.5c0.1,0.2,0.2,0.5,0.2,0.8c0,0.2-0.2,0.3-0.5,0.3c-1.2,0-2.3,0.1-3.5,0.5c0,0.1,0,0.3-0.1,0.7s0,0.6-0.1,0.7
	c0.5,0,1,0,1.5-0.2c-0.1-0.1-0.1-0.3-0.2-0.4l0.1-0.2l0.2,0.1c0.3,0.2,0.7,0.3,1.1,0.2c0.1,0,0.2,0.1,0.3,0.3
	c0.1,0.2,0.2,0.4,0.2,0.7c0,0.2,0,0.3-0.1,0.5c-0.4,0.2-0.9,0.4-1.3,0.5c-0.8,0.3-1.5,0.5-2,0.6L47.6,65z M45,60.5
	c0-0.2,0-0.3-0.2-0.3s-0.4,0.3-0.4,0.4c0.1,0,0.2,0,0.3,0C44.8,60.6,45,60.6,45,60.5 M46.4,64.3c0.1-0.9,0.2-1.5,0.2-1.8
	c0.1-0.3,0.1-0.5,0.1-0.8c0-0.2,0-0.3-0.1-0.5L45,61.9c-0.1,0.6-0.3,1.2-0.6,1.7C45.1,63.7,45.8,63.9,46.4,64.3 M48.6,55.1
	c-0.8,0-1.6,0.3-2.2,0.8c-0.5,0.5-0.7,0.8-0.7,0.9s0,0.2,0.2,0.2l0.3,0c0.7-0.2,1.5-0.3,2.3-0.4L48.6,55.1z M45.8,56.1
	c0.2,0,0.3-0.2,0.2-0.3l-0.1-0.1l-0.2,0.1L45.6,56L45.8,56.1z M48.7,59.1c-0.2-0.4-0.3-0.7-0.4-1.1c-0.4,0.2-0.8,0.5-1.2,0.8
	c-0.4,0.4-0.9,0.7-1.4,1c0.5,0,1-0.1,1.5-0.2C47.7,59.5,48.2,59.4,48.7,59.1"/>
<linearGradient id="SVGID_3_" gradientUnits="userSpaceOnUse" x1="71.5431" y1="74.6905" x2="71.5431" y2="49.2664">
	<stop  offset="0" style="stop-color:#A2DED7"/>
	<stop  offset="1" style="stop-color:#F1A3A7"/>
</linearGradient>
<path class="st2" d="M73.7,56.8c0.6-0.2,1.3-0.3,1.9-0.3c1.4,0,2.7,0.4,3.8,1.1c0.9,0.5,1.5,1.4,1.6,2.5c0,0.3-0.1,0.7-0.2,1
	c-0.3,0.8-0.5,1.6-0.6,2.5c-0.2,1.1-0.6,2.2-0.9,3.3c-0.3,1-0.7,1.9-1.3,2.7c-0.3,0.5-0.7,1-1.1,1.5c-0.1,0.2-0.3,0.2-0.5,0.3
	c-0.2,0-0.5-0.2-0.9-0.6c-0.3-0.3-0.6-0.7-0.8-1.1c-0.1-0.3-0.4-0.6-0.7-0.8c-0.2-0.2-0.5-0.3-0.8-0.3c-0.2,0-0.4,0-0.6,0.1
	c-0.2,0.1-0.4,0.3-0.4,0.6c-0.1,0.3-0.3,0.4-0.3,0.4s-0.4-0.3-0.7-1c-1,0.1-2,0.2-3,0.3c-0.7,0.1-1.3,0.4-1.9,0.7
	c-0.3,0.2-0.6,0.4-1,0.5c-0.2,0-0.5-0.2-0.9-0.8c-0.6-0.7-1-1.6-1.2-2.5c-0.3-0.8-0.5-1.6-0.5-2.4c0-0.7-0.1-1.5-0.3-2.2
	c-0.1-0.3-0.1-0.7-0.1-1c0-0.6,0.1-1.2,0.3-1.7c0.1-0.5,0.4-1,0.9-1.4c0.6-0.3,1.2-0.5,1.9-0.6c0.6-0.1,1.3-0.3,1.8-0.6
	c0.4-0.3,0.7-0.6,1-0.9c0.3-0.3,0.5-0.6,0.5-1c0-0.3,0-0.5-0.1-0.8c-0.6-0.4-1.2-1-1.7-1.6c-0.3-0.3-0.6-0.7-0.7-1.2
	c0-0.2,0-0.4-0.1-0.5l-0.2-0.3l0.1-0.1c0.2,0,0.4,0.1,0.5,0.2c0.2,0.1,0.5,0.1,0.7,0.2c0.3,0,0.5-0.1,0.7-0.2
	c0.4-0.2,0.8-0.3,1.2-0.3c0.5-0.1,1.1-0.2,1.7-0.3s1-0.3,1.3-0.3c0.3-0.1,0.6-0.1,0.9-0.1c0.5,0,0.9,0.1,1.4,0.3
	c0.4,0.1,0.8,0.4,1.1,0.7c0.2,0.2,0.2,0.5,0.2,0.7c0,0.3,0,0.5-0.2,0.7c-0.1,0.2-0.3,0.3-0.7,0.3c-0.3,0-0.7,0.1-1,0.2
	c-0.3,0.1-0.6,0.3-0.9,0.5c-0.6,0.5-1.4,0.9-2.2,1c0.2,0.5,0.3,1.1,0.3,1.7c0,0.8-0.2,1.2-0.7,1.4c-0.2,0.1-0.4,0.2-0.6,0.3
	c-0.2,0.1-0.3,0.2-0.3,0.2l0.1,0.1c0.2-0.1,0.5-0.2,0.7-0.2c0.2,0,0.4-0.1,0.6-0.3l0.1-0.2l-0.1-0.2c0-0.2,0.2-0.4,0.5-0.5
	c0.3-0.2,0.7-0.2,1-0.2C72.8,56.1,73.3,56.4,73.7,56.8 M66.9,58.8c-0.1-0.3-0.2-0.5-0.4-0.5s-0.7,0-1.3,0c-0.5,0-1,0.1-1.5,0.3
	c-0.4,0.3-0.6,0.7-0.5,1.2c0,0.8,0.1,1.6,0.4,2.3c0.3-0.6,0.5-1.1,0.9-1.7c0.2-0.2,0.5-0.4,0.8-0.5c0.3-0.1,0.6-0.3,0.9-0.5
	C66.3,59.1,66.6,58.9,66.9,58.8 M68.1,67.3c-0.4-0.6-0.7-1.3-0.8-2c0-0.3,0-0.5,0.1-0.8c0-0.3,0.1-1.6,0.1-3.9
	c-0.3,0.2-0.7,0.2-1,0.3c-0.2,0-0.4,0-0.7-0.1c-0.2,0-0.3-0.1-0.5-0.1c-0.6,0-1.2,0.6-1.6,1.7c0.2,1.9,0.7,3.8,1.3,5.7
	C66,67.7,67,67.5,68.1,67.3 M70.2,67c-0.1-0.5-0.1-1-0.1-1.5c-0.2,0-0.6-0.3-1.3-1c0,0.3,0,1.2,0,2.7C69.5,67.1,70,67,70.2,67
	 M68.9,63.1l0.2,0.1c0.1,0,0.1-0.1,0.2-0.3c0.1-0.2,0.1-0.3,0.1-0.5c0-0.2-0.2-0.3-0.5-0.3L68.9,63.1z M72,58.7c-1,0.4-2,0.8-3,1.2
	c0,0.2,0.1,0.3,0.2,0.3c0.2,0,0.3-0.1,0.5-0.3c0.7-0.5,1.7-0.3,2.2,0.4C72,59.8,72,59.2,72,58.7 M71.2,65.6c-0.1,0-0.2-0.1-0.3-0.1
	c-0.1,0-0.3,0-0.4,0.1c0.1,0.2,0.1,0.3,0.3,0.4l0.3,0.2C71.2,66.1,71.2,65.9,71.2,65.6 M71.7,62.5l-0.2-0.1c-0.1,0-0.2,0.1-0.3,0.2
	c-0.1,0.2-0.2,0.3-0.3,0.4c-0.1,0.1-0.2,0.2-0.2,0.2s0.3,0.3,0.9,0.5C71.6,63.3,71.6,62.9,71.7,62.5 M75.1,68.1
	c0.2,0.1,0.4,0.1,0.6,0.1c0.1,0,0.3-0.1,0.5-0.4c0.3-0.5,0.5-1.1,0.7-1.6c0.3-1,0.6-2.1,0.9-3.2c0.2-1,0.4-1.9,0.4-2.9
	c0-0.5-0.1-1.1-0.3-1.6c-0.2-0.3-0.6-0.5-1.4-0.5c-0.7,0-1.3,0-2,0.1c0.1,1.6-0.4,4.4-1.4,8.5h0.3c0.4,0,0.8,0.2,1.1,0.4
	C74.7,67.3,75,67.6,75.1,68.1"/>
<linearGradient id="SVGID_4_" gradientUnits="userSpaceOnUse" x1="99.59" y1="74.6905" x2="99.59" y2="49.2664">
	<stop  offset="0" style="stop-color:#A2DED7"/>
	<stop  offset="1" style="stop-color:#F1A3A7"/>
</linearGradient>
<path class="st3" d="M98.3,51.1c0.6,0.2,1.3,0.4,1.8,0.8c0.9,0.7,1.7,1.4,2.5,2.1c1.1,1,2.4,2,3.6,2.8c0.9,0.6,1.8,1.1,2.7,1.6
	c0.4,0.1,0.8,0.3,1.2,0.6c0.3,0.2,0.5,0.5,0.7,0.7c0.2,0.2,0.4,0.4,0.4,0.7c0,0.3-0.6,0.5-1.8,0.5c-1.1,0.1-2.1,0-3.2-0.3
	c-0.9-0.5-1.6-1.2-2.3-1.9c-1.1-1.1-2.3-2.6-3.8-4.5c-0.8-0.8-1.9-1.4-3.1-1.6l-1.9,3c1.1-0.1,2.2-0.3,3.2-0.8
	c0.2-0.1,0.5-0.2,0.8-0.2c0.4,0.1,0.9,0.4,1.2,0.7c0.6,0.5,0.9,0.9,0.9,1.2s-0.4,0.6-1.2,0.7c0,0.4-0.1,0.8-0.1,1.2
	c0.6-0.2,1.1-0.4,1.7-0.3c0.6,0,1.2,0.2,1.6,0.6c0.4,0.4,0.7,0.9,0.7,1.5c-0.1,0.7-0.2,1.3-0.4,2c-0.1,0.7-0.4,1.4-0.7,2
	c-0.2,0.3-0.5,0.6-0.8,0.8c-0.3,0.2-0.6,0.3-1,0.3c-0.4,0-0.8-0.2-1.2-0.4c-0.1,3.5-0.2,5.7-0.3,6.6c-0.1,0.9-0.3,1.3-0.4,1.3
	s-0.4-0.6-0.6-1.9c-0.3-3-0.5-6-0.5-9c-0.5,0.5-0.9,1.2-1.1,1.9c-0.3,0.9-0.6,1.4-0.9,1.4s-0.6-0.3-1.1-0.9
	c-0.3-0.3-0.5-0.7-0.7-1.1c0-0.1,0-0.2,0.1-0.3c0.2-0.3,0.4-0.7,0.5-1.1c0-0.1,0-0.3-0.1-0.4c-0.1-0.2-0.2-0.4-0.2-0.6
	c0,0.4-0.1,0.8-0.4,1.1c-0.4,0.6-0.6,1.3-0.5,2.1c0,0.2,0,0.5,0,0.7c0,0.3,0,0.5,0,0.8c0,0.3-0.1,0.6-0.2,0.9
	c-0.1,0.3-0.4,0.5-0.8,0.4c-0.3,0-0.8-0.4-1.3-1.3c-0.3-0.5-0.6-1-0.7-1.6c0-0.2,0.1-0.3,0.3-0.4c0.3-0.1,0.4-0.6,0.4-1.3
	c0-0.3,0-0.5-0.1-0.7c-0.5,0.5-1,1-1.5,1.4c-0.4,0.3-0.8,0.4-1.3,0.5c-0.6,0-1-0.1-1-0.2l0.1-0.2c0.8-0.6,1.5-1.4,2.1-2.2
	c0.4-0.6,2-3.3,4.6-8.1c1-1.8,1.7-3,1.9-3.5c0.1-0.3,0.3-0.6,0.4-0.9c0.1-0.1,0.3-0.2,0.5-0.2c0.5,0.1,0.9,0.3,1.4,0.5
	c0.7,0.4,1,0.8,1,1.2c0,0.3-0.2,0.5-0.4,0.7C99,50.5,98.6,50.8,98.3,51.1 M98.8,57.5c-0.6,0.3-1.2,0.6-1.9,0.8
	c-0.5,0.2-1.8,0.5-3.8,1c-0.2,0.3-0.4,0.7-0.7,1c0.5,0.5,0.8,0.8,1,0.8l0.3-0.1c0.3-0.4,0.8-0.7,1.2-0.9c0.3-0.1,0.6-0.1,0.9-0.2
	c0.2,0,0.5,0,0.7,0.2c0.1,0.1,0.2,0.1,0.3,0.2c0.6-0.2,1.2-0.6,1.7-1C98.7,58.7,98.8,58.1,98.8,57.5 M95.3,58
	c-0.3-0.4-0.6-0.7-0.9-1l-1.2,2C94,58.8,94.7,58.5,95.3,58 M100.1,63.2c0.2,0.1,0.5,0.2,0.8,0.3c0.2,0,0.3-0.1,0.4-0.2
	c0.2-0.4,0.3-0.8,0.4-1.2c0.2-0.6,0.3-1.3,0.3-1.9c0-0.3-0.1-0.4-0.3-0.4c-0.6,0.2-1.1,0.6-1.5,1L100.1,63.2z"/>
<linearGradient id="SVGID_5_" gradientUnits="userSpaceOnUse" x1="54.8375" y1="74.6905" x2="54.8375" y2="49.2664">
	<stop  offset="0" style="stop-color:#A2DED7"/>
	<stop  offset="1" style="stop-color:#F1A3A7"/>
</linearGradient>
<path class="st4" d="M20.5,71.7c0,0,11.4,5.8,10.7-7.3s1.2-14.7,4-15.1s2.4-0.9,3.7,0.4s0.2,17,0.3,17.5s-0.2,1.6,2.4-1.2
	s4-1.8,6.3,0c1.9,1.3,4.1,1.9,6.4,1.9c0.6,0,1.3,0,1.9,0.2c0,0,7,0.4,7.4,0.3c2.2-0.3,4.5-0.5,6.7-0.6c1.1,0.1,3.1-0.8,4.8,0.6
	s3.3-1.3,4-1.7s8.4-2.8,9.7-4.5s1.4,0.8,0.2,1s-9,3.1-9.8,4s-3.3,3.6-4.6,1.8s-4.2-1-5.3-0.8s-11.5,1.5-14.1,0.7s-10.1-4.2-11-4.2
	s-1.1,0.7-1.4,1c-0.9,0.8-1.9,1.6-2.9,2.2c-0.2-0.1-0.7,0.5-0.7-1.1s0.5-18.4-1.5-17.7s-5.8-0.1-6,5.2c-0.4,2.4-0.5,4.8-0.4,7.2
	c0,0,1.3,10.2-2.9,11.2s-8.8,1.4-8.5-0.1S20.5,71.7,20.5,71.7"/>
<linearGradient id="SVGID_6_" gradientUnits="userSpaceOnUse" x1="21.9998" y1="74.6905" x2="21.9998" y2="49.2664">
	<stop  offset="0" style="stop-color:#A2DED7"/>
	<stop  offset="1" style="stop-color:#F1A3A7"/>
</linearGradient>
<path class="st5" d="M22.6,59c-0.5-0.4-0.9-1.1-1-1.7c0-1-0.1-0.6-0.2,0s0.8,1.5,0.9,1.7S22.6,59,22.6,59"/>
</svg>
