<?xml version="1.0" encoding="utf-8"?>
<!-- Generator: Adobe Illustrator 23.0.4, SVG Export Plug-In . SVG Version: 6.00 Build 0)  -->
<svg version="1.1" id="圖層_1" xmlns="http://www.w3.org/2000/svg" xmlns:xlink="http://www.w3.org/1999/xlink" x="0px" y="0px"
	 viewBox="0 0 120 120" style="enable-background:new 0 0 120 120;" xml:space="preserve">
<style type="text/css">
	.st0{fill:url(#SVGID_1_);}
	.st1{opacity:0.3;fill:url(#SVGID_2_);}
	.st2{opacity:0.3;fill:url(#SVGID_3_);}
	.st3{fill:url(#SVGID_4_);}
	.st4{fill:url(#SVGID_5_);}
	.st5{fill:url(#SVGID_6_);}
	.st6{fill:url(#SVGID_7_);}
	.st7{fill:url(#SVGID_8_);}
	.st8{fill:url(#SVGID_9_);}
	.st9{fill:url(#SVGID_10_);}
	.st10{fill:url(#SVGID_11_);}
	.st11{fill:#FFFFFF;}
	.st12{opacity:0.3;fill:url(#SVGID_12_);}
	.st13{fill:url(#SVGID_13_);}
	.st14{fill:url(#SVGID_14_);}
	.st15{fill:url(#SVGID_15_);}
	.st16{fill:url(#SVGID_16_);}
	.st17{fill:url(#SVGID_17_);}
	.st18{fill:url(#SVGID_18_);}
</style>
<linearGradient id="SVGID_1_" gradientUnits="userSpaceOnUse" x1="60.0461" y1="111.9357" x2="60.0461" y2="10.9156">
	<stop  offset="0" style="stop-color:#A2DED7"/>
	<stop  offset="1" style="stop-color:#F1A3A7"/>
</linearGradient>
<path class="st0" d="M60,112.8C30.9,112.7,7.3,89.1,7.3,60S31,7.2,60.1,7.2c14,0,27.4,5.6,37.3,15.5c20.6,20.6,20.6,54,0,74.6
	C87.4,107.2,74,112.8,60,112.8z M60,8.8c-28.3,0-51.2,23-51.2,51.3c0,28.3,23,51.2,51.3,51.2c28.3,0,51.2-23,51.2-51.3
	C111.3,31.7,88.3,8.8,60,8.8L60,8.8z"/>
<linearGradient id="SVGID_2_" gradientUnits="userSpaceOnUse" x1="91.9507" y1="64.905" x2="31.5718" y2="64.905">
	<stop  offset="0" style="stop-color:#A2DED7"/>
	<stop  offset="1" style="stop-color:#F1A3A7"/>
</linearGradient>
<polygon class="st1" points="29.2,24 29.2,94.8 55.6,105.8 56,30.8 "/>
<linearGradient id="SVGID_3_" gradientUnits="userSpaceOnUse" x1="91.9507" y1="64.675" x2="31.5718" y2="64.675">
	<stop  offset="0" style="stop-color:#A2DED7"/>
	<stop  offset="1" style="stop-color:#F1A3A7"/>
</linearGradient>
<polygon class="st2" points="92.1,23.3 93.2,94.4 56.3,106 "/>
<linearGradient id="SVGID_4_" gradientUnits="userSpaceOnUse" x1="74.9471" y1="111.9357" x2="74.9471" y2="10.9156">
	<stop  offset="0" style="stop-color:#A2DED7"/>
	<stop  offset="1" style="stop-color:#F1A3A7"/>
</linearGradient>
<path class="st3" d="M74.6,94.8c-3.2,0.8-6.4,1.7-9.7,2.5c-2.6,0.7-4-0.5-4-3.4c-0.1-1.7-0.1-3.4,0-5.1c0-2.5,1.6-4.6,4-5.3
	c6.6-1.8,13.1-3.4,19.7-5c0.8-0.2,1.6-0.1,2.4,0.2c1.8,0.8,2.4,5.6,1.4,9.3c-0.5,2.3-2.5,4.1-4.9,4.4C80.7,93.2,77.7,94,74.6,94.8z
	 M64.9,87.9l-0.1,4.9l20-5.1l0.1-4.9L64.9,87.9z"/>
<linearGradient id="SVGID_5_" gradientUnits="userSpaceOnUse" x1="74.0638" y1="111.9357" x2="74.0638" y2="10.9156">
	<stop  offset="0" style="stop-color:#A2DED7"/>
	<stop  offset="1" style="stop-color:#F1A3A7"/>
</linearGradient>
<path class="st4" d="M66.3,46l5.7-1.5l0.3-4l-11.4,2.9c-0.4,0.1-1.1-0.4-1.1-0.7c-0.2-0.7-0.2-1.5,0-2.2c0.2-0.5,0.6-0.9,1.1-1.2
	L72,36.6c0.1-0.9,0.2-1.9,0.5-2.8c0.9-2.2,2.8-1.6,3.3-0.5c0.2,0.6,0.4,1.3,0.5,2c3.1-0.8,9.2-2.2,10.7-2.5c0.2,0,0.4,0,0.6,0.1
	c0.4,0.3,0.7,0.8,0.7,1.3c0.1,0.6,0.1,1.2-0.1,1.8c-0.1,0.2-0.3,0.3-0.4,0.3l-1.2,0.3l-10.3,2.6l-0.1,4.2l6.9-1.8
	c0.3-0.1,0.5,0,0.8,0.1c0.5,0.4,0.8,1,0.8,1.6c0.1,0.8-0.2,1.6-0.8,2.2c-0.1,0.1-0.2,0.1-0.4,0.2L66.6,50
	C64.6,50.5,64.5,46.5,66.3,46z"/>
<linearGradient id="SVGID_6_" gradientUnits="userSpaceOnUse" x1="74.902" y1="111.9357" x2="74.902" y2="10.9156">
	<stop  offset="0" style="stop-color:#A2DED7"/>
	<stop  offset="1" style="stop-color:#F1A3A7"/>
</linearGradient>
<path class="st5" d="M60.2,81.8c-0.2-1-0.1-2,0.1-3c0.2-0.5,0.4-0.5,0.5-0.6l3.7-1.3l0.3-2.8c0-0.1,0-0.2,0.1-0.3
	c0.1-0.1,0.1-0.2,0.2-0.3c0.1,0,0.1-0.1,0.2-0.1l2.4-0.6c0.1,0,0.1,0,0.2,0c0.1,0,0.1,0.1,0.2,0.1c0,0.1,0.1,0.2,0.1,0.3l0.4,2.7
	l13.1-3.3l0.5-3c0.1-0.2,0.3-0.5,0.5-0.6l2.2-0.7c0.1,0,0.5,0.2,0.5,0.4l0.5,2.8l3.3-0.6c0.2,0,0.5,0.2,0.5,0.3l-0.1,3
	c-0.1,0.3-0.3,0.5-0.6,0.7l-28.1,7.2C60.7,82.2,60.2,82,60.2,81.8z"/>
<linearGradient id="SVGID_7_" gradientUnits="userSpaceOnUse" x1="42.195" y1="111.9357" x2="42.195" y2="10.9156">
	<stop  offset="0" style="stop-color:#A2DED7"/>
	<stop  offset="1" style="stop-color:#F1A3A7"/>
</linearGradient>
<path class="st6" d="M44.3,93.5l-2.9-0.9l-0.3-0.1c-0.3-0.3-0.4-0.6-0.3-1V50.5c0-0.2-0.1-0.4-0.3-0.5l-6.3-1.9
	c-0.4-0.2-0.7-0.5-0.8-0.9v-2.3c0-0.4,0.7-1.1,1.1-1l15.4,4.6c0.5,0.3,0.9,0.8,1.2,1.3v2c0,0.3-0.6,0.8-0.9,0.8l-5.4-1.3
	c-0.1,0-0.3,0.1-0.3,0.2L44.3,93.5z"/>
<linearGradient id="SVGID_8_" gradientUnits="userSpaceOnUse" x1="36.6081" y1="111.9357" x2="36.6081" y2="10.9156">
	<stop  offset="0" style="stop-color:#A2DED7"/>
	<stop  offset="1" style="stop-color:#F1A3A7"/>
</linearGradient>
<path class="st7" d="M36.4,52.4l2.5,0.8c0.2,0.2,0.3,0.5,0.4,0.8c-0.5,12.5-1,24.9-1.5,37.6c-2-1-4-0.4-3.8-3.7
	c0.6-11.5,1.2-23.1,1.8-35C35.8,52.7,36.2,52.3,36.4,52.4z"/>
<linearGradient id="SVGID_9_" gradientUnits="userSpaceOnUse" x1="48.325" y1="111.9357" x2="48.325" y2="10.9156">
	<stop  offset="0" style="stop-color:#A2DED7"/>
	<stop  offset="1" style="stop-color:#F1A3A7"/>
</linearGradient>
<path class="st8" d="M49.1,95c-0.6-0.1-1.2-0.4-2.3-0.7V56.4c0-0.2,0.1-0.6,0.4-0.6c0.8,0,1.6,0.2,2.3,0.4c0.3,0.1,0.3,0.6,0.3,0.8
	v37.4C49.7,94.7,49.4,94.9,49.1,95z"/>
<linearGradient id="SVGID_10_" gradientUnits="userSpaceOnUse" x1="42.775" y1="111.9357" x2="42.775" y2="10.9156">
	<stop  offset="0" style="stop-color:#A2DED7"/>
	<stop  offset="1" style="stop-color:#F1A3A7"/>
</linearGradient>
<path class="st9" d="M35,36.8v-2.1c0-0.3,0.7-0.8,1-0.7l13.6,4.1c0.3,0.1,0.6,0.4,0.7,0.7l0.1,2.3c0,0.2-0.2,0.3-0.4,0.5
	c-0.3,0.2-0.7,0.3-1,0.2l-13.4-4C35.4,37.6,35.1,37.2,35,36.8z"/>
<linearGradient id="SVGID_11_" gradientUnits="userSpaceOnUse" x1="74.5001" y1="111.9357" x2="74.5001" y2="10.9156">
	<stop  offset="0" style="stop-color:#A2DED7"/>
	<stop  offset="1" style="stop-color:#F1A3A7"/>
</linearGradient>
<path class="st10" d="M65.9,57.6c1.8-5.8,7.1-9.2,11.9-7.7c4.8,1.5,7.2,7.4,5.4,13.1c-1.8,5.8-7.1,9.2-11.9,7.7
	C66.5,69.2,64.1,63.4,65.9,57.6z"/>
<path class="st11" d="M73.8,69.7c-1.7,0-3.3-0.6-4.6-1.7c-1.9-1.7-2.9-4.2-2.9-6.8c0-5.2,3.6-9.9,8.1-10.5c2-0.3,4,0.3,5.6,1.6
	c1.9,1.7,2.9,4.2,2.9,6.8l0,0c0,5.2-3.6,9.9-8.1,10.5C74.4,69.7,74.1,69.7,73.8,69.7z M75.4,52c-0.3,0-0.5,0-0.8,0
	c-3.9,0.5-7,4.6-7,9.1c-0.1,2.2,0.8,4.3,2.5,5.8c1.2,1.1,2.9,1.6,4.5,1.3c3.9-0.5,7-4.6,7-9.1l0,0c0.1-2.2-0.8-4.3-2.4-5.8
	C78.1,52.5,76.8,52,75.4,52z"/>
<linearGradient id="SVGID_12_" gradientUnits="userSpaceOnUse" x1="31" y1="23.53" x2="90.09" y2="23.53">
	<stop  offset="0" style="stop-color:#A2DED7"/>
	<stop  offset="1" style="stop-color:#F1A3A7"/>
</linearGradient>
<polygon class="st12" points="55.9,30.1 31,23.5 65.2,17 90.1,23.5 "/>
<linearGradient id="SVGID_13_" gradientUnits="userSpaceOnUse" x1="60.545" y1="111.9357" x2="60.545" y2="10.9156">
	<stop  offset="0" style="stop-color:#A2DED7"/>
	<stop  offset="1" style="stop-color:#F1A3A7"/>
</linearGradient>
<path class="st13" d="M55.9,30.8l-28.3-7.4l37.6-7.2l28.3,7.4L55.9,30.8z M34.4,23.7l21.5,5.6l30.7-5.9l-21.5-5.6L34.4,23.7z"/>
<linearGradient id="SVGID_14_" gradientUnits="userSpaceOnUse" x1="28.705" y1="111.9357" x2="28.705" y2="10.9156">
	<stop  offset="0" style="stop-color:#A2DED7"/>
	<stop  offset="1" style="stop-color:#F1A3A7"/>
</linearGradient>
<rect x="28" y="23.6" class="st14" width="1.5" height="71.5"/>
<linearGradient id="SVGID_15_" gradientUnits="userSpaceOnUse" x1="56.045" y1="111.9357" x2="56.045" y2="10.9156">
	<stop  offset="0" style="stop-color:#A2DED7"/>
	<stop  offset="1" style="stop-color:#F1A3A7"/>
</linearGradient>
<rect x="55.3" y="30.4" class="st15" width="1.5" height="75.7"/>
<linearGradient id="SVGID_16_" gradientUnits="userSpaceOnUse" x1="92.765" y1="111.5268" x2="92.765" y2="8.919">
	<stop  offset="0" style="stop-color:#A2DED7"/>
	<stop  offset="1" style="stop-color:#F1A3A7"/>
</linearGradient>
<rect x="92" y="23.7" class="st16" width="1.5" height="71.5"/>
<linearGradient id="SVGID_17_" gradientUnits="userSpaceOnUse" x1="42.4992" y1="111.9357" x2="42.4992" y2="10.9156">
	<stop  offset="0" style="stop-color:#A2DED7"/>
	<stop  offset="1" style="stop-color:#F1A3A7"/>
</linearGradient>
<polygon class="st17" points="28.4,95.4 29,94 56.6,105.2 56,106.6 "/>
<linearGradient id="SVGID_18_" gradientUnits="userSpaceOnUse" x1="74.4068" y1="111.5268" x2="74.4068" y2="8.919">
	<stop  offset="0" style="stop-color:#A2DED7"/>
	<stop  offset="1" style="stop-color:#F1A3A7"/>
</linearGradient>
<polygon class="st18" points="55.8,105 92.6,94 93,95.5 56.3,106.5 "/>
</svg>
