<?xml version="1.0" encoding="utf-8"?>
<!-- Generator: Adobe Illustrator 23.0.4, SVG Export Plug-In . SVG Version: 6.00 Build 0)  -->
<svg version="1.1" id="圖層_1" xmlns="http://www.w3.org/2000/svg" xmlns:xlink="http://www.w3.org/1999/xlink" x="0px" y="0px"
	 viewBox="0 0 120 120" style="enable-background:new 0 0 120 120;" xml:space="preserve">
<style type="text/css">
	.st0{fill:url(#SVGID_1_);}
	.st1{fill:url(#SVGID_2_);}
	.st2{fill:url(#SVGID_3_);}
	.st3{fill:url(#SVGID_4_);}
	.st4{fill-rule:evenodd;clip-rule:evenodd;fill:url(#SVGID_5_);}
	.st5{fill-rule:evenodd;clip-rule:evenodd;fill:url(#SVGID_6_);}
	.st6{fill-rule:evenodd;clip-rule:evenodd;fill:url(#SVGID_7_);}
	.st7{fill-rule:evenodd;clip-rule:evenodd;fill:url(#SVGID_8_);}
	.st8{fill-rule:evenodd;clip-rule:evenodd;fill:url(#SVGID_9_);}
	.st9{fill-rule:evenodd;clip-rule:evenodd;fill:url(#SVGID_10_);}
	.st10{fill-rule:evenodd;clip-rule:evenodd;fill:url(#SVGID_11_);}
	.st11{fill-rule:evenodd;clip-rule:evenodd;fill:url(#SVGID_12_);}
	.st12{fill-rule:evenodd;clip-rule:evenodd;fill:url(#SVGID_13_);}
	.st13{fill-rule:evenodd;clip-rule:evenodd;fill:url(#SVGID_14_);}
	.st14{fill-rule:evenodd;clip-rule:evenodd;fill:url(#SVGID_15_);}
	.st15{fill-rule:evenodd;clip-rule:evenodd;fill:url(#SVGID_16_);}
</style>
<g>
	<linearGradient id="SVGID_1_" gradientUnits="userSpaceOnUse" x1="26.4274" y1="15.1626" x2="54.3729" y2="15.1626">
		<stop  offset="0" style="stop-color:#A2DED7"/>
		<stop  offset="1" style="stop-color:#F1A3A7"/>
	</linearGradient>
	<path class="st0" d="M27,12.3c-0.5,0.2-0.8,0.2-1.2,0.2c-0.2,0-0.2-0.1-0.2-0.3V12c0-0.1,0-0.2,0.1-0.3c0-0.1,0.2-0.1,0.3-0.2
		c0.2-0.1,0.6-0.3,1-0.6c0.4-0.3,0.8-0.7,1.2-1.2c0.3-0.4,0.5-0.6,0.5-0.7c0.1,0,0.2,0,0.3,0h0.6v11c0,0.1,0.1,0.2,0.3,0.3
		c0.1,0.1,0.2,0.1,0.3,0.2c0,0.1,0,0.3,0,0.6c0,0.1-0.1,0.2-0.3,0.2h-3.5c-0.1,0-0.2,0-0.3-0.1c0,0,0-0.2,0-0.3c0-0.3,0-0.4,0-0.5
		c0-0.1,0.1-0.1,0.3-0.2c0.3-0.1,0.4-0.2,0.4-0.4V12.3z"/>
</g>
<g>
	<linearGradient id="SVGID_2_" gradientUnits="userSpaceOnUse" x1="26.4274" y1="20.9448" x2="54.3729" y2="20.9448">
		<stop  offset="0" style="stop-color:#A2DED7"/>
		<stop  offset="1" style="stop-color:#F1A3A7"/>
	</linearGradient>
	<path class="st1" d="M36.2,23c-0.5,0.5-1,0.8-1.5,0.8c-0.7,0-1.3-0.4-1.8-1.1c-0.5-0.7-0.8-1.7-0.8-3c0-0.8,0.1-1.5,0.3-2.3
		c0.2-0.8,0.6-1.4,1.1-1.9s1.2-0.8,2.1-0.8c1.1,0,1.9,0.4,2.6,1.3s0.9,2.4,0.9,4.5c0,2.4-0.5,4.1-1.5,5.1c-1,1-2.3,1.5-4,1.5
		c-0.3,0-0.5,0-0.5-0.1c-0.1,0-0.1-0.1-0.1-0.3c0-0.3,0-0.5,0-0.5c0-0.1,0.1-0.1,0.2-0.1c0.8-0.1,1.3-0.2,1.7-0.4
		c0.4-0.2,0.7-0.4,0.9-0.8c0.2-0.4,0.3-0.9,0.3-1.5C36.2,23.4,36.2,23.2,36.2,23z M36.2,16.3c0-0.4-0.2-0.7-0.5-0.7
		c-0.4,0-0.5,0.2-0.5,0.7v5.5c0,0.2,0,0.4,0.1,0.5c0.1,0.1,0.2,0.2,0.4,0.2c0.2,0,0.3-0.1,0.4-0.3c0.1-0.2,0.2-0.4,0.2-0.6V16.3z"/>
</g>
<g>
	<linearGradient id="SVGID_3_" gradientUnits="userSpaceOnUse" x1="26.4274" y1="26.8779" x2="54.3729" y2="26.8779">
		<stop  offset="0" style="stop-color:#A2DED7"/>
		<stop  offset="1" style="stop-color:#F1A3A7"/>
	</linearGradient>
	<path class="st2" d="M45.4,26.4c1.8,0.5,2.7,1.5,2.7,3.2c0,0.7-0.2,1.3-0.5,1.9c-0.3,0.5-0.8,0.9-1.4,1.2c-0.6,0.3-1.2,0.4-1.9,0.4
		c-0.9,0-1.6-0.3-2.1-0.8c-0.5-0.5-0.8-1.2-0.8-1.9c0-0.4,0.1-0.7,0.3-0.9c0.2-0.3,0.5-0.4,0.8-0.4c0.3,0,0.6,0.1,0.8,0.3
		c0.2,0.2,0.3,0.5,0.3,0.8c0,0.1,0,0.4-0.1,0.7c0,0.1,0,0.3,0,0.4c0,0.2,0.1,0.4,0.2,0.6c0.1,0.2,0.3,0.2,0.6,0.2
		c0.3,0,0.6-0.1,0.7-0.4s0.2-0.7,0.2-1.3c0-0.2,0-0.3,0-0.5l-0.1-1.9c-0.1-0.4-0.2-0.6-0.4-0.8c-0.2-0.2-0.4-0.3-0.5-0.3
		S43.6,27,43.2,27L43,27c-0.2,0-0.2-0.1-0.2-0.2l0-0.3c0,0,0-0.1,0-0.1c0-0.2,0.1-0.3,0.3-0.3c0.6,0,1,0,1.2-0.1
		c0.3-0.1,0.4-0.2,0.5-0.5c0.1-0.2,0.1-0.6,0.1-1.3c0-1-0.1-1.6-0.2-1.9c-0.1-0.3-0.3-0.5-0.6-0.5c-0.2,0-0.4,0.1-0.5,0.2
		s-0.2,0.3-0.2,0.5c0,0.1,0,0.3,0.1,0.6c0.1,0.3,0.1,0.6,0.1,0.8c0,0.3-0.1,0.5-0.3,0.7c-0.2,0.2-0.4,0.3-0.7,0.3
		c-0.3,0-0.6-0.1-0.8-0.4c-0.2-0.3-0.3-0.6-0.3-1c0-0.7,0.3-1.3,0.8-1.8c0.5-0.5,1.3-0.8,2.2-0.8c1.1,0,1.9,0.3,2.4,1
		s0.8,1.4,0.8,2.1c0,0.6-0.2,1.2-0.6,1.6s-0.9,0.8-1.6,1L45.4,26.4z"/>
</g>
<g>
	<linearGradient id="SVGID_4_" gradientUnits="userSpaceOnUse" x1="26.4274" y1="24.8252" x2="54.3729" y2="24.8252">
		<stop  offset="0" style="stop-color:#A2DED7"/>
		<stop  offset="1" style="stop-color:#F1A3A7"/>
	</linearGradient>
	<path class="st3" d="M54.1,18.6c0.6,0,1.2,0.3,1.8,0.8c0.5,0.5,1,1.2,1.2,2.2s0.4,2,0.4,3.2c0,2.1-0.3,3.6-1,4.7
		c-0.7,1.1-1.5,1.6-2.5,1.6c-0.9,0-1.7-0.5-2.4-1.5c-0.7-1-1-2.6-1-4.7c0-2.1,0.3-3.6,1-4.7S53.1,18.6,54.1,18.6z M54.6,20.5
		c0-0.4,0-0.6-0.1-0.8c-0.1-0.1-0.2-0.2-0.4-0.2c-0.4,0-0.6,0.3-0.6,1v8.8c0,0.5,0.2,0.7,0.5,0.7c0.2,0,0.3-0.1,0.4-0.2
		c0.1-0.1,0.2-0.3,0.2-0.5V20.5z"/>
</g>
<g>
	<linearGradient id="SVGID_5_" gradientUnits="userSpaceOnUse" x1="62.52" y1="112.6002" x2="62.52" y2="24.5936">
		<stop  offset="0" style="stop-color:#A2DED7"/>
		<stop  offset="1" style="stop-color:#F1A3A7"/>
	</linearGradient>
	<path class="st4" d="M54,70c0.2-1.9,1.5-3,2.9-4c0.2-0.2,0.3-0.4,0.3-0.6c0.2-0.7,0.3-1.4,0.3-2.1c0-0.3-0.1-0.6-0.4-0.8
		c-1.3-0.4-2.7-0.7-4.1-0.8c-2.5-0.1-5,0.1-7.4,0.2c-0.6,0.1-1.2,0.2-1.7,0.5c-3,1-5.9,2.1-8.7,3.5c-1.7,0.9-3.4,1.9-5,2.9
		c-2.7,1.6-5.2,3.5-7.3,5.8c-1,1-1.7,2.3-2.1,3.7c-0.6,2.1-1.1,2.4-3.2,1.7c-1-0.4-1.8-1.2-2.2-2.3c-0.7-1.4-0.8-3-0.3-4.4
		c0-0.2,0-0.4-0.2-0.6c-1.1-1-1.7-2.4-1.8-3.8c-0.2-1.4,0-2.8,0.6-4c0.1-0.2,0.1-0.4,0-0.7c-0.9-1.6-1.4-3.4-1.5-5.3
		c-0.1-2.4,0-4.8,1.8-6.8c0.1-0.2,0.2-0.4,0.3-0.5c-3-5.3-1.4-12.4,1.6-14.4c0-1.7,0-3.2,0-4.8c-0.1-3,1.6-4.1,3.7-5.1
		c0.4-0.2,0.9-0.2,1.2-0.4c0.3-0.1,0.5-0.3,0.6-0.6c0.4-0.9,0.8-1.7,1.2-2.6c0.2-0.3,0.5-0.6,0.8-0.8c0.4-0.2,0.8-0.3,1,0.2
		c1.5,4.1,3.8,8,6.6,11.4c2.1,2.7,4.4,5.3,7,7.6c2.9,2.6,6,4.9,9.3,7c4,2.5,8.3,4.6,12.8,6.2c1.8,0.6,3.7,2.7,3.5,5
		c0,0.8,0,1.5,0.1,2.3c0,0.1,0,0.2,0,0.2c1.3,1,0.7,2.5,0.9,3.8c0.1,0.9,0.1,1.8,0.2,2.7c0,0.2,0.1,0.3,0.1,0.5
		c2.9,0.1,5.8,0.2,8.7,0.5c1.5,0.2,2.7-0.4,4.1-0.6c0.2,0,0.3-0.3,0.4-0.5c0-0.3-0.1-0.7-0.2-1c-0.6-0.1-1.2-0.2-1.9-0.2
		c-1.3,0-2.5-0.6-3.3-1.6c-1.2-1.2-2.5-2.3-3.5-3.6c-1.8-2.2-3-4.8-3.4-7.6c-0.2-1.2-0.4-2.4-0.7-3.5c-0.3-0.6-0.6-1.2-1-1.8
		c-0.7-1.4-0.9-2.9-0.7-4.5c0.1-0.4,0-0.8,0-1.2c-0.5-2-1.1-3.9-0.9-5.8c-0.4-0.2-0.7-0.4-0.9-0.6c-1.4-2.1-2-4.5-2-7
		c0-0.4,0.2-0.8,0.4-1.2c0.3-0.6,0.7-1.2,1.1-1.8s0.7-1.1,1.2-1.8c-0.5-1.9-0.1-3.9,1.1-5.4c0.7-0.9,1.6-1.7,2.5-2.3
		c2.5-1.9,5.4-3.3,8.4-4.1c2.2-0.6,4.5-0.9,6.8-1.3c3.6-0.6,6.7,0.8,9.9,2c2.4,0.9,4.2,2.6,6.3,3.9c0.7,0.6,1.3,1.2,1.7,2
		c0.5,0.6,1,1.2,1.4,1.9c0.4,0.6,0.6,1.3,0.9,1.9c0.4,0.8,0.9,1.5,1.4,2.3c1.5,2.2,2.4,4.8,2.7,7.4c0.1,1.9-0.2,3.8-0.9,5.5
		c-0.6,1.6-1.2,3.1-1.8,4.7c-0.2,0.6-0.3,1.2-0.3,1.8c0,2.6-1,5.1-2.8,7c-0.4,0.5-0.9,0.9-1.3,1.3c-0.9,0.8-2,1.4-3.2,1.8
		c-0.3,0.2-0.6,0.4-0.7,0.7c-0.6,1.1-0.8,2.3-0.7,3.5c0.1,1.4,0.1,2.8,0.2,4.2c0,0.2,0.1,0.4,0.1,0.7c0.3,0,0.6-0.1,0.8-0.1
		c1.3-0.3,1.2-0.3,1.7,0.9c0.7,1.7,1.2,3.4,1.8,5.2c0.5,0.3,1.2,0.6,1.8,1.1c0.4,0.2,0.7,0.5,0.9,0.9c0.4,0.8,1,1.4,1.8,1.7
		c1.3,0.7,2.6,1.4,3.9,2.1c1.8,1,3.7,1.9,5.6,2.9l0.5,0.3c-0.6,1.2-1.2,2.5-1.8,3.7c-1.1,2-2.2,4-3.4,5.9c-0.8,1.3-1.7,2.4-2.6,3.5
		c-2.1,2.3-4.2,4.6-6.5,6.6c-3.2,2.9-6.7,5.4-10.6,7.2c-1.1,0.5-2.1,1.2-3.2,1.8c-3.6,1.7-7.4,3-11.3,3.7c-1.6,0.3-3.2,0.6-4.8,1
		c-0.6,0.2-1.3-0.1-1.6-0.6c-1.1-1.9-2.2-3.8-3.1-5.8c-1.6-3.2-2.8-6.5-3.5-10c-0.2-0.9-0.3-1.8-0.4-2.7c-0.2-1.8,0.8-3.1,1.9-4.3
		l4.4-4.9c-1.7,0.3-3.4,0.7-5.1,1c-0.4,0-0.8-0.1-1.2-0.2c0.1-0.3,0.2-0.7,0.4-1c1-1.4,2-2.7,3-4l-0.1-0.2c-1.6,0.6-3.3,1.2-4.9,1.9
		c-1.3,0.6-2.5,1.3-3.7,2c-0.2,0.2-0.4,0.4-0.5,0.6c-1.3,2.8-2,6-1.8,9.1c0.1,0.9,0.3,1.9,0.5,2.8c0.2,1,0.1,2-0.2,3
		c-1.3,3.1-2.2,6.2-2.9,9.5c-0.1,0.6-0.1,1.1-0.1,1.7c0,0.2,0.2,0.4,0.4,0.4c1.4,0.3,2.7,0.6,4.1,0.8c0-1.1,0-2.2,0-3.2
		c0-1.3-0.2-2.7-0.1-4c0.3-2.5,0.3-5,0.1-7.5c-0.1-1,0-2.1,0.1-3.1c0.1-2.3,0.2-4.7,0.3-7c0.1-0.5,0.2-0.9,0.3-1.4h0.2
		c-0.1,0.8-0.2,1.6-0.3,2.4c-0.3,2.2-0.1,4.4,0.8,6.5c0.8,1.8,1.7,3.6,2.6,5.4c0.6,1.3,1.1,2.8,1.2,4.3c0.3,2.2,0.7,4.4,1.2,6.5
		c0.2,0.7,0.9,1.2,1.4,2c-1.1,0-2.2,0.1-3.3,0.1s-2.1-0.2-3.1-0.1c-2.2,0-4.3-0.5-6.3-1.2c-1.1-0.3-1.2-0.6-0.9-1.7
		c0.5-2.2,1-4.5,1.5-6.7c-0.5,0.1-1,0.2-1.5,0.2c-1-0.2-1.9-0.4-2.8-0.7c-4.6-1.5-9.1-3-13.7-4.6l-9.8-3.2c-1-0.3-1.2-0.6-1.2-1.7
		c0-0.1,0-0.2,0-0.4c0-2,0.2-2.2,2.2-2.3c1.1,0,1.1-0.1,1.4-1.1c0.7-2.8,1.4-5.6,2.1-8.4c0.1-0.5,0.2-1,0.3-1.5s0.1-1-0.5-1.2
		c-0.1,0-0.1-0.1-0.2-0.1c-0.5-0.6,0-2.9,0.7-3.1c1-0.3,2.1-0.5,3.2-0.7c0.4-0.1,0.5-0.2,0.5-0.6c0-0.7,0.4-1.4,1-1.7
		c2.2-1.2,4.6-2,7.1-2.2c4-0.5,8-0.8,12.1-1.2C51.7,70,52.8,70,54,70 M51.9,54.4c0.1-0.7-0.2-1.4-0.8-1.7c-2-1.1-3.9-2.3-5.8-3.5
		c-3-1.9-5.7-4.1-8.2-6.5c-5.2-4.7-9.4-10.3-12.4-16.7c-0.4-0.8-0.6-1.6-0.9-2.5c-0.9,1.1-1.4,2.4-1.4,3.8c0.1,2.4,1,4.8,2.5,6.7
		c-0.2,0.2-0.3,0.5-0.5,0.7c-0.6,0.9-1,1.9-1.4,2.9c-0.4,2.2-0.6,4.4-0.8,6.6c-0.2,2.1,0.6,4,1,6c0.1,0.4,0.1,0.8-0.2,1.1
		c-2.1,2.9-3.2,6.3-3.2,9.8c0,1.9,0.6,3.7,1.7,5.2c0.1,0.2,0.2,0.5,0.1,0.6c-0.9,1-1.4,2.1-1.6,3.4c-0.3,1.1-0.4,2.2-0.5,3.3
		c0,0.9,0.2,1.7,0.7,2.4c1.9-2.4,3.7-4.7,5.5-7c2.5-3.3,5.8-6,9.5-7.8c1.2-0.6,2.4-1.1,3.7-1.4c2-0.4,4.1-0.6,6.2-0.8
		c1.8-0.1,3.5,0,5.3,0c0.5,0,0.8-0.1,0.7-0.7c-1.2-0.2-2.4-0.3-3.6-0.4c-2.2,0-4.4,0.1-6.5,0.3c-3.8,0.3-7.5,1.3-10.9,3
		c-0.2,0.1-0.6,0.2-0.8,0.1c-0.2-0.2-0.3-0.5-0.2-0.8c0.2-0.8,0.5-1.6,0.9-2.3c1.1-1.8,2.9-2.8,5-2.9c1.7-0.1,3.5,0,5.2,0.3
		c3.1,0.4,6.2,1,9.4,1.5c0.6,0.1,1.3,0.2,2,0.2c0.1-0.6,0.1-1.2,0.2-1.7s-0.1-0.6-0.5-0.7c-2.4-0.7-4.6-1.7-6.8-2.9
		c-0.4-0.2-0.8-0.4-1.2-0.7s-0.8-0.5-1.2-0.7s-0.7-0.5-1-0.7C44.6,51.9,48.2,53.4,51.9,54.4 M96.4,45.7c-1.7-0.4-3.5-0.5-5.2-0.3
		c0.5,1.9,0.2,4.1-0.6,5.1c-1.9,2.2-4.8,3.1-7.6,2.3c-2.5-0.7-4.3-2.8-4.6-5.3c0-0.2-0.1-0.6-0.3-0.6c-0.8-0.3-1.7-0.6-2.5-0.8
		c-0.3,0-0.5,0.2-0.6,0.4c-0.3,0.6-0.5,1.2-0.6,1.8c-0.3,1.6-1.2,3-2.6,3.8c-1.2,0.9-2.7,1.2-4.2,0.8l-1.4-0.4
		c0.3,1.4,0.5,2.6,0.8,3.8c0.3,2,1,3.9,2.1,5.6c0.9,1.2,1.9,2.3,2.9,3.3c0.9,1.1,2.1,1.9,3.5,2.2c2.2,0.5,4.4,0.5,6.6,0.2
		c0.7-0.1,1.4-0.3,2-0.7c2.1-1.4,4.2-2.9,6.3-4.4c0.7-0.5,1.4-1,1.9-1.7c0.7-1,1.2-2.2,1.9-3.3c0.3-0.5,0.6-0.9,1.1-1.2
		c0.9-0.6,2-1,2.8-1.7c1.6-1.2,2.8-2.8,3.5-4.6c0.5-1.2,0.5-2.6-0.1-3.8c-0.7-1.5-1.7-1.7-2.8-0.5c-0.8,0.9-1.5,1.9-2.2,2.8
		c-0.2,0.2-0.3,0.4-0.5,0.6l-0.2-0.1C95.9,47.8,96.1,46.7,96.4,45.7 M66.6,28.6c-0.1,0.3-0.2,0.8-0.4,0.9c-0.5,0.1-1,0.5-1.2,1
		c-0.4,0.8-1.1,1.5-1.5,2.3c-0.3,0.4-0.4,0.9-0.5,1.3c0,1.9-0.1,3.9,0,5.8c0.2,1.2,0.5,2.5,0.8,3.7h0.2c1.5-1.9,3.6-2,5.7-1.8
		c2.3,0.2,3.5,2,4.4,3.7c0.7-0.1,1.3-0.1,2-0.1c0.6,0.1,1.3,0.2,1.9,0.4c0.3-2.2,2-3.9,4.1-4.3c1-0.2,2-0.3,3-0.2
		c2.1,0.1,4.1,1.1,5.3,2.8c0.2,0.2,0.4,0.4,0.7,0.4c1,0,2,0,3,0h1.8c0-1.1,0.2-2.2-0.7-3c-0.2-0.2-0.2-0.5-0.1-0.7
		c0.3-0.6,0.3-1.2,0-1.8c-0.7-2-1.7-3.9-3.1-5.5c-0.5-0.8-1.2-1.5-2.1-1.9c-0.7-0.2-0.2-0.6,0.3-0.9l-3.4-0.9l0.5-0.4
		c-0.9-0.7-1.2-0.9-3.6-1.3c-3-0.5-6-0.8-9.1-1.2c-0.8-0.1-1.6,0-2.4,0.4c-0.7,0.3-1.4,0.6-2.1,0.9c0.1-0.3,0.1-0.6,0.2-0.9
		C69.2,27.7,68.1,28.7,66.6,28.6 M24.8,92.5c0.2,0.1,0.5,0.1,0.8,0.2l18.5,5.5c0.9,0.4,1.9,0.7,2.8,0.9c1.6-0.1,3.1-0.3,4.7-0.6
		c0-0.4-0.1-0.7-0.1-1c-0.7-3.7-0.2-7.6,1.5-11.1c0.2-0.5,0.5-0.9,0.9-1.3c1.2-0.8,2.4-1.6,3.7-2.2c2.1-0.9,4.3-1.6,6.5-2.4
		c0.2-0.1,0.3-0.3,0.5-0.6L62.7,80c-1.9,0.1-3.8,0.3-5.7,0.2c-2.8,0-5.6-0.2-8.5-0.3c-1.8-0.1-3.7-0.3-5.5-0.5s-3.7-0.6-5.5-1
		c-2.1-0.5-4.1-1.1-6.1-1.7c-0.6-0.2-1.2-0.3-1.8-0.2c-0.6,0.1-1.2,0.2-1.7,0.3c-0.3,0.1-0.7,0.2-1,0.3c1,0.4,2,0.7,3.1,0.9
		c5.4,1.2,10.9,2.4,16.3,3.7c1.7,0.5,3.5,0.7,5.3,0.5c1.4-0.1,2.9-0.1,4.3,0c0,0.1,0,0.2,0,0.3l-6.3,0.5v2.1H53
		c-0.2,0.3-0.3,0.4-0.5,0.5c-1.3,0.2-2.7,0.2-4,0.1c-5.5-1.4-11-2.9-16.5-4.4l-4.2-1.1C26.8,84.2,25.8,88.3,24.8,92.5 M79.2,104.7
		c3.6-11.2,9.4-21.6,17.2-30.4c-0.3,0.2-0.6,0.3-0.9,0.4c-2.5,1.3-5,2.7-7.4,4c-0.5,0.3-0.8,0.3-1.2-0.3c-0.3-0.4-0.5-0.7-0.8-1.1
		c-0.9,0.6-1.7,1.3-2.6,1.9c-0.2,0.1-0.3,0.3-0.3,0.4c-0.4,1.9-1.4,3.5-3,4.6c-0.5,0.4-1,0.8-1.5,1.3c-0.1,0.1-0.1,0.3-0.1,0.5
		c0.1,5.3-0.2,10.6,0.5,15.8C79.1,102.8,79.1,103.7,79.2,104.7 M54,70.7l-3,0.2c-3.3,0.2-6.7,0.3-10,0.7c-2.5,0.3-4.9,0.8-7.3,1.4
		c-0.7,0.2-1.4,0.5-1.9,1c-0.6,0.5-0.8,1.4-0.3,2c0.2,0.3,0.5,0.5,0.9,0.5c1.9,0.5,3.7,1,5.6,1.4c2.6,0.5,5.3,0.9,7.9,1.2
		c1.8,0.2,3.7,0.3,5.5,0.3c2.2,0.1,4.4,0.2,6.6,0.1c1.8,0,3.5-0.2,5.3-0.3c1.1,0.1,2.2-0.3,2.9-1.1c0.6-0.6,1.4-1.1,2.1-1.5
		c-0.1,0-0.2,0-0.2,0c-4.2,0.8-8.5,1-12.7,0.5c-4.6-0.4-9.1-1.2-13.6-1.8c-1.5-0.3-2.9-0.7-4.3-1.1c-0.2-0.1-0.5-0.4-0.5-0.6
		c0.1-0.3,0.3-0.5,0.5-0.7c0.2-0.1,0.4-0.2,0.7-0.2c3.8-0.7,7.6-1.2,11.4-1.3c1.5,0,2.9-0.1,4.4-0.2L54,70.7z M97.5,72.6
		c-0.6-2-1.2-4-1.7-6c-2.3,0.2-9.8,3.3-12.6,5.2c1.7,1.9,2.5,4.4,4.3,6.1L97.5,72.6 M78.9,46.7c-0.2,2.5,1.9,4.8,4.2,5.6
		c1.3,0.4,2.6,0.4,3.9,0c2.5-0.7,4.1-3,3.8-5.6c-0.2-2-1.5-3.7-3.4-4.4c-1.9-0.8-4.1-0.8-5.9,0.1c-1.4,0.4-2.4,1.6-2.6,3L78.9,46.7
		 M16,38C16,38,16,38,16,38c-0.2,0.1-0.3,0.3-0.4,0.4c-2.3,3.3-2.8,7.5-1.2,11.2c0.3,0.8,0.5,1.8,1.5,2.1c1.4,0.5,2.9,0.8,4.4,1.2
		c0.9,0.2,1.3-0.2,1.6-0.9s0.6-1.1,0.5-1.8c-0.4-2-0.6-4-0.9-6c-0.1-0.2-0.2-0.3-0.3-0.4c-1.3-0.7-2.4-1.7-3.3-2.8
		C17.1,40,16.6,39,16,38 M75.5,76.6h-0.3c-0.1,0.5-0.1,1-0.2,1.5c-0.1,0.2-0.2,0.5-0.3,0.7c-0.2-0.2-0.4-0.4-0.4-0.7
		c-0.1-0.6-0.1-1.3-0.2-2.1c-0.4,0.7-0.8,1.3-1.2,1.9c-2,3.5-3,7.4-4.4,11.1c-0.5,1.3-0.7,2.7-0.6,4.1c0,0.4,0.1,0.9,0.1,1.3l1,6.4
		c2.2-5.6,3.9-11.3,6.6-16.5c-0.1-0.4-0.2-0.8-0.2-1.2c0-1.9,0.1-3.8,0.2-5.8C75.6,77.1,75.6,76.8,75.5,76.6 M21.5,42.9
		c0.3-3.1,0.3-6.2,2.3-8.7c-0.5-1-1-2-1.4-3c-0.4-1-0.5-2.1-0.8-3.3c-0.6,0.1-1.1,0.2-1.6,0.4c-2,0.8-3.5,1.9-3.4,4.5
		c0,0.9,0,1.9,0,2.8c-0.1,1.5,0.3,3,1,4.3C18.6,41.2,19.9,42.3,21.5,42.9 M46.3,100.8L21.5,93c0,0.8-0.1,1.5-0.1,2.3l24.4,8.4
		L46.3,100.8 M68.4,42.3c-1.3,0-2.5,0.5-3.3,1.5c-0.5,0.4-0.7,1.1-0.5,1.7c0.4,1.6,0.7,3.2,1,4.8c0.2,1.2,0.6,1.7,1.8,1.9l0.7,0.1
		c3.3,0.5,6.1-2.5,5.7-5.2c-0.2-1-0.5-1.9-1-2.7C72,43,70.7,42.2,68.4,42.3 M90.6,89.2c0.2,0.4,0.3,0.8,0.4,1.2
		c0.3,1.7,0.5,3.3,0.7,5c0.2,0.9,0.1,1.8-0.3,2.6c-0.9,1.3-1.8,2.7-2.7,4c-1.5,2.2-3,4.4-4.5,6.6c-0.1,0.2-0.2,0.4-0.3,0.6
		c0.4-0.2,0.7-0.5,1-0.8c0.6-0.7,1.1-1.3,1.7-2c1-1.1,2.2-2,3.2-3.1c1.2-1.4,2.3-2.9,3.5-4.3c0.4-0.4,0.6-1,0.5-1.5
		c-0.2-1-0.3-2-0.5-3c-0.2-1.2-0.5-2.5-0.7-3.8c-0.1-0.8,0.2-1,1-1.2c2-0.4,3.9-1,5.9-1.4c1.3-0.3,1.2-0.5,1.2-1.7
		c-0.1-3.3-0.2-6.7-0.3-10c-0.1-0.8-0.2-1.6-0.3-2.4h-0.3c0.1,0.5,0.1,0.9,0.1,1.4c0,2.4-0.1,4.9-0.2,7.3c0,1.2-0.1,2.3-0.3,3.5
		c-0.1,0.4-0.3,0.8-0.6,1c-1.2,0.4-2.3,0.8-3.5,1.1c-1.5,0.3-3,0.6-4.7,0.9 M93.5,66c-0.1-1-0.2-2-0.4-3c0-0.2-0.1-0.4-0.2-0.4
		c-0.6-0.3-1.3-0.3-1.9,0.1c-1.5,1.2-3,2.3-4.5,3.4c-2.3,1.7-4.6,3.6-7.5,3.9c0,1.5,0,3,0,4.5c0,0.6,0.1,0.9,0.7,1.1
		c0.2-0.5,0.4-0.9,0.7-1.4c0.5-0.9,1.1-1.7,1.8-2.4c1.3-1,2.8-1.9,4.3-2.6C88.7,68,91.1,67.1,93.5,66 M62.5,62.6
		c0-1.6,0.1-3.1-0.7-4.5c-0.2-0.5-0.6-0.9-1-1.2c-1.9-0.8-3.9-1.5-5.9-2.2c-0.3-0.1-0.6-0.1-0.9-0.1c0.4,2.1,0,4.2-1.2,5.9
		c1,0.1,2,0.2,2.9,0.4c1.1,0.1,2.2,0.6,2.9,1.5c0.1,0.1,0.3,0.2,0.4,0.2L62.5,62.6 M26.7,77.5c0,0.3-0.1,0.5-0.1,0.8
		c-0.1,0.5,0.1,0.9,0.5,1.1c0.1,0,0.1,0,0.2,0c1.2,0.3,2.3,0.7,3.5,1c5.6,1.5,11.2,3,16.8,4.4c0.3,0.1,0.6,0.1,1,0.2
		c0.1-0.8,0.2-1.5,0.3-2.2L26.7,77.5 M76.7,84.8l-0.2-0.1c-0.2,0.2-0.3,0.4-0.5,0.7c-0.6,1.4-1.2,2.8-1.8,4.3
		c-0.5,1.2-0.9,2.4-1.3,3.6c-1.1,3.1-2.1,6.3-3.2,9.4c-0.2,0.5-0.2,1-0.2,1.4c0.4,2.9,1.3,5.6,2.8,8.1c0.1,0.2,0.4,0.3,0.6,0.4
		l0.2-0.2c0-0.2-0.1-0.5-0.2-0.7c-0.6-2.5-1.2-5-1.8-7.5c-0.1-0.5-0.1-1.1,0-1.7c0.2-0.9,0.6-1.7,0.9-2.6c0.8-2.4,1.6-4.8,2.4-7.2
		c0.3-0.9,0.6-1.8,0.9-2.6c0.4-1.3,0.7-2.5,1.1-3.8C76.4,85.9,76.5,85.4,76.7,84.8 M59.6,74.9c0.6,0,1.2-0.1,1.7-0.2
		c1.9-0.9,2.9-3.1,2.2-5.1c-0.7-2.4-3.2-3.8-5.6-3.3c-0.6,0.1-1.1,0.3-1.6,0.7c-1.3,1.1-1.9,2.8-1.7,4.5c0,1,0.6,2,1.5,2.6
		C57.1,74.7,58.3,74.9,59.6,74.9 M19.1,58.7c0.5-1.6,1-3.2,1.4-4.7c-2-0.3-3.9-1.1-5.6-2.3c-0.7,1.1-0.9,2.3-0.7,3.5
		c0.3,1.8,0.6,3.1,3.1,3.3C17.9,58.6,18.5,58.6,19.1,58.7 M74.2,71.3h-9.8c-0.1,0.6-0.2,1-0.3,1.6c0.6,0.1,1.2,0.2,1.8,0.2
		c2.2,0,4.5,0,6.8,0C74.3,73.1,74.2,73.3,74.2,71.3 M61,86.1l0.1,0.1c0.8-0.4,1.5-0.9,2.1-1.5c2.2-2.6,4.7-5,7.3-7.2
		c0.6-0.4,1.2-0.9,1.8-1.2l1.3-0.7l-0.1-0.3c-0.3,0-0.6,0.1-0.8,0.1c-1.6,0.6-3.2,1.4-4.6,2.3c-1.7,1.6-3.3,3.3-4.8,5.1
		C62.5,83.8,61.8,85,61,86.1 M18,62.6l-3.5,2.5c-0.1,0.1-0.2,0.2-0.2,0.3c-0.5,2.5-0.6,4.8,1.6,7c0.3-0.9,0.4-1.8,0.5-2.7
		C16.1,67.2,16.7,64.7,18,62.6 M78.3,75.5c-0.5,0.2-1,0.3-1.6,0.5c-0.5,0.1-0.7,0.6-0.6,1.1c0.1,1.5,0.1,3,0.2,4.5c0,0.7,0,1.4,0,2
		l1.7,0.6c-0.1-0.1-0.2-0.3-0.3-0.3c-0.6-0.3-0.7-0.8-0.3-1.4c0.3-0.6,0.4-1.1,0.6-1.7c0.3-1.3,0.6-2.6,0.9-3.9l1.4,0.5L78.3,75.5
		 M63.8,68.9V64h-6.1c0,0.5,0.1,1.1,0.1,1.6C60.4,65.6,62.6,66.3,63.8,68.9 M46.7,101v3l3.1-0.3c0.2,0,0.4-0.1,0.5-0.2
		c0.4-0.9,0.7-1.9,1-2.8L46.7,101 M18.7,69.8c-2,1.2-3.2,3-3,5.3c0,1.5,0.7,2.9,1.9,3.8c-0.2-1.5-0.2-3.1-0.1-4.7
		C17.8,72.7,18.2,71.2,18.7,69.8 M78.2,70.7c-1,0.2-1.8,0.3-2.7,0.6c-0.3,0.1-0.6,0.4-0.7,0.7c-0.2,1.5-0.2,3-0.3,4.5
		c0.2-0.1,0.3-0.3,0.3-0.5c0.3-1.1,0.6-2.2,1-3.3c0.3-0.8,0.5-0.8,1.1-0.3c0.4,0.3,0.8,0.6,1.3,1L78.2,70.7z M82.5,72.6
		c-1.2,0.8-1.9,2.2-2,3.6l3.8-1.9L82.5,72.6 M76.2,72.6c-0.6,0.9-0.9,1.9-0.8,3l2.8-1.2c0-0.1-0.1-0.2-0.2-0.2
		c-0.3-0.2-0.6-0.4-0.9-0.6C76.8,73.2,76.5,72.9,76.2,72.6 M54.8,73.8c-0.3-0.4-0.4-0.7-0.6-1s-0.2-0.3-0.3-0.3
		c-1,0.1-1.9,0.3-2.9,0.4v0.3C52.2,73.8,53.5,73.6,54.8,73.8"/>
	<linearGradient id="SVGID_6_" gradientUnits="userSpaceOnUse" x1="78.5078" y1="112.6002" x2="78.5078" y2="24.5936">
		<stop  offset="0" style="stop-color:#A2DED7"/>
		<stop  offset="1" style="stop-color:#F1A3A7"/>
	</linearGradient>
	<path class="st5" d="M73.1,59.4c0.6,0.4,1.5,0.3,2-0.3c0.2-0.2,0.7-0.1,1,0c0.6,0.3,1.4,0.3,2,0c0.4-0.2,0.8-0.2,1.2-0.1
		c0.8,0.1,1.5,0.3,2.3,0.4s1.6,0.5,2.3-0.5l0.1,0.2c0,0.2,0.1,0.5,0,0.5c-0.3,0.2-0.6,0.4-0.9,0.5c-0.6,0-1.2-0.1-1.7-0.2
		c-0.8-0.2-1.7-0.2-2.5,0.1c-0.6,0.2-1.1,0.2-1.7,0.1c-0.8-0.1-1.6-0.1-2.4,0.1c-0.4,0.1-0.8,0.1-1.2,0c-0.2,0-0.4-0.3-0.6-0.5
		L73.1,59.4"/>
	<linearGradient id="SVGID_7_" gradientUnits="userSpaceOnUse" x1="98.5103" y1="112.6002" x2="98.5103" y2="24.5936">
		<stop  offset="0" style="stop-color:#A2DED7"/>
		<stop  offset="1" style="stop-color:#F1A3A7"/>
	</linearGradient>
	<path class="st6" d="M98.4,48c-0.4,0.5-0.7,0.9-1,1.3s-0.5,0.9-0.8,1.4c0-1.7,1.7-3.7,2.8-3.9c0.4-0.1,0.7,0,1,0.3
		c0.2,0.3,0,0.8-0.2,1.2c-0.2-0.3-0.3-0.8-0.5-0.9s-0.7,0.2-1.1,0.4c1.2,1.2,0.8,2.4,0.2,3.6c-0.2,0.6-0.8,1-1.4,1.1
		C98.1,51,99.5,49.9,98.4,48"/>
	<linearGradient id="SVGID_8_" gradientUnits="userSpaceOnUse" x1="78.23" y1="112.6002" x2="78.23" y2="24.5936">
		<stop  offset="0" style="stop-color:#A2DED7"/>
		<stop  offset="1" style="stop-color:#F1A3A7"/>
	</linearGradient>
	<path class="st7" d="M75.7,61.8l5,0.3C80.1,62.9,76.2,62.7,75.7,61.8"/>
	<linearGradient id="SVGID_9_" gradientUnits="userSpaceOnUse" x1="74.97" y1="112.6002" x2="74.97" y2="24.5936">
		<stop  offset="0" style="stop-color:#A2DED7"/>
		<stop  offset="1" style="stop-color:#F1A3A7"/>
	</linearGradient>
	<path class="st8" d="M75.8,54.3c-0.7-0.2-1.4-0.5-1.9-1.1c-0.1-0.1,0-0.3,0-0.5c0.1,0,0.3,0.1,0.4,0.1c0.4,0.2,0.8,0.5,1.2,0.8
		c0.2,0.1,0.5,0.3,0.7,0.4C76,54,75.9,54.2,75.8,54.3"/>
	<linearGradient id="SVGID_10_" gradientUnits="userSpaceOnUse" x1="83.69" y1="112.6002" x2="83.69" y2="24.5936">
		<stop  offset="0" style="stop-color:#A2DED7"/>
		<stop  offset="1" style="stop-color:#F1A3A7"/>
	</linearGradient>
	<path class="st9" d="M89.8,41.2c-0.3-0.1-0.6-0.2-0.9-0.4c-2.3-0.8-4.8-0.8-7.1-0.1c-0.6,0.2-1.2,0.3-1.8,0.5c-1,0.1-2-0.4-2.5-1.2
		c0.9-0.2,1.8-0.3,2.6-0.5c1.4-0.2,2.9-0.4,4.3-0.5c2.2-0.3,3.9,0.8,5.5,2C89.9,41.1,89.9,41.1,89.8,41.2"/>
	<linearGradient id="SVGID_11_" gradientUnits="userSpaceOnUse" x1="67.845" y1="112.6002" x2="67.845" y2="24.5936">
		<stop  offset="0" style="stop-color:#A2DED7"/>
		<stop  offset="1" style="stop-color:#F1A3A7"/>
	</linearGradient>
	<path class="st10" d="M64,41.2c0-1.3,0.4-1.8,1.5-1.7c1.4,0,2.8,0.1,4.2,0.2c0.6,0.2,1.2,0.5,1.7,0.9c0.2,0.1,0.2,0.6,0.3,0.9
		c-0.3,0.1-0.6,0.2-0.8,0.2c-1.6-0.3-3.2-0.7-4.7-1C65.3,40.3,64.5,40.6,64,41.2"/>
	<linearGradient id="SVGID_12_" gradientUnits="userSpaceOnUse" x1="85.7869" y1="112.6002" x2="85.7869" y2="24.5936">
		<stop  offset="0" style="stop-color:#A2DED7"/>
		<stop  offset="1" style="stop-color:#F1A3A7"/>
	</linearGradient>
	<path class="st11" d="M89.7,46.1c-0.8-1.4-2.4-2.2-4-2c-1.7,0.2-3.2,0.4-3.8,2.3l-0.2-0.1c0-0.4,0-0.8,0.1-1.2
		c0.4-1.1,1.5-1.8,2.7-1.9c1.1-0.1,2.2-0.1,3.2,0c1.2,0.1,2.2,1.2,2.1,2.4C89.8,45.8,89.8,45.9,89.7,46.1"/>
	<linearGradient id="SVGID_13_" gradientUnits="userSpaceOnUse" x1="85.52" y1="112.6002" x2="85.52" y2="24.5936">
		<stop  offset="0" style="stop-color:#A2DED7"/>
		<stop  offset="1" style="stop-color:#F1A3A7"/>
	</linearGradient>
	<path class="st12" d="M83.9,47.2l1.3-0.1c-0.6-0.7-0.7-1.7-0.3-2.5L87,45c0,0.5,0.1,1.2,0.2,1.8c0,0.1-0.1,0.3-0.3,0.3
		c-0.9,0.3-2,0.4-2.9,0.2C84,47.3,84,47.2,83.9,47.2"/>
	<linearGradient id="SVGID_14_" gradientUnits="userSpaceOnUse" x1="69.2767" y1="112.6002" x2="69.2767" y2="24.5936">
		<stop  offset="0" style="stop-color:#A2DED7"/>
		<stop  offset="1" style="stop-color:#F1A3A7"/>
	</linearGradient>
	<path class="st13" d="M72.4,46.7c-0.4-0.5-0.8-1.1-1.2-1.6c-0.2-0.2-0.5-0.6-0.8-0.6c-1.1-0.1-2.2-0.1-3.3,0
		c-0.1,0-0.3,0.3-0.4,0.6c-0.1,0.4-0.2,0.9-0.3,1.3c-0.2-0.3-0.3-0.4-0.3-0.5c-0.3-1.1,0.3-2.2,1.3-2.5c0.3-0.1,0.6-0.1,0.9-0.1
		c1.4-0.1,2.8,0.5,3.7,1.6C72.4,45.4,72.8,45.9,72.4,46.7"/>
	<linearGradient id="SVGID_15_" gradientUnits="userSpaceOnUse" x1="69.6531" y1="112.6002" x2="69.6531" y2="24.5936">
		<stop  offset="0" style="stop-color:#A2DED7"/>
		<stop  offset="1" style="stop-color:#F1A3A7"/>
	</linearGradient>
	<path class="st14" d="M69.6,44.6c0,0.1,0,0.3,0,0.4c0,0.6,0.3,0.8,0.8,0.6s0.7,0,0.7,0.5c0,0.3,0,0.6,0,1c0,0.2-0.1,0.5-0.3,0.7
		c-0.5,0.5-2.3,0.2-2.8-0.5l1.3,0.3c-0.2-1-0.5-2-0.1-2.9L69.6,44.6"/>
	<linearGradient id="SVGID_16_" gradientUnits="userSpaceOnUse" x1="59.1502" y1="112.6002" x2="59.1502" y2="24.5936">
		<stop  offset="0" style="stop-color:#A2DED7"/>
		<stop  offset="1" style="stop-color:#F1A3A7"/>
	</linearGradient>
	<path class="st15" d="M59.3,73.7c-0.2,0-0.5,0-0.7,0c-1.1-0.2-2.2-0.5-2.5-1.7c-0.4-1.3-0.1-2.7,0.8-3.7c1.3-1.5,3.7-1,5,0.9
		c0.9,1.3,0.6,3.1-0.7,4.1c-0.2,0.2-0.5,0.3-0.7,0.4C60.1,73.7,59.7,73.7,59.3,73.7C59.4,73.7,59.4,73.7,59.3,73.7 M61.8,70.8
		c0.1-1.4-1-2.6-2.4-2.6c-0.1,0-0.1,0-0.2,0c-1.6,0-2.8,0.8-2.7,2.6s0.7,2.3,2.5,2.4S61.8,72.3,61.8,70.8"/>
</g>
</svg>
