<?xml version="1.0" encoding="utf-8"?>
<!-- Generator: Adobe Illustrator 23.0.4, SVG Export Plug-In . SVG Version: 6.00 Build 0)  -->
<svg version="1.1" id="圖層_1" xmlns="http://www.w3.org/2000/svg" xmlns:xlink="http://www.w3.org/1999/xlink" x="0px" y="0px"
	 viewBox="0 0 120 120" style="enable-background:new 0 0 120 120;" xml:space="preserve">
<style type="text/css">
	.st0{fill-rule:evenodd;clip-rule:evenodd;fill:url(#SVGID_1_);}
	.st1{fill-rule:evenodd;clip-rule:evenodd;fill:url(#SVGID_2_);}
	.st2{fill-rule:evenodd;clip-rule:evenodd;fill:url(#SVGID_3_);}
	.st3{fill-rule:evenodd;clip-rule:evenodd;fill:url(#SVGID_4_);}
	.st4{fill-rule:evenodd;clip-rule:evenodd;fill:url(#SVGID_5_);}
	.st5{fill-rule:evenodd;clip-rule:evenodd;fill:url(#SVGID_6_);}
	.st6{fill-rule:evenodd;clip-rule:evenodd;fill:url(#SVGID_7_);}
	.st7{fill-rule:evenodd;clip-rule:evenodd;fill:url(#SVGID_8_);}
	.st8{fill-rule:evenodd;clip-rule:evenodd;fill:url(#SVGID_9_);}
	.st9{fill-rule:evenodd;clip-rule:evenodd;fill:url(#SVGID_10_);}
	.st10{fill:url(#SVGID_11_);}
	.st11{fill:url(#SVGID_12_);}
	.st12{fill:url(#SVGID_13_);}
	.st13{fill:url(#SVGID_14_);}
	.st14{fill:url(#SVGID_15_);}
	.st15{fill:url(#SVGID_16_);}
	.st16{fill:url(#SVGID_17_);}
	.st17{fill:url(#SVGID_18_);}
	.st18{fill:url(#SVGID_19_);}
	.st19{fill:url(#SVGID_20_);}
	.st20{fill:url(#SVGID_21_);}
	.st21{fill:url(#SVGID_22_);}
	.st22{fill:url(#SVGID_23_);}
	.st23{fill:url(#SVGID_24_);}
	.st24{fill:url(#SVGID_25_);}
	.st25{fill:url(#SVGID_26_);}
	.st26{fill:url(#SVGID_27_);}
	.st27{fill:url(#SVGID_28_);}
	.st28{fill:url(#SVGID_29_);}
	.st29{fill:url(#SVGID_30_);}
	.st30{fill:url(#SVGID_31_);}
	.st31{fill:url(#SVGID_32_);}
	.st32{fill:url(#SVGID_33_);}
	.st33{fill:url(#SVGID_34_);}
	.st34{fill:url(#SVGID_35_);}
	.st35{fill:url(#SVGID_36_);}
	.st36{fill:url(#SVGID_37_);}
	.st37{fill:url(#SVGID_38_);}
	.st38{fill:url(#SVGID_39_);}
	.st39{fill:url(#SVGID_40_);}
	.st40{fill:url(#SVGID_41_);}
	.st41{fill:url(#SVGID_42_);}
	.st42{fill:url(#SVGID_43_);}
	.st43{fill:url(#SVGID_44_);}
	.st44{fill:url(#SVGID_45_);}
	.st45{fill:url(#SVGID_46_);}
	.st46{fill:url(#SVGID_47_);}
	.st47{fill:url(#SVGID_48_);}
	.st48{fill:url(#SVGID_49_);}
	.st49{fill:url(#SVGID_50_);}
	.st50{fill:url(#SVGID_51_);}
	.st51{fill:url(#SVGID_52_);}
	.st52{fill:url(#SVGID_53_);}
	.st53{fill:url(#SVGID_54_);}
	.st54{fill:url(#SVGID_55_);}
	.st55{fill:url(#SVGID_56_);}
	.st56{fill:url(#SVGID_57_);}
	.st57{fill:url(#SVGID_58_);}
	.st58{fill:url(#SVGID_59_);}
	.st59{fill:url(#SVGID_60_);}
	.st60{fill:url(#SVGID_61_);}
	.st61{fill:url(#SVGID_62_);}
	.st62{fill:url(#SVGID_63_);}
	.st63{fill:url(#SVGID_64_);}
	.st64{fill:url(#SVGID_65_);}
	.st65{fill:url(#SVGID_66_);}
	.st66{fill:url(#SVGID_67_);}
	.st67{fill:url(#SVGID_68_);}
	.st68{fill:url(#SVGID_69_);}
	.st69{fill:url(#SVGID_70_);}
	.st70{fill:url(#SVGID_71_);}
	.st71{fill-rule:evenodd;clip-rule:evenodd;fill:url(#SVGID_72_);}
	.st72{fill-rule:evenodd;clip-rule:evenodd;fill:url(#SVGID_73_);}
	.st73{fill-rule:evenodd;clip-rule:evenodd;fill:url(#SVGID_74_);}
	.st74{fill-rule:evenodd;clip-rule:evenodd;fill:url(#SVGID_75_);}
	.st75{fill-rule:evenodd;clip-rule:evenodd;fill:url(#SVGID_76_);}
	.st76{fill-rule:evenodd;clip-rule:evenodd;fill:url(#SVGID_77_);}
	.st77{fill-rule:evenodd;clip-rule:evenodd;fill:url(#SVGID_78_);}
	.st78{fill-rule:evenodd;clip-rule:evenodd;fill:url(#SVGID_79_);}
	.st79{fill-rule:evenodd;clip-rule:evenodd;fill:url(#SVGID_80_);}
	.st80{fill-rule:evenodd;clip-rule:evenodd;fill:url(#SVGID_81_);}
	.st81{fill-rule:evenodd;clip-rule:evenodd;fill:url(#SVGID_82_);}
	.st82{fill-rule:evenodd;clip-rule:evenodd;fill:url(#SVGID_83_);}
	.st83{fill-rule:evenodd;clip-rule:evenodd;fill:url(#SVGID_84_);}
	.st84{fill-rule:evenodd;clip-rule:evenodd;fill:url(#SVGID_85_);}
	.st85{fill-rule:evenodd;clip-rule:evenodd;fill:url(#SVGID_86_);}
	.st86{fill-rule:evenodd;clip-rule:evenodd;fill:url(#SVGID_87_);}
	.st87{fill-rule:evenodd;clip-rule:evenodd;fill:url(#SVGID_88_);}
	.st88{fill-rule:evenodd;clip-rule:evenodd;fill:url(#SVGID_89_);}
	.st89{fill-rule:evenodd;clip-rule:evenodd;fill:url(#SVGID_90_);}
	.st90{fill-rule:evenodd;clip-rule:evenodd;fill:url(#SVGID_91_);}
	.st91{fill-rule:evenodd;clip-rule:evenodd;fill:url(#SVGID_92_);}
	.st92{fill-rule:evenodd;clip-rule:evenodd;fill:url(#SVGID_93_);}
	.st93{fill-rule:evenodd;clip-rule:evenodd;fill:url(#SVGID_94_);}
	.st94{fill-rule:evenodd;clip-rule:evenodd;fill:url(#SVGID_95_);}
	.st95{fill-rule:evenodd;clip-rule:evenodd;fill:url(#SVGID_96_);}
	.st96{fill-rule:evenodd;clip-rule:evenodd;fill:url(#SVGID_97_);}
	.st97{fill-rule:evenodd;clip-rule:evenodd;fill:url(#SVGID_98_);}
	.st98{fill-rule:evenodd;clip-rule:evenodd;fill:url(#SVGID_99_);}
	.st99{fill-rule:evenodd;clip-rule:evenodd;fill:url(#SVGID_100_);}
	.st100{fill-rule:evenodd;clip-rule:evenodd;fill:url(#SVGID_101_);}
	.st101{fill-rule:evenodd;clip-rule:evenodd;fill:url(#SVGID_102_);}
	.st102{fill-rule:evenodd;clip-rule:evenodd;fill:url(#SVGID_103_);}
</style>
<linearGradient id="SVGID_1_" gradientUnits="userSpaceOnUse" x1="60.0404" y1="112.315" x2="60.0404" y2="10.454">
	<stop  offset="0" style="stop-color:#A2DED7"/>
	<stop  offset="1" style="stop-color:#F1A3A7"/>
</linearGradient>
<path class="st0" d="M89.1,71.5c-0.5-0.5-1.1-0.9-1.6-1.4c-2.5-2.6-5.2-4.8-7.9-7.2c-1.9-1.6-3.9-3.1-6-4.4c-3.1-2.1-6-4.5-8.7-7.2
	c-0.3-0.2-0.4-0.6-0.4-0.9c0-2.3,1.7-4.2,3.9-4.7l0.6-0.1c1.3-0.3,2.3-1.1,2.9-2.2c0.2-0.5,0.5-1,0.7-1.5c0-0.1,0.1-0.2,0.2-0.2
	c0.2-0.5,0.3-0.9,0.6-1.3c0.3-0.8,0.3-1.6,0.2-2.4c0-0.2,0-0.4,0-0.6c0.2-0.7,1-0.5,1.5-0.8c0.2-0.1,0.4-0.2,0.6-0.1
	c0.4-0.2,0.9-0.4,1.3-0.6c0.1-0.1,0.2-0.1,0.3-0.2l0.5-0.3c0.7-0.6,1.2-1.3,1.7-2c0.5-0.8,0.9-1.6,1.2-2.4c0-0.1,0-0.2,0.1-0.3v-0.1
	c0.8-4.2-1.1-7.3-4-10c-0.8-0.8-1.6-1.5-2.6-2c-1.4-0.6-2.9-1-4.5-1.2c-0.7-0.1-0.8-0.3-0.7-1c0.5-2.2-0.3-4.4-1.9-5.9
	c-1.9-1.9-4.6-2.9-7.2-2.6c-3,0.3-5.9,0.8-8.8,1.6c-1.6,0.3-2.9,1.4-3.5,2.8c-0.4,0.9-0.3,2.2-1.1,2.6s-1.9,0.1-2.9,0.1h-0.5h-0.2h0
	h-0.2c-0.4,0.1-0.8,0.2-1.2,0.3h-0.1c-1.1,0.2-2.1,0.7-2.9,1.5c-0.1,0-0.1,0.1-0.2,0.1c-0.5,0.5-1.2,1-1.8,1.3L36,18
	c-0.4,0.3-0.9,0.6-1.3,0.8c-0.1,0.1-0.3,0.2-0.4,0.3c-0.3,0.3-0.6,0.6-1,0.9c-0.1,0.2-0.2,0.3-0.4,0.5c-0.4,0.5-0.8,0.9-1.2,1.4
	c0,0.1,0,0.1-0.1,0.2c-0.4,0.6-0.7,1.2-0.8,1.9c0,0.4,0,0.7-0.1,1.1c-0.2,1.2,0.2,2.4,1,3.4c0.8,0.9,1.5,1.8,2.3,2.6
	c1.3,1.6,2.9,2.9,4.7,3.9c0.3,0.2,0.8,0.4,0.6,0.8c-0.5,1.1-0.1,2.3,0,3.4c0.1,1.4,2.1,2.8,3.4,2.3c0.5-0.2,0.6,0,0.7,0.3
	c0.6,2,1.5,3.9,1.8,6c0.1,1.6,0.8,3.1,2,4.2c0.4,0.3,0.2,0.5,0,0.8c-0.6,0.8-1.3,1.5-2,2.1c-2.2,2.2-4.7,4.1-7.3,5.8
	c-2.7,1.7-5,3.9-6.7,6.6c-0.3,0.4-0.4,0.8,0.1,1.2s0.8-0.1,1.1-0.5s0.7-1.1,1-1.6c2.7-3.7,6.7-5.8,10.3-8.5c0,0,0.1,0,0.2,0.1
	c-0.1,0.3-0.2,0.6-0.4,0.8c-1.5,2.4-2.3,5.1-3.3,7.7c-0.3,0.7-0.5,1.3,0.6,1.3c0.4,0,0.7,0.2,1,0.5c0.5,0.5,1.1,0.8,1.8,1
	c1,0.4,2,0.7,3.1,0.9c0.8,0.1,1.1,0.4,0.5,1.1c-0.2,0.2-0.3,0.5,0,0.7c0.3,0.1,0.6,0,0.7-0.2c0,0,0,0,0,0c0.1-0.1,0.1-0.2,0.2-0.3
	c0.1-0.9,0.8-0.5,1.2-0.6c0.7-0.1,0.6,0.5,0.7,0.8c0.4,1.3,0.3,2.8,1,4c0.3,0.6,0.6,0.7,1.2,0.5s1.3-0.5,2-0.8
	c1.9-0.9,4-1.5,5.5-3.3c0.2-0.3,0.5-0.3,0.7,0c1,1.3,2.5,1.7,3.9,2.2c2.1,0.9,2.5,0.5,2.9-1.7s0.4-2.2,2.6-2.3c0.6,0,0.9-0.2,1-0.8
	c0.1-1.1,0.3-2.2,0.4-3.3c0.1-2.4,0.1-4.8,0-7.2c0-0.2-0.1-0.5,0.1-0.6s0.4,0.1,0.6,0.2c0.8,0.6,1.6,1.2,2.3,1.8
	c1.8,1.4,3.7,2.5,5.2,4.3c0.2,0.3,0.5,0.5,0.8,0.6c1.5,0.8,2.8,1.9,4,3.1c1.4,1.3,2.8,2.6,4.3,3.9c0.3,0.2,0.6,0.4,0.8,0.1
	S89.3,71.7,89.1,71.5z M47.8,13.8c0.4-1.9,2-3.4,4-3.7c2.8-0.5,5.6-1.2,8.5-1.5c2.8-0.2,5.5,0.9,7.3,3c1.1,1.1,0.8,2.4,0.7,3.7
	c-0.2,1.5-0.2,1.4-1.8,1.4c-3.7-0.2-7.3-1.4-10.9-2c-1-0.2-2.1-0.2-3.1-0.2c-1.3-0.1-2.7,0-4,0.1C47.6,14.6,47.5,14.4,47.8,13.8z
	 M42.6,29.3c-0.1,0.8-0.7,1.5-1.4,1.9c-1.3,0.7-1.4,0.8-1.2,2.4c0,0.3,0.2,0.8-0.1,1s-0.6-0.2-0.9-0.4c-2.7-1.6-4.6-4.1-6.7-6.3
	c-1.1-1.2-1.1-4,0-5.5c1.2-1.7,2.8-3,4.7-3.9c0.7-0.3,1.4-0.7,2.1-1.3c1.5-1.4,3.5-2,5.5-1.8c2.7,0.2,5.3,0,8-0.1
	c2.5,0.1,4.9,0.4,7.3,1.1c3.1,0.7,6.3,1.1,9.5,1.4c1.4,0.1,2.7,0.4,4,0.8c1.4,0.6,2.7,1.6,3.6,2.9c1.8,2,3.1,4.1,3.1,6.2
	c0.1,4.3-2.7,7.6-6.3,8.1c-0.3,0-0.5,0-0.6-0.3c-1.3-2.9-3.4-5.4-6.1-7.1c-1.9-1.5-4-2.8-6.3-3.9c-1.1-0.5-2.3-0.8-3.5-0.8
	c-1.8-0.1-3.6-0.1-5.4,0.2c-1,0.1-2,0.5-2.8,1c-1.1,0.7-2.3,1.1-3.5,1.3C44,26.6,42.9,27.8,42.6,29.3z M46.2,48.8
	c-0.2-2.5-1.2-4.8-2-7.2c-0.5-1.3-0.4-2.7,0.3-3.9c0.5-0.7,0.7-1.6,0.6-2.5c-0.2-0.9,0.3-1.9,1.1-2.3c1-0.5,1.4-1.7,1.1-2.8
	c-0.2-0.8,0-1.6,0.4-2.2c1-1.7,2.8-2.9,4.9-3.1c0.2-0.1,0.5,0,0.7,0.1c1.6,1.4,3.5,2.3,5.5,2.8c1.1,0.1,1.9,1.1,1.8,2.2
	c0,0.1,0,0.1,0,0.2c-0.1,1,0.8,1.6,1.5,2c1,0.6,2,1.2,2.3,2.5c0.1,0.3,0.3,0.5,0.5,0.7c0.8,0.7,1.2,1.5,0.3,2.5
	c-0.3,0.4-0.2,1,0.2,1.3c0.3,0.4,0.8,0.6,1.3,0.4c0.5-0.2,1-0.4,1.6-0.6c1.2-0.3,1.8,0.2,1.6,1.5c-0.1,0.9-0.7,1.6-1.5,1.9
	c-0.6,0.2-1.2,0.4-1.7,0.7c-0.5,0.3-0.9,0.6-0.7,1.5s-0.5,1.7-1,2.5c-0.6,1-1.4,1.9-2.1,2.9c-1.1,1.4-2.8,2.3-4.6,2.5
	c-1.8,0.4-3.6,0.6-5.4,0.7c-1.9-0.1-3.7-0.7-5.3-1.7C46.8,50.7,46.3,49.8,46.2,48.8z M62.9,52.1c-2.5,2.3-5.3,4.2-8.2,5.9
	c-0.7,0.4-1.4,0.9-2.1,1.3c-0.4,0.2-0.8,0.4-1-0.2c-0.6-1.7-1.2-3.4-1.9-5.1c-0.2-0.6-0.1-0.7,0.6-0.8c1.2,0,2.2,0.7,3.4,0.6
	c2.5-0.1,5-0.5,7.3-1.4c0.8-0.4,1.5-0.9,2.2-1.4C63.4,51.4,63.3,51.9,62.9,52.1z M48.9,70.1c-2.6-0.7-5.3-1.2-7.6-2.8
	c-0.3-0.2-0.5-0.3-0.3-0.8c1.3-4,3.2-7.7,5.6-11.1c0.1-0.3,0.4-0.5,0.7-0.5c-0.1,1.4-0.3,2.7-0.3,4c-0.1,2.4,0.2,4.7,0.7,7
	c0.4,1,0.9,1.9,1.5,2.7c0.2,0.3,0.5,0.6,0.4,1S49.5,70.2,48.9,70.1L48.9,70.1z M54.9,74.1c-0.8,0.3-1.6,0.6-2.4,1
	c-0.7,0.3-1,0.1-1.2-0.6c-0.4-1.1-0.3-2.3-0.6-3.4c-0.2-1.2-0.6-2.4-1.3-3.5c-1-1.6-1.6-3.5-1.5-5.4c-0.1-2.8,0-5.5,0.5-8.2
	c0.1-0.1,0.1-0.3,0.2-0.4c0.9,1.9,1.4,3.8,2.1,5.5c1.4,3.1,0.5,6.4,0.6,9.6c0,0.5,0,1,0,1.6c0,0.3,0,0.6,0.3,0.6s0.4-0.3,0.5-0.6
	c0.1-1.8,0.1-3.6,0.2-5.4c0-1.2,0-2.5,0-3.7c0-0.4,0-0.7,0.5-0.8c3.6-1.7,6.9-3.8,10-6.3c0.4-0.3,0.8-0.7,1.2-1.1
	c0.4-0.3,0.7-0.2,0.8,0.4c0.2,1.5,0,2.9-0.5,4.3c-0.3,1.3-0.8,2.5-1.3,3.8c-1,2.2-1.7,4.4-2.2,6.7C60,70.9,57.8,73.2,54.9,74.1
	L54.9,74.1z M70.3,61.3c0,2.4-0.1,4.9-0.3,7.3c-0.1,0.7-0.4,0.9-1,0.9c-0.4,0-0.8,0-1.3,0c-1.2,0-1.4,0.2-1.4,1.4c0,0.7,0,1.4-0.1,2
	s-0.4,1-1.1,0.8c-1.7-0.4-3.2-1.3-4.4-2.5c-0.3-0.3,0-0.6,0.1-0.8C62,66,63.6,61.9,65,57.7c0.3-1.1,0.5-2.2,0.6-3.3
	c0-0.2,0-0.5,0.2-0.6s0.4,0.2,0.6,0.3c1,0.9,2.1,1.8,3.1,2.7c0.5,0.6,0.8,1.4,0.8,2.2C70.4,59.9,70.3,60.6,70.3,61.3L70.3,61.3z"/>
<linearGradient id="SVGID_2_" gradientUnits="userSpaceOnUse" x1="58.9368" y1="112.315" x2="58.9368" y2="10.454">
	<stop  offset="0" style="stop-color:#A2DED7"/>
	<stop  offset="1" style="stop-color:#F1A3A7"/>
</linearGradient>
<path class="st1" d="M61.1,35c-0.6,0.4-1.3,0.2-1.9,0.3s-1.2,0.2-1.8,0.2c-0.2,0-0.4,0.1-0.5-0.2s0-0.2,0.1-0.3
	c1.2-0.6,2.6-0.7,3.9-0.3C61,34.8,61,34.9,61.1,35z"/>
<linearGradient id="SVGID_3_" gradientUnits="userSpaceOnUse" x1="53.1212" y1="112.315" x2="53.1212" y2="10.454">
	<stop  offset="0" style="stop-color:#A2DED7"/>
	<stop  offset="1" style="stop-color:#F1A3A7"/>
</linearGradient>
<path class="st2" d="M53.2,42.7c-0.6,0-1.1-0.5-1.7-0.7c-0.1,0-0.2-0.2-0.2-0.3c0,0,0-0.1,0.1-0.1c0.1-0.2,0.3-0.3,0.5-0.2
	c0.7,0.4,1.6,0.5,2.4,0.3c0.3-0.1,0.6,0.1,0.7,0.4c0,0,0,0.1,0,0.1c0,0.4-0.4,0.2-0.6,0.2C53.9,42.6,53.6,42.7,53.2,42.7z"/>
<linearGradient id="SVGID_4_" gradientUnits="userSpaceOnUse" x1="49.4556" y1="112.315" x2="49.4556" y2="10.454">
	<stop  offset="0" style="stop-color:#A2DED7"/>
	<stop  offset="1" style="stop-color:#F1A3A7"/>
</linearGradient>
<path class="st3" d="M51.5,35.6c-1.1-0.4-2.3-0.6-3.5-0.4c-0.2,0.1-0.4,0-0.5-0.2c-0.1-0.2,0-0.3,0.2-0.4C48.4,34,51,34.7,51.5,35.6
	z"/>
<linearGradient id="SVGID_5_" gradientUnits="userSpaceOnUse" x1="58.0559" y1="112.315" x2="58.0559" y2="10.454">
	<stop  offset="0" style="stop-color:#A2DED7"/>
	<stop  offset="1" style="stop-color:#F1A3A7"/>
</linearGradient>
<path class="st4" d="M57.8,37.8c0.6-0.1,1.2,0.3,1.4,0.8c0.1,0.4,0.1,0.7-0.3,0.7s-0.7,0.1-0.6-0.4c0.1-0.4-0.1-0.5-0.4-0.4
	s-0.8,0.4-0.9-0.3S57.4,37.9,57.8,37.8z"/>
<linearGradient id="SVGID_6_" gradientUnits="userSpaceOnUse" x1="53.1623" y1="112.315" x2="53.1623" y2="10.454">
	<stop  offset="0" style="stop-color:#A2DED7"/>
	<stop  offset="1" style="stop-color:#F1A3A7"/>
</linearGradient>
<path class="st5" d="M55.4,47.4c-1.3-0.2-2.6-0.2-3.9,0c-0.2,0-0.5,0.1-0.6-0.2s0.3-0.4,0.5-0.4c1.1,0,2.1,0,3.2,0
	C54.9,46.9,55.1,47,55.4,47.4z"/>
<linearGradient id="SVGID_7_" gradientUnits="userSpaceOnUse" x1="49.5458" y1="112.315" x2="49.5458" y2="10.454">
	<stop  offset="0" style="stop-color:#A2DED7"/>
	<stop  offset="1" style="stop-color:#F1A3A7"/>
</linearGradient>
<path class="st6" d="M50.4,38.5c-0.1,0.4-0.3,0.9-0.8,0.9S49,39,49.2,38.6c0-0.1,0-0.1,0-0.2c0-0.2-0.8-0.2-0.3-0.7
	c0.2-0.2,0.6-0.2,0.8,0C50,37.9,50.3,38.2,50.4,38.5z"/>
<linearGradient id="SVGID_8_" gradientUnits="userSpaceOnUse" x1="67.4623" y1="112.315" x2="67.4623" y2="10.454">
	<stop  offset="0" style="stop-color:#A2DED7"/>
	<stop  offset="1" style="stop-color:#F1A3A7"/>
</linearGradient>
<path class="st7" d="M68.4,40.4c-0.3,0.5-0.7,0.8-1.3,0.9c-0.2,0-0.7,0-0.6-0.3c0.2-0.5,0.7-0.8,1.2-0.9C68,40,68.3,40.2,68.4,40.4z
	"/>
<linearGradient id="SVGID_9_" gradientUnits="userSpaceOnUse" x1="32.2961" y1="112.315" x2="32.2961" y2="10.454">
	<stop  offset="0" style="stop-color:#A2DED7"/>
	<stop  offset="1" style="stop-color:#F1A3A7"/>
</linearGradient>
<path class="st8" d="M45.6,45.6c-0.9-0.2-1.8-0.5-2.7-0.9c-2.3-1-4.5-2.6-7.2-2.6c-0.2,0-0.4,0.1-0.7,0.2c-2.2,0.8-4.1,2.1-5.7,3.7
	c-1.2,1.3-2.1,3-3.8,3.7c-1.9,1-3.7,2.2-5.3,3.7c-0.5,0.4-1.7,0.8-0.9,1.7s1.4-0.2,2-0.6c0.1-0.1,0.2-0.2,0.3-0.3
	c1.4-1.5,3-2.7,4.7-3.6c0.9-0.4,1.7-1.1,2.3-2c0.9-1.4,2-2.5,3.3-3.5c1.4-1.2,3-2,5.1-1.2c0.8,0.3,1.5,0.7,2.3,1
	c1.9,0.7,3.8,1.4,5.7,2.1C45.2,46.5,45.4,46,45.6,45.6z"/>
<linearGradient id="SVGID_10_" gradientUnits="userSpaceOnUse" x1="82.3167" y1="112.315" x2="82.3167" y2="10.454">
	<stop  offset="0" style="stop-color:#A2DED7"/>
	<stop  offset="1" style="stop-color:#F1A3A7"/>
</linearGradient>
<path class="st9" d="M100.4,57.4c-1.5-1.5-3.2-2.8-5-3.9c-0.5-0.3-1-0.4-1.6-0.4c-1.7,0.4-2.6-0.6-3.7-1.6c-1.6-1.7-3.7-3-5.9-3.8
	c-1.2-0.5-2.6-0.4-3.7,0.4c-0.6,0.6-1.6,0.7-2.3,0.2c-2.8-1.2-5.7-1.4-8.1,0.8c-2,1.9-3.8,1.1-5.6,0.3l-0.2-0.1
	c-0.2,0.4-0.4,0.9-0.6,1.3c1.5,0.6,3.1,1.1,4.6,1.7c0.9,0.3,1.7,0.9,2.6,1.2c1.2,0.4,1.3,0.8,0.3,1.6c-0.3,0.3-0.7,0.6-1,0.9
	c0.4,0.3,0.9,0.6,1.3,0.9c0.5-0.4,1-0.9,1.5-1.3c1.7-1.4,3.3-3.2,5.6-3.7c0.8-0.2,1.2-1,1.6-1.7c0.5-1.1,1.6-1.7,2.8-1.7
	c1.6,0.3,3.1,1.1,4.2,2.2c0.9,0.9,1.9,1.7,2.8,2.5c0.8,0.8,2.1,1.2,3.2,0.8c0.7-0.2,1.5,0,1.9,0.5c1.3,1.3,3,2.1,4.1,3.6
	c0.3,0.5,0.9,1,1.5,0.4S100.8,57.7,100.4,57.4z M76.3,51.5c-0.5,0.2-0.9,0.4-1.4,0.6c-1.3,1-3.1,0.9-4.3-0.1
	c-0.4-0.3-0.6-0.6-0.1-0.9c1.3-0.9,2.6-2.2,4.6-2.1c0.2,0,0.6,0.1,1,0.2c0.8,0.2,2,0.5,2,1.3S77,51.2,76.3,51.5z"/>
<linearGradient id="SVGID_11_" gradientUnits="userSpaceOnUse" x1="44.905" y1="112.315" x2="44.905" y2="10.454">
	<stop  offset="0" style="stop-color:#A2DED7"/>
	<stop  offset="1" style="stop-color:#F1A3A7"/>
</linearGradient>
<path class="st10" d="M45.8,102.2v0.7h-0.2v-0.3c0-0.2,0-0.3-0.3-0.3H45v1.7h0.4v0.2h-1.1v-0.2h0.4v-1.7h-0.3c-0.2,0-0.3,0-0.3,0.3
	v0.3H44v-0.7H45.8z"/>
<linearGradient id="SVGID_12_" gradientUnits="userSpaceOnUse" x1="46.925" y1="112.315" x2="46.925" y2="10.454">
	<stop  offset="0" style="stop-color:#A2DED7"/>
	<stop  offset="1" style="stop-color:#F1A3A7"/>
</linearGradient>
<path class="st11" d="M46.6,103c0.2-0.1,0.4-0.1,0.5-0.2c0.2,0,0.3,0.1,0.4,0.2c0,0.1,0.1,0.3,0.1,0.4v0.6h0.2v0.2h-0.7v-0.2h0.2
	v-0.6c0-0.2,0-0.4-0.3-0.4c-0.2,0-0.4,0.1-0.5,0.2v0.9h0.2v0.2h-0.7v-0.2h0.2v-1.8H46v-0.2c0.1,0,0.3,0,0.4-0.1s0-0.1,0.1-0.1
	s0.1,0.1,0.1,0.2L46.6,103z"/>
<linearGradient id="SVGID_13_" gradientUnits="userSpaceOnUse" x1="49.0449" y1="112.315" x2="49.0449" y2="10.454">
	<stop  offset="0" style="stop-color:#A2DED7"/>
	<stop  offset="1" style="stop-color:#F1A3A7"/>
</linearGradient>
<path class="st12" d="M48.5,103.6c0,0.3,0.2,0.5,0.6,0.5c0.2,0,0.4-0.1,0.6-0.2l0.1,0.2c-0.2,0.1-0.5,0.2-0.7,0.2
	c-0.4,0-0.8-0.2-0.8-0.6c0,0,0-0.1,0-0.1c0-0.4,0.3-0.8,0.7-0.8c0,0,0,0,0,0c0.4,0,0.7,0.2,0.7,0.6c0,0,0,0.1,0,0.1c0,0,0,0.1,0,0.1
	H48.5z M49.5,103.4c0-0.2-0.2-0.4-0.5-0.4c0,0,0,0,0,0c-0.3,0-0.5,0.2-0.5,0.4L49.5,103.4z"/>
<linearGradient id="SVGID_14_" gradientUnits="userSpaceOnUse" x1="53.13" y1="112.315" x2="53.13" y2="10.454">
	<stop  offset="0" style="stop-color:#A2DED7"/>
	<stop  offset="1" style="stop-color:#F1A3A7"/>
</linearGradient>
<path class="st13" d="M53.6,102.7h0.2c0,0.1,0,0.2,0,0.3c0,0.1,0,0.1,0,0.2h-0.2v-0.1c0-0.2-0.1-0.3-0.4-0.3c-0.2,0-0.4,0-0.4,0.2
	c0,0.4,1.1,0,1.1,0.6c0,0.3-0.4,0.4-0.7,0.4c-0.2,0-0.3,0-0.5-0.1v0.1h-0.2c0-0.1,0-0.2,0-0.3c0-0.1,0-0.2,0-0.2h0.2
	c0,0.3,0.1,0.4,0.5,0.4c0.1,0,0.4,0,0.4-0.2c0-0.4-1.1,0-1.1-0.6c0-0.3,0.3-0.4,0.6-0.4c0.1,0,0.3,0,0.4,0.1L53.6,102.7z"/>
<linearGradient id="SVGID_15_" gradientUnits="userSpaceOnUse" x1="55.09" y1="112.315" x2="55.09" y2="10.454">
	<stop  offset="0" style="stop-color:#A2DED7"/>
	<stop  offset="1" style="stop-color:#F1A3A7"/>
</linearGradient>
<path class="st14" d="M55,102.8h0.8v0.2H55v0.7c0,0.2,0,0.4,0.2,0.4c0.2,0,0.4-0.1,0.6-0.1l0.1,0.2c-0.2,0.1-0.4,0.1-0.7,0.1
	c-0.3,0-0.4-0.2-0.4-0.5V103h-0.5v-0.2h0.5v-0.4H55V102.8z"/>
<linearGradient id="SVGID_16_" gradientUnits="userSpaceOnUse" x1="57.18" y1="112.315" x2="57.18" y2="10.454">
	<stop  offset="0" style="stop-color:#A2DED7"/>
	<stop  offset="1" style="stop-color:#F1A3A7"/>
</linearGradient>
<path class="st15" d="M56.4,103.6c0-0.4,0.3-0.7,0.7-0.7c0.4,0,0.7,0.3,0.7,0.7c0,0.4-0.3,0.7-0.7,0.7S56.4,104,56.4,103.6
	C56.4,103.6,56.4,103.6,56.4,103.6z M57.7,103.6c0.1-0.3-0.1-0.6-0.4-0.6s-0.6,0.1-0.6,0.4c0,0.1,0,0.2,0,0.3
	c-0.1,0.3,0.1,0.6,0.4,0.6s0.6-0.1,0.6-0.4C57.7,103.7,57.7,103.6,57.7,103.6z"/>
<linearGradient id="SVGID_17_" gradientUnits="userSpaceOnUse" x1="59.295" y1="112.315" x2="59.295" y2="10.454">
	<stop  offset="0" style="stop-color:#A2DED7"/>
	<stop  offset="1" style="stop-color:#F1A3A7"/>
</linearGradient>
<path class="st16" d="M59.1,104.1h0.6v0.2h-1.1v-0.2h0.3v-1h-0.2v-0.2c0.1,0,0.2,0,0.3-0.1c0,0,0.1-0.1,0.1-0.1
	c0.1,0,0.1,0.1,0.1,0.2v0.2c0.2-0.2,0.4-0.3,0.6-0.3c0.2,0,0.3,0.1,0.3,0.3l-0.2,0.1c0-0.1-0.1-0.2-0.2-0.2s-0.5,0.2-0.6,0.4
	L59.1,104.1z"/>
<linearGradient id="SVGID_18_" gradientUnits="userSpaceOnUse" x1="61.24" y1="112.315" x2="61.24" y2="10.454">
	<stop  offset="0" style="stop-color:#A2DED7"/>
	<stop  offset="1" style="stop-color:#F1A3A7"/>
</linearGradient>
<path class="st17" d="M61.1,102.8v0.2h-0.3l0.5,0.9l0.4-0.9h-0.3v-0.2h0.7v0.2h-0.2l-0.6,1.4c-0.1,0.2-0.2,0.5-0.5,0.5
	c-0.1,0-0.3,0-0.4-0.1l0.1-0.2c0.1,0.1,0.2,0.1,0.3,0.1c0.2,0,0.3-0.2,0.3-0.4l0.1-0.2l-0.6-1.1h-0.2v-0.2L61.1,102.8z"/>
<linearGradient id="SVGID_19_" gradientUnits="userSpaceOnUse" x1="65.375" y1="112.315" x2="65.375" y2="10.454">
	<stop  offset="0" style="stop-color:#A2DED7"/>
	<stop  offset="1" style="stop-color:#F1A3A7"/>
</linearGradient>
<path class="st18" d="M65.7,104.2c-0.2,0.1-0.4,0.1-0.6,0.2c-0.2,0-0.5-0.1-0.5-0.4s0.2-0.4,0.4-0.4c0.2,0,0.4-0.1,0.7-0.1v-0.1
	c0-0.2,0-0.3-0.2-0.3c-0.2,0-0.3,0-0.5,0.1v0.2h-0.2V103c0.2-0.1,0.4-0.2,0.7-0.2c0.3,0,0.5,0.1,0.5,0.4v0.8h0.3v0.2h-0.5
	L65.7,104.2z M65.7,103.6c-0.2,0-0.4,0-0.6,0.1c-0.1,0-0.3,0.1-0.3,0.2s0.1,0.2,0.3,0.2c0.2,0,0.4-0.1,0.6-0.2V103.6z"/>
<linearGradient id="SVGID_20_" gradientUnits="userSpaceOnUse" x1="67.2909" y1="112.315" x2="67.2909" y2="10.454">
	<stop  offset="0" style="stop-color:#A2DED7"/>
	<stop  offset="1" style="stop-color:#F1A3A7"/>
</linearGradient>
<path class="st19" d="M67,102.9c0.1-0.1,0.3-0.1,0.4-0.1c0.4,0,0.7,0.3,0.7,0.7c0,0,0,0,0,0.1c0,0.4-0.3,0.7-0.7,0.8c0,0,0,0-0.1,0
	c-0.1,0-0.3,0-0.4-0.1c0,0.1-0.1,0.1-0.1,0.2l-0.2-0.1c0.1-0.1,0.1-0.1,0.1-0.3v-1.7h-0.3v-0.2c0.1,0,0.3,0,0.4-0.1
	c0,0,0.1-0.1,0.1-0.1c0.1,0,0.1,0.1,0.1,0.2L67,102.9z M67,103.9c0.1,0.1,0.2,0.2,0.4,0.2c0.3,0,0.5-0.2,0.5-0.5c0,0,0,0,0-0.1
	c0-0.3-0.2-0.5-0.4-0.5c0,0,0,0,0,0c-0.1,0-0.3,0-0.4,0.1L67,103.9z"/>
<linearGradient id="SVGID_21_" gradientUnits="userSpaceOnUse" x1="69.44" y1="112.315" x2="69.44" y2="10.454">
	<stop  offset="0" style="stop-color:#A2DED7"/>
	<stop  offset="1" style="stop-color:#F1A3A7"/>
</linearGradient>
<path class="st20" d="M68.7,103.6c0-0.4,0.3-0.7,0.7-0.7c0.4,0,0.7,0.3,0.7,0.7s-0.3,0.7-0.7,0.7C69,104.3,68.7,104,68.7,103.6
	L68.7,103.6z M70,103.6c0-0.3-0.2-0.5-0.5-0.5c0,0,0,0,0,0c-0.3,0-0.5,0.2-0.5,0.5c0,0,0,0,0,0c0,0.3,0.2,0.5,0.5,0.6c0,0,0,0,0,0
	C69.7,104.1,70,103.9,70,103.6C70,103.6,70,103.6,70,103.6L70,103.6z"/>
<linearGradient id="SVGID_22_" gradientUnits="userSpaceOnUse" x1="71.53" y1="112.315" x2="71.53" y2="10.454">
	<stop  offset="0" style="stop-color:#A2DED7"/>
	<stop  offset="1" style="stop-color:#F1A3A7"/>
</linearGradient>
<path class="st21" d="M71.9,104.2c-0.2,0.1-0.3,0.1-0.5,0.1c-0.3,0-0.5-0.2-0.5-0.6V103h-0.2v-0.2c0.1,0,0.2,0,0.3-0.1
	c0,0,0-0.1,0.1-0.1c0.1,0,0.1,0.1,0.1,0.2v0.7c0,0.3,0.1,0.5,0.3,0.5c0.2,0,0.3-0.1,0.5-0.2V103h-0.2v-0.2c0.1,0,0.2,0,0.3-0.1
	c0,0,0.1-0.1,0.1-0.1c0.1,0,0.1,0.1,0.1,0.2v1.2h0.3v0.2L71.9,104.2L71.9,104.2z"/>
<linearGradient id="SVGID_23_" gradientUnits="userSpaceOnUse" x1="73.49" y1="112.315" x2="73.49" y2="10.454">
	<stop  offset="0" style="stop-color:#A2DED7"/>
	<stop  offset="1" style="stop-color:#F1A3A7"/>
</linearGradient>
<path class="st22" d="M73.4,102.8h0.8v0.2h-0.8v0.7c0,0.2,0,0.4,0.2,0.4c0.2,0,0.4-0.1,0.6-0.1l0.1,0.2c-0.2,0.1-0.4,0.1-0.7,0.1
	c-0.3,0-0.4-0.2-0.4-0.5V103h-0.5v-0.2h0.5v-0.4h0.2L73.4,102.8z"/>
<linearGradient id="SVGID_24_" gradientUnits="userSpaceOnUse" x1="23.465" y1="112.315" x2="23.465" y2="10.454">
	<stop  offset="0" style="stop-color:#A2DED7"/>
	<stop  offset="1" style="stop-color:#F1A3A7"/>
</linearGradient>
<path class="st23" d="M24.3,106.3v0.7h-0.2v-0.3c0-0.2,0-0.3-0.3-0.3h-0.3v1.7H24v0.2h-1.1v-0.2h0.5v-1.7h-0.3c-0.2,0-0.2,0-0.2,0.3
	v0.3h-0.2v-0.7L24.3,106.3z"/>
<linearGradient id="SVGID_25_" gradientUnits="userSpaceOnUse" x1="25.525" y1="112.315" x2="25.525" y2="10.454">
	<stop  offset="0" style="stop-color:#A2DED7"/>
	<stop  offset="1" style="stop-color:#F1A3A7"/>
</linearGradient>
<path class="st24" d="M25.8,108.2c-0.2,0.1-0.4,0.1-0.6,0.1c-0.2,0-0.5-0.1-0.5-0.4s0.2-0.4,0.5-0.4c0.2,0,0.4-0.1,0.6-0.1v-0.1
	c0-0.2,0-0.3-0.2-0.3c-0.2,0-0.3,0-0.5,0.1v0.2h-0.2v-0.3c0.2-0.1,0.4-0.2,0.7-0.2c0.4,0,0.5,0.1,0.5,0.4v0.8h0.3v0.2h-0.5
	L25.8,108.2z M25.8,107.7c-0.2,0-0.4,0-0.6,0.1c-0.1,0-0.3,0.1-0.3,0.2s0.1,0.2,0.3,0.2c0.2,0,0.4-0.1,0.6-0.2V107.7z"/>
<linearGradient id="SVGID_26_" gradientUnits="userSpaceOnUse" x1="27.635" y1="112.315" x2="27.635" y2="10.454">
	<stop  offset="0" style="stop-color:#A2DED7"/>
	<stop  offset="1" style="stop-color:#F1A3A7"/>
</linearGradient>
<path class="st25" d="M26.9,108.2h0.7v-1c-0.1,0-0.2,0-0.4,0h-0.3V107h0.3c0.1,0,0.3,0,0.4-0.1c0,0,0,0,0.1,0s0.1,0.1,0.1,0.2v1.1
	h0.6v0.2h-1.5V108.2z M27.6,106.6c-0.1,0-0.2-0.1-0.2-0.2s0.1-0.2,0.2-0.2c0,0,0,0,0,0c0.1,0,0.2,0.1,0.2,0.2S27.7,106.6,27.6,106.6
	C27.6,106.6,27.6,106.6,27.6,106.6z"/>
<linearGradient id="SVGID_27_" gradientUnits="userSpaceOnUse" x1="29.615" y1="112.315" x2="29.615" y2="10.454">
	<stop  offset="0" style="stop-color:#A2DED7"/>
	<stop  offset="1" style="stop-color:#F1A3A7"/>
</linearGradient>
<path class="st26" d="M29.3,106.9v0.2H29l0.3,1l0.3-0.8h0.1l0.3,0.8l0.3-1H30v-0.2h0.6v0.2h-0.2l-0.3,1.3h-0.2l-0.2-0.7l-0.2,0.7
	h-0.2l-0.4-1.3h-0.2v-0.2H29.3z"/>
<linearGradient id="SVGID_28_" gradientUnits="userSpaceOnUse" x1="31.655" y1="112.315" x2="31.655" y2="10.454">
	<stop  offset="0" style="stop-color:#A2DED7"/>
	<stop  offset="1" style="stop-color:#F1A3A7"/>
</linearGradient>
<path class="st27" d="M32,108.2c-0.2,0.1-0.4,0.1-0.6,0.1c-0.2,0-0.5-0.1-0.5-0.4s0.2-0.4,0.5-0.4c0.2,0,0.4-0.1,0.6-0.1v-0.1
	c0-0.2,0-0.3-0.2-0.3c-0.2,0-0.3,0-0.5,0.1v0.2H31v-0.3c0.2-0.1,0.4-0.2,0.7-0.2c0.3,0,0.5,0.1,0.5,0.4v0.8h0.3v0.2H32V108.2z
	 M32,107.7c-0.2,0-0.4,0-0.6,0.1c-0.1,0-0.3,0.1-0.3,0.2s0.1,0.2,0.3,0.2c0.2,0,0.4-0.1,0.6-0.2V107.7z"/>
<linearGradient id="SVGID_29_" gradientUnits="userSpaceOnUse" x1="33.69" y1="112.315" x2="33.69" y2="10.454">
	<stop  offset="0" style="stop-color:#A2DED7"/>
	<stop  offset="1" style="stop-color:#F1A3A7"/>
</linearGradient>
<path class="st28" d="M33.3,108.2h0.2v0.2h-0.7v-0.2h0.2v-1h-0.2V107c0.1,0,0.2,0,0.3-0.1c0,0,0,0,0.1,0s0.1,0.1,0.1,0.2v0.1
	c0.2-0.1,0.3-0.2,0.5-0.2c0.2,0,0.3,0.1,0.4,0.2c0.1,0.1,0.1,0.3,0.1,0.4v0.6h0.2v0.2h-0.7v-0.2h0.2v-0.6c0-0.2,0-0.4-0.3-0.4
	c-0.2,0-0.4,0.1-0.5,0.2L33.3,108.2z"/>
<linearGradient id="SVGID_30_" gradientUnits="userSpaceOnUse" x1="35.7647" y1="112.315" x2="35.7647" y2="10.454">
	<stop  offset="0" style="stop-color:#A2DED7"/>
	<stop  offset="1" style="stop-color:#F1A3A7"/>
</linearGradient>
<path class="st29" d="M35.2,107.7c0,0.3,0.2,0.5,0.6,0.5c0.2,0,0.4-0.1,0.6-0.2l0.1,0.2c-0.2,0.1-0.5,0.2-0.7,0.2
	c-0.4,0.1-0.7-0.2-0.8-0.6c0,0,0-0.1,0-0.1c0-0.4,0.3-0.8,0.7-0.8c0,0,0,0,0,0c0.4,0,0.7,0.2,0.7,0.6c0,0,0,0.1,0,0.1
	c0,0,0,0.1,0,0.1H35.2z M36.2,107.5c0-0.3-0.2-0.5-0.5-0.5c0,0,0,0,0,0c-0.3,0-0.5,0.2-0.5,0.4H36.2z"/>
<linearGradient id="SVGID_31_" gradientUnits="userSpaceOnUse" x1="37.8" y1="112.315" x2="37.8" y2="10.454">
	<stop  offset="0" style="stop-color:#A2DED7"/>
	<stop  offset="1" style="stop-color:#F1A3A7"/>
</linearGradient>
<path class="st30" d="M38.2,106.8h0.2c0,0.1,0,0.2,0,0.3c0,0.1,0,0.1,0,0.2h-0.2v-0.1c0-0.2-0.1-0.3-0.4-0.3c-0.2,0-0.4,0-0.4,0.2
	c0,0.4,1.1,0.1,1.1,0.6c0,0.3-0.4,0.4-0.7,0.4c-0.2,0-0.3,0-0.5-0.1v0.1l-0.2-0.1c0-0.1,0-0.2,0-0.3c0-0.1,0-0.2,0-0.2h0.2
	c0,0.3,0.1,0.4,0.5,0.4c0.1,0,0.4,0,0.4-0.2c0-0.4-1.1,0-1.1-0.6c0-0.3,0.3-0.5,0.6-0.5c0.1,0,0.3,0,0.4,0.1L38.2,106.8z"/>
<linearGradient id="SVGID_32_" gradientUnits="userSpaceOnUse" x1="39.8547" y1="112.315" x2="39.8547" y2="10.454">
	<stop  offset="0" style="stop-color:#A2DED7"/>
	<stop  offset="1" style="stop-color:#F1A3A7"/>
</linearGradient>
<path class="st31" d="M39.3,107.7c0,0.3,0.2,0.5,0.6,0.5c0.2,0,0.4-0.1,0.6-0.2l0.1,0.2c-0.2,0.1-0.5,0.2-0.7,0.2
	c-0.4,0.1-0.7-0.2-0.8-0.6c0,0,0-0.1,0-0.1c0-0.4,0.3-0.8,0.7-0.8c0,0,0,0,0,0c0.4,0,0.7,0.2,0.7,0.6c0,0,0,0.1,0,0.1
	c0,0,0,0.1,0,0.1H39.3z M40.3,107.5c0-0.3-0.2-0.5-0.5-0.5c0,0,0,0,0,0c-0.3,0-0.5,0.2-0.5,0.4H40.3z"/>
<linearGradient id="SVGID_33_" gradientUnits="userSpaceOnUse" x1="43.925" y1="112.315" x2="43.925" y2="10.454">
	<stop  offset="0" style="stop-color:#A2DED7"/>
	<stop  offset="1" style="stop-color:#F1A3A7"/>
</linearGradient>
<path class="st32" d="M44.2,108.2c-0.2,0.1-0.4,0.1-0.6,0.1c-0.2,0-0.5-0.1-0.5-0.4s0.2-0.4,0.4-0.4c0.2,0,0.4-0.1,0.7-0.1v-0.1
	c0-0.2,0-0.3-0.2-0.3c-0.2,0-0.3,0-0.5,0.1v0.2h-0.2v-0.3c0.2-0.1,0.4-0.2,0.7-0.2c0.3,0,0.5,0.1,0.5,0.4v0.8h0.3v0.2h-0.5V108.2z
	 M44.2,107.7c-0.2,0-0.4,0-0.6,0.1c-0.1,0-0.3,0.1-0.3,0.2s0.1,0.2,0.3,0.2c0.2,0,0.4-0.1,0.6-0.2V107.7z"/>
<linearGradient id="SVGID_34_" gradientUnits="userSpaceOnUse" x1="46.02" y1="112.315" x2="46.02" y2="10.454">
	<stop  offset="0" style="stop-color:#A2DED7"/>
	<stop  offset="1" style="stop-color:#F1A3A7"/>
</linearGradient>
<path class="st33" d="M45.8,108.2h0.6v0.2h-1.1v-0.2h0.3v-1h-0.2V107c0.1,0,0.2,0,0.3-0.1c0,0,0-0.1,0.1-0.1s0.1,0.1,0.1,0.2v0.2
	c0.2-0.2,0.4-0.3,0.6-0.3c0.2,0,0.3,0.1,0.3,0.3l-0.2,0.1c0-0.1-0.1-0.2-0.2-0.2s-0.5,0.2-0.6,0.4L45.8,108.2z"/>
<linearGradient id="SVGID_35_" gradientUnits="userSpaceOnUse" x1="47.95" y1="112.315" x2="47.95" y2="10.454">
	<stop  offset="0" style="stop-color:#A2DED7"/>
	<stop  offset="1" style="stop-color:#F1A3A7"/>
</linearGradient>
<path class="st34" d="M47.9,106.9h0.8v0.2h-0.8v0.7c0,0.2,0,0.4,0.2,0.4c0.2,0,0.4,0,0.6-0.1l0.1,0.2c-0.2,0.1-0.4,0.1-0.7,0.1
	c-0.3,0-0.4-0.2-0.4-0.5v-0.8h-0.5v-0.2h0.5v-0.4h0.2V106.9z"/>
<linearGradient id="SVGID_36_" gradientUnits="userSpaceOnUse" x1="50.095" y1="112.315" x2="50.095" y2="10.454">
	<stop  offset="0" style="stop-color:#A2DED7"/>
	<stop  offset="1" style="stop-color:#F1A3A7"/>
</linearGradient>
<path class="st35" d="M49.3,108.2H50v-1c-0.1,0-0.2,0-0.3,0h-0.3V107h0.3c0.1,0,0.3,0,0.4-0.1c0,0,0,0,0.1,0s0.1,0.1,0.1,0.2v1.1
	h0.6v0.2h-1.5V108.2z M50.1,106.6c-0.1,0-0.2-0.1-0.2-0.2c0-0.1,0.1-0.2,0.2-0.2c0.1,0,0.2,0.1,0.2,0.2
	C50.3,106.5,50.2,106.6,50.1,106.6C50.1,106.6,50.1,106.6,50.1,106.6z"/>
<linearGradient id="SVGID_37_" gradientUnits="userSpaceOnUse" x1="52.08" y1="112.315" x2="52.08" y2="10.454">
	<stop  offset="0" style="stop-color:#A2DED7"/>
	<stop  offset="1" style="stop-color:#F1A3A7"/>
</linearGradient>
<path class="st36" d="M52.5,106.8h0.2c0,0.1,0,0.2,0,0.3c0,0.1,0,0.1,0,0.2h-0.2v-0.1c0-0.2-0.1-0.3-0.4-0.3c-0.2,0-0.4,0-0.4,0.2
	c0,0.4,1.1,0.1,1.1,0.6c0,0.3-0.4,0.4-0.7,0.4c-0.2,0-0.3,0-0.5-0.1v0.1l-0.2-0.1c0-0.1,0-0.2,0-0.3c0-0.1,0-0.2,0-0.2h0.2
	c0,0.3,0.1,0.4,0.5,0.4c0.1,0,0.4,0,0.4-0.2c0-0.4-1.1,0-1.1-0.6c0-0.3,0.3-0.5,0.6-0.5c0.2,0,0.3,0,0.4,0.1L52.5,106.8z"/>
<linearGradient id="SVGID_38_" gradientUnits="userSpaceOnUse" x1="54.09" y1="112.315" x2="54.09" y2="10.454">
	<stop  offset="0" style="stop-color:#A2DED7"/>
	<stop  offset="1" style="stop-color:#F1A3A7"/>
</linearGradient>
<path class="st37" d="M54,106.9h0.8v0.2H54v0.7c0,0.2,0,0.4,0.2,0.4c0.2,0,0.4,0,0.6-0.1l0.1,0.2c-0.2,0.1-0.4,0.1-0.7,0.1
	c-0.3,0-0.4-0.2-0.4-0.5v-0.8h-0.5v-0.2h0.5v-0.4H54V106.9z"/>
<linearGradient id="SVGID_39_" gradientUnits="userSpaceOnUse" x1="56.21" y1="112.315" x2="56.21" y2="10.454">
	<stop  offset="0" style="stop-color:#A2DED7"/>
	<stop  offset="1" style="stop-color:#F1A3A7"/>
</linearGradient>
<path class="st38" d="M56.6,106.8h0.2c0,0.1,0,0.2,0,0.3c0,0.1,0,0.1,0,0.2h-0.2v-0.1c0-0.2-0.1-0.3-0.4-0.3c-0.2,0-0.4,0-0.4,0.2
	c0,0.4,1.1,0.1,1.1,0.6c0,0.3-0.4,0.4-0.7,0.4c-0.2,0-0.3,0-0.5-0.1v0.1l-0.2-0.1c0-0.1,0-0.2,0-0.3c0-0.1,0-0.2,0-0.2h0.2
	c0,0.3,0.1,0.4,0.5,0.4c0.1,0,0.4,0,0.4-0.2c0-0.4-1.1,0-1.1-0.6c0-0.3,0.3-0.5,0.6-0.5c0.1,0,0.3,0,0.4,0.1L56.6,106.8z"/>
<linearGradient id="SVGID_40_" gradientUnits="userSpaceOnUse" x1="60.265" y1="112.315" x2="60.265" y2="10.454">
	<stop  offset="0" style="stop-color:#A2DED7"/>
	<stop  offset="1" style="stop-color:#F1A3A7"/>
</linearGradient>
<path class="st39" d="M60.6,108.2c-0.2,0.1-0.4,0.1-0.6,0.1c-0.2,0-0.5-0.1-0.5-0.4s0.2-0.4,0.5-0.4c0.2,0,0.4-0.1,0.7-0.1v-0.1
	c0-0.2,0-0.3-0.2-0.3c-0.2,0-0.3,0-0.5,0.1v0.2h-0.2v-0.3c0.2-0.1,0.4-0.2,0.7-0.2c0.3,0,0.5,0.1,0.5,0.4v0.8h0.3v0.2h-0.5
	L60.6,108.2z M60.6,107.7c-0.2,0-0.4,0-0.6,0.1c-0.1,0-0.3,0.1-0.3,0.2s0.1,0.2,0.3,0.2c0.2,0,0.4-0.1,0.6-0.2V107.7z"/>
<linearGradient id="SVGID_41_" gradientUnits="userSpaceOnUse" x1="62.3" y1="112.315" x2="62.3" y2="10.454">
	<stop  offset="0" style="stop-color:#A2DED7"/>
	<stop  offset="1" style="stop-color:#F1A3A7"/>
</linearGradient>
<path class="st40" d="M61.9,108.2h0.2v0.2h-0.7v-0.2h0.2v-1h-0.2V107c0.1,0,0.2,0,0.3-0.1c0,0,0.1,0,0.1,0c0.1,0,0.1,0.1,0.1,0.2
	v0.1c0.2-0.1,0.3-0.2,0.5-0.2c0.2,0,0.3,0.1,0.4,0.2c0.1,0.1,0.1,0.3,0.1,0.4v0.6h0.2v0.2h-0.7v-0.2h0.2v-0.6c0-0.2,0-0.4-0.3-0.4
	c-0.2,0-0.4,0.1-0.5,0.2L61.9,108.2z"/>
<linearGradient id="SVGID_42_" gradientUnits="userSpaceOnUse" x1="64.3697" y1="112.315" x2="64.3697" y2="10.454">
	<stop  offset="0" style="stop-color:#A2DED7"/>
	<stop  offset="1" style="stop-color:#F1A3A7"/>
</linearGradient>
<path class="st41" d="M64.7,108.3c-0.1,0.1-0.2,0.1-0.4,0.1c-0.4,0-0.7-0.3-0.7-0.7c0,0,0,0,0,0c0-0.4,0.3-0.7,0.7-0.8
	c0.1,0,0.3,0,0.4,0.1v-0.6h-0.3v-0.2c0.1,0,0.3,0,0.4-0.1s0-0.1,0.1-0.1s0.1,0.1,0.1,0.2v1.9h0.3v0.2L64.7,108.3L64.7,108.3z
	 M64.7,107.2c-0.1-0.1-0.2-0.1-0.3-0.1c-0.3,0-0.5,0.2-0.5,0.5c0,0,0,0,0,0c0,0.3,0.2,0.5,0.5,0.5c0,0,0,0,0,0c0.1,0,0.3,0,0.4-0.1
	V107.2z"/>
<linearGradient id="SVGID_43_" gradientUnits="userSpaceOnUse" x1="68.385" y1="112.315" x2="68.385" y2="10.454">
	<stop  offset="0" style="stop-color:#A2DED7"/>
	<stop  offset="1" style="stop-color:#F1A3A7"/>
</linearGradient>
<path class="st42" d="M68.3,106.9h0.8v0.2h-0.8v0.7c0,0.2,0,0.4,0.2,0.4c0.2,0,0.4,0,0.6-0.1l0.1,0.2c-0.2,0.1-0.5,0.1-0.7,0.1
	c-0.2,0-0.4-0.2-0.4-0.5v-0.8h-0.5v-0.2h0.5v-0.4h0.2L68.3,106.9z"/>
<linearGradient id="SVGID_44_" gradientUnits="userSpaceOnUse" x1="70.425" y1="112.315" x2="70.425" y2="10.454">
	<stop  offset="0" style="stop-color:#A2DED7"/>
	<stop  offset="1" style="stop-color:#F1A3A7"/>
</linearGradient>
<path class="st43" d="M70.1,107.1c0.2-0.1,0.3-0.2,0.5-0.2c0.2,0,0.3,0.1,0.4,0.2c0.1,0.1,0.1,0.3,0.1,0.4v0.6h0.2v0.2h-0.7v-0.2
	h0.2v-0.6c0-0.2,0-0.4-0.3-0.4c-0.2,0-0.4,0.1-0.5,0.2v0.9h0.2v0.2h-0.7v-0.2h0.2v-1.8h-0.3v-0.2c0.1,0,0.3,0,0.4-0.1s0-0.1,0.1-0.1
	s0.1,0.1,0.1,0.2L70.1,107.1z"/>
<linearGradient id="SVGID_45_" gradientUnits="userSpaceOnUse" x1="72.5447" y1="112.315" x2="72.5447" y2="10.454">
	<stop  offset="0" style="stop-color:#A2DED7"/>
	<stop  offset="1" style="stop-color:#F1A3A7"/>
</linearGradient>
<path class="st44" d="M72,107.7c0,0.3,0.2,0.5,0.6,0.5c0.2,0,0.4-0.1,0.6-0.2l0.1,0.2c-0.2,0.1-0.5,0.2-0.7,0.2
	c-0.4,0-0.8-0.2-0.8-0.6c0,0,0-0.1,0-0.1c0-0.4,0.3-0.8,0.7-0.8c0,0,0,0,0,0c0.4,0,0.7,0.2,0.7,0.6c0,0,0,0.1,0,0.1c0,0,0,0.1,0,0.1
	H72z M73,107.5c0-0.3-0.2-0.5-0.5-0.5c0,0,0,0,0,0c-0.3,0-0.5,0.2-0.5,0.4H73z"/>
<linearGradient id="SVGID_46_" gradientUnits="userSpaceOnUse" x1="74.635" y1="112.315" x2="74.635" y2="10.454">
	<stop  offset="0" style="stop-color:#A2DED7"/>
	<stop  offset="1" style="stop-color:#F1A3A7"/>
</linearGradient>
<path class="st45" d="M73.9,108.2h0.7v-1c-0.1,0-0.2,0-0.3,0h-0.3V107h0.3c0.1,0,0.3,0,0.4-0.1c0,0,0.1,0,0.1,0s0.1,0.1,0.1,0.2v1.1
	h0.6v0.2h-1.5V108.2z M74.6,106.6c-0.1,0-0.2-0.1-0.2-0.2s0.1-0.2,0.2-0.2c0,0,0,0,0,0c0.1,0,0.2,0.1,0.2,0.2S74.7,106.6,74.6,106.6
	C74.6,106.6,74.6,106.6,74.6,106.6z"/>
<linearGradient id="SVGID_47_" gradientUnits="userSpaceOnUse" x1="76.665" y1="112.315" x2="76.665" y2="10.454">
	<stop  offset="0" style="stop-color:#A2DED7"/>
	<stop  offset="1" style="stop-color:#F1A3A7"/>
</linearGradient>
<path class="st46" d="M76.4,108.2H77v0.2h-1.1v-0.2h0.3v-1H76V107c0.1,0,0.2,0,0.3-0.1c0,0,0.1-0.1,0.1-0.1c0.1,0,0.1,0.1,0.1,0.2
	v0.2c0.2-0.2,0.4-0.3,0.6-0.3c0.2,0,0.3,0.1,0.3,0.3l-0.2,0.1c0-0.1-0.1-0.2-0.2-0.2s-0.5,0.2-0.6,0.4L76.4,108.2z"/>
<linearGradient id="SVGID_48_" gradientUnits="userSpaceOnUse" x1="80.705" y1="112.315" x2="80.705" y2="10.454">
	<stop  offset="0" style="stop-color:#A2DED7"/>
	<stop  offset="1" style="stop-color:#F1A3A7"/>
</linearGradient>
<path class="st47" d="M81,108.2c-0.2,0.1-0.4,0.1-0.6,0.1c-0.2,0-0.5-0.1-0.5-0.4s0.2-0.4,0.4-0.4c0.2,0,0.4-0.1,0.6-0.1v-0.1
	c0-0.2,0-0.3-0.2-0.3c-0.2,0-0.3,0-0.5,0.1v0.2h-0.2v-0.3c0.2-0.1,0.4-0.2,0.7-0.2c0.3,0,0.5,0.1,0.5,0.4v0.8h0.3v0.2H81V108.2z
	 M81,107.7c-0.2,0-0.4,0-0.6,0.1c-0.1,0-0.3,0.1-0.3,0.2s0.1,0.2,0.3,0.2c0.2,0,0.4-0.1,0.6-0.2V107.7z"/>
<linearGradient id="SVGID_49_" gradientUnits="userSpaceOnUse" x1="82.795" y1="112.315" x2="82.795" y2="10.454">
	<stop  offset="0" style="stop-color:#A2DED7"/>
	<stop  offset="1" style="stop-color:#F1A3A7"/>
</linearGradient>
<path class="st48" d="M82.6,108.2h0.6v0.2h-1.1v-0.2h0.3v-1h-0.2V107c0.1,0,0.2,0,0.3-0.1c0,0,0.1-0.1,0.1-0.1
	c0.1,0,0.1,0.1,0.1,0.2v0.2c0.2-0.2,0.4-0.3,0.6-0.3c0.2,0,0.3,0.1,0.3,0.3l-0.2,0.1c0-0.1-0.1-0.2-0.2-0.2s-0.5,0.2-0.6,0.4
	L82.6,108.2z"/>
<linearGradient id="SVGID_50_" gradientUnits="userSpaceOnUse" x1="84.73" y1="112.315" x2="84.73" y2="10.454">
	<stop  offset="0" style="stop-color:#A2DED7"/>
	<stop  offset="1" style="stop-color:#F1A3A7"/>
</linearGradient>
<path class="st49" d="M84.6,106.9h0.8v0.2h-0.8v0.7c0,0.2,0,0.4,0.2,0.4c0.2,0,0.4,0,0.6-0.1l0.1,0.2c-0.2,0.1-0.4,0.1-0.7,0.1
	c-0.3,0-0.4-0.2-0.4-0.5v-0.8h-0.5v-0.2h0.5v-0.4h0.2L84.6,106.9z"/>
<linearGradient id="SVGID_51_" gradientUnits="userSpaceOnUse" x1="86.8" y1="112.315" x2="86.8" y2="10.454">
	<stop  offset="0" style="stop-color:#A2DED7"/>
	<stop  offset="1" style="stop-color:#F1A3A7"/>
</linearGradient>
<path class="st50" d="M86.5,106.9v0.2h-0.2l0.3,1l0.3-0.8h0.1l0.3,0.8l0.3-1h-0.3v-0.2h0.6v0.2h-0.2l-0.3,1.3h-0.2l-0.2-0.7
	l-0.2,0.7h-0.2l-0.4-1.3h-0.2v-0.2H86.5z"/>
<linearGradient id="SVGID_52_" gradientUnits="userSpaceOnUse" x1="88.8599" y1="112.315" x2="88.8599" y2="10.454">
	<stop  offset="0" style="stop-color:#A2DED7"/>
	<stop  offset="1" style="stop-color:#F1A3A7"/>
</linearGradient>
<path class="st51" d="M88.1,107.6c0-0.4,0.3-0.8,0.7-0.8c0.4,0,0.8,0.3,0.8,0.7c0,0.4-0.3,0.8-0.7,0.8c0,0,0,0,0,0
	C88.4,108.4,88.1,108.1,88.1,107.6C88.1,107.7,88.1,107.6,88.1,107.6z M89.4,107.6c0-0.3-0.3-0.5-0.5-0.5c-0.3,0-0.5,0.3-0.5,0.5
	c0,0.3,0.2,0.5,0.5,0.5C89.1,108.2,89.4,108,89.4,107.6C89.4,107.7,89.4,107.6,89.4,107.6z"/>
<linearGradient id="SVGID_53_" gradientUnits="userSpaceOnUse" x1="90.97" y1="112.315" x2="90.97" y2="10.454">
	<stop  offset="0" style="stop-color:#A2DED7"/>
	<stop  offset="1" style="stop-color:#F1A3A7"/>
</linearGradient>
<path class="st52" d="M90.7,108.2h0.6v0.2h-1.1v-0.2h0.3v-1h-0.2V107c0.1,0,0.2,0,0.3-0.1c0,0,0-0.1,0.1-0.1s0.1,0.1,0.1,0.2v0.2
	c0.2-0.2,0.4-0.3,0.6-0.3c0.2,0,0.3,0.1,0.3,0.3l-0.2,0.1c0-0.1-0.1-0.2-0.2-0.2s-0.5,0.2-0.6,0.4L90.7,108.2z"/>
<linearGradient id="SVGID_54_" gradientUnits="userSpaceOnUse" x1="92.915" y1="112.315" x2="92.915" y2="10.454">
	<stop  offset="0" style="stop-color:#A2DED7"/>
	<stop  offset="1" style="stop-color:#F1A3A7"/>
</linearGradient>
<path class="st53" d="M92.6,107.7l0.6-0.5H93v-0.2h0.7v0.2h-0.2l-0.4,0.4l0.5,0.7h0.3v0.2h-0.7v-0.2h0.2l-0.4-0.5l-0.3,0.3v0.3h0.3
	v0.2H92v-0.2h0.3v-1.8H92v-0.2c0.1,0,0.3,0,0.4-0.1s0.1-0.1,0.1-0.1s0.1,0.1,0.1,0.2L92.6,107.7z"/>
<linearGradient id="SVGID_55_" gradientUnits="userSpaceOnUse" x1="94.995" y1="112.315" x2="94.995" y2="10.454">
	<stop  offset="0" style="stop-color:#A2DED7"/>
	<stop  offset="1" style="stop-color:#F1A3A7"/>
</linearGradient>
<path class="st54" d="M95.5,106.8h0.2c0,0.1,0,0.2-0.1,0.3c0,0.1,0,0.1,0,0.2h-0.2v-0.1c0-0.2-0.1-0.3-0.4-0.3c-0.2,0-0.4,0-0.4,0.2
	c0,0.4,1.1,0.1,1.1,0.6c0,0.3-0.4,0.4-0.7,0.4c-0.2,0-0.3,0-0.5-0.1v0.1l-0.2-0.1c0-0.1,0-0.2,0-0.3c0-0.1,0-0.2,0-0.2h0.2
	c0,0.3,0.1,0.4,0.5,0.4c0.1,0,0.4,0,0.4-0.2c0-0.4-1.1,0-1.1-0.6c0-0.3,0.3-0.5,0.6-0.5c0.2,0,0.3,0,0.4,0.1V106.8z"/>
<linearGradient id="SVGID_56_" gradientUnits="userSpaceOnUse" x1="42.7909" y1="112.315" x2="42.7909" y2="10.454">
	<stop  offset="0" style="stop-color:#A2DED7"/>
	<stop  offset="1" style="stop-color:#F1A3A7"/>
</linearGradient>
<path class="st55" d="M42.5,111.1c0.1-0.1,0.3-0.1,0.4-0.1c0.4,0,0.7,0.3,0.7,0.7c0,0,0,0,0,0.1c0,0.4-0.3,0.7-0.7,0.8
	c0,0,0,0-0.1,0c-0.1,0-0.3,0-0.4-0.1c0,0.1-0.1,0.1-0.1,0.2l-0.2-0.1c0.1-0.1,0.1-0.1,0.1-0.3v-1.7H42v-0.2c0.1,0,0.3,0,0.3-0.1
	c0,0,0.1,0,0.1,0c0.1,0,0.1,0.1,0.1,0.2L42.5,111.1z M42.5,112.1c0.1,0.1,0.2,0.1,0.4,0.1c0.3,0,0.5-0.3,0.5-0.6
	c0-0.3-0.2-0.4-0.5-0.5c-0.2,0-0.3,0.1-0.4,0.2L42.5,112.1z"/>
<linearGradient id="SVGID_57_" gradientUnits="userSpaceOnUse" x1="44.9549" y1="112.315" x2="44.9549" y2="10.454">
	<stop  offset="0" style="stop-color:#A2DED7"/>
	<stop  offset="1" style="stop-color:#F1A3A7"/>
</linearGradient>
<path class="st56" d="M44.4,111.8c0,0.3,0.2,0.5,0.6,0.5c0.2,0,0.4-0.1,0.6-0.2l0.1,0.2c-0.2,0.1-0.5,0.2-0.7,0.2
	c-0.4,0-0.8-0.2-0.8-0.6c0,0,0-0.1,0-0.1c0-0.4,0.3-0.8,0.7-0.8c0,0,0,0,0.1,0c0.4,0,0.7,0.2,0.7,0.6c0,0,0,0.1,0,0.1
	c0,0,0,0.1,0,0.2L44.4,111.8z M45.4,111.6c0-0.2-0.2-0.5-0.4-0.5c0,0,0,0,0,0c-0.3,0-0.5,0.2-0.5,0.4H45.4z"/>
<linearGradient id="SVGID_58_" gradientUnits="userSpaceOnUse" x1="46.93" y1="112.315" x2="46.93" y2="10.454">
	<stop  offset="0" style="stop-color:#A2DED7"/>
	<stop  offset="1" style="stop-color:#F1A3A7"/>
</linearGradient>
<path class="st57" d="M46.8,111h0.8v0.2h-0.8v0.7c0,0.2,0,0.4,0.2,0.4c0.2,0,0.4,0,0.6-0.1l0.1,0.2c-0.2,0.1-0.5,0.1-0.7,0.1
	c-0.2,0-0.4-0.2-0.4-0.5v-0.8h-0.5V111h0.5v-0.4h0.2L46.8,111z"/>
<linearGradient id="SVGID_59_" gradientUnits="userSpaceOnUse" x1="49" y1="112.315" x2="49" y2="10.454">
	<stop  offset="0" style="stop-color:#A2DED7"/>
	<stop  offset="1" style="stop-color:#F1A3A7"/>
</linearGradient>
<path class="st58" d="M48.7,111v0.2h-0.2l0.3,1l0.3-0.8h0.1l0.3,0.8l0.3-1h-0.2V111H50v0.2h-0.2l-0.3,1.3h-0.2l-0.2-0.7l-0.2,0.7
	h-0.2l-0.3-1.3H48V111H48.7z"/>
<linearGradient id="SVGID_60_" gradientUnits="userSpaceOnUse" x1="51.0897" y1="112.315" x2="51.0897" y2="10.454">
	<stop  offset="0" style="stop-color:#A2DED7"/>
	<stop  offset="1" style="stop-color:#F1A3A7"/>
</linearGradient>
<path class="st59" d="M50.5,111.8c0,0.3,0.2,0.5,0.6,0.5c0.2,0,0.4-0.1,0.6-0.2l0.1,0.2c-0.2,0.1-0.5,0.2-0.7,0.2
	c-0.4,0.1-0.7-0.2-0.8-0.6c0,0,0-0.1,0-0.1c0-0.4,0.3-0.8,0.7-0.8c0,0,0,0,0,0c0.4,0,0.7,0.2,0.7,0.6c0,0,0,0.1,0,0.1
	c0,0,0,0.1,0,0.2H50.5z M51.5,111.6c0-0.2-0.2-0.5-0.4-0.5c0,0,0,0,0,0c-0.3,0-0.5,0.2-0.5,0.4H51.5z"/>
<linearGradient id="SVGID_61_" gradientUnits="userSpaceOnUse" x1="53.1347" y1="112.315" x2="53.1347" y2="10.454">
	<stop  offset="0" style="stop-color:#A2DED7"/>
	<stop  offset="1" style="stop-color:#F1A3A7"/>
</linearGradient>
<path class="st60" d="M52.6,111.8c0,0.3,0.2,0.5,0.6,0.5c0.2,0,0.4-0.1,0.6-0.2l0.1,0.2c-0.2,0.1-0.5,0.2-0.7,0.2
	c-0.4,0.1-0.7-0.2-0.8-0.6c0,0,0-0.1,0-0.1c0-0.4,0.3-0.8,0.7-0.8c0,0,0,0,0,0c0.4,0,0.7,0.2,0.7,0.6c0,0,0,0.1,0,0.1
	c0,0,0,0.1,0,0.2H52.6z M53.6,111.6c0-0.3-0.2-0.5-0.5-0.5c0,0,0,0,0,0c-0.3,0-0.5,0.2-0.5,0.4H53.6z"/>
<linearGradient id="SVGID_62_" gradientUnits="userSpaceOnUse" x1="55.155" y1="112.315" x2="55.155" y2="10.454">
	<stop  offset="0" style="stop-color:#A2DED7"/>
	<stop  offset="1" style="stop-color:#F1A3A7"/>
</linearGradient>
<path class="st61" d="M54.7,112.2H55v0.2h-0.7v-0.2h0.2v-1h-0.2v-0.2c0.1,0,0.2,0,0.3-0.1c0,0,0.1-0.1,0.1-0.1
	c0.1,0,0.1,0.1,0.1,0.2l0,0c0.2-0.1,0.4-0.1,0.5-0.2c0.2,0,0.3,0.1,0.4,0.2c0,0.1,0,0.3,0,0.4v0.6H56v0.2h-0.7v-0.2h0.2v-0.6
	c0-0.2,0-0.4-0.3-0.4c-0.2,0-0.4,0.1-0.5,0.2L54.7,112.2z"/>
<linearGradient id="SVGID_63_" gradientUnits="userSpaceOnUse" x1="59.245" y1="112.315" x2="59.245" y2="10.454">
	<stop  offset="0" style="stop-color:#A2DED7"/>
	<stop  offset="1" style="stop-color:#F1A3A7"/>
</linearGradient>
<path class="st62" d="M59.4,112.2h0.5v0.2h-1.2v-0.2h0.5v-1.6c-0.1,0-0.2,0-0.3,0h-0.1v-0.2H59c0.1,0,0.1,0,0.2-0.1
	c0,0,0-0.1,0.1-0.1s0.1,0.1,0.1,0.2L59.4,112.2z"/>
<linearGradient id="SVGID_64_" gradientUnits="userSpaceOnUse" x1="61.265" y1="112.315" x2="61.265" y2="10.454">
	<stop  offset="0" style="stop-color:#A2DED7"/>
	<stop  offset="1" style="stop-color:#F1A3A7"/>
</linearGradient>
<path class="st63" d="M60.6,111.9c0-0.2,0.2-0.5,0.4-0.5c-0.2-0.1-0.3-0.3-0.3-0.5c0-0.2,0.2-0.5,0.6-0.5s0.6,0.3,0.6,0.5
	c0,0.2-0.1,0.4-0.3,0.5c0.2,0.1,0.4,0.3,0.4,0.5c0,0.4-0.4,0.7-0.8,0.6C60.9,112.4,60.6,112.2,60.6,111.9z M61.3,111.5
	c-0.2,0-0.5,0.1-0.5,0.4c0,0.2,0.2,0.4,0.5,0.4c0.2,0,0.5-0.2,0.5-0.4C61.7,111.6,61.5,111.5,61.3,111.5z M60.9,110.8
	c0,0.2,0.2,0.3,0.4,0.4c0.2-0.1,0.4-0.2,0.4-0.4s-0.2-0.3-0.4-0.3S60.9,110.6,60.9,110.8z"/>
<linearGradient id="SVGID_65_" gradientUnits="userSpaceOnUse" x1="63.3093" y1="112.315" x2="63.3093" y2="10.454">
	<stop  offset="0" style="stop-color:#A2DED7"/>
	<stop  offset="1" style="stop-color:#F1A3A7"/>
</linearGradient>
<path class="st64" d="M62.8,112.3H63c0.5,0,0.7-0.4,0.8-0.8c-0.2,0.3-0.6,0.3-0.9,0.1c-0.1-0.1-0.2-0.3-0.2-0.5
	c0-0.4,0.3-0.7,0.6-0.7c0,0,0,0,0,0c0.3,0,0.7,0.2,0.7,0.9s-0.3,1.2-1,1.2h-0.2L62.8,112.3z M62.9,111c0,0.2,0.2,0.4,0.4,0.4
	c0.2,0,0.4-0.2,0.4-0.4c0-0.3-0.2-0.5-0.4-0.5c0,0,0,0,0,0C63.1,110.6,62.9,110.8,62.9,111L62.9,111z"/>
<linearGradient id="SVGID_66_" gradientUnits="userSpaceOnUse" x1="65.2952" y1="112.315" x2="65.2952" y2="10.454">
	<stop  offset="0" style="stop-color:#A2DED7"/>
	<stop  offset="1" style="stop-color:#F1A3A7"/>
</linearGradient>
<path class="st65" d="M65.8,110.6h-0.8v0.5h0.2c0.4,0,0.7,0.2,0.7,0.6c0,0,0,0.1,0,0.1c0,0.4-0.3,0.8-0.8,0.8c0,0,0,0-0.1,0
	c-0.2,0-0.3,0-0.5-0.1l0.1-0.2c0.1,0.1,0.3,0.1,0.4,0.1c0.3,0,0.6-0.2,0.6-0.5c0,0,0,0,0-0.1c0-0.3-0.2-0.5-0.4-0.5c0,0,0,0-0.1,0
	c-0.1,0-0.3,0-0.4,0.1l0.1-0.9h1L65.8,110.6z"/>
<linearGradient id="SVGID_67_" gradientUnits="userSpaceOnUse" x1="67.44" y1="112.315" x2="67.44" y2="10.454">
	<stop  offset="0" style="stop-color:#A2DED7"/>
	<stop  offset="1" style="stop-color:#F1A3A7"/>
</linearGradient>
<path class="st66" d="M67,111.5v-0.2h0.9v0.2H67z"/>
<linearGradient id="SVGID_68_" gradientUnits="userSpaceOnUse" x1="69.44" y1="112.315" x2="69.44" y2="10.454">
	<stop  offset="0" style="stop-color:#A2DED7"/>
	<stop  offset="1" style="stop-color:#F1A3A7"/>
</linearGradient>
<path class="st67" d="M69.6,112.2H70v0.2h-1.1v-0.2h0.5v-1.6c-0.1,0-0.2,0-0.3,0h-0.1v-0.2h0.3c0.1,0,0.1,0,0.2-0.1
	c0,0,0.1-0.1,0.1-0.1c0.1,0,0.1,0.1,0.1,0.2L69.6,112.2z"/>
<linearGradient id="SVGID_69_" gradientUnits="userSpaceOnUse" x1="71.5244" y1="112.315" x2="71.5244" y2="10.454">
	<stop  offset="0" style="stop-color:#A2DED7"/>
	<stop  offset="1" style="stop-color:#F1A3A7"/>
</linearGradient>
<path class="st68" d="M71,112.3h0.2c0.4,0,0.7-0.4,0.8-0.8c-0.2,0.3-0.6,0.3-0.9,0c-0.1-0.1-0.2-0.3-0.2-0.5c0-0.4,0.3-0.7,0.6-0.7
	c0,0,0,0,0,0c0.3,0,0.7,0.2,0.7,0.9s-0.3,1.2-1,1.2H71V112.3z M71,111c0,0.2,0.1,0.5,0.4,0.5c0.2,0,0.5-0.1,0.5-0.4c0,0,0-0.1,0-0.1
	c0-0.2-0.1-0.5-0.4-0.5c-0.2,0-0.5,0.1-0.5,0.4C71,110.9,71,111,71,111z"/>
<linearGradient id="SVGID_70_" gradientUnits="userSpaceOnUse" x1="73.545" y1="112.315" x2="73.545" y2="10.454">
	<stop  offset="0" style="stop-color:#A2DED7"/>
	<stop  offset="1" style="stop-color:#F1A3A7"/>
</linearGradient>
<path class="st69" d="M74,111v0.7h0.3v0.2H74v0.3h0.3v0.2h-0.8v-0.2h0.3v-0.3h-1v-0.2c0.3-0.5,0.5-1,0.7-1.5l0.2,0.1
	c-0.1,0.5-0.4,1-0.7,1.4h0.8V111H74z"/>
<linearGradient id="SVGID_71_" gradientUnits="userSpaceOnUse" x1="75.5152" y1="112.315" x2="75.5152" y2="10.454">
	<stop  offset="0" style="stop-color:#A2DED7"/>
	<stop  offset="1" style="stop-color:#F1A3A7"/>
</linearGradient>
<path class="st70" d="M76.1,110.6h-0.8v0.5h0.2c0.4,0,0.7,0.2,0.7,0.6c0,0,0,0.1,0,0.1c0,0.4-0.3,0.8-0.8,0.8c0,0,0,0-0.1,0
	c-0.2,0-0.3,0-0.5-0.1v-0.2c0.1,0.1,0.3,0.1,0.4,0.1c0.3,0,0.6-0.2,0.6-0.5c0,0,0,0,0-0.1c0-0.3-0.2-0.5-0.4-0.5c0,0,0,0-0.1,0
	c-0.1,0-0.3,0-0.4,0.1l0.1-0.9h1L76.1,110.6z"/>
<linearGradient id="SVGID_72_" gradientUnits="userSpaceOnUse" x1="32.8429" y1="112.315" x2="32.8429" y2="10.454">
	<stop  offset="0" style="stop-color:#A2DED7"/>
	<stop  offset="1" style="stop-color:#F1A3A7"/>
</linearGradient>
<path class="st71" d="M37,91.6c0,0.9,0,1.8-0.1,2.7c-0.1,0.7-0.7,1.2-1.4,1.2c-1.7,0-3.4,0-5,0.1c-0.4,0-0.8,0-1.2,0
	c-0.6-0.1-0.8-0.2-0.7-0.9c0.1-1,0.2-2,0.2-2.9c0-0.6,0-1.1,0-1.7c0-0.5,0.4-0.9,0.9-1c1.9-0.2,3.8-0.2,5.7-0.2c0.4,0,0.8,0,1.1,0
	c0.4-0.1,0.5,0.3,0.5,0.6C37,90.3,37.1,91,37,91.6z M32.3,91.2c-0.1-1.2,0.2-1.2-1.2-1s-1.2,0.2-1.1,1.6c0,0.3,0.1,0.4,0.4,0.3
	c0.4-0.1,0.8-0.1,1.1-0.1C32.3,91.9,32.3,91.9,32.3,91.2L32.3,91.2z M34.8,89.9c-0.2,0-0.3,0-0.5,0c-0.9,0.1-0.9,0.1-0.8,0.9
	c0,1,0,1,1.1,0.9s0.9-0.1,1-1S35.7,89.8,34.8,89.9L34.8,89.9z M34.3,94.3c1,0,1,0,1-0.9c0-0.1,0-0.2,0-0.3c0-0.2-0.1-0.3-0.3-0.3
	c-0.4,0.1-0.8,0.1-1.2,0.1s-0.3,0.1-0.4,0.4C33.4,94.3,33.4,94.3,34.3,94.3L34.3,94.3z M30.9,94.3L30.9,94.3c0.3,0,0.6,0,0.8-0.1
	c0.5-0.1,0.4-0.6,0.4-0.9s-0.3-0.2-0.5-0.2c-0.4,0-0.9,0.1-1.3,0.1c-0.2,0-0.3,0.1-0.3,0.3c-0.1,0.7,0,0.8,0.7,0.8H30.9z"/>
<linearGradient id="SVGID_73_" gradientUnits="userSpaceOnUse" x1="32.8432" y1="112.315" x2="32.8432" y2="10.454">
	<stop  offset="0" style="stop-color:#A2DED7"/>
	<stop  offset="1" style="stop-color:#F1A3A7"/>
</linearGradient>
<path class="st72" d="M32.6,96.9c1.2,0,2.5,0,3.7-0.2c0.4,0,0.8,0.1,1.2,0.3c0.1,0.1,0.2,0.2,0.2,0.3c0,0.2-0.1,0.3-0.3,0.3
	c-0.2,0-0.5,0.1-0.7,0.1c-1.8,0.2-3.6,0.3-5.4,0.3c-0.6,0-1.3,0-1.9,0.1c-0.3,0.1-0.7,0-1-0.2C28.2,98,28,97.8,28,97.5
	c0-0.3,0.3-0.4,0.5-0.4c0.8-0.1,1.6-0.2,2.4-0.2C31.5,97,32.1,96.9,32.6,96.9z"/>
<linearGradient id="SVGID_74_" gradientUnits="userSpaceOnUse" x1="44.2917" y1="112.315" x2="44.2917" y2="10.454">
	<stop  offset="0" style="stop-color:#A2DED7"/>
	<stop  offset="1" style="stop-color:#F1A3A7"/>
</linearGradient>
<path class="st73" d="M45.2,83.8c-0.8,0.7-1.5,1.4-2.2,2s-1.4,1-1.7,0.5s0-1.2,0.8-2c1-1,2.1-1.9,3.1-2.8c0.5-0.5,1.1-0.8,1.8-0.8
	c0.7,0.1,0.6,0.6-0.2,1.4C46.3,82.8,45.7,83.3,45.2,83.8L45.2,83.8z"/>
<linearGradient id="SVGID_75_" gradientUnits="userSpaceOnUse" x1="45.1833" y1="112.315" x2="45.1833" y2="10.454">
	<stop  offset="0" style="stop-color:#A2DED7"/>
	<stop  offset="1" style="stop-color:#F1A3A7"/>
</linearGradient>
<path class="st74" d="M46.1,89.6c0,1.7,0,3.4-0.1,5c-0.1,1.4-0.3,2.8-0.8,2.6s-0.8-1.5-0.8-3.3c0-2.3,0.1-4.7,0.2-7
	c-0.1-1,0.2-2.1,0.7-3c0.5-0.7,0.8,0,0.9,1.9C46,87.1,46,88.4,46.1,89.6L46.1,89.6z"/>
<linearGradient id="SVGID_76_" gradientUnits="userSpaceOnUse" x1="51.5617" y1="112.315" x2="51.5617" y2="10.454">
	<stop  offset="0" style="stop-color:#A2DED7"/>
	<stop  offset="1" style="stop-color:#F1A3A7"/>
</linearGradient>
<path class="st75" d="M52.5,83.8c-0.8,0.7-1.5,1.4-2.2,2s-1.4,1-1.7,0.5s0-1.2,0.8-2c1-1,2.1-1.9,3.1-2.8c0.5-0.5,1.1-0.8,1.8-0.8
	c0.7,0.1,0.6,0.6-0.2,1.4C53.5,82.7,53,83.3,52.5,83.8C52.4,83.8,52.5,83.8,52.5,83.8z"/>
<linearGradient id="SVGID_77_" gradientUnits="userSpaceOnUse" x1="55.2329" y1="112.315" x2="55.2329" y2="10.454">
	<stop  offset="0" style="stop-color:#A2DED7"/>
	<stop  offset="1" style="stop-color:#F1A3A7"/>
</linearGradient>
<path class="st76" d="M55.7,84.7c-1,0-2,0-3-0.1s-1.7-0.3-1.6-0.8s0.9-0.9,2-0.9c1.4,0,2.8,0.1,4.2,0.1c0.7-0.1,1.3,0.2,1.8,0.6
	c0.4,0.5,0,0.9-1.1,0.9C57.3,84.6,56.5,84.6,55.7,84.7L55.7,84.7z"/>
<linearGradient id="SVGID_78_" gradientUnits="userSpaceOnUse" x1="54.339" y1="112.315" x2="54.339" y2="10.454">
	<stop  offset="0" style="stop-color:#A2DED7"/>
	<stop  offset="1" style="stop-color:#F1A3A7"/>
</linearGradient>
<path class="st77" d="M55.2,89.9c0,1.7-0.1,3.4-0.2,5c-0.1,1.4-0.3,2.8-0.8,2.6s-0.8-1.5-0.8-3.3c0-2.3,0.1-4.7,0.2-7
	c-0.1-1,0.2-2.1,0.7-3c0.5-0.7,0.8,0,0.9,1.9C55.2,87.3,55.2,88.6,55.2,89.9L55.2,89.9z"/>
<linearGradient id="SVGID_79_" gradientUnits="userSpaceOnUse" x1="56.3529" y1="112.315" x2="56.3529" y2="10.454">
	<stop  offset="0" style="stop-color:#A2DED7"/>
	<stop  offset="1" style="stop-color:#F1A3A7"/>
</linearGradient>
<path class="st78" d="M56.7,90.5c-0.6,0-1.2,0-1.7-0.1s-1-0.3-0.9-0.8s0.5-0.8,1.1-0.8c0.8,0,1.6,0.1,2.4,0.1c0.4,0,0.8,0.3,1,0.7
	c0.2,0.5,0,0.8-0.7,0.9C57.5,90.4,57.1,90.4,56.7,90.5C56.7,90.5,56.7,90.5,56.7,90.5z"/>
<linearGradient id="SVGID_80_" gradientUnits="userSpaceOnUse" x1="56.3529" y1="112.315" x2="56.3529" y2="10.454">
	<stop  offset="0" style="stop-color:#A2DED7"/>
	<stop  offset="1" style="stop-color:#F1A3A7"/>
</linearGradient>
<path class="st79" d="M56.7,94c-0.6,0-1.2,0-1.7-0.1s-1-0.3-0.9-0.8s0.5-0.8,1.1-0.8c0.8,0,1.6,0.1,2.4,0.1c0.4,0,0.8,0.3,1,0.7
	c0.2,0.5,0,0.9-0.7,0.9C57.5,93.9,57.1,93.9,56.7,94C56.7,94,56.7,94,56.7,94z"/>
<linearGradient id="SVGID_81_" gradientUnits="userSpaceOnUse" x1="68.2422" y1="112.315" x2="68.2422" y2="10.454">
	<stop  offset="0" style="stop-color:#A2DED7"/>
	<stop  offset="1" style="stop-color:#F1A3A7"/>
</linearGradient>
<path class="st80" d="M68.7,86c-1,0-2,0-3-0.1s-1.7-0.2-1.6-0.8s0.9-0.9,2-0.8c1.4,0,2.8,0.1,4.2,0.1c0.7-0.1,1.3,0.2,1.8,0.7
	c0.4,0.5,0,0.8-1.1,0.9C70.3,85.9,69.5,85.9,68.7,86C68.7,85.9,68.7,86,68.7,86z"/>
<linearGradient id="SVGID_82_" gradientUnits="userSpaceOnUse" x1="68.2308" y1="112.315" x2="68.2308" y2="10.454">
	<stop  offset="0" style="stop-color:#A2DED7"/>
	<stop  offset="1" style="stop-color:#F1A3A7"/>
</linearGradient>
<path class="st81" d="M69.3,89.7c-0.9,1.2-1.8,2.3-2.7,3.4s-1.6,1.8-2,1.4s0.1-1.5,1.1-2.8c1.2-1.6,2.5-3.2,3.7-4.9
	c0.5-0.8,1.2-1.4,2.1-1.7c0.8-0.2,0.7,0.5-0.3,1.9C70.6,87.9,69.9,88.8,69.3,89.7L69.3,89.7z"/>
<linearGradient id="SVGID_83_" gradientUnits="userSpaceOnUse" x1="68.6049" y1="112.315" x2="68.6049" y2="10.454">
	<stop  offset="0" style="stop-color:#A2DED7"/>
	<stop  offset="1" style="stop-color:#F1A3A7"/>
</linearGradient>
<path class="st82" d="M69.3,95.9c-1.6-0.2-3.3-0.4-4.8-0.7c-1.4-0.2-2.6-0.6-2.4-1.1s1.5-0.7,3.4-0.4c2.3,0.3,4.5,0.7,6.8,1
	c1,0,2,0.4,2.8,1c0.6,0.6-0.2,0.8-2,0.7C71.8,96.1,70.5,95.9,69.3,95.9C69.3,95.8,69.3,95.8,69.3,95.9z"/>
<linearGradient id="SVGID_84_" gradientUnits="userSpaceOnUse" x1="68.6" y1="112.315" x2="68.6" y2="10.454">
	<stop  offset="0" style="stop-color:#A2DED7"/>
	<stop  offset="1" style="stop-color:#F1A3A7"/>
</linearGradient>
<path class="st83" d="M69.5,79.9c0,0.5-0.1,1-0.1,1.5c-0.1,0.4-0.3,0.8-0.8,0.8c-0.5,0-0.8-0.4-0.8-0.9c0,0,0-0.1,0-0.1
	c0-0.7,0.1-1.4,0.2-2.1c0-0.4,0.3-0.8,0.7-0.9c0.5-0.2,0.8,0,0.9,0.6C69.5,79.2,69.5,79.5,69.5,79.9L69.5,79.9z"/>
<linearGradient id="SVGID_85_" gradientUnits="userSpaceOnUse" x1="79.5184" y1="112.315" x2="79.5184" y2="10.454">
	<stop  offset="0" style="stop-color:#A2DED7"/>
	<stop  offset="1" style="stop-color:#F1A3A7"/>
</linearGradient>
<path class="st84" d="M80.3,86.2c-0.6,0.6-1.2,1.2-1.9,1.7s-1.1,0.8-1.4,0.4s0-1,0.7-1.6c0.8-0.8,1.7-1.6,2.6-2.4
	c0.4-0.4,0.9-0.6,1.5-0.7c0.5,0.1,0.5,0.5-0.2,1.2C81.2,85.3,80.7,85.7,80.3,86.2C80.2,86.2,80.3,86.2,80.3,86.2z"/>
<linearGradient id="SVGID_86_" gradientUnits="userSpaceOnUse" x1="80.2594" y1="112.315" x2="80.2594" y2="10.454">
	<stop  offset="0" style="stop-color:#A2DED7"/>
	<stop  offset="1" style="stop-color:#F1A3A7"/>
</linearGradient>
<path class="st85" d="M81,91c0,1.4,0,2.8-0.1,4.2c-0.1,1.2-0.2,2.3-0.7,2.2s-0.7-1.2-0.7-2.8c0-2,0.1-3.9,0.2-5.8
	c-0.1-0.9,0.1-1.7,0.6-2.5c0.4-0.6,0.7,0,0.7,1.6C81,88.8,81,89.9,81,91L81,91z"/>
<linearGradient id="SVGID_87_" gradientUnits="userSpaceOnUse" x1="91.3596" y1="112.315" x2="91.3596" y2="10.454">
	<stop  offset="0" style="stop-color:#A2DED7"/>
	<stop  offset="1" style="stop-color:#F1A3A7"/>
</linearGradient>
<path class="st86" d="M91.1,86.1c-0.3-0.4-0.7-0.8-1-1.2s-0.4-0.8,0-1c0.4-0.2,0.9-0.1,1.2,0.3c0.5,0.6,0.9,1.1,1.4,1.7
	c0.3,0.3,0.4,0.7,0.2,1.1c-0.2,0.4-0.5,0.5-0.9,0.1S91.4,86.4,91.1,86.1L91.1,86.1z"/>
<linearGradient id="SVGID_88_" gradientUnits="userSpaceOnUse" x1="88.1042" y1="112.315" x2="88.1042" y2="10.454">
	<stop  offset="0" style="stop-color:#A2DED7"/>
	<stop  offset="1" style="stop-color:#F1A3A7"/>
</linearGradient>
<path class="st87" d="M88.4,86.2c-0.7,0-1.4,0-2,0s-1.1-0.2-1.1-0.6s0.6-0.7,1.3-0.7c1,0,1.9,0,2.9,0c0.5,0,0.9,0.2,1.2,0.5
	c0.3,0.4,0,0.7-0.8,0.8C89.5,86.1,89,86.1,88.4,86.2L88.4,86.2z"/>
<linearGradient id="SVGID_89_" gradientUnits="userSpaceOnUse" x1="86.1785" y1="112.315" x2="86.1785" y2="10.454">
	<stop  offset="0" style="stop-color:#A2DED7"/>
	<stop  offset="1" style="stop-color:#F1A3A7"/>
</linearGradient>
<path class="st88" d="M86,83.6c-0.4-0.3-0.8-0.7-1.2-1s-0.5-0.7-0.2-1s0.8-0.3,1.2,0.1s1.1,0.9,1.6,1.4c0.3,0.2,0.5,0.6,0.4,1
	c-0.1,0.5-0.4,0.6-0.9,0.2S86.3,83.8,86,83.6L86,83.6z"/>
<linearGradient id="SVGID_90_" gradientUnits="userSpaceOnUse" x1="79.5195" y1="112.315" x2="79.5195" y2="10.454">
	<stop  offset="0" style="stop-color:#A2DED7"/>
	<stop  offset="1" style="stop-color:#F1A3A7"/>
</linearGradient>
<path class="st89" d="M80.2,81.2c-0.4,0.4-0.8,0.8-1.3,1.1s-0.8,0.5-1.1,0.1s-0.1-0.8,0.3-1.3s1.2-1,1.8-1.6
	c0.3-0.3,0.7-0.4,1.1-0.3c0.5,0.1,0.5,0.5,0.1,1C80.8,80.6,80.5,80.9,80.2,81.2L80.2,81.2z"/>
<linearGradient id="SVGID_91_" gradientUnits="userSpaceOnUse" x1="87.9713" y1="112.315" x2="87.9713" y2="10.454">
	<stop  offset="0" style="stop-color:#A2DED7"/>
	<stop  offset="1" style="stop-color:#F1A3A7"/>
</linearGradient>
<path class="st90" d="M88.8,83.6c-0.7,0.6-1.3,1.2-2,1.8s-1.2,0.8-1.5,0.5s0.1-1.1,0.8-1.7c0.9-0.8,1.8-1.7,2.7-2.5
	c0.4-0.4,0.9-0.7,1.5-0.7c0.6,0,0.5,0.5-0.2,1.2C89.7,82.7,89.1,83.1,88.8,83.6L88.8,83.6z"/>
<linearGradient id="SVGID_92_" gradientUnits="userSpaceOnUse" x1="86.1376" y1="112.315" x2="86.1376" y2="10.454">
	<stop  offset="0" style="stop-color:#A2DED7"/>
	<stop  offset="1" style="stop-color:#F1A3A7"/>
</linearGradient>
<path class="st91" d="M86.8,80.9c-0.4,0.4-0.8,0.8-1.3,1.1s-0.8,0.5-1.1,0.1s-0.1-0.8,0.3-1.3s1.2-1,1.8-1.6
	c0.3-0.3,0.7-0.4,1.1-0.3c0.5,0.2,0.5,0.5,0,1S87,80.6,86.8,80.9C86.8,80.8,86.8,80.9,86.8,80.9z"/>
<linearGradient id="SVGID_93_" gradientUnits="userSpaceOnUse" x1="86.0376" y1="112.315" x2="86.0376" y2="10.454">
	<stop  offset="0" style="stop-color:#A2DED7"/>
	<stop  offset="1" style="stop-color:#F1A3A7"/>
</linearGradient>
<path class="st92" d="M86.7,90.5c-0.4,0.4-0.8,0.8-1.3,1.1s-0.8,0.5-1.1,0.1s-0.1-0.8,0.3-1.3s1.2-1,1.8-1.6
	c0.3-0.3,0.7-0.4,1.1-0.3c0.5,0.1,0.5,0.5,0,1C87.3,89.9,86.9,90.2,86.7,90.5L86.7,90.5z"/>
<linearGradient id="SVGID_94_" gradientUnits="userSpaceOnUse" x1="88.8842" y1="112.315" x2="88.8842" y2="10.454">
	<stop  offset="0" style="stop-color:#A2DED7"/>
	<stop  offset="1" style="stop-color:#F1A3A7"/>
</linearGradient>
<path class="st93" d="M89.2,91.2c-0.7,0-1.4,0-2,0s-1.1-0.2-1.1-0.6s0.6-0.7,1.3-0.7c1,0,1.9,0,2.9,0c0.5,0,0.9,0.2,1.2,0.5
	c0.3,0.4,0,0.7-0.8,0.8C90.3,91.1,89.8,91.1,89.2,91.2C89.2,91.1,89.2,91.1,89.2,91.2z"/>
<linearGradient id="SVGID_95_" gradientUnits="userSpaceOnUse" x1="88.6075" y1="112.315" x2="88.6075" y2="10.454">
	<stop  offset="0" style="stop-color:#A2DED7"/>
	<stop  offset="1" style="stop-color:#F1A3A7"/>
</linearGradient>
<path class="st94" d="M89.4,93.9c-0.8,0.8-1.5,1.7-2.3,2.4s-1.4,1.2-1.7,0.9s0.1-1.2,1-2.1c1.1-1.2,2.2-2.3,3.2-3.4
	c0.4-0.6,1.1-1,1.8-1.1c0.6,0,0.5,0.5-0.3,1.5C90.6,92.6,90,93.2,89.4,93.9L89.4,93.9z"/>
<linearGradient id="SVGID_96_" gradientUnits="userSpaceOnUse" x1="89.6005" y1="112.315" x2="89.6005" y2="10.454">
	<stop  offset="0" style="stop-color:#A2DED7"/>
	<stop  offset="1" style="stop-color:#F1A3A7"/>
</linearGradient>
<path class="st95" d="M89.8,95c-1.1-0.8-2.2-1.6-3.2-2.5s-1.7-1.5-1.3-1.8s1.4,0.1,2.6,1c1.5,1.2,3,2.3,4.5,3.5
	c0.7,0.5,1.3,1.1,1.6,1.9c0.2,0.7-0.4,0.6-1.7-0.3C91.5,96.2,90.6,95.5,89.8,95C89.8,95,89.8,95,89.8,95z"/>
<linearGradient id="SVGID_97_" gradientUnits="userSpaceOnUse" x1="33.0101" y1="112.315" x2="33.0101" y2="10.454">
	<stop  offset="0" style="stop-color:#A2DED7"/>
	<stop  offset="1" style="stop-color:#F1A3A7"/>
</linearGradient>
<path class="st96" d="M33.4,80.1c-0.7,0-1.5,0-2.2-0.1s-1.2-0.2-1.1-0.6s0.6-0.6,1.4-0.6c1,0,2,0,3.1,0.1c0.5,0,1,0.1,1.3,0.5
	c0.3,0.4,0,0.6-0.8,0.7C34.5,80.1,33.9,80.1,33.4,80.1L33.4,80.1z"/>
<linearGradient id="SVGID_98_" gradientUnits="userSpaceOnUse" x1="32.8851" y1="112.315" x2="32.8851" y2="10.454">
	<stop  offset="0" style="stop-color:#A2DED7"/>
	<stop  offset="1" style="stop-color:#F1A3A7"/>
</linearGradient>
<path class="st97" d="M33.2,84.2c-0.7,0-1.5,0-2.2-0.1s-1.2-0.2-1.1-0.6s0.6-0.6,1.4-0.6c1,0,2,0,3.1,0.1c0.5,0,1,0.1,1.3,0.5
	c0.3,0.4,0,0.6-0.8,0.7C34.4,84.2,33.8,84.2,33.2,84.2L33.2,84.2z"/>
<linearGradient id="SVGID_99_" gradientUnits="userSpaceOnUse" x1="33.2983" y1="112.315" x2="33.2983" y2="10.454">
	<stop  offset="0" style="stop-color:#A2DED7"/>
	<stop  offset="1" style="stop-color:#F1A3A7"/>
</linearGradient>
<path class="st98" d="M34.2,82.2c-1.8,0-3.6,0-5.4,0c-1.5,0-3-0.2-2.8-0.5s1.6-0.6,3.6-0.7c2.5,0,5.1,0,7.6,0
	c1.1-0.1,2.2,0.1,3.2,0.4c0.7,0.4,0,0.6-2.1,0.7C37,82.2,35.6,82.2,34.2,82.2C34.2,82.2,34.2,82.2,34.2,82.2z"/>
<linearGradient id="SVGID_100_" gradientUnits="userSpaceOnUse" x1="35.5398" y1="112.315" x2="35.5398" y2="10.454">
	<stop  offset="0" style="stop-color:#A2DED7"/>
	<stop  offset="1" style="stop-color:#F1A3A7"/>
</linearGradient>
<path class="st99" d="M34.9,82c0-0.6,0-1.2,0-1.8s0.2-1,0.5-0.9s0.6,0.5,0.7,1.1c0,0.8,0,1.6,0,2.5c0.1,0.4-0.1,0.8-0.4,1.1
	c-0.4,0.3-0.6,0-0.7-0.6C35,82.9,35,82.5,34.9,82L34.9,82z"/>
<linearGradient id="SVGID_101_" gradientUnits="userSpaceOnUse" x1="32.8756" y1="112.315" x2="32.8756" y2="10.454">
	<stop  offset="0" style="stop-color:#A2DED7"/>
	<stop  offset="1" style="stop-color:#F1A3A7"/>
</linearGradient>
<path class="st100" d="M32.1,83.4c0-1.3-0.1-2.7,0-4c0-1.1,0.2-2.2,0.6-2.1s0.8,1.1,0.9,2.6c0,1.9,0.1,3.7,0.1,5.6
	c0.1,0.8-0.1,1.7-0.5,2.4c-0.4,0.6-0.8,0-0.9-1.5C32.2,85.4,32.2,84.4,32.1,83.4L32.1,83.4z"/>
<linearGradient id="SVGID_102_" gradientUnits="userSpaceOnUse" x1="33.0089" y1="112.315" x2="33.0089" y2="10.454">
	<stop  offset="0" style="stop-color:#A2DED7"/>
	<stop  offset="1" style="stop-color:#F1A3A7"/>
</linearGradient>
<path class="st101" d="M33.5,88.2c-1,0-2.1,0-3.1,0s-1.7-0.2-1.7-0.6s0.9-0.6,2.1-0.6c1.5,0,2.9,0,4.4,0c0.7-0.1,1.3,0.1,1.9,0.5
	c0.4,0.4,0,0.6-1.2,0.7C35.1,88.2,34.3,88.2,33.5,88.2L33.5,88.2z"/>
<linearGradient id="SVGID_103_" gradientUnits="userSpaceOnUse" x1="33.166" y1="112.315" x2="33.166" y2="10.454">
	<stop  offset="0" style="stop-color:#A2DED7"/>
	<stop  offset="1" style="stop-color:#F1A3A7"/>
</linearGradient>
<path class="st102" d="M33.6,86.1c-0.8,0-1.6,0-2.4,0s-1.3-0.2-1.3-0.6s0.7-0.6,1.6-0.6c1.1,0,2.2,0,3.3,0c0.5,0,1,0.1,1.4,0.5
	c0.3,0.4,0,0.6-0.9,0.7C34.8,86,34.2,86,33.6,86.1C33.6,86.1,33.6,86.1,33.6,86.1z"/>
</svg>
