<?xml version="1.0" encoding="utf-8"?>
<!-- Generator: Adobe Illustrator 23.0.4, SVG Export Plug-In . SVG Version: 6.00 Build 0)  -->
<svg version="1.1" id="圖層_1" xmlns="http://www.w3.org/2000/svg" xmlns:xlink="http://www.w3.org/1999/xlink" x="0px" y="0px"
	 viewBox="0 0 120 120" style="enable-background:new 0 0 120 120;" xml:space="preserve">
<style type="text/css">
	.st0{fill:url(#SVGID_1_);}
	.st1{fill:url(#SVGID_2_);}
	.st2{fill:url(#SVGID_3_);}
	.st3{fill:url(#SVGID_4_);}
	.st4{fill:url(#SVGID_5_);}
	.st5{fill:url(#SVGID_6_);}
	.st6{opacity:0.5;fill:url(#SVGID_7_);}
	.st7{fill:#FFFFFF;}
	.st8{fill:url(#SVGID_8_);}
	.st9{fill:url(#SVGID_9_);}
	.st10{fill:url(#SVGID_10_);}
	.st11{fill:url(#SVGID_11_);}
	.st12{fill:url(#SVGID_12_);}
	.st13{fill:url(#SVGID_13_);}
	.st14{fill:url(#SVGID_14_);}
	.st15{fill:url(#SVGID_15_);}
	.st16{fill:url(#SVGID_16_);}
	.st17{fill:url(#SVGID_17_);}
	.st18{fill:url(#SVGID_18_);}
	.st19{fill:url(#SVGID_19_);}
	.st20{fill:url(#SVGID_20_);}
	.st21{fill:url(#SVGID_21_);}
	.st22{fill:url(#SVGID_22_);}
	.st23{fill:url(#SVGID_23_);}
	.st24{fill:url(#SVGID_24_);}
	.st25{fill:url(#SVGID_25_);}
	.st26{fill:url(#SVGID_26_);}
	.st27{fill:url(#SVGID_27_);}
	.st28{fill:url(#SVGID_28_);}
	.st29{fill:url(#SVGID_29_);}
	.st30{fill:url(#SVGID_30_);}
	.st31{fill:url(#SVGID_31_);}
	.st32{fill:url(#SVGID_32_);}
	.st33{fill:url(#SVGID_33_);}
	.st34{fill:url(#SVGID_34_);}
	.st35{fill:url(#SVGID_35_);}
	.st36{fill:url(#SVGID_36_);}
	.st37{fill:url(#SVGID_37_);}
	.st38{fill:url(#SVGID_38_);}
	.st39{fill:url(#SVGID_39_);}
	.st40{fill:url(#SVGID_40_);}
	.st41{fill:url(#SVGID_41_);}
	.st42{fill:url(#SVGID_42_);}
	.st43{fill:url(#SVGID_43_);}
	.st44{fill:url(#SVGID_44_);}
	.st45{fill:url(#SVGID_45_);}
	.st46{fill:url(#SVGID_46_);}
	.st47{fill:url(#SVGID_47_);}
	.st48{fill:url(#SVGID_48_);}
	.st49{fill:url(#SVGID_49_);}
	.st50{fill:url(#SVGID_50_);}
	.st51{fill:url(#SVGID_51_);}
	.st52{fill:url(#SVGID_52_);}
	.st53{fill:url(#SVGID_53_);}
	.st54{fill:url(#SVGID_54_);}
	.st55{fill:url(#SVGID_55_);}
	.st56{fill:url(#SVGID_56_);}
	.st57{fill:url(#SVGID_57_);}
	.st58{fill:url(#SVGID_58_);}
	.st59{fill:url(#SVGID_59_);}
	.st60{fill:url(#SVGID_60_);}
	.st61{fill:url(#SVGID_61_);}
	.st62{fill:url(#SVGID_62_);}
	.st63{fill:url(#SVGID_63_);}
	.st64{fill:url(#SVGID_64_);}
	.st65{fill:url(#SVGID_65_);}
	.st66{fill:url(#SVGID_66_);}
	.st67{fill:url(#SVGID_67_);}
	.st68{fill:url(#SVGID_68_);}
	.st69{fill:url(#SVGID_69_);}
	.st70{fill:url(#SVGID_70_);}
	.st71{fill:url(#SVGID_71_);}
	.st72{fill:url(#SVGID_72_);}
	.st73{fill:url(#SVGID_73_);}
	.st74{fill:url(#SVGID_74_);}
	.st75{fill:url(#SVGID_75_);}
	.st76{fill:url(#SVGID_76_);}
	.st77{fill:url(#SVGID_77_);}
	.st78{fill:url(#SVGID_78_);}
	.st79{fill:url(#SVGID_79_);}
	.st80{fill:url(#SVGID_80_);}
	.st81{fill:url(#SVGID_81_);}
	.st82{fill:url(#SVGID_82_);}
	.st83{fill:url(#SVGID_83_);}
	.st84{fill:url(#SVGID_84_);}
	.st85{fill:url(#SVGID_85_);}
	.st86{fill:url(#SVGID_86_);}
	.st87{fill:url(#SVGID_87_);}
	.st88{fill:url(#SVGID_88_);}
	.st89{fill:url(#SVGID_89_);}
	.st90{fill:url(#SVGID_90_);}
	.st91{fill:url(#SVGID_91_);}
	.st92{fill:url(#SVGID_92_);}
	.st93{fill:url(#SVGID_93_);}
	.st94{fill:url(#SVGID_94_);}
	.st95{fill:url(#SVGID_95_);}
	.st96{fill:url(#SVGID_96_);}
	.st97{fill:url(#SVGID_97_);}
	.st98{fill:url(#SVGID_98_);}
	.st99{fill:url(#SVGID_99_);}
	.st100{fill:url(#SVGID_100_);}
	.st101{fill:url(#SVGID_101_);}
	.st102{fill:url(#SVGID_102_);}
	.st103{fill:url(#SVGID_103_);}
	.st104{fill:url(#SVGID_104_);}
	.st105{fill:url(#SVGID_105_);}
	.st106{fill:url(#SVGID_106_);}
	.st107{fill:url(#SVGID_107_);}
	.st108{fill:url(#SVGID_108_);}
	.st109{fill:url(#SVGID_109_);}
	.st110{fill:url(#SVGID_110_);}
	.st111{fill:url(#SVGID_111_);}
	.st112{fill:url(#SVGID_112_);}
	.st113{fill:url(#SVGID_113_);}
	.st114{fill:url(#SVGID_114_);}
	.st115{fill:url(#SVGID_115_);}
	.st116{fill:url(#SVGID_116_);}
</style>
<title>網頁logo</title>
<linearGradient id="SVGID_1_" gradientUnits="userSpaceOnUse" x1="60.0474" y1="8.3535" x2="60.0474" y2="108.6511">
	<stop  offset="0" style="stop-color:#A2DED7"/>
	<stop  offset="1" style="stop-color:#F1A3A7"/>
</linearGradient>
<path class="st0" d="M88.1,110.6H32.5c-0.7,0-0.6,0.1-0.6-0.6v-4.4c0-0.4,0-0.4,0.4-0.4c0.4,0,0.8,0,1.2,0c0.2,0,0.3-0.1,0.3-0.2
	c0-0.1,0-0.2,0-0.3V90.8c0-0.2,0-0.4,0-0.6c0.1-0.6,0.1-1.3,0-1.9c0-0.2,0-0.3,0-0.5V49.9c0-0.2,0-0.3,0-0.5c0-0.2,0-0.4,0-0.6
	c0-1.5,0-3,0-4.4c0-0.2,0-0.5,0-0.7c0.1-2,0.5-3.9,1.2-5.8c0.9-2.5,2.2-4.9,4-6.9c1.7-2,3.7-3.7,6-5.1c1.9-1.2,4-2.1,6.2-2.8
	c1.5-0.5,3.1-0.8,4.7-1.1c0.8-0.1,1.5-0.2,2.3-0.2c0.4,0,0.9-0.1,1.3-0.1c0.2,0,0.2-0.1,0.2-0.3v-3c0-0.4,0-0.4,0.5-0.4
	c0.4,0,0.8-0.1,1.2-0.2c1.4-0.5,2.4-1.9,2.4-3.4c0-2-1.6-3.7-3.7-3.8c-1.4-0.1-2.7,0.7-3.4,1.9c-0.3,0.5-0.5,1.1-0.5,1.7
	c0,0.5,0,0.4-0.4,0.5c-0.6,0.1-0.5,0.1-0.5-0.5c0-1,0.3-1.9,0.9-2.7c0.6-0.9,1.6-1.6,2.8-1.8c2-0.6,4.1,0.3,5.1,2.2
	c1.3,2.2,0.6,5.1-1.6,6.4c-0.4,0.3-0.9,0.5-1.5,0.6c-0.3,0.1-0.3,0.1-0.3,0.4c0,0.8,0,1.5,0,2.2c-0.1,0.2,0,0.2,0.2,0.2
	c0.4,0,0.8,0.1,1.2,0.1c1.3,0.1,2.5,0.2,3.8,0.5c2.8,0.5,5.6,1.5,8.1,2.9c1.8,1,3.5,2.2,5.1,3.6c1.3,1.2,2.5,2.5,3.5,4
	c0.1,0.1,0.1,0.3,0.3,0.3l0,0c0,0.2,0.1,0.4,0.2,0.5c1.9,2.9,2.9,6.3,3.1,9.8c0,0.1,0,0.2,0.1,0.2V44c0,0.1,0,0.3,0,0.4v9.8
	c0,0.1,0,0.3,0,0.4c0,0.1,0,0.3,0,0.4v24c0,0.1,0,0.3,0,0.4c0,0.1,0,0.3,0,0.4v25c0,0.1,0,0.2,0,0.3c0,0.1,0.1,0.1,0.2,0h1.7
	c0,0.2,0,0.3,0,0.5c0,1.2,0,2.4,0,3.5C88.1,109.7,88.2,110.1,88.1,110.6z M35.4,91.1c-0.1,0.3-0.1,0.7,0,1c0,3.5,0,6.9,0,10.4
	c0,0.8,0,1.6,0,2.5c0,0.3,0,0.3,0.3,0.3h10c0.2,0,0.4-0.1,0.6-0.2c0.2-0.2,0.4-0.4,0.6-0.5c0.8-0.4,1.5-0.8,2.3-1.2
	c0.6-0.3,1.1-0.6,1.6-1c0.3-0.4,0.7-0.7,1.1-1l1.7-1.2c0.3-0.2,0.6-0.4,0.9-0.7l0.7-0.4c0.4-0.3,0.9-0.5,1-1.1c0,0,0.1-0.1,0.1-0.1
	c0.2-0.4,0.5-0.7,0.9-0.9c0.7-0.5,1.1-1.2,1.4-2c0.3-1,0.6-2.1,1-3.1c0.6-1.5,1.7-2.8,3-3.8c1.2-0.9,2.6-1.6,4.1-1.9
	c0.4,0,0.7-0.4,0.7-0.8c0.1-0.6,0.2-1.1,0.3-1.6c0.1-0.5,0.1-1,0-1.5c-0.2-1-0.5-1.9-1-2.8c-0.5-1-0.9-2.1-1.2-3.1c-0.3-1-0.6-2-1-3
	c-0.5-1.3-1-2.6-1.7-3.8c-0.7-1.7-2.2-2.8-4-3.1c-0.7-0.1-1.5-0.2-2.2-0.3c-1.4-0.2-2.7-0.5-4-1c-1-0.4-1.9-1-2.6-1.8
	c-0.6-0.6-0.8-1.5-0.6-2.3c0.2-0.9,0.6-1.6,1.2-2.3c0.1-0.1,0.3-0.3,0.4-0.4c0.1-0.2,0.1-0.4,0.1-0.6c-0.1-0.6-0.4-1.2-0.8-1.6
	c-0.3-0.2-0.3-0.4-0.1-0.7c0.3-0.5,0.9-0.9,1.5-1.1c0.2,0,0.4,0,0.5-0.2c-0.2-0.2-0.4-0.4-0.6-0.6c-0.2-0.2-0.4-0.3-0.5-0.5
	c-0.4-0.6-0.3-1.4,0.3-1.8c0.1-0.1,0.2-0.1,0.3-0.1c0.5-0.2,1-0.6,1.3-1.1c0.3-0.4,0.3-0.5,0-0.9s-0.8-1.1-1.2-1.6
	c-0.4-0.6-0.4-1.3-0.1-1.9c0.3-0.5,0.7-0.9,1.3-1.2c0.7-0.3,1.4-0.6,2.1-0.9c1.1-0.4,2.2-0.9,3.2-1.5c0.5-0.3,0.9-0.6,1.3-1
	c0.2-0.2,0.2-0.3-0.1-0.5s-0.4-0.1-0.5-0.3c0.2,0,0.5,0.1,0.7,0.1c0.3,0.1,0.3,0,0.4-0.3c0.2-0.7,0.3-1.3,0.6-2
	c0.4-1,0.8-1.9,1.3-2.9c0.6-1.1,1.4-2.1,2.1-3c0,0,0,0,0-0.1c0.6-0.6,1.3-1.2,1.9-1.8c0.3-0.3,0.5-0.6,0.6-0.9
	c0.5-1.1,1.2-2.1,2.2-2.9l1.3-1.1c-0.1-0.1-0.3-0.2-0.4-0.2c-1.4-0.5-2.9-0.9-4.4-1.2c-1.4-0.3-2.8-0.4-4.2-0.4c-0.8,0-1.7,0-2.5,0
	s-1.8,0.1-2.7,0.3c-1.7,0.3-3.4,0.7-5.1,1.3c-1.6,0.6-3.2,1.3-4.7,2.2c-2,1.2-3.9,2.8-5.5,4.6c-1.4,1.6-2.6,3.4-3.5,5.3
	c-0.6,1.4-1.1,2.9-1.3,4.4c-0.1,0.4-0.2,0.8-0.2,1.2c-0.1,0.9-0.1,1.7-0.1,2.6c0,0.2,0,0.4,0,0.7V91.1z M47.4,105.1v0.1h36.7
	c0.8,0,0.7,0.1,0.7-0.7c0-19.6,0-39.3,0-58.9c0-1,0-2-0.1-2.9c-0.1-1.3-0.4-2.6-0.8-3.9c-1-3-2.7-5.8-5-8c-1.5-1.5-3.2-2.8-5-3.8
	c-0.6-0.3-1.2-0.7-1.8-1c-0.6-0.3-1.3-0.2-1.8,0.2l-0.4,0.3c-0.8,0.7-1.5,1.5-2,2.5c-0.2,0.5-0.6,1-1,1.4c-0.7,0.6-1.3,1.2-1.8,1.9
	c-1.1,1.3-2,2.8-2.7,4.4c-0.3,0.8-0.6,1.7-0.8,2.5c-0.3,0.9-0.8,1.8-1.5,2.4c-0.5,0.4-1.1,0.7-1.7,1c-1.3,0.6-2.7,1.2-4,1.8
	c-0.4,0.2-0.7,0.3-1.1,0.6c-0.3,0.2-0.4,0.5-0.3,0.8c0,0.1,0.1,0.1,0.1,0.2c0.1,0.1,0.2,0.3,0.3,0.4l0.8,1.2c0.6,0.8,0.5,2-0.2,2.7
	c-0.4,0.4-0.7,0.7-1.1,1c-0.3,0.2-0.3,0.4,0,0.7c0.1,0.1,0.2,0.2,0.4,0.3c0.6,0.5,0.7,1.4,0.2,2c-0.2,0.2-0.5,0.4-0.7,0.5l-0.2,0.1
	C52,55,51.9,55.1,52,55.4c0.1,0.4,0.2,0.8,0.3,1.2c0.2,0.6,0.1,1.4-0.3,1.9c-0.2,0.2-0.3,0.4-0.5,0.6c-0.3,0.4-0.5,0.8-0.7,1.2
	c-0.2,0.4-0.1,0.9,0.2,1.3c0.7,0.8,1.5,1.4,2.6,1.7c1.9,0.5,3.8,0.8,5.7,1.1c2.2,0.3,4.1,1.7,5,3.7c0.4,0.8,0.7,1.5,1,2.3
	c0.6,1.3,1,2.6,1.4,4c0.3,1.2,0.8,2.3,1.4,3.3c1.2,2.2,1.5,4.7,0.9,7.1c-0.2,0.9-0.8,1.6-1.7,1.8c-0.8,0.2-1.7,0.6-2.4,1
	c-1.7,0.8-3,2.3-3.8,4c-0.4,0.9-0.7,1.8-1,2.7c-0.3,1.1-0.9,2.1-1.8,2.9c-0.3,0.2-0.5,0.5-0.7,0.8c-0.4,0.6-0.8,1.1-1.4,1.4
	c-0.4,0.2-0.8,0.5-1.2,0.8c-1.1,0.6-2.1,1.4-3,2.2c-0.6,0.5-1.3,1-2,1.3c-0.7,0.3-1.3,0.7-2,1C47.8,104.9,47.6,105,47.4,105.1
	L47.4,105.1z M60,109h26c0.1,0,0.2,0,0.3,0s0.3-0.1,0.2-0.3v-1.3c0-0.6,0.1-0.6-0.6-0.6H33.8c-0.2,0-0.2,0.1-0.2,0.3
	c0,0.4,0,0.8,0,1.3c0,0.6-0.1,0.6,0.6,0.6H60z"/>
<linearGradient id="SVGID_2_" gradientUnits="userSpaceOnUse" x1="91.1424" y1="101.6681" x2="91.1424" y2="32.9254">
	<stop  offset="0" style="stop-color:#A2DED7"/>
	<stop  offset="1" style="stop-color:#F1A3A7"/>
</linearGradient>
<path class="st1" d="M87.2,44.5c1,1.1,1.9,2.3,2.7,3.6c8.2,12.8,7.2,29.5-2.4,41.3c-0.1,0.1-0.2,0.2-0.2,0.2c-0.1,0-0.2-0.1-0.2-0.1
	c0-0.2,0-0.4,0-0.7c0.1-0.2,0-0.5,0.1-0.7c0.1,0,0.3-0.1,0.4-0.2c0.3-0.5,0.7-1,1-1.5c0.7-1,1.3-1.9,1.8-3c0.8-1.4,1.4-2.8,2-4.3
	c0.3-0.8,0.6-1.5,0.8-2.3c0.5-1.6,0.9-3.3,1.1-5c0.1-0.9,0.2-1.8,0.2-2.7c0-0.8,0.1-1.5,0.1-2.3c0-0.3-0.1-0.7-0.1-1
	c0-0.9-0.1-1.7-0.2-2.6c-0.1-0.9-0.2-1.8-0.4-2.6c-0.3-1.5-0.6-2.9-1.1-4.3c-0.2-0.8-0.5-1.5-0.8-2.3c-1.1-2.8-2.6-5.4-4.4-7.8
	c-0.1-0.2-0.3-0.3-0.5-0.3c-0.1-0.5-0.1-1,0-1.5C87,44.5,87.1,44.5,87.2,44.5z"/>
<linearGradient id="SVGID_3_" gradientUnits="userSpaceOnUse" x1="29.1744" y1="101.6681" x2="29.1744" y2="32.9254">
	<stop  offset="0" style="stop-color:#A2DED7"/>
	<stop  offset="1" style="stop-color:#F1A3A7"/>
</linearGradient>
<path class="st2" d="M33.2,89.7c-0.6-0.7-1.2-1.4-1.7-2.2c-9.2-12.9-8.7-30.4,1.4-42.7c0.1-0.1,0.2-0.2,0.3-0.3l0.2,0.1
	c0,0.2,0,0.3,0,0.5c-0.2,0.2-0.1,0.4-0.1,0.5v0.6c-0.2,0-0.3,0.1-0.4,0.2c-0.2,0.3-0.4,0.5-0.6,0.8c-1.4,1.9-2.5,4-3.5,6.2
	c-0.7,1.5-1.2,3-1.7,4.6c-0.4,1.3-0.6,2.7-0.8,4c-0.1,0.5-0.1,1-0.2,1.6c-0.1,0.6-0.1,1.2-0.1,1.8c0,1.4-0.1,2.8,0.1,4.2
	c0,0.5,0.1,0.9,0.1,1.4c0.1,0.9,0.3,1.8,0.4,2.6c0.4,2.1,1,4.2,1.8,6.2c0.5,1.2,1.1,2.4,1.7,3.6c0.2,0.4,0.5,0.9,0.8,1.3
	c0.6,0.9,1.2,1.8,1.8,2.6c0.2,0.2,0.3,0.4,0.6,0.6v0.5c0,0.1,0.1,0.2,0.1,0.2C33.4,89,33.4,89.3,33.2,89.7z"/>
<linearGradient id="SVGID_4_" gradientUnits="userSpaceOnUse" x1="87.0299" y1="101.6681" x2="87.0299" y2="32.9254">
	<stop  offset="0" style="stop-color:#A2DED7"/>
	<stop  offset="1" style="stop-color:#F1A3A7"/>
</linearGradient>
<path class="st3" d="M86.9,89.9c0-0.1,0-0.3,0-0.4c0.1,0,0.2,0.1,0.2,0.1S87,89.8,86.9,89.9z"/>
<linearGradient id="SVGID_5_" gradientUnits="userSpaceOnUse" x1="33.3036" y1="101.6681" x2="33.3036" y2="32.9254">
	<stop  offset="0" style="stop-color:#A2DED7"/>
	<stop  offset="1" style="stop-color:#F1A3A7"/>
</linearGradient>
<path class="st4" d="M33.3,44.3c0.1,0.1,0.1,0.2,0,0.3l-0.2-0.1C33.2,44.4,33.3,44.3,33.3,44.3z"/>
<linearGradient id="SVGID_6_" gradientUnits="userSpaceOnUse" x1="87.1304" y1="101.6681" x2="87.1304" y2="32.9254">
	<stop  offset="0" style="stop-color:#A2DED7"/>
	<stop  offset="1" style="stop-color:#F1A3A7"/>
</linearGradient>
<path class="st5" d="M87,44.6c0-0.1,0-0.2,0-0.3c0.2,0,0.2,0.1,0.3,0.2C87.2,44.5,87.1,44.6,87,44.6z"/>
<linearGradient id="SVGID_7_" gradientUnits="userSpaceOnUse" x1="66.0771" y1="26.111" x2="66.0771" y2="104.7699">
	<stop  offset="0" style="stop-color:#A2DED7"/>
	<stop  offset="1" style="stop-color:#F1A3A7"/>
</linearGradient>
<path class="st6" d="M47.5,105.1c0.2-0.2,0.3-0.3,0.6-0.4c0.7-0.3,1.3-0.7,2-1c0.7-0.3,1.4-0.8,2-1.3c0.9-0.8,1.9-1.5,3-2.2
	c0.4-0.3,0.8-0.5,1.2-0.8c0.5-0.4,1-0.9,1.3-1.4c0.2-0.3,0.4-0.6,0.7-0.8c0.9-0.8,1.5-1.8,1.8-2.9c0.3-0.9,0.6-1.8,1-2.7
	c0.7-1.7,2.1-3.2,3.8-4c0.8-0.4,1.6-0.8,2.4-1c0.9-0.2,1.5-0.9,1.7-1.8c0.6-2.4,0.3-4.9-0.9-7c-0.6-1.1-1-2.2-1.3-3.4
	c-0.3-1.4-0.8-2.7-1.4-4c-0.3-0.8-0.7-1.6-1-2.3c-0.9-2-2.8-3.4-5-3.7c-1.9-0.3-3.8-0.7-5.7-1.1c-1-0.2-2-0.8-2.6-1.6
	c-0.3-0.4-0.4-0.9-0.2-1.3c0.2-0.4,0.4-0.9,0.7-1.2c0.2-0.2,0.3-0.4,0.5-0.6c0.4-0.6,0.5-1.3,0.3-2c-0.1-0.4-0.2-0.8-0.3-1.2
	c-0.1-0.3,0-0.4,0.3-0.5l0.2-0.1c0.8-0.2,1.2-1,1-1.8c-0.1-0.3-0.2-0.6-0.5-0.7c-0.1-0.1-0.2-0.2-0.4-0.3c-0.2-0.3-0.2-0.4,0-0.7
	c0.4-0.3,0.8-0.7,1.1-1c0.8-0.7,0.9-1.9,0.2-2.7l-0.8-1.2c-0.1-0.1-0.2-0.3-0.3-0.4c-0.2-0.3-0.1-0.7,0.2-0.9c0,0,0,0,0.1,0
	c0.3-0.2,0.7-0.4,1.1-0.6c1.3-0.6,2.7-1.2,4-1.8c0.6-0.3,1.2-0.6,1.7-1c0.7-0.6,1.3-1.5,1.5-2.4c0.3-0.9,0.5-1.7,0.8-2.5
	c0.7-1.6,1.6-3.1,2.8-4.5c0.6-0.6,1.2-1.2,1.8-1.8c0.4-0.4,0.8-0.9,1-1.4c0.5-1,1.2-1.8,2-2.5l0.4-0.3c0.5-0.5,1.2-0.6,1.7-0.3
	c0.6,0.3,1.2,0.6,1.8,1c1.8,1.1,3.5,2.3,5,3.8c2.3,2.2,4,5,5,8c0.4,1.3,0.7,2.6,0.8,3.9c0.1,1,0.1,2,0.1,2.9c0,19.7,0,39.3,0,58.9
	c0,0.8,0.1,0.7-0.7,0.7H47.5L47.5,105.1z"/>
<path class="st7" d="M60,109H34.1c-0.7,0-0.6,0.1-0.6-0.6c0-0.4,0-0.8,0-1.3c0-0.2,0.1-0.3,0.2-0.3h52.3c0.6,0,0.6-0.1,0.6,0.6v1.3
	c0,0.2-0.1,0.3-0.2,0.3s-0.2,0-0.3,0H60z"/>
<linearGradient id="SVGID_8_" gradientUnits="userSpaceOnUse" x1="53.075" y1="101.6681" x2="53.075" y2="32.9254">
	<stop  offset="0" style="stop-color:#A2DED7"/>
	<stop  offset="1" style="stop-color:#F1A3A7"/>
</linearGradient>
<path class="st8" d="M54.5,99.2c0,0.1,0,0.3,0.1,0.4c-0.3,0.2-0.6,0.5-0.9,0.7l-1.7,1.2c0-0.1,0-0.2-0.1-0.2c-0.1,0-0.2,0-0.2-0.1
	c0.2-0.2,0.6-0.3,0.8-0.6c0.1,0,0.2-0.1,0.3-0.2l0.2-0.1c0.2,0,0.3-0.1,0.4-0.2h0.1c0.4-0.2,0.7-0.4,1-0.7h0.1L54.5,99.2z"/>
<linearGradient id="SVGID_9_" gradientUnits="userSpaceOnUse" x1="35.6407" y1="101.6681" x2="35.6407" y2="32.9254">
	<stop  offset="0" style="stop-color:#A2DED7"/>
	<stop  offset="1" style="stop-color:#F1A3A7"/>
</linearGradient>
<path class="st9" d="M35.4,91.1c0.2,0,0.3,0.2,0.5,0.1c0,0.4,0,0.8,0,1.2c-0.2-0.1-0.2-0.3-0.4-0.3C35.4,91.8,35.3,91.4,35.4,91.1z"
	/>
<linearGradient id="SVGID_10_" gradientUnits="userSpaceOnUse" x1="90.5069" y1="101.6681" x2="90.5069" y2="32.9254">
	<stop  offset="0" style="stop-color:#A2DED7"/>
	<stop  offset="1" style="stop-color:#F1A3A7"/>
</linearGradient>
<path class="st10" d="M87,88.8c0,0-0.1-0.1-0.1-0.1c0-0.8,0-1.5,0-2.3c0.1-0.3,0.1-0.3,0.4-0.6c0,0,0.1-0.1,0.1-0.1
	c0.4-0.6,0.8-1.2,1.2-1.8c0.7-1.3,1.4-2.6,2-4c0.7-1.6,1.3-3.3,1.7-5c0.3-1.3,0.6-2.5,0.8-3.8c0.1-0.8,0.2-1.6,0.2-2.4
	c0.1-1.2,0.1-2.4,0-3.6c-0.1-0.7-0.1-1.3-0.2-2c-0.1-1.1-0.4-2.2-0.6-3.3c-0.1-0.5-0.3-1-0.4-1.4c-0.3-1-0.6-2-1-2.9
	c-0.5-1.3-1.1-2.7-1.8-3.9c-0.6-1-1.2-2-1.8-2.9c-0.1-0.2-0.3-0.3-0.5-0.3c-0.1-0.6-0.1-1.2,0-1.8c0.1,0,0.2,0,0.2,0.2
	c0,0.1,0,0.2,0.1,0.3c0.3,0.4,0.6,0.8,0.9,1.2c1,1.5,1.9,3.1,2.7,4.7c0.5,1,0.9,2,1.3,3.1c0.3,0.9,0.6,1.9,0.8,2.8
	c0.4,1.5,0.6,3,0.8,4.5c0,0.3,0,0.7,0.1,1c0.1,0.6,0.1,1.2,0.2,1.9v2.7c0,0.1,0,0.2,0,0.3c-0.2,0.7-0.2,1.5-0.2,2.2
	s-0.2,1.4-0.3,2.1c-0.3,1.7-0.8,3.4-1.3,5c-0.3,0.9-0.7,1.7-1,2.6c-0.2,0.6-0.5,1.2-0.8,1.7c-0.5,0.9-1,1.8-1.5,2.6s-1,1.5-1.5,2.2
	c-0.2,0.2-0.3,0.5-0.3,0.8C87,88.3,87.1,88.6,87,88.8z"/>
<linearGradient id="SVGID_11_" gradientUnits="userSpaceOnUse" x1="90.7425" y1="101.6681" x2="90.7425" y2="32.9254">
	<stop  offset="0" style="stop-color:#A2DED7"/>
	<stop  offset="1" style="stop-color:#F1A3A7"/>
</linearGradient>
<path class="st11" d="M87,88.1c0-0.3,0.1-0.6,0.3-0.8c0.6-0.7,1-1.5,1.5-2.2s1-1.7,1.5-2.6c0.3-0.6,0.6-1.1,0.8-1.7
	c0.3-0.8,0.7-1.7,1-2.6c0.6-1.6,1-3.3,1.3-5c0.1-0.7,0.2-1.4,0.3-2.1s0.1-1.5,0.2-2.2c0-0.1,0-0.2,0-0.3v-2.6c0-0.6,0-1.2-0.1-1.9
	c0-0.3,0-0.7-0.1-1c-0.2-1.5-0.5-3-0.9-4.5c-0.2-0.9-0.5-1.9-0.8-2.8c-0.4-1-0.8-2.1-1.3-3.1c-0.8-1.6-1.7-3.2-2.7-4.7
	c-0.3-0.4-0.6-0.8-0.9-1.2c-0.1-0.1-0.1-0.2-0.1-0.3c0-0.1-0.1-0.2-0.2-0.2c-0.1-0.1-0.1-0.2,0-0.3c0.2,0,0.4,0.1,0.5,0.3
	c1.8,2.4,3.4,5,4.5,7.8c0.3,0.8,0.6,1.5,0.8,2.3c0.5,1.4,0.8,2.8,1.1,4.3c0.2,0.9,0.3,1.7,0.4,2.6c0.1,0.8,0.2,1.7,0.2,2.6
	c0,0.3,0.1,0.7,0.1,1c0,0.8-0.1,1.5-0.1,2.3c0,0.9-0.1,1.8-0.2,2.7c-0.2,1.7-0.6,3.4-1.1,5c-0.2,0.8-0.5,1.6-0.8,2.3
	c-0.6,1.5-1.2,2.9-2,4.3c-0.6,1-1.2,2-1.8,3c-0.3,0.5-0.7,1-1,1.5C87.3,88,87.2,88.1,87,88.1z"/>
<linearGradient id="SVGID_12_" gradientUnits="userSpaceOnUse" x1="30.2528" y1="101.6681" x2="30.2528" y2="32.9254">
	<stop  offset="0" style="stop-color:#A2DED7"/>
	<stop  offset="1" style="stop-color:#F1A3A7"/>
</linearGradient>
<path class="st12" d="M33.3,85.4c0,0.1,0,0.2,0,0.3c-0.2,0-0.4-0.1-0.5-0.3c-0.1-0.2-0.2-0.3-0.3-0.4c-0.6-0.9-1.2-1.9-1.7-2.9
	c-0.3-0.6-0.6-1.2-0.9-1.8s-0.6-1.4-0.9-2.2c-0.3-0.9-0.6-1.8-0.8-2.7c-0.2-0.7-0.3-1.3-0.5-2c-0.2-0.9-0.3-1.7-0.4-2.6
	c-0.1-0.7-0.2-1.4-0.2-2.1c-0.1-1.5,0-3,0.1-4.5c0,0,0-0.1,0-0.1c0.1-0.8,0.2-1.5,0.3-2.3c0.1-0.6,0.2-1.2,0.3-1.8
	c0.3-1,0.5-2.1,0.9-3.1c0.5-1.4,1-2.7,1.6-4c0.6-1.2,1.2-2.3,1.9-3.4c0.2-0.4,0.5-0.9,0.8-1.2c0.1-0.1,0.1-0.2,0.1-0.3v-1.7
	c0-0.2,0-0.4,0-0.6l0.1,0.1v2.9c0,0.1,0,0.2,0,0.3c-0.2,0-0.3,0.1-0.4,0.2c-0.8,1.4-1.6,2.8-2.3,4.2c-0.9,2-1.6,4-2.1,6.1
	c-0.2,0.8-0.3,1.5-0.5,2.3c-0.2,0.9-0.3,1.8-0.3,2.8c0,0.1,0,0.2,0,0.3c-0.1,1.4-0.1,2.9,0,4.3c0,0.3,0,0.6,0,0.9
	c0.1,0.6,0.2,1.2,0.3,1.8s0.2,1.5,0.4,2.2c0.3,1.3,0.6,2.5,1.1,3.8c0.4,1.1,0.9,2.2,1.4,3.3c0.6,1.2,1.3,2.4,2,3.6
	c0,0.1,0.2,0.2,0.3,0.2C33.2,85.1,33.1,85.4,33.3,85.4z"/>
<linearGradient id="SVGID_13_" gradientUnits="userSpaceOnUse" x1="29.6246" y1="101.6681" x2="29.6246" y2="32.9254">
	<stop  offset="0" style="stop-color:#A2DED7"/>
	<stop  offset="1" style="stop-color:#F1A3A7"/>
</linearGradient>
<path class="st13" d="M33.2,46.2c0,0.2,0,0.4,0,0.6c-0.2,0-0.3,0.1-0.3,0.2c-0.5,0.6-0.9,1.3-1.4,2s-0.7,1.2-1,1.8
	c-0.8,1.5-1.6,3-2.2,4.7c-0.6,1.5-1,3-1.3,4.6c-0.1,0.7-0.3,1.3-0.4,2s-0.1,1.3-0.2,1.9c-0.1,0.6-0.1,1.6-0.1,2.3
	c0,0.8,0,1.5,0.1,2.3c0.1,1,0.1,2,0.3,3s0.3,1.7,0.5,2.6c0.2,1,0.5,2.1,0.8,3.1c0.3,1,0.7,1.9,1.1,2.9c0.6,1.4,1.3,2.8,2.1,4.2
	c0.5,0.9,1.1,1.8,1.7,2.6c0.1,0.2,0.3,0.3,0.5,0.4c0,0.2,0,0.4,0,0.6h-0.2c-0.2-0.2-0.4-0.4-0.6-0.6c-0.6-0.8-1.2-1.7-1.8-2.6
	c-0.3-0.4-0.5-0.9-0.8-1.3c-0.6-1.2-1.2-2.3-1.7-3.6c-0.8-2-1.4-4.1-1.8-6.2c-0.2-0.9-0.3-1.7-0.4-2.6c0-0.5-0.1-0.9-0.1-1.4
	c-0.1-1.4,0-2.8-0.1-4.2c0-0.6,0.1-1.2,0.1-1.8c0.1-0.5,0.1-1,0.2-1.6c0.2-1.3,0.5-2.7,0.8-4c0.4-1.6,1-3.1,1.6-4.6
	c1-2.2,2.1-4.2,3.5-6.2c0.2-0.3,0.4-0.5,0.6-0.8C32.8,46.3,33,46.2,33.2,46.2z"/>
<linearGradient id="SVGID_14_" gradientUnits="userSpaceOnUse" x1="33.2846" y1="101.6681" x2="33.2846" y2="32.9254">
	<stop  offset="0" style="stop-color:#A2DED7"/>
	<stop  offset="1" style="stop-color:#F1A3A7"/>
</linearGradient>
<path class="st14" d="M33.2,88h0.2l0.1,0.3c0,0.2,0,0.3-0.1,0.5c-0.1,0-0.1-0.1-0.1-0.2L33.2,88z"/>
<linearGradient id="SVGID_15_" gradientUnits="userSpaceOnUse" x1="33.2691" y1="101.6681" x2="33.2691" y2="32.9254">
	<stop  offset="0" style="stop-color:#A2DED7"/>
	<stop  offset="1" style="stop-color:#F1A3A7"/>
</linearGradient>
<path class="st15" d="M33.3,45.7l-0.1-0.1c0-0.2-0.1-0.4,0.1-0.5C33.4,45.3,33.4,45.5,33.3,45.7z"/>
<linearGradient id="SVGID_16_" gradientUnits="userSpaceOnUse" x1="88.6163" y1="101.6681" x2="88.6163" y2="32.9254">
	<stop  offset="0" style="stop-color:#A2DED7"/>
	<stop  offset="1" style="stop-color:#F1A3A7"/>
</linearGradient>
<path class="st16" d="M87,80.6c0-0.4,0-0.7,0-1.1c0.2,0,0.2-0.2,0.2-0.3c0-0.8,0-1.6,0-2.4c0-0.1,0-0.3,0.1-0.4
	c0.2-0.6,0.4-1.2,0.6-1.8c0.3-1.1,0.5-2.2,0.6-3.3c0.2-0.9,0.2-1.9,0.2-2.9c0-1.4,0.1-2.8-0.1-4.2c-0.1-0.6-0.1-1.2-0.2-1.9
	c-0.2-1.1-0.4-2.1-0.7-3.2c-0.1-0.4-0.2-0.9-0.4-1.3c-0.1-0.2-0.1-0.5-0.1-0.8v-2.2c0-0.1,0-0.3-0.2-0.3c0-0.4,0-0.8,0-1.1
	c0.1,0,0.3,0.1,0.3,0.2c0.1,0.2,0.1,0.3,0.2,0.5c0.4,0.8,0.7,1.7,1,2.5c0.5,1.3,0.8,2.7,1.1,4.1c0.2,0.7,0.3,1.4,0.4,2.1
	c0,0.3,0.1,0.7,0.1,1c0.1,0.6,0.1,1.2,0.1,1.8c0,1.2,0.1,2.5-0.1,3.7c0,0.5-0.1,1-0.1,1.4c0,0.3,0,0.6-0.1,0.9
	c-0.1,0.7-0.2,1.4-0.4,2.1c-0.3,1.2-0.6,2.5-1,3.7c-0.3,1-0.8,1.9-1.2,2.9C87.2,80.5,87.2,80.6,87,80.6z"/>
<linearGradient id="SVGID_17_" gradientUnits="userSpaceOnUse" x1="89.6392" y1="101.6681" x2="89.6392" y2="32.9168">
	<stop  offset="0" style="stop-color:#A2DED7"/>
	<stop  offset="1" style="stop-color:#F1A3A7"/>
</linearGradient>
<path class="st17" d="M87,84.2c0-0.2,0-0.4,0-0.6c0.1-0.2,0.1-0.4,0-0.6v-0.4c0.2-0.1,0.3-0.3,0.4-0.6c0.3-0.6,0.6-1.1,0.8-1.7
	c0.4-0.9,0.8-1.7,1.1-2.6c0.4-1.2,0.8-2.4,1.1-3.6c0.3-1.4,0.5-2.8,0.6-4.2c0.1-0.8,0.1-1.7,0.2-2.5s-0.1-1.6-0.1-2.4
	c0-0.5-0.1-0.9-0.1-1.3c0-0.3,0-0.5-0.1-0.8l-0.4-2.3c-0.2-1.1-0.5-2.2-0.8-3.2c-0.3-0.8-0.6-1.6-0.9-2.4c-0.4-1-0.9-2-1.4-3
	c-0.1-0.1-0.2-0.3-0.4-0.3c0-0.2,0-0.3,0-0.5c0.1-0.1,0.1-0.2,0.1-0.3v-0.9h0.1c0.2,0,0.2,0.2,0.3,0.3c0.6,1,1.2,2.1,1.8,3.2
	c0.5,1.1,1,2.3,1.4,3.4c0.2,0.7,0.4,1.4,0.6,2.1c0.3,1,0.5,2,0.6,3c0.1,0.8,0.2,1.5,0.3,2.3c0.1,0.8,0,1.5,0.1,2.3
	c0.1,0.9-0.1,1.9-0.1,2.9c0,0,0,0.1,0,0.1c-0.1,0.6-0.1,1.3-0.2,1.9s-0.2,1.3-0.3,1.9c-0.2,1.2-0.5,2.3-0.9,3.4
	c-0.7,2.1-1.5,4-2.6,5.9c-0.2,0.4-0.5,0.8-0.8,1.3C87.4,84.1,87.2,84.2,87,84.2z"/>
<linearGradient id="SVGID_18_" gradientUnits="userSpaceOnUse" x1="89.0913" y1="101.6681" x2="89.0913" y2="32.9254">
	<stop  offset="0" style="stop-color:#A2DED7"/>
	<stop  offset="1" style="stop-color:#F1A3A7"/>
</linearGradient>
<path class="st18" d="M87,51.6c0.2,0,0.3,0.2,0.4,0.3c0.5,1,1,2,1.4,3c0.3,0.8,0.6,1.6,0.9,2.4c0.3,1,0.6,2.1,0.8,3.2l0.4,2.3
	c0,0.3,0,0.5,0.1,0.8c0,0.4,0.1,0.9,0.1,1.3c0,0.8,0.1,1.6,0.1,2.4s-0.1,1.7-0.2,2.5c-0.1,1.4-0.3,2.8-0.6,4.2
	c-0.3,1.2-0.6,2.5-1.1,3.6c-0.3,0.9-0.7,1.8-1.1,2.6c-0.3,0.6-0.6,1.1-0.8,1.7c-0.1,0.2-0.2,0.4-0.4,0.6c0,0-0.1-0.1-0.1-0.2
	c0-0.6,0-1.2,0-1.8c0.2,0,0.3-0.1,0.4-0.3c0.4-1,0.8-1.9,1.2-2.9c0.4-1.2,0.7-2.4,1-3.7c0.2-0.7,0.3-1.4,0.4-2.1
	c0-0.3,0.1-0.6,0.1-0.9c0-0.5,0.1-1,0.1-1.4c0.1-1.2,0-2.5,0.1-3.7c0-0.6,0-1.2-0.1-1.8c0-0.3-0.1-0.7-0.1-1
	c-0.1-0.7-0.2-1.4-0.4-2.1c-0.3-1.4-0.7-2.7-1.1-4.1c-0.3-0.8-0.7-1.7-1-2.5c-0.1-0.2-0.1-0.3-0.2-0.5c0-0.1-0.2-0.2-0.3-0.2
	C86.9,52.8,86.9,52.2,87,51.6z"/>
<linearGradient id="SVGID_19_" gradientUnits="userSpaceOnUse" x1="90.0776" y1="101.6681" x2="90.0776" y2="32.9254">
	<stop  offset="0" style="stop-color:#A2DED7"/>
	<stop  offset="1" style="stop-color:#F1A3A7"/>
</linearGradient>
<path class="st19" d="M87,48.2c0.2,0,0.4,0.1,0.5,0.3c0.6,1,1.2,1.9,1.8,2.9c0.7,1.3,1.3,2.6,1.8,3.9c0.4,1,0.7,1.9,1,2.9
	c0.1,0.5,0.3,1,0.4,1.4c0.2,1.1,0.5,2.2,0.6,3.3c0.1,0.7,0.1,1.3,0.2,2c0.1,1.2,0.1,2.4,0,3.6c0,0.8-0.1,1.6-0.2,2.4
	c-0.2,1.3-0.4,2.6-0.7,3.9c-0.4,1.7-1,3.4-1.7,5c-0.6,1.4-1.3,2.7-2,4c-0.4,0.6-0.8,1.2-1.2,1.8c0,0-0.1,0.1-0.1,0.1
	C87,86.2,87,86.2,87,86.4c-0.1-0.5-0.1-1,0-1.5c0.2,0,0.3-0.1,0.4-0.2c0.2-0.4,0.5-0.9,0.8-1.3c0.6-1.1,1.2-2.3,1.7-3.4
	c0.4-1,0.8-1.9,1.1-2.9c0.4-1.3,0.8-2.6,1-4c0.1-0.6,0.2-1.3,0.3-1.9c0-0.3,0-0.7,0.1-1c0.1-0.5,0.1-1,0.1-1.5
	c0.1-1.2,0.1-2.5,0-3.8c-0.1-0.6-0.1-1.2-0.2-1.9c-0.1-1.2-0.3-2.3-0.6-3.4c-0.3-1.2-0.6-2.4-1.1-3.6c-0.4-1.1-0.9-2.2-1.4-3.2
	c-0.4-0.8-0.9-1.7-1.3-2.5c-0.2-0.4-0.4-0.7-0.7-1c-0.1-0.1-0.1-0.1-0.2-0.1c0-0.2,0.1-0.4-0.2-0.5C86.9,48.5,86.9,48.3,87,48.2z"/>
<linearGradient id="SVGID_20_" gradientUnits="userSpaceOnUse" x1="87.725" y1="101.6681" x2="87.725" y2="32.9254">
	<stop  offset="0" style="stop-color:#A2DED7"/>
	<stop  offset="1" style="stop-color:#F1A3A7"/>
</linearGradient>
<path class="st20" d="M86.9,54.6c0.2,0,0.2,0.2,0.2,0.3v2.2c0,0.3,0,0.5,0.1,0.8c0.2,0.4,0.3,0.9,0.4,1.3c0.3,1,0.5,2.1,0.7,3.2
	c0.1,0.6,0.2,1.2,0.2,1.9c0.2,1.4,0,2.8,0.1,4.2c0,1-0.1,1.9-0.2,2.9c-0.2,1.1-0.4,2.2-0.6,3.3c-0.1,0.6-0.3,1.2-0.6,1.8
	c0,0.1-0.1,0.3-0.1,0.4c0,0.8,0,1.6,0,2.4c0,0.1,0.1,0.3-0.2,0.3c0-0.5,0-1,0-1.6c0-1.3,0-2.6,0-3.9c0.2-4.2,0.1-8.5,0-12.7
	c0-2.1,0-4.2-0.1-6.3C86.9,54.9,86.9,54.7,86.9,54.6z"/>
<linearGradient id="SVGID_21_" gradientUnits="userSpaceOnUse" x1="89.7751" y1="101.6681" x2="89.7751" y2="32.9254">
	<stop  offset="0" style="stop-color:#A2DED7"/>
	<stop  offset="1" style="stop-color:#F1A3A7"/>
</linearGradient>
<path class="st21" d="M87.1,49.1c0.1,0,0.2,0.1,0.2,0.1c0.2,0.3,0.5,0.7,0.7,1c0.4,0.8,0.9,1.7,1.3,2.5c0.5,1.1,1,2.1,1.4,3.2
	c0.4,1.2,0.8,2.3,1.1,3.5c0.3,1.1,0.5,2.3,0.6,3.5c0.1,0.6,0.1,1.2,0.2,1.9c0.1,1.2,0.1,2.5,0,3.8c0,0.5,0,1-0.1,1.5
	c-0.1,0.3-0.1,0.7-0.1,1c-0.1,0.6-0.1,1.3-0.3,1.9c-0.2,1.4-0.6,2.7-1,4c-0.3,1-0.7,1.9-1.1,2.8c-0.5,1.2-1.1,2.3-1.7,3.4
	c-0.3,0.4-0.5,0.9-0.8,1.3c-0.1,0.2-0.2,0.3-0.4,0.2c-0.1-0.2-0.1-0.5,0-0.7c0.2,0,0.3-0.1,0.4-0.2c0.2-0.4,0.5-0.8,0.8-1.3
	c1.1-1.9,1.9-3.9,2.6-5.9c0.4-1.1,0.7-2.3,0.9-3.4c0.1-0.6,0.2-1.3,0.3-1.9s0.1-1.3,0.2-1.9c0,0,0-0.1,0-0.1c-0.1-1,0.2-1.9,0.1-2.9
	c-0.1-0.8,0-1.5-0.1-2.3s-0.2-1.5-0.3-2.3c-0.2-1-0.4-2-0.6-3c-0.2-0.7-0.4-1.4-0.6-2.1c-0.4-1.2-0.9-2.3-1.4-3.4
	c-0.5-1.1-1.1-2.2-1.8-3.2c-0.1-0.1-0.1-0.3-0.3-0.3L87.1,49.1z"/>
<linearGradient id="SVGID_22_" gradientUnits="userSpaceOnUse" x1="86.9206" y1="101.6681" x2="86.9206" y2="32.9254">
	<stop  offset="0" style="stop-color:#A2DED7"/>
	<stop  offset="1" style="stop-color:#F1A3A7"/>
</linearGradient>
<path class="st22" d="M87,49.8v0.9c0,0.1,0,0.2-0.1,0.3l0,0c-0.1-0.5-0.1-0.9,0-1.4C87,49.7,87,49.8,87,49.8z"/>
<linearGradient id="SVGID_23_" gradientUnits="userSpaceOnUse" x1="86.9652" y1="101.6681" x2="86.9652" y2="32.9254">
	<stop  offset="0" style="stop-color:#A2DED7"/>
	<stop  offset="1" style="stop-color:#F1A3A7"/>
</linearGradient>
<path class="st23" d="M87,49.8c0-0.1,0-0.1-0.1-0.2c0-0.3,0-0.7,0-1c0.2,0.1,0.1,0.3,0.2,0.5L87,49.8L87,49.8z"/>
<linearGradient id="SVGID_24_" gradientUnits="userSpaceOnUse" x1="86.9693" y1="101.6681" x2="86.9693" y2="32.9254">
	<stop  offset="0" style="stop-color:#A2DED7"/>
	<stop  offset="1" style="stop-color:#F1A3A7"/>
</linearGradient>
<path class="st24" d="M87,83c0.1,0.2,0.1,0.4,0,0.6C86.8,83.5,86.8,83.2,87,83C87,83,87,83,87,83z"/>
<linearGradient id="SVGID_25_" gradientUnits="userSpaceOnUse" x1="30.5144" y1="101.6681" x2="30.5144" y2="32.9254">
	<stop  offset="0" style="stop-color:#A2DED7"/>
	<stop  offset="1" style="stop-color:#F1A3A7"/>
</linearGradient>
<path class="st25" d="M33.2,85c-0.1,0-0.2-0.1-0.3-0.2c-0.7-1.2-1.4-2.4-2-3.6c-0.5-1.1-1-2.2-1.4-3.3c-0.4-1.2-0.8-2.5-1.1-3.8
	c-0.2-0.7-0.3-1.5-0.4-2.2s-0.2-1.2-0.3-1.8c0-0.3,0-0.6,0-0.9c-0.1-1.4-0.1-2.9,0-4.3c0-0.1,0-0.2,0-0.3c0-0.9,0.1-1.9,0.3-2.8
	c0.1-0.8,0.3-1.5,0.5-2.3c0.5-2.1,1.2-4.1,2.1-6.1c0.7-1.4,1.5-2.8,2.3-4.2c0.1-0.1,0.2-0.2,0.4-0.2c0.1,0.4,0.1,0.8,0,1.2
	c-0.2,0-0.3,0.1-0.4,0.2c-0.5,0.9-1,1.9-1.5,2.8c-0.8,1.8-1.5,3.6-2,5.5c-0.3,1-0.5,2-0.6,3.1c-0.1,0.7-0.2,1.3-0.3,2
	c-0.1,0.5-0.1,1.1-0.1,1.6c-0.1,1.3-0.1,2.6,0,3.9c0.1,0.6,0.1,1.2,0.2,1.9c0.1,1.1,0.3,2.2,0.6,3.3c0.4,1.5,0.8,3,1.4,4.5
	c0.3,0.7,0.6,1.5,1,2.2s0.9,1.7,1.4,2.5c0.1,0.2,0.3,0.2,0.4,0.2c0,0.3,0,0.5,0,0.8C33.1,84.7,33.2,84.8,33.2,85z"/>
<linearGradient id="SVGID_26_" gradientUnits="userSpaceOnUse" x1="30.787" y1="101.6681" x2="30.787" y2="32.9254">
	<stop  offset="0" style="stop-color:#A2DED7"/>
	<stop  offset="1" style="stop-color:#F1A3A7"/>
</linearGradient>
<path class="st26" d="M33.3,83.8c-0.2,0-0.3-0.1-0.4-0.2c-0.5-0.8-0.9-1.7-1.4-2.5s-0.6-1.4-1-2.2c-0.6-1.5-1.1-3-1.5-4.6
	c-0.3-1.1-0.5-2.2-0.6-3.3c-0.1-0.6-0.1-1.2-0.2-1.9c-0.1-1.3-0.1-2.6,0-3.9c0-0.5,0.1-1.1,0.1-1.6c0.1-0.7,0.2-1.3,0.3-2
	c0.2-1,0.4-2,0.6-3.1c0.5-1.9,1.2-3.7,2-5.5c0.5-1,1-1.9,1.5-2.8c0.1-0.2,0.2-0.3,0.4-0.2c0,0.1,0,0.1,0.1,0.2c0,0.3,0,0.6,0,0.9
	c-0.3,0-0.3,0.2-0.5,0.4c-0.9,1.6-1.7,3.3-2.3,5.1c-0.4,1.2-0.7,2.4-1,3.7c-0.2,1.1-0.4,2.2-0.5,3.3c-0.1,0.7-0.1,1.4-0.2,2.2
	c0,1.1,0,2.2,0.1,3.2c0.1,0.7,0.1,1.5,0.2,2.2c0.2,1.3,0.5,2.7,0.8,4c0.7,2.5,1.7,4.9,2.9,7.2c0.1,0.2,0.2,0.3,0.4,0.3
	C33.4,83.1,33.4,83.5,33.3,83.8z"/>
<linearGradient id="SVGID_27_" gradientUnits="userSpaceOnUse" x1="49.6068" y1="101.6681" x2="49.6068" y2="32.9254">
	<stop  offset="0" style="stop-color:#A2DED7"/>
	<stop  offset="1" style="stop-color:#F1A3A7"/>
</linearGradient>
<path class="st27" d="M36.2,42.4c0-0.2,0-0.3,0-0.5c0.2-0.1,0.1-0.4,0.2-0.5c0-0.1,0-0.1,0-0.2c0.6-0.6,1.2-1.1,1.8-1.6
	c5-4,11.1-6.6,17.5-7.4c2.3-0.3,4.6-0.4,6.9-0.2l0.6,0.1c0,0.1,0,0.3-0.1,0.4c-0.1,0.1-0.2,0.2-0.1,0.4c0,0,0,0,0,0.1
	c-0.1,0-0.2,0-0.3,0.1c-0.3,0-0.7,0-1,0c-0.9-0.1-1.7-0.1-2.6,0c-0.7,0-1.3,0-2,0.1c-0.3,0.1-0.7,0.1-1.1,0.1
	c-1,0.2-2.1,0.3-3.1,0.6s-2,0.5-2.9,0.8c-1.2,0.4-2.3,0.8-3.4,1.3c-1.6,0.7-3.2,1.6-4.7,2.5c-1.8,1.1-3.5,2.5-5,3.9
	C36.6,42.3,36.4,42.4,36.2,42.4z"/>
<linearGradient id="SVGID_28_" gradientUnits="userSpaceOnUse" x1="63.1059" y1="101.6681" x2="63.1059" y2="32.9254">
	<stop  offset="0" style="stop-color:#A2DED7"/>
	<stop  offset="1" style="stop-color:#F1A3A7"/>
</linearGradient>
<path class="st28" d="M62.8,32.7c0-0.1,0-0.3,0.1-0.4c0.1-0.1,0.1-0.2,0.1-0.4c0.1,0,0.2,0,0.3,0C63.3,32.2,63.1,32.5,62.8,32.7z"/>
<linearGradient id="SVGID_29_" gradientUnits="userSpaceOnUse" x1="36.3119" y1="101.6681" x2="36.3119" y2="32.9254">
	<stop  offset="0" style="stop-color:#A2DED7"/>
	<stop  offset="1" style="stop-color:#F1A3A7"/>
</linearGradient>
<path class="st29" d="M36.4,41.1c0,0.1,0,0.1,0,0.2h-0.2C36.2,41.2,36.3,41.2,36.4,41.1z"/>
<linearGradient id="SVGID_30_" gradientUnits="userSpaceOnUse" x1="44.2" y1="101.6681" x2="44.2" y2="32.9254">
	<stop  offset="0" style="stop-color:#A2DED7"/>
	<stop  offset="1" style="stop-color:#F1A3A7"/>
</linearGradient>
<path class="st30" d="M51.4,101.1c-1.1-0.3-2.2-0.6-3.3-1c-3.9-1.4-7.6-3.5-10.7-6.2c-0.5-0.4-0.9-0.8-1.4-1.2v-1.2
	c0.1,0,0.3,0.1,0.4,0.2c0.5,0.5,1.1,1,1.6,1.4c0.8,0.7,1.7,1.4,2.6,2.1c1.6,1.1,3.3,2.1,5.1,2.9c1.6,0.7,3.2,1.3,4.8,1.7
	c0.4,0.1,0.8,0.2,1.3,0.3c0.2,0,0.5,0,0.5,0.3v0.1C52,100.5,51.6,100.7,51.4,101.1z"/>
<linearGradient id="SVGID_31_" gradientUnits="userSpaceOnUse" x1="35.98" y1="101.6681" x2="35.98" y2="32.9254">
	<stop  offset="0" style="stop-color:#A2DED7"/>
	<stop  offset="1" style="stop-color:#F1A3A7"/>
</linearGradient>
<path class="st31" d="M36.1,91.5v1.2c-0.1-0.1-0.2-0.1-0.2-0.3c0-0.4,0-0.8,0-1.2V91H36C36,91.2,36.1,91.3,36.1,91.5z"/>
<linearGradient id="SVGID_32_" gradientUnits="userSpaceOnUse" x1="51.9" y1="101.6681" x2="51.9" y2="32.9254">
	<stop  offset="0" style="stop-color:#A2DED7"/>
	<stop  offset="1" style="stop-color:#F1A3A7"/>
</linearGradient>
<path class="st32" d="M51.4,101.1c0.2-0.3,0.6-0.6,1-0.7v0.1c-0.2,0.2-0.6,0.3-0.8,0.6L51.4,101.1z"/>
<linearGradient id="SVGID_33_" gradientUnits="userSpaceOnUse" x1="51.6471" y1="101.6681" x2="51.6471" y2="32.9254">
	<stop  offset="0" style="stop-color:#A2DED7"/>
	<stop  offset="1" style="stop-color:#F1A3A7"/>
</linearGradient>
<path class="st33" d="M36,76.5v-19c0.4,0.2,0.4,0.2,0.5-0.2l0,0c0.4-1,0.9-1.9,1.4-2.8c0.9-1.5,1.9-2.9,3-4.2
	c0.5-0.7,1.1-1.3,1.8-1.8c0.6-0.5,1.3-1.1,1.9-1.6c1.3-1,2.7-1.9,4.1-2.6c1.4-0.7,2.8-1.3,4.3-1.7c1-0.3,2-0.5,3-0.7
	c0.7-0.1,1.4-0.3,2-0.6c0.1-0.1,0.3-0.1,0.4-0.1c-0.4,0.3-0.8,0.6-1.2,0.8c-0.8,0.4-1.7,0.8-2.6,1.1c-0.9,0.3-1.7,0.7-2.5,1.2
	c-0.7,0.5-1.1,1.3-1.2,2.1c0,0.5,0.1,1,0.5,1.4c0.3,0.5,0.7,0.9,1,1.4c0.2,0.3,0.2,0.5,0,0.7c-0.3,0.3-0.7,0.6-1.1,0.8
	c-0.4,0.2-0.7,0.6-0.8,1c-0.2,0.7,0,1.4,0.5,1.9c0.2,0.3,0.2,0.3-0.1,0.5c-0.4,0.3-0.8,0.6-1.1,1c-0.3,0.4-0.2,1,0.1,1.3
	c0.3,0.3,0.5,0.6,0.6,0.9c0.2,0.3,0.1,0.8-0.2,1c-0.5,0.5-0.9,1.1-1.1,1.8c-0.2,0.6-0.3,1.3-0.2,2c0.1,0.3,0.1,0.5,0.3,0.7
	c0.3,0.7,0.8,1.3,1.5,1.7c1.1,0.7,2.3,1.3,3.5,1.6c0.9,0.3,1.8,0.5,2.7,0.6c0.6,0.1,1.2,0.2,1.8,0.2c1.1,0.1,2.2,0.5,3.1,1.3
	c0.3,0.3,0.6,0.7,0.8,1.1c0.7,1.3,1.3,2.7,1.8,4.1c0.3,0.9,0.6,1.9,0.9,2.9c0.3,1.1,0.7,2.2,1.2,3.3c0.5,0.9,0.8,1.9,1,2.9
	c0,0.4,0,0.9-0.1,1.3c0,0.4-0.2,0.9-0.2,1.3c0,0.3-0.2,0.5-0.5,0.5c-1.1,0.2-2.1,0.6-3,1.2c-1,0.5-1.8,1.2-2.6,2
	c-0.7,0.7-1.2,1.6-1.6,2.5c-0.1,0.2-0.1,0.4-0.3,0.5c0-0.2-0.1-0.3-0.3-0.3c-0.6,0-1.1,0-1.7,0c-0.1,0-0.3,0-0.4,0
	c-0.3-0.1-0.7,0-0.9,0.3c-0.1,0.1-0.1,0.2-0.3,0.2c0-0.1,0-0.2,0.1-0.3c0.8-1.4,0.7-3.1-0.3-4.4c0-0.1-0.2-0.1-0.1-0.3l0.5-0.2
	c1-0.4,1.9-1.2,2.3-2.2c0.4-0.9,0.5-1.9,0.2-2.9c-0.3-1.5-1.1-2.8-2.3-3.7c-0.6-0.4-1.4-0.6-2.1-0.6c-0.4,0-0.8,0.1-1.2,0.2
	c-0.3,0.1-0.3,0-0.4-0.2c-0.1-1.6-1-3-2.5-3.6c-1.7-0.7-3.7-0.6-5.3,0.3c-1.1,0.7-1.8,1.8-1.9,3.1c0,0.3,0,0.4-0.5,0.4
	c-0.5-0.1-1-0.1-1.5-0.1c-1.1,0.1-2,0.7-2.7,1.5c-0.2,0.2-0.3,0.5-0.6,0.7c0-0.1,0-0.2,0.1-0.3c0.2-0.3,0.2-0.7,0-1
	c-0.3-0.6-0.6-1.2-0.9-1.8C36.4,76.4,36.4,76.4,36,76.5z"/>
<linearGradient id="SVGID_34_" gradientUnits="userSpaceOnUse" x1="47.817" y1="101.6681" x2="47.817" y2="32.9254">
	<stop  offset="0" style="stop-color:#A2DED7"/>
	<stop  offset="1" style="stop-color:#F1A3A7"/>
</linearGradient>
<path class="st34" d="M58.4,41.1c-0.1,0-0.3,0-0.4,0.1c-0.6,0.3-1.3,0.5-2,0.6c-1,0.2-2,0.4-3,0.7c-1.4,0.4-2.8,1-4.2,1.7
	c-1.4,0.8-2.8,1.6-4.1,2.6c-0.7,0.5-1.3,1.1-1.9,1.6c-0.6,0.6-1.2,1.2-1.8,1.8c-1.1,1.3-2.1,2.7-3,4.2c-0.5,0.9-1,1.8-1.4,2.8l0,0
	c-0.2,0.4-0.2,0.4-0.5,0.2v-3c0.1-0.4,0.1-0.7,0-1.1c0,0-0.1,0-0.1,0c0-0.6,0-1.3,0-1.9c0.3,0.1,0.6-0.1,0.7-0.4
	c0.1-0.2,0.3-0.5,0.5-0.7c0.6-0.9,1.3-1.8,2.1-2.6c0.8-0.9,1.7-1.8,2.7-2.5c1-0.9,2.2-1.6,3.3-2.3c0.9-0.5,1.9-1,2.8-1.5
	c0.9-0.4,1.8-0.8,2.7-1.1c1.9-0.6,3.8-1,5.7-1.3c1-0.1,2.1-0.2,3.1-0.2c0,0.2-0.2,0.3,0,0.5c0,0.1-0.1,0.2-0.2,0.3
	c-0.1,0-0.2,0-0.3,0.1s-0.4-0.1-0.6,0.1c-0.4,0.3-0.4,0.7,0,1.1v0.3C58.6,41,58.5,41.1,58.4,41.1z"/>
<linearGradient id="SVGID_35_" gradientUnits="userSpaceOnUse" x1="48.7119" y1="101.6681" x2="48.7119" y2="32.9254">
	<stop  offset="0" style="stop-color:#A2DED7"/>
	<stop  offset="1" style="stop-color:#F1A3A7"/>
</linearGradient>
<path class="st35" d="M35.9,45.3c0-0.3,0-0.5,0-0.8c0-0.1,0-0.2,0.1-0.3v0.1c0,0.1,0,0.3,0,0.4s0.1,0.2,0.2,0.2
	c0.1,0,0.3-0.1,0.4-0.2c0.1-0.2,0.2-0.3,0.4-0.4c0.3-0.3,0.7-0.6,1-1c0.7-0.7,1.4-1.3,2.2-1.9c1.7-1.4,3.6-2.5,5.6-3.5
	c0.7-0.3,1.3-0.6,2-0.9c1.2-0.5,2.5-1,3.8-1.3c0.9-0.3,1.9-0.5,2.8-0.6c0.9-0.2,1.9-0.3,2.8-0.4c0.7-0.1,1.4,0,2.1-0.1
	c0.7,0,1.5,0,2.2,0l0.1,0.1l-0.1,0.3h0c-0.1,0-0.1,0-0.2,0s0,0.1,0.1,0.1l-0.1,0.3L61,35.3c-0.1-0.1-0.2-0.1-0.4-0.1
	c-0.6,0-1.1,0-1.7,0.1c-1,0.1-2,0.2-3,0.3c-0.8,0.1-1.6,0.2-2.4,0.4c-1.6,0.4-3.3,0.8-4.8,1.5c-0.8,0.3-1.6,0.7-2.3,1s-1.3,0.7-2,1
	s-1.5,0.9-2.3,1.4s-1.4,1-2,1.5s-1.3,1.1-1.9,1.6c-0.6,0.6-1.2,1.1-1.7,1.8c-0.1,0.2-0.4,0.3-0.6,0.2C35.9,45.8,35.9,45.5,35.9,45.3
	z"/>
<linearGradient id="SVGID_36_" gradientUnits="userSpaceOnUse" x1="48.396" y1="101.6681" x2="48.396" y2="32.9254">
	<stop  offset="0" style="stop-color:#A2DED7"/>
	<stop  offset="1" style="stop-color:#F1A3A7"/>
</linearGradient>
<path class="st36" d="M35.9,48.3c0-0.4,0-0.9,0.1-1.3c0.2,0,0.4,0,0.6-0.2c0.2-0.2,0.4-0.5,0.6-0.7c0.6-0.5,1-1.1,1.6-1.7
	c0.8-0.7,1.7-1.5,2.5-2.1c1.4-1.1,2.9-2.1,4.5-2.9c1.7-0.9,3.5-1.6,5.3-2.2c0.9-0.3,1.8-0.5,2.7-0.7c0.8-0.2,1.7-0.3,2.5-0.4
	S58.1,36,59,36c0.6,0.1,1.3,0,1.9-0.2c0,0.1-0.1,0.2-0.1,0.3c-0.2,0.1-0.3,0.2-0.2,0.4v0.2c-0.1,0-0.1,0-0.2,0.1
	C60,36.9,59.5,37,59.1,37c-1,0-1.9,0.1-2.9,0.2c-1,0.1-2,0.3-3,0.6c-1.2,0.3-2.3,0.6-3.5,1c-0.9,0.3-1.7,0.7-2.6,1.1
	c-1,0.5-2,1-3,1.6c-1.8,1.1-3.6,2.4-5.1,3.9c-0.4,0.3-0.7,0.7-1,1.1s-0.9,1.1-1.4,1.6C36.5,48.3,36.2,48.4,35.9,48.3z"/>
<linearGradient id="SVGID_37_" gradientUnits="userSpaceOnUse" x1="52.135" y1="101.6681" x2="52.135" y2="32.9254">
	<stop  offset="0" style="stop-color:#A2DED7"/>
	<stop  offset="1" style="stop-color:#F1A3A7"/>
</linearGradient>
<path class="st37" d="M58.2,94.4c-0.1,0.9-0.6,1.8-1.4,2.3c-0.1,0.1-0.2,0.2-0.3,0.3c-0.1,0.1-0.1,0.2-0.3,0.2c0-0.1,0-0.2,0.1-0.3
	s0-0.3-0.2-0.3c-0.4,0-0.8-0.1-1.3-0.1c-0.7,0-1.3-0.1-2-0.2c-0.9-0.1-1.7-0.3-2.6-0.6c-1.1-0.3-2.2-0.7-3.3-1.2
	c-0.3-0.1-0.6-0.2-0.9-0.2c0.3-0.4,0.8-0.6,1.1-1c0.1-0.1,0.2,0,0.3,0s0.3,0.3,0.5,0.5c0.5,0.4,1,0.7,1.6,0.9
	c0.6,0.1,1.1,0.1,1.7,0.1c0.1,0.1,0.2,0,0.2-0.1l0.6-0.1c0.2,0,0.5,0,0.6-0.3h0.1c0.2,0,0.4-0.2,0.6-0.2c0,0,0.1,0.1,0.1,0.1
	c0.6,0,1.2,0.1,1.9,0.1s1.1,0,1.6,0C57.4,94.1,57.8,94.2,58.2,94.4z"/>
<linearGradient id="SVGID_38_" gradientUnits="userSpaceOnUse" x1="48.5011" y1="101.6681" x2="48.5011" y2="32.9254">
	<stop  offset="0" style="stop-color:#A2DED7"/>
	<stop  offset="1" style="stop-color:#F1A3A7"/>
</linearGradient>
<path class="st38" d="M60.9,35.8C60.3,36,59.6,36.1,59,36c-0.9,0-1.8,0.1-2.7,0.2s-1.7,0.2-2.5,0.4c-0.9,0.2-1.8,0.4-2.7,0.7
	c-1.8,0.6-3.6,1.3-5.3,2.2c-1.6,0.8-3.1,1.8-4.5,2.9c-0.9,0.7-1.7,1.4-2.5,2.1c-0.6,0.5-1,1.1-1.6,1.7c-0.2,0.2-0.4,0.5-0.6,0.7
	C36.4,47,36.2,47,36,47c0-0.1,0-0.1,0-0.2c0,0,0-0.1,0-0.2c-0.1-0.2-0.1-0.4,0-0.5c0.2,0,0.4,0,0.6-0.2c0.5-0.6,1.1-1.2,1.7-1.8
	c0.6-0.6,1.2-1.1,1.9-1.6s1.3-1,2-1.5s1.5-1,2.3-1.4s1.3-0.7,2-1s1.6-0.7,2.3-1c1.6-0.6,3.2-1.1,4.8-1.5c0.8-0.2,1.6-0.3,2.4-0.4
	c1-0.1,2-0.2,3-0.3c0.6,0,1.1,0,1.7-0.1c0.1,0,0.3,0,0.4,0.1s-0.1,0.2-0.1,0.4L60.9,35.8z"/>
<linearGradient id="SVGID_39_" gradientUnits="userSpaceOnUse" x1="56.155" y1="101.6681" x2="56.155" y2="32.9254">
	<stop  offset="0" style="stop-color:#A2DED7"/>
	<stop  offset="1" style="stop-color:#F1A3A7"/>
</linearGradient>
<path class="st39" d="M58.2,94.4c-0.4-0.2-0.8-0.2-1.2-0.2c-0.5,0-1.1,0-1.6,0s-1.2-0.1-1.9-0.1c0,0-0.1,0-0.1-0.1
	c0.1-0.2,0.3-0.2,0.4-0.3s0.3-0.2,0.3-0.3c0.4-0.4,0.8-0.8,1.2-1.2c0.2,0,0.2-0.1,0.3-0.2c0.2-0.3,0.6-0.4,0.9-0.3
	c0.1,0,0.3,0,0.4,0c0.6,0,1.1,0,1.7,0c0.2,0,0.3,0.2,0.3,0.3c0,0.1,0,0.2,0,0.3s-0.2,0-0.1,0.2C58.7,93.1,58.5,93.7,58.2,94.4z"/>
<linearGradient id="SVGID_40_" gradientUnits="userSpaceOnUse" x1="50.465" y1="101.6681" x2="50.465" y2="32.9254">
	<stop  offset="0" style="stop-color:#A2DED7"/>
	<stop  offset="1" style="stop-color:#F1A3A7"/>
</linearGradient>
<path class="st40" d="M55.8,97.8V98c-0.2,0-0.2,0.1-0.2,0.3h-0.3c0-0.2-0.2-0.3-0.4-0.3c-0.4,0-0.9,0-1.3-0.1
	c-0.7-0.1-1.3-0.2-2-0.3c-1.2-0.2-2.3-0.6-3.4-1c-0.8-0.3-1.6-0.7-2.3-1c-0.4-0.1-0.7-0.4-1-0.6c0.3-0.1,0.7-0.3,1.1-0.3
	c0,0.1,0.1,0.2,0.2,0.3c0.5,0.2,0.9,0.4,1.4,0.6c1,0.4,2,0.7,3,1c1.6,0.4,3.3,0.7,5,0.8c0.2,0,0.4,0.1,0.5,0.3
	C55.9,97.6,55.8,97.7,55.8,97.8z"/>
<linearGradient id="SVGID_41_" gradientUnits="userSpaceOnUse" x1="51.217" y1="101.6681" x2="51.217" y2="32.9254">
	<stop  offset="0" style="stop-color:#A2DED7"/>
	<stop  offset="1" style="stop-color:#F1A3A7"/>
</linearGradient>
<path class="st41" d="M56,97.5c-0.1-0.2-0.3-0.3-0.5-0.3c-1.7-0.1-3.4-0.3-5-0.8c-1-0.3-2-0.6-3-1c-0.4-0.2-0.9-0.4-1.4-0.6
	c-0.1,0-0.2-0.1-0.2-0.3v-0.2c0.1,0,0.2,0,0.2-0.1c0.3,0,0.6,0.1,0.9,0.2c1.1,0.5,2.2,0.9,3.3,1.2c0.8,0.2,1.7,0.4,2.6,0.6
	c0.7,0.1,1.3,0.2,2,0.2c0.4,0,0.8,0.1,1.3,0.1c0.2,0,0.3,0.1,0.2,0.3s-0.1,0.2-0.1,0.3s0,0.3-0.2,0.3L56,97.5z"/>
<linearGradient id="SVGID_42_" gradientUnits="userSpaceOnUse" x1="60.1644" y1="101.6681" x2="60.1644" y2="32.9254">
	<stop  offset="0" style="stop-color:#A2DED7"/>
	<stop  offset="1" style="stop-color:#F1A3A7"/>
</linearGradient>
<path class="st42" d="M60.3,36.8c0-0.1,0.1-0.1,0.2-0.1c-0.1,0.6-0.3,1.1-0.6,1.6h-0.1c0-0.2,0-0.4,0.1-0.5
	C60.1,37.4,60.3,37.1,60.3,36.8z"/>
<linearGradient id="SVGID_43_" gradientUnits="userSpaceOnUse" x1="55.275" y1="101.6681" x2="55.275" y2="32.9254">
	<stop  offset="0" style="stop-color:#A2DED7"/>
	<stop  offset="1" style="stop-color:#F1A3A7"/>
</linearGradient>
<path class="st43" d="M55.4,98.2h0.3c-0.1,0.3-0.4,0.5-0.7,0.5v-0.1C55,98.5,55.3,98.4,55.4,98.2z"/>
<linearGradient id="SVGID_44_" gradientUnits="userSpaceOnUse" x1="59.7428" y1="101.6681" x2="59.7428" y2="32.9254">
	<stop  offset="0" style="stop-color:#A2DED7"/>
	<stop  offset="1" style="stop-color:#F1A3A7"/>
</linearGradient>
<path class="st44" d="M59.8,38.3L59.8,38.3c0,0.3,0,0.6-0.2,0.9c-0.2-0.2,0-0.3,0-0.5S59.7,38.4,59.8,38.3z"/>
<linearGradient id="SVGID_45_" gradientUnits="userSpaceOnUse" x1="54.61" y1="101.6681" x2="54.61" y2="32.9254">
	<stop  offset="0" style="stop-color:#A2DED7"/>
	<stop  offset="1" style="stop-color:#F1A3A7"/>
</linearGradient>
<path class="st45" d="M54.9,98.7v0.1c-0.1,0.2-0.3,0.2-0.5,0.4h-0.2c0-0.2,0.2-0.3,0.4-0.4C54.7,98.7,54.8,98.7,54.9,98.7z"/>
<linearGradient id="SVGID_46_" gradientUnits="userSpaceOnUse" x1="60.6526" y1="101.6681" x2="60.6526" y2="32.9254">
	<stop  offset="0" style="stop-color:#A2DED7"/>
	<stop  offset="1" style="stop-color:#F1A3A7"/>
</linearGradient>
<path class="st46" d="M60.5,36.5c0-0.2,0.1-0.3,0.2-0.4C60.8,36.3,60.7,36.5,60.5,36.5z"/>
<linearGradient id="SVGID_47_" gradientUnits="userSpaceOnUse" x1="55.9634" y1="101.6681" x2="55.9634" y2="32.9254">
	<stop  offset="0" style="stop-color:#A2DED7"/>
	<stop  offset="1" style="stop-color:#F1A3A7"/>
</linearGradient>
<path class="st47" d="M56,97.5L56,97.5c0.1,0.1,0,0.3-0.1,0.3c0,0,0,0,0,0C55.8,97.7,55.9,97.6,56,97.5z"/>
<linearGradient id="SVGID_48_" gradientUnits="userSpaceOnUse" x1="59.35" y1="101.6681" x2="59.35" y2="32.9254">
	<stop  offset="0" style="stop-color:#A2DED7"/>
	<stop  offset="1" style="stop-color:#F1A3A7"/>
</linearGradient>
<path class="st48" d="M59.2,39.5c0.1-0.1,0.2-0.1,0.3-0.1C59.4,39.6,59.3,39.6,59.2,39.5z"/>
<linearGradient id="SVGID_49_" gradientUnits="userSpaceOnUse" x1="55.71" y1="101.6681" x2="55.71" y2="32.9254">
	<stop  offset="0" style="stop-color:#A2DED7"/>
	<stop  offset="1" style="stop-color:#F1A3A7"/>
</linearGradient>
<path class="st49" d="M55.6,98.2c0-0.1,0-0.3,0.2-0.3C55.8,98.1,55.7,98.2,55.6,98.2z"/>
<linearGradient id="SVGID_50_" gradientUnits="userSpaceOnUse" x1="58.675" y1="101.6681" x2="58.675" y2="32.9254">
	<stop  offset="0" style="stop-color:#A2DED7"/>
	<stop  offset="1" style="stop-color:#F1A3A7"/>
</linearGradient>
<path class="st50" d="M58.6,40.9v-0.3C58.8,40.8,58.8,40.8,58.6,40.9z"/>
<linearGradient id="SVGID_51_" gradientUnits="userSpaceOnUse" x1="61.351" y1="101.6681" x2="61.351" y2="32.9254">
	<stop  offset="0" style="stop-color:#A2DED7"/>
	<stop  offset="1" style="stop-color:#F1A3A7"/>
</linearGradient>
<path class="st51" d="M61.3,34.9c0,0-0.1,0-0.1-0.1s0.1,0,0.2,0C61.4,34.9,61.4,34.9,61.3,34.9z"/>
<linearGradient id="SVGID_52_" gradientUnits="userSpaceOnUse" x1="58.8741" y1="101.6681" x2="58.8741" y2="32.9254">
	<stop  offset="0" style="stop-color:#A2DED7"/>
	<stop  offset="1" style="stop-color:#F1A3A7"/>
</linearGradient>
<path class="st52" d="M58.9,92.3c-0.1-0.1,0-0.2,0.1-0.2C59,92.2,58.9,92.3,58.9,92.3z"/>
<linearGradient id="SVGID_53_" gradientUnits="userSpaceOnUse" x1="48.111" y1="101.6681" x2="48.111" y2="32.9254">
	<stop  offset="0" style="stop-color:#A2DED7"/>
	<stop  offset="1" style="stop-color:#F1A3A7"/>
</linearGradient>
<path class="st53" d="M59.8,38.3c-0.1,0.1-0.1,0.3-0.2,0.4c-1,0.1-2.1,0.1-3.1,0.2c-1.9,0.2-3.9,0.7-5.7,1.3
	c-0.9,0.3-1.8,0.7-2.7,1.1c-1,0.4-1.9,0.9-2.8,1.5c-1.2,0.7-2.3,1.5-3.3,2.3c-1,0.8-1.8,1.6-2.7,2.5c-0.8,0.8-1.5,1.7-2.1,2.6
	c-0.2,0.2-0.3,0.4-0.5,0.7c-0.1,0.3-0.4,0.5-0.7,0.4c-0.1-1-0.1-2,0-3c0.3,0.1,0.5-0.1,0.7-0.3c0.5-0.5,0.9-1.1,1.4-1.6
	s0.7-0.8,1-1.1c1.5-1.5,3.2-2.8,5.1-3.9c1-0.6,2-1.1,3-1.6c0.8-0.4,1.7-0.8,2.6-1.1c1.1-0.4,2.3-0.7,3.5-1c1-0.2,2-0.4,3-0.6
	c1-0.1,1.9-0.2,2.9-0.2c0.4,0,0.9,0,1.3-0.2c-0.1,0.3-0.2,0.6-0.4,1C59.8,37.9,59.8,38.1,59.8,38.3z"/>
<linearGradient id="SVGID_54_" gradientUnits="userSpaceOnUse" x1="37.6897" y1="101.6681" x2="37.6897" y2="32.9254">
	<stop  offset="0" style="stop-color:#A2DED7"/>
	<stop  offset="1" style="stop-color:#F1A3A7"/>
</linearGradient>
<path class="st54" d="M35.9,85.8c0-0.1,0-0.3,0-0.4v-3.2c0.3-0.1,0.5,0.1,0.7,0.3V83c-0.2,0.1-0.2,0.2,0,0.4c0,0.4,0.2,0.7,0.2,1.1
	s0,0.5,0.3,0.6v0.1c0,0.1,0,0.2,0.1,0.2c0,0,0,0,0.1,0c0,0,0,0,0,0.1c0.1,0.4,0.5,0.7,0.9,0.8l0,0c0,0.2,0.2,0.3,0.3,0.4
	s0.5,0.3,0.8,0.4s0.2,0.2,0.1,0.3c-0.1,0.2-0.2,0.4-0.2,0.6L39,88.5c-0.1,0-0.2,0.1-0.1,0.2c-0.1,0.2-0.1,0.4-0.1,0.6h-0.1
	c-0.2-0.1-0.1-0.3,0-0.4c0.1-0.2,0-0.5-0.2-0.6c-0.2-0.2-0.4-0.4-0.6-0.6c-0.5-0.5-0.9-1-1.3-1.6C36.5,85.8,36.2,85.7,35.9,85.8z"/>
<linearGradient id="SVGID_55_" gradientUnits="userSpaceOnUse" x1="36.752" y1="101.6681" x2="36.752" y2="32.9254">
	<stop  offset="0" style="stop-color:#A2DED7"/>
	<stop  offset="1" style="stop-color:#F1A3A7"/>
</linearGradient>
<path class="st55" d="M36.6,82.4c-0.2-0.1-0.4-0.4-0.7-0.3c0-0.5,0-0.9,0-1.4c0,0,0.1,0,0.1-0.1c0.1-0.3,0.1-0.7,0-1v-3.2
	c0.4-0.1,0.4-0.1,0.5,0.3c0.2,0.6,0.5,1.2,0.9,1.8c0.2,0.3,0.2,0.7,0,1c-0.1,0.1-0.1,0.2-0.1,0.3c0,0.2-0.1,0.4-0.2,0.6
	C36.9,81.1,36.6,81.7,36.6,82.4z"/>
<linearGradient id="SVGID_56_" gradientUnits="userSpaceOnUse" x1="37.2937" y1="101.6681" x2="37.2937" y2="32.9254">
	<stop  offset="0" style="stop-color:#A2DED7"/>
	<stop  offset="1" style="stop-color:#F1A3A7"/>
</linearGradient>
<path class="st56" d="M35.9,85.8c0.3-0.1,0.6,0.1,0.7,0.3c0.4,0.6,0.8,1.1,1.3,1.6c0.2,0.2,0.4,0.4,0.6,0.6c0.2,0.2,0.2,0.4,0.2,0.6
	c0,0.1-0.1,0.3,0,0.4v0.3c-0.4,0-0.6-0.4-0.9-0.6s-0.6-0.6-0.9-0.9s-0.3-0.4-0.5-0.6s-0.3-0.2-0.4,0.1h-0.1
	C35.9,87,35.9,86.4,35.9,85.8z"/>
<linearGradient id="SVGID_57_" gradientUnits="userSpaceOnUse" x1="35.9191" y1="101.6681" x2="35.9191" y2="32.9254">
	<stop  offset="0" style="stop-color:#A2DED7"/>
	<stop  offset="1" style="stop-color:#F1A3A7"/>
</linearGradient>
<path class="st57" d="M35.9,87.6L35.9,87.6c0.1,0.5,0.1,1,0.1,1.5c0,0.2,0,0.5,0.1,0.7v0.9L36,91h-0.2c-0.1-0.1-0.1-0.2-0.1-0.3
	c0-0.9,0-1.8,0-2.7C35.8,87.8,35.8,87.7,35.9,87.6z"/>
<linearGradient id="SVGID_58_" gradientUnits="userSpaceOnUse" x1="35.9981" y1="101.6681" x2="35.9981" y2="32.9254">
	<stop  offset="0" style="stop-color:#A2DED7"/>
	<stop  offset="1" style="stop-color:#F1A3A7"/>
</linearGradient>
<path class="st58" d="M35.9,53.2c0,0,0.1,0,0.1,0c0.1,0.4,0.1,0.7,0,1.1C35.9,54,35.9,53.6,35.9,53.2z"/>
<linearGradient id="SVGID_59_" gradientUnits="userSpaceOnUse" x1="35.9773" y1="101.6681" x2="35.9773" y2="32.9254">
	<stop  offset="0" style="stop-color:#A2DED7"/>
	<stop  offset="1" style="stop-color:#F1A3A7"/>
</linearGradient>
<path class="st59" d="M36,79.7c0.1,0.3,0.1,0.7,0,1c0,0-0.1,0-0.1,0.1C35.8,80.4,35.9,80.1,36,79.7z"/>
<linearGradient id="SVGID_60_" gradientUnits="userSpaceOnUse" x1="35.9416" y1="101.6681" x2="35.9416" y2="32.9254">
	<stop  offset="0" style="stop-color:#A2DED7"/>
	<stop  offset="1" style="stop-color:#F1A3A7"/>
</linearGradient>
<path class="st60" d="M35.9,46.7c0,0,0,0.1,0,0.2C35.9,46.8,35.9,46.7,35.9,46.7z"/>
<linearGradient id="SVGID_61_" gradientUnits="userSpaceOnUse" x1="31.1542" y1="101.6681" x2="31.1542" y2="32.9254">
	<stop  offset="0" style="stop-color:#A2DED7"/>
	<stop  offset="1" style="stop-color:#F1A3A7"/>
</linearGradient>
<path class="st61" d="M33.3,82.8c-0.2,0-0.3-0.1-0.4-0.3c-1.2-2.3-2.2-4.7-2.9-7.2c-0.3-1.3-0.6-2.7-0.8-4C29,70.6,29,69.9,29,69.1
	c-0.1-1.1-0.1-2.2-0.1-3.2c0-0.7,0.1-1.5,0.2-2.2c0.1-1.1,0.3-2.2,0.5-3.3c0.3-1.3,0.6-2.5,1-3.7c0.6-1.8,1.4-3.5,2.3-5.1
	c0.1-0.2,0.2-0.5,0.5-0.4c0,0.5,0,1,0,1.5c0,0.6,0,1.2,0,1.8c-0.2,0-0.3,0.1-0.3,0.2c-0.1,0.2-0.2,0.3-0.2,0.5c-0.4,1-0.8,2-1.1,3
	c-0.1,0.5-0.3,1.1-0.4,1.6c-0.2,1-0.4,2-0.6,3.1c-0.1,0.7-0.2,1.4-0.2,2.1c-0.1,2.1,0,4.2,0.2,6.3c0.2,1,0.3,1.9,0.5,2.9
	c0.3,1.2,0.7,2.4,1.1,3.6c0.2,0.5,0.4,1.1,0.6,1.6c0.1,0.2,0.2,0.3,0.4,0.3C33.3,80.6,33.4,81.7,33.3,82.8z"/>
<linearGradient id="SVGID_62_" gradientUnits="userSpaceOnUse" x1="29.8062" y1="101.6681" x2="29.8062" y2="32.9254">
	<stop  offset="0" style="stop-color:#A2DED7"/>
	<stop  offset="1" style="stop-color:#F1A3A7"/>
</linearGradient>
<path class="st62" d="M33.3,87.3c-0.2-0.1-0.4-0.2-0.5-0.4c-0.6-0.8-1.2-1.7-1.7-2.6c-0.8-1.3-1.5-2.7-2.1-4.2
	c-0.4-0.9-0.7-1.9-1.1-2.9c-0.3-1-0.6-2-0.8-3.1c-0.2-0.8-0.4-1.7-0.5-2.6s-0.2-2-0.3-3c-0.1-0.8-0.1-1.5-0.1-2.3
	c0-0.8,0.1-1.6,0.1-2.3s0.1-1.3,0.2-1.9s0.3-1.3,0.4-2c0.3-1.6,0.7-3.1,1.3-4.6c0.6-1.6,1.3-3.2,2.1-4.7c0.3-0.6,0.7-1.2,1-1.8
	s0.9-1.3,1.4-2c0.1-0.1,0.2-0.2,0.3-0.2v1.1c0,0.1,0,0.2-0.1,0.3c-0.3,0.4-0.6,0.8-0.8,1.2c-0.7,1.1-1.3,2.2-1.9,3.4
	c-0.6,1.3-1.1,2.7-1.6,4c-0.3,1-0.6,2.1-0.9,3.1c-0.1,0.6-0.2,1.1-0.3,1.7c-0.1,0.8-0.2,1.5-0.3,2.3c0,0,0,0.1,0,0.1
	c-0.1,1.5-0.1,3-0.1,4.5c0,0.7,0.1,1.4,0.2,2.1c0.1,0.9,0.2,1.7,0.4,2.6c0.1,0.7,0.3,1.4,0.5,2c0.2,0.9,0.5,1.8,0.8,2.7
	c0.3,0.7,0.6,1.4,0.9,2.2s0.6,1.2,0.9,1.8c0.5,1,1.1,2,1.7,2.9c0.1,0.1,0.2,0.3,0.3,0.4c0.1,0.2,0.3,0.3,0.5,0.3
	C33.4,86.2,33.4,86.8,33.3,87.3z"/>
<linearGradient id="SVGID_63_" gradientUnits="userSpaceOnUse" x1="31.8975" y1="101.6681" x2="31.8975" y2="32.9254">
	<stop  offset="0" style="stop-color:#A2DED7"/>
	<stop  offset="1" style="stop-color:#F1A3A7"/>
</linearGradient>
<path class="st63" d="M33.3,79.6c-0.2,0-0.3-0.1-0.4-0.3c-0.2-0.5-0.5-1-0.6-1.6c-0.4-1.2-0.8-2.4-1.1-3.6c-0.2-1-0.4-1.9-0.5-2.9
	c-0.2-2.1-0.3-4.2-0.2-6.2c0-0.7,0.1-1.4,0.2-2.1c0.1-1,0.3-2.1,0.6-3.1c0.1-0.5,0.3-1.1,0.4-1.6c0.3-1,0.7-2,1.1-3
	c0.1-0.2,0.2-0.3,0.2-0.5c0-0.1,0.2-0.2,0.3-0.2c0,0.2,0,0.4,0,0.6c-0.1,0.1-0.1,0.3-0.1,0.4c0,0.7,0,1.5,0,2.2
	C33,57.8,33,58,32.9,58.2c-0.1,0.4-0.2,0.8-0.3,1.2c-0.3,1.1-0.5,2.3-0.7,3.4c-0.1,0.6-0.1,1.1-0.2,1.7c-0.1,0.7,0,1.5-0.1,2.2
	s0.1,1.3,0.1,2c0,0.5,0,1,0.1,1.5c0.1,0.8,0.2,1.5,0.3,2.2c0.2,1.2,0.5,2.4,0.9,3.5c0,0.2,0.1,0.3,0.3,0.3c0,0.7,0,1.5,0,2.2
	c0,0.1,0,0.3,0.1,0.4C33.4,79.1,33.4,79.3,33.3,79.6z"/>
<linearGradient id="SVGID_64_" gradientUnits="userSpaceOnUse" x1="33.2915" y1="101.6681" x2="33.2915" y2="32.9254">
	<stop  offset="0" style="stop-color:#A2DED7"/>
	<stop  offset="1" style="stop-color:#F1A3A7"/>
</linearGradient>
<path class="st64" d="M33.3,57.7c0-0.7,0-1.5,0-2.2c0-0.1,0-0.3,0.1-0.4c0.2,0.2,0.1,0.3,0.1,0.5c0,3,0,6.1,0,9.1v13.7
	c0,0.2,0.1,0.3-0.1,0.5c-0.1-0.1-0.1-0.3-0.1-0.4c0-0.7,0-1.5,0-2.2c0-1.3-0.1-2.6-0.1-3.9c0-3.9-0.1-7.8,0-11.6
	C33.3,59.8,33.3,58.7,33.3,57.7z"/>
<linearGradient id="SVGID_65_" gradientUnits="userSpaceOnUse" x1="33.2718" y1="101.6681" x2="33.2718" y2="32.9254">
	<stop  offset="0" style="stop-color:#A2DED7"/>
	<stop  offset="1" style="stop-color:#F1A3A7"/>
</linearGradient>
<path class="st65" d="M33.2,85c0-0.1-0.1-0.3,0.2-0.3c0,0.3,0,0.5,0,0.8C33.1,85.4,33.2,85.1,33.2,85z"/>
<linearGradient id="SVGID_66_" gradientUnits="userSpaceOnUse" x1="49.095" y1="101.6681" x2="49.095" y2="32.9254">
	<stop  offset="0" style="stop-color:#A2DED7"/>
	<stop  offset="1" style="stop-color:#F1A3A7"/>
</linearGradient>
<path class="st66" d="M36,44.2L36,44.2c0-0.4,0-0.7,0-0.9h0.1c0.1,0,0.2,0,0.3-0.1c0.3-0.3,0.6-0.5,0.9-0.8c0.5-0.5,1.1-1,1.7-1.5
	c1-0.8,2-1.6,3.1-2.2c1.7-1.1,3.5-2,5.3-2.8c1.5-0.6,3-1.1,4.6-1.5c1.1-0.3,2.2-0.5,3.4-0.6c0.5,0,0.9-0.1,1.4-0.2
	c0.5-0.1,1-0.1,1.4-0.1c1.2,0,2.3,0,3.5,0c0.1,0,0.3,0,0.4,0.1c-0.1,0.1-0.3,0.2-0.2,0.4c0,0,0,0,0,0.1c-0.1,0-0.2,0-0.2,0.1
	c-1.7,0-3.3,0-5,0.2c-0.9,0.1-1.8,0.2-2.7,0.4c-1.5,0.3-2.9,0.7-4.4,1.2c-1.1,0.4-2.2,0.8-3.2,1.3c-1.3,0.6-2.7,1.3-3.9,2.1
	c-0.8,0.5-1.6,1.1-2.4,1.7c-0.7,0.5-1.3,1-2,1.6s-1.2,1-1.7,1.6C36.4,44.2,36.2,44.2,36,44.2z"/>
<linearGradient id="SVGID_67_" gradientUnits="userSpaceOnUse" x1="49.325" y1="101.6681" x2="49.325" y2="32.9254">
	<stop  offset="0" style="stop-color:#A2DED7"/>
	<stop  offset="1" style="stop-color:#F1A3A7"/>
</linearGradient>
<path class="st67" d="M62.2,33.4c-0.1-0.1-0.3-0.1-0.4-0.1c-1.2,0-2.3,0-3.5,0c-0.5,0-1,0.1-1.4,0.1c-0.5,0.1-0.9,0.1-1.4,0.2
	c-1.1,0.1-2.3,0.4-3.4,0.6c-1.6,0.4-3.1,0.9-4.6,1.5c-1.9,0.8-3.6,1.7-5.3,2.8c-1.1,0.7-2.1,1.4-3.1,2.2c-0.6,0.5-1.2,1-1.7,1.5
	c-0.3,0.3-0.6,0.5-0.9,0.8c-0.1,0.1-0.2,0.1-0.3,0.1c-0.1-0.2,0.1-0.5-0.1-0.7c0-0.1,0-0.1,0.1-0.2c0.3,0,0.5-0.1,0.7-0.3
	c1.5-1.5,3.2-2.8,5-3.9c1.5-0.9,3.1-1.8,4.7-2.5c1.1-0.5,2.2-0.9,3.4-1.3c1-0.3,1.9-0.5,2.9-0.8s2.1-0.4,3.1-0.6
	c0.3-0.1,0.7,0,1.1-0.1c0.7-0.1,1.3-0.1,2-0.1c0.9-0.1,1.7-0.1,2.6,0c0.3,0,0.7,0,1,0c-0.1,0.1-0.2,0.2-0.2,0.5L62.2,33.4L62.2,33.4
	z"/>
<linearGradient id="SVGID_68_" gradientUnits="userSpaceOnUse" x1="48.945" y1="101.6681" x2="48.945" y2="32.9254">
	<stop  offset="0" style="stop-color:#A2DED7"/>
	<stop  offset="1" style="stop-color:#F1A3A7"/>
</linearGradient>
<path class="st68" d="M36,44.2c0.2,0,0.4,0,0.5-0.2c0.5-0.6,1.2-1.1,1.8-1.7s1.3-1.1,2-1.6c0.8-0.6,1.6-1.2,2.4-1.7
	c1.3-0.8,2.6-1.5,3.9-2.1c1.1-0.5,2.1-0.9,3.2-1.3c1.4-0.5,2.9-0.9,4.4-1.2c0.9-0.2,1.8-0.3,2.7-0.4c1.7-0.2,3.3-0.2,5-0.2l0.1,0.1
	c0,0.1-0.1,0.2-0.2,0.3c-0.1,0-0.2,0-0.2,0.1c-0.7,0-1.5,0-2.2,0c-0.7,0.1-1.4,0.1-2.1,0.1c-1,0.1-1.9,0.2-2.8,0.4
	c-0.9,0.2-1.9,0.4-2.8,0.6c-1.3,0.3-2.5,0.8-3.8,1.3c-0.7,0.3-1.4,0.6-2,0.9c-2,1-3.9,2.2-5.6,3.5c-0.8,0.6-1.5,1.2-2.2,1.9
	c-0.3,0.3-0.7,0.6-1,1c-0.1,0.1-0.3,0.3-0.4,0.4c-0.1,0.1-0.2,0.2-0.4,0.2c-0.1,0-0.2,0-0.2-0.2S36,44.3,36,44.2z"/>
<linearGradient id="SVGID_69_" gradientUnits="userSpaceOnUse" x1="62.5863" y1="101.6681" x2="62.5863" y2="32.9254">
	<stop  offset="0" style="stop-color:#A2DED7"/>
	<stop  offset="1" style="stop-color:#F1A3A7"/>
</linearGradient>
<path class="st69" d="M62.4,33.3c-0.1-0.2,0.1-0.3,0.2-0.5s0.2-0.1,0.3-0.1C62.7,33,62.6,33.2,62.4,33.3z"/>
<linearGradient id="SVGID_70_" gradientUnits="userSpaceOnUse" x1="62.1108" y1="101.6681" x2="62.1108" y2="32.9254">
	<stop  offset="0" style="stop-color:#A2DED7"/>
	<stop  offset="1" style="stop-color:#F1A3A7"/>
</linearGradient>
<path class="st70" d="M62.2,33.4L62.2,33.4c0.1,0.2-0.1,0.3-0.2,0.4C61.9,33.6,62.1,33.5,62.2,33.4z"/>
<linearGradient id="SVGID_71_" gradientUnits="userSpaceOnUse" x1="61.59" y1="101.6681" x2="61.59" y2="32.9254">
	<stop  offset="0" style="stop-color:#A2DED7"/>
	<stop  offset="1" style="stop-color:#F1A3A7"/>
</linearGradient>
<path class="st71" d="M61.5,34.4c0-0.1,0.1-0.1,0.2-0.1c0,0.1,0,0.1-0.1,0.2L61.5,34.4z"/>
<linearGradient id="SVGID_72_" gradientUnits="userSpaceOnUse" x1="61.8595" y1="101.6681" x2="61.8595" y2="32.9254">
	<stop  offset="0" style="stop-color:#A2DED7"/>
	<stop  offset="1" style="stop-color:#F1A3A7"/>
</linearGradient>
<path class="st72" d="M61.9,34.1L61.8,34c0-0.1,0-0.1,0.1-0.1c0.1,0,0.1,0,0.1,0.1C62,34,61.9,34.1,61.9,34.1
	C61.9,34.1,61.9,34.1,61.9,34.1z"/>
<linearGradient id="SVGID_73_" gradientUnits="userSpaceOnUse" x1="36.0705" y1="101.6681" x2="36.0705" y2="32.9254">
	<stop  offset="0" style="stop-color:#A2DED7"/>
	<stop  offset="1" style="stop-color:#F1A3A7"/>
</linearGradient>
<path class="st73" d="M36.1,42.5c0.2,0.2,0,0.5,0.1,0.7H36C36,43,35.9,42.8,36.1,42.5z"/>
<linearGradient id="SVGID_74_" gradientUnits="userSpaceOnUse" x1="36.2608" y1="101.6681" x2="36.2608" y2="32.9254">
	<stop  offset="0" style="stop-color:#A2DED7"/>
	<stop  offset="1" style="stop-color:#F1A3A7"/>
</linearGradient>
<path class="st74" d="M36.3,41.3L36.3,41.3c0.1,0.2,0.1,0.4-0.1,0.5C36.1,41.7,36.2,41.5,36.3,41.3z"/>
<linearGradient id="SVGID_75_" gradientUnits="userSpaceOnUse" x1="44.8951" y1="101.6681" x2="44.8951" y2="32.9254">
	<stop  offset="0" style="stop-color:#A2DED7"/>
	<stop  offset="1" style="stop-color:#F1A3A7"/>
</linearGradient>
<path class="st75" d="M36.1,90.7v-0.9c0.2,0,0.3,0.1,0.5,0.3c0.5,0.6,1.2,1.1,1.8,1.7c0.2,0.2,0.5,0.4,0.7,0.6s0.4,0.4,0.7,0.4
	c0.2,0.2,0.4,0.4,0.6,0.6c0.1,0.1,0.2,0.2,0.3,0.2h0.1c0.1,0.2,0.2,0.3,0.5,0.3h0.1c0,0.1,0,0.2,0.2,0.2c0.1,0.2,0.3,0.3,0.5,0.4
	c0.5,0.4,1.1,0.7,1.7,1.1c0.9,0.5,1.9,1,2.8,1.4c1.1,0.5,2.2,0.9,3.3,1.2c0.6,0.2,1.1,0.3,1.7,0.4s1.3,0.2,2,0.4
	c0.2,0,0.3,0.1,0.3,0.3s-0.4,0.2-0.5,0.5h-0.1H53c0-0.2-0.1-0.3-0.3-0.4l-1.1-0.2c-1-0.2-2.1-0.5-3.1-0.8c-1.4-0.5-2.9-1.1-4.2-1.8
	c-0.7-0.4-1.4-0.8-2.1-1.2c-0.9-0.6-1.8-1.2-2.7-1.9c-0.5-0.4-1-0.8-1.5-1.2c-0.5-0.5-1.1-0.9-1.6-1.5
	C36.4,90.7,36.2,90.7,36.1,90.7z"/>
<linearGradient id="SVGID_76_" gradientUnits="userSpaceOnUse" x1="44.5002" y1="101.6681" x2="44.5002" y2="32.9254">
	<stop  offset="0" style="stop-color:#A2DED7"/>
	<stop  offset="1" style="stop-color:#F1A3A7"/>
</linearGradient>
<path class="st76" d="M36.1,90.7c0.2,0,0.4,0.1,0.5,0.2c0.5,0.5,1,1,1.6,1.5c0.5,0.4,1,0.8,1.5,1.2c0.9,0.7,1.7,1.3,2.7,1.9
	c0.7,0.4,1.4,0.8,2.1,1.2c1.3,0.7,2.7,1.4,4.2,1.8c1,0.4,2,0.6,3.1,0.8l1.1,0.2c0.2,0,0.4,0.1,0.3,0.4c-0.1,0.1-0.2,0.1-0.2,0.3
	l-0.2,0.1c-0.1,0-0.2,0-0.3,0.1c0-0.3-0.3-0.3-0.5-0.3c-0.4-0.1-0.8-0.2-1.3-0.3c-1.7-0.4-3.3-1-4.8-1.7c-1.8-0.8-3.5-1.8-5.1-2.9
	c-0.9-0.6-1.8-1.3-2.6-2.1c-0.5-0.5-1.1-0.9-1.6-1.4c-0.1-0.1-0.2-0.2-0.4-0.2c0-0.2,0-0.3-0.1-0.5L36.1,90.7z"/>
<linearGradient id="SVGID_77_" gradientUnits="userSpaceOnUse" x1="48.04" y1="101.6681" x2="48.04" y2="32.9254">
	<stop  offset="0" style="stop-color:#A2DED7"/>
	<stop  offset="1" style="stop-color:#F1A3A7"/>
</linearGradient>
<path class="st77" d="M53.7,99.4c0-0.2-0.1-0.2-0.3-0.3c-0.7-0.1-1.3-0.2-2-0.4s-1.1-0.2-1.7-0.4c-1.1-0.3-2.2-0.7-3.3-1.2
	c-1-0.4-1.9-0.9-2.8-1.4c-0.6-0.3-1.2-0.7-1.7-1.1c-0.2-0.1-0.4-0.2-0.5-0.4c0.4,0.1,0.8,0.4,1.2,0.5c0,0,0,0.1,0.1,0.1
	s0.1-0.1,0.1-0.1h0.2c0.1,0.2,0.2,0.2,0.3,0.1h0.3c0,0.1,0.1,0.1,0.2,0.1s0,0.2,0.1,0.3s0.4,0.2,0.6,0.3c0.8,0.4,1.5,0.8,2.4,1.1
	c1,0.4,2.1,0.8,3.2,1.1c1.3,0.4,2.7,0.6,4.1,0.7c0.2,0,0.3,0,0.4,0.3c-0.1,0.1-0.3,0.2-0.4,0.4h-0.1C54,99.1,53.9,99.4,53.7,99.4z"
	/>
<linearGradient id="SVGID_78_" gradientUnits="userSpaceOnUse" x1="53.73" y1="101.6681" x2="53.73" y2="32.9254">
	<stop  offset="0" style="stop-color:#A2DED7"/>
	<stop  offset="1" style="stop-color:#F1A3A7"/>
</linearGradient>
<path class="st78" d="M53.7,99.4c0.2,0,0.3-0.2,0.5-0.2c-0.3,0.3-0.6,0.5-1,0.7C53.3,99.6,53.6,99.6,53.7,99.4z"/>
<linearGradient id="SVGID_79_" gradientUnits="userSpaceOnUse" x1="53" y1="101.6681" x2="53" y2="32.9254">
	<stop  offset="0" style="stop-color:#A2DED7"/>
	<stop  offset="1" style="stop-color:#F1A3A7"/>
</linearGradient>
<path class="st79" d="M52.8,100.2c0-0.2,0.1-0.2,0.2-0.3h0.2C53.1,100.1,53,100.2,52.8,100.2z"/>
<linearGradient id="SVGID_80_" gradientUnits="userSpaceOnUse" x1="52.515" y1="101.6681" x2="52.515" y2="32.9254">
	<stop  offset="0" style="stop-color:#A2DED7"/>
	<stop  offset="1" style="stop-color:#F1A3A7"/>
</linearGradient>
<path class="st80" d="M52.4,100.3c0.1,0,0.2-0.1,0.3-0.1c0,0.1-0.1,0.2-0.3,0.2L52.4,100.3L52.4,100.3z"/>
<linearGradient id="SVGID_81_" gradientUnits="userSpaceOnUse" x1="53.475" y1="101.6681" x2="53.475" y2="32.9254">
	<stop  offset="0" style="stop-color:#A2DED7"/>
	<stop  offset="1" style="stop-color:#F1A3A7"/>
</linearGradient>
<path class="st81" d="M52.8,94.2c0.1-0.2,0.3-0.2,0.5-0.3c0.2-0.2,0.5-0.4,0.8-0.5c0,0.2-0.2,0.3-0.3,0.3s-0.3,0.2-0.4,0.3
	C53.2,94,53,94.2,52.8,94.2z"/>
<linearGradient id="SVGID_82_" gradientUnits="userSpaceOnUse" x1="52.425" y1="101.6681" x2="52.425" y2="32.9254">
	<stop  offset="0" style="stop-color:#A2DED7"/>
	<stop  offset="1" style="stop-color:#F1A3A7"/>
</linearGradient>
<path class="st82" d="M52.1,94.5c0.1-0.2,0.4-0.3,0.6-0.3C52.6,94.5,52.3,94.5,52.1,94.5z"/>
<linearGradient id="SVGID_83_" gradientUnits="userSpaceOnUse" x1="51.415" y1="101.6681" x2="51.415" y2="32.9254">
	<stop  offset="0" style="stop-color:#A2DED7"/>
	<stop  offset="1" style="stop-color:#F1A3A7"/>
</linearGradient>
<path class="st83" d="M51.3,94.7c0-0.1,0.1-0.1,0.2-0.1C51.5,94.8,51.4,94.8,51.3,94.7z"/>
<linearGradient id="SVGID_84_" gradientUnits="userSpaceOnUse" x1="49.6495" y1="101.6681" x2="49.6495" y2="32.9254">
	<stop  offset="0" style="stop-color:#A2DED7"/>
	<stop  offset="1" style="stop-color:#F1A3A7"/>
</linearGradient>
<path class="st84" d="M54.7,98.8c0-0.2-0.2-0.2-0.4-0.3c-1.4-0.1-2.7-0.4-4.1-0.7c-1.1-0.3-2.2-0.7-3.2-1.1
	c-0.8-0.3-1.6-0.8-2.4-1.1c-0.2-0.1-0.4-0.2-0.6-0.3s0-0.2,0-0.3h0.9c0.3,0.3,0.6,0.5,1,0.6c0.8,0.4,1.5,0.7,2.3,1
	c1.1,0.4,2.3,0.8,3.4,1c0.7,0.2,1.3,0.3,2,0.3c0.4,0.1,0.9,0.1,1.3,0.2c0.2,0,0.3,0,0.4,0.3s-0.3,0.2-0.4,0.4
	C54.8,98.7,54.7,98.7,54.7,98.8z"/>
<linearGradient id="SVGID_85_" gradientUnits="userSpaceOnUse" x1="44.835" y1="101.6681" x2="44.835" y2="32.9254">
	<stop  offset="0" style="stop-color:#A2DED7"/>
	<stop  offset="1" style="stop-color:#F1A3A7"/>
</linearGradient>
<path class="st85" d="M44.8,94.9H44c-0.1,0-0.1,0-0.2-0.1c0.1-0.1,0.1-0.1,0.2-0.1c0.6,0.1,1.2-0.1,1.8-0.4c0,0,0.1,0,0.1,0v0.2
	C45.5,94.6,45.2,94.8,44.8,94.9z"/>
<linearGradient id="SVGID_86_" gradientUnits="userSpaceOnUse" x1="38.9612" y1="101.6681" x2="38.9612" y2="32.9254">
	<stop  offset="0" style="stop-color:#A2DED7"/>
	<stop  offset="1" style="stop-color:#F1A3A7"/>
</linearGradient>
<path class="st86" d="M38.2,86.3c0,0,0.1,0,0.1,0c0.4,0.3,0.8,0.5,1.2,0.6c0.3,0.1,0.3,0.2,0.2,0.4s-0.2,0.5-0.5,0.6
	c0-0.2,0.1-0.4,0.2-0.6c0.1-0.2,0.1-0.3-0.1-0.3s-0.5-0.2-0.8-0.4S38.2,86.5,38.2,86.3z"/>
<linearGradient id="SVGID_87_" gradientUnits="userSpaceOnUse" x1="37.735" y1="101.6681" x2="37.735" y2="32.9254">
	<stop  offset="0" style="stop-color:#A2DED7"/>
	<stop  offset="1" style="stop-color:#F1A3A7"/>
</linearGradient>
<path class="st87" d="M37.3,85.5c0.3,0.2,0.6,0.5,0.9,0.8C37.8,86.2,37.4,85.9,37.3,85.5z"/>
<linearGradient id="SVGID_88_" gradientUnits="userSpaceOnUse" x1="38.7887" y1="101.6681" x2="38.7887" y2="32.9254">
	<stop  offset="0" style="stop-color:#A2DED7"/>
	<stop  offset="1" style="stop-color:#F1A3A7"/>
</linearGradient>
<path class="st88" d="M38.8,89.3c0.1,0.2,0.1,0.5,0,0.8h-0.1v-0.4L38.8,89.3L38.8,89.3z"/>
<linearGradient id="SVGID_89_" gradientUnits="userSpaceOnUse" x1="36.955" y1="101.6681" x2="36.955" y2="32.9254">
	<stop  offset="0" style="stop-color:#A2DED7"/>
	<stop  offset="1" style="stop-color:#F1A3A7"/>
</linearGradient>
<path class="st89" d="M36.8,84.5c0.3,0.1,0.3,0.4,0.3,0.6C36.8,85.1,36.8,84.8,36.8,84.5z"/>
<linearGradient id="SVGID_90_" gradientUnits="userSpaceOnUse" x1="36.4975" y1="101.6681" x2="36.4975" y2="32.9254">
	<stop  offset="0" style="stop-color:#A2DED7"/>
	<stop  offset="1" style="stop-color:#F1A3A7"/>
</linearGradient>
<path class="st90" d="M36.6,83.1v0.4C36.4,83.3,36.4,83.2,36.6,83.1z"/>
<linearGradient id="SVGID_91_" gradientUnits="userSpaceOnUse" x1="38.9394" y1="101.6681" x2="38.9394" y2="32.9254">
	<stop  offset="0" style="stop-color:#A2DED7"/>
	<stop  offset="1" style="stop-color:#F1A3A7"/>
</linearGradient>
<path class="st91" d="M39,88.5c0,0.1,0,0.2-0.1,0.2c0,0,0,0,0,0C38.9,88.6,38.9,88.5,39,88.5z"/>
<linearGradient id="SVGID_92_" gradientUnits="userSpaceOnUse" x1="37.2086" y1="101.6681" x2="37.2086" y2="32.9254">
	<stop  offset="0" style="stop-color:#A2DED7"/>
	<stop  offset="1" style="stop-color:#F1A3A7"/>
</linearGradient>
<path class="st92" d="M37.1,85.2c0.1,0,0.2,0.1,0.2,0.2c0,0,0,0,0,0C37.2,85.4,37.1,85.4,37.1,85.2C37.1,85.3,37.1,85.3,37.1,85.2z"
	/>
<linearGradient id="SVGID_93_" gradientUnits="userSpaceOnUse" x1="37.405" y1="101.6681" x2="37.405" y2="32.9254">
	<stop  offset="0" style="stop-color:#A2DED7"/>
	<stop  offset="1" style="stop-color:#F1A3A7"/>
</linearGradient>
<path class="st93" d="M38.7,89.6v0.4c-0.1,0.2-0.2,0.3,0.1,0.4l0,0.4v0.2c-0.2,0-0.3-0.1-0.5-0.2c-0.1-0.1-0.2-0.2-0.3-0.3
	c-0.4-0.4-0.8-0.8-1.2-1.2c-0.1-0.2-0.3-0.3-0.5-0.5c-0.1-0.1-0.2-0.1-0.2,0c0,0.1-0.1,0.1-0.2,0.1c0-0.5,0-1,0-1.5
	c0.2-0.3,0.2-0.3,0.4-0.1s0.4,0.4,0.5,0.6s0.6,0.6,0.9,0.9S38.3,89.6,38.7,89.6z"/>
<linearGradient id="SVGID_94_" gradientUnits="userSpaceOnUse" x1="37.8252" y1="101.6681" x2="37.8252" y2="32.9254">
	<stop  offset="0" style="stop-color:#A2DED7"/>
	<stop  offset="1" style="stop-color:#F1A3A7"/>
</linearGradient>
<path class="st94" d="M36,89.1c0.1,0,0.1-0.1,0.2-0.1c0-0.2,0.1-0.1,0.2,0c0.2,0.1,0.3,0.3,0.5,0.5c0.4,0.4,0.8,0.8,1.2,1.1
	c0.1,0.1,0.2,0.2,0.3,0.3c0.1,0.1,0.3,0.2,0.5,0.2h0.1c0,0.3,0.3,0.5,0.4,0.8c0,0.1,0,0.2,0.2,0.2s0,0,0,0.1c0,0.2,0.1,0.2,0.2,0.3
	v0.1v0.2c-0.3,0-0.5-0.3-0.7-0.4s-0.5-0.4-0.7-0.6c-0.6-0.6-1.2-1.1-1.8-1.7c-0.1-0.1-0.3-0.3-0.5-0.3C35.9,89.6,36,89.3,36,89.1z"
	/>
<linearGradient id="SVGID_95_" gradientUnits="userSpaceOnUse" x1="32.4804" y1="101.6681" x2="32.4804" y2="32.9254">
	<stop  offset="0" style="stop-color:#A2DED7"/>
	<stop  offset="1" style="stop-color:#F1A3A7"/>
</linearGradient>
<path class="st95" d="M33.3,57.7c0,1,0,2,0,3.1c-0.2,3.9-0.1,7.8,0,11.6c0,1.3,0,2.6,0.1,3.9c-0.2,0-0.2-0.1-0.3-0.3
	c-0.4-1.2-0.6-2.4-0.9-3.6c-0.1-0.8-0.3-1.5-0.3-2.2c-0.1-0.5-0.1-1-0.1-1.5c0.1-0.7-0.2-1.3-0.1-2s0-1.5,0.1-2.2
	c0.1-0.6,0.1-1.1,0.2-1.7c0.1-1.2,0.4-2.3,0.7-3.4c0.1-0.4,0.2-0.8,0.3-1.2C33,58,33,57.8,33.3,57.7z"/>
<linearGradient id="SVGID_96_" gradientUnits="userSpaceOnUse" x1="42.02" y1="101.6681" x2="42.02" y2="32.9254">
	<stop  offset="0" style="stop-color:#A2DED7"/>
	<stop  offset="1" style="stop-color:#F1A3A7"/>
</linearGradient>
<path class="st96" d="M41.3,93.9c0.3,0,0.4,0.2,0.7,0.3c0.2,0.1,0.4,0.2,0.6,0.2l0.2,0.2v0.1c-0.4-0.1-0.8-0.3-1.2-0.5
	C41.4,94.2,41.3,94.1,41.3,93.9z"/>
<linearGradient id="SVGID_97_" gradientUnits="userSpaceOnUse" x1="40.24" y1="101.6681" x2="40.24" y2="32.9254">
	<stop  offset="0" style="stop-color:#A2DED7"/>
	<stop  offset="1" style="stop-color:#F1A3A7"/>
</linearGradient>
<path class="st97" d="M39.8,92.6c0.4,0.3,0.7,0.6,1,1c-0.2,0-0.2-0.1-0.3-0.2c-0.2-0.2-0.4-0.4-0.6-0.6L39.8,92.6z"/>
<linearGradient id="SVGID_98_" gradientUnits="userSpaceOnUse" x1="41.02" y1="101.6681" x2="41.02" y2="32.9254">
	<stop  offset="0" style="stop-color:#A2DED7"/>
	<stop  offset="1" style="stop-color:#F1A3A7"/>
</linearGradient>
<path class="st98" d="M40.8,93.6c0.2,0,0.4,0.1,0.5,0.3C41,93.9,40.8,93.8,40.8,93.6z"/>
<linearGradient id="SVGID_99_" gradientUnits="userSpaceOnUse" x1="43.305" y1="101.6681" x2="43.305" y2="32.9254">
	<stop  offset="0" style="stop-color:#A2DED7"/>
	<stop  offset="1" style="stop-color:#F1A3A7"/>
</linearGradient>
<path class="st99" d="M43.2,94.7c0.1-0.1,0.2,0,0.3,0.1C43.3,94.8,43.2,94.8,43.2,94.7z"/>
<linearGradient id="SVGID_100_" gradientUnits="userSpaceOnUse" x1="42.8186" y1="101.6681" x2="42.8186" y2="32.9254">
	<stop  offset="0" style="stop-color:#A2DED7"/>
	<stop  offset="1" style="stop-color:#F1A3A7"/>
</linearGradient>
<path class="st100" d="M42.7,94.7v-0.1c0.1,0,0.2,0,0.2,0.1s0,0.1-0.1,0.1S42.7,94.7,42.7,94.7z"/>
<linearGradient id="SVGID_101_" gradientUnits="userSpaceOnUse" x1="47.3972" y1="8.3535" x2="47.3972" y2="108.6511">
	<stop  offset="0" style="stop-color:#A2DED7"/>
	<stop  offset="1" style="stop-color:#F1A3A7"/>
</linearGradient>
<path class="st101" d="M42.2,93.8c-0.1-0.1-0.3-0.2-0.4-0.2c-1.1-0.6-1.9-1.6-2.4-2.7c-0.1-0.2-0.1-0.4-0.2-0.6c0-0.5,0-0.9,0.1-1.3
	c0.2-0.7,0.6-1.3,1.1-1.7l0.4-0.4c-0.1-0.2-0.2-0.1-0.3-0.1c-1-0.1-1.9-0.5-2.6-1.2c-0.5-0.5-0.8-1.2-0.9-1.9
	c-0.2-1.5,0.3-3.1,1.3-4.3c1.1-1.2,2.8-1.5,4.3-0.8c0.1,0.1,0.2,0.1,0.4,0.2c0-0.2,0-0.4,0-0.6c-0.2-1.9,1.1-3.6,2.9-3.9
	c1.2-0.3,2.6-0.2,3.7,0.3c1.4,0.6,2.1,2.1,1.9,3.6c0,0.1,0,0.3,0,0.4c0.2,0.1,0.3,0,0.5-0.1c0.5-0.2,1-0.4,1.6-0.4
	c1.1-0.1,2.2,0.4,2.8,1.4c0.7,0.9,1.1,2,1.2,3.1c0.1,1.4-0.5,2.7-1.7,3.5c-0.6,0.3-1.2,0.5-1.9,0.6c-0.1,0-0.2,0-0.3,0
	c0,0.2,0.1,0.2,0.2,0.3c0.7,0.6,1.2,1.3,1.4,2.2c0.1,0.7,0.1,1.4-0.2,2c-0.1,0-0.1,0.1-0.1,0.2c-0.8,1.4-2.1,2.4-3.6,2.7
	c-1.5,0.4-3-0.2-3.8-1.5c-0.1-0.2-0.2-0.4-0.4-0.6c-0.3,0.5-0.6,1-1,1.4c-0.4,0.4-0.9,0.6-1.5,0.8c-0.1,0-0.1,0-0.2,0h-0.2
	c-0.2-0.1-0.4-0.1-0.5,0c-0.1,0-0.2,0-0.3,0h-0.1h-0.3c0,0-0.1,0-0.1,0L42.2,93.8z M45.3,87.4c-0.2,0.1-0.4,0.2-0.5,0.4
	c-0.2,0.2-0.4,0.3-0.6,0.5s-0.3,0-0.4-0.1c-0.1-0.1-0.1-0.2-0.1-0.3c0,0,0,0,0,0c0.2-0.3,0.4-0.6,0.6-0.9c0.1-0.1,0.2-0.3,0.1-0.4
	s-0.3-0.1-0.4-0.1c-1.3,0.1-2.5,0.7-3.3,1.8c-0.7,0.8-0.7,1.9-0.1,2.8c0.6,1,1.7,1.7,2.8,2c0.9,0.3,1.8-0.1,2.4-0.8
	c1-1.2,1.3-2.8,0.8-4.2c0-0.1,0-0.3-0.2-0.3s-0.2,0.2-0.2,0.3c-0.2,0.4-0.4,0.8-0.7,1.1c-0.1,0.2-0.3,0.1-0.4,0s-0.3-0.1-0.2-0.3
	s0.2-0.7,0.4-1.1C45.4,87.7,45.4,87.6,45.3,87.4z M51.3,85c-0.1,0.1,0,0.2,0.1,0.2c1.2,0.6,2.5,0.7,3.8,0.2c0.7-0.3,1.3-0.9,1.4-1.7
	c0.3-1.5-0.2-3-1.3-3.9c-0.5-0.5-1.2-0.7-1.9-0.5c-1,0.2-2,0.8-2.6,1.6c-0.3,0.4-0.6,0.8-0.7,1.3c-0.1,0.4,0.1,0.6,0.5,0.6
	c0.1,0,0.2,0,0.3-0.1c0.3-0.1,0.7-0.2,1-0.3s0.3,0,0.4,0.2s0.1,0.3-0.2,0.5l-0.9,0.5c-0.2,0.1-0.4,0.2-0.4,0.4s0.3,0.2,0.5,0.3
	l1,0.2c0.3,0.1,0.3,0.1,0.3,0.4s0,0.3-0.4,0.3L51.3,85z M49.1,87.4c0.2,0.6,0.3,1.1,0.5,1.6c0.1,0.1,0,0.3-0.1,0.3c0,0,0,0-0.1,0
	c-0.3,0.1-0.3,0.2-0.5-0.2s-0.2-0.5-0.4-0.7c-0.1-0.2-0.2-0.5-0.4-0.7L48.1,88L48,88.1c-0.5,1.4-0.2,3,0.7,4.2
	c0.6,0.8,1.6,1.2,2.5,0.9c1.2-0.3,2.2-1,2.8-2c0.6-0.8,0.6-1.8,0-2.6c-0.6-0.9-1.6-1.6-2.7-1.9c-0.3-0.1-0.6-0.1-0.9-0.1
	c-0.1,0-0.2,0-0.3,0.1s0.1,0.2,0.2,0.2c0.3,0.2,0.5,0.4,0.8,0.6s0.2,0.2,0.1,0.4c-0.2,0.3-0.2,0.3-0.6,0.2L49.1,87.4z M47.2,81
	c0.1-0.1,0.2-0.2,0.2-0.3c0.1-0.3,0.2-0.6,0.3-0.9s0.2-0.4,0.4-0.3s0.3,0.1,0.3,0.5L48.3,81c0,0.1-0.1,0.3,0,0.4s0.3,0,0.4-0.1
	c0.1,0,0.1-0.1,0.2-0.2c0.9-0.8,1.5-1.9,1.6-3.1c0.2-1-0.4-2.1-1.4-2.5c-1.1-0.5-2.4-0.6-3.5-0.1c-1.1,0.3-1.7,1.3-1.6,2.4
	c0,1.3,0.7,2.6,1.7,3.4c0.1,0.1,0.2,0.2,0.3,0.1s0.1-0.2,0.1-0.3c0-0.4-0.1-0.8-0.2-1.2s0-0.4,0.3-0.4s0.3,0.1,0.4,0.3
	C46.9,80.1,47.1,80.6,47.2,81z M43.8,83.4c-0.3-0.2-0.7-0.4-1-0.5c-0.2-0.1-0.3-0.2-0.2-0.4s0.1-0.3,0.5-0.2s0.7,0.2,1.1,0.3
	s0.5-0.1,0.4-0.4c0-0.1,0-0.1,0-0.2c-0.5-1.3-1.7-2.4-3.1-2.7c-0.7-0.2-1.5,0-2.1,0.5c-1,0.9-1.5,2.3-1.4,3.7c0,0.8,0.5,1.6,1.3,1.9
	c1.4,0.6,3,0.5,4.2-0.3c0.2-0.1,0.3-0.2,0.2-0.4c-0.2,0-0.3,0-0.5,0l-1.5,0.1c-0.3,0-0.2-0.2-0.3-0.4c-0.1-0.1,0-0.2,0.1-0.3
	c0,0,0.1,0,0.1,0l0.8-0.2L43.8,83.4z M47.3,85.5c0.5,0,0.9-0.4,0.9-0.9c0-0.5-0.4-0.9-0.9-0.9c-0.5,0-0.9,0.4-0.9,0.9
	C46.4,85.1,46.8,85.5,47.3,85.5z"/>
<linearGradient id="SVGID_102_" gradientUnits="userSpaceOnUse" x1="44.13" y1="101.6681" x2="44.13" y2="32.9254">
	<stop  offset="0" style="stop-color:#A2DED7"/>
	<stop  offset="1" style="stop-color:#F1A3A7"/>
</linearGradient>
<path class="st102" d="M43.9,94.3c0.2-0.1,0.4-0.1,0.5,0C44.3,94.4,44,94.4,43.9,94.3C43.9,94.3,43.9,94.3,43.9,94.3z"/>
<linearGradient id="SVGID_103_" gradientUnits="userSpaceOnUse" x1="38.7235" y1="101.6681" x2="38.7235" y2="32.9254">
	<stop  offset="0" style="stop-color:#A2DED7"/>
	<stop  offset="1" style="stop-color:#F1A3A7"/>
</linearGradient>
<path class="st103" d="M38.8,90.2v0.3c-0.2-0.1-0.2-0.3-0.1-0.4h0.1L38.8,90.2z"/>
<linearGradient id="SVGID_104_" gradientUnits="userSpaceOnUse" x1="55.0686" y1="101.6681" x2="55.0686" y2="32.9254">
	<stop  offset="0" style="stop-color:#A2DED7"/>
	<stop  offset="1" style="stop-color:#F1A3A7"/>
</linearGradient>
<path class="st104" d="M55,91.4c0-0.1,0-0.2,0.1-0.2C55.2,91.3,55.2,91.4,55,91.4z"/>
<linearGradient id="SVGID_105_" gradientUnits="userSpaceOnUse" x1="44.665" y1="101.6681" x2="44.665" y2="32.9254">
	<stop  offset="0" style="stop-color:#A2DED7"/>
	<stop  offset="1" style="stop-color:#F1A3A7"/>
</linearGradient>
<path class="st105" d="M44.6,94.2c0.1,0,0.1,0,0.2,0C44.7,94.3,44.6,94.3,44.6,94.2C44.6,94.3,44.6,94.2,44.6,94.2z"/>
<linearGradient id="SVGID_106_" gradientUnits="userSpaceOnUse" x1="43.56" y1="101.6681" x2="43.56" y2="32.9254">
	<stop  offset="0" style="stop-color:#A2DED7"/>
	<stop  offset="1" style="stop-color:#F1A3A7"/>
</linearGradient>
<path class="st106" d="M43.5,94.2L43.5,94.2C43.6,94.2,43.5,94.2,43.5,94.2z"/>
<linearGradient id="SVGID_107_" gradientUnits="userSpaceOnUse" x1="43.14" y1="101.6681" x2="43.14" y2="32.9254">
	<stop  offset="0" style="stop-color:#A2DED7"/>
	<stop  offset="1" style="stop-color:#F1A3A7"/>
</linearGradient>
<path class="st107" d="M43.1,94.1c0,0,0.1,0,0.1,0C43.2,94.2,43.1,94.2,43.1,94.1z"/>
<linearGradient id="SVGID_108_" gradientUnits="userSpaceOnUse" x1="38.8685" y1="101.6681" x2="38.8685" y2="32.9254">
	<stop  offset="0" style="stop-color:#A2DED7"/>
	<stop  offset="1" style="stop-color:#F1A3A7"/>
</linearGradient>
<path class="st108" d="M38.8,90.9c0.1,0,0.1,0.1,0.1,0.2c0,0,0,0,0,0h-0.1L38.8,90.9z"/>
<linearGradient id="SVGID_109_" gradientUnits="userSpaceOnUse" x1="39.6196" y1="101.6681" x2="39.6196" y2="32.9254">
	<stop  offset="0" style="stop-color:#A2DED7"/>
	<stop  offset="1" style="stop-color:#F1A3A7"/>
</linearGradient>
<path class="st109" d="M39.5,92.2c0.1,0,0.2,0.1,0.2,0.3c0,0,0,0,0,0C39.6,92.5,39.5,92.4,39.5,92.2z"/>
<linearGradient id="SVGID_110_" gradientUnits="userSpaceOnUse" x1="39.4043" y1="101.6681" x2="39.4043" y2="32.9254">
	<stop  offset="0" style="stop-color:#A2DED7"/>
	<stop  offset="1" style="stop-color:#F1A3A7"/>
</linearGradient>
<path class="st110" d="M39.3,92c0.1,0,0.2,0.1,0.2,0.2c0,0,0,0,0,0C39.4,92.2,39.3,92.1,39.3,92z"/>
<linearGradient id="SVGID_111_" gradientUnits="userSpaceOnUse" x1="37.776" y1="89.9294" x2="55.6238" y2="89.9294">
	<stop  offset="0" style="stop-color:#A2DED7"/>
	<stop  offset="1" style="stop-color:#F1A3A7"/>
</linearGradient>
<path class="st111" d="M45.3,87.4c0.1,0.1,0.1,0.3,0,0.5c-0.1,0.4-0.2,0.8-0.4,1.1s0.1,0.3,0.2,0.3s0.3,0.2,0.4,0
	c0.2-0.4,0.4-0.8,0.7-1.1c0.1-0.1,0.1-0.2,0.2-0.3s0.2,0.2,0.2,0.3c0.5,1.4,0.2,3-0.8,4.2c-0.6,0.7-1.5,1-2.4,0.8
	c-1.2-0.3-2.2-1-2.8-2c-0.6-0.8-0.6-2,0.1-2.8c0.7-1.1,1.9-1.8,3.2-1.9c0.2,0,0.3-0.1,0.4,0.1s-0.1,0.3-0.1,0.4
	c-0.2,0.3-0.4,0.6-0.6,0.9c-0.1,0.1-0.1,0.2,0,0.3c0,0,0,0,0,0c0.1,0.1,0.2,0.2,0.4,0.1s0.4-0.3,0.6-0.5
	C44.9,87.7,45.1,87.5,45.3,87.4z"/>
<linearGradient id="SVGID_112_" gradientUnits="userSpaceOnUse" x1="37.776" y1="82.4207" x2="55.6238" y2="82.4207">
	<stop  offset="0" style="stop-color:#A2DED7"/>
	<stop  offset="1" style="stop-color:#F1A3A7"/>
</linearGradient>
<path class="st112" d="M51.3,85h0.9c0.3,0,0.4,0,0.4-0.3s0-0.3-0.3-0.4l-1-0.2c-0.2,0-0.5,0-0.5-0.3s0.2-0.3,0.4-0.4L52,83
	c0.3-0.1,0.3-0.2,0.2-0.5s-0.2-0.3-0.4-0.2s-0.7,0.2-1,0.3c-0.1,0-0.2,0.1-0.3,0.1c-0.4,0.1-0.6-0.2-0.5-0.6c0.1-0.5,0.4-1,0.7-1.3
	c0.7-0.8,1.6-1.4,2.6-1.6c0.7-0.2,1.4,0,1.9,0.5c1.1,1,1.6,2.5,1.3,3.9c-0.1,0.8-0.6,1.5-1.4,1.7c-1.2,0.5-2.6,0.4-3.8-0.2
	C51.3,85.1,51.3,85.1,51.3,85z"/>
<linearGradient id="SVGID_113_" gradientUnits="userSpaceOnUse" x1="37.776" y1="89.8871" x2="55.6238" y2="89.8871">
	<stop  offset="0" style="stop-color:#A2DED7"/>
	<stop  offset="1" style="stop-color:#F1A3A7"/>
</linearGradient>
<path class="st113" d="M49.1,87.4l1.5,0.7c0.3,0.2,0.4,0.1,0.6-0.2c0.1-0.2,0-0.3-0.1-0.4s-0.6-0.4-0.8-0.6
	c-0.1-0.1-0.3-0.1-0.2-0.2s0.2-0.1,0.3-0.1c0.3,0,0.6,0,0.9,0.1c1.1,0.3,2.1,0.9,2.7,1.9c0.6,0.8,0.6,1.8,0,2.6
	c-0.6,1-1.6,1.7-2.8,2c-0.9,0.3-2,0-2.5-0.9c-0.9-1.2-1.2-2.7-0.7-4.1l0.1-0.1l0.1-0.1c0.2,0.2,0.3,0.4,0.4,0.7
	c0.1,0.2,0.2,0.5,0.4,0.7s0.2,0.3,0.5,0.2c0.1,0,0.2-0.2,0.2-0.3c0,0,0,0,0-0.1C49.5,88.6,49.3,88,49.1,87.4z"/>
<linearGradient id="SVGID_114_" gradientUnits="userSpaceOnUse" x1="37.776" y1="78.2169" x2="55.6238" y2="78.2169">
	<stop  offset="0" style="stop-color:#A2DED7"/>
	<stop  offset="1" style="stop-color:#F1A3A7"/>
</linearGradient>
<path class="st114" d="M47.2,81c-0.2-0.4-0.3-0.9-0.5-1.3c-0.1-0.2-0.1-0.3-0.4-0.3s-0.4,0.1-0.3,0.4s0.1,0.8,0.2,1.2
	c0,0.1,0,0.2-0.1,0.3s-0.2,0-0.3-0.1c-1.1-0.8-1.7-2.1-1.7-3.4c-0.1-1.1,0.5-2.1,1.6-2.4c1.1-0.5,2.4-0.4,3.5,0.1
	c1,0.4,1.6,1.5,1.4,2.5c-0.1,1.2-0.7,2.3-1.6,3.1c-0.1,0.1-0.1,0.1-0.2,0.2c-0.1,0.1-0.3,0.2-0.4,0.1s0-0.2,0-0.4l0.2-1.1
	c0.1-0.4,0-0.4-0.3-0.5s-0.3-0.1-0.4,0.3s-0.2,0.6-0.3,0.9C47.5,80.8,47.4,80.9,47.2,81z"/>
<linearGradient id="SVGID_115_" gradientUnits="userSpaceOnUse" x1="37.776" y1="82.4095" x2="55.6238" y2="82.4095">
	<stop  offset="0" style="stop-color:#A2DED7"/>
	<stop  offset="1" style="stop-color:#F1A3A7"/>
</linearGradient>
<path class="st115" d="M43.8,83.4l-1.3,0.3L41.8,84c-0.1,0-0.2,0.1-0.2,0.2c0,0,0,0.1,0,0.1c0,0.2,0,0.4,0.3,0.4l1.5-0.1
	c0.2,0,0.3,0,0.5,0c0,0.2-0.1,0.3-0.2,0.4c-1.3,0.8-2.9,1-4.3,0.4c-0.8-0.3-1.3-1.1-1.3-1.9c-0.2-1.4,0.4-2.7,1.4-3.7
	c0.5-0.5,1.3-0.8,2.1-0.5c1.4,0.4,2.5,1.4,3.1,2.7c0,0.1,0,0.1,0,0.2c0.1,0.4-0.1,0.5-0.4,0.4s-0.7-0.2-1.1-0.3s-0.3-0.1-0.5,0.2
	s0,0.3,0.2,0.4C43.2,83,43.5,83.2,43.8,83.4z"/>
<linearGradient id="SVGID_116_" gradientUnits="userSpaceOnUse" x1="47.31" y1="101.6681" x2="47.31" y2="32.9254">
	<stop  offset="0" style="stop-color:#A2DED7"/>
	<stop  offset="1" style="stop-color:#F1A3A7"/>
</linearGradient>
<path class="st116" d="M47.3,85.5c-0.5,0-0.9-0.4-0.9-0.9c0-0.5,0.4-0.9,0.9-0.9c0.5,0.1,0.8,0.5,0.9,0.9
	C48.2,85.1,47.8,85.5,47.3,85.5z"/>
</svg>
