<?xml version="1.0" encoding="utf-8"?>
<!-- Generator: Adobe Illustrator 23.0.4, SVG Export Plug-In . SVG Version: 6.00 Build 0)  -->
<svg version="1.1" id="圖層_1" xmlns="http://www.w3.org/2000/svg" xmlns:xlink="http://www.w3.org/1999/xlink" x="0px" y="0px"
	 viewBox="0 0 120 120" style="enable-background:new 0 0 120 120;" xml:space="preserve">
<style type="text/css">
	.st0{fill:url(#SVGID_1_);}
	.st1{fill:url(#SVGID_2_);}
	.st2{fill:url(#SVGID_3_);}
	.st3{fill:url(#SVGID_4_);}
	.st4{fill:url(#SVGID_5_);}
	.st5{fill:url(#SVGID_6_);}
	.st6{fill:url(#SVGID_7_);}
	.st7{fill:url(#SVGID_8_);}
	.st8{fill:url(#SVGID_9_);}
	.st9{fill:url(#SVGID_10_);}
	.st10{fill:url(#SVGID_11_);}
	.st11{fill:url(#SVGID_12_);}
	.st12{fill:url(#SVGID_13_);}
	.st13{fill:url(#SVGID_14_);}
	.st14{fill:url(#SVGID_15_);}
	.st15{fill:url(#SVGID_16_);}
	.st16{fill:url(#SVGID_17_);}
	.st17{fill:url(#SVGID_18_);}
	.st18{fill:url(#SVGID_19_);}
	.st19{fill:url(#SVGID_20_);}
	.st20{fill:url(#SVGID_21_);}
	.st21{fill:url(#SVGID_22_);}
	.st22{fill:url(#SVGID_23_);}
	.st23{fill:url(#SVGID_24_);}
	.st24{fill:url(#SVGID_25_);}
	.st25{fill:url(#SVGID_26_);}
	.st26{fill:url(#SVGID_27_);}
</style>
<linearGradient id="SVGID_1_" gradientUnits="userSpaceOnUse" x1="13.5481" y1="113.8617" x2="13.5481" y2="9.2004">
	<stop  offset="0" style="stop-color:#A2DED7"/>
	<stop  offset="1" style="stop-color:#F1A3A7"/>
</linearGradient>
<path class="st0" d="M14.4,82.4c-0.5,0-0.9-0.4-1-0.8c-3.9-21.6,0-43.4,0-43.6c0.1-0.6,0.6-0.9,1.2-0.8s0.9,0.6,0.8,1.2l0,0
	c0,0.2-3.8,21.7,0,42.9c0.1,0.5-0.2,1.1-0.8,1.2c0,0,0,0-0.1,0L14.4,82.4z"/>
<linearGradient id="SVGID_2_" gradientUnits="userSpaceOnUse" x1="19.0105" y1="113.8617" x2="19.0105" y2="9.2004">
	<stop  offset="0" style="stop-color:#A2DED7"/>
	<stop  offset="1" style="stop-color:#F1A3A7"/>
</linearGradient>
<path class="st1" d="M19.8,94.7c-3.4-14.5-4.8-29.3-4.2-44.2c0.5-10.6,2.4-20.5,5-26.3l1.9,0.8c-2.5,5.6-4.3,15.1-4.8,25.5
	c-0.6,14.7,0.8,29.3,4.1,43.6L19.8,94.7z"/>
<linearGradient id="SVGID_3_" gradientUnits="userSpaceOnUse" x1="21.1462" y1="113.8617" x2="21.1462" y2="9.2004">
	<stop  offset="0" style="stop-color:#A2DED7"/>
	<stop  offset="1" style="stop-color:#F1A3A7"/>
</linearGradient>
<path class="st2" d="M20.9,60.8c-0.5,0-0.9-0.4-1-0.9c-1.8-10.5,0.9-23,1-23.5c0.1-0.6,0.7-0.9,1.2-0.8s0.9,0.7,0.8,1.2
	c0,0.1-2.7,12.6-1,22.7c0.1,0.5-0.3,1.1-0.8,1.2c0,0,0,0,0,0L20.9,60.8z"/>
<linearGradient id="SVGID_4_" gradientUnits="userSpaceOnUse" x1="37.14" y1="113.8617" x2="37.14" y2="9.2004">
	<stop  offset="0" style="stop-color:#A2DED7"/>
	<stop  offset="1" style="stop-color:#F1A3A7"/>
</linearGradient>
<path class="st3" d="M37.1,56.1c-7.1,0-14.7-2.2-14.7-6.4s7.6-6.4,14.7-6.4s14.7,2.2,14.7,6.4S44.3,56.1,37.1,56.1z M37.1,45.3
	c-7.9,0-12.7,2.5-12.7,4.4S29.3,54,37.1,54s12.7-2.5,12.7-4.4S45,45.3,37.1,45.3z"/>
<linearGradient id="SVGID_5_" gradientUnits="userSpaceOnUse" x1="32.6501" y1="113.8617" x2="32.6501" y2="9.2004">
	<stop  offset="0" style="stop-color:#A2DED7"/>
	<stop  offset="1" style="stop-color:#F1A3A7"/>
</linearGradient>
<path class="st4" d="M32.7,55.8c-0.6,0-1-0.4-1-1V44.6c0-0.6,0.4-1,1-1s1,0.4,1,1v10.2C33.7,55.3,33.2,55.8,32.7,55.8
	C32.7,55.8,32.7,55.8,32.7,55.8z"/>
<linearGradient id="SVGID_6_" gradientUnits="userSpaceOnUse" x1="41.1101" y1="113.8617" x2="41.1101" y2="9.2004">
	<stop  offset="0" style="stop-color:#A2DED7"/>
	<stop  offset="1" style="stop-color:#F1A3A7"/>
</linearGradient>
<path class="st5" d="M41.1,55.8c-0.6,0-1-0.4-1-1V44.6c0-0.6,0.4-1,1-1s1,0.4,1,1v10.2C42.1,55.3,41.7,55.8,41.1,55.8
	C41.1,55.8,41.1,55.8,41.1,55.8z"/>
<linearGradient id="SVGID_7_" gradientUnits="userSpaceOnUse" x1="39.2984" y1="113.8617" x2="39.2984" y2="9.2004">
	<stop  offset="0" style="stop-color:#A2DED7"/>
	<stop  offset="1" style="stop-color:#F1A3A7"/>
</linearGradient>
<path class="st6" d="M54.4,112.8h-0.2c-0.3,0-7.3-1.3-15.9-13l-0.4-0.6c-1.4,1.9-3.3,3.2-5.6,3.7c-2.9,0.5-5.9-1-9-4.6
	c-0.4-0.4-0.3-1.1,0.1-1.4c0.4-0.4,1.1-0.3,1.4,0.1c2.6,3,5,4.3,7.2,4c1.6-0.2,3.2-1.4,4.7-3.4c-3.2-5.1-5.7-10.5-7.5-16.3
	c-1.8-5.8-3.4-13.7-0.8-18.8c1.6-3.2,4.5-4.8,8.7-4.8s7.1,1.4,9,4.1c4.9,7.4-0.7,22.7-3.3,28.9c-1,2.4-2.2,4.7-3.6,6.9
	c0.3,0.4,0.5,0.7,0.8,1.1c8,11,14.5,12.2,14.6,12.2c0.6,0,1,0.5,0.9,1.1S55,113,54.4,112.8L54.4,112.8z M37.1,59.6
	c-3.4,0-5.6,1.2-6.9,3.7c-3.6,7,1.8,22.8,7.7,32.3c1.1-1.9,2.1-3.8,2.9-5.8c2-4.6,8-20.2,3.5-27C43,60.7,40.6,59.6,37.1,59.6z"/>
<linearGradient id="SVGID_8_" gradientUnits="userSpaceOnUse" x1="37.17" y1="113.8617" x2="37.17" y2="9.2004">
	<stop  offset="0" style="stop-color:#A2DED7"/>
	<stop  offset="1" style="stop-color:#F1A3A7"/>
</linearGradient>
<path class="st7" d="M48,43.6c-0.6,0-1-0.4-1-1v-5c0-6.1-1.1-11.5-3.1-15.4c-1.8-3.6-4.2-5.5-6.8-5.5s-5,2-6.8,5.5
	c-2,3.9-3.1,9.4-3.1,15.4v5c0,0.6-0.4,1-1,1s-1-0.4-1-1v-5c0-13.3,5-23,11.9-23s11.9,9.7,11.9,23v5C49.1,43.1,48.6,43.6,48,43.6
	C48.1,43.6,48,43.6,48,43.6z"/>
<linearGradient id="SVGID_9_" gradientUnits="userSpaceOnUse" x1="36.94" y1="113.8617" x2="36.94" y2="9.2004">
	<stop  offset="0" style="stop-color:#A2DED7"/>
	<stop  offset="1" style="stop-color:#F1A3A7"/>
</linearGradient>
<path class="st8" d="M43.5,29.2H30.3c-0.6,0-1-0.4-1-1s0.4-1,1-1h13.2c0.6,0,1,0.4,1,1S44.1,29.2,43.5,29.2z"/>
<linearGradient id="SVGID_10_" gradientUnits="userSpaceOnUse" x1="36.94" y1="113.8617" x2="36.94" y2="9.2004">
	<stop  offset="0" style="stop-color:#A2DED7"/>
	<stop  offset="1" style="stop-color:#F1A3A7"/>
</linearGradient>
<path class="st9" d="M43.5,35.1H30.3c-0.6,0-1-0.4-1-1s0.4-1,1-1h13.2c0.6,0,1,0.4,1,1S44.1,35.1,43.5,35.1z"/>
<linearGradient id="SVGID_11_" gradientUnits="userSpaceOnUse" x1="58.1769" y1="113.8617" x2="58.1769" y2="9.2004">
	<stop  offset="0" style="stop-color:#A2DED7"/>
	<stop  offset="1" style="stop-color:#F1A3A7"/>
</linearGradient>
<path class="st10" d="M52.2,33.7c-0.6,0-1-0.4-1-1C51.2,19,62.9,7.8,63.4,7.3c0.4-0.4,1.1-0.4,1.4,0c0.4,0.4,0.4,1.1,0,1.4l0,0l0,0
	c-0.1,0.1-11.6,11.1-11.6,23.8C53.2,33.2,52.8,33.6,52.2,33.7C52.2,33.7,52.2,33.7,52.2,33.7z"/>
<linearGradient id="SVGID_12_" gradientUnits="userSpaceOnUse" x1="56.8664" y1="113.8617" x2="56.8664" y2="9.2004">
	<stop  offset="0" style="stop-color:#A2DED7"/>
	<stop  offset="1" style="stop-color:#F1A3A7"/>
</linearGradient>
<path class="st11" d="M58,61.2c-0.5,0-0.9-0.4-1-0.9c-0.2-1.3-4.6-30.9-0.6-44.1c0.2-0.5,0.7-0.8,1.2-0.7c0,0,0,0,0,0
	c0.5,0.2,0.8,0.7,0.7,1.2c0,0,0,0,0,0C54.5,29.5,59,59.7,59,60c0.1,0.5-0.3,1.1-0.8,1.2c0,0,0,0,0,0L58,61.2z"/>
<linearGradient id="SVGID_13_" gradientUnits="userSpaceOnUse" x1="63.0206" y1="113.8617" x2="63.0206" y2="9.2004">
	<stop  offset="0" style="stop-color:#A2DED7"/>
	<stop  offset="1" style="stop-color:#F1A3A7"/>
</linearGradient>
<path class="st12" d="M68.1,111.8c-4.7,0.1-9.3-1.5-12.9-4.5c-2.3-2-4.1-4.5-5.3-7.4c-0.2-0.5,0.1-1.1,0.6-1.3c0,0,0,0,0,0
	c0.5-0.2,1.1,0.1,1.3,0.6c0,0,0,0,0,0c1,2.5,2.7,4.8,4.7,6.5c4.6,3.9,10.8,5,18.3,3.1c0.5-0.1,1.1,0.2,1.2,0.7c0,0,0,0,0,0
	c0.1,0.5-0.2,1.1-0.7,1.2c0,0,0,0,0,0C73,111.5,70.6,111.8,68.1,111.8z"/>
<linearGradient id="SVGID_14_" gradientUnits="userSpaceOnUse" x1="83.7887" y1="113.8617" x2="83.7887" y2="9.2004">
	<stop  offset="0" style="stop-color:#A2DED7"/>
	<stop  offset="1" style="stop-color:#F1A3A7"/>
</linearGradient>
<path class="st13" d="M84,89.1c-7.7,0.3-14.2-5.8-14.5-13.5s5.8-14.2,13.5-14.5c0.3,0,0.6,0,0.9,0c7.8,0,14,6.3,14,14
	S91.8,89.2,84,89.1L84,89.1z M84,63.1h-0.8c-6.7,0.2-11.9,5.8-11.7,12.5c0.2,6.7,5.8,11.9,12.5,11.7c6.7-0.2,11.9-5.8,11.7-12.5
	C95.5,68.5,90.4,63.3,84,63.1z"/>
<linearGradient id="SVGID_15_" gradientUnits="userSpaceOnUse" x1="79.6996" y1="113.8617" x2="79.6996" y2="9.2004">
	<stop  offset="0" style="stop-color:#A2DED7"/>
	<stop  offset="1" style="stop-color:#F1A3A7"/>
</linearGradient>
<path class="st14" d="M75.3,85.9c-0.6,0.1-1-0.4-1.1-0.9s0.4-1,0.9-1.1c9.8-1.8,7.9-21.5,7.9-21.7c0-0.6,0.4-1,0.9-1.1
	c0.6,0,1,0.4,1.1,0.9c0.1,0.9,2.1,21.8-9.5,23.9L75.3,85.9z"/>
<linearGradient id="SVGID_16_" gradientUnits="userSpaceOnUse" x1="88.4714" y1="113.8617" x2="88.4714" y2="9.2004">
	<stop  offset="0" style="stop-color:#A2DED7"/>
	<stop  offset="1" style="stop-color:#F1A3A7"/>
</linearGradient>
<path class="st15" d="M92.9,85.4c-0.1,0-0.3,0-0.4-0.1c-0.3-0.1-7.3-3.5-9.6-13.3c-0.1-0.6,0.2-1.1,0.8-1.2s1.1,0.2,1.2,0.8
	c2,8.8,8.2,11.7,8.4,11.8c0.6,0.1,0.9,0.7,0.8,1.2C94,85.2,93.4,85.6,92.9,85.4L92.9,85.4z"/>
<linearGradient id="SVGID_17_" gradientUnits="userSpaceOnUse" x1="57.849" y1="113.8617" x2="57.849" y2="9.2004">
	<stop  offset="0" style="stop-color:#A2DED7"/>
	<stop  offset="1" style="stop-color:#F1A3A7"/>
</linearGradient>
<path class="st16" d="M64.6,96.5c-9.8,0-14.8-13-15-13.6c-0.2-0.5,0.1-1.1,0.6-1.3c0.5-0.2,1.1,0.1,1.3,0.6l0,0
	c0.1,0.2,4.9,12.8,13.7,12.2c0.6,0,1,0.4,1.1,0.9c0,0.6-0.4,1-0.9,1.1L64.6,96.5z"/>
<linearGradient id="SVGID_18_" gradientUnits="userSpaceOnUse" x1="58.8151" y1="113.8617" x2="58.8151" y2="9.2004">
	<stop  offset="0" style="stop-color:#A2DED7"/>
	<stop  offset="1" style="stop-color:#F1A3A7"/>
</linearGradient>
<path class="st17" d="M65.4,83.1c-7.9,0-14-14.1-14.2-14.7c-0.2-0.5,0-1.1,0.5-1.3c0.5-0.2,1.1,0,1.3,0.5
	c1.6,3.8,6.9,13.4,12.3,13.4h0.1c0.6,0,1,0.4,1,1s-0.4,1-1,1L65.4,83.1z"/>
<linearGradient id="SVGID_19_" gradientUnits="userSpaceOnUse" x1="84.598" y1="113.8617" x2="84.598" y2="9.2004">
	<stop  offset="0" style="stop-color:#A2DED7"/>
	<stop  offset="1" style="stop-color:#F1A3A7"/>
</linearGradient>
<path class="st18" d="M74.2,111.2c-0.5,0-0.9-0.3-1-0.7c-0.6-2-0.9-4.2-0.8-6.3c0-4.3,2.1-8.2,5.7-10.6c1.8-1.1,3.8-1.9,5.9-2.2
	c3.2-0.5,7.9-0.2,12.5,4.3c0.4,0.4,0.4,1,0,1.4s-1,0.4-1.4,0c-4.1-4.4-10.7-5.2-15.7-1.9l0,0c-7.2,4.7-4.1,14.4-4.1,14.5
	c0.2,0.5-0.1,1.1-0.6,1.3c0,0,0,0,0,0C74.4,111.1,74.3,111.1,74.2,111.2z"/>
<linearGradient id="SVGID_20_" gradientUnits="userSpaceOnUse" x1="81.17" y1="113.8617" x2="81.17" y2="9.2004">
	<stop  offset="0" style="stop-color:#A2DED7"/>
	<stop  offset="1" style="stop-color:#F1A3A7"/>
</linearGradient>
<path class="st19" d="M81.2,108c-0.6,0-1-0.4-1-1V93.3c0-0.6,0.4-1,1-1s1,0.4,1,1V107C82.2,107.6,81.7,108,81.2,108z"/>
<linearGradient id="SVGID_21_" gradientUnits="userSpaceOnUse" x1="87.0801" y1="113.8617" x2="87.0801" y2="9.2004">
	<stop  offset="0" style="stop-color:#A2DED7"/>
	<stop  offset="1" style="stop-color:#F1A3A7"/>
</linearGradient>
<path class="st20" d="M87.1,105.4c-0.6,0-1-0.4-1-1V92.3c0-0.6,0.4-1,1-1s1,0.4,1,1v12.1C88.1,104.9,87.7,105.4,87.1,105.4
	C87.1,105.4,87.1,105.4,87.1,105.4z"/>
<linearGradient id="SVGID_22_" gradientUnits="userSpaceOnUse" x1="59.9942" y1="113.8617" x2="59.9942" y2="9.2004">
	<stop  offset="0" style="stop-color:#A2DED7"/>
	<stop  offset="1" style="stop-color:#F1A3A7"/>
</linearGradient>
<path class="st21" d="M60,113.1C30.7,113.1,6.9,89.4,6.9,60c0-14.1,5.6-27.6,15.6-37.6c20.7-20.7,54.4-20.7,75.1,0s20.7,54.4,0,75.1
	l0,0C87.6,107.5,74.1,113.1,60,113.1z M60,8.9C31.8,8.9,8.9,31.8,8.9,60s22.9,51.1,51.1,51.1s51.1-22.9,51.1-51.1
	C111,31.8,88.2,9,60,8.9z"/>
<linearGradient id="SVGID_23_" gradientUnits="userSpaceOnUse" x1="78.6298" y1="113.8617" x2="78.6298" y2="9.2004">
	<stop  offset="0" style="stop-color:#A2DED7"/>
	<stop  offset="1" style="stop-color:#F1A3A7"/>
</linearGradient>
<path class="st22" d="M78.3,24.9c-1.1,0-2.3-0.1-3.5-0.2c-3.5-0.3-6.9-1.1-10.3-2.2c-0.5-0.2-0.8-0.8-0.6-1.3
	c0.2-0.5,0.8-0.8,1.3-0.6c0.2,0.1,17.1,6,26.6-2c0.4-0.4,1.1-0.3,1.4,0.1c0.4,0.4,0.3,1.1-0.1,1.4C89.4,23.3,84.4,24.9,78.3,24.9z"
	/>
<linearGradient id="SVGID_24_" gradientUnits="userSpaceOnUse" x1="86.1732" y1="113.8617" x2="86.1732" y2="9.2004">
	<stop  offset="0" style="stop-color:#A2DED7"/>
	<stop  offset="1" style="stop-color:#F1A3A7"/>
</linearGradient>
<path class="st23" d="M79.7,47.5c-0.8,0-1.6,0-2.3-0.1c-4.3-0.1-8.5-1-12.5-2.5c-0.5-0.2-0.8-0.8-0.5-1.3c0,0,0,0,0,0
	c0.2-0.5,0.8-0.8,1.3-0.5c0,0,0,0,0,0c3.8,1.4,7.8,2.2,11.9,2.3c6.7,0.3,17.2-0.8,28.9-7.6c0.5-0.3,1.1-0.1,1.4,0.4
	c0.3,0.5,0.1,1.1-0.4,1.4C99.1,44.6,89.5,47.4,79.7,47.5z"/>
<linearGradient id="SVGID_25_" gradientUnits="userSpaceOnUse" x1="87.7276" y1="113.8617" x2="87.7276" y2="9.2004">
	<stop  offset="0" style="stop-color:#A2DED7"/>
	<stop  offset="1" style="stop-color:#F1A3A7"/>
</linearGradient>
<path class="st24" d="M80.8,59.3c-1,0-1.9,0-2.8-0.1c-4.8-0.2-9.5-1.3-13.8-3.2c-0.5-0.2-0.7-0.8-0.5-1.3c0,0,0,0,0,0
	c0.2-0.5,0.8-0.7,1.3-0.5c0,0,0,0,0,0c4.2,1.8,8.6,2.8,13.2,3c7.4,0.4,19-0.8,32-9.2c0.5-0.3,1.1-0.2,1.4,0.3c0,0,0,0,0,0
	c0.3,0.5,0.2,1.1-0.3,1.4c0,0,0,0,0,0C99.4,57.5,88.5,59.3,80.8,59.3z"/>
<linearGradient id="SVGID_26_" gradientUnits="userSpaceOnUse" x1="82.55" y1="113.8617" x2="82.55" y2="9.2004">
	<stop  offset="0" style="stop-color:#A2DED7"/>
	<stop  offset="1" style="stop-color:#F1A3A7"/>
</linearGradient>
<path class="st25" d="M78,35.9c-1,0-1.9,0-2.7-0.1c-3.7-0.2-7.4-1-10.9-2.3c-0.5-0.2-0.8-0.8-0.5-1.3c0.2-0.5,0.8-0.8,1.3-0.5l0,0
	c3.3,1.2,6.8,2,10.3,2.1c8.5,0.5,17-1.6,24.3-5.9c0.5-0.3,1.1-0.1,1.4,0.3c0,0,0,0,0,0c0.3,0.5,0.1,1.1-0.3,1.4c0,0,0,0,0,0
	C93.9,33.7,86,35.9,78,35.9z"/>
<linearGradient id="SVGID_27_" gradientUnits="userSpaceOnUse" x1="80.0502" y1="113.8617" x2="80.0502" y2="9.2004">
	<stop  offset="0" style="stop-color:#A2DED7"/>
	<stop  offset="1" style="stop-color:#F1A3A7"/>
</linearGradient>
<path class="st26" d="M83.2,58.9H83c-0.5-0.1-0.9-0.6-0.8-1.1c0,0,0,0,0,0C85.2,40.8,83,29,80.6,22c-2.6-7.5-5.9-11-5.9-11
	c-0.4-0.4-0.4-1,0-1.4c0,0,0,0,0,0c0.4-0.4,1-0.4,1.4,0c0,0,0,0,0,0c0.1,0.2,3.6,3.9,6.3,11.8c2.5,7.2,4.8,19.4,1.7,36.7
	C84.1,58.5,83.7,58.9,83.2,58.9z"/>
</svg>
