<?xml version="1.0" encoding="utf-8"?>
<!-- Generator: Adobe Illustrator 23.0.4, SVG Export Plug-In . SVG Version: 6.00 Build 0)  -->
<svg version="1.1" id="圖層_1" xmlns="http://www.w3.org/2000/svg" xmlns:xlink="http://www.w3.org/1999/xlink" x="0px" y="0px"
	 viewBox="0 0 120 120" style="enable-background:new 0 0 120 120;" xml:space="preserve">
<style type="text/css">
	.st0{fill:url(#SVGID_1_);}
	.st1{fill:#FFFFFF;}
	.st2{fill:url(#SVGID_2_);}
	.st3{fill:url(#SVGID_3_);}
	.st4{fill:none;}
	.st5{fill:url(#SVGID_4_);}
	.st6{fill:url(#SVGID_5_);}
	.st7{fill:url(#SVGID_6_);}
	.st8{fill:url(#SVGID_7_);}
	.st9{fill:url(#SVGID_8_);}
	.st10{fill:url(#SVGID_9_);}
	.st11{fill:url(#SVGID_10_);}
	.st12{fill:#A84444;}
	.st13{fill:url(#SVGID_11_);}
</style>
<linearGradient id="SVGID_1_" gradientUnits="userSpaceOnUse" x1="60" y1="111.0205" x2="60" y2="8.7538">
	<stop  offset="0" style="stop-color:#A2DED7"/>
	<stop  offset="1" style="stop-color:#F1A3A7"/>
</linearGradient>
<circle class="st0" cx="60" cy="60" r="51.9"/>
<path class="st1" d="M46.5,47.2c0,0-4.9-4.8-5.2-6.2s-1.2-5-2.8-5s-10.6-2.3-7,3s5.9,15.4,9.9,16.6"/>
<linearGradient id="SVGID_2_" gradientUnits="userSpaceOnUse" x1="38.5304" y1="111.0205" x2="38.5304" y2="8.7538">
	<stop  offset="0" style="stop-color:#A2DED7"/>
	<stop  offset="1" style="stop-color:#F1A3A7"/>
</linearGradient>
<path class="st2" d="M41.3,56.1c-2.7-0.8-4.6-5.1-6.6-9.6c-1-2.5-2.2-4.9-3.6-7.2c-0.9-1.4-1.1-2.4-0.7-3.2c0.9-1.5,3.9-1.2,6.9-0.7
	c0.5,0.1,1,0.1,1.2,0.2c1.3,0,2.4,1.8,3.2,5.4c0.2,0.9,3.2,4.2,5.1,6l-0.7,0.7c-0.8-0.8-5-5-5.4-6.5c-0.6-2.8-1.5-4.6-2.3-4.6
	c-0.4,0-0.9-0.1-1.3-0.2c-1.6-0.2-5.3-0.8-6,0.3c-0.2,0.4,0,1.2,0.6,2.1c1.4,2.3,2.7,4.8,3.7,7.3c1.8,4.1,3.7,8.4,6,9.1L41.3,56.1z"
	/>
<path class="st1" d="M45,57.8c-0.5,0-3.6-2-3.6-2l5.1-8.8c2.4,1.6,9.1,0,9.1,0l-5.3,12.6L45,57.8z"/>
<linearGradient id="SVGID_3_" gradientUnits="userSpaceOnUse" x1="48.59" y1="111.0205" x2="48.59" y2="8.7538">
	<stop  offset="0" style="stop-color:#A2DED7"/>
	<stop  offset="1" style="stop-color:#F1A3A7"/>
</linearGradient>
<path class="st3" d="M50.5,60.2l-5.7-2c-1.3-0.5-2.6-1.2-3.8-2L40.8,56l5.6-9.6l0.4,0.3c1.9,1.2,6.9,0.3,8.7-0.1l0.9-0.2L50.5,60.2z
	 M45.1,57.3L45.1,57.3L50,59l4.8-11.4c-1.8,0.4-5.9,1-8.1,0L42,55.7C42.9,56.3,43.9,56.9,45.1,57.3L45.1,57.3z"/>
<path class="st1" d="M57.6,45.2c0,0-34,27-12.7,44.1l34.6,0.4c0,0,8.7-0.8,7.3-14.6c0,0-2.7-30.1-13.2-29.5"/>
<line class="st4" x1="39" y1="69.9" x2="87.4" y2="74.9"/>
<polyline class="st1" points="65.1,76.6 58.8,81.9 53.5,77.3 53.8,89.1 58.8,89.2 58.8,82.1 "/>
<polyline class="st1" points="37.9,76 31.7,81.8 26.6,77.7 26.7,89.2 45,89.1 "/>
<line class="st4" x1="31.9" y1="81.6" x2="32" y2="89.1"/>
<linearGradient id="SVGID_4_" gradientUnits="userSpaceOnUse" x1="62.7679" y1="111.0205" x2="62.7679" y2="8.7538">
	<stop  offset="0" style="stop-color:#A2DED7"/>
	<stop  offset="1" style="stop-color:#F1A3A7"/>
</linearGradient>
<polygon class="st5" points="38.5,70.6 38.6,69.6 87,74.6 87,75.6 "/>
<linearGradient id="SVGID_5_" gradientUnits="userSpaceOnUse" x1="58.8" y1="111.0205" x2="58.8" y2="8.7538">
	<stop  offset="0" style="stop-color:#A2DED7"/>
	<stop  offset="1" style="stop-color:#F1A3A7"/>
</linearGradient>
<path class="st6" d="M58.8,89.7l-5.9-0.2l-0.3-13.4l5.8,5.1l6.1-5L65,77l-6.2,5L58.8,89.7z M53.8,88.6l4.1,0.1v-6.6l-4.3-3.8
	L53.8,88.6z"/>
<linearGradient id="SVGID_6_" gradientUnits="userSpaceOnUse" x1="35.42" y1="111.0205" x2="35.42" y2="8.7538">
	<stop  offset="0" style="stop-color:#A2DED7"/>
	<stop  offset="1" style="stop-color:#F1A3A7"/>
</linearGradient>
<polygon class="st7" points="26.1,89.8 26,76.6 31.5,81.2 37.5,75.6 38.1,76.2 31.5,82.5 26.9,78.7 27,88.9 44.9,88.8 44.9,89.7 "/>
<linearGradient id="SVGID_7_" gradientUnits="userSpaceOnUse" x1="31.5374" y1="111.0205" x2="31.5374" y2="8.7538">
	<stop  offset="0" style="stop-color:#A2DED7"/>
	<stop  offset="1" style="stop-color:#F1A3A7"/>
</linearGradient>
<polygon class="st8" points="31,81.6 32,81.5 32,89 31.1,89 "/>
<linearGradient id="SVGID_8_" gradientUnits="userSpaceOnUse" x1="62.4735" y1="111.0205" x2="62.4735" y2="8.7538">
	<stop  offset="0" style="stop-color:#A2DED7"/>
	<stop  offset="1" style="stop-color:#F1A3A7"/>
</linearGradient>
<path class="st9" d="M79.6,89.9l-34.8-0.4h-0.1c-4.7-3.7-7.1-8.2-7.2-13.4c-0.2-13.7,16-27.9,19.3-30.6l0.2-0.2l0.2,0.2
	c0.9,1.1,4.5,1.9,9,1.9s8-0.8,9-1.9l0.1-0.1h0.2c9.3,2.3,11.7,28.5,11.8,29.6c0.5,5.2-0.3,9.2-2.5,11.9
	C83.5,88.5,81.6,89.6,79.6,89.9z M45,89l34.7,0.4c1.9-0.3,3.5-1.3,4.7-2.8c2.1-2.6,2.9-6.4,2.4-11.5l0,0c0-0.3-2.5-26.7-11.3-29.2
	c-1.4,1.4-5.8,1.9-9.2,1.9S58.4,47.4,57,46c-3.6,3-19.1,16.8-19,30.1C38.1,81,40.4,85.4,45,89z"/>
<path class="st1" d="M74.2,59.3c0,0-13.7,4.5-10.8,7.2s0,0,13.2,0s10-9.5,10-9.5l-0.7-2l-11.7,2.7l0.5,1.3L74.2,59.3z"/>
<linearGradient id="SVGID_9_" gradientUnits="userSpaceOnUse" x1="74.9557" y1="111.0205" x2="74.9557" y2="8.7538">
	<stop  offset="0" style="stop-color:#A2DED7"/>
	<stop  offset="1" style="stop-color:#F1A3A7"/>
</linearGradient>
<path class="st10" d="M65.1,68.3c-0.6,0-1-0.4-2.1-1.4c-0.4-0.4-0.6-0.9-0.5-1.5c0.7-2.9,10.3-6.1,11.5-6.5h0.1l-0.5-1.4l12.6-2.9
	L87,57c0.7,2.2,0.4,4.7-0.8,6.6c-1.7,2.3-4.9,3.5-9.6,3.5h-0.3c-6.3,0-8.9,0.7-10.1,1C65.9,68.2,65.5,68.3,65.1,68.3z M74.9,58.1
	l0.4,1.2l-1,0.4c-4,1.3-10.5,4-10.9,5.8c-0.1,0.2,0,0.5,0.2,0.6c1.3,1.2,1.3,1.2,2.3,0.9c1.3-0.3,3.9-1,10.6-1c4.3,0,7.3-1,8.8-3.1
	c1.8-2.5,0.7-5.8,0.7-5.8l-0.5-1.6L74.9,58.1z"/>
<path class="st1" d="M80,46.9c2.7,2.2,4.9,5,6.4,8.1l-12.4,3.3c-1-2.5-1.7-5.2-2-7.9c-0.2-3.7,0.2-3.6,0.2-3.6L80,46.9z"/>
<linearGradient id="SVGID_10_" gradientUnits="userSpaceOnUse" x1="79.3079" y1="111.0205" x2="79.3079" y2="8.7538">
	<stop  offset="0" style="stop-color:#A2DED7"/>
	<stop  offset="1" style="stop-color:#F1A3A7"/>
</linearGradient>
<path class="st11" d="M73.8,58.8l-0.2-0.4c-1.1-2.6-1.7-5.2-2-8c-0.2-3.5,0.1-3.8,0.3-4l0.2-0.2h0.2l7.9,0.1l0.1,0.1
	c2.8,2.2,5,5.1,6.5,8.3l0.2,0.5L73.8,58.8z M72.6,47.3c-0.1,1-0.1,2.1,0,3.1c0.2,2.5,0.8,5,1.8,7.3l11.4-3c-1.4-2.8-3.4-5.3-5.9-7.3
	L72.6,47.3z"/>
<path class="st1" d="M77.5,23.2c-0.5,0.6-0.9,1.4-1,2.2c-0.1,1.1,0,2.3,0.3,3.3c0.4,1.4,0.9,2.7,1.5,4.1c0.3,0.8,0.4,1.6,0.7,2.4
	c0.3,1,0.5,2.1,0.8,3.1c0.3,0.9,0.5,1.8,0.7,2.7c0.1,0.5,0.1,1-0.1,1.4c-0.2,0.4-0.3,0.8-0.5,1.1c-0.4,0.9-1,1.7-1.8,2.3
	c-1,0.7-2.1,1.2-3.2,1.4c-0.7,0.3-1.5,0.5-2.2,0.5c-0.6-0.1-1.1-0.2-1.6-0.4c0-0.4,1.1-1.3,1.4-1.7c0.6-0.6,1-1.3,1.4-2
	c0.6-1.6,0.9-3.3,1-5c-0.1-2.2-0.4-4.3-1.1-6.4c-0.5-2.2-0.3-4.4,0.4-6.5c0.4-1.3,1-3.6,3.3-3"/>
<path class="st1" d="M64.8,22.9c-0.3-0.5-0.7-0.9-1-1.3s-0.5-1-1-1.2c-0.6,0.6-0.6,1.6-1.2,2.3s-1,1.3-1.5,2
	c-0.2,0.6-0.4,1.2-0.5,1.8l3,2.9L64.8,22.9z"/>
<path class="st1" d="M76.7,46.7c0.4,0.2,0.9,0.4,1.4,0.5c0.8-0.1,1.5-0.4,2.2-0.8c0.4-0.2,0.7-0.3,1-0.5c0.3-0.2,0.5-0.3,0.6,0
	s-0.2,0.8-0.2,1c-0.2,0.8-0.8,1.6-1.6,2c-0.5,0.3-1.1,0.5-1.8,0.5c-0.5,0-0.9-0.1-1.4-0.2c-1.1-0.1-2.1-0.8-2.7-1.7"/>
<path class="st1" d="M71.6,47.4c0.5,0.5,1.3,0.8,2,0.9c0.4-0.1,0.8-0.1,1.2,0c0.4,0.2,0.1,0.5-0.1,0.8c-0.8,1.4-2.8,1.5-4.4,0.8
	c-0.9-0.3-1.8-0.9-2.4-1.7"/>
<path class="st1" d="M61.2,47.4c-0.8,0.4-1.6,0.7-2.4,0.9c-0.8,0.2-1.5,0.2-1.9,0.8c0.5,0,0.9,0,1.4,0.2c0.6,0.2,1.2,0.4,1.8,0.6
	c0.6,0.3,1.2,0.4,1.8,0.2c0.6-0.3,1.1-0.7,1.6-1.1c0.5-0.4,1-0.8,1.4-1.3"/>
<path class="st1" d="M55.1,42.4c-0.6-0.5-1.4-0.8-2.2-0.8c-0.5,0-1,0-1.5,0c-0.3,0-0.7-0.1-1-0.1c0.1,0.5,1.4,1.2,1.8,1.5
	c0.6,0.5,1.1,1.1,1.7,1.7l1.4,0.9l3.7-0.2L55.1,42.4z"/>
<path class="st1" d="M56.8,45.3c-1.3-0.5-2.7-0.7-4.1-0.6c-0.5,0-1.8,0.4-2.2,0.1c0.6,0,1.2,1,1.6,1.3c2,1.3,5.5,3.2,7.7,0.8"/>
<path class="st12" d="M65,47.5c2,0.8,4.3,0.6,6.1-0.6"/>
<path class="st1" d="M65.1,47.5c-0.4-0.7-1.2-1.3-1.7-2s-0.9-1.3-1.2-1.9c-0.7-1.7-0.9-3.5-0.6-5.3c0.2-1.9-0.3-3.7,0-5.6
	c0.2-1.2,0.6-2.4,0.8-3.6c0.1-0.9,0.4-1.8,0.8-2.7c0.9-2,2.6-3.7,2.2-6l-2,27.4h2.2c0,0,2.2,1.3,5.6-0.5S76.7,36,76.7,36L74,25.1
	c-0.2-0.5-0.6-1-0.8-1.6c-0.3-0.8-0.6-1.7-0.8-2.6c-0.7,0.5-1.4,1.2-1.9,1.8c-0.5,0.5-1.4,1.3-1.4,2"/>
<path class="st1" d="M73.6,31.3c-0.3-0.7-0.6-1.4-1-2c-0.8-1.2-1.8-2.4-2.8-3.5c-0.8-1-1.7-1.9-2.5-2.9c-0.8-0.8-1.5-1.7-2-2.8
	c0,0-0.7,12.6-1.9,14.5s0.8,12.8,0.8,12.8l1.8-0.2L73.6,31.3z"/>
<path class="st1" d="M62.3,28.5c-0.2-3-4.8-4.4-7.8-5.8c1.3,3.5,1.8,7.3,1.5,11.1c-0.3,3.5-2.6,7.8,0.3,11c2.2,2.3,5.5,3.3,8.6,2.8"
	/>
<polygon class="st1" points="65.3,21.7 64.2,23.3 64.3,28 66.3,27.4 "/>
<polygon class="st1" points="71.5,47 71.8,47.9 68.8,48.6 67.9,48.2 69.6,46.6 "/>
<linearGradient id="SVGID_11_" gradientUnits="userSpaceOnUse" x1="66.1474" y1="111.0205" x2="66.1474" y2="8.7538">
	<stop  offset="0" style="stop-color:#A2DED7"/>
	<stop  offset="1" style="stop-color:#F1A3A7"/>
</linearGradient>
<path class="st13" d="M82,45.3c-0.1-0.1-0.3-0.2-0.5-0.1c-1.4,0.3-2.4,1.4-3.7,1.3c1.7-1.1,3-2.7,3.2-4.8c0.2-2.3-1.1-5.3-1.8-7.5
	c-1-3.4-3.8-7.4-1.4-10.8c0.2-0.2,0.1-0.5-0.1-0.6c0.1-0.2,0-0.5-0.3-0.5c-1.7-0.3-2.8,0.6-3.4,2c-0.3-0.5-0.6-1-0.8-1.5
	c-0.2-0.6-0.4-1.3-0.6-2c-0.1-0.3-0.3-0.4-0.6-0.3c0,0-0.1,0-0.1,0c-0.9,0.7-1.6,1.4-2.4,2.3c-0.4,0.3-0.7,0.7-0.9,1.2
	c-1.2-1.2-2.3-2.5-2.9-3.9c-0.1-0.3-0.4-0.3-0.6-0.2c-0.2,0-0.3,0.2-0.3,0.4l0,0c0,0.6-0.1,1.1-0.2,1.6c-0.3-0.3-0.5-0.7-0.8-1
	c-0.2-0.4-0.5-0.7-0.9-0.9c-0.2-0.1-0.4-0.1-0.6,0.1c-0.4,0.6-0.8,1.3-1,2c-0.5,0.9-1.1,1.7-1.7,2.4c-1.6-0.9-3.5-1.6-5-2.3
	c-0.3-0.2-0.8,0.1-0.7,0.5c1.2,3.4,1.8,7,1.5,10.6c-0.2,2.7-1.4,5.4-1.1,8.1c-1.2-0.5-2.7-0.4-4-0.5c-0.3,0-0.5,0.2-0.5,0.5
	c0,0,0,0.1,0,0.1c0.3,0.6,0.7,1,1.3,1.3c0.6,0.4,1.2,0.9,1.7,1.4c-0.7,0.1-1.5,0.3-2,0.2c-0.1-0.1-0.2-0.1-0.4-0.2
	c-0.5-0.2-0.9,0.6-0.4,0.9c0.1,0,0.1,0,0.2,0l0,0c0.8,0.2,1.4,1.3,2.1,1.8c0.8,0.5,1.8,1,2.7,1.3c0.5,0.2,1.1,0.3,1.6,0.3
	c-0.1,0.1-0.3,0.2-0.4,0.3c-0.3,0.3-0.1,0.8,0.3,0.8c1.6-0.2,3.1,1.3,4.7,1.1c1.3-0.2,2.9-1.7,3.7-2.7c0.7,0.2,1.5,0.4,2.3,0.4
	c0,0,0,0.1,0.1,0.1c1.7,1.9,6.4,3.6,7.7,0.5c1.3,0.8,2.9,1,4.4,0.5C80.9,49,83.1,46.6,82,45.3z M76.9,23.2
	c-2.4,3.7,0.5,7.9,1.5,11.6c0.7,2.3,2.2,5.7,1.2,8.1c-1.2,2.9-4.9,4.5-7.9,4c0.7-1.1,2-1.9,2.5-3.1c0.8-2,1.2-4.2,1-6.4
	c-0.1-2-0.9-4-1.2-6c0-0.1,0-0.2,0-0.3c0,0,0-0.1,0-0.1c0-0.3-0.1-0.5-0.1-0.8C73.9,28.6,74.2,23.1,76.9,23.2z M70.7,23.1
	c0.4-0.5,0.9-0.9,1.4-1.3c0.1,0.5,0.3,1.1,0.5,1.6c0.3,0.7,0.7,1.3,1,2c0,0.1,0.1,0.1,0.1,0.1C73.2,26.6,73,28,73,29.1
	c-0.7-1.2-1.6-2.4-2.6-3.4c-0.3-0.3-0.7-0.7-1-1C69.5,24,70.2,23.5,70.7,23.1z M62.1,22.8c0.2-0.6,0.5-1.1,0.8-1.6
	c0.2,0.2,0.3,0.5,0.5,0.8c0.2,0.3,0.6,0.7,0.9,1.1c-0.6,1.3-1.5,2.6-2,4c-0.4-0.8-1.1-1.5-1.9-2C61.1,24.3,61.6,23.5,62.1,22.8z
	 M56,36.4c0.9-4.3,0.7-8.8-0.7-13c2.5,1,6,2.2,6.6,4.9c-0.5,1.9-0.9,3.8-1,5.8c0,1.3,0.2,2.7,0.1,4c-0.1,1.1-0.1,2.1,0,3.2
	c0.3,2.4,1.8,3.9,3.2,5.7c-1.4,0.1-2.8,0-4.1-0.5c-0.1-0.1-0.3-0.2-0.4-0.1c-1-0.4-1.9-0.9-2.7-1.7c-0.7-0.7-1.2-1.5-1.4-2.4
	c0-0.1,0-0.2-0.1-0.3C55.1,40.3,55.6,38.3,56,36.4z M51.6,41.9c1.1,0,2.2,0.1,3,0.7c0.2,0.7,0.5,1.3,0.9,1.9
	c-0.4-0.1-0.8-0.1-1.2-0.2c0,0,0,0,0-0.1h0c-0.6-0.6-1.2-1.2-1.9-1.8C52.2,42.3,51.9,42.1,51.6,41.9z M53.6,46.5
	c-0.6-0.3-1-0.8-1.5-1.2c1.5-0.2,3.1,0,4.5,0.5c0.6,0.6,1.4,1,2.2,1.4C57.2,48,55.2,47.3,53.6,46.5z M60,49.4
	c-0.5-0.2-1-0.4-1.6-0.6c0.4-0.1,0.9-0.2,1.2-0.3c0.6-0.2,1.2-0.5,1.7-0.8C62.3,48,63.1,48,64,48C62.9,49.1,61.5,50,60,49.4z
	 M65.4,47.1c-1.7-2.3-3.5-4-3.5-7c-0.2-2.7-0.1-5.4,0.3-8.1c0.3-2.3,1-4.5,1.9-6.6c0.7-1.2,1.4-2.4,1.6-3.6c0.8,1.2,1.9,2.3,2.8,3.3
	c0,0,0,0,0,0c0.1,0.1,0.1,0.1,0.2,0.2c1.7,1.8,3.2,3.8,4.3,6c0.4,3.3,1.6,6.2,0.9,9.7c-0.2,1.6-0.9,3.1-2,4.4
	c-0.4,0.3-0.7,0.7-0.9,1.1c-0.1,0-0.2,0-0.2,0C69.2,47.5,67.2,47.7,65.4,47.1z M73.9,49.2c-0.2,0.2-0.4,0.3-0.7,0.4
	c-1.5,0.6-3.4-0.2-4.6-1.3c0.7-0.1,1.4-0.4,2.1-0.7c0.1,0,0.1,0.1,0.2,0.1c0,0,0,0,0,0c0.1,0,0.2,0,0.3,0.1c0,0,0,0,0.1,0.1
	c0.5,0.4,1.1,0.7,1.7,0.9c0.2,0,0.7-0.1,0.9,0C74.4,48.7,74.4,48.9,73.9,49.2z M81.3,46.3c0,0-0.6,1.1-0.7,1.2
	c-0.5,0.7-1.2,1.1-2.1,1.2c-1.3,0.2-2.6-0.2-3.6-1.1c0.5-0.1,1-0.3,1.5-0.5c0.6,0.3,1.3,0.4,2,0.4c0.5-0.1,1-0.4,1.4-0.6
	c0.3-0.2,0.6-0.3,0.9-0.4C81.5,46.2,81.6,46.1,81.3,46.3z"/>
<path class="st1" d="M60.2,110.1c-27.5,0-49.7-22.3-49.7-49.7s22.3-49.7,49.7-49.7s49.7,22.3,49.7,49.7v0
	C109.8,87.8,87.6,110,60.2,110.1z M60.2,11.1c-27.2,0-49.2,22-49.2,49.2s22,49.2,49.2,49.2s49.2-22,49.2-49.2c0,0,0,0,0,0
	C109.4,33.2,87.3,11.1,60.2,11.1z"/>
</svg>
