<?xml version="1.0" encoding="utf-8"?>
<!-- Generator: Adobe Illustrator 23.0.4, SVG Export Plug-In . SVG Version: 6.00 Build 0)  -->
<svg version="1.1" id="圖層_1" xmlns="http://www.w3.org/2000/svg" xmlns:xlink="http://www.w3.org/1999/xlink" x="0px" y="0px"
	 viewBox="0 0 120 120" style="enable-background:new 0 0 120 120;" xml:space="preserve">
<style type="text/css">
	.st0{fill:url(#SVGID_1_);}
	.st1{fill:url(#SVGID_2_);}
</style>
<linearGradient id="SVGID_1_" gradientUnits="userSpaceOnUse" x1="60" y1="108.1741" x2="60" y2="17.748">
	<stop  offset="0" style="stop-color:#A2DED7"/>
	<stop  offset="1" style="stop-color:#F1A3A7"/>
</linearGradient>
<path class="st0" d="M60,109c-27.1,0-49-21.9-49-49s21.9-49,49-49s49,21.9,49,49C109,87.1,87.1,109,60,109z M60,13.3
	c-25.8,0-46.7,20.9-46.7,46.7s20.9,46.7,46.7,46.7s46.7-20.9,46.7-46.7l0,0C106.7,34.2,85.8,13.3,60,13.3z"/>
<linearGradient id="SVGID_2_" gradientUnits="userSpaceOnUse" x1="59.224" y1="108.1741" x2="59.224" y2="17.748">
	<stop  offset="0" style="stop-color:#A2DED7"/>
	<stop  offset="1" style="stop-color:#F1A3A7"/>
</linearGradient>
<path class="st1" d="M94.2,51.9c0,1.9-1.2,3-3.3,3H79.8c-1.4,1.4-2.8,2.7-4.3,3.9H85c3.3,0,5.1,1.7,5.1,4.7v26.1
	c0,2.5-2.1,4.1-5.9,4.1s-5.9-1.6-5.9-4.1v-2h-10v2c0,2.5-2,4.1-5.8,4.1s-5.7-1.6-5.7-4.1V70.1l-1.6,0.6c-1.9,0.8-3.3,0.4-4.1-1.1
	c0-0.1-0.1-0.1-0.1-0.2v2.4c0,16.1-4.3,21.4-12.2,21.7c-3.5,0.1-7.2-1.4-10.5-3.6c-1.6-1-2.1-2.1-1.5-3.5s1.7-1.9,3.6-1.5
	c1.6,0.3,3.2,0.4,4.8,0.4c2.7-0.2,4-1.9,4.5-11.4c-3.4,2.7-7.2,5-11.2,6.8c-1.7,0.8-2.9,0.4-3.7-0.8s-0.5-2.4,1-3.4
	c5.6-3.7,10.4-8.5,14.2-14c0-1.3-0.1-2.5-0.1-3.7c-3.4,3.3-7.3,6-11.6,8c-1.5,0.8-2.8,0.6-3.6-0.6s-0.6-2.3,0.7-3.4
	c5.3-3.9,9.7-8.8,13-14.4c-0.2-0.6-0.4-1.2-0.6-1.8c-2.7,2.2-5.7,4-8.8,5.5c-1.6,0.7-2.8,0.4-3.6-0.7s-0.5-2.3,0.8-3.4
	c4.5-3.6,8.1-8.3,10.5-13.6h-7c-2,0-3.2-1.1-3.2-3s1.3-3,3.2-3h25.6c2.1,0,3.2,1.1,3.2,3c0,1.9-1.2,3-3.2,3h-6.6
	c-1.7,3-3.9,5.8-6.4,8.3c1.3,1.3,2.4,2.7,3.4,4.2c1.1-1.3,2.1-2.8,3-4.2c1.5-2.5,3.8-3.1,6.3-1.5s2.8,3.8,0.5,5.6
	c-2.3,1.8-4.8,3.4-7.4,4.7v0.1c1.9,0.6,3.7,1.4,5.4,2.3c-0.4-0.6-0.6-1.3-0.5-2c0-1.8,1.2-2.9,3.3-2.9H63v-7.7h-4.7
	c-2,0-3.2-1.1-3.2-3s1.2-3,3.2-3H63v-5c0-3,2.1-4.7,5.9-4.7s5.8,1.7,5.8,4.7v5h6.7c0-0.2,0.1-0.3,0.2-0.4c1.7-3.4,4.5-4.5,7.9-3
	s4.4,3.8,2.6,6.8c-2,3.6-4.4,7-7,10.2h5.7C93,48.9,94.2,49.9,94.2,51.9z M68,54.8H56.2c-0.3,0-0.7,0-1-0.1c0.7,0.4,1.3,0.9,2,1.3
	c2.5,1.6,2.5,3.7,0.5,5.5s-4.1,1.7-6.1-0.6c-0.5-0.6-0.9-1.1-1.3-1.6c0.4,2.7,0.7,5.3,0.8,8c0.4-0.7,1-1.2,1.7-1.6
	C58.4,63,63.5,59.2,68,54.8z M69.4,64.5c-0.5-0.1-0.9,0.3-1,0.8c0,0,0,0.1,0,0.1v4.9h10v-4.9c0-0.5-0.4-0.9-0.9-0.9c0,0,0,0-0.1,0
	L69.4,64.5z M78.4,81.8v-5.9h-10v5.9H78.4z M74.8,41.2v5.7c1.3-1.8,2.6-3.7,3.7-5.7H74.8z"/>
</svg>
