<?xml version="1.0" encoding="utf-8"?>
<!-- Generator: Adobe Illustrator 23.0.4, SVG Export Plug-In . SVG Version: 6.00 Build 0)  -->
<svg version="1.1" id="圖層_1" xmlns="http://www.w3.org/2000/svg" xmlns:xlink="http://www.w3.org/1999/xlink" x="0px" y="0px"
	 viewBox="0 0 120 120" style="enable-background:new 0 0 120 120;" xml:space="preserve">
<style type="text/css">
	.st0{fill:url(#SVGID_1_);}
	.st1{fill:url(#SVGID_2_);}
	.st2{fill:url(#SVGID_3_);}
	.st3{fill:url(#SVGID_4_);}
	.st4{fill:url(#SVGID_5_);}
</style>
<linearGradient id="SVGID_1_" gradientUnits="userSpaceOnUse" x1="52.7485" y1="104.3817" x2="52.7485" y2="21.2543">
	<stop  offset="0" style="stop-color:#A2DED7"/>
	<stop  offset="1" style="stop-color:#F1A3A7"/>
</linearGradient>
<path class="st0" d="M85.4,15.6l6,6c7.8,7.8,7.7,20.3,0,28.1L42.4,98.6c-7.8,7.8-20.4,7.8-28.1,0l-5.9-5.9l0,0L85.4,15.6L85.4,15.6z
	"/>
<linearGradient id="SVGID_2_" gradientUnits="userSpaceOnUse" x1="87.2728" y1="104.4205" x2="87.2728" y2="21.2932">
	<stop  offset="0" style="stop-color:#A2DED7"/>
	<stop  offset="1" style="stop-color:#F1A3A7"/>
</linearGradient>
<path class="st1" d="M111.6,92.8l-5.9,5.9c-7.7,7.7-20.1,7.7-27.8,0l-15-15l0,0l19.8-19.8l0,0L111.6,92.8L111.6,92.8z"/>
<linearGradient id="SVGID_3_" gradientUnits="userSpaceOnUse" x1="40.9052" y1="104.4586" x2="40.9052" y2="21.3313">
	<stop  offset="0" style="stop-color:#A2DED7"/>
	<stop  offset="1" style="stop-color:#F1A3A7"/>
</linearGradient>
<path class="st2" d="M29.7,21.7l5.9-5.9l0,0l22.4,22.4l0,0L38.1,58l0,0l-8.5-8.5C22,41.8,22,29.4,29.7,21.7z"/>
<linearGradient id="SVGID_4_" gradientUnits="userSpaceOnUse" x1="41.3846" y1="21.375" x2="77.9747" y2="21.375">
	<stop  offset="0" style="stop-color:#A2DED7"/>
	<stop  offset="1" style="stop-color:#F1A3A7"/>
</linearGradient>
<polygon class="st3" points="39.7,15.6 80.8,15.6 69.3,27.2 51.1,27.1 "/>
<linearGradient id="SVGID_5_" gradientUnits="userSpaceOnUse" x1="41.3846" y1="92.165" x2="77.9747" y2="92.165">
	<stop  offset="0" style="stop-color:#A2DED7"/>
	<stop  offset="1" style="stop-color:#F1A3A7"/>
</linearGradient>
<polygon class="st4" points="72.6,97.4 47.6,97.4 58.7,86.9 62.3,86.9 "/>
</svg>
