<?xml version="1.0" encoding="UTF-8"?>
<svg width="173px" height="769px" viewBox="0 0 173 769" version="1.1" xmlns="http://www.w3.org/2000/svg" xmlns:xlink="http://www.w3.org/1999/xlink">
    <!-- Generator: Sketch 52.2 (67145) - http://www.bohemiancoding.com/sketch -->
    <title>人人之間，</title>
    <desc>Created with Sketch.</desc>
    <g id="Page-1" stroke="none" stroke-width="1" fill="none" fill-rule="evenodd" opacity="0.15">
        <g id="作品介紹內頁" transform="translate(-14.000000, -10.000000)" fill="#FFFFFF" stroke="#9B9B9B">
            <path d="M-204.751572,319.565373 C-201.204844,384.563565 -183.456947,414.459178 -134.28695,430.269 L-133.908734,430.390609 L-134.127804,433.019447 L-134.494363,433.094767 C-145.291387,435.313334 -152.356708,443.365432 -154.87495,455.799251 L-155.006129,456.446949 L-155.593757,456.144601 C-173.731087,446.812531 -186.083313,433.236039 -194.128612,414.551491 C-200.738793,399.199887 -204.523847,380.47951 -206.548416,355.422176 C-208.606471,376.63776 -213.138306,393.268074 -221.892453,408.365805 C-233.457184,428.310776 -252.203007,444.509924 -280.241223,457.394326 L-280.603334,457.560727 L-282.69699,454.838974 L-282.310294,454.532932 C-258.124283,435.391432 -243.905576,414.050404 -236.730269,388.744672 C-233.695519,378.041775 -231.902376,366.657116 -230.988863,353.597198 C-230.295612,343.686239 -230.148103,335.690809 -230.121282,317.60681 C-230.117133,314.809282 -230.114795,313.567672 -230.109998,312.013457 L-230.10831,311.466617 L-198.975604,314.355219 L-199.044386,314.871082 C-199.393979,317.493026 -201.046399,318.910847 -204.751572,319.565373 Z M-21.5697516,319.565373 C-18.0230242,384.563565 -0.275126723,414.459178 48.89487,430.269 L49.2730856,430.390609 L49.0540158,433.019447 L48.6874571,433.094767 C37.8904333,435.313334 30.825112,443.365432 28.3068702,455.799251 L28.1756908,456.446949 L27.5880625,456.144601 C9.45073274,446.812531 -2.9014931,433.236039 -10.946792,414.551491 C-17.5569729,399.199887 -21.3420269,380.47951 -23.3665964,355.422176 C-25.4246506,376.63776 -29.9564865,393.268074 -38.7106329,408.365805 C-50.2753641,428.310776 -69.0211866,444.509924 -97.0594035,457.394326 L-97.421514,457.560727 L-99.5151701,454.838974 L-99.1284742,454.532932 C-74.9424633,435.391432 -60.7237562,414.050404 -53.5484489,388.744672 C-50.5136987,378.041775 -48.7205563,366.657116 -47.8070427,353.597198 C-47.1137921,343.686239 -46.9662826,335.690809 -46.9394625,317.60681 C-46.9353135,314.809282 -46.9329747,313.567672 -46.9281777,312.013457 L-46.9264899,311.466617 L-15.7937844,314.355219 L-15.8625661,314.871082 C-16.2121587,317.493026 -17.864579,318.910847 -21.5697516,319.565373 Z M130.606341,310.676476 L132.276148,309.483757 L132.463392,309.502481 C156.496404,311.905783 168.969971,322.061253 167.980634,333.834369 C167.088395,344.452008 155.63608,349.640045 145.296106,342.180492 L145.126045,342.057805 L145.094375,341.850513 C143.511221,331.48805 137.946946,319.764844 130.939669,311.089169 L130.606341,310.676476 Z M124.565887,417.73517 L124.683301,417.81407 C134.393375,426.329058 151.121074,429.315 187.59364,429.315 C204.590402,429.315 216.992423,428.942262 231.578725,427.921221 L232.11364,427.883776 L232.11364,430.366362 L231.727735,430.456808 C222.722071,432.567511 216.538441,441.906924 215.371158,453.579752 L215.326134,454.03 L178.60364,454.03 C146.264477,454.03 133.660248,447.165454 121.588404,425.40205 C119.732218,421.954848 118.383393,422.084542 116.273284,425.548674 C114.998019,428.028356 106.952845,442.215375 106.016919,443.905557 C105.284991,445.227339 104.595688,446.486196 103.939408,447.701127 C103.053517,449.341123 102.231567,450.894158 101.467794,452.374164 C101.68937,454.056978 100.643246,455.481714 99.0022466,456.302214 L98.5902199,456.508227 L81.7606037,428.779431 L82.3318491,428.570439 C85.5003211,427.411241 89.0445648,426.011836 94.0962883,423.950856 C94.4777212,423.795241 94.8734082,423.633566 95.2951935,423.461016 C112.030285,416.614778 115.316805,415.365 117.68864,415.365 L118.637598,415.365 C145.578717,399.519649 170.559944,376.10673 183.926439,353.745 L93.1441598,353.745 L91.4277312,348.405 L184.765842,348.405 L198.135152,336.293978 L218.620884,355.019217 L218.395471,355.373438 C217.225728,357.211605 215.57344,357.89241 211.581632,358.219887 C192.924424,384.540729 161.683539,405.968925 124.565887,417.73517 Z M314.78546,327.55 L297.18546,327.55 L297.18546,341.12 L314.78546,341.12 L314.78546,327.55 Z M297.18546,360.34 L314.78546,360.34 L314.78546,346.46 L297.18546,346.46 L297.18546,360.34 Z M314.78546,365.68 L297.18546,365.68 L297.18546,448.88 C297.18546,452.621662 287.577874,457.595 278.55046,457.595 L274.48546,457.595 L274.48546,312.66 L297.40546,322.21 L313.518525,322.21 L322.666278,312.431367 L341.897865,326.814656 L341.550088,327.220396 C340.285997,328.695169 338.508358,329.793299 336.090407,330.259936 L336.085434,369.745711 C335.841734,371.451613 324.830489,374.825 318.85046,374.825 L314.78546,374.825 L314.78546,365.68 Z M365.23046,360.34 L383.29546,360.34 L383.29546,346.46 L365.23046,346.46 L365.23046,360.34 Z M383.29546,327.55 L365.23046,327.55 L365.23046,341.12 L383.29546,341.12 L383.29546,327.55 Z M329.58046,425.75 L349.66046,425.75 L349.66046,409.855 L329.58046,409.855 L329.58046,425.75 Z M349.66046,389.24 L329.58046,389.24 L329.58046,404.515 L349.66046,404.515 L349.66046,389.24 Z M349.66046,404.515 L350.16046,404.515 L349.66046,405.015 L349.66046,404.515 Z M406.30546,330.868516 L406.30546,432.45 C406.30546,449.554219 401.003596,455.580381 380.426698,457.283296 L379.908517,457.32618 L379.885932,456.806719 C379.535422,448.744996 378.799725,444.263935 377.175675,441.556626 C375.261392,438.598189 373.394223,436.973345 369.906533,435.642124 C366.267143,437.967032 358.753071,440.39 353.72546,440.39 L349.66046,440.39 L349.66046,431.09 L329.58046,431.09 L329.58046,436.015 C329.58046,438.665313 319.694458,442.715 312.03046,442.715 L308.74046,442.715 L308.74046,375.605632 L329.795394,383.9 L348.393687,383.9 L357.698131,373.964746 L376.866883,388.462121 L376.624459,388.849999 C375.731494,390.278743 373.785363,391.444328 371.27546,391.946631 L371.27546,432.126766 C372.084987,432.163617 372.999988,432.20921 374.260901,432.274463 C374.460135,432.284782 374.460135,432.284782 374.659177,432.295118 C378.894884,432.515154 380.083204,432.57 381.00546,432.57 C382.7732,432.57 383.29546,431.898523 383.29546,430.125 L383.29546,365.68 L365.23046,365.68 L365.23046,367.815 C365.23046,370.504706 354.789749,374.825 346.90546,374.825 L343.46046,374.825 L343.46046,313.767364 L365.443173,322.21 L382.018576,322.21 L391.945928,310.864455 L412.729478,327.136847 L412.381748,327.534252 C411.00636,329.106124 409.04114,330.276157 406.30546,330.868516 Z M348.393687,383.9 L348.61046,383.9 L348.245511,384.058222 L348.393687,383.9 Z M365.443173,322.21 L365.529723,322.24324 L365.35046,322.21 L365.443173,322.21 Z M382.018576,322.21 L382.24546,322.21 L381.869171,322.380748 L382.018576,322.21 Z M471.085542,451.068985 C467.687714,449.85779 466.224225,449.291423 464.189303,448.334604 C456.366632,444.65639 451.93228,439.735921 451.93228,432.45 C451.93228,424.237768 458.537197,417.535 467.31228,417.535 C476.80029,417.535 483.62228,424.677486 483.62228,436.015 C483.62228,454.500506 473.718933,471.520543 455.263816,479.409754 L454.835909,479.592676 L451.754916,473.611925 L452.210836,473.386711 C463.20909,467.953839 469.461133,459.736147 471.085542,451.068985 Z" id="人人之間，" transform="translate(100.561140, 394.475000) rotate(90.000000) translate(-100.561140, -394.475000) "></path>
        </g>
    </g>
</svg>