<?xml version="1.0" encoding="UTF-8"?>
<svg width="171px" height="759px" viewBox="0 0 171 759" version="1.1" xmlns="http://www.w3.org/2000/svg" xmlns:xlink="http://www.w3.org/1999/xlink">
    <!-- Generator: Sketch 52.2 (67145) - http://www.bohemiancoding.com/sketch -->
    <title>屮屮之間，</title>
    <desc>Created with Sketch.</desc>
    <g id="Page-1" stroke="none" stroke-width="1" fill="none" fill-rule="evenodd" opacity="0.15">
        <g id="作品介紹內頁" transform="translate(-473.000000, -19.000000)" fill="#FFFFFF" stroke="#9B9B9B">
            <path d="M305.275,347.289161 L305.275,392.895 C305.275,395.002973 294.359493,398.045 286.175,398.045 L281.8,398.045 L281.8,389.365 L257.535,389.365 L257.535,454.895 C257.535,457.526467 246.885016,461.595 238.9,461.595 L233.905,461.595 L233.905,389.365 L208.937793,389.365 L202.332355,398.958613 L179.182141,387.626341 L179.63003,387.133664 C181.185435,385.422718 183.303216,383.459688 185.39,381.802776 L185.39,339.645264 L214.199246,342.381338 L214.130614,342.896082 C213.766486,345.627042 212.155357,347.109731 208.4,347.751631 L208.4,384.025 L233.905,384.025 L233.905,313.448407 L263.338856,316.34354 L263.264975,316.860711 C262.885264,319.518689 261.342449,320.933766 257.535,321.559161 L257.535,384.025 L281.8,384.025 L281.8,339.652096 L311.080035,342.065286 L311.004975,342.590711 C310.625264,345.248689 309.082449,346.663766 305.275,347.289161 Z M488.45682,347.289161 L488.45682,392.895 C488.45682,395.002973 477.541312,398.045 469.35682,398.045 L464.98182,398.045 L464.98182,389.365 L440.71682,389.365 L440.71682,454.895 C440.71682,457.526467 430.066835,461.595 422.08182,461.595 L417.08682,461.595 L417.08682,389.365 L392.119613,389.365 L385.514175,398.958613 L362.363961,387.626341 L362.81185,387.133664 C364.367255,385.422718 366.485036,383.459688 368.57182,381.802776 L368.57182,339.645264 L397.381066,342.381338 L397.312434,342.896082 C396.948306,345.627042 395.337177,347.109731 391.58182,347.751631 L391.58182,384.025 L417.08682,384.025 L417.08682,313.448407 L446.520676,316.34354 L446.446795,316.860711 C446.067084,319.518689 444.524269,320.933766 440.71682,321.559161 L440.71682,384.025 L464.98182,384.025 L464.98182,339.652096 L494.261855,342.065286 L494.186795,342.590711 C493.807084,345.248689 492.264269,346.663766 488.45682,347.289161 Z M584.856341,314.676476 L586.526148,313.483757 L586.713392,313.502481 C610.746404,315.905783 623.219971,326.061253 622.230634,337.834369 C621.338395,348.452008 609.88608,353.640045 599.546106,346.180492 L599.376045,346.057805 L599.344375,345.850513 C597.761221,335.48805 592.196946,323.764844 585.189669,315.089169 L584.856341,314.676476 Z M578.815891,421.735173 L578.933301,421.81407 C588.643375,430.329058 605.371074,433.315 641.84364,433.315 C658.840402,433.315 671.242423,432.942262 685.828725,431.921221 L686.36364,431.883776 L686.36364,434.366362 L685.977735,434.456808 C676.972071,436.567511 670.788441,445.906924 669.621158,457.579752 L669.576134,458.03 L632.85364,458.03 C600.514477,458.03 587.910248,451.165454 575.838404,429.40205 C573.982218,425.954848 572.633393,426.084542 570.523284,429.548674 C569.248019,432.028356 561.202845,446.215375 560.266919,447.905557 C559.534991,449.227339 558.845688,450.486196 558.189408,451.701127 C557.303517,453.341123 556.481567,454.894158 555.717794,456.374164 C555.93937,458.056978 554.893246,459.481714 553.252247,460.302214 L552.84022,460.508227 L536.010604,432.779431 L536.581849,432.570439 C539.750321,431.411241 543.294565,430.011836 548.346288,427.950856 C548.727721,427.795241 549.123408,427.633566 549.545193,427.461016 C566.280285,420.614778 569.566805,419.365 571.93864,419.365 L572.887598,419.365 C599.828717,403.519649 624.809944,380.10673 638.176439,357.745 L547.39416,357.745 L545.677731,352.405 L639.015842,352.405 L652.385152,340.293978 L672.870884,359.019217 L672.645471,359.373438 C671.475728,361.211605 669.82344,361.89241 665.831632,362.219887 C647.174424,388.540729 615.933539,409.968925 578.815887,421.73517 Z M769.03546,331.55 L751.43546,331.55 L751.43546,345.12 L769.03546,345.12 L769.03546,331.55 Z M751.43546,364.34 L769.03546,364.34 L769.03546,350.46 L751.43546,350.46 L751.43546,364.34 Z M769.03546,369.68 L751.43546,369.68 L751.43546,452.88 C751.43546,456.621662 741.827874,461.595 732.80046,461.595 L728.73546,461.595 L728.73546,316.66 L751.65546,326.21 L767.768525,326.21 L776.916278,316.431367 L796.147865,330.814656 L795.800088,331.220396 C794.535997,332.695169 792.758358,333.793299 790.340407,334.259936 L790.335434,373.745711 C790.091734,375.451613 779.080489,378.825 773.10046,378.825 L769.03546,378.825 L769.03546,369.68 Z M767.768525,326.21 L767.98546,326.21 L767.620324,326.368421 L767.768525,326.21 Z M819.48046,364.34 L837.54546,364.34 L837.54546,350.46 L819.48046,350.46 L819.48046,364.34 Z M837.54546,331.55 L819.48046,331.55 L819.48046,345.12 L837.54546,345.12 L837.54546,331.55 Z M783.83046,429.75 L803.91046,429.75 L803.91046,413.855 L783.83046,413.855 L783.83046,429.75 Z M803.91046,393.24 L783.83046,393.24 L783.83046,408.515 L803.91046,408.515 L803.91046,393.24 Z M803.91046,408.515 L804.41046,408.515 L803.91046,409.015 L803.91046,408.515 Z M860.55546,334.868516 L860.55546,436.45 C860.55546,453.554219 855.253596,459.580381 834.676698,461.283296 L834.158517,461.32618 L834.135932,460.806719 C833.785422,452.744996 833.049725,448.263935 831.425675,445.556626 C829.511392,442.598189 827.644223,440.973345 824.156533,439.642124 C820.517143,441.967032 813.003071,444.39 807.97546,444.39 L803.91046,444.39 L803.91046,435.09 L783.83046,435.09 L783.83046,440.015 C783.83046,442.665313 773.944458,446.715 766.28046,446.715 L762.99046,446.715 L762.99046,379.605632 L784.045394,387.9 L802.643687,387.9 L811.948131,377.964746 L831.116883,392.462121 L830.874459,392.849999 C829.981494,394.278743 828.035363,395.444328 825.52546,395.946631 L825.52546,436.126766 C826.334987,436.163617 827.249988,436.20921 828.510901,436.274463 C828.710135,436.284782 828.710135,436.284782 828.909177,436.295118 C833.144884,436.515154 834.333204,436.57 835.25546,436.57 C837.0232,436.57 837.54546,435.898523 837.54546,434.125 L837.54546,369.68 L819.48046,369.68 L819.48046,371.815 C819.48046,374.504706 809.039749,378.825 801.15546,378.825 L797.71046,378.825 L797.71046,317.767364 L819.693173,326.21 L836.268576,326.21 L846.195928,314.864455 L866.979478,331.136847 L866.631748,331.534252 C865.25636,333.106124 863.29114,334.276157 860.55546,334.868516 Z M925.335542,455.068985 C921.937714,453.85779 920.474225,453.291423 918.439303,452.334604 C910.616632,448.65639 906.18228,443.735921 906.18228,436.45 C906.18228,428.237768 912.787197,421.535 921.56228,421.535 C931.05029,421.535 937.87228,428.677486 937.87228,440.015 C937.87228,458.500506 927.968933,475.520543 909.513816,483.409754 L909.085909,483.592676 L906.004916,477.611925 L906.460836,477.386711 C917.45909,471.953839 923.711133,463.736147 925.335542,455.068985 Z" id="屮屮之間，" transform="translate(558.686140, 398.475000) rotate(90.000000) translate(-558.686140, -398.475000) "></path>
        </g>
    </g>
</svg>