<?xml version="1.0" encoding="UTF-8"?>
<svg width="171px" height="767px" viewBox="0 0 171 767" version="1.1" xmlns="http://www.w3.org/2000/svg" xmlns:xlink="http://www.w3.org/1999/xlink">
    <!-- Generator: Sketch 52.2 (67145) - http://www.bohemiancoding.com/sketch -->
    <title>手手之間，</title>
    <desc>Created with Sketch.</desc>
    <g id="Page-1" stroke="none" stroke-width="1" fill="none" fill-rule="evenodd" opacity="0.15">
        <g id="作品介紹內頁" transform="translate(-323.000000, -11.000000)" fill="#FFFFFF" stroke="#9B9B9B">
            <path d="M139.840832,395.37 L152.234918,379.995058 L152.619895,380.276221 C152.676651,380.317673 152.676651,380.317673 152.945034,380.514238 C153.209789,380.708292 153.516868,380.933811 153.862745,381.188358 C154.850832,381.915539 155.951789,382.729589 157.137414,383.611018 C160.525055,386.129494 163.912763,388.683504 167.075083,391.117281 C167.491839,391.438023 167.902434,391.754968 168.306538,392.067886 C170.830949,394.022669 173.06987,395.795227 174.961619,397.343021 L175.212761,397.548501 L175.127382,397.861559 C174.615125,399.739835 172.674795,400.71 169.995,400.71 L113.455,400.71 L113.455,429.195 C113.455,447.918229 105.544282,456.057769 80.1251647,457.594089 L79.6349326,457.623719 L79.5965308,457.134096 C78.9116386,448.401721 77.3000266,443.432583 73.7196861,440.265357 C69.0675399,436.171468 64.2715852,434.107386 53.8230073,432.479037 L53.4,432.413113 L53.4,429.596984 L53.9272322,429.625742 C53.9770944,429.628462 53.9770944,429.628462 54.2155529,429.641399 C54.5427087,429.659103 54.5427087,429.659103 55.0360571,429.685662 C55.9229049,429.733334 56.9199434,429.786455 58.0047681,429.843663 C61.1042597,430.007112 64.2860743,430.170562 67.3709451,430.32311 C68.2041023,430.36431 69.0205114,430.404228 69.8179984,430.442731 C77.3692184,430.807304 82.6824641,431.02 84.745,431.02 C86.8344865,431.02 87.81,430.109521 87.81,428.42 L87.81,400.71 L26.8628493,400.71 L25.337135,395.37 L87.81,395.37 L87.81,367.85 L34.4578493,367.85 L32.932135,362.51 L87.81,362.51 L87.81,339.051167 C69.3072064,340.163957 51.205304,340.547421 34.9763687,340.104814 L34.5592618,340.093439 L34.1097605,337.17168 L34.6041343,337.095789 C70.2789116,331.619398 113.636807,319.802976 135.371642,309.547807 L135.685126,309.399896 L158.961617,332.038674 L158.535092,332.394111 C156.267782,334.283536 151.828101,334.341442 146.234808,332.217992 C136.200449,334.15525 125.055287,335.78423 113.455,336.957242 L113.455,362.51 L135.190078,362.51 L147.273373,347.445113 L147.659086,347.725632 C147.714005,347.765574 147.714005,347.765574 147.973503,347.954905 C148.229477,348.141824 148.526364,348.359104 148.860756,348.604417 C149.816014,349.305201 150.880382,350.09018 152.0266,350.940737 C155.301666,353.371014 158.576805,355.840077 161.634116,358.199155 C162.095342,358.555046 162.548736,358.906243 162.993823,359.252421 C165.492154,361.195568 167.695281,362.954347 169.539378,364.485295 L169.787094,364.690947 L169.702382,365.001559 C169.190125,366.879835 167.249795,367.85 164.57,367.85 L113.455,367.85 L113.455,395.37 L139.840832,395.37 Z M139.840832,395.37 L140.08,395.37 L139.690731,395.556201 L139.840832,395.37 Z M323.022652,395.37 L335.416738,379.995058 L335.801714,380.276221 C335.858471,380.317673 335.858471,380.317673 336.126854,380.514238 C336.391609,380.708292 336.698688,380.933811 337.044565,381.188358 C338.032652,381.915539 339.133609,382.729589 340.319234,383.611018 C343.706875,386.129494 347.094582,388.683504 350.256903,391.117281 C350.673659,391.438023 351.084254,391.754968 351.488358,392.067886 C354.012769,394.022669 356.25169,395.795227 358.143439,397.343021 L358.394581,397.548501 L358.309202,397.861559 C357.796945,399.739835 355.856615,400.71 353.17682,400.71 L296.63682,400.71 L296.63682,429.195 C296.63682,447.918229 288.726102,456.057769 263.306985,457.594089 L262.816753,457.623719 L262.778351,457.134096 C262.093459,448.401721 260.481846,443.432583 256.901506,440.265357 C252.24936,436.171468 247.453405,434.107386 237.004827,432.479037 L236.58182,432.413113 L236.58182,429.596984 L237.109052,429.625742 C237.158914,429.628462 237.158914,429.628462 237.397373,429.641399 C237.724529,429.659103 237.724529,429.659103 238.217877,429.685662 C239.104725,429.733334 240.101763,429.786455 241.186588,429.843663 C244.28608,430.007112 247.467894,430.170562 250.552765,430.32311 C251.385922,430.36431 252.202331,430.404228 252.999818,430.442731 C260.551038,430.807304 265.864284,431.02 267.92682,431.02 C270.016306,431.02 270.99182,430.109521 270.99182,428.42 L270.99182,400.71 L210.044669,400.71 L208.518955,395.37 L270.99182,395.37 L270.99182,367.85 L217.639669,367.85 L216.113955,362.51 L270.99182,362.51 L270.99182,339.051167 C252.489026,340.163957 234.387124,340.547421 218.158189,340.104814 L217.741082,340.093439 L217.29158,337.17168 L217.785954,337.095789 C253.460731,331.619398 296.818627,319.802976 318.553461,309.547807 L318.866946,309.399896 L342.143436,332.038674 L341.716912,332.394111 C339.449602,334.283536 335.009921,334.341442 329.416628,332.217992 C319.382269,334.15525 308.237106,335.78423 296.63682,336.957242 L296.63682,362.51 L318.371898,362.51 L330.455193,347.445113 L330.840906,347.725632 C330.895825,347.765574 330.895825,347.765574 331.155323,347.954905 C331.411297,348.141824 331.708184,348.359104 332.042576,348.604417 C332.997834,349.305201 334.062202,350.09018 335.20842,350.940737 C338.483486,353.371014 341.758625,355.840077 344.815936,358.199155 C345.277162,358.555046 345.730556,358.906243 346.175643,359.252421 C348.673974,361.195568 350.877101,362.954347 352.721198,364.485295 L352.968914,364.690947 L352.884202,365.001559 C352.371945,366.879835 350.431615,367.85 347.75182,367.85 L296.63682,367.85 L296.63682,395.37 L323.022652,395.37 Z M439.381341,310.676476 L441.051148,309.483757 L441.238392,309.502481 C465.271404,311.905783 477.744971,322.061253 476.755634,333.834369 C475.863395,344.452008 464.41108,349.640045 454.071106,342.180492 L453.901045,342.057805 L453.869375,341.850513 C452.286221,331.48805 446.721946,319.764844 439.714669,311.089169 L439.381341,310.676476 Z M433.340887,417.73517 L433.458301,417.81407 C443.168375,426.329058 459.896074,429.315 496.36864,429.315 C513.365402,429.315 525.767423,428.942262 540.353725,427.921221 L540.88864,427.883776 L540.88864,430.366362 L540.502735,430.456808 C531.497071,432.567511 525.313441,441.906924 524.146158,453.579752 L524.101134,454.03 L487.37864,454.03 C455.039477,454.03 442.435248,447.165454 430.363404,425.40205 C428.507218,421.954848 427.158393,422.084542 425.048284,425.548674 C423.773019,428.028356 415.727845,442.215375 414.791919,443.905557 C414.059991,445.227339 413.370688,446.486196 412.714408,447.701127 C411.828517,449.341123 411.006567,450.894158 410.242794,452.374164 C410.46437,454.056978 409.418246,455.481714 407.777247,456.302214 L407.36522,456.508227 L390.535604,428.779431 L391.106849,428.570439 C394.275321,427.411241 397.819565,426.011836 402.871288,423.950856 C403.252721,423.795241 403.648408,423.633566 404.070193,423.461016 C420.805285,416.614778 424.091805,415.365 426.46364,415.365 L427.412598,415.365 C454.353717,399.519649 479.334944,376.10673 492.701439,353.745 L401.91916,353.745 L400.202731,348.405 L493.540842,348.405 L506.910152,336.293978 L527.395884,355.019217 L527.170471,355.373438 C526.000728,357.211605 524.34844,357.89241 520.356632,358.219887 C501.699424,384.540729 470.458539,405.968925 433.340887,417.73517 Z M493.540842,348.405 L493.73364,348.405 L493.397955,348.534439 L493.540842,348.405 Z M623.56046,327.55 L605.96046,327.55 L605.96046,341.12 L623.56046,341.12 L623.56046,327.55 Z M623.56046,341.12 L624.06046,341.12 L623.56046,341.62 L623.56046,341.12 Z M605.96046,360.34 L623.56046,360.34 L623.56046,346.46 L605.96046,346.46 L605.96046,360.34 Z M623.56046,360.34 L624.06046,360.34 L623.56046,360.84 L623.56046,360.34 Z M623.56046,365.68 L605.96046,365.68 L605.96046,448.88 C605.96046,452.621662 596.352874,457.595 587.32546,457.595 L583.26046,457.595 L583.26046,312.66 L606.18046,322.21 L622.293525,322.21 L631.441278,312.431367 L650.672865,326.814656 L650.325088,327.220396 C649.060997,328.695169 647.283358,329.793299 644.865407,330.259936 L644.860434,369.745711 C644.616734,371.451613 633.605489,374.825 627.62546,374.825 L623.56046,374.825 L623.56046,365.68 Z M674.00546,360.34 L692.07046,360.34 L692.07046,346.46 L674.00546,346.46 L674.00546,360.34 Z M692.07046,360.34 L692.57046,360.34 L692.07046,360.84 L692.07046,360.34 Z M692.07046,327.55 L674.00546,327.55 L674.00546,341.12 L692.07046,341.12 L692.07046,327.55 Z M638.35546,425.75 L658.43546,425.75 L658.43546,409.855 L638.35546,409.855 L638.35546,425.75 Z M658.43546,389.24 L638.35546,389.24 L638.35546,404.515 L658.43546,404.515 L658.43546,389.24 Z M715.08046,330.868516 L715.08046,432.45 C715.08046,449.554219 709.778596,455.580381 689.201698,457.283296 L688.683517,457.32618 L688.660932,456.806719 C688.310422,448.744996 687.574725,444.263935 685.950675,441.556626 C684.036392,438.598189 682.169223,436.973345 678.681533,435.642124 C675.042143,437.967032 667.528071,440.39 662.50046,440.39 L658.43546,440.39 L658.43546,431.09 L638.35546,431.09 L638.35546,436.015 C638.35546,438.665313 628.469458,442.715 620.80546,442.715 L617.51546,442.715 L617.51546,375.605632 L638.570394,383.9 L657.168687,383.9 L666.473131,373.964746 L685.641883,388.462121 L685.399459,388.849999 C684.506494,390.278743 682.560363,391.444328 680.05046,391.946631 L680.05046,432.126766 C680.859987,432.163617 681.774988,432.20921 683.035901,432.274463 C683.235135,432.284782 683.235135,432.284782 683.434177,432.295118 C687.669884,432.515154 688.858204,432.57 689.78046,432.57 C691.5482,432.57 692.07046,431.898523 692.07046,430.125 L692.07046,365.68 L674.00546,365.68 L674.00546,367.815 C674.00546,370.504706 663.564749,374.825 655.68046,374.825 L652.23546,374.825 L652.23546,313.767364 L674.218173,322.21 L690.793576,322.21 L700.720928,310.864455 L721.504478,327.136847 L721.156748,327.534252 C719.78136,329.106124 717.81614,330.276157 715.08046,330.868516 Z M638.570394,383.9 L638.658722,383.934796 L638.47546,383.9 L638.570394,383.9 Z M690.793576,322.21 L691.02046,322.21 L690.644171,322.380748 L690.793576,322.21 Z M779.860542,451.068985 C776.462714,449.85779 774.999225,449.291423 772.964303,448.334604 C765.141632,444.65639 760.70728,439.735921 760.70728,432.45 C760.70728,424.237768 767.312197,417.535 776.08728,417.535 C785.57529,417.535 792.39728,424.677486 792.39728,436.015 C792.39728,454.500506 782.493933,471.520543 764.038816,479.409754 L763.610909,479.592676 L760.529916,473.611925 L760.985836,473.386711 C771.98409,467.953839 778.236133,459.736147 779.860542,451.068985 Z" id="手手之間，" transform="translate(408.948640, 394.475000) rotate(90.000000) translate(-408.948640, -394.475000) "></path>
        </g>
    </g>
</svg>