<?xml version="1.0" encoding="UTF-8"?>
<svg width="171px" height="745px" viewBox="0 0 171 745" version="1.1" xmlns="http://www.w3.org/2000/svg" xmlns:xlink="http://www.w3.org/1999/xlink">
    <!-- Generator: Sketch 52.2 (67145) - http://www.bohemiancoding.com/sketch -->
    <title>日日之間，</title>
    <desc>Created with Sketch.</desc>
    <g id="Page-1" stroke="none" stroke-width="1" fill="none" fill-rule="evenodd" opacity="0.15">
        <g id="作品介紹內頁" transform="translate(-166.000000, -34.000000)" fill="#FFFFFF" stroke="#9B9B9B">
            <path d="M-95.785,447.36 L-41.295,447.36 L-41.295,397.21 L-95.785,397.21 L-95.785,447.36 Z M-41.295,343.89 L-95.785,343.89 L-95.785,391.87 L-41.295,391.87 L-41.295,343.89 Z M-15.8050277,347.496402 L-15.813065,459.729443 C-16.2779466,462.286291 -28.9525644,467.27 -36.92,467.27 L-41.295,467.27 L-41.295,452.7 L-95.785,452.7 L-95.785,459.64 C-95.785,463.473963 -106.70701,468.82 -116.125,468.82 L-120.5,468.82 L-120.5,328.394865 L-94.794814,338.55 L-42.5659943,338.55 L-31.3939716,326.27651 L-9.71752986,343.617664 L-10.0203239,344.00697 C-11.2659399,345.608477 -13.0831001,346.75767 -15.8050277,347.496402 Z M-42.5659943,338.55 L-42.345,338.55 L-42.7147555,338.713428 L-42.5659943,338.55 Z M87.3968199,447.36 L141.88682,447.36 L141.88682,397.21 L87.3968199,397.21 L87.3968199,447.36 Z M141.88682,343.89 L87.3968199,343.89 L87.3968199,391.87 L141.88682,391.87 L141.88682,343.89 Z M167.376792,347.496402 L167.368755,459.729443 C166.903873,462.286291 154.229256,467.27 146.26182,467.27 L141.88682,467.27 L141.88682,452.7 L87.3968199,452.7 L87.3968199,459.64 C87.3968199,463.473963 76.4748098,468.82 67.0568199,468.82 L62.6818199,468.82 L62.6818199,328.394865 L88.3870059,338.55 L140.615826,338.55 L151.787848,326.27651 L173.46429,343.617664 L173.161496,344.00697 C171.91588,345.608477 170.09872,346.75767 167.376792,347.496402 Z M269.821341,322.676476 L271.491148,321.483757 L271.678392,321.502481 C295.711404,323.905783 308.184971,334.061253 307.195634,345.834369 C306.303395,356.452008 294.85108,361.640045 284.511106,354.180492 L284.341045,354.057805 L284.309375,353.850513 C282.726221,343.48805 277.161946,331.764844 270.154669,323.089169 L269.821341,322.676476 Z M263.780887,429.73517 L263.898301,429.81407 C273.608375,438.329058 290.336074,441.315 326.80864,441.315 C343.805402,441.315 356.207423,440.942262 370.793725,439.921221 L371.32864,439.883776 L371.32864,442.366362 L370.942735,442.456808 C361.937071,444.567511 355.753441,453.906924 354.586158,465.579752 L354.541134,466.03 L317.81864,466.03 C285.479477,466.03 272.875248,459.165454 260.803404,437.40205 C258.947218,433.954848 257.598393,434.084542 255.488284,437.548674 C254.213019,440.028356 246.167845,454.215375 245.231919,455.905557 C244.499991,457.227339 243.810688,458.486196 243.154408,459.701127 C242.268517,461.341123 241.446567,462.894158 240.682794,464.374164 C240.90437,466.056978 239.858246,467.481714 238.217247,468.302214 L237.80522,468.508227 L220.975604,440.779431 L221.546849,440.570439 C224.715321,439.411241 228.259565,438.011836 233.311288,435.950856 C233.692721,435.795241 234.088408,435.633566 234.510193,435.461016 C251.245285,428.614778 254.531805,427.365 256.90364,427.365 L257.852598,427.365 C284.793717,411.519649 309.774944,388.10673 323.141439,365.745 L232.35916,365.745 L230.642731,360.405 L323.980842,360.405 L337.350152,348.293978 L357.835884,367.019217 L357.610471,367.373438 C356.440728,369.211605 354.78844,369.89241 350.796632,370.219887 C332.139424,396.540729 300.898539,417.968925 263.780887,429.73517 Z M454.00046,339.55 L436.40046,339.55 L436.40046,353.12 L454.00046,353.12 L454.00046,339.55 Z M454.00046,353.12 L454.50046,353.12 L454.00046,353.62 L454.00046,353.12 Z M436.40046,372.34 L454.00046,372.34 L454.00046,358.46 L436.40046,358.46 L436.40046,372.34 Z M454.00046,372.34 L454.50046,372.34 L454.00046,372.84 L454.00046,372.34 Z M454.00046,377.68 L436.40046,377.68 L436.40046,460.88 C436.40046,464.621662 426.792874,469.595 417.76546,469.595 L413.70046,469.595 L413.70046,324.66 L436.62046,334.21 L452.733525,334.21 L461.881278,324.431367 L481.112865,338.814656 L480.765088,339.220396 C479.500997,340.695169 477.723358,341.793299 475.305407,342.259936 L475.300434,381.745711 C475.056734,383.451613 464.045489,386.825 458.06546,386.825 L454.00046,386.825 L454.00046,377.68 Z M436.62046,334.21 L436.712767,334.248462 L436.52046,334.21 L436.62046,334.21 Z M452.733525,334.21 L452.95046,334.21 L452.585324,334.368421 L452.733525,334.21 Z M504.44546,372.34 L522.51046,372.34 L522.51046,358.46 L504.44546,358.46 L504.44546,372.34 Z M522.51046,372.34 L523.01046,372.34 L522.51046,372.84 L522.51046,372.34 Z M522.51046,339.55 L504.44546,339.55 L504.44546,353.12 L522.51046,353.12 L522.51046,339.55 Z M468.79546,437.75 L488.87546,437.75 L488.87546,421.855 L468.79546,421.855 L468.79546,437.75 Z M488.87546,401.24 L468.79546,401.24 L468.79546,416.515 L488.87546,416.515 L488.87546,401.24 Z M488.87546,416.515 L489.37546,416.515 L488.87546,417.015 L488.87546,416.515 Z M545.52046,342.868516 L545.52046,444.45 C545.52046,461.554219 540.218596,467.580381 519.641698,469.283296 L519.123517,469.32618 L519.100932,468.806719 C518.750422,460.744996 518.014725,456.263935 516.390675,453.556626 C514.476392,450.598189 512.609223,448.973345 509.121533,447.642124 C505.482143,449.967032 497.968071,452.39 492.94046,452.39 L488.87546,452.39 L488.87546,443.09 L468.79546,443.09 L468.79546,448.015 C468.79546,450.665313 458.909458,454.715 451.24546,454.715 L447.95546,454.715 L447.95546,387.605632 L469.010394,395.9 L487.608687,395.9 L496.913131,385.964746 L516.081883,400.462121 L515.839459,400.849999 C514.946494,402.278743 513.000363,403.444328 510.49046,403.946631 L510.49046,444.126766 C511.299987,444.163617 512.214988,444.20921 513.475901,444.274463 C513.675135,444.284782 513.675135,444.284782 513.874177,444.295118 C518.109884,444.515154 519.298204,444.57 520.22046,444.57 C521.9882,444.57 522.51046,443.898523 522.51046,442.125 L522.51046,377.68 L504.44546,377.68 L504.44546,379.815 C504.44546,382.504706 494.004749,386.825 486.12046,386.825 L482.67546,386.825 L482.67546,325.767364 L504.658173,334.21 L521.233576,334.21 L531.160928,322.864455 L551.944478,339.136847 L551.596748,339.534252 C550.22136,341.106124 548.25614,342.276157 545.52046,342.868516 Z M610.300542,463.068985 C606.902714,461.85779 605.439225,461.291423 603.404303,460.334604 C595.581632,456.65639 591.14728,451.735921 591.14728,444.45 C591.14728,436.237768 597.752197,429.535 606.52728,429.535 C616.01529,429.535 622.83728,436.677486 622.83728,448.015 C622.83728,466.500506 612.933933,483.520543 594.478816,491.409754 L594.050909,491.592676 L590.969916,485.611925 L591.425836,485.386711 C602.42409,479.953839 608.676133,471.736147 610.300542,463.068985 Z" id="日日之間，" transform="translate(251.168640, 406.475000) rotate(90.000000) translate(-251.168640, -406.475000) "></path>
        </g>
    </g>
</svg>